<?xml version="1.0" encoding="UTF-8"?><svg id="_レイヤー_2" xmlns="http://www.w3.org/2000/svg" xmlns:xlink="http://www.w3.org/1999/xlink" viewBox="0 0 357.96 43.67"><defs><style>.cls-1{clip-path:url(#clippath);}.cls-2{fill:none;}.cls-2,.cls-3{stroke-width:0px;}.cls-3{fill:#fff;}</style><clipPath id="clippath"><rect class="cls-2" width="357.96" height="43.67"/></clipPath></defs><g id="_レイヤー_2-2"><g class="cls-1"><g id="_レイヤー_1-2"><path class="cls-3" d="m.192,24.163c1.033-5.858,5.768-10.054,10.629-10.054,3.361,0,5.082,1.57,5.964,3.783L19.834.598h4.632l-5.87,33.294h-4.632l.752-3.505c-1.592,2.354-4.186,3.919-7.366,3.919C2.399,34.307-.84,30.018.192,24.163Zm15.67,0c.619-3.505-1.142-5.902-4.503-5.902-3.316,0-5.827,2.397-6.445,5.902-.641,3.642,1.024,6.04,4.339,6.04,3.361,0,5.967-2.399,6.609-6.04Z"/><path class="cls-3" d="m36.143,30.388c2.498,0,4.491-1.013,5.77-2.076l2.175,2.86c-2.089,1.798-4.776,3.136-8.591,3.136-6.541,0-10.009-4.289-8.985-10.099,1.016-5.763,6.23-10.099,11.953-10.099,6.496,0,9.313,4.891,7.798,11.668h-15.351c.049,2.811,1.731,4.61,5.23,4.61Zm6.059-7.837c.056-2.631-1.193-4.566-4.373-4.566-2.952,0-5.288,1.658-6.346,4.566h10.719Z"/><path class="cls-3" d="m66.338,18.446h-3.132l.69-3.918h3.132l1.35-7.657c.821-4.658,3.439-6.871,7.344-6.871,2.498,0,4.024.876,4.983,2.397l-3.246,2.952c-.431-.647-.93-1.153-2.022-1.153-1.181,0-2.121.692-2.464,2.631l-1.358,7.702h5.135l-.69,3.918h-5.135l-2.723,15.447h-4.587s2.723-15.447,2.723-15.447Z"/><path class="cls-3" d="m89.577,17.984c-2.498,0-4.15,1.108-5.403,2.305l-2.158-2.719c2.038-2.031,4.565-3.46,8.604-3.46,4.591,0,7.576,2.629,6.569,8.347l-2.016,11.436h-4.587l.623-2.766c-1.729,2.076-3.741,3.181-6.554,3.181-3.769,0-6.543-1.798-5.78-6.132.707-4.011,4.197-5.765,8.52-5.81h5.225c.544-3.092-.589-4.381-3.042-4.381Zm-2.434,7.61c-1.999,0-3.447.737-3.747,2.44-.293,1.663.825,2.539,3.188,2.539,2.678,0,4.823-1.337,5.197-3.458l.268-1.521h-4.906Z"/><path class="cls-3" d="m102.906,24.208c1.016-5.763,6.14-10.099,11.953-10.099,3.589,0,5.66,1.386,7.072,3.691l-3.743,2.674c-.671-1.337-2.098-2.262-4.053-2.262-3.406,0-5.898,2.537-6.507,5.995-.609,3.46.986,5.995,4.392,5.995,2.273,0,3.807-.968,5.06-2.17l2.648,2.772c-2.243,2.164-4.75,3.501-8.43,3.501-5.813,0-9.416-4.289-8.392-10.099Z"/><path class="cls-3" d="m127.509,27.344l1.57-8.898h-2.862l.69-3.918h2.862l1.318-7.473h4.587l-1.318,7.473h5.086l-.69,3.918h-5.086l-1.585,8.99c-.399,2.262.21,2.907,1.391,2.907,1.226,0,2.016-.602,2.588-1.015l1.348,3.181c-1.112.878-2.689,1.845-5.277,1.845-3.361,0-5.532-1.845-4.623-7.01Z"/><path class="cls-3" d="m143.267,24.208c1.016-5.763,6.324-10.099,12.092-10.099,5.813,0,9.497,4.336,8.48,10.099-1.016,5.765-6.228,10.099-12.041,10.099-5.768,0-9.547-4.334-8.531-10.099h0Zm15.85,0c.626-3.55-1.069-6.039-4.475-6.039s-6.027,2.489-6.654,6.039c-.626,3.554,1.106,6.087,4.516,6.087s5.986-2.534,6.612-6.087Z"/><path class="cls-3" d="m177.192,30.296l3.522-2.213c.881,1.707,2.517,2.49,4.696,2.49,2.314,0,3.499-.784,3.726-2.076.276-1.566-1.093-1.8-4.154-2.719-2.678-.784-5.258-2.125-4.583-5.95.683-3.871,4.051-5.718,7.824-5.718,3.042,0,4.947,1.292,6.114,2.907l-3.149,2.674c-.72-1.06-1.89-1.89-3.616-1.89s-2.796.645-2.999,1.798c-.261,1.474.863,1.798,3.723,2.582,2.858.782,5.917,1.982,5.193,6.087-.585,3.319-3.062,6.039-8.467,6.039-4.358,0-6.924-1.935-7.829-4.011h0Z"/><path class="cls-3" d="m200.711,27.344l1.57-8.898h-2.858l.69-3.918h2.858l1.318-7.473h4.591l-1.318,7.473h5.086l-.69,3.918h-5.086l-1.585,8.99c-.399,2.262.21,2.907,1.391,2.907,1.226,0,2.016-.602,2.588-1.015l1.348,3.181c-1.112.878-2.689,1.845-5.277,1.845-3.361,0-5.536-1.845-4.626-7.01Z"/><path class="cls-3" d="m226.247,17.984c-2.498,0-4.15,1.108-5.403,2.305l-2.158-2.719c2.038-2.031,4.565-3.46,8.604-3.46,4.591,0,7.576,2.629,6.569,8.347l-2.016,11.436h-4.587l.623-2.766c-1.729,2.076-3.741,3.181-6.554,3.181-3.769,0-6.543-1.798-5.78-6.132.707-4.011,4.197-5.765,8.52-5.81h5.225c.544-3.092-.589-4.381-3.042-4.381h0Zm-2.434,7.61c-1.999,0-3.447.737-3.747,2.44-.293,1.663.825,2.539,3.188,2.539,2.678,0,4.823-1.337,5.197-3.458l.268-1.521h-4.906Z"/><path class="cls-3" d="m242.236,14.528h4.587l-.724,3.593c1.63-2.534,4.294-4.011,7.156-4.011,4.227,0,6.597,3.044,5.669,8.3l-2.023,11.483h-4.591l1.96-11.113c.488-2.768-.501-4.381-3.179-4.381-2.997,0-5.275,1.845-5.828,4.983l-1.853,10.511h-4.587l3.413-19.365h0Z"/><path class="cls-3" d="m264.687,24.163c1.033-5.858,5.768-10.054,10.629-10.054,3.361,0,5.082,1.57,5.964,3.783l3.049-17.294h4.632l-5.87,33.294h-4.632l.752-3.505c-1.592,2.354-4.186,3.919-7.366,3.919-4.951,0-8.19-4.289-7.158-10.144Zm15.67,0c.619-3.505-1.142-5.902-4.503-5.902-3.316,0-5.827,2.397-6.445,5.902-.641,3.642,1.024,6.04,4.339,6.04,3.361,0,5.967-2.399,6.609-6.04Z"/><path class="cls-3" d="m301.012,17.984c-2.498,0-4.15,1.108-5.403,2.305l-2.158-2.719c2.038-2.031,4.565-3.46,8.604-3.46,4.591,0,7.576,2.629,6.569,8.347l-2.016,11.436h-4.587l.623-2.766c-1.729,2.076-3.741,3.181-6.554,3.181-3.769,0-6.543-1.798-5.78-6.132.707-4.011,4.197-5.765,8.52-5.81h5.225c.544-3.092-.589-4.381-3.042-4.381h0Zm-2.434,7.61c-1.999,0-3.447.737-3.747,2.44-.293,1.663.825,2.539,3.188,2.539,2.678,0,4.823-1.337,5.197-3.458l.268-1.521h-4.906Z"/><path class="cls-3" d="m317.001,14.528h4.587l-.686,3.642c1.808-3.044,4.158-4.011,6.247-4.011,1.365,0,2.262.321,2.991.827l-2.286,4.195c-.664-.366-1.339-.641-2.385-.641-2.723,0-4.87,1.613-5.635,5.947l-1.658,9.407h-4.587l3.413-19.365h0Z"/><path class="cls-3" d="m332.232,24.163c1.033-5.858,5.768-10.054,10.629-10.054,3.361,0,5.082,1.57,5.964,3.783l3.049-17.294h4.632l-5.87,33.294h-4.632l.752-3.505c-1.592,2.354-4.186,3.919-7.366,3.919-4.951,0-8.19-4.289-7.158-10.144Zm15.67,0c.619-3.505-1.142-5.902-4.503-5.902-3.316,0-5.827,2.397-6.445,5.902-.641,3.642,1.024,6.04,4.339,6.04,3.361,0,5.967-2.399,6.609-6.04Z"/></g></g></g></svg>