<?xml version="1.0" encoding="UTF-8"?><svg id="_レイヤー_2" xmlns="http://www.w3.org/2000/svg" viewBox="0 0 230.062 115.967"><defs><style>.cls-1{fill:#00386a;}.cls-2{fill:#406596;}.cls-3{fill:#1c4279;}</style></defs><g id="_レイヤー_6"><path class="cls-1" d="m230.062,54.556v61.411H0v-60.75c0-7.924,10.235-9.575,10.235-9.575h211.901s7.926.66,7.926,8.914Z"/><path class="cls-3" d="m230.062,45.642v61.411H0v-60.749c0-7.925,10.235-9.575,10.235-9.575h211.901s7.926.66,7.926,8.914Z"/><path class="cls-1" d="m152.09,37.058c0,20.466-16.592,37.058-37.06,37.058s-37.057-16.591-37.057-37.058S94.565,0,115.029,0s37.06,16.591,37.06,37.058Z"/><path class="cls-3" d="m143.783,37.058c0,15.879-12.873,28.752-28.753,28.752s-28.751-12.873-28.751-28.752,12.875-28.752,28.751-28.752,28.753,12.873,28.753,28.752Z"/><path class="cls-2" d="m86.292,36.48c-.003.193-.014.384-.014.578,0,15.879,12.875,28.752,28.751,28.752s28.753-12.873,28.753-28.752c0-.194-.01-.385-.015-.578h-57.475Z"/></g></svg>