<?xml version="1.0" encoding="UTF-8"?><svg id="_レイヤー_2" xmlns="http://www.w3.org/2000/svg" xmlns:xlink="http://www.w3.org/1999/xlink" viewBox="0 0 421.275 421.275"><defs><style>.cls-1,.cls-2,.cls-3{fill:none;}.cls-2{clip-path:url(#clippath-1);}.cls-4{fill:#697dc8;}.cls-5{fill:#e6e6e6;}.cls-6{fill:#fff;}.cls-7{fill:#f0bda5;}.cls-8{fill:#e5b187;}.cls-9{fill:#b8d3e1;}.cls-10{fill:#cea691;}.cls-11{fill:#ddebf2;}.cls-12{fill:#14509f;}.cls-13{fill:#3b3b3b;}.cls-14{fill:url(#Novpol昼ko_p_echodu_2);}.cls-15{fill:url(#_名称未設定グラデーション_21);}.cls-3{clip-path:url(#clippath);}</style><clipPath id="clippath"><rect class="cls-1" x="0" width="421.275" height="421.275"/></clipPath><linearGradient id="_名称未設定グラデーション_21" x1="76.415" y1="76.614" x2="374.301" y2="374.5" gradientUnits="userSpaceOnUse"><stop offset="0" stop-color="#5aedff"/><stop offset=".992" stop-color="#14509f"/></linearGradient><clipPath id="clippath-1"><path class="cls-1" d="m343.194,280.323c-25.087,47.694-75.123,80.217-132.755,80.217-63.422,0-117.644-39.386-139.543-95.033L-31.246,194.41V-9.753h473.638v266.546l-99.198,23.531Z"/></clipPath><linearGradient id="Novpol昼ko_p_echodu_2" x1="17062.424" y1="303.287" x2="16965.419" y2="230.319" gradientTransform="translate(-16679.592)" gradientUnits="userSpaceOnUse"><stop offset="0" stop-color="#accfdf"/><stop offset="1" stop-color="#fff"/></linearGradient></defs><g id="_メニュー"><g class="cls-3"><circle class="cls-15" cx="210.438" cy="210.637" r="210.637"/><circle class="cls-12" cx="210.438" cy="210.637" r="149.903"/><g class="cls-2"><path class="cls-13" d="m103.768,66.308c-10.457,0-17.54,4.188-19.639,13.025-.808,3.4-.981,7.75-1.608,11.204-.637,3.511-3.727,6.405-3.805,10.226-.067,3.278,1.564,6.62.381,10.21-1.105,3.351-4.306,7.649-2.701,15.087,5.008,23.198,21.535,32.201,53.736,21.845,10.411-3.348,27.162-16.088-6.481-71.434-4.566-7.512-9.426-10.163-19.884-10.163Z"/><path class="cls-8" d="m71.854,156.155c11.575-11.086,39.375-11.92,20.018,16.168-13.861,20.112-34.313,29.73-48.758,33.136-14.924,3.519-6.809-10.894-2.037-18.872,8.288-13.855,19.202-19.346,30.777-30.432Z"/><path class="cls-5" d="m76.741,188.74c-.336-.793-3.498-9.38-16.263-15.506,11.982-19.092,32.348-29.009,41.921-23.564,10.586,6.021-20.816,35.378-25.658,39.07Z"/><path class="cls-6" d="m95.805,261.36s3.81-25.516-1.169-45.628c-2.149-8.683-8.099-12.267-7.917-23.566.221-13.698-6.622-33.554.387-42.245,2.762-3.424,18.558-11.82,35.4-13.035,26.978-1.946,41.705,6.251,50.487,10.504,19.865,9.021-10.023,17.172-6.837,29.12,1.009,5.59,1.994,8.013,1.914,15.603-1.61,10.803-8.916,20.932-9.842,29.813-1.404,13.478,4.243,29.933,2.419,37.055-4.647,18.146-64.842,2.38-64.842,2.38Z"/><path class="cls-4" d="m92.83,255.448c-7.098,16.394-10.505,33.3-12.246,77.758l94.385.009c-1.215-38.032-1.894-61.916-13.054-77.934-24.781-1.027-44.885-1.45-69.084.167Z"/><path class="cls-5" d="m171.755,190.619s-.479-10.946-3.095-5.893c-5.775,11.151-14.149,23.574-28.884,18.596-14.095-4.762-23.025-6.336-31.699-4.087-13.538,3.51-21.338-5.466-21.338-5.466,0,0-.81,5.266,4.867,14.855,6.345,10.716,2.883,30.533,1.226,46.866,11.649,15.234,70.307,1.243,70.307,1.243,0,0-3.251-24.278.281-34.226,4.419-12.446,8.336-31.888,8.336-31.888Z"/><path class="cls-8" d="m106.419,125.371c2.237,2.32,28.314-4.282,31.593-7.88,2.357,7.364,3.609,15.907,10.237,22.461,2.877,5.753-1.09,23.11-20.343,23.11-15.054,0-19.26-12.904-16.981-21.15,5.179-4.979,1.312-10.576-4.506-16.541Z"/><path class="cls-8" d="m187.341,170.964c-3.935-15.537-20.401-33.886-20.988.221-.552,32.09,7.911,39.326,9.679,60.646.541,6.53,6.72,13.734,12.372,12.17,13.035-3.609,6.022-15.402,5.302-24.671-1.178-15.171-1.472-29.049-6.365-48.366Z"/><path class="cls-6" d="m168.092,194.825c.672-.538,9.086-5.1,23.428-4.069-4.124-26.217-9.08-43.483-21.252-43.115-12.173.368-8.082,26.818-2.175,47.184Z"/><path class="cls-8" d="m73.96,154.671c1.265,1.019,2.611,2.128,6.352.994,5.625-1.704,8.886-6.265,12.427-8.561,3.362-2.179,5.689-3.148,5.689-3.148,0,0-.09-2.85-5.854-1.399-8.024,2.021-2.794-19.899-2.794-19.899,0,0-.606-.233-3.219-1.3-2.69-1.099-4.831.684-4.791,2.119-4.061-1.442-4.477,2.574-4.477,2.574,0,0-3.384-1.034-5.27,5.105-1.886,6.139-2.885,17.267-1.598,19.942,1.13,2.347,2.396,2.655,3.535,3.572Z"/><path class="cls-12" d="m108.762,129.006s-23.19,20.02-24.265,20.869c-.88.695-1.773,1.33-2.884.115-1.111-1.216-7.341-12.863-8.108-14.266-.538-.984-.552-2.303.218-2.947.923-.772,3.007-2.447,3.007-2.447,5.197,4.602,9.019,3.613,8.549.386,1.744,1.262,3.798-1.638.094-5.3,2.329,1.058,4.623-1.447,3.042-3.321,2.392-2.118,11.254-8.983,11.254-8.983,0,0,1.693-.933,2.652.691.959,1.624,6.441,15.204,6.441,15.204Z"/><path class="cls-7" d="m78.266,156.956c-7.431,12.099-14.636,27.594-24.411,38.734-9.774,11.14-22.022,17.254-23.713,4.419-1.649-12.52,11.372-24.173,14.508-27.175,14.926-14.287,22.558-20.965,25.002-23.75,2.444-2.785,10.607,4.526,8.614,7.772Z"/><path class="cls-8" d="m114.64,142.392s.396-12.308-8.589-12.308c-5.375,0,13.702-38.431,13.702-38.431l10.069-3.402s6.602,32.068,10.539,39.503c3.937,7.435,3.177,22.662-3.627,27.505-6.804,4.844-22.093-12.868-22.093-12.868Z"/><path class="cls-7" d="m121.571,105.845s6.516-1.32,4.253-12.924c-.651-3.336-10.363-7.333-12.695.94-8.237.918-7.3-22.88-7.3-22.88l-3.803,1.579s-3.803,1.059-8.498,6.45c-6.053,6.951-4.285,14.683-3.88,22.084.278,5.08-2.306,9.493-2.665,10.543-.359,1.049-.124,2.465,1.726,2.727,1.56.221,2.651.221,2.651.221,0,0,5.983,13.042,6.959,15.23.439.984.93,2.841,4.437,1.841,5.358-1.528,9.131-2.996,12.575-6.536.726-.746,3.349-4.286,4.584-7.954,1.823-5.413,1.657-11.323,1.657-11.323Z"/><path class="cls-13" d="m133.52,67.339c-14.6-11.929-35.975-2.872-41.498,8.948-4.64,11.378,8.89,21.666,23.971,20.731.368-4.271,1.884-6.153,4.787-6.112,3.695.052,4.513,2.599,4.824,4.64,2.97,19.486,13.808,29.899,18.006,38.24,4.087-3.038,1.129-6.025,2.541-9.666,1.28-3.301,2.565-4.502,2.418-8.7-.095-2.696-1.75-5.053-2.086-7.759-.397-3.198,1.442-7.91,1.105-11.047-1.276-11.856-5.537-22.305-14.066-29.273Z"/><path class="cls-7" d="m203.67,293.441c-.487-3.734-1.735-13.84-2.119-17.03-.622-5.165-1.167-14.277-3.769-22.429-5.158-16.16-21.203-14.118-19.413,2.915,1.298,12.354,12.68,23.276,17.808,37.076,3.037,8.174,7.366,1.135,7.494-.532Z"/><path class="cls-8" d="m196.417,298.665c-3.138,4.965-4.016,6.592-4.657,10.938-.356,2.41-.322,5.958-.808,11.268-.293,3.201,2.805,1.204,3.622-2.308.57-2.45.74-4.797,1.024-6.559.608-.307,2.966-2.471,3.756-3.603,5.986-8.583-2.937-9.736-2.937-9.736Z"/><path class="cls-7" d="m195.947,291.815s-3.059,8.579-4.001,15.806c-.238,3.121,2.116,6.922,4.049,9.951,3.754,5.883,8.735,9.539,9.571,10.584,2.824-1.869.791-4.435-.465-6.056,1.298.698,2.922,1.407,4.435,2.262,2.457-2.729-2.048-5.166-3.926-7.013.947.137,2.572-.197,4.804-.117.985-2.075-1.255-3.826-5.379-4.181-1.245-2.196-.858-4.599-.749-5.237,0,0,2.102-6.357,1.997-10.571-.107-4.261-3.412-6.177-3.412-6.177l-6.921.749Z"/><path class="cls-11" d="m355.498,266.731c-5.452.051-10.658-2.282-15.193-7.112-6.019-6.411-40.595-65.105-40.595-65.105l1.377-63.592s43.362,10.887,49.219,48.715c3.613,23.33,11.7,48.578,11.7,48.578"/><path class="cls-14" d="m297.056,116.811l-17.573-3.026,1.31,4.678s-11.877,9.368-42.347,27.068c-7.459,4.333-11.228,11.096-13.077,17.833-2.254,15.571,20.211,14.266,11.316,53.939,7.233,43.894,5.609,102.223,5.609,102.223,0,0,8.553,5.264,10.541,5.716l84.963-5.869s.678-49.927,6.798-108.828c5.039-48.454-47.54-93.735-47.54-93.735Z"/><path class="cls-4" d="m311.131,138.57s3.804,1.422,4.726,7.408c.586,3.651-.758,6.294-.758,6.294,0,0,12.978,20.673,14.322,51.264,2.072,46.925,1.037,87.128,1.037,87.128l-18.347,17.434-9.173-20.189s9.89-40.282,13.274-86.177c2.336-31.702-5.585-48.095-5.585-48.095,0,0-2.844-2.75-6.536-5.707,5.511-4.659,7.04-9.361,7.04-9.361Z"/><path class="cls-13" d="m272.057,338.221c-4.766-13.276-9.867-21.918-9.867-21.918l75.77-.939-.504,22.828-65.399.029Z"/><path class="cls-12" d="m308.663,315.903l-1.289,22.329-71.297-.043c.51-7.348,2.366-13.233,6.255-22.18,35.108.529,66.331-.106,66.331-.106Z"/><path class="cls-8" d="m280.996,119.254s8.324-5.177,9.898-25.227c4.974-10.71,14.908-12.742,14.908-12.742,0,0,9.995,8.559,11.095,15.677,1,6.542,2.449,14.828,5.499,14.901,6.301.147,14.511,3.534,14.511,3.534,0,0-15.765,1.74-27.054,20.868-15.604.116-28.856-17.011-28.856-17.011Z"/><path class="cls-7" d="m338.16,117.55c-5.838-.764-10.328-1.693-15.852-2.429-7.288-.976-9.376-9.18-9.376-9.18l1.444-8.552s-4.959-1.012-7.989-6.907c-.641-1.241-2.091-8.518,3.735-9.843,8.64-1.989,4.021-22.671,4.021-22.671l11.73-1.51,9.297,6.674s5.879,11.46,5.587,15.926c1.339,2.399,7.341,13.535,7.341,13.535,0,0-.609,2.132-2.665,2.322-2.594.24-3.651.337-3.651.337,0,0-1.189,2.879.069,5.88-.088,1.05-.245,1.56-.73,2.769-.651.548-.694,1.058-.789,2.186-2.289,4.267,2.254,5.96,1.723,8.854-.182.981-1.774,2.9-3.896,2.61Z"/><path class="cls-13" d="m341.121,103.901s3.933-3.861.661-8.649c-3.934.154-4.509,4.791-6.624,6.73-12.143-2.634-15.821-9.705-14.699-15.046,1.946-9.294-1.261-19.178-1.412-20.718-1.745-6.382,7.043-5.209,16.123-3.086,1.954-1.544,2.411-4.827,2.096-6.319-1.88-7.966-14.104-12.084-36.989,2.756-15.521-1.129-8.599,22.108-9.379,34.438,15.343-.926,12.303-9.148,17.252-12.323,4.459-2.749,8.341,1.228,8.427,6.146.066,3.545-2.258,9.228-2.258,9.228,0,0-2.027,4.017-.747,9.374,2.088,8.658,15.598,14.014,24.009,13.942,8.398-.072,3.54-16.472,3.54-16.472Z"/><path class="cls-5" d="m279.571,113.741l-5.636,9.511s14.006,17.364,27.334,26.771c2.979-1.254,7.638-3.521,12.153-13.145-23.014-5.753-33.851-23.137-33.851-23.137Z"/><path class="cls-6" d="m226.838,158.975c-9.704,27.608-6.505,77.144-11.692,99.358,5.897,13.054,14.94,22.261,33.258,2.746,18.317-19.515,13.048-66.321,4.497-84.583-8.55-18.262-21.731-29.845-26.062-17.522Z"/><path class="cls-5" d="m240.865,256.973l1.344,29.964s8.262-6.19,13.229-10.247c4.966-4.057,11.404-29.954,11.96-35.151.557-5.197-15.383-7.302-15.383-7.302,0,0,3.247-5.918-.063-15.376-2.94-8.399-6.677-10.205-6.677-10.205l-4.41,48.316Z"/><path class="cls-9" d="m262.902,248.378c-6.778.918-11.272,3.032-13.898,2.971-4.465,1.311-18.06,8.361-29.315,2.719-3.924,1.892-6.021,3.68-3.507,8.437,7.594,14.367,17.043,16.766,29.973,12.917,12.929-3.849,25.336-15.156,26.877-18.092,1.541-2.937-5.217-9.617-10.13-8.952Z"/><path class="cls-12" d="m316.827,247.122c-.957-.947-26.147-27.033-26.967-27.878-.631-.65-2.322-1.721-5.109-2.095-2.787-.373-49.718-2.995-50.64-3.06-.921-.065-3.025,2.165-1.491,4.16,1.534,1.995,28.738,27.968,29.166,28.461.428.493,2.566,1.497,4.026,1.493,1.46-.005,49.093,3.294,50.374,3.312.633.009,1.347-.856,1.557-1.67.215-.833-.433-2.244-.917-2.723Z"/><path class="cls-13" d="m316.072,249.567c-.521-.41-27.252-27.775-27.927-28.379-.902-.807-2.386-1.52-5.174-1.893-2.787-.373-49.237-3.367-50.159-3.432-.921-.064-1.254,1.256.28,3.251,1.534,1.995,26.486,29.248,26.914,29.741.428.493,2.566,1.497,4.026,1.493,1.46-.005,50.472,1.246,51.753,1.264,1.281.019.807-1.636.286-2.045Z"/><path class="cls-10" d="m247.899,255.517s4.738,5.879,13.023,5.319c8.285-.561,19.662-6.684,19.662-6.684,0,0,14.344-3.828,17.856-5.114,3.512-1.286-1.25-3.209-2.544-2.876-1.294.333-13.312,2.649-13.312,2.649,0,0,3.393-2.129,4.628-2.965,1.866-1.264,3.816-3.469,5.256-5.517.458-.651-.39-2.274-2.827-1.969.739-3.265-3.149-3.194-4.09-2.382-2.223,1.918-4.328,3.693-6.316,4.961-3.167,2.02-7.907,4.374-7.907,4.374,0,0,4.178-9.572,5.468-11.242,1.29-1.67-1.745-5.793-4.629-.911-2.884,4.882-5.979,8.12-7.29,9.625-3.816,2.829-11.628,3.162-11.628,3.162,0,0-2.066-3.078-1.088-5.877.978-2.8-2.386-6.881-4.57-8.272-2.184-1.391-3.81.191-2.689,3.724,1.121,3.533-.582,8.035-.346,11.18.236,3.145,3.343,8.816,3.343,8.816Z"/><polygon class="cls-8" points="369.582 174.916 371.119 162.571 385.919 164.319 383.969 177.818 369.582 174.916"/><path class="cls-8" d="m369.307,143.596c2.074.458,4.173-8.931,4.173-8.931,0,0,3.564-13.877,4.911-17.403,1.348-3.526,5.23-2.448,4.511,1.254-.721,3.701-2,12.426-1.968,13.044.353-.566,1.336-1.415,2.025-1.329,2.318.291,2.447,4.496,2.343,6.119-.091,1.423,2.21,3.193,2.056,4.228,5.415,2.075,3.728,6.675,3.728,6.675,0,0,.521,1.159.183,6.245-.282,4.256-1.362,12.919-7.551,13.309-6.328.398-10.36,1.104-14.217-3.602-3.859-4.704-5.18-8.244-5.174-16.907"/><path class="cls-7" d="m388.769,151.028c-1.604,2.966-4.707,1.619-4.108-.856.251-1.037.62-2.143.62-2.143,0,0-3.488,1.663-3.164-3.145-3.832.162-3.415-3.402-2.71-6.894.735-3.637,1.687-6.068,2.599-7.377.912-1.31,4.385.64,4.373,2.503,2.284.179,3.837,1.281,3.52,2.943-.152.798-.561,1.967-.561,1.967,0,0,4.857-.309,3.259,5.089-.697,2.355-3.194,6.743-3.826,7.912Z"/><path class="cls-8" d="m370.41,134.614c-.422-5.325-3.524-6.253-5.051-1.583-3.45,10.547-2.58,11.364-.248,21.93l5.185-6.242c-1.662-3.362.534-8.776.115-14.105Z"/><path class="cls-11" d="m352.753,227.269l16.252-60.889,17.064,3.684s-2.679,39.205-6.321,66.447c-3.078,23.02-15.511,34.297-31.71,28.638"/></g><path class="cls-6" d="m169.607,355.711s-3.024-5.526-3.163-16.867c-.14-11.478-.292-26.761-5.331-40.759-8.3-23.055-6.431-43.065-6.159-45.702.354-3.433,2.1-7.489,8.025-10.195,6.554-2.993,16.853-9.065,29.86-15.719.608-4.111.871-4.88,1.355-7.167,10.673-4.934,29.09-5.609,36.254-1.656,1.353.747,2.52,5.879,4.293,10.312,6.33,2.923,33.235,18.438,35.087,20.11,7.652,6.905-1.241,31.27-8.352,50.018-5.216,13.752-6.096,39.982-5.846,44.975.249,4.993-3.755,10.839-6.325,12.44-50.391-.422-79.697.211-79.697.211Z"/><path class="cls-5" d="m195.407,244.195c1.96-2.8,5.53-9.049,5.739-9.868.209-.819.729-1.202.729-1.202,0,0-7.075-6.567-7.682-13.822-2.356,5.051-3.406,8.142-3.406,8.142,0,0,.513,8.072,4.619,16.75Z"/><path class="cls-7" d="m197.888,196.403s1.771,19.203-.765,25.745c-.07,4.829,6.217,10.242,6.217,10.242,0,0,.607,4.013,1.166,8.585l9.938,15.817,11.525-16.097s1.356-5.391,1.866-8.119c.537-2.869.933-5.132,1.12-7.185.187-2.053-.509-3.892-.84-7.185-.331-3.294.747-23.796.747-23.796l-30.974,1.993Z"/><path class="cls-5" d="m231.299,231.2c.763,1.496,4.188,11.828,4.188,11.828l-8.305-2.053s2.058-8.424,2.175-9.979c.117-1.555,1.179-1.292,1.942.204Z"/><path class="cls-8" d="m227.392,210.251s-.607,5.599-6.019,9.798c-10.543,8.18-20.413,7.815-22.046,7.862-.835-1.121-2.24-3.569-2.24-5.762,1.075-6.802-.718-25.1-.718-25.1l30.999,8.187.023,5.016Z"/><path class="cls-5" d="m117.854,333.113c1.266-3.673,20.306-53.243,33.391-79.82,2.435-4.945,4.597-7.076,6.501-7.237,4.208,8.426,2.723,39.199,5.887,52.449-.84,7.979-5.641,21.328-11.861,27.601-1.898,8.124-4.165,26.057-21.102,26.197-16.937.14-14.082-15.517-12.816-19.19Z"/><path class="cls-6" d="m121.745,334.944c-1.68,4.899-3.655,13.496,2.901,16.463,7.493,3.393,60.823,2.109,60.823,2.109,0,0,9.342-1.436,10.762-11.446,1.101-7.759-5.646-9.972-5.646-9.972,0,0-23.086-4.398-35.737-6.325-12.651-1.927-33.103,9.172-33.103,9.172Z"/><path class="cls-6" d="m228.29,334.978c9.798-3.639,42.626-6.055,42.237-8.187-.388-2.131-9.76-22.821-9.891-34.165-.13-11.343.085-66.936,15.117-35.974,9.378,19.317,23.87,60.019,27.454,78.151,1.969,9.963-2.789,14.803-9.794,16.243-15.039,3.092-46.842-.74-62.312,1.361-1.446-2.893-1.009-10.444-2.811-17.429Z"/><path class="cls-5" d="m260.126,287.786s-7.874,17.721-12.018,34.297c-.56,2.24-2.114,19.282-2.114,19.282l11.709-4.021s2.894-30.381,4.285-35.747c-.949-5.798-1.862-13.81-1.862-13.81Z"/><path class="cls-13" d="m258.795,359.324c.006,1.543-1.245,2.725-2.796,2.655l-89.819.626c-1.551-.07-3.109-1.378-3.484-2.938l-6.324-52.823c-.536-2.226.55-3.983,2.432-3.898l102.811-.04c1.882.085,3.415,1.96,3.424,4.162l-6.244,52.256Z"/><path class="cls-12" d="m156.523,307.623c.128-1.492,1.105-2.519,2.555-2.454l102.811-.041c1.058.048,2.176.241,3.01,1.317,0,0,.027.047.063.036.036-.011.035-.052.035-.052-.078-1.718-1.84-3.638-3.722-3.723l-102.811.04c-1.882-.085-2.463,1.657-2.371,2.13,0,0,.392,3.191.43,2.746Z"/><path class="cls-5" d="m215.85,267.334c0,1.009-.818,1.827-1.827,1.827s-1.827-.818-1.827-1.827.818-1.827,1.827-1.827,1.827.818,1.827,1.827Z"/><path class="cls-5" d="m215.85,290.434c0,1.009-.818,1.827-1.827,1.827s-1.827-.818-1.827-1.827.818-1.827,1.827-1.827,1.827.818,1.827,1.827Z"/><path class="cls-7" d="m234.78,198.717s-4.898,13.302-10.785,18.249c-5.431,4.563-17.393,4.792-22.491-.972-5.69-6.435-9.514-16.518-9.514-16.518,0,0-1.606.54-3.525-2.141-2.634-3.679-3.779-10.363-2.895-12.282,1.101-2.395,4.597-1.149,4.597-1.149,0,0-9.679-20.4,3.01-30.155,12.69-9.756,33.632-4.937,39.347,7.034,5.713,11.972,2.532,22.752,2.532,22.752,0,0,4.03-3.094,5.164,1.53,1.133,4.624-1.033,8.221-1.869,10.08-1.274,2.829-3.57,3.572-3.57,3.572Z"/><path class="cls-13" d="m238.25,182.638c-1.365-.353-2.754.352-3.881,2.466-1.127,2.114-.959-2.441-.829-5.498.668-15.779-3.196-18.11-4.55-18.756-3.418-1.705-10.435,1.43-13.668,1.542-10.71.369-15.075-4.812-20.712,1.928-2.105,3.213-1.784,6.334-.703,17.268.597,6.058-1.111,7.152-3.488,3.41-.648-1.021-2.62-1.383-4.12-.77-1.322-3.311-3.425-5.873-2.855-18.12.454-3.716,3.295-6.333,4.348-8.007,1.053-1.675,1.484-5.077,3.439-7.228,1.671-1.838,3.83-4.161,8.518-4.683,2.174-.393,3.823-4.062,9.713-4.192,3.886-.473,20.464,4.627,22.042,7.531,3.368,6.201,1.278,6.717,2.922,9.981,1.138.631,4.295,2.949,5.27,5.404,2.146,5.396-.462,8.352-.486,11.086-.008,1.171-.477,4.999-.961,6.638Z"/></g></g></svg>