<svg id="_レイヤー_2" xmlns="http://www.w3.org/2000/svg" xmlns:xlink="http://www.w3.org/1999/xlink" viewBox="0 0 645.8 411.9"><defs><linearGradient id="linear-gradient" x1="188" y1="26.3" x2="188" y2="43.3" gradientUnits="userSpaceOnUse"><stop offset="0" stop-color="#92b6c2"/><stop offset="1" stop-color="#fff"/></linearGradient><linearGradient id="linear-gradient-2" x1="173.9" y1="26.3" x2="173.9" y2="43.3" xlink:href="#linear-gradient"/><linearGradient id="_名称未設定グラデーション_24" x1="84.1" y1="228.2" x2="729.9" y2="228.2" gradientTransform="rotate(-180 364.95 239.05)" gradientUnits="userSpaceOnUse"><stop offset="0" stop-color="#64aee5"/><stop offset=".4" stop-color="#5aedff"/><stop offset="1" stop-color="#64aee5"/></linearGradient><style>.cls-2{fill:#00386a}.cls-3{fill:#003853}.cls-5{fill:#697dc8}.cls-6{fill:#e6e6e6}.cls-8{fill:#fff}.cls-9{fill:#f0c0a7}.cls-10{fill:#969696}.cls-11{fill:#e1b39d}.cls-12{fill:#0f354c}.cls-13{fill:#646464}.cls-14{fill:#586ec2}.cls-15{fill:#828282}</style></defs><g id="_メニュー"><path class="cls-8" d="M322.9 155c-20.8 0-211.4.6-322.9 29.6v47.5c107.2-29.8 302-30.6 322.9-30.6s215.7.8 322.9 30.6v-47.5c-111.5-29-302.1-29.6-322.9-29.6Z"/><path class="cls-3" d="M563.7 44.1s-11 2.8-12.9-6.7c-1.6-7.8 9.2-13.9 15.9-14.8 6.3-.9 12.5 2.1 16.2 6.1 10.9 11.6 19.3 15.5 20.5 24 .9 6.8-.3 10.3-3 14.5-3.4 5.3-20.3 4-23.8 3.1-11.4-2.8-12.9-26.3-12.9-26.3Z"/><path class="cls-11" d="m564.1 328.6 7.4-10.2-7.3-77.5s-1.3-40.6.8-63.9c.6-7.1 5.3-36.9 5.3-36.9s34.4 18.5 29.8 30.1c-6.4 16.1-13.8 35.6-15.8 56.6 4.7 8.6-6.6 90.4-6.6 90.4l.4 3.8-4.3 4.9-5 5.7-4.7-2.8Z"/><path class="cls-9" d="m614.4 327.2 2.7-11.7-34-85.2s-9.6-35.9-13.5-59.1c-1.2-7 37.4-17.5 35-5.3-3.5 17.6-1.1 39.7-4.4 58.8 18.6 10.6 22.4 87.3 22.4 87.3l2.6 3.9-1 3.9-5.4 9.3-4.4-2Z"/><path class="cls-10" d="M603.9 145c12.5 15.4-1.2 43.3 4.4 77.1-17.3 4.3-29.8 3.5-46.1 2.6.9-46.6 1.6-85.9 1.6-85.9l35.6.6s2.2 2.4 4.4 5.7Z"/><path class="cls-11" d="M577.7 130.5s-31.4-.4-32.4-1.1c-2.7-1.9-7.6-1.3-12.5-1.3 1 1.2 1.8 2.8 1.8 2.8s-.1 4.9.2 5c2.6.3 7.4 1.3 8.6 1.1 1.8-.4 3.2-1.3 3.2-1.3l30.1 3.2 1-8.4Z"/><path class="cls-9" d="M535.5 129.5s-1.3-.4-2 .3c-1.3 1.3.3 2.2.3 2.2s-.7.8-.6 1.5c.3 1.2 1.2 1.3 1.2 1.3s-.6.6-.5 1c.2 1.1 1.1 1.1 1.6 1.1s3-.7 5.6-1.2c.8-.3.5-1.4-.3-1.5.2-.2.9-.3.5-1-.4-.8-1-1-1-1s.9-.3.6-1.1c-.3-.9-4.7-1.5-4.7-1.5h-.6Z"/><path class="cls-5" d="M562.5 142.5c.9-36.5 2.1-32.4-1.3-40.9-5.9-14.9 24.2-49.4 24.2-49.4s11.6 6.1 16.6 9.1c7.6 4.6 16.4 17 10.1 26.5-15.3 22.8-10.4 52.3-10.4 52.3s-15.7 4.7-39.2 2.5Z"/><path d="M587.1 52.4s-.7 3.5-5 9.2c-9.8 13.1-14.5 30.5-13.8 35.1 5.3-10.7 14.6-21.8 14.6-21.8s7-7.4 9.8-12.6c2.7-5.2-5.6-9.8-5.6-9.8Z" style="fill:#fcfcf6"/><path class="cls-3" d="m538.1 125.3-21.4-33.6h-23.8c-1.5 1.1-1.1 3-.2 4.4l18.9 28c.5.8 1.5 1.2 2.2 1.2h24.3Z"/><path class="cls-2" d="M564.2 328.5c-2 2-4.9 2.5-5.3 2.7-1.4.7-.2 2.5-.2 2.5h9.1c3.3 0 6.8-6.2 6.8-6.2l1.1 5.9h1.8s.2-5.7 1.2-8.8c.8-2.5-.5-4.4-.5-4.4s-1.4-.6-4.6 3.7c-3.4 4.7-8 4.6-9.3 4.6ZM614.7 326.6c-1.3 2.5-4.6 4.2-4.9 4.5-1.1 1.1.5 2.4.5 2.4s7-2.1 8.5-2.5c3.2-1 4.6-8 4.6-8l2.8 5.7 1.7-.6s-1.5-5.9-1.4-9.1c0-2.6-1.8-4-1.8-4s-1.5-.2-3.2 5c-1.8 5.5-5.4 6.2-6.7 6.6Z"/><path class="cls-11" d="M564.5 59.5c5.2-1.8 12 6.3 14.9 10.6 1.9 1.8 5.4-1.3 7.8-4.6 2.7-3.6 3-5.8 3-5.8s-4.8-5-6.5-8.5c-1.8-3.6-6.3-19.4-6.3-19.4s-18.3 29.6-12.9 27.7Z"/><path class="cls-3" d="M578.1 24.4c-9.3-6.4-21.6-2.1-22.8 1.8-.4 1.3-1.4 4.2 5.9 10.6 1.8 1.6 4.2 2 5.7 3.1 2.1 1.6 4.1 2.8 5.3 3.8 4.4 3.6 6.9 16.5 14.1 16.5 5.7 0 9.7-2 10.6-6.2.2-6-10.6-24.1-18.7-29.7Z"/><path class="cls-9" d="M568.9 41.9s3.1-3.6 5.3-1.2c3.5 3.8-2 6.4-2 6.4s-.8 9.5-4.7 11.6c-1.9 1-5.6 2.3-6 2.5-.4.2-1 0-1.2-.4-.2-.4-4.3-9.9-4.3-9.9s-2.5.4-1.9-1.3c2.8-7.8-3-13.2 2.5-16.9 4.4 10.4 12.3 9.1 12.3 9.1Z"/><path class="cls-14" d="M568.7 125.2s10.7 11.5 24.5 11.1c6.7-.2 7.5-10.8 7.5-10.8l-32-.3Z"/><path class="cls-9" d="m594.1 129.7 3.6-9.8-33.1 1.5c-2.9-.8-10-2.7-10.6-3-.5-.2-1.3 0-2 .7-.9-.3-1.6.2-1.6.2s-4.9 2.5-7.3 3.6c-.2.1 1 1.1 1.7 1 .7 0 5.8-1.6 5.8-1.6l5.3 2.3s-.2.2-1.6.4c-1.9.2-4.6 1.4-4.6 1.4s10.8.7 13 .2c.6-.1 1.5-.5 2.1-.8l29.4 3.9Z"/><path class="cls-3" d="M562.8 125.9v.6c0 1.6-1.2 3-2.6 3h-43.9c-1.5 0-2.6-1.3-2.6-3v-.6h49.2Z"/><path class="cls-5" d="M598.6 80.1c4.2 8.9 7 38.6 7 38.6l-20.6 1.6-1.5 9.1s12.4 1.9 24.7 1.3c11.2-.5 11.5-13 11.5-13s-3-29.9-5.8-42.2c-1.4-6.3-11-13.8-16-16.6-4.5-2.5-.4 19.2.6 21.4Z"/><path class="cls-9" d="M155.6 52s.5-1.3.4-2.3c-.1-1-3.9-10.2-3.9-10.2s2.1-.5 2.9 2c.4 1.2 1.6 2 1.6 2l1.9-4.9s5.4 1 5.4 1.3V41s0 1.9-.6 4.1c-.5 2.1-2.7 4.8-2.7 4.8v2.9l-4.9-.7Z"/><path class="cls-6" d="M87.5 55.5s16.8-2.8 29.8 14.3c8.1 10.5 29.9 20.3 29.9 20.3l7.7-40 6.1 1s.5 26.8.2 44.1c-.2 13-15.4 10.2-15.4 10.2l-45.2-14.8-13.1-35.2Z"/><path class="cls-3" d="m143.4 37.2 40.6 6.2V25.2l-40.6 6.2v5.8zM117.1 31.4H116c-.7 0-1.3 1.3-1.3 3s.6 3 1.3 3h1.1c.7 0 1.3-1.3 1.3-3s-.6-3-1.3-3Z"/><path class="cls-3" d="m116.7 36.3 55.3 9.2V23.3l-55.3 9v4z"/><path class="cls-3" d="M175.2 21h-4.4c-2.9 0-5.2 5.9-5.2 13.2s2.3 13.2 5.2 13.2h4.4c2.9 0 5.2-5.9 5.2-13.2S178.1 21 175.2 21ZM189.3 23.1h-3.6c-2.3 0-4.2 4.8-4.2 10.8s1.9 10.8 4.2 10.8h3.6c2.3 0 4.2-4.8 4.2-10.8s-1.9-10.8-4.2-10.8Z"/><path d="M187.9 24.9c-1.4 1.4-2.4 4.8-2.4 8.9s1.1 7.8 2.6 9.1c1.4-1.4 2.4-4.9 2.4-8.9s-1.1-7.8-2.6-9.1Z" style="fill:url(#linear-gradient)"/><path d="M173.8 23.4c-1.7 1.7-2.9 5.8-2.9 10.6s1.3 9.3 3.1 10.9c1.7-1.7 2.9-5.8 2.9-10.6s-1.3-9.3-3.1-10.9Z" style="fill:url(#linear-gradient-2)"/><path class="cls-13" d="m74.8 327.2-.4 7.5 6.3.2v-2.6c.1 0 3.2 2.2 3.2 2.2h11.9s1-1.6-.5-1.9c-.4 0-6.1-1.9-6.1-1.9l-7-4.6-7.5 1.2ZM27.1 326.6l-.5 7.9 6.7.2v-2.8c.1 0 3.4 2.4 3.4 2.4l12.8.3s.9-2-.7-2.3c-.4-.1-6.5-2-6.5-2l-7.4-4.9-7.9 1.3Z"/><path class="cls-8" d="M101.6 172.5s3.9-26.8 7.3-60.6c2.7-26.7-3.8-35.7-8.4-46.6.3-1.2 1-5.3 1-5.3L89.8 47.5l-7.5-.3s-2.9 4.1-3.9 4.2c0 0-28.7 12-34.3 21.6-5 8.4 4 19.8 4.2 30.5.3 14 3.1 45 3.1 45l-5.4 23 55.7 1Z"/><path class="cls-15" d="M86.2 330.1s-5.9 1.1-12.4 1.1c-.9-32-10.5-56.4-1.9-81.7-1.3-40.5-12-82.8-12-82.8l42.4.6-16.2 162.9Z"/><path class="cls-10" d="M86.2 167 40.4 328.6s-11.5.3-14.2 0c1.7-30 3.4-65.6 12.9-80 7.7-61.7.5-60.8 7.6-82.2 20.2-.6 39.5.6 39.5.6Z"/><path class="cls-11" d="M93.1 63.6s2.1-2.1 3.7-4.1c2-2.4 5.1-5.6 6.5-6.4 1.4-.8 5.9-1.1 5.9-1.1s-1.1-22.9-11.1-22.6c-10 .3-12.4 13.1-12.4 13.1s.5 3.3-3.1 6.9c-3.2 3.2 10.5 14.2 10.5 14.2Z"/><path class="cls-9" d="M111.1 50.8c.2-1.1 1.7-9.7 1.7-9.7s2-.3 1.6-1.4c-1.4-4.2-1.7-5.4-2.1-7.4-.2-1.2-1.2-8-1.8-8.8-.7-.7-7.6-4.2-15-.4-9.2 4.8 1.3 9.9 1.3 9.9s-2.1.3-1.3 4.3c.7 3.3 2.9 3.9 2.9 3.9s-.2 5.3 2.2 7.4c2.4 2.1 7.3 3.3 8 3.4 1.5.2 2.3-.1 2.5-1.3Z"/><path class="cls-3" d="M102.8 32.8c0 2.4-2.4 2.4-2.7 2-2.1-2.9-5.7-1.4-5.3 2.9 0 2.9-2.8 4.5-9.2 5.1 0-6.9-2-17.6 1.8-20.2 15-8.4 23.9-6.2 24.9-1.7.5 2.1-.2 3.4-1.3 4.3-5.6-1-9.9-1-9.4 1 .1.8 1.2 5.3 1.2 6.6Z"/><path class="cls-6" d="m82.1 47.1-4.8 4.7 13.2 16.4s4.1-1.8 7.6-6.9c-9-3.4-16-14.2-16-14.2Z"/><path class="cls-9" d="M27.5 169.4s-.5 3.2-.2 4.1c1.2 1.5 2.6 5.7 6.5 8.9-1.2 1.6-3 1.4-6.6-2.1 0 .1-.3.5-.4 1.2-.1.8-.2 1-.1 1.8 1.1.5 1.8 1.1 1.8 1.1s-.2 1-.7 2.1c-.3.7-1.1 1.8-2.4.8-1.1-.8-1.9 0-2.6-.3-.7-.3-1.2-1.3-2.1-1.4-1.2 0-1.5-1.4-1.5-2.6 0-1 .2-4.3.4-5.8.3-2.4 1.5-4.6 1.5-4.6l1.7-4.2 4.9 1.1Z"/><path class="cls-8" d="m17.6 170.9 10.7 2.7s5.4-35.2 34-84.5c-3.8-8.6-5.6-15.3-18.3-15.8C24.9 116 17.6 171 17.6 171Z"/><path class="cls-3" d="M431.9 20.6s11.3-5.6 13.5 6.4c2.2 12-4 31.4-3.1 34.9 1 3.5 4.9 6.2-4.6 3.4-9.6-2.8-.5-27.8-1.9-32-1.5-4.2-3.9-6.1-3.9-6.1v-6.7Z"/><path class="cls-11" d="M435.5 96.3c-1.2-1.8-5.6-7.7-18.5-7.6-8.8 26-45.2 57.6-62.7 71-1.6.1-17.2-2.7-17.2-2.7s-.9 2.9 3.3 3.4c3.7.5 3.5 2.5 3.5 2.5s-6.9 4.2-8.8 5.4c-1.9 1.2-4.5 3.2-4.6 4 0 .5 0 2.3 1.1 3.3.5.5 2.3.2 6.1-1.2-1.6 1.1-4.8 1.8-3.7 3.3 1 0 7.4-2.3 7.9-2.5 1-.4 6-2.1 9.2-3.6 3.2-1.6 5.8-5.1 5.8-5.1l.5-.7c37.3-19.9 59.4-36.8 78.1-69.3Z"/><path class="cls-6" d="M373.7 142.9s37.6-32.9 46-73c12.4-7.7 18.3-8.2 18.3-8.2l10.1 7.4s-18.4 54.1-67.5 83.9l-6.9-10.1Z"/><path class="cls-11" d="m415.2 404.2 7.4-10.4s-6.6-95.5-10.5-114.4c-4-9.7-5.2-95.5-5.2-95.5s28.9-20.3 30.4-10.9c4 24.5.3 45.6-1.4 99.7 16.3 21.9-6 107.4-3.9 122.4 0 1.9-4.1 4-4.1 4l-10.3 8.8-2.4-3.8Z"/><path class="cls-9" d="m444.3 404.4 7.4-11.1s-8.1-95.3-12-114.3c-4-9.7-10.2-95.1-10.2-95.1s26.6-19.4 28.1-10c4 24.5 6.7 44.2 5 98.3 16.3 21.9-3.7 107.4-1.7 122.4 0 1.9-4.3 4.6-4.3 4.6l-10.3 8.8-2-3.6Z"/><path class="cls-3" d="M444.2 404.2c-2.6 2.6-5.9 3.5-6.4 3.7-1.8.9-.3 3.2-.3 3.2s7.9-.1 9.9 0c4.3 0 8.8-7.9 8.8-7.9l1.2 8.1h2.3s.5-7.8 1.8-11.7c1-3.2-.6-5.7-.6-5.7s-1.8-.8-5.9 4.8c-4.4 6.1-9 5.6-10.7 5.6ZM415.4 404.2c-2.6 2.6-7.3 3.7-7.8 4-1.8.9-.3 3.2-.3 3.2s9.3-.3 11.2-.3c4.3 0 8.8-7.9 8.8-7.9l1.2 8.1h2.3s.5-7.8 1.8-11.7c1-3.2-.6-5.7-.6-5.7s-1.8-.8-5.9 4.8c-4.4 6.1-9 5.6-10.7 5.6Z"/><path class="cls-8" d="M457.6 68.4c-9.7-6.3-15.2-7.4-25.2-13.3-.3-.1-.8.4-.9.3-2.8-2.3-4.6-3.6-4.6-3.6s-44.6 39.2-27.4 68c6.7 27.4 5.3 36.2 5.3 36.2l44-1.1s-7-19.9-3.5-34.7c1-6.5 2.6-12.1 4.5-20 3-6.1 4.8-11.3 6.1-13.8 4.3-8.7 4.9-15.8 1.7-17.9Z"/><path class="cls-8" d="M457.6 68.4c-9.7-6.3-16.5-8.1-26.4-13.9-.6.7-6.6-.1-6.6-.1s-34.1 35.1-16.9 63.9c4.8 21.2 4.8 37.5 4.8 37.5l36.3-1s-7-19.9-3.5-34.7c1-6.5 2.6-12.1 4.5-20 3-6.1 4.8-11.3 6.1-13.8 4.3-8.7 4.9-15.8 1.7-17.9Z"/><path d="M448.7 154.3c31.7 31.2 8.7 76.1 19.5 111.1-21.9 1.7-22.8 8.8-61.7 6-2.4-62.5-1.7-115.7-1.7-115.7s12.2-.2 43.9-1.4Z" style="fill:#05427f"/><path class="cls-9" d="M464.9 192.9c12.1-39.4 10.6-61 1-96.3-2-.4-6.5-4-15.3 4.9 11.8 24 10.9 68.1 8.1 89.4-1 1.2-13.7 10-13.7 10s1.6 2 4.7-.1c3-2.1 4.1-1 4.1-1s-1 4.7-1.5 6.8c-.5 2.2 8.1 1.1 8.3.7.4-.9 2.9-2.8 4.1-6.1 1.1-3.3.5-7.5.5-7.5v-.9Z"/><path class="cls-8" d="M460.1 172.7s3.1-45.4-18.7-78.8c-.7-20.8 17.7-23.4 17.7-23.4s24.2 49.2 10.8 103.5l-9.8-1.3Z"/><path class="cls-9" d="M428.2 53.7c-6.4 2.6-28 28.5-20.3 29.4 2 .5 7.4-9.9 10.8-13.7 5-5.6 9.1-9.6 10.9-13 1.2-2.3-.1-2.9-1.4-2.7Z"/><path class="cls-6" d="m472.3 202.7-7.4 30.5s-23.2 0-49.3-2.4c.4-13.3 2.4-23.3 9.1-42.6 26.9 15.5 47.6 14.5 47.6 14.5Z"/><path class="cls-10" d="M434.5 202.1s-3.5 8.2-4.5 19.4c.9.3 1.5.5 2.1.4.5-7.5 4.5-19.3 4.5-19.3l-2.1-.5ZM444.3 202.3s-5.1 13.4-5.7 25.9c.9.3 1.5.5 2.1.4.8-11.6 5.8-25.8 5.8-25.8l-2.1-.5ZM450.2 203.9s-4.1 10.8-4.1 23.3c.9.3 1.5.4 2.1.3.3-11.6 4.2-23.2 4.2-23.2l-2.1-.5ZM456.7 205.4s-4.2 9.3-3 21.7c1 .2 1.5.3 2.1.1-.9-11.6 3.1-21.6 3.1-21.6l-2.1-.2Z"/><path class="cls-9" d="M454 199s-1.8 6.9-2.4 8.8c-.5 1.8-.9 4.5-.4 5 .3.3 1.6 1.3 3 1.2.7 0 1.7-1.2 3.4-4.3-.4 1.6-2.1 3.8-.3 4 .7-.6 3.5-5.7 3.7-6 .4-.8 2.7-4.7 3.8-7.5l-10.9-1.2Z"/><path class="cls-11" d="M400.8 50c7.3 1.8 12.2 13.1 13 19.6 1.6 2.9 7.4-2.6 11.8-7.7 3.2-3.8 5.6-7.5 5.6-7.5s-5.3-2.2-6.1-6.9c-.8-4.7.4-23.4.4-23.4s-31.3 24.2-24.7 25.8Z"/><path class="cls-9" d="M414.4 30.6s4.8-4.7 7.4 1.2c2.5 5.8-5 8.4-5 8.4s-1.6 3.1-3.6 5.3c-1.5 1.6-3.4 3.4-5.4 4.5-1 .6-2 .9-3 1.1-2.8.4-7.5.1-8 .2-.9.1-1.6-.9-1.7-1.5 0-.6-.6-13.6-.6-13.6s-3.5-1-1.7-2.5c9.4-7.6 3.7-17.3 13.6-19.9l8 16.7Z"/><path class="cls-3" d="M407 33.7s3.7 1.3 6.8-.6c1.9-1.2 3.8-2.2 5.6.2 1.7 2.4-.1 8.1 1.3 11.7 1.2 3.1 4.8 3.2 4.8 3.2s1.6-.8 3.9-2.2c2.6-1.6 11-21.8 8-25-3-3.2-17.2-12.8-27-14.2-9.8-1.4-11 6-6.6 14.8 4.5 8.8 3.3 12.1 3.3 12.1Z"/><path class="cls-13" d="m188.9 402.1-.6 9.6 8.2.2v-3.4c.1 0 4.1 2.9 4.1 2.9l15.5.3s1.1-2.4-.8-2.8c-.5-.1-7.8-2.5-7.8-2.5l-9-5.9-9.6 1.5ZM248.6 401.2l-.6 10.2 8.7.2V408c.1 0 4.4 3.1 4.4 3.1l16.5.3s1.1-2.5-.9-3c-.6-.1-8.3-2.6-8.3-2.6l-9.6-6.3-10.2 1.6Z"/><path class="cls-9" d="M349 94.8s2.6-1.2 3.9-2.6c.8-1.4 5.6-17.3 5.6-17.3s2.6.9 1.4 4.8c-1.1 3.7.4 4.5.4 4.5s7.8-4.6 9.8-5.8c2-1.3 4.9-3.3 6.2-2.2.2.2-1.1 1.5-4.8 4.3-.1 1.1 6.1-3.1 7.1-1.7 1 1.8-6.1 5.4-5.1 5.9 1.8-1 5.7-3.4 6.4-2-.5.9-6.4 5.1-6.8 5.4-.8.8-4.7 4.6-7.7 6.8-3 2.3-7.1 3.2-7.1 3.2l-6.6 4-2.7-7.2Z"/><path class="cls-14" d="M245.7 58.9s23.2-.5 32.1 20.7c6.7 16 22.4 37 22.4 37l51.3-24 3.2 10s-23.1 15.3-40.2 26.7c-14.2 9.5-22.2 7.8-26.4 4.2-4.2-3.6-41.5-44.5-41.5-44.5l-.9-30.2Z"/><path class="cls-5" d="M278.9 197.3s2.9-41.6 7.4-84.9c3.7-35.6-34.9-67.8-34.9-67.8l-6.3-2.3s-27 31.3-32 65.7c-3 21.1-2 59.1-2 59.1l-.5 35.4 68.3-5.1Z"/><path class="cls-5" d="M206.1 192s1.9-51.7.7-69.3c-1.2-17.6-4.6-28.7-2.9-40.2 2.9-14 5.4-16.9 15.7-23.8 2.7-1.8 23.9-15.3 23.9-15.3l2.4-.8-.2-2.7s21.4 10.5 25.3 15c-.5 1.2-1.5 4.5-3.1 7.9 13 23.8 8.2 73.3 2.7 97.2-3.7 16.1-4 29.6-6.9 39.5-16 8.4-57.4-7.6-57.4-7.6Z"/><path class="cls-14" d="M261.4 157.7c12.5 7.8 8.1-14 8.1-14s-55.6-45.7-56.3-38c-1 10.3 23.9 36.7 48.3 51.9Z"/><path class="cls-15" d="M264.9 404.6s-8.6 1.7-17.1 1.9c-2.2-41.8-14.8-73.5-4.5-106.8 2.8-11-20.4-107.7-20.4-107.7l56.1-.7-14.2 213.3Z"/><path class="cls-10" d="m258 191.7-52.4 213s-14.8.5-18.3.3c1.2-39.2 1-86.2 13-105.4 6-11.6 1.5-76.5 5.9-107.8 26.5.4 51.8-.2 51.8-.2Z"/><path class="cls-9" d="M317.5 157s2.5 1.4 4.4 1.6c1.7-.1 17.3-5.5 17.3-5.5s.8 2.9-3 4.2c-3.7 1.3-3.3 2.9-3.3 2.9s8.1 3.4 10.3 4.3c2.2.9 5.2 2.6 5.4 3.4.2.5.3 2.3-.6 3.6-.5.6-2.3.6-6.5-.3 1.8.9 5.3 1 4.3 2.8-1 .1-8.1-1.2-8.5-1.3-1.1-.2-6.5-1.2-10.1-2.3-3.6-1.1-6.8-3.9-6.8-3.9l-5.9-2 3.1-7.4Z"/><path class="cls-5" d="m316.3 166.1 3.1-9.1s-34.7-19.6-52.1-30.4c-20.8-12.9-35.8-43.5-41-65.4-6.4 4.7-23.8 10.7-21 23 4.2 18.4 12.5 36.7 44.9 57 20.6 12.9 66 24.9 66 24.9Z"/><path class="cls-12" d="M270.8 24.1s-5 3.5-5.7.2c-.8-3.3-3.3-3.8-5.6-2.2-2.3 1.6-1.5 7.6-3.9 10.4-1.5 1.8-5.5 1.8-6.4 1.8.2-7.5.4-22 4-25.1 3.2-2.7 14.5-9.9 23.9-9.2 9 .7 13 6.9 6.2 13.5-17.6-8.9-12.5 10.6-12.5 10.6Z"/><path class="cls-11" d="M259.4 61.2s2-1.8 4.4-4.2c2.4-2.4 6.7-8.6 8.6-9.5 1.9-.9 6.7-.5 6.7-.5s2.4-28.7-10.7-29.3c-13.1-.5-19.2 16.5-19.2 16.5s-.1 5.7-4.4 10.4c4.7 6 14.6 16.5 14.6 16.5Z"/><path class="cls-9" d="M283.1 46.4c.3-1.5 3.2-11.8 3.2-11.8s2.8-.5 2.1-1.9c-1.7-3.9-2.1-7.6-2.2-9.7 0-1.5-.3-2.4-.5-2.9-.6-2.2-2.5-8.3-3.3-9.3-.8-1-12.1-6.6-15.7-3.5-10.3 9.1-7.3 14.4-7.3 14.4s-2.9 2 .1 6.7c1.1 1.7 4.3 3.4 4.3 3.4s2 9.5 6.8 13.9c1.3 1.2 3.1 1.5 9 2 2 .1 3.1.3 3.5-1.2Z"/><path class="cls-12" d="M283.6 12.7s.1-2.9-4.3-5.1C269 2.4 263.2 1.3 255.7 4c-2.9 1-5.4 5.1-6.1 8.1-1.4 6-1 8.6-.4 13.7.3 2.1 0 8.5 0 8.5s5.3-.6 6.7-4.1c1.1-3 1.5-7.4 4.3-8.6 3-1.2 5 .5 6 4.5 0 .3 1.3.5 2.7-.5 1.1-.9 1.6-2.9.9-5.9-.8-3.9-2-9.2 1.5-9.9 4.5-1 12.4 3 12.4 3Z"/><path class="cls-12" d="m268.1 23.2-.5-1.4 19.4 1.4s-.7 5.3-1.7 8c-.3.8-1.4 1-1.5 0-.5-3.9.3-6 .3-6l-15.9-1.9Z"/><path class="cls-14" d="m245.6 40-4.9 5.3 13 21s6.6-1.9 11.3-7.8C254.4 53.4 245.6 40 245.6 40Z"/><path d="M322.9 315.1c20.8 0 211.4-.9 322.9-45.7v-84.8c-107.2 46-302 47.2-322.9 47.2S107.2 230.6 0 184.6v84.8c111.5 44.8 302.1 45.7 322.9 45.7Z" style="fill:url(#_名称未設定グラデーション_24)"/></g></svg>