<?xml version="1.0" encoding="UTF-8"?><svg id="_レイヤー_2" xmlns="http://www.w3.org/2000/svg" viewBox="0 0 301.78884 96.84556"><defs><style>.cls-1{fill:none;stroke:#64aee5;stroke-linecap:round;stroke-linejoin:round;}.cls-2{fill:#fff;}.cls-3{fill:#64aee5;}.cls-4{fill:#14509f;}</style></defs><g id="_メニュー"><path class="cls-4" d="m131.60916,49.86451c2.00977-.50977,4.0498-.7793,5.69922-.7793,4.56055,0,8.16016,2.42969,8.16016,6.50977,0,3.50977-1.83008,6.14941-6.54004,7.31934-1.37988.2998-2.72949.41992-3.89941.48047l-1.37988-3.81055c1.34961,0,2.60938-.0293,3.65918-.20996,2.40039-.41992,4.32031-1.64941,4.32031-3.80957,0-2.00977-1.7998-3.17969-4.37988-3.17969-1.83008,0-3.75.2998-5.58008.80957.06055,2.37012.15039,4.65039.15039,5.66992,0,3.68945-1.34961,4.65039-3.26953,4.65039-2.91016,0-7.02051-2.49023-7.02051-5.64062,0-2.60938,3.03027-5.2793,6.66016-6.86914-.03027-.69043-.03027-1.37988-.03027-2.07031v-2.49023c-.56934.03027-1.10938.06055-1.58984.06055-1.34961,0-2.84961-.03027-4.13965-.15039l-.05957-3.59961c1.73926.20996,3.0293.24023,4.10938.24023.54004,0,1.11035-.03027,1.70996-.06055.03027-1.0498.03027-1.91992.03027-2.42969,0-.62988-.12012-2.06934-.20996-2.60938h4.0791c-.05957.54004-.17969,1.83008-.23926,2.58008-.03027.65918-.06055,1.37891-.09082,2.12891,1.9502-.26953,3.90039-.65918,5.45996-1.10938l.08984,3.71973c-1.67969.38965-3.71973.69043-5.66895.92969-.03027.90039-.03027,1.7998-.03027,2.66992v1.0498Zm-3.26953,8.33984c0-.75-.03027-2.09961-.09082-3.66016-1.8291.93066-3.0293,2.16016-3.0293,3.21094,0,.89941,1.37988,1.73926,2.16016,1.73926.53906,0,.95996-.26953.95996-1.29004Zm12.23926-17.09961c2.2793,1.11035,5.72949,3.06055,7.28906,4.16992l-1.7998,3.06055c-1.40918-1.23047-5.2793-3.41992-7.13965-4.32031l1.65039-2.91016Z"/><path class="cls-4" d="m156.14627,49.05494v15.71973h-3.54004v-26.87891h11.45898v11.15918h-7.91895Zm0-8.42969v1.62012h4.58984v-1.62012h-4.58984Zm4.58984,5.72949v-1.70996h-4.58984v1.70996h4.58984Zm1.83008,14.18945v1.67969h-3.33008v-11.09863h11.60938v9.41895h-8.2793Zm0-6.47949v3.54004h4.94922v-3.54004h-4.94922Zm15.3291,6.4502c0,1.97949-.41992,3-1.67969,3.56934-1.23047.60059-3.12012.69043-5.87988.69043-.12012-1.02051-.69043-2.7002-1.2002-3.66016,1.74023.12012,3.78027.08984,4.34961.05957.57031,0,.78027-.17969.78027-.71973v-11.36914h-8.12988v-11.18945h11.75977v22.61914Zm-8.37012-19.91992v1.65039h4.74023v-1.65039h-4.74023Zm4.74023,5.79004v-1.74023h-4.74023v1.74023h4.74023Z"/><path class="cls-4" d="m188.29763,44.40553c-.03027,1.91992,0,4.16992.17969,6.29883.41992,4.29004,1.32031,7.2002,3.17969,7.2002,1.41016,0,2.58008-3.47949,3.15039-5.81934l3,3.59961c-1.98047,5.16016-3.83984,6.98926-6.24023,6.98926-3.24023,0-6.08984-2.93945-6.92969-10.91895-.26953-2.73047-.33008-6.17969-.33008-8.00977,0-.83984-.03027-2.09961-.20996-3l4.55957.05957c-.20996,1.0498-.35938,2.79004-.35938,3.60059Zm20.63867,12.20898l-3.92969,1.5c-.4502-4.76953-2.04004-11.75977-5.2793-15.41895l3.7793-1.26074c2.82031,3.4502,5.09961,10.62012,5.42969,15.17969Z"/><path class="cls-4" d="m228.01345,36.78541c3.20996,4.58984,8.07031,8.39941,12.83984,10.31934-.87012.93066-1.67969,2.10059-2.30957,3.20996-1.53027-.78027-3.08984-1.76953-4.58984-2.84961v2.06934h-14.93945v-2.09961c-1.46973,1.08008-3.05957,2.07031-4.65039,2.94043-.47949-.87012-1.46973-2.16016-2.24902-2.91016,5.15918-2.49023,9.95898-7.01953,12.20898-10.67969h3.68945Zm-10.97949,15.71973h19.01953v12.29883h-3.66016v-1.10938h-11.84961v1.10938h-3.50977v-12.29883Zm15.4502-6.12012c-2.49023-1.9502-4.70996-4.10938-6.15039-6.08984-1.41016,2.00977-3.50977,4.13965-5.96973,6.08984h12.12012Zm-11.94043,9.26953v4.88965h11.84961v-4.88965h-11.84961Z"/><path class="cls-4" d="m255.77029,43.7151c-.38965.50977-1.01953,1.46973-1.53027,2.25-.0293.2998-.0293.57031-.05957.87012,3-2.25,6.05957-3.08984,8.72949-3.08984,4.58984,0,8.18945,3.24023,8.18945,8.00977,0,6-3.74902,9.59961-11.12891,11.06934l-1.77051-3.59961c5.21973-.81055,8.93945-2.91016,8.93945-7.55957,0-2.31055-1.85938-4.41016-4.8291-4.41016-3.15039,0-5.94043,1.5-8.42969,3.80957-.03027.83984-.06055,1.68066-.06055,2.45996,0,2.42969,0,4.91992.18066,7.70996.0293.54004.14941,1.62012.20996,2.28027h-4.08008c.05957-.63086.08984-1.71094.08984-2.19043.06055-2.30957.06055-4.01953.12012-6.54004-1.25977,1.89062-2.72949,4.0498-3.75,5.49023l-2.33984-3.2998c1.67969-2.04004,4.67969-6,6.35938-8.49023l.12012-2.06934c-1.43945.17969-3.71973.47949-5.39941.68945l-.36035-3.80957c.83984.03027,1.53027.03027,2.58008-.03027.87012-.05957,2.16016-.20996,3.41992-.38965.05957-1.11035.12012-1.9502.12012-2.28027,0-.83984.03027-1.73926-.12012-2.63965l4.34961.12012c-.17969.83984-.41992,2.37012-.66016,4.22949l1.11035,1.41016Z"/><path class="cls-4" d="m296.95877,38.73561c-.08984.44922-.14941,1.74023-.17969,2.5498-.03027,1.16992-.05957,2.21973-.08984,3.20996.80957-.06055,1.55957-.12012,2.25-.15039.80957-.05957,1.97949-.14941,2.84961-.20996v3.66016c-.50977-.03027-2.06934,0-2.87988.03027-.62988.0293-1.41016.05957-2.2793.11914-.09082,2.25-.21094,4.67969-.4502,5.94043-.2998,1.55957-1.0498,1.9502-2.58008,1.9502-1.0498,0-3.41992-.27051-4.46973-.4502l.08984-3.27051c.92969.18066,2.12988.36035,2.72949.36035.60059,0,.84082-.12012.93066-.69043.12012-.80957.17969-2.15918.20996-3.56934-2.61035.20996-5.52051.47949-8.07031.75-.0293,2.72949-.05957,5.45996,0,6.71973.09082,2.91016.33008,3.56934,4.7998,3.56934,2.91016,0,6.66016-.35938,8.87988-.7793l-.14941,4.0791c-2.01074.24023-5.64062.48047-8.45996.48047-7.70996,0-8.63965-1.62012-8.75977-6.75-.03027-1.25977-.03027-4.13965-.03027-6.92969l-2.00977.20996c-.92969.12012-2.79004.41992-3.56934.54004l-.39062-3.80957c.83984,0,2.21973-.05957,3.71973-.17969l2.25-.20996v-3c0-1.23047-.08984-2.25-.24023-3.2998h4.2002c-.12012.98926-.17969,1.8291-.17969,3.08984,0,.68945,0,1.67969-.03027,2.84961,2.51953-.24023,5.39941-.50977,8.09961-.75v-3.36035c0-.75-.12012-2.15918-.20996-2.69922h4.01953Z"/><circle class="cls-4" cx="48.42278" cy="48.42278" r="48.42278"/><rect class="cls-2" x="24.94047" y="34.66847" width="46.96462" height="27.50862"/><polyline class="cls-1" points="26.31465 61.12893 48.42278 44.26581 70.53091 61.12893"/><polygon class="cls-3" points="48.42278 52.57974 24.94047 34.66847 71.90509 34.66847 48.42278 52.57974"/></g></svg>