<svg viewBox="0 0 351.3 351.3" xmlns="http://www.w3.org/2000/svg" xmlns:xlink="http://www.w3.org/1999/xlink"><clipPath id="a"><path d="m0 0h351.3v351.3h-351.3z"/></clipPath><g clip-path="url(#a)"><path d="m218.24 274.98c0-6.87-2.77-12.54-2.77-12.54h75.07s5.61 2.38 5.61 13.35-5.61 12.39-5.61 12.39h-75.07s2.77-6.34 2.77-13.21z" fill="#ddebf2"/><path d="m214.1 264.11h65.93c.2.01 4.99.51 4.99 11.2s-4.26 11.2-4.21 11.2h-66.6c-.77 0-1.4.64-1.4 1.43s.63 1.43 1.4 1.43h109.29s5.96.09 5.96-14.02-5.84-14.13-5.84-14.13l-109.51.02c-.78 0-1.4.64-1.4 1.43s.62 1.43 1.4 1.43z" fill="#14509f"/><path d="m323.56 290.44c-11.14-.29-88.84 0-88.84 0s-6.68 2.37-6.68 13.3 6.68 12.36 6.68 12.36h88.84s-4.65-14.94 0-25.66z" fill="#bad5e3"/><path d="m325.78 292.1h-57.52c-.25.01-5.94.51-5.94 11.17s5.07 11.16 5.01 11.16h57.35c.91 0 1.66.65 1.66 1.43s-.75 1.43-1.66 1.43h-106.9s-8.63.09-8.63-13.98 8.49-14.07 8.49-14.07 17.83.01 17.91 0h90.22c.92 0 1.68.63 1.68 1.42s-.75 1.43-1.68 1.43z" fill="#ffd200"/><path d="m330.34 216.09c-11.14-.19-88.84 0-88.84 0s-6.68 1.53-6.68 8.59 6.68 7.98 6.68 7.98h88.84s-4.65-9.65 0-16.57z" fill="#ddebf2"/><path d="m332.56 217.16h-57.53c-.25 0-5.94.33-5.94 7.21s5.07 7.21 5.01 7.21h57.35c.91 0 1.21.42 1.21.92s-.3.92-1.21.92h-109.24s-6.29.06-6.29-9.03 6.15-9.09 6.15-9.09h20.26 90.22c.92 0 .94.41.94.92s-.02.92-.94.92z" fill="#476d89"/><path d="m217.46 234.42h95.46s6.69 2.37 6.69 13.31-6.69 12.36-6.69 12.36-72.78 0-95.46 0c4.49-13.96 0-25.67 0-25.67z" fill="#fff"/><path d="m325.57 261.22h-12.16c-.22.03-.38.04-.42.04h-96.65c-.93 0-1.67-.64-1.67-1.42s.74-1.43 1.67-1.43h96.58c-.06 0 5.01-.56 5.01-11.17s-5.69-11.15-5.93-11.17h-96.78c-.91 0-1.66-.63-1.66-1.42s.75-1.43 1.66-1.43h96.87c.08 0 .45.02 1.01.14h12.61s6.15-.13 6.15 13.94-6.29 13.92-6.29 13.92z" fill="#ffd200"/></g></svg>