<svg viewBox="0 0 351.3 351.3" xmlns="http://www.w3.org/2000/svg" xmlns:xlink="http://www.w3.org/1999/xlink"><clipPath id="a"><path d="m0 0h351.3v351.3h-351.3z"/></clipPath><g clip-path="url(#a)"><path d="m0 317.29h351.3v97.83h-351.3z" fill="#fff"/><path d="m183.72 71.13s-14.53 3.72-17.07-8.84c-2.07-10.27 12.19-18.39 21-19.61 2.96-4.21 15.62.61 19.72 6.55 11.64 16.89 21.39 22.48 22.3 32.92.37 4.22-.25 8.42-3.85 14.06-4.44 6.96-20.31 10.9-24.95 9.76-15.05-3.71-17.15-34.84-17.15-34.84z" fill="#3b3b3b"/><path d="m156.65 174.54h17.34c1.3 0 2.36-1.08 2.36-2.42s-1.06-2.41-2.36-2.41h-65.97c-1.31 0-2.37 1.08-2.37 2.41s1.06 2.42 2.37 2.42z" fill="#213b53"/><path d="m118.32 172.98v144.31h-4.5v-144.31" fill="#213b53"/><path d="m165.91 172.98v144.31h-4.5v-144.31" fill="#213b53"/><path d="m195.83 153.17-42.34 4.68c-.77-.35-3.98-1.52-4.88-1.93-2.67-1.22-6.63-2.14-7.75-2.51s-4.74 3.45-5.25 3.86c-1.9-.03-6.81 4.13-8.22 4.91-.23.13-.09 2.9 3 1.97.74-.22 6.06-3.77 6.06-3.77l4.68.38s2.48 2.31 4.1 2.95c4.33 1.73 6.94.51 8.41-.11l42.69.92z" fill="#e5b187"/><path d="m268.27 185.98c2.59 19.9-43.58 21.71-67.46 26.59 11.73 5.62 17.65 46.98 35.29 79.03 1.07 1.26 2.98 2.81 2.98 2.81l-2.2 9.56-2.31 6.69-.23 2.98-6.96-.78.5-13.12s-50.61-71.76-51.82-73.51c-2.74-4-9.46-14.48-2.87-25.82 2.09-3.59 14.65-18.83 14.65-18.83s78.7-8.8 80.42 4.4z" fill="#e5b187"/><path d="m217.05 94.55s-9.33 61.96-10.11 66.26c-.25 1.36-.35 1.99-1.06 3.05-17.66-5.06-9.65.62-15.11.65-14.2.05-26.73-.03-26.73-.03l-1.85-7.68 30.21-4.84s.41-16.37 2.26-39.07c2-24.56 22.39-18.34 22.39-18.34z" fill="#e6e6e6"/><path d="m251.53 178.23c-4.26-15.6-20.92-26.28-39.51-33.77-15.05-6.07-11.21-46.83-11.21-46.83s14.62-10.96 16.27-10.91c15.78.62 34.79 6.38 48.97 25.75 22.29 31.25 35.29 63.3 35.29 63.3s-39.19 10.18-49.81 2.47z" fill="#fff"/><path d="m212.13 121.82c5.02-1.14.55-20.53 7.77-33.62-1.17.71-13.56-.82-14.94.17-2.21 18.78-2.14 35.56 7.17 33.45z" fill="#f0bda5"/><path d="m170.42 164.59v.89c0 2.49-1.8 4.52-4.02 4.52h-48.88c-2.22 0-4.01-2.02-4.01-4.52v-.89h56.92z" fill="#476d89"/><path d="m113.37 164.28-.46.26c-1.55 1.03-3.42 1.22-4.53-.7l-21.02-37.07c-1.1-1.92-.02-3.6 1.47-4.59l.46-.26 24.07 42.37z" fill="#476d89"/><path d="m179.63 313.04 7.89-12.65s-21.05-85.53-24.2-96.42c-3.16-10.89 1.47-28.19 19.16-28.21s107.78 1.26 107.78 1.26 10.21 37.89-40 33.79c-20.34-1.66-7.93 1.33-60.98-4.81 6.82 20.16 5.58 65.17 7.4 89.9.15 1.97.51 4.21 1.22 5.53-1.22 1.73-12.94 15.34-12.94 15.34z" fill="#f0bda5"/><path d="m301.19 175.5c9.05 16.42 4.34 39.93-23.45 42.45-7.58.47-33.11-.26-49.56.38-4.42-.26-15.53 4.79-18.77 8.67-15.6-6.16-16.18-51.42-16.18-51.42s88.91.33 107.95-.09z" fill="#213b53"/><path d="m180.13 311.82c-2.83 2.83-6.45 3.78-7 4.07-1.94 1-.35 3.47-.35 3.47s8.63-.12 10.78-.07c4.67.1 9.59-8.64 9.59-8.64l1.25 8.76h2.52s.56-8.46 1.97-12.77c1.13-3.44-.71-6.19-.71-6.19s-1.96-.88-6.42 5.25c-4.75 6.6-9.84 6.13-11.64 6.12z" fill="#213b53"/><path d="m214.8 83.53c-5.36-1.55-15.54-18.61-15.54-18.61-4.64-1.18-18.55 24.34-18.31 24.86s4.12 2.28 6.37 1.33c8.52-3.55 13.24 5.82 22.08 10.52 0 0 6.14-4.4 6.28-10.72s-.89-7.38-.89-7.38z" fill="#e5b187"/><path d="m227.09 310.95c-1.51 3.52-4.56 5-4.95 5.45-1.37 1.57.92 3.2.92 3.2s7.63-2.27 9.56-2.99c4.18-1.57 6.73-11.21 6.73-11.21l3.55 6.15 2.23-.91s-2.46-6.38-2.73-10.7c-.22-3.45-3.55-5.71-3.55-5.71s-1.91.11-3.61 7.15c-2.41 9.98-6.42 9.55-8.16 9.55z" fill="#213b53"/><path d="m230.01 167.41-55.21-14.63s-7.24-4.17-14.12-6.25c-1.14-.34-5.97.84-5.97.84s-5.79 3.57-7.73 4.78c-1.8 1.12.92 2.48 1.69 2.34 1.18-.22 7.73-2.81 7.73-2.81l7.4 3.93s-2.73 2.27-4.21 2.62c-4.31 1.03-2.81 4.78-2.81 4.78s8.43-2.81 11.99-2.81c2.81 0 4.28-1.42 4.87-1.59 6.9 3.15 23.78 10.43 36.96 15.75 17.05 6.88 19.42-6.95 19.42-6.95z" fill="#f0bda5"/><path d="m221.11 114.21c-.45 6.62-4.82 47.42-4.82 47.42l-15-3-2.84 12.16c1.74.74 7.26 3.13 13.84 5.58 12.74 4.74 19.55-2.42 21.75-10.24.96-3.41 10.58-39.6 11.51-45.46 3.62-22.63-22.98-27.73-24.44-6.46z" fill="#fff"/><path d="m196.66 71.66s2.76-1.59 1.97-7.11c-.7-4.87-7.63-5.73-8.78.29-5.79 1.16-6.6-15.8-6.6-15.8l-2.6 1.36s-3.22.78-6.67 4.87c-3.94 4.67-1.49 12.5-1.12 15.22.46 3.42-.96 6.65-1.25 7.74s-.05 1.91 1.52 2.1c.87.1 1.9 0 1.9 0s5.02 8.97 6.64 11.48c.65 1.01 1.94.82 2.64.56 1.01-.38 6.52-2.25 8.94-5.43.45-.59 1.33-1.92 2.32-4.5 2.09-5.43 1.09-10.8 1.09-10.8z" fill="#f0bda5"/><path d="m203.43 43.89c-12.3-8.45-29.17-1.63-30.84 3.5-2.58 6.55 5.78 21.07 18.77 19.7.22-2.68.93-4.77 3.44-4.91 3.51-.2 3.37 2.4 3.71 4.15 3.29 16.73 4.07 23.38 13.32 25.45 6.91 1.55 14.34-3.96 15.5-9.58-9.99-9.32-13.15-30.92-23.91-38.31z" fill="#3b3b3b"/><g fill="#fff"><path d="m80.02 232.7h-38.45c-.57 0-1.04-.46-1.05-1.04l-.06-4.15v-4.14c0-.58.47-1.05 1.05-1.05.58 0 1.05.47 1.05 1.05v4.12s.04 3.1.04 3.1h36.37s0-3.67 0-3.67v-39.74s0-2.53 0-2.53h-6.34c-.58 0-1.05-.47-1.05-1.05s.47-1.05 1.05-1.05h7.39c.58 0 1.05.47 1.05 1.04v3.57s0 39.74 0 39.74v4.73c0 .58-.48 1.05-1.05 1.05z"/><path d="m40.33 185.2c-1.37 0-6.39 0-6.39 0-.28 0-.54-.11-.74-.31s-.31-.46-.31-.74v-.48c0-.3.13-.59.36-.79l9.64-8.37c.31-.27.75-.33 1.12-.16s.61.54.61.95v5.55c0 2.82-2.21 4.34-4.29 4.35zm-4.14-2.09h4.14c.88 0 2.2-.6 2.2-2.25v-3.26s-6.34 5.51-6.34 5.51z"/><path d="m72.49 224.39h-38.48c-.57 0-1.03-.46-1.05-1.03l-.09-4.15v-35.05c0-.58.47-1.05 1.05-1.05s5.11 0 6.62 0c.95 0 1.97-.95 1.97-2.36 0-.48 0-.78 0-1.16 0-.68.02-1.61.02-4.3 0-.58.47-1.05 1.05-1.05h28.86c.28 0 .55.11.74.31s.31.46.31.74l-.02 3.57v39.74s.04 4.71.04 4.71c0 .28-.11.55-.3.75-.2.2-.46.31-.74.31zm-37.45-2.1h36.39s-.04-3.66-.04-3.66v-39.75s.02-2.53.02-2.53h-26.76c0 1.91-.01 2.68-.02 3.27v1.14c0 2.46-1.82 4.46-4.06 4.46-1.08 0-4 0-5.58 0v33.98s.06 3.1.06 3.1z"/><path d="m56.23 195.58h-12.34c-.58 0-1.05-.47-1.05-1.05s.47-1.05 1.05-1.05h12.34c.58 0 1.05.47 1.05 1.05s-.47 1.05-1.05 1.05z"/><path d="m63.6 195.58h-4.11c-.58 0-1.05-.47-1.05-1.05s.47-1.05 1.05-1.05h4.11c.58 0 1.05.47 1.05 1.05s-.47 1.05-1.05 1.05z"/><path d="m47.68 201.19h-3.9c-.58 0-1.05-.47-1.05-1.05s.47-1.05 1.05-1.05h3.9c.58 0 1.05.47 1.05 1.05s-.47 1.05-1.05 1.05z"/><path d="m58.18 201.19h-7.36c-.58 0-1.05-.47-1.05-1.05s.47-1.05 1.05-1.05h7.36c.58 0 1.05.47 1.05 1.05s-.47 1.05-1.05 1.05z"/><path d="m63.7 201.19h-2.4c-.58 0-1.05-.47-1.05-1.05s.47-1.05 1.05-1.05h2.4c.58 0 1.05.47 1.05 1.05s-.47 1.05-1.05 1.05z"/><path d="m51.93 206.96h-8.1c-.58 0-1.05-.47-1.05-1.05s.47-1.05 1.05-1.05h8.1c.58 0 1.05.47 1.05 1.05s-.47 1.05-1.05 1.05z"/><path d="m60.55 206.96h-5.5c-.58 0-1.05-.47-1.05-1.05s.47-1.05 1.05-1.05h5.5c.58 0 1.05.47 1.05 1.05s-.47 1.05-1.05 1.05z"/><path d="m47.86 123.95-12.05 15.45c-.82 1.05-.64 2.58.42 3.4l.95.75c1.05.82 2.58.63 3.4-.42l12.05-15.45-4.77-3.72z"/><path d="m49.75 126.45c-6.32-4.93-7.44-14.08-2.52-20.39 4.93-6.32 14.08-7.45 20.39-2.52 6.32 4.93 7.45 14.08 2.52 20.39-4.93 6.32-14.08 7.45-20.39 2.52zm15.64-20.05c-4.74-3.7-11.6-2.85-15.29 1.89-3.7 4.74-2.85 11.6 1.89 15.29 4.74 3.7 11.6 2.85 15.29-1.89 3.7-4.74 2.85-11.6-1.89-15.29z"/></g><path d="m112.67 120c-.52 3.09-3.44 5.17-6.53 4.65s-5.17-3.44-4.65-6.53 3.44-5.17 6.53-4.65 5.17 3.44 4.65 6.53z" fill="#ffd200"/><path d="m59.05 115.91-.76-1.99 34.09-13 15.5 17.43-1.59 1.42-14.53-16.33z" fill="#ffd200"/><path d="m97.66 103.12c-.52 3.09-3.44 5.17-6.53 4.65s-5.17-3.44-4.65-6.53 3.44-5.17 6.53-4.65 5.17 3.44 4.65 6.53z" fill="#ffd200"/><path d="m64.26 115.86c-.52 3.09-3.44 5.17-6.53 4.65s-5.17-3.44-4.65-6.53 3.44-5.17 6.53-4.65 5.17 3.44 4.65 6.53z" fill="#ffd200"/><path d="m147.4 45.32c-2.12-.9-4.18-1.53-6.18-1.98v-2.29c0-.58-.47-1.05-1.05-1.05-8.16 0-17.25 2.27-23.4 5.8-6.15-3.53-15.24-5.8-23.4-5.8-.58 0-1.05.47-1.05 1.05v2.29c-2 .46-4.05 1.09-6.18 1.98-.39.16-.64.54-.64.97v37.47c0 .34.17.67.45.86.28.2.65.24.97.12 9.3-3.53 19.21-3.28 29.46.77h.03c.11.04.23.07.35.07s.24-.03.35-.07h.03c10.26-4.04 20.17-4.3 29.46-.77.32.12.69.08.97-.12s.45-.52.45-.86v-37.47c0-.42-.25-.8-.64-.97zm-29.58 2.43v-.14c5.58-3.21 13.77-5.32 21.3-5.5v34.7c-7.42.17-15.47 2.15-21.3 5.21zm-23.4-5.64c7.54.18 15.72 2.29 21.3 5.5v34.41c-5.83-3.06-13.88-5.03-21.3-5.21zm5.88 38.05c-4.32 0-8.56.7-12.7 2.1v-35.27c1.62-.65 3.19-1.14 4.72-1.52v32.37c0 .58.47 1.05 1.05 1.05 4.11 0 8.46.6 12.52 1.65-1.88-.25-3.74-.39-5.59-.39zm45.65 2.1c-5.91-2-12.05-2.56-18.33-1.7 4.07-1.06 8.44-1.67 12.56-1.67.58 0 1.05-.47 1.05-1.05v-32.37c1.53.38 3.1.87 4.72 1.52z" fill="#fff"/></g></svg>