<?xml version="1.0" encoding="UTF-8"?><svg id="_レイヤー_2" xmlns="http://www.w3.org/2000/svg" viewBox="0 0 353.52838 102.98145"><defs><style>.cls-1{fill:#fff;}</style></defs><g id="_レイヤー_1-2"><path class="cls-1" d="m13.49994,45.10547h35.53183l-1.34399,7.55957h-26.87988l-3.02399,17.13623h23.77188l-1.34399,7.47607h-23.77188l-3.108,17.3877h28.13989l-1.42798,7.56006H3.41998l10.07996-57.11963Z"/><path class="cls-1" d="m51.04791,86.01318c0-12.18018,7.97995-19.82373,17.47192-19.82373,5.79596,0,10.41595,3.02344,12.51593,7.89551l5.79596-32.50781h8.31598l-9.15594,51.82812c-.25201,1.67969.16797,2.43555,1.59598,2.43555h2.85599l-1.09198,6.38428h-4.03198c-6.552,0-7.72797-2.26807-7.72797-5.62793l.08398-.84033c-2.604,4.53613-6.80396,7.22461-12.01196,7.22461-8.48395,0-14.61591-6.80469-14.61591-16.96826Zm28.30786-2.26807c.08398-6.04785-3.44397-10.24805-9.07196-10.24805-6.46796,0-10.58395,5.04004-10.58395,12.34814,0,5.96387,3.35999,9.91162,8.81998,9.91162,6.29996,0,10.83594-5.04004,10.83594-12.01172Z"/><path class="cls-1" d="m97.91925,86.9375l3.52795-19.99219h8.31598l-3.44397,19.57178c-1.008,5.7124,1.17596,9.07178,6.21594,9.07178,5.37598,0,8.48398-3.02344,9.65997-9.15576l3.44397-19.48779h8.31598l-4.62,26.45996c-.336,1.67969.08401,2.43555,1.51202,2.43555h2.85596l-1.09198,6.38428h-4.03198c-6.46796,0-7.72797-2.604-7.64398-5.62793v-.58838c-3.02399,4.62012-6.71997,6.97266-12.09595,6.97266-7.72797,0-12.59991-6.21631-10.91992-16.04395Z"/><path class="cls-1" d="m140.00317,85.17285c0-11.00391,8.23199-18.9834,19.23593-18.9834,6.71997,0,11.33994,2.85547,14.11194,6.71973l-6.04797,4.78809c-1.76401-2.604-4.53598-4.2002-8.14798-4.2002-6.38397,0-10.58392,4.95605-10.58392,11.67578,0,6.13232,3.44397,10.58398,9.32394,10.58398,4.28397,0,6.63596-1.84766,8.06396-3.10742l4.87198,5.45996c-2.77197,2.6875-6.88797,4.87207-12.93594,4.87207-10.41595,0-17.89194-7.30859-17.89194-17.80859Z"/><path class="cls-1" d="m177.97076,86.01318c0-12.18018,7.81195-19.82373,17.05191-19.82373,5.54398,0,10.24796,2.93945,12.26395,8.39941l1.09198-7.64355h8.31598l-4.62,26.45996c-.25198,1.67969.16803,2.43555,1.59601,2.43555h2.85599l-1.09201,6.38428h-4.03198c-6.55194,0-7.64395-2.26807-7.64395-5.54395v-.75635c-2.85599,4.53613-6.38397,7.05664-11.59195,7.05664-8.06396,0-14.19592-6.63623-14.19592-16.96826Zm27.46786-2.26807c0-6.04785-3.19199-10.24805-8.65195-10.24805-6.216,0-10.16397,5.04004-10.16397,12.34814,0,5.96387,3.19199,9.91162,8.48398,9.91162,5.96396,0,10.33194-5.04004,10.33194-12.01172Z"/><path class="cls-1" d="m226.18665,90.12891l2.85596-16.21191h-5.20795l1.17596-6.97168h5.29199l2.18399-12.51611h8.23196l-2.18399,12.51611h9.07196l-1.25998,6.97168h-8.98798l-2.94,16.54785c-.75598,4.03223.42001,5.37598,2.68799,5.37598,2.01599,0,3.35999-.83984,4.36798-1.5957l2.94,5.7959c-1.84799,1.51172-4.19998,2.94043-8.73596,2.94043-6.13196,0-11.17194-3.19238-9.49194-12.85254Z"/><path class="cls-1" d="m252.39343,93.2373l4.53601-26.29199h8.39996l-4.70398,26.45996c-.25201,1.67969.16803,2.43555,1.59601,2.43555h2.93994l-1.09198,6.38428h-4.11597c-6.55194,0-8.81995-2.18408-7.56-8.98779Zm5.71204-39.98389c0-3.19189,2.51996-5.37598,5.37598-5.37598,2.93994,0,5.54395,2.18408,5.54395,5.37598,0,3.27588-2.52002,5.45996-5.45996,5.45996-2.85602,0-5.45996-2.18408-5.45996-5.45996Z"/><path class="cls-1" d="m272.21704,85.25684c0-11.17188,8.56799-19.06738,19.31995-19.06738,10.16394,0,18.05994,7.55957,18.05994,17.80762,0,11.17188-8.48401,18.98438-19.31995,18.98438-10.16394,0-18.05994-7.64453-18.05994-17.72461Zm28.81189-1.34375c0-6.21582-3.77997-10.5-9.74396-10.5-6.29999,0-10.49994,5.04004-10.49994,12.01172,0,6.13232,3.86395,10.41602,9.74396,10.41602,6.38397,0,10.49994-5.04004,10.49994-11.92773Z"/><path class="cls-1" d="m321.27252,66.94531h8.31598l-1.42798,6.71973c2.68799-4.62012,6.63593-7.47559,12.0119-7.47559,7.72797,0,12.59998,6.2998,10.836,16.12793l-1.93201,11.08789c-.25201,1.67969.16797,2.43555,1.59595,2.43555h2.85602l-1.09198,6.38428h-4.03198c-6.552,0-8.81995-2.18408-7.56-8.98779l1.76398-10.5c1.00806-5.7959-1.17596-9.07227-6.13196-9.07227-5.37598,0-8.56793,2.94043-9.65991,9.07227l-3.44403,19.48779h-8.31598l6.216-35.27979Z"/><path class="cls-1" d="m0,13.44141l1.94415-1.29639c.72009,1.2002,1.89618,2.3999,3.79236,2.3999,1.84814,0,2.92822-.9834,2.92822-2.42383,0-1.12793-.67206-1.68018-2.18417-2.66406l-.96008-.62402c-1.96817-1.27246-2.97626-2.54443-2.97626-4.56055C2.54422,1.80029,4.3924,0,7.34464,0c2.06418,0,3.52829,1.05615,4.48837,2.52051l-1.84814,1.43994c-.64807-1.0083-1.46411-1.82422-2.73624-1.82422-1.36813,0-2.2562.84033-2.2562,2.04004,0,1.03223.52805,1.65625,1.87216,2.49658l.96008.62402c2.1362,1.34375,3.36029,2.49609,3.36029,4.7041,0,3-2.23221,4.72852-5.44846,4.72852-2.95227,0-4.94446-1.72852-5.73651-3.28809Z"/><path class="cls-1" d="m17.5202.19189h10.15286l-.38403,2.16016h-7.68066l-.86407,4.89648h6.79257l-.38403,2.13623h-6.79257l-.88809,4.96875h8.04071l-.40802,2.16016h-10.4649L17.5202.19189Z"/><path class="cls-1" d="m36.24048,10.41699h-3.16827l-1.05609,6.09668h-2.47223L32.42413.19189h4.77643c3.19226,0,5.40045,1.63232,5.42447,4.75244,0,2.66406-1.60812,4.46436-3.96036,5.16064l2.97626,6.40869h-2.6402l-2.76025-6.09668Zm.07202-2.06445c2.42419,0,3.76831-1.17578,3.76831-3.31201,0-1.72803-1.1521-2.7124-3.12027-2.7124h-2.44821l-1.05609,6.02441h2.85626Z"/><path class="cls-1" d="m47.15997.19189h2.52023l2.11218,8.56885c.28802,1.2002.52805,3.12012.55203,3.21631.02402-.09619.76807-1.92041,1.46414-3.09619L58.729.19189h2.56821l-9.52884,16.48975h-.31201L47.15997.19189Z"/><path class="cls-1" d="m65.15985.19189h2.47223l-2.88025,16.32178h-2.47223L65.15985.19189Z"/><path class="cls-1" d="m70.48755,8.76074c0-5.06445,3.96036-8.76074,8.68878-8.76074,2.97626,0,4.99243,1.12793,6.38452,3.26416l-1.99216,1.34424c-.91208-1.41602-2.28018-2.40039-4.46439-2.40039-3.48029,0-6.02454,2.88037-6.02454,6.55273,0,3.36035,2.23221,5.76074,5.25647,5.76074,2.2562,0,3.64832-.98438,4.68042-2.2085l1.82416,1.48828c-1.60815,1.96826-3.57632,2.92822-6.5766,2.92822-4.48837,0-7.77667-3.43262-7.77667-7.96875Z"/><path class="cls-1" d="m90.98358.19189h10.15286l-.38403,2.16016h-7.68066l-.86407,4.89648h6.79257l-.38403,2.13623h-6.79257l-.88809,4.96875h8.04071l-.40802,2.16016h-10.4649L90.98358.19189Z"/></g></svg>