<?xml version="1.0" encoding="UTF-8"?><svg id="_レイヤー_2" xmlns="http://www.w3.org/2000/svg" viewBox="0 0 62.628 38.551"><defs><style>.cls-1{fill:#64aae1;stroke-width:0px;}</style></defs><g id="_メニュー"><path class="cls-1" d="m0,8.964l1.297-.864c.48.8,1.265,1.601,2.529,1.601,1.232,0,1.953-.656,1.953-1.617,0-.752-.449-1.121-1.457-1.777l-.641-.416c-1.312-.848-1.984-1.697-1.984-3.041C1.697,1.201,2.93,0,4.898,0c1.377,0,2.354.705,2.993,1.681l-1.232.96c-.433-.672-.976-1.216-1.825-1.216-.912,0-1.504.56-1.504,1.36,0,.688.352,1.104,1.248,1.665l.641.416c1.424.896,2.24,1.665,2.24,3.137,0,2.001-1.488,3.153-3.633,3.153-1.969,0-3.297-1.152-3.826-2.193Z"/><path class="cls-1" d="m10.881.128h6.771l-.256,1.44h-5.123l-.576,3.265h4.53l-.256,1.425h-4.53l-.592,3.313h5.361l-.271,1.44h-6.979L10.881.128Z"/><path class="cls-1" d="m22.562,6.947h-2.113l-.703,4.065h-1.648L20.018.128h3.186c2.129,0,3.602,1.088,3.617,3.169,0,1.777-1.072,2.978-2.641,3.441l1.984,4.274h-1.761l-1.841-4.065Zm.049-1.377c1.616,0,2.513-.784,2.513-2.208,0-1.153-.769-1.809-2.081-1.809h-1.633l-.704,4.018h1.905Z"/><path class="cls-1" d="m29.041.128h1.682l1.408,5.714c.191.8.352,2.081.367,2.145.017-.064.513-1.28.977-2.064L36.756.128h1.713l-6.354,10.996h-.209L29.041.128Z"/><path class="cls-1" d="m40.241.128h1.649l-1.922,10.884h-1.648L40.241.128Z"/><path class="cls-1" d="m42.992,5.843c0-3.377,2.642-5.843,5.795-5.843,1.984,0,3.329.752,4.258,2.177l-1.328.896c-.609-.944-1.521-1.601-2.979-1.601-2.32,0-4.018,1.921-4.018,4.37,0,2.241,1.489,3.841,3.506,3.841,1.505,0,2.434-.656,3.121-1.473l1.217.993c-1.072,1.312-2.385,1.953-4.386,1.953-2.993,0-5.187-2.289-5.187-5.314Z"/><path class="cls-1" d="m55.857.128h6.771l-.257,1.44h-5.121l-.576,3.265h4.529l-.256,1.425h-4.529l-.593,3.313h5.362l-.272,1.44h-6.979L55.857.128Z"/><path class="cls-1" d="m19.689,32.654c0-5.303,2.596-9.439,6.469-9.439,2.859,0,4.709,2.09,4.709,5.897,0,5.303-2.598,9.439-6.492,9.439-2.859,0-4.686-2.09-4.686-5.897Zm8.801-3.807c0-2.333-.77-3.608-2.42-3.608-2.553,0-4.006,3.917-4.006,7.657,0,2.333.749,3.631,2.398,3.631,2.575,0,4.027-3.917,4.027-7.679Z"/><path class="cls-1" d="m38.5,25.415h-3.543l.352-2.024h5.787l-2.641,14.962h-2.244l2.289-12.938Z"/></g></svg>