<?xml version="1.0" encoding="UTF-8"?><svg id="_レイヤー_2" xmlns="http://www.w3.org/2000/svg" viewBox="0 0 62.628 38.551"><defs><style>.cls-1{fill:#64aae1;stroke-width:0px;}</style></defs><g id="_メニュー"><path class="cls-1" d="m0,8.964l1.297-.864c.479.8,1.265,1.601,2.528,1.601,1.232,0,1.953-.656,1.953-1.617,0-.752-.448-1.121-1.457-1.777l-.64-.416c-1.312-.848-1.985-1.697-1.985-3.041C1.696,1.201,2.929,0,4.897,0c1.377,0,2.354.705,2.994,1.681l-1.232.96c-.433-.672-.977-1.216-1.825-1.216-.912,0-1.505.56-1.505,1.36,0,.688.353,1.104,1.249,1.665l.64.416c1.425.896,2.241,1.665,2.241,3.137,0,2.001-1.488,3.153-3.634,3.153-1.969,0-3.297-1.152-3.825-2.193Z"/><path class="cls-1" d="m10.881.128h6.771l-.256,1.44h-5.122l-.576,3.265h4.53l-.256,1.425h-4.53l-.593,3.313h5.362l-.272,1.44h-6.979L10.881.128Z"/><path class="cls-1" d="m22.562,6.947h-2.113l-.704,4.065h-1.648L20.017.128h3.186c2.129,0,3.602,1.088,3.617,3.169,0,1.777-1.072,2.978-2.641,3.441l1.984,4.274h-1.76l-1.841-4.065Zm.048-1.377c1.617,0,2.514-.784,2.514-2.208,0-1.153-.77-1.809-2.082-1.809h-1.633l-.703,4.018h1.904Z"/><path class="cls-1" d="m29.041.128h1.681l1.408,5.714c.192.8.353,2.081.368,2.145.017-.064.513-1.28.977-2.064L36.756.128h1.713l-6.354,10.996h-.208L29.041.128Z"/><path class="cls-1" d="m40.241.128h1.648l-1.921,10.884h-1.648L40.241.128Z"/><path class="cls-1" d="m42.992,5.843c0-3.377,2.642-5.843,5.794-5.843,1.985,0,3.33.752,4.258,2.177l-1.328.896c-.608-.944-1.521-1.601-2.978-1.601-2.321,0-4.018,1.921-4.018,4.37,0,2.241,1.489,3.841,3.505,3.841,1.506,0,2.434-.656,3.122-1.473l1.216.993c-1.072,1.312-2.385,1.953-4.385,1.953-2.994,0-5.187-2.289-5.187-5.314Z"/><path class="cls-1" d="m55.856.128h6.771l-.257,1.44h-5.122l-.576,3.265h4.529l-.256,1.425h-4.529l-.592,3.313h5.361l-.271,1.44h-6.979L55.856.128Z"/><path class="cls-1" d="m19.688,32.654c0-5.303,2.596-9.439,6.469-9.439,2.86,0,4.709,2.09,4.709,5.897,0,5.303-2.597,9.439-6.491,9.439-2.86,0-4.687-2.09-4.687-5.897Zm8.801-3.807c0-2.333-.77-3.608-2.42-3.608-2.553,0-4.005,3.917-4.005,7.657,0,2.333.749,3.631,2.398,3.631,2.575,0,4.026-3.917,4.026-7.679Z"/><path class="cls-1" d="m31.832,35.272l2.003-.946c.571,1.232,1.518,2.178,3.277,2.178,2.068,0,3.301-1.32,3.301-3.212,0-1.716-1.32-2.86-3.344-2.86-.683,0-1.188.132-1.562.242l-.133-.198,3.719-4.225c.418-.484,1.101-.99,1.101-.99,0,0-.837.11-1.364.11h-4.423l.353-1.98h8.999v.198l-3.982,4.621c-.396.44-.99.836-.99.836,2.024.198,3.938,1.606,3.938,4.291,0,3.125-2.42,5.215-5.545,5.215-2.795,0-4.621-1.497-5.347-3.279Z"/></g></svg>