<?xml version="1.0" encoding="UTF-8"?><svg id="_レイヤー_2" xmlns="http://www.w3.org/2000/svg" viewBox="0 0 125.039 21.929"><defs><style>.cls-1{fill:#14509f;stroke-width:0px;}</style></defs><g id="_メニュー"><path class="cls-1" d="m3.6,1.26h12.689l-.48,2.7H6.209l-1.079,6.12h8.489l-.48,2.67H4.65l-1.111,6.21h10.051l-.51,2.7H0L3.6,1.26Z"/><path class="cls-1" d="m17.01,15.87c0-4.35,2.85-7.08,6.24-7.08,2.069,0,3.719,1.08,4.469,2.82L29.789,0h2.971l-3.271,18.509c-.09.6.06.87.569.87h1.021l-.39,2.28h-1.439c-2.341,0-2.761-.81-2.761-2.01l.03-.3c-.93,1.62-2.43,2.58-4.29,2.58-3.03,0-5.22-2.43-5.22-6.06Zm10.109-.81c.03-2.16-1.229-3.66-3.24-3.66-2.309,0-3.779,1.8-3.779,4.41,0,2.13,1.2,3.54,3.15,3.54,2.25,0,3.869-1.8,3.869-4.29Z"/><path class="cls-1" d="m33.75,16.199l1.26-7.14h2.97l-1.229,6.99c-.36,2.04.42,3.24,2.219,3.24,1.92,0,3.03-1.08,3.451-3.27l1.229-6.96h2.971l-1.65,9.45c-.119.6.03.87.541.87h1.02l-.391,2.28h-1.439c-2.311,0-2.76-.93-2.73-2.01v-.21c-1.08,1.65-2.399,2.49-4.319,2.49-2.76,0-4.5-2.22-3.899-5.73Z"/><path class="cls-1" d="m48.779,15.569c0-3.93,2.94-6.78,6.87-6.78,2.399,0,4.05,1.02,5.04,2.4l-2.16,1.71c-.63-.93-1.619-1.5-2.91-1.5-2.279,0-3.779,1.77-3.779,4.17,0,2.19,1.23,3.78,3.33,3.78,1.529,0,2.369-.66,2.879-1.11l1.74,1.95c-.99.96-2.459,1.74-4.619,1.74-3.721,0-6.391-2.61-6.391-6.36Z"/><path class="cls-1" d="m62.34,15.87c0-4.35,2.789-7.08,6.09-7.08,1.979,0,3.659,1.05,4.379,3l.391-2.73h2.97l-1.649,9.45c-.091.6.06.87.569.87h1.021l-.391,2.28h-1.439c-2.34,0-2.73-.81-2.73-1.98v-.27c-1.02,1.62-2.279,2.52-4.14,2.52-2.88,0-5.069-2.37-5.069-6.06Zm9.809-.81c0-2.16-1.139-3.66-3.09-3.66-2.219,0-3.629,1.8-3.629,4.41,0,2.13,1.14,3.54,3.029,3.54,2.13,0,3.689-1.8,3.689-4.29Z"/><path class="cls-1" d="m79.559,17.339l1.021-5.79h-1.86l.42-2.49h1.891l.779-4.47h2.94l-.78,4.47h3.24l-.45,2.49h-3.21l-1.05,5.91c-.271,1.44.149,1.92.96,1.92.721,0,1.2-.3,1.561-.57l1.049,2.07c-.659.54-1.5,1.05-3.119,1.05-2.189,0-3.99-1.14-3.391-4.59Z"/><path class="cls-1" d="m88.919,18.449l1.62-9.39h3l-1.68,9.45c-.091.6.06.87.569.87h1.05l-.39,2.28h-1.47c-2.34,0-3.15-.78-2.7-3.21Zm2.04-14.279c0-1.14.9-1.92,1.92-1.92,1.05,0,1.98.78,1.98,1.92,0,1.17-.9,1.95-1.951,1.95-1.02,0-1.949-.78-1.949-1.95Z"/><path class="cls-1" d="m95.999,15.6c0-3.99,3.06-6.81,6.899-6.81,3.631,0,6.45,2.7,6.45,6.36,0,3.99-3.03,6.78-6.899,6.78-3.631,0-6.45-2.73-6.45-6.33Zm10.29-.48c0-2.22-1.351-3.75-3.48-3.75-2.25,0-3.75,1.8-3.75,4.29,0,2.19,1.381,3.72,3.48,3.72,2.279,0,3.75-1.8,3.75-4.26Z"/><path class="cls-1" d="m113.52,9.06h2.969l-.51,2.4c.961-1.65,2.37-2.67,4.29-2.67,2.76,0,4.5,2.25,3.87,5.76l-.689,3.96c-.091.6.059.87.569.87h1.021l-.391,2.28h-1.439c-2.34,0-3.15-.78-2.7-3.21l.63-3.75c.359-2.07-.42-3.24-2.189-3.24-1.92,0-3.061,1.05-3.45,3.24l-1.229,6.96h-2.971l2.221-12.6Z"/></g></svg>