<?xml version="1.0" encoding="UTF-8"?><svg id="_レイヤー_2" xmlns="http://www.w3.org/2000/svg" viewBox="0 0 82.458 21.929"><defs><style>.cls-1{fill:#14509f;stroke-width:0px;}</style></defs><g id="_メニュー"><path class="cls-1" d="m8.37,14.04h-3.96l-1.32,7.62H0L3.6,1.26h5.971c3.99,0,6.75,2.04,6.779,5.94,0,3.33-2.01,5.58-4.949,6.45l3.719,8.01h-3.299l-3.45-7.62Zm.09-2.58c3.03,0,4.71-1.47,4.71-4.14,0-2.16-1.439-3.39-3.9-3.39h-3.06l-1.319,7.53h3.569Z"/><path class="cls-1" d="m25.2,19.469c1.68,0,2.729-.63,3.51-1.32l1.771,1.89c-1.351,1.17-2.971,1.89-5.311,1.89-4.05,0-6.72-2.61-6.72-6.33,0-4.02,3.181-6.81,6.96-6.81,4.26,0,6.51,3.21,5.97,7.56h-9.899c.18,1.77,1.47,3.12,3.72,3.12Zm3.329-5.16c-.029-1.77-1.109-3.12-3.209-3.12-1.98,0-3.33,1.2-3.75,3.12h6.959Z"/><path class="cls-1" d="m33,19.229l2.13-1.44c.72,1.08,1.65,1.77,3.21,1.77,1.471,0,2.04-.54,2.04-1.35s-.66-1.05-2.55-1.95c-1.74-.87-3-1.86-3-3.78,0-2.4,1.95-3.69,4.38-3.69,2.01,0,3.36.84,4.26,1.98l-1.979,1.62c-.51-.69-1.141-1.29-2.311-1.29-.93,0-1.59.42-1.59,1.17,0,.72.63,1.11,2.07,1.77,1.979.9,3.57,1.8,3.57,3.9,0,2.4-1.65,3.99-4.92,3.99-2.58,0-4.381-1.17-5.311-2.7Z"/><path class="cls-1" d="m46.08,15.87c0-4.35,2.79-7.08,6.09-7.08,1.98,0,3.66,1.05,4.38,3l.39-2.73h2.971l-1.65,9.45c-.09.6.061.87.57.87h1.02l-.391,2.28h-1.439c-2.34,0-2.73-.81-2.73-1.98v-.27c-1.02,1.62-2.279,2.52-4.139,2.52-2.881,0-5.07-2.37-5.07-6.06Zm9.81-.81c0-2.16-1.14-3.66-3.09-3.66-2.22,0-3.63,1.8-3.63,4.41,0,2.13,1.141,3.54,3.029,3.54,2.131,0,3.69-1.8,3.69-4.29Z"/><path class="cls-1" d="m62.4,18.449l3.239-18.449h2.97l-3.27,18.509c-.09.6.03.87.57.87h1.229l-.39,2.28h-1.65c-2.34,0-3.149-.78-2.699-3.21Z"/><path class="cls-1" d="m76.199,19.469c1.68,0,2.73-.63,3.51-1.32l1.77,1.89c-1.35,1.17-2.97,1.89-5.31,1.89-4.05,0-6.72-2.61-6.72-6.33,0-4.02,3.18-6.81,6.96-6.81,4.26,0,6.51,3.21,5.97,7.56h-9.899c.18,1.77,1.47,3.12,3.72,3.12Zm3.33-5.16c-.03-1.77-1.11-3.12-3.21-3.12-1.979,0-3.33,1.2-3.75,3.12h6.96Z"/></g></svg>