<?xml version="1.0" encoding="UTF-8"?><svg id="_レイヤー_2" xmlns="http://www.w3.org/2000/svg" viewBox="0 0 102.958 26.999"><defs><style>.cls-1{fill:#14509f;stroke-width:0px;}</style></defs><g id="_メニュー"><path class="cls-1" d="m0,16.799l2.43-1.62c.9,1.5,2.369,3,4.74,3,2.31,0,3.659-1.23,3.659-3.03,0-1.41-.84-2.1-2.729-3.33l-1.2-.78c-2.46-1.59-3.72-3.18-3.72-5.7C3.18,2.25,5.49,0,9.18,0c2.58,0,4.41,1.32,5.609,3.15l-2.311,1.8c-.809-1.26-1.829-2.28-3.419-2.28-1.71,0-2.819,1.05-2.819,2.55,0,1.29.659,2.07,2.34,3.12l1.199.78c2.67,1.68,4.199,3.12,4.199,5.88,0,3.75-2.789,5.91-6.809,5.91-3.69,0-6.18-2.16-7.17-4.11Z"/><path class="cls-1" d="m23.52,18.449c1.68,0,2.73-.63,3.51-1.32l1.77,1.89c-1.35,1.17-2.969,1.89-5.31,1.89-4.05,0-6.72-2.61-6.72-6.33,0-4.02,3.18-6.81,6.96-6.81,4.26,0,6.51,3.21,5.97,7.56h-9.899c.18,1.77,1.47,3.12,3.72,3.12Zm3.33-5.16c-.03-1.77-1.11-3.12-3.21-3.12-1.979,0-3.33,1.2-3.75,3.12h6.96Z"/><path class="cls-1" d="m32.25,14.549c0-3.93,2.939-6.78,6.869-6.78,2.4,0,4.05,1.02,5.04,2.4l-2.16,1.71c-.63-.93-1.62-1.5-2.909-1.5-2.281,0-3.78,1.77-3.78,4.17,0,2.19,1.229,3.78,3.329,3.78,1.53,0,2.371-.66,2.881-1.11l1.74,1.95c-.99.96-2.461,1.74-4.621,1.74-3.719,0-6.389-2.61-6.389-6.36Z"/><path class="cls-1" d="m46.289,15.179l1.26-7.14h2.971l-1.23,6.99c-.359,2.04.42,3.24,2.22,3.24,1.92,0,3.03-1.08,3.45-3.27l1.229-6.96h2.97l-1.649,9.45c-.12.6.03.87.54.87h1.02l-.39,2.28h-1.44c-2.31,0-2.76-.93-2.729-2.01v-.21c-1.08,1.65-2.399,2.49-4.319,2.49-2.76,0-4.5-2.22-3.9-5.73Z"/><path class="cls-1" d="m63.09,8.04h2.969l-.569,2.58c1.11-2.04,2.399-2.82,3.899-2.82.811,0,1.29.18,1.77.45l-1.139,2.7c-.42-.27-.871-.36-1.44-.36-1.89,0-3.181,1.11-3.69,3.96l-1.049,6.09h-2.971l2.221-12.6Z"/><path class="cls-1" d="m72.209,17.429l1.619-9.39h3l-1.68,9.45c-.09.6.061.87.57.87h1.05l-.39,2.28h-1.471c-2.34,0-3.149-.78-2.699-3.21Zm2.04-14.279c0-1.14.899-1.92,1.92-1.92,1.05,0,1.979.78,1.979,1.92,0,1.17-.9,1.95-1.949,1.95-1.021,0-1.95-.78-1.95-1.95Z"/><path class="cls-1" d="m80.549,16.319l1.02-5.79h-1.859l.42-2.49h1.891l.779-4.47h2.939l-.779,4.47h3.24l-.451,2.49h-3.209l-1.051,5.91c-.27,1.44.15,1.92.961,1.92.72,0,1.199-.3,1.56-.57l1.05,2.07c-.66.54-1.5,1.05-3.119,1.05-2.19,0-3.99-1.14-3.391-4.59Z"/><path class="cls-1" d="m93.328,19.319l-3.33-11.28h3.15l1.68,6.27c.24.93.36,2.37.391,2.52.029-.15.479-1.53.99-2.459l3.6-6.33h3.149l-10.95,18.959h-3.148l4.469-7.68Z"/></g></svg>