<?xml version="1.0" encoding="UTF-8"?><svg id="_レイヤー_2" xmlns="http://www.w3.org/2000/svg" viewBox="0 0 132.298 21.929"><defs><style>.cls-1{fill:#14509f;stroke-width:0px;}</style></defs><g id="_メニュー"><path class="cls-1" d="m3.601,1.26h3.09l-3.601,20.399H0L3.601,1.26Z"/><path class="cls-1" d="m15.6,3.96h-5.97l.48-2.7h14.969l-.48,2.7h-5.939l-3.119,17.699h-3.09L15.6,3.96Z"/><path class="cls-1" d="m30.239,17.819l2.43-1.62c.9,1.5,2.371,3,4.74,3,2.311,0,3.66-1.23,3.66-3.03,0-1.41-.84-2.1-2.73-3.33l-1.199-.78c-2.461-1.59-3.721-3.18-3.721-5.7,0-3.09,2.311-5.34,6-5.34,2.58,0,4.41,1.32,5.609,3.15l-2.309,1.8c-.811-1.26-1.83-2.28-3.42-2.28-1.711,0-2.82,1.05-2.82,2.55,0,1.29.66,2.07,2.34,3.12l1.199.78c2.67,1.68,4.2,3.12,4.2,5.88,0,3.75-2.79,5.91-6.81,5.91-3.689,0-6.18-2.16-7.17-4.11Z"/><path class="cls-1" d="m46.979,15.6c0-3.99,3.061-6.81,6.9-6.81,3.629,0,6.449,2.7,6.449,6.36,0,3.99-3.03,6.78-6.9,6.78-3.629,0-6.449-2.73-6.449-6.33Zm10.289-.48c0-2.22-1.35-3.75-3.479-3.75-2.25,0-3.749,1.8-3.749,4.29,0,2.19,1.379,3.72,3.479,3.72,2.281,0,3.75-1.8,3.75-4.26Z"/><path class="cls-1" d="m63.089,18.449l3.24-18.449h2.971l-3.271,18.509c-.09.6.03.87.569.87h1.23l-.39,2.28h-1.649c-2.341,0-3.15-.78-2.701-3.21Z"/><path class="cls-1" d="m70.528,16.199l1.26-7.14h2.971l-1.23,6.99c-.359,2.04.42,3.24,2.221,3.24,1.92,0,3.029-1.08,3.449-3.27l1.23-6.96h2.97l-1.649,9.45c-.121.6.029.87.539.87h1.02l-.389,2.28h-1.44c-2.31,0-2.761-.93-2.729-2.01v-.21c-1.08,1.65-2.4,2.49-4.32,2.49-2.76,0-4.5-2.22-3.9-5.73Z"/><path class="cls-1" d="m86.819,17.339l1.02-5.79h-1.859l.42-2.49h1.89l.78-4.47h2.939l-.779,4.47h3.239l-.45,2.49h-3.209l-1.051,5.91c-.27,1.44.15,1.92.96,1.92.72,0,1.2-.3,1.56-.57l1.051,2.07c-.66.54-1.5,1.05-3.12,1.05-2.19,0-3.989-1.14-3.39-4.59Z"/><path class="cls-1" d="m96.179,18.449l1.619-9.39h3l-1.68,9.45c-.09.6.061.87.57.87h1.05l-.39,2.28h-1.471c-2.34,0-3.149-.78-2.699-3.21Zm2.04-14.279c0-1.14.899-1.92,1.92-1.92,1.05,0,1.979.78,1.979,1.92,0,1.17-.9,1.95-1.949,1.95-1.021,0-1.95-.78-1.95-1.95Z"/><path class="cls-1" d="m103.259,15.6c0-3.99,3.061-6.81,6.9-6.81,3.629,0,6.449,2.7,6.449,6.36,0,3.99-3.03,6.78-6.9,6.78-3.629,0-6.449-2.73-6.449-6.33Zm10.289-.48c0-2.22-1.35-3.75-3.479-3.75-2.25,0-3.749,1.8-3.749,4.29,0,2.19,1.379,3.72,3.479,3.72,2.281,0,3.75-1.8,3.75-4.26Z"/><path class="cls-1" d="m120.778,9.06h2.971l-.51,2.4c.959-1.65,2.369-2.67,4.289-2.67,2.76,0,4.5,2.25,3.87,5.76l-.69,3.96c-.09.6.061.87.57.87h1.02l-.39,2.28h-1.44c-2.34,0-3.149-.78-2.699-3.21l.63-3.75c.36-2.07-.42-3.24-2.19-3.24-1.92,0-3.06,1.05-3.449,3.24l-1.23,6.96h-2.97l2.22-12.6Z"/></g></svg>