<?xml version="1.0" encoding="UTF-8"?><svg id="_レイヤー_2" xmlns="http://www.w3.org/2000/svg" xmlns:xlink="http://www.w3.org/1999/xlink" viewBox="0 0 450 450"><defs><style>.cls-1{fill:url(#_新規グラデーションスウォッチ_5);opacity:0;}.cls-1,.cls-2,.cls-3{stroke-width:0px;}.cls-2{fill:#14509f;}.cls-3{fill:#05427f;}</style><linearGradient id="_新規グラデーションスウォッチ_5" x1="373.65791" y1="76.34209" x2="55.45986" y2="394.54014" gradientUnits="userSpaceOnUse"><stop offset="0" stop-color="#5aedff"/><stop offset=".3908" stop-color="#64aee5"/><stop offset="1" stop-color="#64aee5"/></linearGradient></defs><g id="_レイヤー_1-2"><circle class="cls-1" cx="225" cy="225" r="225"/><path class="cls-2" d="m335.28279,362.85053l70.29855,1.13711s-9.9729-25.18331-16.74709-40.92367c-6.77345-15.74111,18.79675-59.49967,27.16988-31.83985,8.37471,27.65903,20.00348,74.37593,20.47337,88.0855.47068,13.71032-25.43328,13.7849-53.08385,8.30395-26.23084-5.19948-47.33871-9.83291-47.33871-9.83291l-.77216-14.93012Z"/><path class="cls-3" d="m416.00384,291.22402c-.30176-.99634-.62793-1.89038-.97217-2.70605,8.0249,28.27271,18.81405,73.01518,16.59232,85.57262-2.15948,12.2056-24.56595,13.64711-52.21683,8.16615-19.63574-3.89209-36.39844-7.4668-43.5874-9.01807l.23486,4.54199s21.10791,4.6333,47.33887,9.83252c27.65039,5.48096,53.55469,5.40674,53.08398-8.30371-.46973-13.70947-12.09912-60.42627-20.47363-88.08545Z"/></g></svg>