<?xml version="1.0" encoding="UTF-8"?><svg id="_レイヤー_2" xmlns="http://www.w3.org/2000/svg" viewBox="0 0 195.2566 85.81934"><defs><style>.cls-1{fill:#fff;stroke-width:0px;}</style></defs><g id="_レイヤー_1-2"><path class="cls-1" d="m22.38232,67.40723h-9.24072l-3.08057,17.78223H2.85034l8.40088-47.60547h13.9314c9.31104,0,15.75171,4.76074,15.82178,13.86133,0,7.77148-4.69043,13.02148-11.55127,15.05176l8.68091,18.69238h-7.70068l-8.05103-17.78223Zm.21021-6.02051c7.07056,0,10.99097-3.43066,10.99097-9.66113,0-5.04004-3.36035-7.91113-9.10083-7.91113h-7.14087l-3.08008,17.57227h8.33081Z"/><path class="cls-1" d="m61.65186,80.07812c3.92041,0,6.37061-1.46973,8.19092-3.08008l4.13037,4.41113c-3.15039,2.72949-6.93066,4.41016-12.39111,4.41016-9.45117,0-15.68164-6.09082-15.68164-14.77148,0-9.38086,7.42065-15.8916,16.2417-15.8916,9.94092,0,15.19141,7.49023,13.9314,17.6416h-23.10254c.42017,4.13086,3.43042,7.28027,8.68091,7.28027Zm7.771-12.04102c-.07007-4.12988-2.59033-7.28027-7.49097-7.28027-4.62036,0-7.77075,2.7998-8.75073,7.28027h16.2417Z"/><path class="cls-1" d="m79.8501,79.51855l4.97046-3.36035c1.68018,2.52051,3.85034,4.13086,7.49072,4.13086,3.43042,0,4.7605-1.26074,4.7605-3.15039,0-1.89062-1.54004-2.4502-5.95068-4.55078-4.0603-2.03027-7.00073-4.34082-7.00073-8.82129,0-5.60059,4.55054-8.61035,10.22119-8.61035,4.69043,0,7.84082,1.95996,9.94092,4.62012l-4.62036,3.78027c-1.19019-1.60938-2.6604-3.00977-5.39062-3.00977-2.17017,0-3.71045.97949-3.71045,2.73047,0,1.67969,1.47021,2.58984,4.83057,4.12988,4.62061,2.10059,8.33081,4.2002,8.33081,9.10059,0,5.60156-3.85034,9.31152-11.4812,9.31152-6.02051,0-10.22095-2.73047-12.39111-6.30078Z"/><path class="cls-1" d="m110.36987,71.67773c0-10.15137,6.51074-16.52148,14.21167-16.52148,4.62036,0,8.54077,2.4502,10.22095,7l.91016-6.37012h6.93066l-3.85034,22.05176c-.20996,1.40039.13989,2.03125,1.33008,2.03125h2.38037l-.91016,5.32031h-3.36035c-5.46069,0-6.37061-1.89062-6.37061-4.62109v-.62988c-2.38037,3.78027-5.3208,5.88086-9.66113,5.88086-6.7207,0-11.8313-5.53027-11.8313-14.1416Zm22.89233-1.89062c0-5.04004-2.66016-8.54004-7.21069-8.54004-5.18042,0-8.47095,4.2002-8.47095,10.29102,0,4.96973,2.6604,8.26074,7.0708,8.26074,4.9707,0,8.61084-4.20117,8.61084-10.01172Z"/><path class="cls-1" d="m148.44995,77.69824l7.56079-43.05469h6.93066l-7.63086,43.19434c-.20996,1.40039.07007,2.03125,1.33008,2.03125h2.87036l-.90991,5.32031h-3.85059c-5.46045,0-7.35059-1.82031-6.30054-7.49121Z"/><path class="cls-1" d="m180.65039,80.07812c3.92041,0,6.37061-1.46973,8.19092-3.08008l4.13037,4.41113c-3.15039,2.72949-6.93066,4.41016-12.39111,4.41016-9.45117,0-15.68164-6.09082-15.68164-14.77148,0-9.38086,7.42065-15.8916,16.2417-15.8916,9.94092,0,15.19141,7.49023,13.9314,17.6416h-23.10254c.42017,4.13086,3.43042,7.28027,8.68091,7.28027Zm7.771-12.04102c-.07007-4.12988-2.59033-7.28027-7.49097-7.28027-4.62036,0-7.77075,2.7998-8.75073,7.28027h16.2417Z"/><path class="cls-1" d="m0,11.20215l1.62036-1.08008c.60034,1,1.58032,2.00098,3.16089,2.00098,1.54028,0,2.44043-.82031,2.44043-2.02051,0-.94043-.56006-1.40039-1.82031-2.2207l-.80029-.52051c-1.64038-1.05957-2.48047-2.12012-2.48047-3.80078C2.12061,1.5,3.66089,0,6.12134,0c1.72046,0,2.94067.87988,3.74097,2.10059l-1.54053,1.2002c-.54004-.83984-1.22021-1.52051-2.28027-1.52051-1.14038,0-1.88037.7002-1.88037,1.7002,0,.86035.43994,1.38086,1.5603,2.08105l.80005.51953c1.78052,1.12012,2.80054,2.08105,2.80054,3.9209,0,2.50098-1.86035,3.94141-4.54077,3.94141-2.46069,0-4.12109-1.44043-4.78125-2.74121Z"/><path class="cls-1" d="m14.60059.16016h8.46167l-.32007,1.80078h-6.40137l-.71997,4.08008h5.66113l-.32007,1.78027h-5.66113l-.74023,4.1416h6.70142l-.34009,1.7998h-8.72192L14.60059.16016Z"/><path class="cls-1" d="m30.20117,8.68164h-2.64062l-.88013,5.08105h-2.06055L27.02051.16016h3.98071c2.66064,0,4.50098,1.36035,4.521,3.96094,0,2.2207-1.34033,3.7207-3.30054,4.30078l2.48047,5.34082h-2.20044l-2.30054-5.08105Zm.06006-1.7207c2.02026,0,3.14062-.97949,3.14062-2.75977,0-1.44043-.96021-2.26074-2.60059-2.26074h-2.04053l-.88013,5.02051h2.38062Z"/><path class="cls-1" d="m39.30005.16016h2.10034l1.7605,7.1416c.23999,1,.44019,2.60059.46021,2.68066.02002-.08008.64014-1.60059,1.22021-2.58105L48.94214.16016h2.14038l-7.94165,13.74316h-.26001L39.30005.16016Z"/><path class="cls-1" d="m54.30029.16016h2.0603l-2.40039,13.60254h-2.06055L54.30029.16016Z"/><path class="cls-1" d="m58.73975,7.30176c0-4.2207,3.30054-7.30176,7.24146-7.30176,2.48047,0,4.16089.94043,5.32104,2.7207l-1.66016,1.12012c-.76025-1.18066-1.90039-2.00098-3.72095-2.00098-2.90063,0-5.021,2.40137-5.021,5.46191,0,2.80078,1.86035,4.80078,4.38086,4.80078,1.88037,0,3.04077-.82031,3.90088-1.84082l1.52026,1.24023c-1.34033,1.64062-2.98047,2.44141-5.4812,2.44141-3.74072,0-6.4812-2.86133-6.4812-6.6416Z"/><path class="cls-1" d="m75.81982.16016h8.46167l-.32007,1.80078h-6.40137l-.71997,4.08008h5.66113l-.32007,1.78027h-5.66113l-.74023,4.1416h6.70142l-.34009,1.7998h-8.72192L75.81982.16016Z"/></g></svg>