<?xml version="1.0" encoding="UTF-8"?><svg id="_レイヤー_2" xmlns="http://www.w3.org/2000/svg" viewBox="0 0 472.1559 111.0791"><defs><style>.cls-1{fill:#fff;}</style></defs><g id="_レイヤー_1-2"><path class="cls-1" d="m13.49995,45.10498h8.65195l-4.53598,25.53613h26.96387l4.53601-25.53613h8.65195l-10.07996,57.12012h-8.65195l4.19995-23.93994h-26.96387l-4.19998,23.93994H3.42l10.07996-57.12012Z"/><path class="cls-1" d="m84.47899,80.88916h-11.08795l-3.69598,21.33594h-8.65195l10.07996-57.12012h16.71591c11.17197,0,18.89993,5.7124,18.98392,16.63232,0,9.32373-5.62799,15.62354-13.85992,18.06006l10.41595,22.42773h-9.23999l-9.65994-21.33594Zm.25198-7.22363c8.48398,0,13.18796-4.11621,13.18796-11.59229,0-6.04785-4.03198-9.4917-10.91995-9.4917h-8.56796l-3.69598,21.08398h9.99594Z"/><path class="cls-1" d="m0,13.44092l1.94417-1.2959c.72009,1.2002,1.89618,2.40039,3.79236,2.40039,1.84814,0,2.92822-.98438,2.92822-2.42432,0-1.12842-.67206-1.68018-2.18417-2.66455l-.96008-.62402c-1.96817-1.27197-2.97626-2.54395-2.97626-4.56006C2.54424,1.80029,4.39241,0,7.34465,0c2.06418,0,3.52829,1.05615,4.48837,2.52002l-1.84814,1.44043c-.64807-1.0083-1.46411-1.82422-2.73624-1.82422-1.36813,0-2.2562.83984-2.2562,2.04004,0,1.03223.52805,1.65625,1.87216,2.49609l.96008.62402c2.1362,1.34424,3.36029,2.49658,3.36029,4.70459,0,3.00049-2.23221,4.72852-5.44846,4.72852-2.95227,0-4.94446-1.72803-5.73653-3.28857Z"/><path class="cls-1" d="m17.52022.19189h10.15286l-.38403,2.16016h-7.68066l-.86407,4.89648h6.79257l-.38403,2.13623h-6.79257l-.88809,4.96826h8.04071l-.40802,2.16016h-10.4649L17.52022.19189Z"/><path class="cls-1" d="m36.24049,10.41699h-3.16827l-1.05609,6.09619h-2.47223L32.42415.19189h4.77643c3.19226,0,5.40045,1.63232,5.42447,4.75244,0,2.66455-1.60812,4.46436-3.96036,5.16064l2.97626,6.4082h-2.6402l-2.76025-6.09619Zm.07202-2.06396c2.42419,0,3.76831-1.17627,3.76831-3.3125,0-1.72852-1.1521-2.7124-3.12027-2.7124h-2.44821l-1.05609,6.0249h2.85626Z"/><path class="cls-1" d="m47.15999.19189h2.52023l2.11218,8.56885c.28802,1.2002.52805,3.12012.55203,3.21631.02402-.09619.76807-1.91992,1.46414-3.09619L58.72902.19189h2.56821l-9.52884,16.48926h-.31201L47.15999.19189Z"/><path class="cls-1" d="m65.15987.19189h2.47223l-2.88025,16.32129h-2.47223L65.15987.19189Z"/><path class="cls-1" d="m70.48756,8.76074c0-5.06445,3.96036-8.76074,8.68878-8.76074,2.97626,0,4.99243,1.12793,6.38452,3.26416l-1.99216,1.34424c-.91208-1.41602-2.28018-2.3999-4.46439-2.3999-3.48029,0-6.02454,2.87988-6.02454,6.55225,0,3.36035,2.23221,5.76025,5.25647,5.76025,2.2562,0,3.64832-.98389,4.68042-2.20801l1.82416,1.48828c-1.60815,1.96777-3.57632,2.92822-6.5766,2.92822-4.48837,0-7.77667-3.43213-7.77667-7.96875Z"/><path class="cls-1" d="m90.9836.19189h10.15286l-.38403,2.16016h-7.68066l-.86407,4.89648h6.79257l-.38403,2.13623h-6.79257l-.88809,4.96826h8.04071l-.40802,2.16016h-10.4649L90.9836.19189Z"/><path class="cls-1" d="m126.04176,74.68408h4.20251l-2.20325,12.40332h13.09741l2.20337-12.40332h4.20251l-4.89624,27.74512h-4.20251l2.04004-11.62842h-13.09741l-2.04016,11.62842h-4.20251l4.89624-27.74512Z"/><path class="cls-1" d="m150.13759,95.00342l1.71362-9.71094h4.03943l-1.67285,9.50684c-.48962,2.77441.57117,4.40674,3.01929,4.40674,2.61133,0,4.12097-1.46924,4.69226-4.44775l1.67285-9.46582h4.03943l-2.24414,12.85254c-.16321.81592.04089,1.18311.7345,1.18311h1.38721l-.5304,3.10107h-1.9585c-3.14172,0-3.75378-1.26465-3.71301-2.73389v-.28564c-1.46887,2.24414-3.26416,3.38672-5.87549,3.38672-3.75378,0-6.12024-3.01953-5.3042-7.79297Z"/><path class="cls-1" d="m173.84242,85.29248h4.03943l-.65283,2.9375c1.30566-2.08057,2.89685-3.30469,5.42664-3.30469,2.28491,0,3.91699,1.34619,4.56982,3.46777,1.55054-2.5293,3.71301-3.46777,6.0387-3.46777,3.71301,0,5.79382,3.10059,4.97791,7.83398l-.97925,5.38574c-.12244.81592.08154,1.18311.77515,1.18311h1.38733l-.5304,3.10107h-1.9585c-3.18262,0-4.2843-1.06104-3.67224-4.36572l.89758-5.1001c.48975-2.81543-.24475-4.40674-2.48889-4.40674-2.44812,0-3.75378,1.42773-4.28418,4.40674l-1.67285,9.46582h-4.03943l1.67285-9.46582c.48962-2.81543-.24475-4.40674-2.48889-4.40674-2.44812,0-3.79456,1.42773-4.32507,4.40674l-1.67285,9.46582h-4.03931l3.01929-17.13672Z"/><path class="cls-1" d="m202.78139,94.5542c0-5.91602,3.79456-9.62891,8.28271-9.62891,2.69299,0,4.97791,1.42773,5.95715,4.08008l.5304-3.71289h4.03943l-2.24414,12.85254c-.12244.81592.08167,1.18311.77527,1.18311h1.38721l-.5304,3.10107h-1.9585c-3.1825,0-3.71301-1.10156-3.71301-2.69287v-.36719c-1.38721,2.20312-3.10083,3.42725-5.63062,3.42725-3.91699,0-6.89551-3.22314-6.89551-8.24219Zm13.34229-1.10156c0-2.9375-1.55054-4.97754-4.20264-4.97754-3.01941,0-4.93701,2.44775-4.93701,5.99756,0,2.89697,1.55042,4.81494,4.12097,4.81494,2.89685,0,5.01868-2.44824,5.01868-5.83496Z"/><path class="cls-1" d="m227.77138,85.29248h4.03943l-.69373,3.26416c1.30566-2.24414,3.22339-3.63135,5.83472-3.63135,3.75378,0,6.12036,3.06006,5.26343,7.83398l-.93835,5.38574c-.12244.81592.08154,1.18311.77527,1.18311h1.38721l-.5304,3.10107h-1.9585c-3.18262,0-4.2843-1.06104-3.67224-4.36572l.85693-5.1001c.4895-2.81543-.57129-4.40674-2.97864-4.40674-2.61133,0-4.16174,1.42773-4.69226,4.40674l-1.67285,9.46582h-4.03931l3.01929-17.13672Z"/><path class="cls-1" d="m268.89711,92.06543h-5.38599l-1.79517,10.36377h-4.20264l4.89624-27.74512h8.11963c5.42664,0,9.18042,2.77441,9.22119,8.07861,0,4.52881-2.73376,7.58936-6.7323,8.77246l5.05945,10.89404h-4.48828l-4.69214-10.36377Zm.12231-3.50879c4.12109,0,6.40601-1.99951,6.40601-5.63086,0-2.9375-1.9585-4.61035-5.30432-4.61035h-4.16174l-1.79541,10.24121h4.85547Z"/><path class="cls-1" d="m291.60609,99.45068c2.28491,0,3.71289-.85693,4.7738-1.79541l2.40735,2.5708c-1.83618,1.59131-4.03943,2.57031-7.22192,2.57031-5.5083,0-9.13965-3.5498-9.13965-8.60938,0-5.46729,4.32495-9.26172,9.46606-9.26172,5.79382,0,8.854,4.36572,8.11951,10.28174h-13.4646c.24475,2.40771,1.99927,4.24365,5.05945,4.24365Zm4.52905-7.01807c-.04089-2.40723-1.50977-4.24316-4.36584-4.24316-2.69299,0-4.52905,1.63184-5.10022,4.24316h9.46606Z"/><path class="cls-1" d="m304.12709,98.06348l4.40662-25.09326h4.03943l-4.44739,25.1748c-.12244.81592.04077,1.18311.77527,1.18311h1.67285l-.53052,3.10107h-2.24402c-3.18262,0-4.2843-1.06104-3.67224-4.36572Z"/><path class="cls-1" d="m314.03285,94.5542c0-5.91602,3.79456-9.62891,8.28271-9.62891,2.69299,0,4.97791,1.42773,5.95715,4.08008l.5304-3.71289h4.03943l-2.24414,12.85254c-.12244.81592.08167,1.18311.77527,1.18311h1.38721l-.5304,3.10107h-1.9585c-3.1825,0-3.71301-1.10156-3.71301-2.69287v-.36719c-1.38721,2.20312-3.10083,3.42725-5.63062,3.42725-3.91699,0-6.89551-3.22314-6.89551-8.24219Zm13.34229-1.10156c0-2.9375-1.55054-4.97754-4.20264-4.97754-3.01941,0-4.93701,2.44775-4.93701,5.99756,0,2.89697,1.55042,4.81494,4.12097,4.81494,2.89685,0,5.01868-2.44824,5.01868-5.83496Z"/><path class="cls-1" d="m337.8069,96.55371l1.38721-7.875h-2.52966l.57117-3.38623h2.57056l1.06091-6.07959h3.99854l-1.06079,6.07959h4.40649l-.61194,3.38623h-4.36584l-1.4281,8.03809c-.36719,1.9585.20398,2.61133,1.30566,2.61133.97925,0,1.63208-.40771,2.1217-.7749l1.4281,2.81494c-.89758.73486-2.04016,1.42822-4.24341,1.42822-2.97852,0-5.42664-1.55029-4.6106-6.24268Z"/><path class="cls-1" d="m350.65419,98.06348l2.20337-12.771h4.0802l-2.28491,12.85254c-.12244.81592.08167,1.18311.77527,1.18311h1.42798l-.5304,3.10107h-1.99927c-3.1825,0-4.28418-1.06104-3.67224-4.36572Zm2.77466-19.42188c0-1.55029,1.224-2.61133,2.61133-2.61133,1.42798,0,2.69287,1.06104,2.69287,2.61133,0,1.59131-1.22412,2.65234-2.6521,2.65234-1.38733,0-2.6521-1.06104-2.6521-2.65234Z"/><path class="cls-1" d="m360.44606,94.18701c0-5.42627,4.16187-9.26172,9.38452-9.26172,4.93701,0,8.77234,3.67188,8.77234,8.6499,0,5.42676-4.12097,9.22119-9.3844,9.22119-4.93701,0-8.77246-3.71289-8.77246-8.60938Zm13.99512-.65283c0-3.01904-1.83606-5.1001-4.73303-5.1001-3.06018,0-5.10022,2.44824-5.10022,5.83496,0,2.97852,1.87683,5.05908,4.73303,5.05908,3.10095,0,5.10022-2.44775,5.10022-5.79395Z"/><path class="cls-1" d="m384.75453,85.29248h4.03943l-.69373,3.26416c1.30566-2.24414,3.22339-3.63135,5.83472-3.63135,3.75378,0,6.12036,3.06006,5.26343,7.83398l-.93835,5.38574c-.12244.81592.08154,1.18311.77527,1.18311h1.38721l-.5304,3.10107h-1.9585c-3.18262,0-4.2843-1.06104-3.67224-4.36572l.85693-5.1001c.4895-2.81543-.57129-4.40674-2.97864-4.40674-2.61133,0-4.16174,1.42773-4.69226,4.40674l-1.67285,9.46582h-4.03931l3.01929-17.13672Z"/><path class="cls-1" d="m403.35023,99.12402l2.89697-1.9585c.97925,1.46924,2.24414,2.40771,4.36584,2.40771,1.99927,0,2.77454-.73486,2.77454-1.83643s-.89771-1.42773-3.46814-2.65186c-2.36658-1.18359-4.0802-2.52979-4.0802-5.14111,0-3.26416,2.6521-5.01855,5.95703-5.01855,2.73376,0,4.56982,1.14209,5.79395,2.69287l-2.69299,2.20312c-.6936-.93848-1.55042-1.75439-3.14172-1.75439-1.26489,0-2.16248.57129-2.16248,1.59131,0,.979.85681,1.50977,2.81531,2.40723,2.69287,1.22412,4.85547,2.44824,4.85547,5.3042,0,3.26416-2.24414,5.42676-6.69153,5.42676-3.50903,0-5.95715-1.59131-7.22205-3.67236Z"/><path class="cls-1" d="m426.00673,72.97021h4.03943l-2.69299,15.38232c1.30566-2.08105,3.06018-3.42725,5.71228-3.42725,3.71301,0,6.07947,3.06006,5.26355,7.83398l-.97925,5.38574c-.12244.81592.08154,1.18311.77515,1.18311h1.38733l-.5304,3.10107h-1.75452c-3.06018,0-4.40662-1.30566-3.83545-4.48828l.85681-4.97754c.48975-2.81543-.57117-4.40674-2.97852-4.40674-2.6521,0-4.20264,1.42773-4.73303,4.40674l-1.67285,9.46582h-4.03943l5.18188-29.45898Z"/><path class="cls-1" d="m443.32191,98.06348l2.20337-12.771h4.0802l-2.28491,12.85254c-.12244.81592.08167,1.18311.77527,1.18311h1.42798l-.5304,3.10107h-1.99927c-3.1825,0-4.28418-1.06104-3.67224-4.36572Zm2.77466-19.42188c0-1.55029,1.224-2.61133,2.61133-2.61133,1.42798,0,2.69287,1.06104,2.69287,2.61133,0,1.59131-1.22412,2.65234-2.6521,2.65234-1.38733,0-2.6521-1.06104-2.6521-2.65234Z"/><path class="cls-1" d="m455.91676,85.29248h4.03943l-.65283,3.01904c1.38721-2.12158,3.3457-3.38623,5.71228-3.38623,4.12097,0,7.14026,3.26416,7.14026,8.2417,0,5.75342-3.8761,9.62939-8.36438,9.62939-2.93774,0-5.18176-1.59131-6.2019-4.12109l-2.16248,12.40381h-4.03943l4.52905-25.78662Zm12.03662,7.99707c0-2.9375-1.67297-4.81445-4.32507-4.81445-3.06006,0-5.26343,2.40723-5.26343,5.83447,0,2.89697,1.67285,4.97803,4.40662,4.97803,3.14172,0,5.18188-2.48926,5.18188-5.99805Z"/></g></svg>