<?xml version="1.0" encoding="UTF-8"?><svg id="_レイヤー_2" xmlns="http://www.w3.org/2000/svg" xmlns:xlink="http://www.w3.org/1999/xlink" viewBox="0 0 74.002 10.136"><defs><style>.cls-1,.cls-2,.cls-3,.cls-4{fill:none;}.cls-2{clip-path:url(#clippath-1);}.cls-5{fill:#14509f;}.cls-3{stroke:#fff;}.cls-4{clip-path:url(#clippath);}</style><clipPath id="clippath"><rect class="cls-1" x="0" width="74.002" height="10.136"/></clipPath><clipPath id="clippath-1"><rect class="cls-1" x="-76.463" y="-75.867" width="1400" height="402.078"/></clipPath></defs><g id="_レイヤー_1-2"><g class="cls-4"><g class="cls-2"><path class="cls-5" d="m1466.151.591c-8.34,5.192-21.645,8.553-36.635,8.553s-28.296-3.361-36.635-8.553c-8.34,5.192-21.645,8.553-36.635,8.553s-28.296-3.361-36.635-8.553c-8.34,5.192-21.645,8.553-36.635,8.553s-28.296-3.361-36.635-8.553c-8.34,5.192-21.645,8.553-36.635,8.553s-28.296-3.361-36.635-8.553c-8.34,5.192-21.645,8.553-36.635,8.553s-28.296-3.361-36.635-8.553c-8.34,5.192-21.645,8.553-36.635,8.553s-28.296-3.361-36.635-8.553c-8.34,5.192-21.645,8.553-36.635,8.553s-28.296-3.361-36.635-8.553c-8.34,5.192-21.645,8.553-36.635,8.553s-28.296-3.361-36.635-8.553c-8.34,5.192-21.645,8.553-36.635,8.553s-28.296-3.361-36.635-8.553c-8.34,5.192-21.645,8.553-36.635,8.553s-28.296-3.361-36.635-8.553c-8.34,5.192-21.645,8.553-36.635,8.553s-28.296-3.361-36.635-8.553c-8.34,5.192-21.645,8.553-36.635,8.553s-28.296-3.361-36.635-8.553c-8.34,5.192-21.645,8.553-36.635,8.553s-28.296-3.361-36.635-8.553c-8.34,5.192-21.645,8.553-36.635,8.553s-28.296-3.361-36.635-8.553c-8.34,5.192-21.645,8.553-36.635,8.553s-28.296-3.361-36.635-8.553c-8.34,5.192-21.645,8.553-36.635,8.553s-28.296-3.361-36.635-8.553c-8.34,5.192-21.645,8.553-36.635,8.553s-28.296-3.361-36.635-8.553c-8.34,5.192-21.645,8.553-36.635,8.553s-28.296-3.361-36.635-8.553c-8.34,5.192-21.645,8.553-36.635,8.553s-28.296-3.361-36.635-8.553c-8.34,5.192-21.645,8.553-36.635,8.553S9.075,5.783.735.591C-7.604,5.783-20.91,9.143-35.9,9.143s-28.296-3.361-36.635-8.553c-8.34,5.192-21.645,8.553-36.635,8.553s-28.296-3.361-36.635-8.553c-8.34,5.192-21.645,8.553-36.635,8.553s-28.296-3.361-36.635-8.553c-8.34,5.192-21.645,8.553-36.635,8.553v321.63h1758.498V9.143c-14.99,0-28.296-3.361-36.635-8.553Z"/><path class="cls-3" d="m1502.786,9.143c-14.99,0-28.296-3.361-36.635-8.553-8.34,5.192-21.645,8.553-36.635,8.553s-28.296-3.361-36.635-8.553c-8.34,5.192-21.645,8.553-36.635,8.553s-28.296-3.361-36.635-8.553c-8.34,5.192-21.645,8.553-36.635,8.553s-28.296-3.361-36.635-8.553c-8.34,5.192-21.645,8.553-36.635,8.553s-28.296-3.361-36.635-8.553c-8.34,5.192-21.645,8.553-36.635,8.553s-28.296-3.361-36.635-8.553c-8.34,5.192-21.645,8.553-36.635,8.553s-28.296-3.361-36.635-8.553c-8.34,5.192-21.645,8.553-36.635,8.553s-28.296-3.361-36.635-8.553c-8.34,5.192-21.645,8.553-36.635,8.553s-28.296-3.361-36.635-8.553c-8.34,5.192-21.645,8.553-36.635,8.553s-28.296-3.361-36.635-8.553c-8.34,5.192-21.645,8.553-36.635,8.553s-28.296-3.361-36.635-8.553c-8.34,5.192-21.645,8.553-36.635,8.553s-28.296-3.361-36.635-8.553c-8.34,5.192-21.645,8.553-36.635,8.553s-28.296-3.361-36.635-8.553c-8.34,5.192-21.645,8.553-36.635,8.553s-28.296-3.361-36.635-8.553c-8.34,5.192-21.645,8.553-36.635,8.553s-28.296-3.361-36.635-8.553c-8.34,5.192-21.645,8.553-36.635,8.553s-28.296-3.361-36.635-8.553c-8.34,5.192-21.645,8.553-36.635,8.553s-28.296-3.361-36.635-8.553c-8.34,5.192-21.645,8.553-36.635,8.553s-28.296-3.361-36.635-8.553c-8.34,5.192-21.645,8.553-36.635,8.553s-28.296-3.361-36.635-8.553c-8.34,5.192-21.645,8.553-36.635,8.553s-28.296-3.361-36.635-8.553c-8.34,5.192-21.645,8.553-36.635,8.553S9.075,5.783.735.591C-7.604,5.783-20.91,9.143-35.9,9.143s-28.296-3.361-36.635-8.553c-8.34,5.192-21.645,8.553-36.635,8.553s-28.296-3.361-36.635-8.553c-8.34,5.192-21.645,8.553-36.635,8.553s-28.296-3.361-36.635-8.553c-8.34,5.192-21.645,8.553-36.635,8.553"/></g></g></g></svg>