<?xml version="1.0" encoding="UTF-8"?><svg id="_レイヤー_2" xmlns="http://www.w3.org/2000/svg" xmlns:xlink="http://www.w3.org/1999/xlink" viewBox="0 0 1213.47698 535.73193"><defs><style>.cls-1,.cls-2{fill:#fff;}.cls-3{fill:url(#_名称未設定グラデーション_13);fill-rule:evenodd;}.cls-2,.cls-4{opacity:.2;}.cls-5{opacity:.7;}</style><linearGradient id="_名称未設定グラデーション_13" x1="631.51913" y1="544.19681" x2="631.51913" y2="-96.79744" gradientTransform="translate(-24.02615 -18.57645)" gradientUnits="userSpaceOnUse"><stop offset="0" stop-color="#64aee5"/><stop offset=".80915" stop-color="#0074c2"/></linearGradient></defs><g id="_レイヤー_6"><g class="cls-5"><path class="cls-3" d="m1170.15064,388.78601v-.81909h-.89697v-56.6842h-7.91895v-3.05811h-2.48633v-1.55566h-.55273v1.55566h-4.97266v-.77051h-4.48535l-3.08984-.73181h-1.50244v.73181h-1.65234v.77051h-6.94434v-.34912h-2.21045v-3.24707h-.63477v3.24707h-5.12744v.34912h-2.31201v3.05811h-1.79346v-.42639h-1.8125v.42639h-2.00586v56.6842h-1.11523v24.07239h-3.47949v7.21167h-3.17432v-.79517h-1.21631v-1.28894h1.21631v-.99841h-1.21631v-1.28931h1.21631v-1.00305h-1.21631v-1.28918h1.21631v-.99829h-1.21631v-1.28931h1.21631v-1.00317h-1.21631v-1.28906h1.21631v-1.0033h-1.21631v-1.28442h1.21631v-1.00305h-1.21631v-1.28931h1.21631v-1.00317h-1.21631v-1.28418h1.21631v-1.00342h-1.21631v-1.28894h1.21631v-1.0033h-1.21631v-1.28442h1.21631v-1.0033h-1.21631v-1.2887h1.21631v-1.00366h-1.21631v-1.28894h1.21631v-.99841h-1.21631v-1.28906h1.21631v-1.0033h-1.21631v-1.28894h1.21631v-.99854h-1.21631v-1.28931h1.21631v-1.00293h-1.21631v-1.28931h1.21631v-1.00305h-1.21631v-1.2843h1.21631v-1.00342h-1.21631v-1.28906h1.21631v-1.00317h-1.21631v-.7124h-4.0957c-.29053-2.64307-2.52197-4.72534-5.23926-4.72534h-30.22266c-2.71729,0-4.94873,2.08228-5.23926,4.72534h-3.89551v62.53845h-12.23779v-208.159h-2.24902v-.7392h-1.56982v-.89777h-2.0166v.89777h-.67383v-2.8714h-.5376v3.6106h-1.52637v-.96332h-1.07617v-.44806h-.41699v.44806h-1.82617v-.80817h-.31104v.80817h-.91895c-.0415-.61267-.18457-1.07593-.36963-1.07593-.21338,0-.38867.62872-.38867,1.40546,0,.66968.1333,1.20374.30615,1.34412-.71582.15704-1.42773.32111-2.1333.49231v-1.80743h-.62451v1.52563h-3.72217v1.44916c-58.43457,17.11707-78.24854,84.43512-77.15576,155.65753v23.49072h-6.79492v15.1062h-6.43555v-1.66235h-2.52051v-3.79932h2.52051v-2.00659h-2.52051v-3.79956h2.52051v-2.00171h-2.52051v-3.79956h2.52051v-2.00635h-2.52051v-3.79968h2.52051v-2.00659h-2.52051v-3.79956h2.52051v-2.00635h-2.52051v-3.79993h2.52051v-2.0011h-2.52051v-3.80017h2.52051v-2.00635h-2.52051v-3.79956h2.52051v-2.00635h-2.52051v-3.79956h2.52051v-2.00659h-2.52051v-3.79932h2.52051v-2.00659h-2.52051v-3.7998h2.52051v-2.00146h-2.52051v-3.79932h2.52051v-2.00659h-2.52051v-3.7998h2.52051v-2.00635h-2.52051v-3.79956h2.52051v-2.00635h-2.52051v-3.79993h2.52051v-2.00134h-2.52051v-3.79968h2.52051v-2.00659h-2.52051v-3.79968h2.52051v-2.00623h-2.52051v-2.08411h2.52051v-11.83008h-53.90723v11.83008h2.51953v2.08411h-2.51953v2.00623h2.51953v3.79968h-2.51953v2.00659h2.51953v3.79968h-2.51953v2.00134h2.51953v3.79993h-2.51953v2.00635h2.51953v3.79956h-2.51953v2.00635h2.51953v3.7998h-2.51953v2.00659h2.51953v3.79932h-2.51953v2.00146h2.51953v3.7998h-2.51953v2.00659h2.51953v3.79932h-2.51953v2.00659h2.51953v3.79956h-2.51953v2.00635h2.51953v3.79956h-2.51953v2.00635h2.51953v3.80017h-2.51953v2.0011h2.51953v3.79993h-2.51953v2.00635h2.51953v3.79956h-2.51953v2.00659h2.51953v3.79968h-2.51953v2.00635h2.51953v1.71069h-11.77686v26.89294h-4.16309v-7.44409h-22.38574l-.30469.00305v-7.63623h-.82861v-1.65259h.82861v-3.59131h-.82861v-1.65259h.82861v-3.59131h-.82861v-1.65283h.82861v-3.59082h-.82861v-1.65259h.82861v-3.59131h-.82861v-1.65259h.82861v-3.59119h-.82861v-1.65295h.82861v-3.58618h-.82861v-1.65259h.82861v-3.59131h-.82861v-1.65259h.82861v-3.59119h-.82861v-1.65295h.82861v-3.59106h-.82861v-1.65259h.82861v-3.59106h-.82861v-1.65283h.82861v-3.59131h-.82861v-1.92407c.4751-.32935.78955-.88196.78955-1.50708v-9.85791h-26.95605l-15.91553-9.86243h-34.92383c-1.0083,0-1.83154.82397-1.83154,1.83191v17.88843c0,.62512.31445,1.17773.78955,1.50708v1.92407h-.8291v3.59131h.8291v1.65283h-.8291v3.59106h.8291v1.65259h-.8291v3.59106h.8291v1.65295h-.8291v3.59119h.8291v1.65259h-.8291v3.59131h.8291v1.65259h-.8291v3.58618h.8291v1.65295h-.8291v3.59119h.8291v1.65259h-.8291v3.59131h.8291v1.65259h-.8291v3.59082h.8291v1.65283h-.8291v3.59131h.8291v1.65259h-.8291v3.59131h.8291v1.65259h-.8291v3.04858h-9.31934v-1.26978h.8335v-3.59131h-.8335v-1.65259h.8335v-3.59119h-.8335v-1.65295h.8335v-3.59106h-.8335v-1.65259h.8335v-3.59106h-.8335v-1.64795h.8335v-3.59119h-.8335v-1.65259h.8335v-3.59119h-.8335v-1.65283h.8335v-3.59106h-.8335v-1.65259h.8335v-3.59155h-.8335v-1.65247h.8335v-3.59143h-.8335v-1.65259h.8335v-3.59082h-.8335v-1.6532h.8335v-3.59094h-.8335v-1.65247h.8335v-3.58655h-.8335v-1.65283h.8335v-3.59106h-.8335v-1.65234h.8335v-3.5918h-.8335v-1.65222h.8335v-3.59143h-.8335v-1.65259h.8335v-3.59106h-.8335v-1.65295h.8335v-3.59119h-.8335v-1.65259h.8335v-3.59106h-.8335v-1.92407c.47949-.32959.79443-.88208.79443-1.50732v-8.44739h-.05322c-.18896-.8092-.91553-1.4104-1.77881-1.4104h-25.91846l-15.91553-9.85779h-25.28906c-1.00879,0-1.83203.81909-1.83203,1.82739v17.88818c0,.62524.31494,1.17773.79492,1.50732v1.92407h-.8335v3.59106h.8335v1.65259h-.8335v3.59119h.8335v1.65295h-.8335v3.59106h.8335v1.65259h-.8335v3.59143h.8335v1.65222h-.8335v3.5918h.8335v1.65234h-.8335v3.59106h.8335v1.65283h-.8335v3.58655h.8335v1.65247h-.8335v3.59094h.8335v1.6532h-.8335v3.59082h.8335v1.65259h-.8335v3.59143h.8335v1.65247h-.8335v3.59155h.8335v.23242h-8.60742v-3.05811h-.83398v-1.65259h.83398v-3.59143h-.83398v-1.65259h.83398v-3.59119h-.83398v-1.65283h.83398v-3.59106h-.83398v-1.65234h.83398v-3.59143h-.83398v-1.65259h.83398v-3.59119h-.83398v-1.65283h.83398v-3.58618h-.83398v-1.65747h.83398v-3.58655h-.83398v-1.65259h.83398v-3.59143h-.83398v-1.65259h.83398v-3.59131h-.83398v-1.65259h.83398v-3.59094h-.83398v-1.6532h.83398v-3.59082h-.83398v-1.65259h.83398v-3.59131h-.83398v-1.65234h.83398v-3.5918h-.83398v-1.65222h.83398v-3.59143h-.83398v-1.64771h.83398v-3.59131h-.83398v-1.65259h.83398v-3.59131h-.83398v-1.65283h.83398v-3.59106h-.83398v-1.65259h.83398v-3.59106h-.83398v-1.92419c.48047-.32959.79492-.8833.79492-1.50732v-8.45081h-.05371c-.18799-.80579-.91504-1.40796-1.77832-1.40796h-25.91895l-15.91553-9.86035h-20.00635c-1.00293,0-1.82666.82397-1.82666,1.83081v17.88831c0,.62402.31494,1.17566.78955,1.50732v1.92419h-.82861v3.59106h.82861v1.65259h-.82861v3.59106h.82861v1.65283h-.82861v3.59131h.82861v1.65259h-.82861v3.59131h.82861v1.64771h-.82861v3.59143h.82861v1.65222h-.82861v3.5918h.82861v1.65234h-.82861v3.59131h.82861v1.65259h-.82861v3.59082h.82861v1.6532h-.82861v3.59094h.82861v1.65259h-.82861v3.59131h.82861v1.65259h-.82861v3.59143h.82861v1.65259h-.82861v3.58655h.82861v1.65747h-.82861v3.58618h.82861v1.65283h-.82861v3.59119h.82861v1.65259h-.82861v3.59143h.82861v1.65234h-.82861v3.59106h.82861v1.65283h-.82861v3.59119h.82861v1.65259h-.82861v3.59143h.82861v1.65259h-.82861v3.59106h.82861v1.65283h-.82861v3.59119h.82861v1.64771h-.82861v3.59143h.82861v1.19238h-8.53955v-81.26099h-1.00781v-25.92859h-2.44775v-5.33215h-9.17871v-1.28308h-9.26221v-48.43451h-6.66357v-1.49866h-18.25684v1.49866h-2.08887v-.77155h-7.17725v-3.90521l-41.32617.00983v4.66693h-3.44971v9.19629c-.1333-.11444-.26611-.2298-.42188-.31989-1.68652-.97418-4.03711-.05798-5.25391,2.04645-1.09814,1.89764-.88281,4.10358.40674,5.23566l-.271.46777c-2.42139-1.38208-4.91162-2.65363-7.46777-3.81122l.21436-.48138c1.68506.41656,3.62744-.70551,4.52979-2.73016.98877-2.21985.34424-4.66144-1.43408-5.45355-1.77881-.79242-4.02295.36359-5.01172,2.58295-.8916,2.00226-.44971,4.17102.95068,5.16266l-.21533.48285c-2.5498-1.11908-5.16211-2.11884-7.82861-3.00214l.16064-.49512c1.72021.23932,3.53809-1.08044,4.22363-3.18884.74561-2.30945-.146-4.67065-1.99756-5.27295-1.85547-.60223-3.96387.78271-4.71484,3.09332-.67773,2.08533-.01074,4.19739,1.48779,5.03552l-.15918.48981c-2.6499-.84314-5.35498-1.55872-8.10449-2.15735l.10693-.50763c1.73584.0578,3.40283-1.4447,3.86279-3.61169.50391-2.37726-.63037-4.6308-2.53516-5.0368-1.9043-.40558-3.8623,1.19232-4.36816,3.56952-.45361,2.1427.43018,4.17157,2.00635,4.85095l-.10596.49725c-2.71826-.55811-5.48535-.98041-8.28711-1.2879l.05469-.51923c1.7334-.12408,3.23389-1.79132,3.46533-3.99658.25391-2.41589-1.11182-4.53864-3.04883-4.74341-1.9375-.20233-3.71387,1.59076-3.96826,4.00787-.22803,2.17914.86475,4.10626,2.50244,4.61475l-.05518.51947c-2.75732-.27008-5.55176-.41187-8.37646-.42804v-.52332c1.71094-.30493,3.02881-2.11969,3.02881-4.33551,0-2.4292-1.5791-4.39801-3.52832-4.39801-1.94727,0-3.52686,1.96881-3.52686,4.39801,0,2.19165,1.28955,3.9939,2.9707,4.32831v.53052c-2.8252.01617-5.61914.15796-8.37695.42816l-.05273-.50629c1.66748-.48096,2.79004-2.42419,2.55859-4.62805-.25439-2.41711-2.03174-4.21021-3.96875-4.00787-1.93848.20477-3.30273,2.32751-3.04932,4.74451.229,2.17938,1.69922,3.83685,3.40723,3.99426l.05469.52045c-2.80225.30792-5.57031.73035-8.28955,1.28876l-.10156-.47864c1.60938-.65363,2.52197-2.70325,2.06104-4.87042-.50391-2.3772-2.46045-3.974-4.36621-3.56952-1.90527.40479-3.04053,2.65851-2.53516,5.0368.45459,2.1424,2.09131,3.63739,3.80518,3.61536l.10791.50397c-2.75098.59894-5.45654,1.31488-8.10693,2.1582l-.15186-.46698c1.53076-.81744,2.22559-2.95166,1.53955-5.06042-.75098-2.30939-2.8623-3.69312-4.71289-3.0921-1.85547.60095-2.74805,2.9624-1.99707,5.27295.67822,2.08405,2.45996,3.39984,4.16309,3.19879l.1582.48651c-2.66797.88385-5.28125,1.88446-7.83203,3.00391l-.20264-.45508c1.43701-.97351,1.90283-3.16748,1.00342-5.19464-.98926-2.21826-3.23291-3.37427-5.01367-2.58185-1.77979.79211-2.4209,3.2337-1.43359,5.45355.8916,2.0014,2.80127,3.12311,4.47461,2.74634l.20801.46735c-2.55615,1.15826-5.04834,2.43042-7.47021,3.81335l-.25391-.43896c1.32764-1.11926,1.56055-3.3504.45361-5.26996-1.21387-2.10321-3.56836-3.01941-5.25488-2.04523-1.68652.97308-2.06934,3.47003-.85498,5.57489,1.0957,1.89716,3.1123,2.8139,4.73682,2.26288l.25586.44348c-2.41748,1.41809-4.76074,2.94604-7.02832,4.57629l-.30176-.41479c1.20361-1.25159,1.20459-3.49524-.09814-5.28687-1.42773-1.96643-3.86426-2.63177-5.43896-1.48657-1.57617,1.14624-1.69873,3.6676-.26904,5.63269,1.28711,1.77271,3.38818,2.47351,4.94727,1.75598l.29834.41235c-2.25342,1.66113-4.42432,3.42676-6.51172,5.28589l-.34033-.37744c1.06641-1.37134.83154-3.60205-.65088-5.24829-1.625-1.80542-4.1167-2.21265-5.56592-.90894-1.4458,1.30518-1.3042,3.82397.32324,5.63013,1.46484,1.62769,3.62842,2.10571,5.10254,1.22974l.33594.3728c-2.06787,1.88477-4.04688,3.86438-5.93164,5.93225l-.36621-.32947c.91797-1.47437.45166-3.66931-1.1958-5.15234-1.80469-1.62476-4.3252-1.76807-5.63037-.32104-1.30322,1.44751-.896,3.93994.90869,5.56592,1.62939,1.46533,3.83057,1.71362,5.20508.68774l.38184.34399c-1.85889,2.08801-3.62451,4.25928-5.28516,6.51404l-.40088-.29089c.75879-1.56177.06396-3.69678-1.729-4.99902-1.96533-1.42847-4.48535-1.30713-5.63232.26904-1.14404,1.5752-.479,4.01147,1.48633,5.44019,1.77197,1.28711,3.98633,1.30444,5.24756.14062l.41553.30212c-1.62988,2.26782-3.15771,4.61194-4.5752,7.0304l-.42773-.24707c.59033-1.6333-.32227-3.68286-2.24121-4.79175-2.10498-1.21521-4.60107-.8302-5.57471.85522-.09229.16016-.15186.33069-.21094.50098l-2.64502-58.78564h-1.14502v-59.26855h-1.97949V56.28008h1.14844v-1.8429h-15.59375l-16.65967,2.62238v-1.51727l-3.63086-1.65271v-5.35297l-9.71826-4.42352h-2.87012l-9.71875,4.42352v5.35248l-3.63232,1.6532v1.51709l-16.65869-2.62219h-2.97559v-2.80597l-2.36621-.92212h-6.52979v1.46722h.48438v2.26086h-4.20703v1.8429h1.1499v110.70648h-1.98047v59.26855h-1.14502l-3.23389,69.48218-.0293-.02161-3.32129-1.05713-.03369.03088.91699-9.84106-1.70703-1.92627-3.86377-1.15186h-4.22119l-4.20801,1.11646-1.82471,1.96167.91602,9.84082-.0332-.03064-3.32031,1.05713-2.43848,1.79944-1.17383,1.53833.36377,2.146h.2373l1.60449,9.41821-.22217.29089.36426,2.14685.5835,1.20239,1.70264,1.20325,2.42334.97424.61182,1.63135c.0415,1.98145.08643,3.96338.1123,5.94116v1.59863h.02002c.03369,3.03076.05176,6.05762.05029,9.08069h-.07031v1.99854h.0625c-.04834,17.4386-.65576,34.755-1.68799,51.97864h-58.2959l-20.43945,7.41443c-1.26709-.29688-2.52734-.62146-3.78223-.96619-4.41504-4.2511-7.12305-9.63306-7.38086-16.63989-4.34277,1.8562-9.62598,2.21973-15.07959,2.31177h-41.56982c-5.45312-.09204-10.73682-.45557-15.0791-2.31177-.25781,7.00684-2.96533,12.38904-7.38086,16.63989-8.0791,2.21802-16.34668,3.63245-25.36084,1.86401l.5,1.53931c-3.06885.07397-6.20654-.14282-9.44287-.77856l.54346,1.67383c-.9751-.12036-1.95703-.26831-2.94971-.46204,1.22559,1.69824,2.69971,3.27405,4.34229,4.7655l-1.08057.25562.29639.48462.55029-.04382.06104.46997s.6123-.19238,1.14014-.3031c4.42383,3.77319,9.96436,6.98413,15.59814,10.11377v121.04028h1105.8999v-146.94592h-.74609ZM411.44995,253.21484c-.94287.54272-2.14404.22284-2.68604-.7124-.54199-.93799-.21582-2.13965.72559-2.68268.94189-.54401,2.14453-.22534,2.68506.7124.54248.93909.2168,2.13855-.72461,2.68268Zm-8.21631,5.33691c-.87939.63879-2.10938.44604-2.74561-.42993-.63574-.87598-.43848-2.10352.44189-2.74316.87744-.63843,2.10645-.44824,2.74463.43018.63623.87598.43945,2.10315-.44092,2.74292Zm-7.61279,6.16479c-.80908.72827-2.05225.66541-2.77539-.13916-.72559-.80469-.65674-2.04761.15039-2.77466.80908-.72852,2.05176-.66528,2.77539.1394.72461.80444.65674,2.04639-.15039,2.77441Zm-6.9292,6.92676c-.72803.80823-1.96924.87744-2.77441.15271-.80615-.72546-.86768-1.96631-.13916-2.77588.72803-.80798,1.97021-.87585,2.77344-.15112.80713.72339.86865,1.96716.14014,2.77429Zm-6.16553,7.61401c-.63818.87964-1.86816,1.07593-2.74316.4397-.87598-.63623-1.06836-1.8645-.42871-2.74438.63965-.87939,1.8667-1.07703,2.74414-.44104.87549.63611,1.06738,1.86584.42773,2.74573Zm-128.98145,61.05139l.93164,5.45789h-.97314c.0249-1.81665.0293-3.63843.0415-5.45789Zm-.0166-14.70227h.97705l-.94727,5.4563c-.00781-1.81812-.00977-3.63501-.02979-5.4563Zm.66455,11.07922h1.00391c-.00488,1.88171-.02295,3.76062-.04102,5.63965l-.96289-5.63965Zm.82764,14.55847c-.0376,1.86816-.0708,3.73706-.12109,5.60278h-1.00098l1.12207-5.60278Zm-.18359,7.60229c-.05469,1.89355-.11133,3.78687-.17773,5.67798l-.82227-5.67798h1Zm-.90723,22.15771c-.09961,1.90515-.19287,3.81201-.3042,5.71484l-.69434-5.71484h.99854Zm-.88428-1.99792l1.25537-5.60266c-.0835,1.86865-.1709,3.73633-.26514,5.60266h-.99023Zm8.14502,0c-.09424-1.86877-.18213-3.73889-.26562-5.60986l1.2583,5.60986h-.99268Zm1.10547,1.99792l-.6958,5.72021c-.10986-1.90479-.20361-3.81323-.30371-5.72021h.99951Zm-1.96973-24.15723c-.04932-1.8667-.0835-3.73682-.12061-5.6062l1.12207,5.6062h-1.00146Zm1.06348,1.99951l-.82275,5.68335c-.06641-1.89294-.12354-3.78809-.17773-5.68335h1.00049Zm.27832-27.78638l-.94727-5.45361h.97705c-.02002,1.82031-.02246,3.63647-.02979,5.45361Zm.05469,14.70654h-.97266l.93115-5.45605c.01318,1.81885.0166,3.64014.0415,5.45605Zm-1.65234-3.43677c-.01807-1.88049-.03613-3.76099-.04102-5.64417h1.00439l-.96338,5.64417Zm3.83545-24.26025l.61328-1.63477,2.42188-.97375.13867-.09802-2.57227,55.27002c-.46875-11.2699-.74463-22.58203-.77637-33.94739h.03857v-1.99854h-.04639c-.00146-5.52551.06641-11.06628.18262-16.61755Zm-.55908,70.59473h-.72412l.48682-4.01172c.0752,1.33813.15625,2.67493.2373,4.01172Zm-.71973-13.36987l-1.2041-5.3689h.97705c.07275,1.79016.14404,3.58105.22705,5.3689Zm-.31201-7.36829h-.97949l.79004-5.45764c.05957,1.82007.11914,3.64014.18945,5.45764Zm-1.53125-20.16028h.97803c.0293,1.80627.06543,3.61084.10596,5.41455l-1.08398-5.41455Zm.94189-24.15881h-.94922l1.00049-2.70996c-.01514.90295-.03857,1.80774-.05127,2.70996Zm-1.53857-4.61646h.96338l-1.01562,2.75354c.01514-.91724.03418-1.83557.05225-2.75354Zm-.13428,10.06165l.97803,5.63489h-1.00928c-.00098-1.87585.01807-3.75598.03125-5.63489Zm-4.84814,5.63489h-1.0083l.97754-5.63025c.0127,1.87732.03174,3.75598.03076,5.63025Zm-.16504-15.69653c.01758.91711.03662,1.83447.05176,2.75085l-1.01465-2.75085h.96289Zm-.59033,4.61646h-.94873c-.01221-.90271-.03564-1.80798-.05127-2.71155l1,2.71155Zm-.98486,24.15881h.97852l-1.08398,5.41577c.04004-1.80396.07666-3.60889.10547-5.41577Zm-.36328,14.70276l.79053,5.45752h-.97998c.07031-1.8175.12988-3.63757.18945-5.45752Zm-.27393,7.45691h.97607l-1.2041,5.36951c.0835-1.78809.15479-3.5791.22803-5.36951Zm-.71045,14.72302l.4873,4.01575h-.72412c.08057-1.33813.16162-2.67603.23682-4.01575Zm29.31104-330.21136h-3.11865v-2.26086h3.11865v2.26086Zm164.87451,185.00751c-.11279-1.07703.67041-2.04144,1.75293-2.15546,1.08105-.11389,2.05029.66748,2.16211,1.74347.11475,1.07837-.67188,2.04291-1.75244,2.1568-1.08203.11267-2.05029-.66779-2.1626-1.74481Zm2.11816,6.65588l1.10156,10.47754c-2.38086.26367-4.73438.62012-7.0459,1.0929l-2.19043-10.30621c2.66846-.54773,5.38477-.96204,8.13477-1.26422Zm-9.16504,174.84375c-2.28223-.49731-4.5332-1.07617-6.74658-1.74536l3.55127-9.9436c1.77051.52246,3.56543.98413,5.38623,1.38232l-2.19092,10.30664Zm1.0498,7.20459c-.22461,1.06128-1.26953,1.73511-2.33203,1.50708-1.06445-.22266-1.74316-1.26453-1.51953-2.32605.22607-1.06128,1.27148-1.73499,2.33545-1.5072,1.0625.22766,1.74316,1.26501,1.51611,2.32617Zm-40.6665-19.18457v-6.10962c1.65967,1.41919,3.36377,2.78687,5.125,4.08423l-.29834.41016c-1.51318-.69604-3.53027-.04736-4.82666,1.61523Zm4.03613,3.77295c-.63818.87695-1.86719,1.06616-2.74658.42615-.87842-.63953-1.07568-1.8656-.43994-2.74268.63623-.87732,1.86621-1.06653,2.74463-.42664.87939.63965,1.07812,1.86584.44189,2.74316Zm-4.03613-11.85889v-.76733l6.66211-7.39893c1.77588,1.57849,3.61865,3.08118,5.5332,4.49487l-6.19238,8.52319c-2.07422-1.52881-4.07178-3.1521-6.00293-4.85181Zm49.5918-71.1687l-10.53564-4.69067c.17334-.36426.33545-.73462.52783-1.08728l10.00781,5.77795Zm-9.4585-6.68188c.21045-.34399.41699-.69043.646-1.02161l9.34668,6.79102-9.99268-5.76941Zm9.03857,7.65112l-10.979-3.5675c.13428-.38098.26221-.76465.41602-1.13562l10.56299,4.70312Zm-.32031,1.00818l-11.29688-2.40149c.09277-.39319.18652-.78638.30078-1.17114l10.99609,3.57263Zm-.22217,1.03235l-11.48096-1.20679c.05127-.40137.11035-.80054.18262-1.19458l11.29834,2.40137Zm-.08545,1.0542h-11.56494c.00928-.40576.0293-.80872.06104-1.20898l11.50391,1.20898Zm-.03955,1.05664l-11.4624,1.20471c-.03223-.39832-.0498-.80029-.06104-1.20471h11.52344Zm.14551,1.04797l-11.31006,2.40417c-.07422-.39429-.13037-.79431-.18311-1.19604l11.49316-1.20813Zm-.31299,1.14563l-10.48145,3.40576c-.1084-.36707-.19727-.74194-.28711-1.1167l10.76855-2.28906Zm.8418.83838l-10.56982,4.70605c-.15381-.37122-.28174-.75537-.4165-1.13672l10.98633-3.56934Zm.42334.96655l-10.01807,5.78394c-.19287-.35303-.35547-.72363-.52832-1.08826l10.54639-4.69568Zm.51416.92334l-9.33838,6.78491c-.229-.33081-.43506-.67676-.64502-1.021l9.9834-5.76392Zm.62256.85522l-8.57373,7.71973c-.26172-.30566-.5083-.6228-.75342-.94287l9.32715-6.77686Zm-9.32666-19.44702c.24561-.32056.49219-.63794.75488-.94385l8.58594,7.73022-9.34082-6.78638Zm.64111-2.46802l-7.43115-6.69141c.27148-.29199.54248-.5835.82422-.86499.27686-.2771.56396-.54395.85107-.81104l6.69141,7.43164c-.15869.1499-.33008.28625-.48486.4408-.15771.15784-.29639.33289-.45068.495Zm-.70996.78198c-.28857.33508-.56006.68262-.82861,1.03418l-8.0957-5.88208c.47559-.63306.97852-1.24292,1.49805-1.8385l7.42627,6.6864Zm-1.46143,1.88013c-.25146.36279-.47852.74121-.7085,1.11926l-8.6665-5.00378c.40723-.6792.8418-1.33911,1.2959-1.98511l8.0791,5.86963Zm-1.25781,2.02295c-.21094.38647-.3916.79102-.58008,1.1908l-9.13965-4.06897c.33398-.71875.69141-1.42346,1.07568-2.11279l8.64404,4.99097Zm-1.02979,2.14697c-.16895.40625-.30908.82703-.45557,1.24463l-9.51123-3.09058c.25684-.75049.5332-1.49207.84229-2.2168l9.12451,4.06274Zm-.79395,2.24719c-.12549.42151-.22803.85254-.32959,1.28381l-9.78076-2.07886c.17725-.77454.375-1.54077.60547-2.29321l9.50488,3.08826Zm-.55322,2.3158c-.08057.43176-.14502.86938-.2002,1.30933l-9.94141-1.04468c.09473-.78992.21436-1.57141.36377-2.3429l9.77783,2.07825Zm-.31006,2.36133c-.03516.43848-.05713.88013-.06689,1.32495h-9.99365c.01221-.79724.05176-1.58716.11963-2.36963l9.94092,1.04468Zm-.06396,2.38159c.01025.44336.03076.88416.06689,1.32092l-9.93945,1.04431c-.06885-.78064-.10938-1.56958-.12305-2.36523h9.99561Zm.18164,2.37183c.05713.44031.11865.87891.2002,1.31104l-9.77588,2.07764c-.15137-.77148-.27051-1.55347-.3667-2.34375l9.94238-1.04492Zm.42969,2.34131c.09766.4126.1958.82532.31592,1.22913l-9.50537,3.0885c-.22559-.73462-.41797-1.48267-.5918-2.23865l9.78125-2.07898Zm.6543,2.23047c.14648.41833.28662.83936.45557,1.24585l-9.12549,4.06323c-.30859-.72546-.58496-1.46729-.8418-2.21851l9.51172-3.09058Zm.9043,2.20154c.18945.39978.37012.80457.58105,1.19128l-8.64404,4.99121c-.38428-.68921-.7417-1.39453-1.07666-2.11328l9.13965-4.06921Zm1.13037,2.09509c.22949.37708.45703.75562.70801,1.11804l-8.0791,5.86963c-.45361-.64575-.88867-1.30505-1.29541-1.98401l8.6665-5.00366Zm1.34131,1.96509c.26807.35132.53857.69861.82617,1.03333l-7.42432,6.68481c-.51904-.59485-1.02197-1.2041-1.49707-1.83594l8.09521-5.8822Zm1.53711,1.81567c.15332.16296.29395.33911.45215.49731.1543.1543.32568.29053.48438.44043l-6.68945,7.42908c-.2876-.2677-.57568-.53528-.85254-.81311-.28174-.28137-.55273-.57251-.82422-.86426l7.42969-6.68945Zm1.71875,1.64868c.33447.28821.68115.55981,1.03271.82837l-5.88135,8.09448c-.63184-.47571-1.24121-.97876-1.83691-1.49829l6.68555-7.42456Zm-.04053-1.53552c-.14404-.1366-.30029-.26038-.44092-.40076-.14502-.14478-.27295-.30566-.41357-.45447l8.58398-7.72876-7.72949,8.58398Zm-.85205-30.52979c.14062-.14832.26709-.30823.41113-.45227.14062-.14062.29736-.26477.44141-.40161l7.71582,8.56848-8.56836-7.7146Zm-5.79346-9.81604c.59521-.51953,1.20557-1.02246,1.8374-1.49829l5.88281,8.09656c-.35107.26831-.69824.54016-1.03271.828l-6.6875-7.42627Zm-3.82275-11.08533c.95898-.68005,1.94287-1.32581,2.95605-1.92883l4.99072,8.64331c-.7124.42725-1.40332.88379-2.07959,1.36035l-5.86719-8.07483Zm5.00879,8.69055c-.66309.49878-1.30273,1.02686-1.92676,1.57178l-6.67969-7.41821c.88379-.7771,1.79248-1.5271,2.7373-2.23193l5.86914,8.07837Zm-2.71436,2.27856c-.30176.28052-.60352.56189-.89502.85327-.29443.29443-.57861.599-.8623.90405l-7.41943-6.68079c.40088-.43457.80615-.86609,1.22412-1.28467.41455-.41394.8418-.81482,1.27246-1.21204l6.68018,7.42017Zm-2.4624,2.54419c-.54541.62427-1.07324,1.26404-1.57227,1.92773l-8.07715-5.86841c.70459-.94507,1.4541-1.854,2.23145-2.73816l7.41797,6.67883Zm-2.18799,2.78662c-.47656.67725-.93213,1.36951-1.35938,2.08228l-8.64307-4.99023c.60254-1.01416,1.24805-1.99866,1.92822-2.95813l8.07422,5.86609Zm-1.88623,2.99902c-.40283.72241-.77832,1.46167-1.12842,2.21606l-9.11816-4.05981c.49365-1.07288,1.02783-2.12244,1.60352-3.14648l8.64307,4.99023Zm-1.56348,3.17822c-.32422.76001-.61475,1.5376-.88379,2.32532l-9.49219-3.08484c.37744-1.11987.79346-2.22266,1.2583-3.2998l9.11768,4.05933Zm-1.2168,3.32996c-.24121.78918-.44824,1.59302-.6333,2.40552l-9.76367-2.07507c.25879-1.15552.55078-2.29785.89844-3.41675l9.49854,3.0863Zm-.85449,3.43787c-.15771.80908-.28271,1.62927-.38184,2.45789l-9.92676-1.04333c.13574-1.17798.31396-2.34302.5415-3.49048l9.76709,2.07593Zm-.4917,3.50989c-.07129.82043-.11328,1.64929-.12598,2.48547h-9.98047c.01318-1.18823.07324-2.36523.1792-3.52905l9.92725,1.04358Zm-.12402,3.54211c.01416.83459.05518,1.66211.12842,2.4812l-9.92773,1.04358c-.10742-1.16223-.16748-2.33801-.18164-3.52478h9.98096Zm.24023,3.53271c.1001.82886.22607,1.64954.38525,2.4585l-9.76709,2.07629c-.229-1.14783-.40674-2.31323-.54443-3.49133l9.92627-1.04346Zm.60938,3.48987c.18213.79382.38477,1.57971.62061,2.3512l-9.49902,3.08655c-.3418-1.1012-.62988-2.22571-.88525-3.3623l9.76367-2.07544Zm.95361,3.35413c.26904.78833.55957,1.56604.88428,2.3269l-9.11816,4.06006c-.46484-1.07812-.88135-2.18164-1.26025-3.30249l9.49414-3.08447Zm1.31836,3.28857c.35059.75439.72607,1.49365,1.12891,2.21667l-8.64307,4.99011c-.57568-1.02393-1.11035-2.07385-1.60352-3.14673l9.11768-4.06006Zm1.65576,3.13318c.42725.71204.88281,1.40417,1.35889,2.08118l-8.07373,5.86597c-.68018-.95862-1.32568-1.94312-1.92822-2.95703l8.64307-4.99011Zm1.9751,2.94128c.49805.66321,1.02588,1.30212,1.56982,1.92627l-7.41602,6.67761c-.77734-.8833-1.52637-1.79138-2.23096-2.73596l8.07715-5.86792Zm2.27539,2.71362c.28418.30591.56934.61133.86426.90637.2915.29138.59326.57227.89453.85291l-6.67871,7.41797c-.43115-.39819-.85889-.79932-1.27344-1.21436-.41797-.41821-.82373-.84912-1.22412-1.28369l7.41748-6.6792Zm2.5459,2.46558c.62402.54492,1.26318,1.073,1.92676,1.57153l-5.86816,8.07703c-.94482-.70508-1.85254-1.4552-2.73584-2.23254l6.67725-7.41602Zm2.78467,2.18701c.67725.47656,1.36865.93335,2.08105,1.36035l-4.99072,8.64331c-1.01318-.60327-1.99756-1.24951-2.95605-1.93018l5.86572-8.07349Zm2.99707,1.88721c.72217.40308,1.46045.77881,2.21338,1.12903l-4.05908,9.11902c-1.07227-.4939-2.12109-1.02869-3.14502-1.60474l4.99072-8.64331Zm-.36182-1.48633c-.6792-.40759-1.33789-.84326-1.9834-1.29797l5.86963-8.07837c.3623.2511.73975.47913,1.11768.70935l-5.00391,8.66699Zm3.69287-10.90674c-.32031-.24512-.63721-.49255-.94287-.75488l7.72266-8.57617-6.77979,9.33105Zm-.94189-33.56177c.30469-.26257.62207-.51001.94189-.75537l6.78174,9.33374-7.72363-8.57837Zm-4.7334-10.3645c.64453-.4541,1.30371-.8894,1.98242-1.29688l5.00439,8.66785c-.37646.2301-.75439.45789-1.1167.70911l-5.87012-8.08008Zm-2.64502-11.42676c1.02295-.57568,2.07178-1.11023,3.14404-1.60376l4.05957,9.11755c-.75342.35022-1.49121.72656-2.21387,1.12952l-4.98975-8.64331Zm-.55469-.96106l-4.99023-8.6427c1.35791-.76831,2.75098-1.479,4.17822-2.13184l4.05957,9.11731c-1.1084.50989-2.19141,1.06213-3.24756,1.65723Zm-.9165.52734c-1.04785.62268-2.06396,1.28992-3.05322,1.99329l-5.8667-8.07458c1.27148-.90698,2.58057-1.76355,3.9292-2.56165l4.99072,8.64294Zm-3.91455,2.60559c-.97559.72815-1.91357,1.50232-2.82568,2.30591l-6.67969-7.41846c1.17188-1.03577,2.38184-2.0282,3.63867-2.96216l5.8667,8.07471Zm-3.61475,3.01099c-.44434.41064-.88574.8252-1.31396,1.25391-.43213.43152-.84961.87622-1.26318,1.32495l-7.4209-6.68164c.53125-.57825,1.06934-1.14941,1.625-1.70483.55078-.55078,1.11816-1.08569,1.69238-1.61279l6.68066,7.42041Zm-3.28076,3.36743c-.80322.9126-1.57764,1.85181-2.30566,2.82764l-8.07422-5.86694c.93359-1.25806,1.92529-2.46838,2.96045-3.64038l7.41943,6.67969Zm-2.91748,3.68884c-.70312.99048-1.36963,2.00769-1.9917,3.05505l-8.64453-4.99048c.79785-1.34961,1.6543-2.65906,2.56104-3.93115l8.0752,5.86658Zm-2.51904,3.9718c-.59473,1.05737-1.14697,2.1416-1.65625,3.24963l-9.11914-4.05969c.65283-1.42749,1.36279-2.8219,2.13135-4.18066l8.64404,4.99072Zm-2.09131,4.21216c-.48096,1.11267-.91016,2.25098-1.30029,3.40796l-9.49414-3.08472c.49902-1.49011,1.05469-2.95361,1.6748-4.3833l9.11963,4.06006Zm-1.64014,4.41101c-.35889,1.1554-.66113,2.33533-.92822,3.52856l-9.76465-2.07544c.33936-1.53674.73291-3.05261,1.19873-4.53784l9.49414,3.08472Zm-1.15381,4.56042c-.23486,1.18506-.41846,2.38818-.55859,3.60474l-9.92822-1.04358c.17725-1.56604.41309-3.11438.71973-4.6377l9.76709,2.07654Zm-.66943,4.65674c-.11035,1.2019-.17188,2.41748-.18506,3.64502h-9.98291c.01514-1.57959.09424-3.14355.23877-4.68848l9.9292,1.04346Zm-.18359,4.70166c.01514,1.22595.07666,2.44043.18799,3.64062l-9.92969,1.0437c-.146-1.54346-.2251-3.10596-.24121-4.68433h9.98291Zm.30127,4.69189c.1416,1.21692.3252,2.42078.5625,3.6062l-9.76855,2.07617c-.30762-1.52332-.54297-3.07251-.72266-4.63879l9.92871-1.04358Zm.78955,4.63672c.26416,1.17456.56201,2.33667.91553,3.47461l-9.49414,3.08472c-.45996-1.46753-.84863-2.96606-1.18604-4.48364l9.76465-2.07568Zm1.25391,4.4751c.39111,1.15796.8208,2.29736,1.30127,3.41052l-9.11865,4.0603c-.62061-1.43054-1.17627-2.89539-1.67627-4.38611l9.49365-3.08472Zm1.73633,4.37256c.50977,1.10828,1.06201,2.19238,1.65674,3.25012l-8.64453,4.9906c-.76807-1.35864-1.47852-2.7533-2.13086-4.18079l9.11865-4.05994Zm2.18359,4.1665c.62207,1.04712,1.28857,2.06409,1.99072,3.05408l-8.07422,5.86682c-.90674-1.27185-1.76367-2.58105-2.56055-3.93018l8.64404-4.99072Zm2.604,3.9165c.72754.97546,1.50098,1.91406,2.30371,2.82617l-7.41895,6.67993c-1.03516-1.17175-2.02637-2.38184-2.95947-3.63904l8.07471-5.86707Zm3.00684,3.61499c.41504.44946.8335.89502,1.26611,1.32715.42822.42798.86865.84277,1.31396,1.25317l-6.68115,7.42029c-.57422-.52673-1.14111-1.06116-1.69189-1.61194-.55615-.55603-1.0957-1.12793-1.62695-1.70728l7.41992-6.6814Zm-4.05176,11.52612c1.19971,1.06104,2.44043,2.07788,3.72852,3.03442l-5.86621,8.07446c-1.5708-1.16211-3.08203-2.39758-4.5415-3.69116l6.6792-7.41772Zm.74072-.82263l6.68018-7.41882c.91162.80347,1.84961,1.57764,2.82568,2.30542l-5.86719,8.0752c-1.25781-.93396-2.46729-1.92664-3.63867-2.96179Zm10.36621-4.5011c.98975.70312,2.00635,1.37036,3.0542,1.99329l-4.99072,8.64355c-1.34912-.7981-2.65869-1.65503-3.93066-2.56226l5.86719-8.07458Zm3.97021,2.52002c1.05615.59521,2.13965,1.14758,3.24707,1.65747l-4.05908,9.11768c-1.42725-.65259-2.82031-1.36328-4.17871-2.13184l4.99072-8.64331Zm4.21094,2.09326c.5835.2522,1.1748.48877,1.77051.71643l-3.35791,9.40332c-.83447-.31458-1.6582-.6488-2.47168-1.00195l4.05908-9.1178Zm.45068-1.01318l4.06006-9.1189c.32715.13989.66064.26807.99268.39783l-3.35938,9.40552c-.56934-.21802-1.13525-.4436-1.69336-.68445Zm4.51074-10.13013l4.06299-9.125c.06934.02917.14307.0498.21387.07837l-3.36182,9.4126c-.30664-.11963-.61328-.2373-.91504-.36597Zm-.96387-.43591c-.71777-.33472-1.42188-.69312-2.10986-1.07703l4.99121-8.64502c.38525.21143.78906.39246,1.18799.58179l-4.06934,9.14026Zm2.53271-11.2323c-.34424-.21021-.68945-.41711-1.02002-.646l6.78418-9.33826-5.76416,9.98425Zm-1.02002-36.22839c.33057-.22864.67578-.43567,1.01904-.64612l5.7627,9.97974-6.78174-9.33362Zm-3.62158-10.80017c.68848-.38367,1.39209-.7417,2.10938-1.07617l4.06982,9.14062c-.39893.18921-.80225.36987-1.18799.5813l-4.99121-8.64575Zm3.07373-1.51221c.72461-.30884,1.46533-.58606,2.21533-.84326l3.09131,9.51392c-.41699.146-.83838.28516-1.24365.45483l-4.06299-9.12549Zm-.45117-1.0127l-4.05908-9.11768c1.07715-.46472,2.17969-.88086,3.29834-1.25952l3.08447,9.4917c-.78662.26965-1.56396.56055-2.32373.8855Zm-4.51025-10.13184l-4.05908-9.11731c1.4292-.62073,2.8916-1.17688,4.38135-1.67627l3.08447,9.49207c-1.15674.39075-2.29443.82129-3.40674,1.30151Zm-4.51074-10.13062l-4.05957-9.11768c1.78174-.77747,3.60547-1.4729,5.46533-2.09338l3.08398,9.49304c-1.52637.51172-3.02539,1.08154-4.48975,1.71802Zm-.96387.43579c-1.46191.6687-2.89014,1.39685-4.28174,2.18433l-4.98975-8.64209c1.69238-.96118,3.43066-1.84839,5.21191-2.65979l4.05957,9.11755Zm-5.19824,2.71167c-1.38281.8175-2.72363,1.69507-4.02734,2.62463l-5.86426-8.07263c1.5835-1.13403,3.21729-2.20142,4.90186-3.19434l4.98975,8.64233Zm-4.88818,3.23718c-1.28809.95642-2.52881,1.97314-3.72949,3.0343l-6.67676-7.41541c1.45898-1.29395,2.97021-2.52966,4.54053-3.69177l5.86572,8.07288Zm-4.52002,3.73718c-.58789.54053-1.16943,1.08838-1.73438,1.65295-.56885.56897-1.12109,1.15405-1.66504,1.74695l-7.41699-6.67822c.66064-.72168,1.33252-1.43225,2.02441-2.12366.68848-.68848,1.396-1.3573,2.11377-2.01477l6.67822,7.41675Zm-4.10107,4.19043c-1.06152,1.20068-2.07812,2.44141-3.03418,3.73071l-8.07275-5.86523c1.1626-1.57056,2.39746-3.08301,3.69092-4.54248l7.41602,6.677Zm-3.64697,4.59229c-.9292,1.30347-1.80664,2.64551-2.62402,4.02869l-8.64258-4.98962c.99316-1.68506,2.06006-3.31921,3.19385-4.9043l8.07275,5.86523Zm-3.15088,4.94556c-.78711,1.39209-1.51514,2.82104-2.18311,4.28394l-9.11816-4.05933c.81152-1.78198,1.69824-3.52148,2.65967-5.2146l8.6416,4.98999Zm-2.61816,5.24634c-.63672,1.46484-1.20605,2.96448-1.71729,4.4917l-9.49219-3.08447c.61963-1.85999,1.31494-3.68457,2.09131-5.46667l9.11816,4.05945Zm-2.05664,5.49487c-.47705,1.52173-.88037,3.0752-1.229,4.65002l-9.7627-2.07556c.4209-1.91748.91553-3.80762,1.49902-5.65894l9.49268,3.08447Zm-1.45703,5.68079c-.31396,1.56091-.55566,3.14758-.73682,4.75256l-9.92627-1.04358c.21826-1.95435.51221-3.88586.89697-5.78503l9.76611,2.07605Zm-.84961,5.80432c-.14844,1.5835-.22949,3.18591-.24365,4.80444h-9.98047c.01514-1.97095.11426-3.92139.29785-5.84814l9.92627,1.0437Zm-.24268,5.86108c.01611,1.61719.09717,3.21899.24707,4.80017l-9.92676,1.04333c-.18555-1.92444-.28418-3.87415-.2998-5.84351h9.97949Zm.3623,5.85132c.18262,1.60498.42383,3.19263.73926,4.75342l-9.76611,2.07593c-.38672-1.89905-.67969-3.8313-.8999-5.78589l9.92676-1.04346Zm.9707,5.78345c.34521,1.55566.74414,3.0918,1.21582,4.59607l-9.49219,3.08435c-.57812-1.83398-1.06787-3.70618-1.48682-5.60522l9.76318-2.0752Zm1.55469,5.59644c.51172,1.52759,1.08154,3.02832,1.71826,4.49414l-9.11816,4.05981c-.77783-1.78296-1.47266-3.60889-2.09229-5.47021l9.49219-3.08374Zm-5.26514,15.28394l-8.64404,4.99097c-1.1543-2.02734-2.21729-4.11108-3.1875-6.24805l9.11914-4.0603c.82812,1.81714,1.73193,3.59106,2.7124,5.31738Zm-1.69971-5.76807l9.11816-4.06006c.66797,1.46326,1.396,2.89209,2.18359,4.28406l-8.64258,4.99036c-.96143-1.69312-1.84863-3.43225-2.65918-5.21436Zm11.82959,1.14075c.81689,1.38269,1.69385,2.72424,2.62305,4.02734l-8.07422,5.86633c-1.13379-1.58484-2.20068-3.21863-3.19287-4.90332l8.64404-4.99036Zm3.23682,4.88977c.95508,1.28833,1.97168,2.52844,3.03271,3.72876l-7.41797,6.67896c-1.29346-1.45947-2.52783-2.97107-3.68945-4.54126l8.07471-5.86646Zm3.73438,4.51904c.54395.59265,1.09619,1.17773,1.66504,1.74634.56543.56555,1.14746,1.11414,1.73633,1.65479l-6.68066,7.41907c-.71729-.65662-1.42383-1.32495-2.1123-2.01233-.69287-.69287-1.36572-1.4043-2.02783-2.12769l7.41943-6.68018Zm-3.22803,12.34351c1.48779,1.31982,3.0293,2.57935,4.63086,3.76477l-5.86816,8.07617c-1.8833-1.39075-3.69629-2.86951-5.44336-4.42188l6.68066-7.41907Zm5.49219,4.37671c1.61523,1.15674,3.28174,2.24561,5,3.25842l-4.9917,8.64563c-2.02051-1.18774-3.97949-2.46606-5.87646-3.82751l5.86816-8.07654Zm.6499-.89575l5.86719-8.07397c1.30273.92944,2.64404,1.80762,4.02734,2.62524l-4.99023,8.64331c-1.68555-.99292-3.31934-2.06042-4.9043-3.19458Zm10.81006-4.92188c1.3916.78784,2.81982,1.51636,4.28174,2.18518l-4.05957,9.11755c-1.78125-.81177-3.52002-1.69849-5.21191-2.65991l4.98975-8.64282Zm5.24512,2.62085c.83936.36487,1.68994.70996,2.5498,1.0343l-3.35889,9.40332c-1.09814-.41064-2.18066-.85364-3.25049-1.32031l4.05957-9.11731Zm3.88037,13.1355c1.30225.37109,2.61914.70679,3.95264,1l-2.07568,9.76685c-1.77148-.38745-3.51904-.83704-5.24268-1.34399l3.36572-9.42285Zm.37402-1.04688l3.36377-9.41895c.83252.22583,1.67285.43091,2.52002.61865l-2.07422,9.76196c-1.28516-.28271-2.55371-.60547-3.80957-.96167Zm3.73779-10.46545l3.36914-9.43225c.35791.08984.72119.16882,1.08301.25024l-2.0752,9.76196c-.79834-.17725-1.5918-.36853-2.37695-.57996Zm3.74463-10.48389l2.43066-6.80652-1.49219,7.02319c-.31348-.07056-.62793-.13989-.93848-.21667Zm2.38477-22.50452c-.04443-.01819-.09082-.03101-.13428-.04919l.76807-1.72546-.63379,1.77466Zm-1.09326-.49878c-.36279-.1731-.73193-.33606-1.08398-.52869l5.76758-9.99084-4.68359,10.51953Zm-1.08398-38.50171c.35156-.19238.72021-.35571,1.08398-.52905l4.68359,10.51978-5.76758-9.99072Zm2.04248-.97876c.37012-.1543.75439-.28149,1.13477-.41528l3.56348,10.96765-4.69824-10.55237Zm-1.29688-11.31372c.75195-.23071,1.51758-.42822,2.29102-.60522l2.07959,9.78223c-.43018.10205-.86133.20386-1.28174.32947l-3.08887-9.50647Zm-.34277-1.05542l-3.08594-9.49731c1.11816-.34802,2.26025-.64087,3.41455-.8999l2.07471,9.76221c-.81152.18506-1.61475.39221-2.40332.63501Zm-3.42871-10.55347l-3.08447-9.49194c1.48438-.46606,3-.85986,4.53564-1.20032l2.07471,9.76257c-1.19189.26685-2.37158.57007-3.52588.92969Zm-3.42725-10.54688l-3.08398-9.49316c1.8501-.58484,3.73926-1.07959,5.65674-1.50122l2.0752,9.76343c-1.57422.34888-3.12744.75269-4.64795,1.23096Zm-3.42725-10.54822l-3.08447-9.49365c2.2168-.70312,4.47949-1.29944,6.77832-1.80225l2.0752,9.76477c-1.95557.42969-3.88184.93494-5.76904,1.53113Zm-1,.3385c-1.89746.63269-3.75684,1.34204-5.57373,2.13501l-4.06006-9.11841c2.13379-.93408,4.31934-1.76904,6.54883-2.51025l3.08496,9.49365Zm-6.53809,2.5708c-1.81641.82739-3.58984,1.73218-5.31494,2.71265l-4.99072-8.64331c2.02686-1.1543,4.11035-2.21729,6.24609-3.18774l4.05957,9.11841Zm-6.23145,3.23975c-1.71875,1.01233-3.38477,2.10107-5.00049,3.25757l-5.86572-8.07373c1.89648-1.36108,3.85547-2.63928,5.87549-3.8269l4.99072,8.64307Zm-5.86133,3.87012c-1.60156,1.18506-3.14355,2.44495-4.63184,3.76465l-6.67822-7.4165c1.74707-1.55273,3.56006-3.03113,5.44434-4.42188l5.86572,8.07373Zm-5.42334,4.46631c-.73193.67017-1.45264,1.35229-2.15479,2.05396-.70508.70557-1.39111,1.43042-2.06494,2.16675l-7.41895-6.67969c.79102-.86548,1.59814-1.71619,2.42676-2.54504.82471-.82483,1.6709-1.62756,2.53223-2.41418l6.67969,7.41821Zm-4.91992,5.01294c-1.31982,1.48853-2.57861,3.03076-3.76367,4.63281l-8.0752-5.8667c1.39111-1.88379,2.86914-3.69751,4.42139-5.44482l7.41748,6.67871Zm-4.37646,5.49463c-1.15576,1.61633-2.24414,3.28271-3.25635,5.00146l-8.64404-4.9906c1.18652-2.02075,2.46533-3.9801,3.8252-5.87756l8.0752,5.8667Zm-3.7832,5.91797c-.98096,1.72656-1.88477,3.50024-2.71191,5.31775l-9.12012-4.05994c.9707-2.13696,2.0332-4.22119,3.18799-6.24841l8.64404,4.9906Zm-3.14746,6.28003c-.79248,1.81714-1.50146,3.67761-2.13379,5.57458l-9.49414-3.08508c.74121-2.22974,1.5752-4.41528,2.50879-6.54956l9.11914,4.06006Zm-12.68164,2.14722l-10.02246-3.25635c.86768-2.61841,1.84912-5.18335,2.94678-7.6875l9.62598,4.28564c-.94971,2.16968-1.79785,4.39148-2.55029,6.6582Zm.71436,1.34595l9.49414,3.08472c-.5957,1.88794-1.10107,3.81506-1.53027,5.771l-9.76416-2.07544c.50244-2.29932,1.09766-4.56274,1.80029-6.78027Zm7.73145,9.88574c-.39307,1.93677-.69189,3.90674-.91455,5.90015l-9.92627-1.0437c.25879-2.3429.60986-4.65771,1.07373-6.93237l9.76709,2.07593Zm-1.02734,6.9519c-.18799,1.96411-.28857,3.95361-.30371,5.96362h-9.98145c.01514-2.3623.13379-4.69995.35693-7.00732l9.92822,1.0437Zm-.30225,7.02026c.0166,2.00854.11719,3.99683.30664,5.95972l-9.92822,1.04358c-.22461-2.30566-.34277-4.64233-.35986-7.0033h9.98145Zm.42188,7.01062c.22412,1.99353.52344,3.96423.91797,5.90088l-9.7666,2.07605c-.46582-2.2749-.81689-4.59033-1.07764-6.93359l9.92627-1.04333Zm1.15283,6.93005c.42725,1.93726.92725,3.84668,1.51709,5.71716l-9.49365,3.08508c-.69727-2.2002-1.2876-4.44617-1.78857-6.72681l9.76514-2.07544Zm1.85547,6.71729c.63281,1.89795,1.34229,3.75952,2.13525,5.57812l-9.11914,4.0603c-.93408-2.13562-1.76953-4.32263-2.51025-6.55396l9.49414-3.08447Zm-4.32178,17.40186l-9.12354,5.26807c-1.35645-2.37817-2.60498-4.82397-3.7417-7.33337l9.62549-4.28552c.98633,2.17188,2.06641,4.29041,3.23975,6.35083Zm.52686.91675c1.20752,2.05371,2.50586,4.04517,3.88867,5.97339l-8.52295,6.19263c-1.59863-2.22546-3.09766-4.52539-4.48926-6.89819l9.12354-5.26782Zm.95947-.55396l8.64502-4.99097c1.01172,1.71826,2.09961,3.3844,3.25586,5.00024l-8.07568,5.86719c-1.36084-1.89697-2.63818-3.85596-3.8252-5.87646Zm12.51416.87183c1.18457,1.60144,2.44336,3.14307,3.76318,4.63062l-7.41895,6.68005c-1.55176-1.7467-3.0293-3.56018-4.41943-5.44324l8.0752-5.86743Zm4.46289,5.42285c.67383.73657,1.36084,1.46143,2.06592,2.16736.70264.70178,1.42383,1.38428,2.15576,2.05457l-6.68115,7.42041c-.86084-.7865-1.70703-1.58923-2.53174-2.41382-.82959-.82959-1.6377-1.68079-2.42871-2.54749l7.41992-6.68103Zm3.9873,18.27161c1.92822,1.38428,3.91943,2.68396,5.97314,3.89124l-5.26758,9.12427c-2.37305-1.39258-4.67334-2.89233-6.89844-4.49219l6.19287-8.52332Zm6.88867,4.41809c2.06055,1.17371,4.17822,2.25513,6.34961,3.24121l-4.28564,9.62549c-2.50781-1.13721-4.95361-2.38574-7.33154-3.7428l5.26758-9.1239Zm.5542-.95923l4.9917-8.646c1.72607.98071,3.49854,1.88525,5.31543,2.71313l-4.06104,9.12085c-2.13623-.97046-4.21924-2.03369-6.24609-3.18799Zm11.27051-5.49756c1.09521.47803,2.20312.93201,3.32812,1.35242l-3.35986,9.40771c-1.36377-.50671-2.70361-1.05847-4.0293-1.63904l4.06104-9.12109Zm11.06689,15.09448c2.31152.47241,4.66504.8291,7.04541,1.09277l-1.10156,10.47876c-2.74951-.30237-5.46582-.71655-8.13428-1.26428l2.19043-10.30725Zm.23096-1.08582l2.07666-9.7699c1.93555.3938,3.90479.69263,5.89746.91541l-1.04395,9.92957c-2.3418-.25952-4.65576-.61035-6.93018-1.07507Zm2.30762-10.85535l2.07617-9.76526c1.55957.31482,3.14502.55603,4.74951.73792l-1.04346,9.92456c-1.95361-.21851-3.88379-.51172-5.78223-.89722Zm2.30664-10.85071l2.07617-9.76501c1.18359.23596,2.38623.41907,3.60205.56006l-1.04297,9.92468c-1.56543-.17798-3.11328-.41309-4.63525-.71973Zm2.30615-10.85071l2.07666-9.76904c.80811.15747,1.62744.28296,2.45459.38208l-1.04297,9.9292c-1.17725-.13684-2.34131-.31421-3.48828-.54224Zm2.30664-10.85107l.82471-3.87708,2.06299-5.77771c.16602.02515.33105.05469.49805.07593l-1.04492,9.9436c-.78906-.09497-1.57031-.21484-2.34082-.36475Zm3.26758-10.71851l.33691-.94263-.10303.97827c-.07861-.00977-.15576-.02441-.23389-.03564Zm-3.16113-42.11133c.38379-.11426.77637-.20728,1.16943-.30078l2.396,11.27539-3.56543-10.97461Zm2.20264-.52686c.39307-.07324.79199-.13037,1.19189-.18201l1.20459,11.45947-2.39648-11.27747Zm-.23047-1.08167l-2.07861-9.77856c.77051-.1499,1.55176-.26965,2.34082-.36462l1.04492,9.94373c-.43896.05603-.87598.11865-1.30713.19946Zm-2.30908-10.86438l-2.07617-9.76489c1.14697-.22827,2.31152-.40576,3.48828-.54224l1.04297,9.92456c-.82764.09937-1.64648.22461-2.45508.38257Zm-2.30664-10.85144l-2.07568-9.76575c1.52197-.30664,3.06982-.54187,4.63525-.71948l1.04297,9.92554c-1.21582.14087-2.41846.32397-3.60254.55969Zm-2.30664-10.8512l-2.07617-9.76721c1.89746-.38562,3.8291-.67871,5.78271-.89734l1.04346,9.92676c-1.60449.18213-3.19043.4231-4.75.73779Zm-2.30713-10.85217l-2.07617-9.76794c2.27441-.4646,4.58838-.81555,6.93066-1.07495l1.04346,9.92773c-1.99268.22278-3.96191.52173-5.89795.91516Zm-5.99414-25.8028c-1.06396.22528-2.10938-.44952-2.33545-1.50739-.22363-1.06006.45508-2.10321,1.51953-2.32733,1.06445-.22681,2.1084.44818,2.33203,1.50726.22705,1.05994-.45361,2.10089-1.51611,2.32745Zm.4668,4.88123l2.19092,10.30548c-2.3374.51123-4.6377,1.11743-6.89062,1.83228l-3.25586-10.02008c2.60107-.82751,5.25684-1.5296,7.95557-2.11768Zm-9.93115-2.34534c-1.03369.33441-2.14258-.22668-2.479-1.25641-.33447-1.02997.23291-2.13855,1.26709-2.47302,1.03516-.33575,2.14355.22534,2.47949,1.25763.33545,1.02753-.23145,2.13623-1.26758,2.4718Zm.9751,4.80164l3.25586,10.01996c-2.2666.7533-4.48828,1.60217-6.65674,2.55188l-4.28516-9.62408c2.50342-1.09857,5.06787-2.08008,7.68604-2.94775Zm-10.12158-1.29163c-.99316.4422-2.15479-.00122-2.59619-.98883-.43945-.99109.00977-2.15057,1.00244-2.59277.99316-.4422,2.15625.00122,2.59473.99103.44189.98889-.00732,2.14838-1.00098,2.59058Zm1.47168,4.67499l4.28467,9.62427c-2.17139.98621-4.28906,2.06714-6.34863,3.24048l-5.26758-9.12268c2.37793-1.35657,4.82324-2.6051,7.33154-3.74207Zm-8.24805,4.26929l5.26709,9.1228c-2.05371,1.20703-4.04492,2.5061-5.97266,3.89014l-6.19189-8.52197c2.2251-1.59973,4.5249-3.09888,6.89746-4.49097Zm-7.75879,5.10352l6.19092,8.52173c-1.91455,1.41357-3.75732,2.91626-5.5332,4.49487l-7.04883-7.82886c2.04834-1.82422,4.17871-3.55737,6.39111-5.18774Zm-7.18701,5.88599l7.05127,7.8302c-.87646.80005-1.73584,1.61633-2.57471,2.45471-.84326.84253-1.6626,1.70703-2.4668,2.58716l-7.83008-7.0509c1.84961-2.02893,3.79199-3.97131,5.82031-5.82117Zm-6.51758,6.61597l7.8291,7.04956c-1.57764,1.77588-3.08008,3.62-4.49365,5.53516l-8.52197-6.19214c1.62939-2.21277,3.36279-4.34326,5.18652-6.39258Zm-5.7998,7.25439l8.52246,6.19214c-1.38281,1.92896-2.68164,3.92041-3.88916,5.97485l-9.12354-5.26758c1.3916-2.37354,2.89062-4.67371,4.49023-6.89941Zm-5.01709,7.81555l9.12354,5.26794c-1.17334,2.06079-2.25342,4.1792-3.23975,6.35156l-9.62549-4.2854c1.13672-2.5094,2.38525-4.95581,3.7417-7.33411Zm-7.32617-4.87256c.54395-.9425,1.74463-1.26746,2.68311-.72571.9375.54126,1.25537,1.74463.7124,2.68604-.54395.94165-1.74561,1.26489-2.68311.72339-.9375-.54187-1.25635-1.74219-.7124-2.68372Zm-1.78857,1.88416c.37695.93115,1.11768,1.80225,2.1499,2.39868,1.89795,1.09473,4.10205.87866,5.23486-.40894l.43652.25171c-1.3833,2.42346-2.65527,4.91602-3.81299,7.47339l-.44678-.19885c.41748-1.68762-.70654-3.62781-2.73047-4.53381-.2041-.09058-.41113-.15283-.6167-.21631l-.21436-4.76587Zm.2959,6.58618c.58203.55688.7876,1.43835.43848,2.2196-.08105.18286-.19287.34021-.31689.48376l-.12158-2.70337Zm.23828,5.28247c1.08496-.10449,2.02686-.59277,2.59131-1.39099l.44727.19946c-1.02295,2.33313-1.94434,4.71912-2.771,7.15051l-.26758-5.95898Zm.46338,10.31226c.21338-.73743.42236-1.47595.6543-2.2052l10.02197,3.25586c-.71436,2.25403-1.31982,4.5553-1.83008,6.89246l-8.5708-1.82178-.27539-6.12134Zm.32422,7.21118l8.28613,1.76147c-.47168,2.31213-.82861,4.66541-1.0918,7.047l-6.82959-.7179-.36475-8.09058Zm.41211,9.15942l6.66748.70068c-.22754,2.34546-.34766,4.72192-.36279,7.12329h-5.95264l-.35205-7.82397Zm.3999,8.88062h5.90625c.0166,2.40015.13721,4.77515.36523,7.11914l-5.92334.62268-.34814-7.74182Zm.396,8.7998l5.99316-.62988c.26416,2.38184.62207,4.7356,1.0957,7.0481l-6.73584,1.43164-.35303-7.84985Zm.40088,8.9187l6.92529-1.47192c.50781,2.31873,1.10889,4.60181,1.81787,6.83862l-8.37891,2.72278-.36426-8.08948Zm.41357,9.18262l8.66748-2.81616c.75342,2.26807,1.60254,4.49133,2.55225,6.66199l-9.62549,4.28589c-.4834-1.10217-.93945-2.21716-1.37842-3.34192l-.21582-4.78979Zm.44092,9.80054l.22314-.09961c1.15771,2.55737,2.42969,5.0498,3.8125,7.47266l-.43408.25073c-.75879-.86401-1.99512-1.23462-3.30615-1.05884l-.29541-6.56494Zm.3916,8.68848c.4082.15649.77197.44116,1.00732.84985.54297.94019.2251,2.14209-.7124,2.6853-.04297.02502-.08936.03857-.13379.05981l-.16113-3.59497Zm2.91455,9.53027c.12939-.35217.35986-.67065.68506-.90649.87598-.63489,2.10498-.43628,2.74414.44116.10547.14624.18018.30396.24121.46533h-3.67041Zm5.41602-2.59802c-1.26074-1.16516-3.47461-1.14856-5.24707.14075-.9126.66394-1.53076,1.54614-1.83105,2.45728h-.82422l-.19727-4.37622c.4292-.11743.85791-.276,1.27148-.51416,1.91895-1.10938,2.83105-3.15649,2.24219-4.79248l.42627-.24609c1.41748,2.41821,2.94482,4.76196,4.57422,7.02917l-.41455.30176Zm.91016,2.59802c.07031-.61426-.02197-1.21069-.28223-1.74597l.40039-.29089c.50732.68896,1.03369,1.36279,1.56055,2.03687h-1.67871Zm3.5791,0c-.76904-.9574-1.52344-1.92578-2.25195-2.91528l8.52295-6.19263c1.41309,1.91467,2.91504,3.75806,4.49268,5.5332l-3.97021,3.57471h-6.79346Zm11.46191-2.78113c.8042.88,1.62402,1.74451,2.46729,2.58728.83887.83862,1.69971,1.65552,2.5752,2.45581l-5.86914,6.51831v-8.78027h-2.26221l3.08887-2.78113Zm21.54346,45.80298h-22.37012v-18.17261c.05176.04382.09277.09827.14844.13879,1.57471,1.14368,4.01025.47998,5.43896-1.48315,1.30273-1.79456,1.30225-4.03711.09814-5.29102l.30078-.41357c2.26709,1.63049,4.61133,3.15869,7.0293,4.57727l-.25635.44409c-1.62451-.55017-3.64062.36633-4.73633,2.26355-1.21436,2.10315-.83057,4.599.85645,5.57349,1.68506.97388,4.03955.05786,5.25342-2.04553,1.10938-1.91895.87402-4.15088-.45508-5.2699l.25391-.43945c2.42236,1.38354,4.91406,2.6554,7.4707,3.81372l-.20801.46704c-1.67236-.37793-3.58203.74512-4.47363,2.74182-.98877,2.22485-.34619,4.66248,1.43359,5.45764,1.78076.79456,4.02441-.36377,5.01367-2.5835.90039-2.02563.43359-4.22168-1.00488-5.19336l.20264-.45422c1.62891.71497,3.27441,1.39624,4.95166,2.01587l-4.94727,13.85303Zm-9.83398-14.76208c-.5415.93982-1.74316,1.25977-2.68506.71704-.94141-.54785-1.26758-1.74976-.72559-2.68506.54199-.94019,1.74414-1.25537,2.68604-.7124.94141.54285,1.26611,1.74487.72461,2.68042Zm9.00439,4.35681c-.43994.98865-1.60156,1.43433-2.59473.98865-.99268-.44116-1.44189-1.59961-1.00244-2.58813.44141-.98865,1.604-1.43457,2.59619-.98865.99365.4408,1.44287,1.59924,1.00098,2.58813Zm1.43262-6.828l4.28516-9.62512c1.35205.59167,2.71729,1.15491,4.10742,1.67078l-3.5459,9.92773c-1.64111-.60706-3.25293-1.27368-4.84668-1.97339Zm7.98047,10.22046c-.14355.44141-.43311.78918-.79297,1.0249l.79297-2.21948c.11963.37695.13184.79126,0,1.19458Zm-2.93115,7.01282l1.37256-3.84265c1.36865-.28674,2.64453-1.47131,3.19287-3.16064.51367-1.57666.24463-3.16406-.55957-4.21338l.33887-.94751c2.27539.68994,4.5918,1.28516,6.93945,1.79639l-.10693.50073c-1.71436-.02344-3.35107,1.47327-3.80566,3.62012-.50684,2.37439.62988,4.62817,2.53613,5.0354,1.90576.40234,3.86133-1.19238,4.36523-3.57202.46094-2.16577-.45117-4.21411-2.06055-4.86963l.10156-.47668c2.71875.55835,5.48682.98071,8.28906,1.28845l-.0542.51709c-1.7085.15698-3.17871,1.8147-3.40771,3.99634-.19727,1.87622.58984,3.56689,1.85742,4.328h-18.99854Zm20.39404-1.51672c-1.08252-.11646-1.86572-1.08093-1.75391-2.15686.11328-1.08093,1.08301-1.85645,2.16357-1.74487,1.08057.11658,1.86572,1.08069,1.75195,2.15662-.1123,1.07593-1.08057,1.85632-2.16162,1.74512Zm5.76709,1.51672h-4.16357c1.12939-.646,1.99121-1.96985,2.16162-3.59119.23145-2.20142-.8916-4.14734-2.55859-4.63013l.05273-.50281c1.49316.14636,2.99512.25769,4.50781.33032v8.3938Zm3.86914-18.10657h-3.86914v8.21997c-1.46045-.07153-2.91016-.18127-4.35156-.32251l1.10107-10.47998c2.34424.22766,4.71973.34814,7.11963.36401v2.21851Zm0-3.32812c-2.36084-.01587-4.69727-.13428-7.00293-.35791l1.04297-9.93066c1.96338.18848,3.95117.28894,5.95996.30444v9.98413Zm0-11.09351c-1.96973-.01562-3.91895-.11462-5.84375-.29883l1.04297-9.92603c1.58203.14966,3.18359.23096,4.80078.24597v9.97888Zm0-11.08887c-1.57764-.01489-3.14062-.09412-4.68457-.2395l1.04297-9.92603c1.20117.11084,2.41553.17224,3.6416.18677v9.97876Zm0-11.08862c-1.1875-.01416-2.3623-.07373-3.52539-.18042l1.04395-9.93066c.81934.07214,1.64648.11438,2.48145.1272v9.98389Zm0-11.08875c-.7959-.01282-1.58545-.05286-2.36621-.1217l1.04541-9.94214c.43701.0354.87744.05664,1.3208.06677v9.99707Zm0-11.10706c-.4043-.00977-.80566-.02881-1.20557-.06067l.55811-5.30554.64746-1.8125v7.17871Zm0-31.67786l-1.2041-11.46216c.39844-.03186.7998-.05115,1.2041-.06091v11.52307Zm0-12.62817c-.44287.01013-.88379.03162-1.32031.06665l-1.04541-9.94238c.78174-.0686,1.57031-.10876,2.36572-.1217v9.99744Zm0-11.10681c-.83496.01282-1.66211.05493-2.48145.12708l-1.04346-9.92578c1.1626-.10632,2.33789-.16626,3.5249-.18005v9.97876Zm0-11.08887c-1.22607.01416-2.44043.07568-3.64062.18616l-1.04346-9.92688c1.54395-.14526,3.10645-.22449,4.68408-.2395v9.98022Zm0-11.08984c-1.61719.01489-3.21875.09631-4.7998.24573l-1.04395-9.92834c1.9248-.18433,3.87402-.2832,5.84375-.29871v9.98132Zm0-11.09021c-2.00879.01575-3.99658.11646-5.95996.30481l-1.04297-9.92908c2.30566-.22375,4.64209-.34204,7.00293-.35803v9.9823Zm0-11.09094c-2.3999.01599-4.77441.13623-7.11914.36401l-1.10107-10.47882c2.70605-.26495,5.44873-.40399,8.22021-.42017v10.53497Zm46.62744-5.56488c.54346-.93909,1.74512-1.25775,2.68506-.7124.94531.5426,1.26953,1.74335.72754,2.68225-.54346.93677-1.74561,1.25543-2.68555.71271-.93945-.54425-1.26465-1.74481-.72705-2.68256Zm-9.00439-4.35718c.44092-.98981,1.60449-1.43323,2.59766-.99103s1.44385,1.60168,1.00244,2.59277c-.44092.98883-1.60303,1.43103-2.59717.99005-.99316-.44342-1.44434-1.60291-1.00293-2.5918Zm-.5293,7.26312c2.50781,1.13623,4.95215,2.38391,7.32861,3.73999l-5.26709,9.12329c-2.05957-1.17249-4.17676-2.25293-6.34766-3.23877l4.28613-9.62451Zm-27.56396,76.22876l9.97949-5.76196c.19238.3512.35596.71973.52881,1.08301l-10.5083,4.67896Zm10.95752-3.72437c.1543.36914.28027.75208.41406,1.13135l-10.93408,3.5531,10.52002-4.68445Zm-.44922,17.61035c-.17236.36328-.33594.73169-.52832,1.08325l-9.98047-5.76233,10.50879,4.67908Zm-10.0625-5.63611l10.92627,3.5498c-.13379.37878-.25928.7616-.41406,1.13037l-10.51221-4.68018Zm4.33838-33.31628c.71729.33398,1.42041.69165,2.10889,1.07495l-4.9917,8.64539c-.38525-.21082-.78857-.39099-1.18701-.5802l4.06982-9.14014Zm-5.02783,8.68921c-.40479-.16895-.82373-.30737-1.24023-.45361l3.09131-9.51343c.74902.25684,1.48877.53296,2.21143.84155l-4.0625,9.12549Zm-1.60742,28.14258l8.54102,7.69031c-.13623.14392-.25977.29993-.3999.43982-.14355.14355-.30371.27075-.45166.41028l-7.68945-8.54041Zm6.90674,9.25146c-.30469.26123-.62061.50696-.93994.75098l-6.75293-9.29517,7.69287,8.54419Zm-7.69971-24.27429l6.75928-9.30322c.31982.24438.63525.4906.94043.75208l-7.69971,8.55115Zm8.48193-7.83972c.14795.14014.30859.26721.45215.41138.13965.1394.26221.29443.39795.43726l-8.52881,7.6792,7.67871-8.52783Zm-1.9165-2.99219c-.3623-.25049-.73926-.47791-1.1167-.70752l5.00439-8.66748c.67871.40698,1.33789.8418,1.98291,1.29565l-5.87061,8.07935Zm3.52539-10.86194c-.72119-.40247-1.45898-.77771-2.21191-1.12769l4.05957-9.1178c1.07129.49329,2.11963,1.02722,3.14307,1.60278l-4.99072,8.6427Zm-5.19531,11.1134c.34326.20996.68848.41626,1.01855.64478l-6.77441,9.32397,5.75586-9.96875Zm1.01855,36.23792c-.33008.22803-.67529.43433-1.01855.64441l-5.75439-9.96655,6.77295,9.32214Zm.65234.89807l5.86963,8.07776c-.64502.45398-1.30371.88928-1.98242,1.29663l-5.00342-8.66638c.37695-.22998.75391-.45728,1.11621-.70801Zm.8457-.6322c.34961-.26721.69629-.53772,1.03027-.82458l6.68359,7.4231c-.59375.51855-1.20215,1.02075-1.83301,1.49585l-5.88086-8.09436Zm1.8125-1.53577c.1626-.15308.33789-.29199.49414-.44971.1543-.15369.29053-.32446.43945-.48267l7.42822,6.68848c-.26758.2865-.53418.57349-.81201.85059-.28027.28076-.57031.55127-.86084.82153l-6.68896-7.42822Zm.82031-2.45593l-8.54346-7.69226,9.29639,6.75342c-.24463.31897-.4917.63428-.75293.93884Zm-7.9248-8.5481l9.95508,5.74744c-.21045.34253-.41699.68677-.64502,1.01636l-9.31006-6.76379Zm0-11.04443l9.30957-6.76355c.22803.32959.43457.67383.64453,1.01636l-9.9541,5.74719Zm-.61963-.85693l8.54248-7.69141c.26172.30432.50879.61963.75293.93835l-9.29541,6.75305Zm8.65625-9.21521c-.14941-.15698-.28418-.32739-.43799-.48035-.15723-.15784-.33203-.29724-.49463-.45032l6.69092-7.43079c.28955.26965.57959.53967.85938.8197.27783.27722.54443.56458.81201.85168l-7.42969,6.69006Zm-1.71484-1.64209c-.33447-.28674-.68115-.55725-1.03076-.82471l5.88184-8.09607c.63135.47485,1.23975.97717,1.83398,1.49548l-6.68506,7.42529Zm4.64502-10.43188c-.67676-.47644-1.36768-.93286-2.07959-1.3595l4.99072-8.64319c1.0127.60266,1.99707,1.24805,2.95508,1.92822l-5.86621,8.07446Zm2.54883-11.49048c-1.05615-.59448-2.13916-1.14648-3.24561-1.65576l4.05957-9.11792c1.42578.65234,2.81885,1.3623,4.17627,2.13013l-4.99023,8.64355Zm-4.21094-2.09229c-1.11133-.47949-2.24805-.90942-3.40332-1.29956l3.0835-9.49292c1.48926.49927,2.95117,1.05444,4.37939,1.67456l-4.05957,9.11792Zm-.45117,1.01416l-4.05957,9.11743c-.75879-.32397-1.53369-.61426-2.31934-.8833l3.08398-9.49219c1.11816.3783,2.21875.79419,3.29492,1.25806Zm-7.38184,7.90039c-.78711-.24219-1.58984-.44897-2.40088-.63403l2.07471-9.76221c1.15381.25903,2.29492.55151,3.4126.89941l-3.08643,9.49683Zm-.34229,1.05591l-3.08887,9.50671c-.4209-.12573-.8501-.22778-1.28027-.32922l2.07959-9.78247c.77295.17725,1.53809.37427,2.28955.60498Zm-2.43115,10.89795c.37939.13403.76172.2605,1.13184.41431l-4.68359,10.51709,3.55176-10.9314Zm2.08984.86377c.36328.17285.73145.33521,1.08398.52759l-5.76221,9.97974,4.67822-10.50732Zm1.08252,38.50854c-.35107.19214-.71973.35461-1.08301.52734l-4.67627-10.50342,5.75928,9.97607Zm-2.0415.97632c-.02588.01074-.05322.01855-.07959.02917l-.37305-1.04578.45264,1.0166Zm2.30713,22.53955c-.32812.08203-.65967.15466-.99023.229l-1.57666-7.41772,2.56689,7.18872Zm-2.01367-21.46545c.05225-.02112.10742-.03613.15869-.05798l4.06299,9.12549c-.28418.12085-.57227.23083-.85938.34399l-3.3623-9.4115Zm1.11621-.50891c.39893-.18872.80176-.3689,1.1875-.57983l4.99072,8.64441c-.6875.38342-1.39111.74158-2.1084,1.07544l-4.06982-9.14001Zm6.73242,9.0238l4.99072,8.64331c-1.02344.57556-2.07129,1.10974-3.14307,1.60327l-4.06006-9.11902c.75293-.34961,1.49072-.7251,2.2124-1.12756Zm.91699-.52686c.71191-.42688,1.40234-.88269,2.0791-1.35925l5.86621,8.07349c-.9585.68005-1.94238,1.32605-2.95557,1.92883l-4.98975-8.64307Zm2.93652-1.974c.6626-.49756,1.30029-1.02466,1.92432-1.5686l6.67676,7.41602c-.88184.77637-1.78906,1.5249-2.73291,2.22913l-5.86816-8.07654Zm2.71094-2.27454c.30518-.28333.60986-.56714.90381-.86157.29102-.29089.57178-.59192.85156-.89307l7.41797,6.67859c-.39795.43018-.79834.85718-1.21338,1.271-.4165.41748-.84717.8219-1.28076,1.22241l-6.6792-7.41736Zm1.63672-3.28369l-7.42334-6.68396c.28613-.33374.55762-.6792.82471-1.0293l8.09473,5.8811c-.47461.63049-.97754,1.23877-1.49609,1.83215Zm-5.96631-8.55835c.25049-.36145.47803-.73804.7085-1.11414l8.66699,5.00403c-.40723.67761-.84277,1.33508-1.29639,1.97961l-8.0791-5.86951Zm1.25684-2.01807c.21191-.38538.39307-.78796.58252-1.1864l9.14111,4.06958c-.33545.71729-.69434,1.42041-1.07764,2.10828l-8.646-4.99146Zm-10.16357-8.27844l11.23633,2.38843c-.09326.39111-.18506.78271-.29932,1.16528l-10.93701-3.55371Zm.21436-1.03418l11.43115,1.20166c-.05225.39941-.1084.79724-.18164,1.1897l-11.24951-2.39136Zm.14062-1.04858h11.46484c-.01025.40222-.02832.80225-.06104,1.19873l-11.40381-1.19873Zm-.04053-1.05664l11.44775-1.203c.03076.39807.05078.79919.06104,1.203h-11.50879Zm-.08447-1.0542l11.24268-2.38989c.07178.39233.12988.78955.18115,1.18909l-11.42383,1.20081Zm-.75-.91943l11.45703-3.72266c.11963.40039.21729.81042.31348,1.22046l-11.77051,2.5022Zm11.26562-7.26172c-.18945-.39844-.37061-.80115-.58203-1.18652l8.64551-4.99121c.38281.68799.74219,1.39087,1.07617,2.10815l-9.13965,4.06958Zm-1.13037-2.08984c-.23047-.37622-.45801-.75244-.7085-1.11377l8.0791-5.86963c.45361.64404.88916,1.302,1.29639,1.97961l-8.66699,5.00378Zm-1.3418-1.96045c-.26758-.34985-.53857-.69519-.82617-1.02832l7.42578-6.68567c.51855.59387,1.021,1.20227,1.49561,1.8324l-8.09521,5.88159Zm5.8667-10.13232c-.29395-.29443-.59912-.57874-.9043-.86206l6.68115-7.41956c.43311.39978.86279.80359,1.2793,1.22021.41504.41443.81592.84167,1.21338,1.27209l-7.41992,6.68018c-.27881-.30029-.55908-.60083-.84961-.89087Zm-1.69141-1.56787c-.62354-.54419-1.26172-1.07166-1.92383-1.56934l5.86865-8.07788c.94434.70435,1.85156,1.45288,2.73438,2.22925l-6.6792,7.41797Zm3.73682-11.15552c-.98975-.70288-2.00586-1.36963-3.05322-1.99194l4.99072-8.6438c1.34912.79761,2.6582,1.65393,3.93018,2.56055l-5.86768,8.0752Zm1.5752-12.12256c-1.39062-.78711-2.81787-1.51489-4.2793-2.18335l4.05908-9.11804c1.78125.81116,3.51855,1.69739,5.21094,2.65833l-4.99072,8.64307Zm-5.24463-2.61938c-1.46387-.63599-2.96191-1.20532-4.4873-1.71655l3.08447-9.49341c1.85889.61987,3.68115,1.31458,5.4624,2.09155l-4.05957,9.11841Zm-5.4873-2.05493c-1.52051-.47778-3.07275-.88159-4.64551-1.22998l2.0752-9.76404c1.91699.42151,3.80518.91638,5.65527,1.50037l-3.08496,9.49365Zm-.34277,1.05481l-3.08398,9.49255c-1.15479-.35962-2.33301-.66235-3.5249-.9292l2.0752-9.76282c1.53467.34045,3.05029.73352,4.53369,1.19946Zm-7.64355,8.33655c-1.18359-.23584-2.38574-.4187-3.60107-.55933l1.04346-9.92578c1.56445.17761,3.11133.41272,4.63281.71948l-2.0752,9.76562Zm-.23096,1.08643l-2.0752,9.76514c-.80762-.15771-1.62695-.2832-2.45361-.38232l1.04297-9.92456c1.17676.13647,2.33984.31372,3.48584.54175Zm-2.30566,10.85059l-2.07861,9.77893c-.43115-.08081-.86719-.14343-1.30566-.19922l1.04492-9.94397c.78857.09497,1.56885.21436,2.33936.36426Zm-2.30908,10.8606l-2.39355,11.26355,1.20264-11.44568c.40039.05176.79785.10889,1.19092.18213Zm1.03467.22583c.39209.09338.78369.18652,1.16748.30054l-3.56104,10.95874,2.39355-11.25928Zm-1.93799,42.40479c-.09619.01367-.19043.03125-.28711.04382l-.12598-1.20032.41309,1.15649Zm.37988,1.06348l1.92334,5.38684.90918,4.27625c-.77002.15002-1.5498.26978-2.33838.3645l-1.04492-9.9436c.18506-.02332.36719-.05566.55078-.08398Zm3.0625,10.74512l2.07666,9.76904c-1.14551.22803-2.30957.40515-3.48584.54199l-1.04395-9.9292c.82715-.09912,1.646-.22437,2.45312-.38184Zm2.30664,10.85474l2.07666,9.76538c-1.52197.3064-3.06885.5415-4.6333.71912l-1.04297-9.92468c1.21484-.14099,2.4165-.3241,3.59961-.55981Zm1.03467-.22656c.37939-.08521.75977-.16797,1.13623-.26245l3.36768,9.42981c-.80225.21716-1.61279.41357-2.4292.5946l-2.07471-9.76196Zm2.48096-12.32544c.31348-.12268.62842-.24341.93701-.37549l4.06006,9.1189c-.54004.23303-1.08691.45068-1.6377.66211l-3.35938-9.40552Zm5.44775,9.75635l4.05957,9.11755c-.79541.34558-1.60156.67151-2.4165.9801l-3.35791-9.40356c.57666-.22119,1.14941-.44971,1.71484-.69409Zm.96484-.43628c1.10645-.5094,2.18945-1.06128,3.24561-1.65576l4.99023,8.64307c-1.35791.76782-2.75049,1.47803-4.17627,2.13062l-4.05957-9.11792Zm4.1626-2.18311c1.04639-.62231,2.06299-1.28906,3.05225-1.9917l5.8667,8.07397c-1.27148.90674-2.58057,1.76318-3.9292,2.56067l-4.98975-8.64294Zm9.56934,6.97839l5.86768,8.07568c-1.58447,1.13342-3.21729,2.20007-4.90234,3.19275l-4.99072-8.64429c1.38232-.81726,2.72266-1.69482,4.02539-2.62415Zm-5.65723-9.58179c.97461-.72693,1.91211-1.50024,2.82422-2.30212l6.67871,7.41797c-1.17041,1.0343-2.37988,2.02563-3.63672,2.9585l-5.86621-8.07434Zm3.61279-3.0061c.44775-.41345.89258-.83081,1.32373-1.26208.42822-.42749.84229-.86841,1.25195-1.31299l7.41992,6.67993c-.52637.57312-1.06055,1.1394-1.61133,1.68933-.5542.55505-1.125,1.09412-1.70312,1.62512l-6.68115-7.41931Zm2.45557-4.10608l-7.41602-6.67725c.54395-.62305,1.0708-1.26099,1.56885-1.92273l8.07666,5.86853c-.70361.94287-1.45361,1.84961-2.22949,2.73145Zm-5.23193-9.4574c.47656-.67566.93311-1.36633,1.35889-2.07703l8.64453,4.99023c-.60352,1.0127-1.24951,1.99524-1.92969,2.95288l-8.07373-5.86609Zm1.88672-2.99377c.40234-.72144.77881-1.45923,1.12842-2.21191l9.12012,4.06006c-.49365,1.07153-1.02881,2.11951-1.60449,3.14209l-8.64404-4.99023Zm.55371-3.62451l-9.12451-4.06201c.16895-.40454.30664-.82373.45312-1.2395l9.51465,3.09119c-.25781.74866-.53467,1.48767-.84326,2.21033Zm-8.32861-6.30225c.125-.41919.22656-.84863.32812-1.27783l9.78223,2.07959c-.17676.77197-.37402,1.53662-.60449,2.28711l-9.50586-3.08887Zm.55615-2.30884c.08154-.42993.14307-.86646.19971-1.30457l9.94336,1.04529c-.09521.78772-.21484,1.56812-.36523,2.33765l-9.77783-2.07837Zm.31396-2.35571c.03467-.43481.05518-.87354.06543-1.31494h9.99805c-.01318.79382-.0542,1.58057-.12256,2.35962l-9.94092-1.04468Zm.06885-2.37158c-.00977-.44299-.03174-.88245-.06689-1.31885l9.94336-1.04492c.06787.78027.10742,1.5686.11963,2.36377h-9.99609Zm-.17578-2.37085c-.05518-.43848-.11865-.87378-.19873-1.30371l9.7793-2.07886c.14941.76953.26855,1.54956.3623,2.33728l-9.94287,1.04529Zm-.42188-2.33545c-.10498-.44812-.21094-.89551-.34131-1.33301l9.50488-3.08838c.23682.76794.43799,1.55115.61816,2.34216l-9.78174,2.07922Zm-.68457-2.33472c-.14648-.41577-.28467-.83594-.45361-1.24023l9.12354-4.0625c.30957.72327.58643,1.46265.84424,2.21118l-9.51416,3.09155Zm9.24658-6.71423c-.35059-.75305-.72656-1.49036-1.12891-2.21155l8.64258-4.99072c.57617,1.02295,1.11084,2.07056,1.60498,3.14197l-9.11865,4.0603Zm-1.65625-3.12781c-.42578-.71094-.88232-1.40137-1.35889-2.07678l8.07373-5.86633c.68066.95764,1.32617,1.94043,1.9292,2.95312l-8.64404,4.98999Zm-1.97559-2.93555c-.49756-.66187-1.02441-1.29956-1.56934-1.92224l7.41797-6.67859c.77588.8822,1.5249,1.78882,2.229,2.73169l-8.07764,5.86914Zm4.7168-11.44092c-.43115-.43164-.87598-.84937-1.32422-1.26318l6.68262-7.42151c.57812.53064,1.14844,1.06885,1.70215,1.62317.55078.55054,1.08496,1.11707,1.61182,1.69067l-7.42188,6.68237c-.40967-.44409-.82324-.88452-1.25049-1.31152Zm-2.11279-1.96716c-.91162-.80249-1.84961-1.57581-2.82422-2.30298l5.86768-8.07556c1.25684.93274,2.46631,1.92432,3.6377,2.95874l-6.68115,7.4198Zm2.83496-11.88586c-1.30371-.92957-2.64404-1.80688-4.02686-2.62427l4.99072-8.64307c1.68408.99243,3.31787,2.05957,4.90186,3.19336l-5.86572,8.07397Zm.60059-12.75415c-1.72461-.98022-3.49658-1.88428-5.31299-2.71118l4.06055-9.11914c2.13525.96997,4.21777,2.03247,6.24365,3.18604l-4.99121,8.64429Zm-6.27832-3.14795c-1.81592-.79211-3.67529-1.50098-5.57031-2.13306l3.08496-9.49426c2.22803.74036,4.41211,1.57507,6.54541,2.50842l-4.06006,9.1189Zm-6.56982-2.47168c-1.88672-.59595-3.81299-1.10059-5.76758-1.53027l2.07617-9.76477c2.29736.50256,4.56006,1.09839,6.77588,1.80103l-3.08447,9.49402Zm-6.80078-1.76416c-1.93506-.39307-3.90381-.69189-5.896-.91479l1.04346-9.92786c2.3418.25952,4.65527.61023,6.92871,1.07483l-2.07617,9.76782Zm-.23047,1.08496l-2.07617,9.76721c-1.55908-.31458-3.14502-.55542-4.74854-.73743l1.04346-9.92676c1.95312.21863,3.8833.51147,5.78125.89697Zm-6.71533-2.11401c-1.9624-.18835-3.95068-.28906-5.95947-.30481v-9.9823c2.36133.01599,4.69727.13428,7.00293.35803l-1.04346,9.92908Zm-.11572,1.10278l-1.04395,9.92798c-1.58154-.14929-3.18213-.23047-4.7998-.24536v-9.98132c1.96924.0155,3.91895.11438,5.84375.29871Zm-1.15967,11.03174l-1.04346,9.92688c-1.20068-.11047-2.41455-.172-3.64062-.18616v-9.98022c1.57812.01501,3.14062.09399,4.68408.2395Zm-1.15918,11.03088l-1.04346,9.92578c-.81934-.07214-1.64648-.11426-2.48145-.12708v-9.97876c1.1875.01379,2.3623.07336,3.5249.18005Zm-1.15967,11.02942l-1.04541,9.94275c-.43604-.03503-.87646-.05652-1.31982-.06665v-9.99744c.7959.01294,1.58398.0531,2.36523.12134Zm-1.16064,11.04211l-1.20459,11.45911v-11.52002c.40479.00977.80664.02905,1.20459.06091Zm-.58105,37.54932l.58105,5.53003c-.39844.03186-.7998.0509-1.20459.06091v-7.33521l.62354,1.74426Zm.69775,6.63391l1.04395,9.9425c-.78076.06848-1.56934.10852-2.36523.12134v-9.99707c.44336-.01013.88428-.03137,1.32129-.06677Zm1.16016,11.0415l1.04395,9.93066c-1.16309.10669-2.33789.16626-3.52539.18042v-9.98389c.83447-.01282,1.66162-.05469,2.48145-.1272Zm1.15967,11.03442l1.04297,9.92578c-1.54346.14539-3.10596.22461-4.68408.2395v-9.97876c1.22656-.01416,2.44043-.07593,3.64111-.18652Zm1.15918,11.02954l1.04346,9.92578c-1.9248.1842-3.87451.2832-5.84375.29883v-9.97888c1.61768-.01501,3.21826-.09631,4.80029-.24573Zm1.15918,11.02954l1.04395,9.93066c-2.30566.22363-4.64209.34204-7.00342.35791v-9.98413c2.00879-.0155,3.99707-.11597,5.95947-.30444Zm.93506-1.21802l-1.04297-9.9248c1.60303-.18188,3.18848-.42285,4.74707-.7373l2.07617,9.76514c-1.89746.38538-3.82764.67822-5.78027.89697Zm4.73828-10.89233c.86475-.19165,1.72119-.40161,2.5708-.63269l3.36426,9.41882c-1.27197.36182-2.55811.68982-3.86035.97607l-2.07471-9.76221Zm6.30859,9.8324l3.36572,9.42346c-1.73975.51294-3.50439.9668-5.29248,1.35815l-2.07666-9.76685c1.35107-.29712,2.68408-.63757,4.00342-1.01477Zm1.33008-12.10632c.84229-.31812,1.67334-.65527,2.49463-1.01196l4.05908,9.11816c-1.05176.4585-2.11523.89331-3.19434,1.29773l-3.35938-9.40393Zm3.45898-1.44849c1.46094-.66821,2.88867-1.39624,4.27979-2.18335l4.99072,8.64404c-1.69238.96033-3.43066,1.84668-5.21094,2.65771l-4.05957-9.11841Zm9.82373,7.41907l4.9917,8.64685c-2.02588,1.15356-4.1084,2.21643-6.24414,3.18628l-4.06104-9.1217c1.81641-.82727,3.58789-1.7312,5.31348-2.71143Zm.91602-.52698c1.71826-1.01245,3.38428-2.10059,4.99951-3.25684l5.86914,8.07764c-1.89697,1.3606-3.85547,2.63843-5.87598,3.82593l-4.99268-8.64673Zm-.65771-12.83862c1.2876-.95544,2.52686-1.97144,3.72607-3.03149l6.68115,7.41968c-1.45898,1.29285-2.9707,2.52686-4.53955,3.68799l-5.86768-8.07617Zm4.5166-3.73401c.5918-.54309,1.17578-1.09448,1.74414-1.66272.56445-.56433,1.1123-1.14526,1.65283-1.7334l7.42188,6.68213c-.65771.71802-1.32568,1.4248-2.01367,2.11279-.69141.69092-1.40137,1.36279-2.12256,2.02295l-6.68262-7.42175Zm3.27734-4.92639l-7.41797-6.67871c.80225-.91101,1.57617-1.8479,2.30322-2.82202l8.07373,5.86572c-.93311,1.2561-1.92529,2.4646-2.95898,3.63501Zm-4.50293-10.3606c.70215-.98901,1.36963-2.00415,1.99219-3.05029l8.64209,4.9895c-.79785,1.34814-1.65381,2.65601-2.56055,3.92651l-8.07373-5.86572Zm2.51953-3.96704c.59473-1.05615,1.14746-2.13855,1.65771-3.24561l9.1167,4.05896c-.65381,1.4259-1.36377,2.81897-2.13232,4.17615l-8.64209-4.9895Zm1.07861-4.65942l-9.11963-4.0603c.32422-.75806.61523-1.5332.88428-2.31873l9.49561,3.08496c-.37891,1.11816-.79541,2.21838-1.26025,3.29407Zm-7.90039-7.38184c.24268-.78687.44824-1.58911.63379-2.39954l9.7666,2.07605c-.25977,1.1532-.55273,2.29346-.90088,3.41016l-9.49951-3.08667Zm.85742-3.4314c.15869-.80737.28369-1.62598.38281-2.45239l9.92969,1.0437c-.13721,1.17603-.31494,2.3396-.54297,3.48523l-9.76953-2.07654Zm.49561-3.50378c.07178-.81689.11426-1.64246.12793-2.47522h9.9834c-.01465,1.18481-.07471,2.3584-.18164,3.5188l-9.92969-1.04358Zm.12939-3.53186c-.0127-.83423-.05469-1.66089-.12646-2.47949l9.93066-1.04395c.10645,1.16211.16553,2.3374.17969,3.52344h-9.98389Zm-.23486-3.53149c-.09863-.82666-.22363-1.64478-.38086-2.45178l9.76953-2.07654c.22705,1.14551.4043,2.30859.54004,3.48438l-9.92871,1.04395Zm-.60059-3.48389c-.18848-.82922-.39941-1.64966-.64697-2.45459l9.49902-3.08606c.35303,1.1344.65137,2.29285.91357,3.46484l-9.76562,2.07581Zm-.98193-3.45898c-.27002-.78564-.56055-1.56104-.88525-2.31982l9.11914-4.06006c.46484,1.07568.88184,2.17651,1.26074,3.29492l-9.49463,3.08496Zm7.15381-11.03687l8.64355-4.99097c.76807,1.35742,1.47949,2.75012,2.13281,4.17603l-9.11914,4.05969c-.50977-1.10669-1.06201-2.1886-1.65723-3.24475Zm-.52637-.91589c-.62207-1.04602-1.28955-2.06104-1.99268-3.04993l8.07617-5.86768c.90674,1.27075,1.7627,2.57861,2.56055,3.92664l-8.64404,4.99097Zm-2.60547-3.91125c-.72656-.97412-1.5-1.91101-2.30225-2.82178l7.42041-6.68079c1.03369,1.17029,2.02539,2.37878,2.9585,3.63464l-8.07666,5.86792Zm3.58496-12.7677c-.56787-.56738-1.15137-1.11816-1.74219-1.66077l6.67969-7.4187c.72168.6604,1.43164,1.33276,2.12354,2.02454.68652.68689,1.35498,1.39294,2.01123,2.1095l-7.41895,6.67993c-.54053-.58838-1.08887-1.16968-1.65332-1.7345Zm-2.5332-2.36316c-1.19971-1.0603-2.43896-2.07617-3.72705-3.03223l5.8667-8.07397c1.56885,1.16138,3.08057,2.396,4.53906,3.68921l-6.67871,7.41699Zm1.93066-12.61353c-1.61523-1.15649-3.28174-2.24487-5-3.25684l4.99121-8.64417c2.02051,1.18726,3.979,2.46545,5.87549,3.82605l-5.8667,8.07495Zm-11.31543-36.90582c.33447-1.03229,1.44434-1.59338,2.48145-1.25763,1.03271.33447,1.59961,1.44305,1.26465,2.47302-.33398,1.02972-1.44385,1.59204-2.47607,1.25641-1.03662-.33557-1.60449-1.44427-1.27002-2.4718Zm.23389,7.27197c2.6167.86694,5.17969,1.84808,7.68213,2.9458l-4.28467,9.62457c-2.16846-.94897-4.38867-1.79736-6.65381-2.55005l3.25635-10.02032Zm-9.94727-9.66351c.22363-1.05908,1.271-1.73499,2.33203-1.50726,1.06689.22412,1.74561,1.26727,1.51758,2.32733-.22314,1.05908-1.26514,1.73407-2.33154,1.50739-1.06152-.22656-1.74414-1.26862-1.51807-2.32745Zm.99316,7.20856c2.69873.58765,5.354,1.28955,7.9541,2.1167l-3.25537,10.02045c-2.25293-.7146-4.55273-1.32056-6.88867-1.83154l2.18994-10.3056Zm-10.9043-8.5694c.11279-1.0769,1.08105-1.85736,2.16309-1.74347,1.08154.11401,1.86816,1.07843,1.75439,2.15546-.11426,1.07703-1.08252,1.85748-2.16406,1.74237-1.08203-.11267-1.8667-1.07843-1.75342-2.15436Zm1.73926,7.06775c2.74951.302,5.46533.71594,8.13232,1.26343l-2.19043,10.30652c-2.31055-.47241-4.6626-.82886-7.04248-1.09253l1.10059-10.47742Zm-1.0498-.11707l-1.10156,10.47876c-2.34326-.22754-4.71875-.34778-7.11865-.36377v-10.53497c2.77197.01617,5.51465.15521,8.22021.41998Zm-10.68848-7.26801c0-1.08191.88135-1.96033,1.96875-1.96033,1.08691,0,1.96973.87842,1.96973,1.96033,0,1.08307-.88281,1.96039-1.96973,1.96039-1.0874,0-1.96875-.87732-1.96875-1.96039Zm2.46826,175.95062v-2.21851c2.40088-.01587,4.77539-.13635,7.11914-.36377l.27148,2.58228h-7.39062Zm7.01074-13.73132c1.99121-.22278,3.95947-.52136,5.89453-.91492l2.07666,9.77002c-2.27295.46436-4.58691.81519-6.92773,1.07446l-1.04346-9.92957Zm1.44336,13.73132l-.28369-2.69824c2.37939-.26343,4.73145-.62012,7.04199-1.09253l.80566,3.79077h-7.56396Zm8.64648,0l-.85547-4.02808c1.83691-.40186,3.64941-.86816,5.43604-1.39673l1.9375,5.4248h-6.51807Zm5.90332-17.55273c1.10547-.41406,2.19531-.86011,3.27197-1.33008l4.06104,9.1217c-1.30713.57202-2.62842,1.11597-3.97266,1.61609l-3.36035-9.40771Zm6.26904,17.55273l-2.53613-7.10059c1.37061-.51001,2.71875-1.06482,4.05078-1.64819l3.89502,8.74878h-5.40967Zm6.56885,0l-4.08936-9.18506c2.17139-.98584,4.2876-2.06641,6.34766-3.2395l5.26758,9.12439c-2.06836,1.18079-4.18604,2.28577-6.35498,3.30017h-1.1709Zm7.5957,0h-3.04102c1.25684-.64111,2.49658-1.30957,3.71777-2.00708l.27002.46704c-.45605.40015-.77148.93164-.94678,1.54004Zm6.21582-.46118c-1.15869-1.48022-2.91455-2.13477-4.35742-1.6145l-.26465-.4585c1.56885-.91968,3.11523-1.87183,4.62207-2.88208v4.95508Zm0-6.76892c-1.74463,1.19861-3.53711,2.32874-5.36816,3.40283l-5.26807-9.12439c2.05273-1.20715,4.04443-2.50623,5.97217-3.88965l4.66406,6.4187v3.1925Zm0-4.98718l-3.80371-5.2356c1.29883-.95947,2.56689-1.95886,3.80371-2.99487v8.23047Zm0-9.6947c-1.44287,1.23865-2.92334,2.43298-4.45508,3.56384l-5.86816-8.07739c1.60059-1.18433,3.14111-2.44287,4.62793-3.7616l5.69531,6.32458v1.95056Zm0-3.53101l-4.90332-5.44482c.73584-.67297,1.45996-1.3584,2.16455-2.06323.70215-.70129,1.38379-1.42175,2.0542-2.15381l.68457.61633v9.04553Zm0-12.12097c-.2666.31152-.5332.62256-.80518.92896l-7.41895-6.68042c1.06055-1.19897,2.07666-2.43738,3.03271-3.72461l5.19141,3.77136v5.70471Zm0-7.00867l-4.58008-3.32727c.93018-1.30176,1.80811-2.64197,2.625-4.02319l1.95508,1.12842v6.22205Zm0-7.44299l-1.42773-.82422c.49854-.87988.97559-1.77271,1.42773-2.68115v3.50537Zm0-6.59753l-8.93701-3.97888c.47998-1.11084.91064-2.24719,1.30127-3.40234l7.63574,2.48071v4.90051Zm0-6.0116l-7.29736-2.37097c.36035-1.1532.66357-2.33093.93115-3.52234l6.36621,1.35327v4.54004Zm0-5.61963l-6.13916-1.30493c.23633-1.18323.41895-2.38525.56055-3.59985l5.57861.58606v4.31873Zm0-5.38184l-5.46484-.57446c.11035-1.19873.17188-2.41101.18652-3.63501h5.27832v4.20947Zm0-5.26611h-5.27637c-.01367-1.22534-.0752-2.43921-.18506-3.63928l5.46143-.5741v4.21338Zm0-5.27686l-5.57227.58557c-.14014-1.21448-.32227-2.41614-.55811-3.59924l6.13037-1.30298v4.31665Zm0-5.39551l-6.35449,1.35071c-.27002-1.21008-.57861-2.40613-.94385-3.57703l7.29834-2.37122v4.59753Zm0-5.71155l-7.63867,2.48169c-.39062-1.1554-.82178-2.29187-1.30225-3.40283l8.94092-3.98083v4.90198Zm0-7.98962c-.45215-.90918-.92969-1.80261-1.42822-2.68286l1.42822-.82483v3.50769Zm0-4.72754l-1.95508,1.12842c-.81738-1.38135-1.69482-2.72168-2.62451-4.02356l4.57959-3.3269v6.22205Zm0-7.52856l-5.19238,3.77222c-.95605-1.28711-1.97168-2.52588-3.03174-3.72485l7.41748-6.67847c.27246.30713.53906.61865.80664.93091v5.7002Zm0-8.77905l-.68457.61646c-.67041-.73169-1.35254-1.45239-2.0542-2.15381-.70459-.70459-1.42822-1.38977-2.16357-2.0625l4.90234-5.44336v9.04321Zm0-10.62378l-5.69385,6.32324c-1.48682-1.31885-3.02832-2.578-4.62891-3.76221l5.86621-8.0752c1.53271,1.13123,3.01367,2.32581,4.45654,3.5647v1.94946Zm0-3.41614c-1.2373-1.03625-2.50488-2.0354-3.80469-2.995l3.80469-5.23547v8.23047Zm0-10.02478l-4.66406,6.4187c-1.92871-1.38318-3.91943-2.68213-5.97314-3.88892l5.26758-9.12341c1.83154,1.07422,3.62451,2.20459,5.36963,3.4032v3.19043Zm0-5.00488c-1.50684-1.01025-3.05371-1.96265-4.62305-2.88257l.26611-.46069c1.44238.51953,3.19873-.13159,4.35693-1.61035v4.95361Zm528.28809-27.7843c-.06396.01385-.12598.02991-.18945.04376.08447-.13086.14893-.3736.18945-.66858v.62482Z"/></g></g><g id="_レイヤー_1-2"><path class="cls-2" d="m0,49.39902c0-21.45999,16.54968-22.43545,16.54968-22.43545,0,0,.24387-13.2438,13.20348-10.10841,0,0,8.60311-20.13556,28.54856-16.39082,19.94547,3.74474,20.04998,24.19386,20.04998,24.19386,0,0,23.61994-5.29473,28.35786,18.47004,0,0,9.89389-2.36895,9.89389,6.27078H0Z"/><path class="cls-2" d="m1019.25623,113.19013c0-21.45999,16.54968-22.43545,16.54968-22.43545,0,0,.24387-13.2438,13.20348-10.10841,0,0,8.60311-20.13556,28.54856-16.39082,19.94547,3.74474,20.04998,24.19386,20.04998,24.19386,0,0,23.61994-5.29473,28.35786,18.47004,0,0,9.89389-2.36895,9.89389,6.27078h-116.60346Z"/><path class="cls-2" d="m252.83071,133.11007c-1.76493-13.28084-24.59072-11.62471-24.59072-11.62471,0,0-7.42977-22.82012-33.30923-13.41312,0,0-1.95554-23.90143-26.71446-26.73323-24.75892-2.8318-33.42102,19.13246-33.42102,19.13246,0,0-22.48771-4.04185-23.69652,16.09575,0,0-25.70846-.44711-27.49689,16.54284h169.22885Z"/><g class="cls-4"><path class="cls-1" d="m1114.55546,246.78656c-.40636-1.54436-4.32113-9.08872-11.56711-8.2876-5.77609.63862-9.7581,5.55078-10.6581,10.54666-.89989-4.99588-4.8819-9.90803-10.65799-10.54666-7.24598-.80111-11.16075,6.74324-11.56711,8.2876-.29947,1.13813.34277,1.24282.86115.54321.51849-.69954,4.97272-4.80676,10.08412-4.24158,5.0959.5634,9.16633,3.63356,11.27984,10.09716,2.1135-6.4636,6.18393-9.53376,11.27995-10.09716,5.1114-.56517,9.56563,3.54204,10.084,4.24158.51849.69961,1.16062.59492.86126-.54321Z"/><path class="cls-1" d="m1070.10517,246.78656c-.2995,1.13809.34269,1.24313.86117.54344.24871-.33509,1.40959-1.45408,3.10805-2.4663l-1.74251-1.96367c-1.30889,1.6442-2.06176,3.25975-2.2267,3.88653Z"/><path class="cls-1" d="m1112.32875,242.90003l-1.74251,1.96367c1.69846,1.01222,2.85912,2.13121,3.10784,2.4663.5187.6997,1.16066.59466.86138-.54344-.16494-.62678-.91781-2.24233-2.2267-3.88653Z"/></g><g class="cls-4"><path class="cls-1" d="m1213.4006,285.49515c-.40636-1.54436-4.32113-9.08872-11.56711-8.2876-5.77609.63862-9.7581,5.55078-10.6581,10.54666-.89989-4.99588-4.8819-9.90803-10.65799-10.54666-7.24598-.80111-11.16075,6.74324-11.56711,8.2876-.29947,1.13813.34277,1.24282.86115.54321.51849-.69954,4.97272-4.80676,10.08412-4.24158,5.0959.5634,9.16633,3.63356,11.27984,10.09716,2.1135-6.4636,6.18393-9.53376,11.27995-10.09716,5.1114-.56517,9.56563,3.54204,10.084,4.24158.51849.69961,1.16062.59492.86126-.54321Z"/><path class="cls-1" d="m1168.95031,285.49515c-.2995,1.13809.34269,1.24313.86117.54344.24871-.33509,1.40959-1.45408,3.10805-2.4663l-1.74251-1.96367c-1.30889,1.6442-2.06176,3.25975-2.2267,3.88653Z"/><path class="cls-1" d="m1211.1739,281.60862l-1.74251,1.96367c1.69846,1.01222,2.85912,2.13121,3.10784,2.4663.5187.6997,1.16066.59466.86138-.54344-.16494-.62678-.91781-2.24233-2.2267-3.88653Z"/></g></g></svg>