<?xml version="1.0" encoding="UTF-8"?><svg id="_レイヤー_2" xmlns="http://www.w3.org/2000/svg" xmlns:xlink="http://www.w3.org/1999/xlink" viewBox="0 0 99.722 99.722"><defs><style>.cls-1{clip-path:url(#clippath);}.cls-2{fill:none;}.cls-2,.cls-3,.cls-4,.cls-5{stroke-width:0px;}.cls-3{fill:#14509f;}.cls-4{fill:#64aee5;}.cls-5{fill:#fff;}</style><clipPath id="clippath"><rect class="cls-2" width="99.722" height="99.722"/></clipPath></defs><g id="_レイヤー_2-2"><g class="cls-1"><circle class="cls-5" cx="49.861" cy="49.861" r="48.861"/><path class="cls-3" d="m85.539,47.629l-14.122-.93,4.535,5.178c-.181.167-.368.334-.551.501-7.907,7.241-16.734,14.546-34.523,17.07l-.29,6.365c21.462-2.842,30.775-11.363,38.991-18.877.149-.137.301-.272.451-.41l4.58,5.228.93-14.126Z"/><path class="cls-5" d="m30.986,56.828c-.137.217-2.4,3.8-11.964,4.304-.551.029-.621.508-.632.749-.585,12.722,5.577,24.091,13.396,25.738,0,0,.231.047.379.047s.368-.057.368-.057c7.999-1.764,13.942-13.817,12.652-26.805-10.069-.077-12.869-3.854-13.01-4.009-.272-.298-.975-.305-1.188.032Z"/><path class="cls-4" d="m32.164,88.763c-.232,0-.597-.069-.597-.069-8.473-1.785-14.872-13.835-14.272-26.863.05-1.039.705-1.743,1.669-1.794,8.898-.468,11.01-3.658,11.095-3.794,0,0,0,0,0,0,.273-.432.757-.707,1.327-.757.617-.056,1.222.159,1.599.572.544.651,3.43,3.584,12.208,3.65.56.005,1.026.431,1.082.988,1.317,13.264-4.868,26.079-13.507,27.984-.069.019-.345.083-.604.083Zm-12.688-26.56c-.446,11.918,5.141,22.785,12.536,24.343.002,0,.093.021.163.024.02-.005.084-.022.084-.022,7.443-1.643,12.761-12.809,11.917-24.668-8.002-.262-11.414-2.876-12.558-4.064-.955,1.162-4.028,3.88-12.143,4.388Z"/><path class="cls-3" d="m28.877,70.223l-.03-2.261c-.021-1.613,1.275-2.942,2.886-2.963,1.614-.021,2.946,1.273,2.967,2.886l.019,1.432,1.484-.02-.019-1.432c-.032-2.433-2.036-4.387-4.47-4.355-2.432.032-4.384,2.038-4.352,4.471l.03,2.261-1.002.013.106,8.022,10.899-.143-.106-8.022-8.413.111Zm4.009,6.488l-1.918.025.298-2.4c-.449-.229-.768-.678-.775-1.215-.01-.771.606-1.403,1.378-1.413.77-.01,1.404.606,1.414,1.377.007.543-.307,1.005-.756,1.243l.361,2.383Z"/><path class="cls-3" d="m71.655,19.876c-.112.322-.268.63-.475.901-.109.142-.222.278-.352.402-.127.122-.266.232-.41.333-.266.186-.565.328-.874.427-.143.046-.29.081-.438.105-.176.028-.353.048-.531.05-.181.002-.359-.015-.537-.04-.155-.022-.308-.055-.458-.1-.154-.046-.304-.105-.45-.172-.019-.007-.037-.015-.055-.026-.302-.143-.582-.34-.823-.572-.128-.122-.24-.257-.348-.398-.091-.119-.173-.245-.245-.377-.155-.284-.272-.595-.336-.912-.065-.323-.089-.656-.056-.984.019-.182.047-.362.094-.539.047-.177.112-.348.185-.516.136-.311.327-.597.553-.85.102-.115.213-.221.332-.319.135-.111.276-.214.426-.304.278-.166.585-.292.899-.369.317-.077.649-.111.975-.09.336.022.67.089.982.215.172.069.339.147.499.242.155.093.302.201.441.316.253.21.471.464.649.74.176.272.311.575.4.886.049.17.078.343.101.518.019.149.028.3.025.45-.007.332-.064.667-.172.981Z"/><path class="cls-3" d="m79.352,22.391c-.017-.136-.042-.267-.093-.394-.047-.117-.11-.221-.165-.334-.119-.249-.313-.452-.541-.605-.217-.146-.444-.276-.701-.337-.515-.122-1.092-.019-1.539.265-.109.069-.213.149-.307.238-.082.077-.154.164-.232.245-.182.187-.364.375-.546.562-.747.771-1.495,1.541-2.242,2.312l-1.021,1.052c-.23.238-.461.475-.692.713-.503-.21-1.006-.42-1.51-.631-.43-.179-3.753-2.954-4.134-3.169-.446-.252-.945-.349-1.452-.369-.505-.019-1.01.005-1.516-.019-.553-.026-1.105-.052-1.658-.079-1.092-.052-2.183-.104-3.275-.156-.264-.013-.53-.037-.792.002-.494.075-.932.287-1.314.607-.411.344-.802.715-1.201,1.072-.414.37-.828.74-1.241,1.11-.562.503-1.125,1.006-1.687,1.509-.16.143-.325.289-.484.418-.177.144-.286.33-.413.515-.135.198-.21.428-.248.663-.045.279-.02.52.043.793.055.237.128.457.276.655.303.407.723.72,1.227.821.241.048.518.049.76.011.24-.039.479-.13.686-.259.221-.136.407-.333.6-.505.203-.181.406-.363.608-.544.812-.726,1.624-1.452,2.436-2.178.197-.176.397-.349.59-.53.045-.042.088-.088.137-.125-.008.006.011-.004.034-.018.143.031.29.049.433.075.407.074.816.144,1.223.223l-.297.513c-.208.359-.412.72-.623,1.076-.507.855-1.043,1.692-1.525,2.562-.176.318-.332.645-.513.959-.207.359-.365,1.026-.429,1.439-.027.176-.648,4.176-.866,5.258-.122.605-.252,1.208-.372,1.812,0,.002,0,.004,0,.007-.018.018-.036.036-.053.054-.049.05-.098.101-.147.151-.106.109-.212.217-.318.326-.219.224-.438.448-.656.672-.862.883-1.725,1.766-2.587,2.648-.87.89-1.739,1.78-2.608,2.669-.429.439-.859.879-1.289,1.318-.21.215-.38.442-.471.734-.086.277-.156.548-.119.841.017.24.073.465.185.678.094.18.191.355.329.507.154.172.355.284.548.406.211.132.467.191.711.219.116.013.232.016.349.006.118-.01.233-.044.349-.071.12-.028.226-.057.339-.107.089-.04.176-.087.257-.142.18-.121.318-.268.467-.421.338-.345.675-.691,1.013-1.037,1.361-1.393,2.723-2.787,4.084-4.18.678-.694,1.356-1.388,2.034-2.083.168-.172.336-.344.505-.516.164-.168.327-.332.466-.522.248-.342.393-.75.465-1.163.08-.461.186-.917.279-1.375.097-.482.195-.963.292-1.445.097-.481.194-.961.292-1.442.025-.126.166-.847.3-1.536,2.266.843,4.533,1.685,6.799,2.527l.924.344c.011.004.037.016.057.026-.027.046-.065.088-.097.13-.383.512-.767,1.023-1.149,1.535-.765,1.021-1.528,2.041-2.293,3.061-.055.072-.109.145-.163.217-.018.024-.036.048-.054.073,0,0-.093.116-.04.051-.094.118-.175.236-.242.37-.116.23-.183.471-.209.727-.05.491.104.994.405,1.382.343.444.854.712,1.411.763.532.048,1.06-.148,1.465-.486.231-.192.396-.454.575-.692.187-.249.373-.497.559-.746.266-.355.531-.711.798-1.066.176-.234.353-.467.529-.701.725-.959,1.451-1.919,2.176-2.879.29-.384.58-.767.87-1.151.255-.337.504-.659.586-1.091.097-.512.023-1.066-.25-1.514-.236-.387-.59-.662-1.009-.828-.177-.07-.356-.138-.534-.207-.97-.376-1.94-.751-2.911-1.127l-3.42-1.324c-.389-.151-.777-.301-1.166-.451-.062-.024-.125-.05-.188-.075.203-.317.406-.634.611-.949.571-.881,1.163-1.747,1.747-2.62.016-.023.031-.047.046-.07,1.145.477,3.221,1.341,4.106,1.711.121.051.242.101.363.152.065.027.131.055.197.082.025.01.05.021.075.031.014.006.027.012.041.018.261.116.531.212.817.243.277.03.556.032.831-.021.24-.046.469-.118.693-.216.474-.21.82-.611,1.173-.977.37-.383.741-.765,1.112-1.147.752-.775,1.504-1.551,2.256-2.326.373-.385.746-.769,1.118-1.153.093-.096.186-.191.278-.287.082-.085.17-.167.245-.257.085-.103.164-.211.221-.333.06-.126.094-.254.139-.385.089-.258.098-.522.065-.789Zm-19.812,3.636c.048.002.034.029-.008-.001.003,0,.005,0,.008.001Zm8.036,11.675s.001-.002.002-.003c0,.002-.002.004-.003.006,0,0,0-.001,0-.002Zm-.006.006h0s-.01-.005-.016-.008c.006.003.011.006.016.008Z"/><path class="cls-3" d="m48.505,51.364c-.086,0-.174-.005-.262-.016-.374-.042-.675-.138-.921-.292-.262-.162-.473-.293-.654-.496-.174-.191-.288-.397-.399-.608-.14-.267-.219-.554-.241-.877-.048-.371.048-.724.141-1.024.136-.435.402-.742.591-.935l7.566-7.744.333-1.663c.201-.994.751-4.519.859-5.215.02-.127.175-1.078.492-1.632.1-.173.19-.348.281-.523.074-.144.149-.287.228-.429.316-.57.654-1.126.993-1.682.182-.297.362-.594.54-.893.149-.251.294-.505.439-.758l.123-.213c-.037-.007-.073-.013-.11-.02l-.573-.101c-.014-.002-.027-.004-.041-.007-.135.125-.272.248-.411.37l-3.333,2.983c-.155.145-.331.309-.541.438-.267.166-.567.279-.869.327-.312.05-.642.044-.937-.014-.589-.118-1.133-.477-1.531-1.013-.215-.29-.306-.602-.361-.841-.086-.371-.101-.666-.049-.985.052-.331.162-.622.327-.865l.058-.085c.115-.172.246-.368.453-.536.151-.124.312-.264.465-.402l3.308-2.962c.275-.251.551-.502.836-.741.465-.39.99-.631,1.56-.717.274-.041.538-.026.772-.014l5.051.241c.257.012.512.009.77.011.248-.002.494,0,.742.008.658.025,1.207.167,1.679.433.179.102.629.457,1.69,1.305.858.686,2.156,1.722,2.398,1.843l1.187.496,4.343-4.48c.054-.06.108-.119.167-.175.119-.112.249-.212.386-.299.562-.356,1.277-.479,1.921-.328.349.083.633.253.864.408.317.212.564.491.714.806l.052.102c.045.084.089.169.125.261.08.201.109.393.125.52.047.374.018.705-.089,1.013l-.032.098c-.037.114-.074.227-.127.338-.087.186-.206.339-.288.438-.062.076-.132.146-.202.217l-4.955,5.11c-.327.344-.699.733-1.208.958-.259.114-.521.196-.801.25-.298.056-.617.065-.979.027-.301-.032-.608-.123-.968-.283l.089-.505-.189.462-4.291-1.787-.312.465c-.42.624-.84,1.247-1.248,1.877l-.279.434,7.651,2.963c.535.211.968.568,1.251,1.032.324.532.439,1.212.315,1.868-.102.538-.398.929-.659,1.275l-5.053,6.706c-.15.208-.319.442-.553.635-.526.439-1.194.654-1.829.599-.7-.063-1.343-.412-1.762-.956-.384-.496-.569-1.129-.507-1.738.033-.325.118-.62.261-.902.036-.073.076-.144.122-.214l-.017-.051.441-.522,3.14-4.193-6.604-2.455-.868,4.311c-.063.298-.128.597-.179.898-.094.534-.28.996-.554,1.372-.14.193-.302.362-.467.531l-7.683,7.863c-.183.188-.337.346-.546.487-.104.069-.215.13-.329.182-.146.066-.279.104-.432.14-.181.044-.299.071-.42.082-.061.006-.123.009-.187.009Zm11.119-24.75l-.266.461c-.147.258-.295.516-.447.771-.179.302-.362.603-.545.903-.332.544-.664,1.088-.973,1.646-.074.133-.145.269-.215.405-.098.188-.195.377-.303.562-.153.268-.301.84-.367,1.267-.112.721-.665,4.266-.87,5.28l-.372,2.014-.133.055-7.66,7.839c-.19.194-.295.354-.351.533-.081.261-.124.448-.101.629.016.214.057.367.131.509.083.157.16.297.257.404.088.098.216.177.363.269.195.122.364.171.583.196.087.009.168.011.246.004.071-.006.139-.025.206-.042.162-.039.239-.058.323-.095.061-.028.123-.061.182-.101.123-.083.23-.193.355-.321l7.671-7.852c.176-.18.308-.313.419-.466.183-.252.31-.573.377-.955.054-.312.119-.624.186-.935l1.091-5.45,8.393,3.128.002-.003v.003s.472.225.472.225l-.311.523c-.022.033-.047.064-.071.095l-3.729,4.969-.114-.079.111.089-.011.013c-.074.094-.13.18-.175.269-.087.173-.14.354-.16.555-.036.355.075.729.304,1.025.254.33.631.532,1.061.571.374.034.775-.101,1.1-.371.136-.113.255-.278.382-.453l2-2.668,3.047-4.031c.242-.32.435-.576.493-.883.078-.415.01-.838-.187-1.161-.171-.28-.429-.49-.766-.623l-8.778-3.412.935-1.458c.412-.636.835-1.264,1.258-1.893l.723-1.076.425.088,4.772,1.989c.283.126.495.19.688.211.264.028.486.023.682-.015.205-.04.397-.099.586-.183.327-.145.6-.431.889-.734l4.971-5.126c.049-.048.098-.096.141-.148.074-.09.123-.162.152-.226.035-.073.057-.146.08-.219l.039-.116c.057-.164.069-.343.042-.565h0c-.015-.117-.033-.201-.062-.271-.022-.057-.052-.109-.08-.163l-.07-.137c-.073-.156-.2-.295-.368-.408-.157-.106-.345-.22-.538-.266-.379-.09-.821-.013-1.156.201-.083.052-.162.113-.232.179-.039.038-.077.08-.115.122l-4.838,4.992-1.824-.762c-.266-.111-.92-.615-2.629-1.98-.631-.504-1.417-1.132-1.561-1.216-.327-.185-.728-.285-1.224-.304-.234-.008-.471-.008-.7-.007-.278,0-.547,0-.819-.012l-5.059-.242c-.204-.011-.399-.022-.567.004-.386.058-.745.225-1.068.496-.274.229-.539.471-.804.712l-3.314,2.968c-.164.147-.336.298-.5.433-.092.075-.167.188-.255.318l-.062.092c-.08.118-.136.273-.165.458-.031.19-.021.359.036.602.051.221.105.357.189.47.177.238.48.541.924.629.177.035.395.037.583.007.17-.027.348-.095.501-.19.142-.087.263-.205.385-.319l.753-.678,2.601-2.324c.081-.072.163-.145.244-.217l-.028-.044.388-.281.265.357-.204-.393.075-.042-.084-.06.148.024.024-.013.21.025c.077.017.155.029.233.042l.592.104c.272.049.546.097.818.15l.69.134-.142.243.104.35-.526.376Zm7.937,11.076l-.339-.339.339.339Zm-7.944-12.157h.011-.019s.008,0,.008,0Z"/><path class="cls-4" d="m35.322,24.281c.213-1.779,1.835-3.061,3.608-2.85,1.803.215,3.099,1.853,2.882,3.643-.217,1.788-1.859,3.057-3.676,2.84-1.762-.21-3.027-1.844-2.813-3.634Z"/><path class="cls-4" d="m45.72,34.037h-3.061c-.206,0-.402-.08-.55-.222-.621-.6-3.769-3.564-4.671-4.32-.571-.479-1.631-.423-2.492-.224-1.459.337-2.897.736-4.343,1.058-.8.178-1.366.562-1.837,1.214-.602.833-1.181,1.598-1.819,2.414-.474.605-.999,1.217-1.456,1.865-.312.443-.494.945-.332,1.498.201.69.628,1.141,1.345,1.286.646.131,1.14-.127,1.574-.594.285-.306.523-.658.779-.988.607-.785,1.214-1.503,1.822-2.307.459-.607.812-1.223,1.665-1.263.039-.002.088.006.133.023.045.017.103.027.134.084.171.309-.136.917-.202,1.175-.145.564-.256,1.026-.37,1.542-.228,1.03-.473,2.021-.641,3.054-.074.457-.091.906-.024,1.337-1.123,1.344-3.55,4.284-3.929,4.709-.177.199-.488.365-.749.383-2.25.161-4.501.281-6.752.424-.265.016-.532.062-.787.134-1.009.293-1.607,1.216-1.451,2.217.149.965.996,1.696,2.011,1.678.767-.014,1.533-.088,2.3-.132,2.085-.125,4.17-.247,6.255-.365.503-.028.939-.179,1.282-.58,1.017-1.194,2.977-3.506,3.992-4.704.074-.086.135-.162.186-.231.004.005.009.01.013.015.395.472.835.934,1.232,1.371.665.732,1.212,1.124,1.323,2.168.085.8-.092,1.726-.108,2.549-.025,1.28-.14,2.582-.138,3.853.001.99.386,1.722,1.346,2.078,1.032.383,2.183-.146,2.522-1.201.212-.658.188-1.328.22-1.999.091-1.921.147-3.821.236-5.748.056-1.22-.263-2.182-1.086-3.101-.417-.465-.874-.9-1.279-1.388-.345-.416-.812-.754-1.053-1.265-.44-.933.024-1.977.248-2.885s.427-1.691.655-2.561c.113-.431.232-.85.351-1.271.695.668,1.616,1.544,1.879,1.799.162.158.326.312.492.465.157.145.362.227.576.23l3.338.055h1.22c.46,0,.877-.187,1.178-.488.301-.301.488-.718.488-1.178,0-.921-.747-1.666-1.666-1.666Z"/><path class="cls-4" d="m38.09,56.859c-.292,0-.584-.051-.862-.154-.762-.283-1.67-.954-1.672-2.546-.002-.729.035-1.471.072-2.211.027-.553.055-1.105.065-1.653.006-.322.036-.659.065-.998.046-.511.093-1.039.045-1.488-.074-.704-.374-1.018-.871-1.539-.104-.109-.213-.223-.325-.347l-.343-.374c-.173-.188-.35-.379-.522-.574l-.106.125c-1.065,1.257-2.773,3.272-3.7,4.36-.4.469-.936.716-1.635.755-2.085.118-4.169.241-6.253.365-.257.015-.511.033-.766.051-.519.037-1.037.073-1.556.083-.015,0-.029,0-.044,0-1.227,0-2.283-.896-2.47-2.102-.194-1.247.564-2.414,1.806-2.774.298-.084.599-.136.897-.153l2.39-.146c1.452-.087,2.905-.174,4.356-.277.124-.009.315-.11.41-.217.241-.27,1.392-1.655,2.405-2.877l1.374-1.652c-.038-.393-.02-.809.055-1.265.133-.82.315-1.625.493-2.404l.152-.678c.115-.521.228-.987.374-1.557.019-.073.053-.17.092-.279.028-.079.078-.217.112-.341-.343.087-.562.364-.9.822l-.151.204c-.346.458-.692.89-1.039,1.321-.262.326-.523.652-.785.991l-.22.291c-.188.251-.377.503-.589.731-.61.654-1.278.897-2.039.744-.868-.176-1.465-.741-1.727-1.636-.186-.635-.05-1.284.404-1.927.314-.448.662-.878,1.003-1.301.159-.196.315-.391.468-.584.633-.811,1.209-1.57,1.807-2.398.548-.759,1.226-1.207,2.133-1.41.777-.173,1.551-.369,2.326-.564.669-.169,1.34-.338,2.015-.494.741-.171,2.109-.355,2.926.328.928.779,4.087,3.754,4.696,4.344.055.053.127.082.202.082h3.062c1.194,0,2.166.972,2.166,2.166,0,.578-.226,1.122-.635,1.531s-.953.634-1.531.634h-1.22l-3.347-.055c-.339-.006-.66-.135-.907-.363-.17-.158-.337-.314-.502-.475l-1.273-1.22c-.042.152-.083.305-.124.459-.228.868-.43,1.649-.653,2.555-.043.176-.096.358-.148.542-.211.731-.41,1.421-.133,2.009.124.263.347.487.582.726.141.142.279.283.403.434.233.28.485.543.735.805.181.188.359.376.532.568.901,1.007,1.275,2.074,1.212,3.458-.041.914-.076,1.822-.11,2.729-.038,1.005-.077,2.009-.125,3.019l-.014.381c-.018.565-.036,1.149-.229,1.748-.203.631-.643,1.138-1.238,1.427-.335.162-.702.244-1.071.244Zm-4.399-13.447l.412.453c.305.364.606.69.897,1.007l.348.379c.106.117.209.225.308.328.531.556,1.032,1.081,1.143,2.124.059.546.007,1.124-.043,1.682-.027.316-.056.629-.062.929-.011.559-.039,1.121-.067,1.684-.036.723-.072,1.446-.07,2.159,0,.853.315,1.349,1.02,1.61.38.14.787.122,1.149-.053.348-.169.604-.465.724-.833.149-.464.165-.954.181-1.474l.016-.396c.047-1.006.085-2.007.124-3.009.034-.91.069-1.82.111-2.737.051-1.116-.236-1.937-.959-2.745-.165-.185-.337-.364-.51-.544-.267-.278-.533-.559-.782-.858-.106-.128-.226-.248-.345-.369-.271-.274-.578-.584-.775-1.002-.438-.928-.165-1.876.076-2.712.049-.172.098-.341.139-.505.226-.911.428-1.696.657-2.568.095-.363.195-.72.295-1.076l.284-1.008,2.482,2.381c.159.155.32.306.483.457.065.061.153.096.245.097l4.55.055c.312,0,.604-.121.824-.341.221-.221.342-.513.342-.824,0-.643-.523-1.166-1.166-1.166h-3.062c-.337,0-.655-.129-.897-.363-.653-.632-3.771-3.564-4.644-4.296-.344-.288-1.133-.333-2.059-.12-.668.154-1.332.322-1.994.489-.785.198-1.567.396-2.354.571-.672.15-1.133.455-1.54,1.019-.605.838-1.188,1.608-1.83,2.429-.154.198-.314.396-.477.597-.328.406-.661.818-.964,1.249-.277.393-.36.732-.262,1.07.159.545.456.833.965.936.405.083.741-.05,1.108-.445.188-.202.354-.426.52-.648l.231-.305c.265-.343.53-.673.796-1.004.34-.424.681-.848,1.021-1.298l.145-.194c.421-.572.898-1.22,1.896-1.267.111-.003.227.014.334.055.077.026.271.09.392.304.243.439.052.971-.089,1.359-.026.074-.051.139-.063.188-.143.558-.253,1.015-.366,1.525l-.154.683c-.182.799-.353,1.554-.481,2.343-.071.44-.079.826-.023,1.18l.035.224-1.657,1.991c-1.069,1.289-2.175,2.621-2.428,2.904-.269.302-.706.522-1.088.549-1.453.104-2.909.191-4.366.278l-2.389.146c-.229.013-.457.053-.682.116-.761.221-1.212.904-1.094,1.659.112.729.749,1.235,1.508,1.255.501-.009,1.002-.045,1.503-.08.259-.018.518-.037.777-.051,2.084-.125,4.17-.247,6.255-.365.43-.024.708-.146.931-.406.926-1.087,2.634-3.102,3.698-4.357l.292-.345c.065-.076.119-.143.164-.204l.361-.494Z"/></g></g></svg>