<?xml version="1.0" encoding="UTF-8"?><svg id="_レイヤー_2" xmlns="http://www.w3.org/2000/svg" viewBox="0 0 142.933 31.753"><defs><style>.cls-1{fill:#fff;stroke-width:0px;}</style></defs><g id="_レイヤー_1-2"><path class="cls-1" d="m13.769,1.19h.407l5.848,23.355h-3.569l-.985-4.283H5.983l-2.481,4.283H0L13.769,1.19Zm1.02,16.216l-1.462-6.323c-.34-1.325-.476-3.161-.476-3.229-.034.068-.748,1.836-1.53,3.162l-3.672,6.391h7.14Z"/><path class="cls-1" d="m25.228,17.984c0-4.93,3.229-8.023,7.071-8.023,2.346,0,4.216,1.225,5.065,3.196l2.346-13.157h3.366l-3.706,20.977c-.103.68.067.985.646.985h1.156l-.441,2.584h-1.633c-2.651,0-3.127-.918-3.127-2.277l.033-.341c-1.054,1.836-2.753,2.924-4.861,2.924-3.434,0-5.915-2.753-5.915-6.867Zm11.457-.918c.034-2.447-1.394-4.147-3.672-4.147-2.618,0-4.284,2.04-4.284,4.998,0,2.413,1.36,4.011,3.57,4.011,2.55,0,4.386-2.039,4.386-4.861Z"/><path class="cls-1" d="m45.423,17.679c0-4.521,3.468-7.718,7.819-7.718,4.113,0,7.31,3.061,7.31,7.208,0,4.521-3.434,7.683-7.819,7.683-4.113,0-7.31-3.094-7.31-7.173Zm11.661-.544c0-2.516-1.529-4.25-3.943-4.25-2.55,0-4.25,2.04-4.25,4.862,0,2.481,1.564,4.215,3.943,4.215,2.584,0,4.25-2.039,4.25-4.827Z"/><path class="cls-1" d="m66.979,10.268h3.366l-.544,2.516c1.156-1.768,2.787-2.822,4.76-2.822,3.434,0,5.949,2.72,5.949,6.868,0,4.793-3.229,8.022-6.97,8.022-2.447,0-4.317-1.325-5.167-3.434l-1.802,10.335h-3.366l3.773-21.485Zm10.029,6.663c0-2.447-1.394-4.012-3.604-4.012-2.55,0-4.386,2.006-4.386,4.861,0,2.414,1.394,4.147,3.672,4.147,2.618,0,4.317-2.073,4.317-4.997Z"/><path class="cls-1" d="m86.291,19.65l1.155-6.562h-2.107l.476-2.821h2.143l.883-5.065h3.332l-.884,5.065h3.672l-.51,2.821h-3.638l-1.19,6.697c-.306,1.632.171,2.176,1.088,2.176.816,0,1.36-.34,1.769-.646l1.189,2.346c-.748.612-1.699,1.189-3.535,1.189-2.482,0-4.521-1.292-3.842-5.201Z"/><path class="cls-1" d="m98.598,20.908l1.836-10.641h3.4l-1.904,10.709c-.102.68.068.985.646.985h1.189l-.441,2.584h-1.666c-2.652,0-3.57-.884-3.061-3.638Zm2.312-16.183c0-1.292,1.02-2.176,2.176-2.176,1.189,0,2.244.884,2.244,2.176,0,1.326-1.021,2.21-2.21,2.21-1.156,0-2.21-.884-2.21-2.21Z"/><path class="cls-1" d="m108.322,17.679c0-4.521,3.468-7.718,7.819-7.718,4.113,0,7.31,3.061,7.31,7.208,0,4.521-3.435,7.683-7.82,7.683-4.113,0-7.309-3.094-7.309-7.173Zm11.66-.544c0-2.516-1.529-4.25-3.943-4.25-2.55,0-4.249,2.04-4.249,4.862,0,2.481,1.563,4.215,3.943,4.215,2.584,0,4.249-2.039,4.249-4.827Z"/><path class="cls-1" d="m129.878,10.268h3.365l-.577,2.72c1.088-1.87,2.686-3.026,4.861-3.026,3.127,0,5.1,2.55,4.385,6.527l-.781,4.488c-.103.68.067.985.646.985h1.156l-.442,2.584h-1.632c-2.651,0-3.569-.884-3.06-3.638l.714-4.249c.408-2.347-.476-3.672-2.481-3.672-2.176,0-3.468,1.189-3.91,3.672l-1.394,7.887h-3.366l2.517-14.278Z"/></g></svg>