<?xml version="1.0" encoding="UTF-8"?><svg id="_レイヤー_2" xmlns="http://www.w3.org/2000/svg" viewBox="0 0 166.97 32.093"><defs><style>.cls-1{fill:#fff;stroke-width:0px;}</style></defs><g id="_レイヤー_1-2"><path class="cls-1" d="m0,13.565C0,6.392,5.609,1.156,12.307,1.156c4.216,0,7.071,1.598,9.043,4.624l-2.822,1.903c-1.291-2.006-3.229-3.399-6.322-3.399-4.93,0-8.533,4.079-8.533,9.281,0,4.759,3.161,8.159,7.445,8.159,3.195,0,5.167-1.395,6.629-3.128l2.584,2.107c-2.278,2.788-5.066,4.147-9.315,4.147C4.657,24.852,0,19.99,0,13.565Z"/><path class="cls-1" d="m24.888,17.679c0-4.521,3.468-7.718,7.819-7.718,4.113,0,7.309,3.061,7.309,7.208,0,4.521-3.434,7.683-7.818,7.683-4.114,0-7.31-3.094-7.31-7.173Zm11.661-.544c0-2.516-1.53-4.25-3.944-4.25-2.55,0-4.249,2.04-4.249,4.862,0,2.481,1.563,4.215,3.943,4.215,2.584,0,4.25-2.039,4.25-4.827Z"/><path class="cls-1" d="m46.443,10.268h3.365l-.578,2.72c1.088-1.87,2.686-3.026,4.861-3.026,3.128,0,5.1,2.55,4.387,6.527l-.782,4.488c-.103.68.067.985.646.985h1.156l-.442,2.584h-1.632c-2.651,0-3.569-.884-3.06-3.638l.714-4.249c.408-2.347-.476-3.672-2.481-3.672-2.176,0-3.468,1.189-3.909,3.672l-1.395,7.887h-3.365l2.516-14.278Z"/><path class="cls-1" d="m62.525,21.792l2.413-1.632c.816,1.224,1.87,2.006,3.638,2.006,1.666,0,2.312-.612,2.312-1.529s-.748-1.19-2.891-2.21c-1.972-.986-3.399-2.108-3.399-4.284,0-2.72,2.21-4.182,4.964-4.182,2.277,0,3.808.952,4.827,2.244l-2.243,1.836c-.578-.782-1.292-1.462-2.618-1.462-1.054,0-1.802.476-1.802,1.326,0,.815.714,1.258,2.346,2.006,2.244,1.02,4.046,2.039,4.046,4.419,0,2.72-1.87,4.521-5.575,4.521-2.924,0-4.964-1.325-6.018-3.06Z"/><path class="cls-1" d="m79.593,18.358l1.428-8.091h3.366l-1.395,7.921c-.408,2.312.477,3.672,2.516,3.672,2.176,0,3.434-1.224,3.91-3.706l1.394-7.887h3.366l-1.87,10.709c-.136.68.034.985.612.985h1.155l-.442,2.584h-1.631c-2.618,0-3.128-1.054-3.094-2.277v-.238c-1.225,1.87-2.721,2.821-4.896,2.821-3.127,0-5.099-2.516-4.419-6.493Z"/><path class="cls-1" d="m98.734,20.908l3.672-20.908h3.365l-3.705,20.977c-.102.68.034.985.646.985h1.394l-.442,2.584h-1.869c-2.652,0-3.57-.884-3.061-3.638Z"/><path class="cls-1" d="m109.818,19.65l1.155-6.562h-2.107l.476-2.821h2.143l.883-5.065h3.332l-.884,5.065h3.672l-.51,2.821h-3.638l-1.19,6.697c-.306,1.632.171,2.176,1.088,2.176.816,0,1.36-.34,1.769-.646l1.189,2.346c-.748.612-1.699,1.189-3.535,1.189-2.482,0-4.521-1.292-3.842-5.201Z"/><path class="cls-1" d="m122.125,20.908l1.836-10.641h3.4l-1.904,10.709c-.102.68.068.985.646.985h1.189l-.441,2.584h-1.666c-2.652,0-3.57-.884-3.061-3.638Zm2.312-16.183c0-1.292,1.02-2.176,2.176-2.176,1.189,0,2.244.884,2.244,2.176,0,1.326-1.021,2.21-2.21,2.21-1.156,0-2.21-.884-2.21-2.21Z"/><path class="cls-1" d="m133.855,10.268h3.365l-.578,2.72c1.088-1.87,2.687-3.026,4.862-3.026,3.128,0,5.1,2.55,4.386,6.527l-.782,4.488c-.103.68.067.985.646.985h1.156l-.441,2.584h-1.633c-2.651,0-3.569-.884-3.06-3.638l.714-4.249c.408-2.347-.476-3.672-2.481-3.672-2.176,0-3.468,1.189-3.909,3.672l-1.395,7.887h-3.365l2.516-14.278Z"/><path class="cls-1" d="m149.563,28.863l2.312-2.04c1.02,1.462,2.346,2.38,4.487,2.38,2.448,0,4.046-1.359,4.624-4.317l.51-2.651c-1.054,1.563-2.55,2.617-4.658,2.617-3.399,0-5.881-2.753-5.881-6.867,0-4.93,3.229-8.023,7.071-8.023,2.312,0,4.284,1.19,5.134,3.4l.441-3.094h3.366l-2.652,15.061c-.85,4.827-3.943,6.765-7.955,6.765-3.399,0-5.745-1.529-6.799-3.229Zm12.851-11.797c0-2.447-1.395-4.147-3.672-4.147-2.617,0-4.283,2.04-4.283,4.998,0,2.413,1.359,4.011,3.569,4.011,2.55,0,4.386-2.039,4.386-4.861Z"/></g></svg>