<?xml version="1.0" encoding="UTF-8"?><svg id="_レイヤー_2" xmlns="http://www.w3.org/2000/svg" xmlns:xlink="http://www.w3.org/1999/xlink" viewBox="0 0 100 100"><defs><style>.cls-1{clip-path:url(#clippath);}.cls-2{fill:none;}.cls-2,.cls-3,.cls-4,.cls-5{stroke-width:0px;}.cls-3{fill:#14509f;}.cls-4{fill:#64aee5;}.cls-5{fill:#fff;}</style><clipPath id="clippath"><rect class="cls-2" width="100" height="100"/></clipPath></defs><g id="_レイヤー_1-2"><g class="cls-1"><circle class="cls-5" cx="49.861" cy="50.139" r="48.861"/><path class="cls-4" d="m38.657,48.325s0-.002,0-.002c-2.554-5.719-2.126-12.317,1.143-17.648,2.646-4.314,6.812-7.34,11.734-8.519,4.921-1.179,10.008-.372,14.321,2.273,3.275,2.008,5.829,4.916,7.389,8.409,2.556,5.718,2.129,12.315-1.141,17.646-2.645,4.315-6.814,7.339-11.735,8.52-4.92,1.181-10.007.372-14.321-2.273-3.273-2.006-5.827-4.914-7.388-8.405h0Zm30.952-13.861c-1.232-2.758-3.25-5.054-5.837-6.64-3.406-2.089-7.423-2.727-11.311-1.796-3.887.931-7.178,3.322-9.267,6.729-2.583,4.211-2.919,9.422-.902,13.94,0,0,0,0,0,0,1.231,2.757,3.249,5.052,5.835,6.638,3.407,2.089,7.424,2.728,11.311,1.795,3.887-.932,7.178-3.321,9.268-6.729,2.582-4.21,2.92-9.42.902-13.938h0Z"/><path class="cls-3" d="m30.331,75.029s-.017,2.261,2.395,3.672c2.411,1.411,4.138.334,4.138.334l10.77-17.648-6.531-4.005-10.771,17.648Z"/><path class="cls-4" d="m42.981,54.399l6.533,4.005s-1.518-.272-2.167.784c-.65,1.057.283,2.289.283,2.289l-6.534-4.006s1.518.271,2.167-.785c.648-1.058-.283-2.287-.283-2.287Z"/></g></g></svg>