<?xml version="1.0" encoding="UTF-8"?><svg id="_レイヤー_2" xmlns="http://www.w3.org/2000/svg" viewBox="0 0 184.719 32.093"><defs><style>.cls-1{fill:#fff;stroke-width:0px;}</style></defs><g id="_レイヤー_1-2"><path class="cls-1" d="m0,13.565C0,6.12,5.609,1.156,12.341,1.156c6.255,0,11.117,4.624,11.117,11.253,0,7.445-5.644,12.442-12.341,12.442C4.828,24.852,0,20.194,0,13.565Zm19.854-1.225c0-4.827-3.127-8.057-7.615-8.057-5.064,0-8.635,3.842-8.635,9.349,0,4.794,3.094,8.092,7.615,8.092,5.1,0,8.635-3.876,8.635-9.384Z"/><path class="cls-1" d="m29.308,10.268h3.366l-.578,2.72c1.088-1.87,2.686-3.026,4.861-3.026,3.128,0,5.1,2.55,4.386,6.527l-.782,4.488c-.102.68.068.985.646.985h1.155l-.441,2.584h-1.632c-2.652,0-3.57-.884-3.061-3.638l.715-4.249c.408-2.347-.477-3.672-2.482-3.672-2.176,0-3.467,1.189-3.909,3.672l-1.394,7.887h-3.366l2.516-14.278Z"/><path class="cls-1" d="m49.877,21.214l-.441,3.332h-3.366L50.354,0h3.365l-2.21,12.613c1.088-1.632,2.686-2.652,4.657-2.652,3.4,0,5.916,2.72,5.916,6.868,0,4.793-3.195,8.022-6.936,8.022-2.447,0-4.42-1.325-5.27-3.638Zm8.703-4.283c0-2.447-1.394-4.012-3.604-4.012-2.516,0-4.352,2.006-4.352,4.861,0,2.414,1.394,4.147,3.672,4.147,2.617,0,4.283-2.073,4.283-4.997Z"/><path class="cls-1" d="m66.436,17.679c0-4.521,3.468-7.718,7.819-7.718,4.113,0,7.31,3.061,7.31,7.208,0,4.521-3.435,7.683-7.82,7.683-4.113,0-7.309-3.094-7.309-7.173Zm11.66-.544c0-2.516-1.529-4.25-3.943-4.25-2.55,0-4.249,2.04-4.249,4.862,0,2.481,1.563,4.215,3.943,4.215,2.584,0,4.249-2.039,4.249-4.827Z"/><path class="cls-1" d="m85.917,17.984c0-4.93,3.162-8.023,6.901-8.023,2.244,0,4.147,1.19,4.964,3.4l.441-3.094h3.366l-1.87,10.709c-.103.68.068.985.646.985h1.156l-.441,2.584h-1.633c-2.651,0-3.094-.918-3.094-2.244v-.306c-1.155,1.836-2.583,2.855-4.691,2.855-3.264,0-5.745-2.686-5.745-6.867Zm11.117-.918c0-2.447-1.292-4.147-3.502-4.147-2.516,0-4.113,2.04-4.113,4.998,0,2.413,1.292,4.011,3.434,4.011,2.413,0,4.182-2.039,4.182-4.861Z"/><path class="cls-1" d="m107.711,10.268h3.365l-.646,2.924c1.258-2.312,2.72-3.196,4.419-3.196.918,0,1.463.204,2.006.51l-1.291,3.061c-.477-.307-.986-.408-1.632-.408-2.142,0-3.604,1.258-4.182,4.487l-1.19,6.901h-3.365l2.516-14.278Z"/><path class="cls-1" d="m119.373,17.984c0-4.93,3.229-8.023,7.071-8.023,2.346,0,4.216,1.225,5.065,3.196l2.346-13.157h3.365l-3.705,20.977c-.103.68.067.985.646.985h1.156l-.442,2.584h-1.632c-2.651,0-3.128-.918-3.128-2.277l.034-.341c-1.054,1.836-2.753,2.924-4.861,2.924-3.434,0-5.915-2.753-5.915-6.867Zm11.457-.918c.033-2.447-1.395-4.147-3.672-4.147-2.618,0-4.283,2.04-4.283,4.998,0,2.413,1.359,4.011,3.569,4.011,2.55,0,4.386-2.039,4.386-4.861Z"/><path class="cls-1" d="m139.875,20.908l1.835-10.641h3.399l-1.903,10.709c-.103.68.067.985.646.985h1.19l-.442,2.584h-1.666c-2.651,0-3.569-.884-3.059-3.638Zm2.311-16.183c0-1.292,1.021-2.176,2.176-2.176,1.19,0,2.244.884,2.244,2.176,0,1.326-1.02,2.21-2.209,2.21-1.156,0-2.211-.884-2.211-2.21Z"/><path class="cls-1" d="m151.604,10.268h3.365l-.577,2.72c1.088-1.87,2.686-3.026,4.861-3.026,3.127,0,5.1,2.55,4.385,6.527l-.781,4.488c-.103.68.067.985.646.985h1.156l-.442,2.584h-1.632c-2.651,0-3.569-.884-3.06-3.638l.714-4.249c.408-2.347-.476-3.672-2.481-3.672-2.176,0-3.468,1.189-3.91,3.672l-1.394,7.887h-3.366l2.517-14.278Z"/><path class="cls-1" d="m167.312,28.863l2.312-2.04c1.02,1.462,2.346,2.38,4.487,2.38,2.447,0,4.045-1.359,4.623-4.317l.51-2.651c-1.053,1.563-2.549,2.617-4.657,2.617-3.399,0-5.881-2.753-5.881-6.867,0-4.93,3.229-8.023,7.071-8.023,2.312,0,4.283,1.19,5.133,3.4l.442-3.094h3.366l-2.652,15.061c-.85,4.827-3.943,6.765-7.955,6.765-3.399,0-5.746-1.529-6.799-3.229Zm12.85-11.797c0-2.447-1.394-4.147-3.671-4.147-2.618,0-4.284,2.04-4.284,4.998,0,2.413,1.36,4.011,3.57,4.011,2.55,0,4.385-2.039,4.385-4.861Z"/></g></svg>