<?xml version="1.0" encoding="UTF-8"?><svg id="_レイヤー_2" xmlns="http://www.w3.org/2000/svg" xmlns:xlink="http://www.w3.org/1999/xlink" viewBox="0 0 99.722 99.722"><defs><style>.cls-1{clip-path:url(#clippath);}.cls-2{fill:none;}.cls-2,.cls-3,.cls-4,.cls-5{stroke-width:0px;}.cls-3{fill:#14509f;}.cls-4{fill:#64aee5;}.cls-5{fill:#fff;}</style><clipPath id="clippath"><rect class="cls-2" width="99.722" height="99.722"/></clipPath></defs><g id="_レイヤー_2-2"><g class="cls-1"><circle class="cls-5" cx="49.861" cy="49.861" r="48.861"/><rect class="cls-4" x="44.849" y="55.219" width="40.755" height="12.628" rx="2.677" ry="2.677"/><circle class="cls-3" cx="51.865" cy="61.533" r="2.664"/><rect class="cls-5" x="65.909" y="58.376" width="1.903" height="6.511"/><rect class="cls-5" x="70.578" y="58.376" width="1.903" height="6.511"/><rect class="cls-5" x="75.248" y="58.376" width="1.903" height="6.511"/><rect class="cls-5" x="79.918" y="58.376" width="1.903" height="6.511"/><rect class="cls-4" x="44.849" y="39.806" width="40.755" height="12.628" rx="2.677" ry="2.677"/><circle class="cls-3" cx="51.865" cy="46.12" r="2.664"/><rect class="cls-5" x="65.909" y="42.963" width="1.903" height="6.511"/><rect class="cls-5" x="70.578" y="42.963" width="1.903" height="6.511"/><rect class="cls-5" x="75.248" y="42.963" width="1.903" height="6.511"/><rect class="cls-5" x="79.918" y="42.963" width="1.903" height="6.511"/><rect class="cls-4" x="44.849" y="24.393" width="40.755" height="12.628" rx="2.677" ry="2.677"/><circle class="cls-3" cx="51.865" cy="30.707" r="2.664"/><rect class="cls-5" x="65.909" y="27.55" width="1.903" height="6.511"/><rect class="cls-5" x="70.578" y="27.55" width="1.903" height="6.511"/><rect class="cls-5" x="75.248" y="27.55" width="1.903" height="6.511"/><rect class="cls-5" x="79.918" y="27.55" width="1.903" height="6.511"/><rect class="cls-5" x="11.487" y="34.061" width="28.429" height="20.263" rx="3" ry="3"/><path class="cls-3" d="m36.917,55.075H14.488c-2.068,0-3.75-1.683-3.75-3.75v-14.264c0-2.068,1.682-3.75,3.75-3.75h22.429c2.068,0,3.75,1.682,3.75,3.75v14.264c0,2.067-1.682,3.75-3.75,3.75Zm-22.429-20.264c-1.241,0-2.25,1.009-2.25,2.25v14.264c0,1.24,1.009,2.25,2.25,2.25h22.429c1.241,0,2.25-1.01,2.25-2.25v-14.264c0-1.241-1.009-2.25-2.25-2.25H14.488Z"/><path class="cls-3" d="m18.813,42.638c-.002.192-.261.492-.541.605-.151.061-.383.064-.541-.045l-.849-.588c-.158-.109-.388-.079-.512.068l-.47.557c-.124.147-.115.379.019.516l.724.738c.134.137.169.382.047.807-.045.158-.226.319-.415.353l-1.019.185c-.189.034-.33.219-.314.41l.062.725c.016.191.187.349.378.351l1.04.01c.192.002.44.205.604.536.072.145.064.38-.046.538l-.593.856c-.109.158-.079.388.068.512l.557.47c.147.124.379.115.516-.019l.747-.732c.137-.134.426-.157.8-.05.156.044.315.225.349.414l.187,1.031c.034.189.219.33.41.314l.726-.062c.191-.016.349-.187.351-.378l.01-1.05c.002-.192.246-.474.531-.6.147-.065.379-.061.536.048l.863.598c.158.109.388.079.512-.068l.469-.556c.124-.147.115-.379-.019-.516l-.734-.749c-.134-.137-.133-.455-.048-.798.039-.158.226-.314.415-.348l1.03-.187c.189-.034.33-.219.314-.41l-.062-.726c-.016-.191-.187-.349-.379-.351l-1.043-.011c-.192-.002-.435-.231-.601-.536-.077-.142-.062-.381.047-.539l.593-.856c.109-.158.079-.388-.068-.512l-.557-.469c-.147-.124-.379-.115-.516.019l-.74.726c-.137.134-.424.158-.806.046-.158-.046-.318-.227-.352-.416l-.185-1.018c-.034-.189-.219-.33-.41-.314l-.725.062c-.191.016-.349.187-.351.378l-.01,1.033Zm.973,1.524c1.11-.094,2.09.732,2.184,1.842.095,1.11-.731,2.09-1.841,2.184-1.11.094-2.09-.732-2.184-1.842-.094-1.109.732-2.09,1.842-2.184Z"/><path class="cls-4" d="m28.785,38.559c.011.219-.266.579-.578.727-.169.08-.433.099-.621-.016l-1.009-.616c-.187-.114-.448-.064-.58.112l-.499.667c-.132.176-.106.441.056.588l.876.795c.163.148.218.425.108.918-.041.184-.237.379-.45.431l-1.152.28c-.213.052-.362.272-.331.489l.119.824c.031.217.236.387.456.376l1.189-.057c.219-.011.516.205.726.573.092.161.098.43-.016.618l-.621,1.018c-.114.188-.064.449.112.58l.667.499c.176.132.44.106.588-.056l.805-.886c.148-.163.476-.207.911-.111.181.04.375.236.426.45l.282,1.166c.052.213.272.362.489.331l.825-.119c.217-.031.387-.236.376-.456l-.058-1.2c-.011-.219.25-.558.567-.721.163-.084.428-.095.616.019l1.026.626c.188.114.448.064.58-.112l.498-.667c.131-.176.106-.441-.057-.588l-.889-.807c-.163-.148-.182-.511-.108-.909.034-.183.238-.374.451-.426l1.164-.282c.213-.052.362-.272.331-.489l-.119-.825c-.031-.217-.237-.387-.456-.376l-1.192.057c-.219.011-.513-.235-.723-.573-.098-.157-.096-.431.018-.619l.62-1.017c.114-.188.064-.449-.112-.58l-.667-.499c-.176-.132-.441-.106-.588.057l-.797.878c-.148.163-.474.208-.917.106-.183-.043-.379-.238-.43-.452l-.279-1.151c-.052-.213-.272-.362-.489-.331l-.825.119c-.217.031-.387.236-.376.456l.057,1.181Zm1.213,1.676c1.262-.182,2.437.697,2.618,1.959.182,1.262-.696,2.437-1.958,2.618-1.262.182-2.437-.697-2.618-1.959-.181-1.261.697-2.436,1.958-2.618Z"/><path class="cls-3" d="m48.604,67.62c-.091-.362-.296-.686-.56-.949l-.025-.025c-.374-.377-.911-.594-1.47-.594s-1.101.219-1.48.6l-2.008,2.008c-.112.112-.279.177-.457.177s-.344-.064-.457-.177l-5.225-5.268c-.37-.373-.874-.578-1.398-.584,0,0-.002,0-.003,0-.039-.004-.073-.004-.112-.004,0,0-8.831,0-8.87.004-3.557.056-5.914,1.362-5.914,4.931v12.561c0,1.121.909,2.029,2.029,2.029h11.699s.043,0,.043,0c1.121,0,2.029-.909,2.029-2.03v-5.168l-.002-6.213.12.118c.957.943,1.707,1.687,2.536,2.51l1.231,1.221c.623.623,1.333.94,2.113.94,1.014,0,2.113-.542,3.096-1.524l2.542-2.545c.519-.52.73-1.267.541-2.019Z"/><path class="cls-5" d="m35.41,62.804c.039,0,.073,0,.112.004,0,0,.002,0,.003,0,.525.007,1.028.211,1.398.584l5.225,5.268c.112.113.279.177.457.177s.344-.064.457-.177l2.008-2.008c.379-.381.918-.6,1.48-.6s1.096.217,1.47.594l.025.025c.264.263.469.588.56.949.189.751-.022,1.499-.541,2.019l-2.542,2.545c-.983.983-2.083,1.524-3.096,1.524-.779,0-1.49-.317-2.113-.94l-1.231-1.221c-.829-.823-1.579-1.568-2.536-2.51l-.12-.118.002,6.213v5.168c0,1.121-.909,2.03-2.029,2.03h-11.699s-.043,0-.043,0c-1.121,0-2.029-.909-2.029-2.029v-12.561c0-3.57,2.357-4.875,5.914-4.931.039-.004,8.87-.004,8.87-.004m0-2.193c-6.855,0-8.459,0-8.904.008v-.003c-2.427.038-8.072.809-8.072,7.124v12.561c0,2.328,1.894,4.222,4.222,4.222h11.699c2.371,0,4.265-1.894,4.265-4.222v-6.121s.147.146.147.146c1.028,1.029,2.295,1.576,3.657,1.576,1.599,0,3.25-.77,4.647-2.167l2.543-2.546c1.075-1.077,1.492-2.612,1.116-4.105-.182-.725-.576-1.405-1.138-1.966-.801-.807-1.904-1.26-3.044-1.26s-2.248.455-3.036,1.248l-.904.904-4.129-4.163c-.755-.761-1.762-1.196-2.843-1.231-.075-.005-.147-.006-.227-.006h0Z"/><path class="cls-3" d="m29.717,50.232c3.012,0,5.462,2.45,5.462,5.461s-2.45,5.461-5.462,5.461-5.461-2.45-5.461-5.461,2.45-5.461,5.461-5.461Z"/></g></g></svg>