<?xml version="1.0" encoding="UTF-8"?><svg id="_レイヤー_2" xmlns="http://www.w3.org/2000/svg" xmlns:xlink="http://www.w3.org/1999/xlink" viewBox="0 0 99.722 99.722"><defs><style>.cls-1{clip-path:url(#clippath);}.cls-2{fill:none;}.cls-2,.cls-3,.cls-4,.cls-5{stroke-width:0px;}.cls-3{fill:#14509f;}.cls-4{fill:#64aee5;}.cls-5{fill:#fff;}</style><clipPath id="clippath"><rect class="cls-2" width="99.722" height="99.722"/></clipPath></defs><g id="_レイヤー_2-2"><g class="cls-1"><circle class="cls-5" cx="49.861" cy="49.861" r="48.861"/><path class="cls-3" d="m69.781,57.062l-1.405-1.73c-4.716-5.296-11.487-9.169-13.745-10.381l-1.212,1.923c-.896,1.44-2.687,2.134-4.33,1.686-.027-.009-.071-.026-.097-.035-1.958-.65-3.109-2.661-2.652-4.655.412-1.809,1.098-3.504,2.028-5.068l-2.055-.29c-1.413-.202-2.89.071-4.137.755l-1.151.624c-1.466.808-3.196.896-4.742.264l-2.477-1.028-9.494,14.842,3.504,2.354,1.863-1.862c.711-.711,1.659-1.106,2.67-1.106s1.958.396,2.67,1.106c.632.624.993,1.441,1.072,2.319,1.247-.317,2.626,0,3.601.975.711.711,1.098,1.66,1.098,2.67,0,.316-.044.623-.123.922.878.088,1.686.448,2.309,1.072h.009c.966.975,1.282,2.354.975,3.601.869.079,1.686.439,2.309,1.063v.009c.711.711,1.106,1.66,1.106,2.67,0,.878-.298,1.704-.834,2.371l1.941,2.38c1.028.993,2.775.983,3.786-.035.51-.509.79-1.185.79-1.906,0-.685-.254-1.326-.711-1.818l-.799-.799c-.377-.378-.377-.993,0-1.371.378-.377.983-.377,1.361,0l.817.817.65.658c1.054,1.045,2.766,1.045,3.82,0,.018-.026.044-.044.071-.07.975-1.045.966-2.696-.053-3.724l-1.643-1.642c-.378-.378-.378-.984,0-1.362.378-.378.993-.378,1.37-.009l2.371,2.372c1.028,1.027,2.793,1.027,3.812,0,.51-.509.79-1.186.79-1.906,0-.694-.254-1.344-.729-1.844l-2.477-2.468c-.184-.193-.281-.439-.281-.685s.097-.501.281-.685c.378-.377.993-.377,1.37,0l3.031,3.03c.57.571,1.37.878,2.169.861.737-.009,1.397-.307,1.87-.817.448-.501.703-1.142.703-1.818,0-.342-.07-.676-.193-.992-.281-.422-.571-.834-.878-1.238Z"/><path class="cls-3" d="m32.271,34.868l-4.471-2.854c-.763-.492-1.791-.264-2.274.5l-11.409,17.855c-.491.764-.264,1.792.501,2.284l4.47,2.854c.378.237.817.316,1.247.22.431-.097.799-.351,1.036-.72l11.409-17.855c.484-.773.264-1.792-.509-2.283Z"/><path class="cls-4" d="m58.569,38.63l-3.476-1.173c-1.741-.58-3.62.094-4.597,1.554l-.155.243c-.991,1.525-1.706,3.224-2.122,5.044-.23,1.008.386,2.064,1.402,2.403.822.224,1.699-.113,2.158-.85l1.689-2.682c.182-.289.495-.451.819-.451.143,0,.288.032.425.099.514.252,12.301,6.106,17.737,14.685l5.648-3.218-9.678-15.157c-3.27.747-6.652.586-9.85-.494Z"/><path class="cls-4" d="m44.905,68.452c-.346-.346-.81-.537-1.305-.537s-.96.191-1.308.538l-2.559,2.559c-.719.721-.719,1.892.002,2.613.693.692,1.919.693,2.611,0l2.56-2.559c.346-.347.537-.811.537-1.306s-.191-.959-.537-1.306c0,0,0,0,0,0Z"/><path class="cls-4" d="m41.614,63.786c-.346-.347-.81-.538-1.306-.538s-.959.191-1.305.537l-3.248,3.248c-.346.347-.538.811-.538,1.306s.192.959.538,1.307c.694.694,1.919.693,2.612,0l3.248-3.247c.72-.72.72-1.892,0-2.613Z"/><path class="cls-4" d="m38.863,60.425c0-.496-.192-.959-.538-1.307-.36-.36-.833-.54-1.307-.54s-.946.18-1.306.54l-3.936,3.936c-.346.347-.538.811-.538,1.306s.192.959.538,1.306c.694.693,1.918.694,2.613,0l3.936-3.936c.346-.347.538-.811.538-1.306Z"/><path class="cls-4" d="m33.657,55.828h0c-.346-.346-.81-.537-1.305-.537s-.96.191-1.308.537l-3.246,3.248c-.347.347-.539.811-.539,1.306s.192.959.538,1.306c.72.72,1.892.721,2.614,0l3.247-3.247c.72-.72.72-1.892,0-2.613Z"/><path class="cls-4" d="m88.11,50.369l-11.409-17.855c-.237-.369-.606-.632-1.036-.72-.43-.097-.869-.017-1.247.22l-4.47,2.854c-.764.492-.993,1.51-.501,2.283l11.409,17.855c.491.764,1.511.993,2.274.501l4.471-2.854c.773-.492.992-1.52.509-2.284Z"/></g></g></svg>