<?xml version="1.0" encoding="UTF-8"?><svg id="_レイヤー_2" xmlns="http://www.w3.org/2000/svg" viewBox="0 0 101.951 24.852"><defs><style>.cls-1{fill:#fff;stroke-width:0px;}</style></defs><g id="_レイヤー_1-2"><path class="cls-1" d="m9.485,15.911h-4.488l-1.496,8.635H0L4.079,1.429h6.766c4.521,0,7.649,2.312,7.684,6.73,0,3.774-2.278,6.324-5.609,7.31l4.215,9.077h-3.739l-3.909-8.635Zm.102-2.924c3.434,0,5.338-1.666,5.338-4.691,0-2.448-1.633-3.842-4.42-3.842h-3.468l-1.495,8.533h4.045Z"/><path class="cls-1" d="m30.259,22.064c1.904,0,3.094-.714,3.978-1.496l2.006,2.142c-1.53,1.326-3.365,2.142-6.017,2.142-4.59,0-7.615-2.957-7.615-7.173,0-4.556,3.604-7.718,7.887-7.718,4.827,0,7.377,3.638,6.766,8.567h-11.219c.203,2.006,1.665,3.536,4.215,3.536Zm3.773-5.848c-.033-2.006-1.258-3.536-3.637-3.536-2.244,0-3.774,1.36-4.25,3.536h7.887Z"/><path class="cls-1" d="m40.8,21.792l2.414-1.632c.815,1.224,1.869,2.006,3.637,2.006,1.666,0,2.312-.612,2.312-1.529s-.748-1.19-2.89-2.21c-1.972-.986-3.399-2.108-3.399-4.284,0-2.72,2.209-4.182,4.963-4.182,2.277,0,3.808.952,4.828,2.244l-2.244,1.836c-.578-.782-1.292-1.462-2.618-1.462-1.054,0-1.802.476-1.802,1.326,0,.815.714,1.258,2.346,2.006,2.244,1.02,4.046,2.039,4.046,4.419,0,2.72-1.87,4.521-5.575,4.521-2.924,0-4.964-1.325-6.018-3.06Z"/><path class="cls-1" d="m57.323,17.984c0-4.93,3.162-8.023,6.902-8.023,2.243,0,4.146,1.19,4.963,3.4l.441-3.094h3.366l-1.87,10.709c-.102.68.068.985.646.985h1.156l-.442,2.584h-1.632c-2.652,0-3.094-.918-3.094-2.244v-.306c-1.156,1.836-2.584,2.855-4.691,2.855-3.264,0-5.746-2.686-5.746-6.867Zm11.117-.918c0-2.447-1.292-4.147-3.502-4.147-2.516,0-4.113,2.04-4.113,4.998,0,2.413,1.292,4.011,3.434,4.011,2.414,0,4.182-2.039,4.182-4.861Z"/><path class="cls-1" d="m77.52,20.908l3.672-20.908h3.365l-3.705,20.977c-.103.68.034.985.646.985h1.395l-.442,2.584h-1.87c-2.651,0-3.569-.884-3.06-3.638Z"/><path class="cls-1" d="m94.858,22.064c1.904,0,3.094-.714,3.978-1.496l2.006,2.142c-1.53,1.326-3.366,2.142-6.018,2.142-4.589,0-7.615-2.957-7.615-7.173,0-4.556,3.604-7.718,7.888-7.718,4.827,0,7.377,3.638,6.765,8.567h-11.219c.204,2.006,1.666,3.536,4.216,3.536Zm3.773-5.848c-.034-2.006-1.258-3.536-3.638-3.536-2.243,0-3.773,1.36-4.249,3.536h7.887Z"/></g></svg>