<?xml version="1.0" encoding="UTF-8"?><svg id="_レイヤー_2" xmlns="http://www.w3.org/2000/svg" viewBox="0 0 288.765 120.033"><defs><style>.cls-1{fill:#fff;stroke-width:0px;}</style></defs><g id="_レイヤー_1-2"><path class="cls-1" d="m.48,91.473l6.804-4.536c2.521,4.2,6.636,8.4,13.272,8.4,6.468,0,10.247-3.444,10.247-8.484,0-3.948-2.352-5.88-7.644-9.324l-3.36-2.184c-6.888-4.452-10.415-8.904-10.415-15.96,0-8.652,6.468-14.952,16.8-14.952,7.224,0,12.348,3.696,15.708,8.82l-6.469,5.04c-2.268-3.528-5.124-6.384-9.575-6.384-4.788,0-7.896,2.94-7.896,7.14,0,3.612,1.848,5.796,6.552,8.736l3.36,2.184c7.476,4.704,11.76,8.736,11.76,16.464,0,10.5-7.812,16.548-19.067,16.548-10.332,0-17.305-6.048-20.076-11.508Z"/><path class="cls-1" d="m66.336,96.093c4.704,0,7.644-1.764,9.828-3.696l4.956,5.292c-3.78,3.276-8.316,5.292-14.868,5.292-11.34,0-18.816-7.308-18.816-17.724,0-11.256,8.904-19.068,19.488-19.068,11.928,0,18.228,8.988,16.716,21.168h-27.72c.504,4.956,4.116,8.736,10.416,8.736Zm9.324-14.448c-.085-4.956-3.108-8.736-8.988-8.736-5.544,0-9.324,3.36-10.5,8.736h19.488Z"/><path class="cls-1" d="m90.779,85.173c0-11.004,8.232-18.984,19.236-18.984,6.72,0,11.34,2.856,14.112,6.72l-6.049,4.788c-1.764-2.604-4.535-4.2-8.147-4.2-6.384,0-10.584,4.956-10.584,11.676,0,6.132,3.444,10.584,9.324,10.584,4.284,0,6.636-1.848,8.063-3.108l4.872,5.46c-2.771,2.688-6.888,4.872-12.936,4.872-10.416,0-17.893-7.308-17.893-17.808Z"/><path class="cls-1" d="m130.091,86.937l3.528-19.992h8.316l-3.444,19.572c-1.008,5.712,1.176,9.072,6.216,9.072,5.376,0,8.484-3.024,9.66-9.156l3.444-19.488h8.315l-4.62,26.46c-.336,1.68.084,2.436,1.513,2.436h2.855l-1.092,6.384h-4.032c-6.468,0-7.728-2.604-7.644-5.628v-.588c-3.024,4.62-6.721,6.972-12.097,6.972-7.728,0-12.6-6.216-10.92-16.044Z"/><path class="cls-1" d="m177.131,66.945h8.316l-1.596,7.224c3.107-5.712,6.72-7.896,10.92-7.896,2.268,0,3.611.504,4.956,1.26l-3.192,7.56c-1.176-.756-2.437-1.008-4.032-1.008-5.292,0-8.904,3.108-10.332,11.088l-2.939,17.052h-8.316l6.216-35.28Z"/><path class="cls-1" d="m202.666,93.237l4.536-26.292h8.4l-4.704,26.46c-.252,1.68.168,2.436,1.596,2.436h2.94l-1.093,6.384h-4.115c-6.553,0-8.82-2.184-7.561-8.988Zm5.712-39.984c0-3.192,2.521-5.376,5.376-5.376,2.94,0,5.544,2.184,5.544,5.376,0,3.276-2.52,5.46-5.46,5.46-2.855,0-5.46-2.184-5.46-5.46Z"/><path class="cls-1" d="m226.018,90.129l2.856-16.212h-5.208l1.176-6.972h5.292l2.184-12.516h8.232l-2.184,12.516h9.071l-1.26,6.972h-8.988l-2.939,16.548c-.756,4.032.42,5.376,2.688,5.376,2.017,0,3.36-.84,4.368-1.596l2.94,5.796c-1.849,1.512-4.2,2.94-8.736,2.94-6.132,0-11.172-3.192-9.492-12.852Z"/><path class="cls-1" d="m261.801,98.529l-9.324-31.584h8.82l4.704,17.556c.672,2.604,1.008,6.636,1.092,7.056.084-.42,1.344-4.284,2.771-6.888l10.08-17.724h8.82l-30.66,53.088h-8.82l12.517-21.504Z"/><path class="cls-1" d="m0,13.441l1.944-1.296c.721,1.2,1.896,2.4,3.793,2.4,1.848,0,2.928-.984,2.928-2.424,0-1.128-.672-1.68-2.185-2.664l-.96-.624c-1.968-1.272-2.976-2.544-2.976-4.56C2.545,1.8,4.393,0,7.345,0c2.064,0,3.528,1.056,4.488,2.52l-1.848,1.44c-.648-1.008-1.464-1.824-2.736-1.824-1.368,0-2.256.84-2.256,2.04,0,1.032.527,1.656,1.872,2.496l.96.624c2.136,1.344,3.36,2.496,3.36,4.704,0,3-2.232,4.729-5.448,4.729-2.953,0-4.945-1.728-5.737-3.288Z"/><path class="cls-1" d="m17.521.192h10.153l-.385,2.16h-7.681l-.863,4.896h6.792l-.384,2.136h-6.793l-.888,4.969h8.041l-.408,2.16h-10.465L17.521.192Z"/><path class="cls-1" d="m36.241,10.417h-3.169l-1.056,6.097h-2.473L32.425.192h4.776c3.192,0,5.4,1.632,5.424,4.752,0,2.664-1.607,4.464-3.96,5.16l2.977,6.409h-2.641l-2.76-6.097Zm.071-2.064c2.425,0,3.769-1.176,3.769-3.312,0-1.728-1.152-2.712-3.12-2.712h-2.448l-1.056,6.025h2.855Z"/><path class="cls-1" d="m47.16.192h2.521l2.112,8.569c.288,1.2.528,3.12.552,3.216.024-.096.769-1.92,1.464-3.096L58.729.192h2.568l-9.529,16.489h-.312L47.16.192Z"/><path class="cls-1" d="m65.16.192h2.473l-2.881,16.321h-2.472L65.16.192Z"/><path class="cls-1" d="m70.488,8.761c0-5.064,3.96-8.761,8.688-8.761,2.977,0,4.992,1.128,6.385,3.264l-1.992,1.344c-.912-1.416-2.28-2.4-4.465-2.4-3.48,0-6.024,2.88-6.024,6.552,0,3.36,2.232,5.76,5.257,5.76,2.256,0,3.648-.984,4.68-2.208l1.824,1.488c-1.607,1.968-3.576,2.928-6.576,2.928-4.488,0-7.776-3.432-7.776-7.969Z"/><path class="cls-1" d="m90.984.192h10.152l-.384,2.16h-7.681l-.864,4.896h6.793l-.385,2.136h-6.792l-.889,4.969h8.041l-.408,2.16h-10.465L90.984.192Z"/></g></svg>