<?xml version="1.0" encoding="UTF-8"?><svg id="_レイヤー_2" xmlns="http://www.w3.org/2000/svg" viewBox="0 0 89.638 21.722"><defs><style>.cls-1{fill:#fff;stroke-width:0px;}</style></defs><g id="_レイヤー_1-2"><path class="cls-1" d="m4.776,2.16H0L.384,0h11.977l-.384,2.16h-4.752l-2.497,14.161h-2.472L4.776,2.16Z"/><path class="cls-1" d="m14.64,6.24h2.376l-.456,2.064c.889-1.632,1.92-2.256,3.121-2.256.647,0,1.031.144,1.416.36l-.912,2.16c-.336-.216-.696-.288-1.152-.288-1.512,0-2.545.888-2.952,3.168l-.841,4.873h-2.376l1.776-10.081Z"/><path class="cls-1" d="m22.871,11.689c0-3.48,2.232-5.664,4.872-5.664,1.584,0,2.929.84,3.505,2.4l.312-2.184h2.377l-1.32,7.561c-.072.48.048.696.456.696h.815l-.312,1.824h-1.152c-1.872,0-2.185-.648-2.185-1.584v-.216c-.815,1.296-1.824,2.016-3.312,2.016-2.305,0-4.057-1.896-4.057-4.848Zm7.849-.648c0-1.728-.912-2.928-2.473-2.928-1.775,0-2.904,1.44-2.904,3.528,0,1.704.912,2.833,2.425,2.833,1.704,0,2.952-1.44,2.952-3.433Z"/><path class="cls-1" d="m37.056,13.753l1.296-7.513h2.4l-1.345,7.561c-.072.48.049.696.456.696h.841l-.312,1.824h-1.176c-1.873,0-2.521-.624-2.16-2.568Zm1.632-11.425c0-.912.72-1.536,1.536-1.536.84,0,1.584.624,1.584,1.536,0,.936-.72,1.56-1.561,1.56-.815,0-1.56-.624-1.56-1.56Z"/><path class="cls-1" d="m45.669,6.312h2.377l-.408,1.92c.768-1.32,1.896-2.136,3.432-2.136,2.209,0,3.601,1.8,3.097,4.608l-.552,3.168c-.072.48.048.696.456.696h.815l-.312,1.824h-1.152c-1.872,0-2.521-.624-2.16-2.568l.504-3c.288-1.656-.336-2.592-1.752-2.592-1.536,0-2.448.84-2.761,2.592l-.983,5.569h-2.376l1.775-10.081Z"/><path class="cls-1" d="m57.98,13.825l1.296-7.513h2.4l-1.344,7.561c-.072.48.048.696.456.696h.84l-.312,1.824h-1.177c-1.872,0-2.521-.624-2.16-2.568Zm1.632-11.425c0-.912.721-1.536,1.537-1.536.84,0,1.584.624,1.584,1.536,0,.936-.721,1.56-1.561,1.56-.816,0-1.561-.624-1.561-1.56Z"/><path class="cls-1" d="m66.261,6.312h2.376l-.408,1.92c.769-1.32,1.896-2.136,3.433-2.136,2.208,0,3.6,1.8,3.096,4.608l-.552,3.168c-.071.48.048.696.456.696h.816l-.312,1.824h-1.152c-1.871,0-2.52-.624-2.16-2.568l.505-3c.288-1.656-.337-2.592-1.753-2.592-1.535,0-2.447.84-2.76,2.592l-.984,5.569h-2.376l1.776-10.081Z"/><path class="cls-1" d="m77.349,19.442l1.632-1.44c.72,1.032,1.655,1.68,3.168,1.68,1.729,0,2.856-.96,3.265-3.048l.359-1.872c-.744,1.104-1.8,1.848-3.288,1.848-2.4,0-4.152-1.944-4.152-4.848,0-3.48,2.28-5.664,4.993-5.664,1.632,0,3.023.84,3.624,2.4l.312-2.184h2.377l-1.873,10.633c-.6,3.408-2.784,4.777-5.616,4.777-2.4,0-4.057-1.08-4.8-2.28Zm9.072-8.329c0-1.728-.984-2.928-2.592-2.928-1.849,0-3.024,1.44-3.024,3.528,0,1.704.96,2.833,2.521,2.833,1.8,0,3.096-1.44,3.096-3.433Z"/></g></svg>