<?xml version="1.0" encoding="UTF-8"?><svg id="_レイヤー_2" xmlns="http://www.w3.org/2000/svg" xmlns:xlink="http://www.w3.org/1999/xlink" viewBox="0 0 99.389 99.389"><defs><style>.cls-1{clip-path:url(#clippath);}.cls-2{fill:none;}.cls-2,.cls-3,.cls-4,.cls-5{stroke-width:0px;}.cls-3{fill:#14509f;}.cls-4{fill:#64aee5;}.cls-5{fill:#fff;}</style><clipPath id="clippath"><rect class="cls-2" width="99.389" height="99.389"/></clipPath></defs><g id="_レイヤー_1-2"><g class="cls-1"><circle class="cls-5" cx="49.861" cy="49.528" r="48.861"/><path class="cls-3" d="m84.544,29.919h-45.544c-1.266,0-2.296,1.026-2.296,2.287v31.668c0,1.261,1.03,2.287,2.295,2.287h45.544c1.266,0,2.296-1.026,2.296-2.287v-31.668c0-1.261-1.03-2.287-2.296-2.287Zm.206,33.955c0,.11-.09.197-.206.197h-45.544c-.115,0-.205-.087-.205-.197v-31.668c0-.11.09-.197.206-.197h45.544c.116,0,.206.087.206.197v31.668Z"/><path class="cls-3" d="m19.066,68.919c-.573.656-1.416,1.071-2.354,1.071-1.767,0-3.169-1.402-3.169-3.126v-13.194c0-4.132,3.348-7.548,7.47-7.634.057-.004.111-.005.171-.005h11.387c.062,0,.119.001.178.006.814.026,1.558.347,2.113.907l4.905,4.945,1.688-1.688c.581-.585,1.403-.922,2.255-.922s1.669.335,2.248.918c.442.44.736.945.871,1.48.281,1.115-.028,2.26-.829,3.061l-2.542,2.545c-1.19,1.191-2.565,1.846-3.872,1.846-1.065,0-2.064-.436-2.889-1.261,0,0-1.799-1.786-2.014-1.998l.002,14.12h-15.619s0-1.071,0-1.071Z"/><path class="cls-5" d="m32.57,47.127c.039,0,.073,0,.112.004h.002c.525.007,1.029.211,1.399.584l5.225,5.268c.112.113.278.177.456.177s.345-.064.457-.177l2.008-2.008c.379-.381.918-.6,1.479-.6s1.096.217,1.471.594l.025.025c.264.263.469.587.56.949.189.751-.021,1.499-.541,2.019l-2.542,2.545c-.983.983-2.083,1.524-3.097,1.524-.779,0-1.49-.317-2.112-.94l-1.231-1.222c-.829-.823-1.579-1.567-2.535-2.51l-.12-.118.002,15.651h-13.426s0-12.262,0-12.262c0-.389-.315-.704-.703-.704h-.014c-.386,0-.703.313-.703.704v10.233c0,1.121-.909,2.03-2.03,2.03h-.042c-1.121,0-2.03-.909-2.03-2.03v-13.194c0-3.57,2.875-6.483,6.432-6.539.039-.004.073-.004.112-.004h11.387m0-2.193h-11.387c-.077,0-.148.001-.221.006-4.702.114-8.517,4.014-8.517,8.73v13.194c0,2.328,1.895,4.222,4.224,4.222.454,0,.891-.069,1.299-.198v.198h15.619s2.193,0,2.193,0v-2.193l-.002-10.391.148.148c1.027,1.028,2.294,1.576,3.657,1.576,1.599,0,3.249-.769,4.646-2.166l2.544-2.547c1.075-1.076,1.492-2.611,1.115-4.104-.182-.724-.574-1.405-1.137-1.965-.804-.808-1.906-1.26-3.045-1.26s-2.247.455-3.035,1.248l-.904.904-4.129-4.163c-.755-.762-1.764-1.197-2.846-1.231-.074-.005-.146-.006-.225-.006h0Z"/><path class="cls-3" d="m26.878,34.556c3.012,0,5.462,2.45,5.462,5.461s-2.45,5.461-5.462,5.461-5.461-2.45-5.461-5.461,2.45-5.461,5.461-5.461Z"/><path class="cls-4" d="m78.657,40.919h-12.829c-.577,0-1.045-.468-1.045-1.045s.468-1.045,1.045-1.045h12.829c.577,0,1.045.468,1.045,1.045s-.468,1.045-1.045,1.045Z"/><path class="cls-4" d="m78.657,46.518h-12.829c-.577,0-1.045-.468-1.045-1.045s.468-1.045,1.045-1.045h12.829c.577,0,1.045.468,1.045,1.045s-.468,1.045-1.045,1.045Z"/><path class="cls-4" d="m78.657,52.118h-12.829c-.577,0-1.045-.468-1.045-1.045s.468-1.045,1.045-1.045h12.829c.577,0,1.045.468,1.045,1.045s-.468,1.045-1.045,1.045Z"/><path class="cls-4" d="m78.657,57.717h-12.829c-.577,0-1.045-.468-1.045-1.045s.468-1.045,1.045-1.045h12.829c.577,0,1.045.468,1.045,1.045s-.468,1.045-1.045,1.045Z"/><path class="cls-4" d="m53.086,36.181c-.293-.033-.594-.05-.899-.05s-.606.017-.899.05c-4.08.447-7.253,3.905-7.253,8.102,0,4.502,3.65,8.152,8.152,8.152,2.178,0,4.164-.857,5.627-2.257.435-.414.828-.878,1.158-1.38.865-1.292,1.367-2.843,1.367-4.515,0-4.197-3.173-7.654-7.253-8.102Zm-.899,14.628c-3.599,0-6.53-2.926-6.53-6.526,0-3.244,2.379-5.94,5.485-6.442v6.442c0,.309.134.602.372.803l4.933,4.134c-1.141.991-2.634,1.589-4.26,1.589Z"/></g></g></svg>