<?xml version="1.0" encoding="UTF-8"?><svg xmlns="http://www.w3.org/2000/svg" xmlns:xlink="http://www.w3.org/1999/xlink" viewBox="0 0 390.3 390.3"><defs><style>.cls-1,.cls-2,.cls-3{fill:none;}.cls-2{isolation:isolate;}.cls-4{fill:#05427f;}.cls-5{fill:#fff;}.cls-6{fill:#f0bda5;}.cls-7{fill:#64aae1;}.cls-8{fill:#969696;}.cls-9{fill:#305d81;}.cls-10,.cls-11{fill:#d2e8f2;}.cls-12{fill:#e1b39d;}.cls-13{fill:#14509f;}.cls-11{mix-blend-mode:multiply;}.cls-3{clip-path:url(#clippath);}</style><clipPath id="clippath"><circle class="cls-1" cx="195.1" cy="195.1" r="195.1"/></clipPath></defs><g class="cls-2"><g id="_レイヤー_2"><g id="_レイヤー_1-2"><g class="cls-3"><path class="cls-6" d="m137.5,139.2s-2.7-16.1-6.2-30.9c-6.7-.6-4.3,15.4-4.3,15.4,0,0-3.3-10.6-4.3-11.6-1.1-1-4.8.5-4.8.5,0,0-4.6-1.1-4.4,1.9.2,2.3.5,3.4.5,3.4,0,0-.7-.5-1.2-1.3-.5-.9-7,.9-2.6,8.1,1.7,2.7,6.1,15,15.1,15.1.4.9,5.5,6.6,5.5,6.6l6.7-7.2Z"/><path class="cls-9" d="m180.6,293.7s53.5,16.7,62.9-4.3c9.4-21-52.4-14.8-52.4-14.8l-10.5,19.1Z"/><path class="cls-13" d="m131.3,131c12.9,48.7,26.2,64.7,31.5,76.3,5.4,11.5-14.2,33.6-27.6,11.9-13.4-21.7-19.9-81.4-19.9-81.4,0,0,5.5-9.8,16-6.7Z"/><path class="cls-13" d="m301,190.5s5.7-73.4,21.1-36.4c15.4,37,28.5,75.7,27.9,90-.6,14.2-15.2,34-21.4,8.9-6.3-25.1-27.5-62.5-27.5-62.5Z"/><path class="cls-4" d="m301.3,402c-.3-3.7-1.1-73.9-11.5-112.9-16.4-61.5-82-58.6-95-8.3-9.7,37.7-15.4,108.4-15.4,121.2h56.1c.1-2,2.4-29.9,3-34.5.6-4.6,6.1,32.8,6.3,34.5h56.6Z"/><path class="cls-5" d="m315.5,154.8s-11.5-15.2-20.3-27.4c-3.4-4.7-2.7-7.1-8.2-9.3-16.3-6.5-32.1-7.4-32.1-7.4,0,0-49.8,41.4-45.7,70.6,4.2,29.2-14.4,99.5-14.4,99.5,0,0,65.3,12.1,91.5,7.6,8-66.8,29.2-133.6,29.2-133.6Z"/><path class="cls-13" d="m304.4,309.2s-12.5-32.6,1.2-74c13.7-41.4,26-64.8,27.2-75.4.3-13.9-37.9-32.9-37.9-32.9,0,0-23.1,90.5-16.2,167.4,2.3,25.1,16.1,18.7,18.7,18,2.7-.8,7-3.2,7-3.2Z"/><path class="cls-13" d="m240.5,116.3l10.9-2.4s-16.1,23.3-22.3,70.6c-4.2,32.1-28.2,86-34.3,96.3-6.1,10.3-13.3,26.9-13.3,26.9,0,0-15.3-13.3-11.9-21.6,3.4-8.4,27.4-30.5,30.5-63.5,3-33-2.6-46.1-4.1-65.5-1.5-19.4,16.2-39.8,16.2-39.8l28.4-1.1Z"/><path class="cls-13" d="m212.8,117.8c-7.2,2.8-30.2,52.8-49.7,70.1-14.5,12.9-17,49.6,7.1,34.9,18.9-11.6,37-46.2,60.5-48.7-.9-13.9-10.8-59.1-18-56.3Z"/><path class="cls-12" d="m294.5,100.2l-5,23.3s-12.9,11.9-22.8,10.9c-7.5-8.4-10.2-17.2-10.2-17.2l3.4-27.5,34.7,10.5Z"/><path class="cls-8" d="m266.3,136.3s-8.4,2.3-9.4,8.1c1.3,3.7,2.9,5.4,2.9,5.4,0,0-15.4,23.8-19.7,55-6.5,47.9-13.2,78.7-13.2,78.7l15.7,23.9,16.3-17.4s-4.7-41.8-3.8-89.1c.6-32.7,9.6-49.4,9.6-49.4,0,0,3.9-2.7,8.1-6.1-5.2-5.3-6.5-9.1-6.5-9.1Z"/><path class="cls-11" d="m254.9,260.3c-14.3-2.6-12.5-13.3-12.5-13.3,0,0,59.5,11.7,57.3,15.7-2.2,4-30.5.2-44.8-2.4Z"/><path class="cls-10" d="m268.9,136.8s1.3,3.6,9.2,8.5c7.8-8,16.8-18.3,16.8-18.3,0,0-2.8-6.1-4.4-7-5.3,13.2-21.5,16.8-21.5,16.8Z"/><path class="cls-4" d="m279.5,216.6c10.8-15.5,24.4-49.1,24.4-49.1l-6.9-9.1,6-6.2-.5-8.3-8.9-9.8s-14.7,57.8-14,82.5Z"/><path class="cls-4" d="m226.6,197.6c-2.8-18.7-2.6-52.9-2.6-52.9l10.2-5.2-2.7-8.2,4.1-7.3,12.2-3.9s-16.1,47.9-21.2,77.5Z"/><path class="cls-13" d="m266.6,52.3c3.6-.7,5.7-2.5,6.8-6.6,18.5-1.5,35.7,7,31.6,21.4,2.5,4.1,2.9,6.8-6.4,29.7-8.1.1-36.4-4.6-41-5.3-5.1-25.3.6-37.8,9-39.3Z"/><path class="cls-6" d="m300.6,69.4c1.9,6.1-3.7,12.4-1,21.7,2.2-4.2,2.3-5.3,2.6-6.1,3.7,1.6,0,6.6-3.3,12.4-.7,4.3-11.7,21.1-14.1,23-1.2.7-15.9-.8-16.9-2.1-1.6-1.7-12-19.6-10.9-26.4-3-5.3-2.9-13.2-.3-13.6.9.8,3.2,4,3.5,7,4.5-2.1-1.1-13.1,10-24.7,4.1,2.3,5.2,2.9,11.8,6.1,7.5,3.7,15.5,3.8,18.5,2.5Z"/><path class="cls-13" d="m259.8,78.5l.4,2.6,5.3.3c-.2,2.5-.2,4.4,1.2,6.6,1.3,2.1,3.6,3.4,6.4,4,4.8,1.1,6.2-3.9,7.3-6.2.4-2.1,3.8-1.5,3.6.6-.5,4.3-.4,7.2,5.3,8.2,2.9.5,4.8,0,6.8-1.5,2.7-2.1,3.2-8,3.2-8,0,0-4.5-1.5-6.9-1.9-3.3-.6-6.9-.6-9.3-.8-3-1.1-5.9-1.9-9.2-2.5-2.3-.4-5.3-.9-7.7-.8l-6.4-.5Zm26.3,6.5c1.4-.1,3.7,0,6.5.6,2,.4,2.6.5,4.6,1.3-.2,2.3-.6,4-2,5.1-1.5,1.2-2.9,1.6-5.2,1.1-3.9-.7-4.4-3.1-3.8-8.2Zm-18.4-3.4c2.1,0,10.2,1.4,11.5,2.3-.9,5-3.4,6.5-5.8,6.2-2.3-.4-4.4-1.2-5.4-2.8-1-1.6-.8-3.5-.3-5.7Z"/><rect class="cls-5" x="45" y="120" width="180.5" height="129.1"/><path class="cls-6" d="m122.8,116.2s1.8,8.4,1.7,9.7c-.1,1.3-2.6.8-2.6.8,0,0-1,2-2.2,2.3-1.2.2-4.9-9.9-4.9-9.9,0,0,1,6.2,1.4,9.4,0,.6-3.5,1.1-4.3-2-.9-3.2-2.7-6-2.7-6,0,0,3.1-1.7,6.6-2.8,3.6-1.1,7.2-1.4,7.2-1.4Z"/><path class="cls-6" d="m239.7,235.7s-17.8-3.7-33-4.2c.8,6.1,13.4,6.2,13.4,6.2,0,0-29.1,13.2-30.4,14-1.3.8-.3,3.8-.3,3.8,0,0-3.4,2.3-.5,3,2.9.6,17.9-3.9,17.9-3.9,0,0-9.8,5-10.8,5.3-1,.3,1,3.8,9.1,1.4,3.1-.9,25.5-4.6,28-13.4.9-.2,7.3-.4,7.3-.4l-.7-11.8Z"/><path class="cls-13" d="m235.3,234.3l84.7,1.1s-11-27.9-18.5-45.3c-7.5-17.4,30.9-31.2,30.9-31.2,0,0,21.3,78.3,21.8,93.5.5,15.2-28.6,17.3-58.8,9.2-30.1-8.1-58.9-12.5-58.9-12.5l-1.3-14.8Z"/><path class="cls-7" d="m138.1,207.4c-6.8,0-18-1.4-26.8-4.5l-.8,2.4c7.5,3.1,19,5.3,27.6,5.3,8.6,0,20.1-2.2,27.6-5.3l-.8-2.4c-8.9,3.1-20,4.5-26.8,4.5Z"/><path class="cls-13" d="m172.2,162.1h-8.4l-2.5,14c-9.9-.8-19.8-.9-22.6-.9l1.3-7.5h13.8l1-5.7h-20.3l-2.3,13.2c-7.9.2-21.8.7-31,2.6v5c3.1-.7,6.9-1.2,10.9-1.6l-1.1,6.5c-1.8.9-3.9,1.2-6,1.2-6.4,0-9.9-4-9.9-10.2s4.5-11.3,10.4-11.3,5.9,1.3,7.4,2.8l4.5-4.4c-2.6-2.6-5.7-4.2-11.8-4.2-9.1,0-17.2,6.6-17.2,17.1s6.1,15.9,16.5,15.9,9-1.7,11.4-3.3l1.8-10.6c4.9-.3,9.6-.5,13.2-.6l-2.5,14.1h6.5l2.5-14.2c.1,0,.2,0,.3,0,1.6,0,11.9,0,22.3.8l-2.4,13.4h11c10.7,0,18.2-6.4,18.2-17.3s-5.6-14.9-15.1-14.9Zm-3,26.5h-3.6l1.2-7.1c3,.3,5.8.8,8.2,1.3v-5c-2.2-.5-4.8-.8-7.4-1.2l1.6-9h2.1c6.3,0,9.2,3.5,9.2,8.9s-3.7,11.9-11.4,11.9Z"/></g></g></g></g></svg>