<?xml version="1.0" encoding="UTF-8"?><svg id="_レイヤー_2" xmlns="http://www.w3.org/2000/svg" xmlns:xlink="http://www.w3.org/1999/xlink" viewBox="0 0 336.2 310.5"><defs><style>.cls-1{fill:url(#_名称未設定グラデーション_8-2);}.cls-2{fill:url(#_名称未設定グラデーション_8-4);}.cls-3{fill:url(#_名称未設定グラデーション_8-3);}.cls-4{fill:url(#_名称未設定グラデーション_8-5);}.cls-5{fill:#03346b;}.cls-6{fill:#003853;}.cls-7{fill:#05427f;}.cls-8{fill:#e6e6e6;}.cls-9{fill:#fff;}.cls-10{fill:#efbfa6;}.cls-11{fill:#ffd200;}.cls-12{fill:#969696;}.cls-13{fill:#a3cad6;}.cls-14{fill:#d2e8f2;}.cls-15{fill:#e0b29d;}.cls-16{fill:#14509f;}.cls-17{fill:url(#_名称未設定グラデーション_10);}.cls-18{fill:url(#_名称未設定グラデーション_8);}</style><linearGradient id="_名称未設定グラデーション_8" x1="-5800.5" y1="-2635.8" x2="-5799.5" y2="-2635.8" gradientTransform="translate(2328082.6 873534.7) rotate(45) scale(390.3 -390.3)" gradientUnits="userSpaceOnUse"><stop offset="0" stop-color="#39bcd6"/><stop offset=".4" stop-color="#408ac0"/><stop offset="1" stop-color="#408ac0"/></linearGradient><linearGradient id="_名称未設定グラデーション_8-2" x1="-5800.5" y1="-2635.3" y2="-2635.3" xlink:href="#_名称未設定グラデーション_8"/><linearGradient id="_名称未設定グラデーション_8-3" y1="-2635.4" y2="-2635.4" xlink:href="#_名称未設定グラデーション_8"/><linearGradient id="_名称未設定グラデーション_8-4" y1="-2635.6" y2="-2635.6" xlink:href="#_名称未設定グラデーション_8"/><linearGradient id="_名称未設定グラデーション_8-5" x1="-5800.5" y1="-2635.7" y2="-2635.7" xlink:href="#_名称未設定グラデーション_8"/><linearGradient id="_名称未設定グラデーション_10" x1="-5800.5" y1="-2635.7" x2="-5799.5" y2="-2635.7" gradientTransform="translate(2328082.6 873534.7) rotate(45) scale(390.3 -390.3)" gradientUnits="userSpaceOnUse"><stop offset="0" stop-color="#2495b4"/><stop offset=".4" stop-color="#2870a2"/><stop offset=".4" stop-color="#296da1"/><stop offset="1" stop-color="#296da1"/></linearGradient></defs><g id="_レイヤー_1-2"><path class="cls-13" d="m40.8,302.7c-11.7.5-20,1.7-20,3.1s12.1,3.1,27.8,3.4c-2.7-2.1-5.3-4.3-7.9-6.5"/><path class="cls-18" d="m53.2,302.4c-4.4,0-8.6,0-12.4.3,2.6,2.2,5.2,4.4,7.9,6.5,1.5,0,3,0,4.5,0,9.2,0,17.4-.4,23.3-1-.8-.3-1.3-.6-1.4-.9-6.6-.3-6.7-1.7-6.7-1.7h-4.6c0,0,0-1.1,0-2.9-3.3-.1-6.8-.2-10.5-.2"/><path class="cls-7" d="m47.3,107.3c.8-7.2-1.1-11.2-3.9-11.6-1.4-.3-2.3-.4-3.2-1.9-4.9-2.1-13.7,2.7-12.1,8.3-.4,1.7-.6,2.1,2.5,11,3.1,0,13.3,2.9,15.1,2.7,3.1-1,1.5-7.3,1.6-8.5Z"/><path class="cls-7" d="m34.3,297.1l-4,5s-3.7,1.3-4.5,2c-.9.6-.8,2.5-.8,2.5,0,0,2.4.8,5,.8,8.8,0,10.7-1.9,10.7-1.9l5-.5s1.4-4.1,0-8c-1.4-3.9-11.4,0-11.4,0Z"/><path class="cls-7" d="m63.8,299.1c-.3,3.8,0,6.4,0,6.4h4.6c0,0,.1,1.6,7.8,1.7,7.6.1,8.5-.4,8.4-1,0-.6.1-2.1-.9-2.8-1.1-.7-5.2-2.5-5.2-2.5,0,0-2.2-1.1-5.3-3.5-3.1-2.3-9.1-2.1-9.3,1.6"/><path class="cls-16" d="m77.9,299.2s-4.9-56.8-5.2-59.3c-.3-2.5-6.5-45.7-7.5-54.2-2.9-24.1-39.6-37.7-40.8,4.3-.8,25.7,3.1,52.3,4,58.7.9,6.5,1.5,46.8,4.4,50,6.3,3.1,14.5,1.8,14.8,1.7.5-.1-.9-45.2-3.1-53.2-2.2-8,.8-35.1,1.3-35.6.5-.5,9.1,28.3,9.1,29.6s8.7,55.7,8.2,59.2c-.5,3.5,15-1.1,15-1.1Z"/><path class="cls-9" d="m69.3,130.6c-2.6-3.1-17-6.3-17.9-6.4-.8-.1-2.1-.5-2.6-.7l-.7-2.2h-4.9c0,0-6.9.8-6.9.8l-3.7.9-.2,2.7c-.5.2-2.5,1.1-2.5,1.1,0,0-9.9,4-12.2,5.2-2.2,1.2-.5,13.2,1,21.3,1.4,7.1,4.4,18.7,4.4,18.7,0,0,1.1,14.9,1.5,14.9,3.4-.3,21.3-3.3,29.9-3,4.2.1,10.6,1.8,10.6,1.8,0,0-1.9-12.6-2.3-16-.5-4.3,3.7-19.4,4.3-21.4s4.7-14.6,2.1-17.6Z"/><path class="cls-15" d="m45.9,111.1s0,7.8,1.4,11.2c.9,2.1-4.1,3.5-7.3,4.7-1.4.5-2.3.9-3,.9s-2.3.3-2.8,0c-1-.8-.6-2.9-.4-5.2.3-4.8-1.2-8.2-1.2-8.2l13.2-3.3Z"/><path class="cls-10" d="m29.7,103.4c-.6,2,.9,3.6.7,6.3,0,.4-.5.8-.7.3-.3-.5-.4-1.1-.5-1.3-1,1,0,3.4,1.3,4.8.9,2.6,3.3,6.8,4.3,7.5,1.5,1.6,5.9,1,7.6-1,1.1-1.3,2.4-3.2,3.2-7.8,1.7-1.2,3.2-5.1.9-5.6-.6,0-.9.1-1.2.9-.1.4-.8.8-.9.3-.4-1.7.5-5-2.9-8.4-2.5.4-4.3,1.4-6.8,2.8-2.8,1.6-3.6,1.5-5,1.3Z"/><path class="cls-6" d="m64.7,188.3c-5.1-.9-10.9-.7-10.9-.7,0,0-.3-2.3-.3-3.3,2-.4,11.3,1,11.3,1,0,0,.2,1.8-.2,3Z"/><polygon class="cls-6" points="25.2 190.4 33.1 189.8 33 186.3 25.8 187.2 25.2 190.4"/><path class="cls-6" d="m51.5,187.9l-16.8,1.6v-3.5c-.1,0,9.1-1.6,16.4-1.6.3,1.5.4,3.6.4,3.6Z"/><path class="cls-9" d="m67.4,149.7c4.8,5.8,10.3,11.7,10.8,12.7.5,1-11.7,19.3-11.9,19.7s3.9,4.3,7.1,4.3,14-19.8,14.9-21.5c.9-1.7,2.1-6.5-.3-9.8-2.4-3.4-10.1-16.7-15.5-22-14.6-14.3-9.9,10.8-5.1,16.6Z"/><path class="cls-10" d="m66.8,182.3s-6-2.2-6.4-2.4c-.4-.1-4.8,1.7-5.6,2.1-.8.4.6,1,1.5.9.9-.1,2.7-.8,2.7-.8,0,0-4,3-4.6,3.6s1.3,1.1,2.6.2c1.3-1,3.6-1.3,3.6-1.3,0,0-3,4-2.8,4.7.3,1.1,1.5.4,2.1-.3.6-.7,2.4-2.7,2.4-2.7h2.2c0,0-1.2,2.2-1.6,3.2-.3,1,.5,1.8,2,.2,1.5-1.6,2.4-2.7,2.4-2.7,0,0,1.9.6,3.7.4,1.1-.1,1.6-1,2-1.8-2-2.4-6.3-3.4-6.3-3.4Z"/><path class="cls-9" d="m22.6,183.1s-10.1-14.4-11.4-17.6c-1.3-3.2,4.6-8.6,7.6-12.3s4.9-29.7-3.6-18.9C6.5,145.5,1.1,159.1,0,163.9c-.6,2.7,9.3,18.7,12.9,22.1,3.7,3.4,9.7-2.9,9.7-2.9Z"/><path class="cls-10" d="m22.3,182.1s4.6-1.2,5.6-.9c1,.4,3.2,4.5,3,5.5-.2,1-1.4.8-1.4.8,0,0,.2,2.9-1.1,1.9-1.3-1-2.6-4-2.6-4h-1.5c0,.1,2,3.1,1.5,3.9-.5.8-1.4-.4-2-.9-.6-.5-1-1.1-1-1.1,0,0-2.2,1.9-3.9,1.7-1.6-.2-3.5-1.4-2-3.3s5.3-3.7,5.3-3.7Z"/><path class="cls-13" d="m298.7,300.9h0c-2.3,2.1-4.7,4.1-7.1,6.1,2.2.2,4.6.2,7.1.2,10.3,0,18.7-1.4,18.7-3.1s-8.4-3.1-18.7-3.1"/><path class="cls-1" d="m298.7,300.9c-10.3,0-18.7,1.4-18.7,3.1s4.8,2.4,11.6,2.9c2.4-2,4.8-4,7.1-6.1"/><path class="cls-3" d="m246.1,302.1c-19.1,0-34.5,1.5-34.5,3.4s15.4,3.4,34.5,3.4,34.5-1.5,34.5-3.4-15.4-3.4-34.5-3.4"/><path class="cls-2" d="m170.4,303.3c-18.3,0-33.1,1.5-33.1,3.4s14.8,3.4,33.1,3.4,33.1-1.5,33.1-3.4-14.8-3.4-33.1-3.4"/><path class="cls-4" d="m102.5,303.7c-6.9,0-13.2.3-18.1.8,0,.1,0,.3,0,.4.7.3,1.1.6,1.1.9,0,.9-3.4,1.7-9,2.3,3.7,1.3,13.9,2.3,26,2.3s27.4-1.5,27.4-3.4-12.3-3.4-27.4-3.4"/><path class="cls-17" d="m84.5,305c0,.5,0,1,0,1.3,0,.5-.6,1-6.2,1s-1.4,0-2.2,0c-.4,0-.7,0-1.1,0,.1.3.6.6,1.4.9,5.6-.6,9-1.4,9-2.3s-.4-.6-1.1-.9"/><path class="cls-5" d="m84.4,304.5c-5.7.6-9.4,1.5-9.4,2.5s0,0,0,.1c.3,0,.7,0,1.1,0,.8,0,1.5,0,2.2,0,5.6,0,6.3-.5,6.2-1,0-.3,0-.8,0-1.3,0-.1,0-.3,0-.4"/><path class="cls-7" d="m296.9,123.7s-4-2.3-3.3-5.3c.7-3,2.9-7.1.8-10.5-2.2-3.4-2.8-3.5-2.9-6.1-.1-4.2,5.1-7.8,5.1-7.8,0,0,.9-7.5,5.7-8.1,5.2-.6,8.5.8,10,11.9,1.4,10.7,4.4,9.7,5.9,12.6,1.8,3.5,1.1,7.7-1.9,10.4-4,3.6-8.2,3.5-8.2,3.5l-11.3-.7Z"/><path class="cls-7" d="m289.2,298.2c3.4-3.6,7.8-7.6,7.8-7.6,0,0,1.8,1.4,1.5,4.3-.3,3-.4,4.3-.4,7.8-.2.3-1.1.1-1.1.1,0,0-.2-3.1-.5-3.4-.5,1.1-.8,1.8-1.3,3.7-.2,1.1-5.8,2.2-8.1,2.4-1.4,0-2.6-.3-2.6-1.5,0-1,2.5-3.5,4.6-5.8Z"/><path class="cls-15" d="m299.5,231.6s-.2,2.4-.3,5.2c0,3.3-1.1,11.7-1,20.6.2,8.9-1.8,29.5-.7,33.7-.9,4.1-3.5,8.3-4.9,8.7-1.6.5-3.8-.1-4.4-.6,2.3-4.7,3-5.5,3.2-8.3.2-3.3-6.6-24.7-6.6-38.7s3.2-12.9.4-21.1c-1.2-3.4,14.3.5,14.3.5Z"/><path class="cls-7" d="m308.6,297.4c-3.2-3.2-6.9-7.2-6.9-7.2,0,0-2.3,1.9-1.7,4.4.8,2.8.6,4.1.6,7.5.2.3,1.4.1,1.4.1,0,0,0-2.8.3-3,.5,1.1.6,1.7,1.2,3,.2,1.1,6,1.9,8.2,2.1,1.4,0,1.6-.4,1.6-1.6,0-.9-2.2-3-4.6-5.4Z"/><path class="cls-15" d="m301.9,230.2s-.8,2.2-.7,5.1c0,3.3,0,10.9-.2,19.8-.2,8.9.9,31.8-.2,36,.7,4.4,3.3,7.2,4.7,7.6,1.6.5,3.7.3,4.3-.1-2.3-4.9-2.3-6-2.5-8.8-.2-3.3,6.2-22.8,6.2-36.9s-1.8-17.4-1-22.7c.5-3.6-10.6,0-10.6,0Z"/><path class="cls-16" d="m284.6,168.5c-11.6,18.7-4.3,35.2-.1,65.8,15.4,4.9,29.4,1.7,29.4,1.7,0,0,12-41.7,4.1-65-17.3-2.3-23.9-3.4-33.3-2.6Z"/><path class="cls-7" d="m312.9,120.1s-2.6-10.5-2.3-15.4c.3-4.7,0-11.1-2.1-15.1-2.2-4-3.8-4.1-4.7-3.8-1.1-3.7-12.2-3.1-15.1,10.4-6.8,6-2.5,18.3,1.5,21.7,1.8,1.5,22.8,2.2,22.8,2.2Z"/><path class="cls-9" d="m319.2,163.6s7.1-9.6,7.4-10.9c.3-1.2-2.4-3-8-13.5-5.5-10.5-2.4-24.8,2.1-18,4.5,6.8,12.3,22.2,14.4,26.8,1.9,4.4.7,7.5.4,8.3-2.6,5.8-9,9.4-12,10.7-6.1,2.7-4.3-3.4-4.3-3.4Z"/><path class="cls-9" d="m280.9,176.1s1-6.7,4.7-17.6c.2-.6-3.2-14-5.2-23.3-2-9.3-6.9-13.7-1.4-16.3,3-1.4,8-2.6,12.1-3.8.1-.4-.3-2.1-.3-2.1,0,0,.7-1.8,6.8-1.9,5.2,0,8.4,2,8.4,2,0,0,.5,2,1.3,2.3,5,1.5,9.1,2.8,11.3,3.8,3.8,1.8-3.4.9-.6,12.6,3.2,13-3.2,14.8-2.1,27.5.3,1,2.6,7.9,3.5,16.8-10.9,5.6-38.4-.1-38.4-.1Z"/><path class="cls-15" d="m292.3,103.4s.9,7.8.3,10.8c-.2.9-.3,1.9-1,2.7,1.2,3.5,9.1,11,9.1,11,0,0,5.5-7.6,5.3-10.6-1.2-4-2.2-9.4-1.3-11.6.9-2.3-12.3-2.3-12.3-2.3Z"/><path class="cls-10" d="m277.5,170.1l-7.4-4.6,3.4-4.9,6.6,5.6s4.7-5.9,5.2-6.1c.5-.2,3.9-.2,4.8-.2s.4,1.1-.1,1.3c-.5.1-2.3.4-2.3.4,0,0,3.1,1.3,3.8,1.7.7.4-.3,1.2-.9,1.2.4.4.4.9.1,1.2-.4.5-1.8.2-1.8.2,0,0,.9,1.2-.2,1.5-1,.2-4.1,0-4.1,0,0,0-1,2.1-3.3,3.3-1.9.9-3.7-.7-3.7-.7Z"/><path class="cls-10" d="m322.2,169.6s-1.1,2.8-3.4,2.6c-.3-1.9-.6-3.4-.6-3.4,0,0-1.3.1-2,0-.7-.1-1-.8-.2-1.2.8-.4,2.4-1,2.4-1,0,0-3.2-.3-4.1-.8-1-.6,0-1.5,0-1.5,0,0-1.3-.4-.6-1.4.3-.4,3.1-.1,3.1-.1l-.7-.6s-1.4-1.2-1.8-1.5c-.3-.3-.3-1.9,1.2-1.1.4.2,3.5,2.4,3.5,2.4,0,0,1.1.4,1.2,1.4.1,1,1.8,3.1,1.9,4,.2,1.4,0,2.1,0,2.1Z"/><path class="cls-10" d="m305.9,106.3s-1.9,5.1-4.2,6.5c-1.5.9-5.2,1-7-1.2-1.5-1.8-2.9-6.6-2.9-6.6,0,0-.9-.5-1.2-1.7-.2-1-.4-1.4-.5-2.2,0-.7.4-1.4.8-1.4s.5,0,.6-.5c0-.8.1-1.6.7-2.4.4-.6,9.1-.2,11.8-7.2,1.3,3.1,3.3,3.7,3.6,6.9.1,1.2-.7,4.3-.7,4.9,0,.6.5.3.8.2.6-.1,1.6.5,1,1.7-.6,1.2-.9,1.6-1.4,2.4-.6.7-1.4.7-1.4.7Z"/><path class="cls-8" d="m289.4,124.4c1.2-.9,3.6-3.1,5-3.2-1.7-2.9-3.6-8.2-3.6-8.2l-1.3,2.7-1,8s-.5,2,.9.6Z"/><path class="cls-8" d="m311.7,123.8c.6,1.6-1,1-1,1,0,0-2.6-2.4-5.8-3.9,1.1-1.9,1-7.6,1-7.6,0,0,1.6,2.1,2.7,4.2,1.1,2.1,2.5,4.8,3.1,6.4Z"/><path class="cls-9" d="m279.2,165.3s-8.2-9.7-10-13.3c-1.8-3.6,7.9-12.1,11.7-15.7,3.8-3.6,4.1-26.3-6.4-13.5-8.8,10.6-11.9,19.5-14.6,23.7s-.8,8.5.9,10.9c1.7,2.4,11.7,10.5,13.9,12.1,2.3,1.6,4.4-4,4.4-4Z"/><path class="cls-7" d="m258.4,298s-.9,2.8-.6,6.7c4.6.5,7.4.2,7.4.2,0,0,2.2,1.5,9.3,2,1.8.1,6-.5,6.7-.7.7-.3.4-1.4.4-1.4,0,0,.1-.8-.7-1.4-.8-.6-6.6-2.7-6.6-2.7l-4.3-4.1-11.7,1.5Z"/><path class="cls-7" d="m225.5,305.1s3.1.1,4.6-.7c.9-3.8.1-10,.1-10l-10.7.4-3.2,5.4s-4.5,2.3-4.8,3c-.3.7-.4,2.5-.4,2.5,0,0,1.7,1.2,9.3.6,3.6-.3,5-1.3,5-1.3Z"/><path class="cls-16" d="m233.7,204.9s-2.7,31.9-2.7,34.5.5,59.5.5,60.6c-3.1,2.1-9.2-2.2-14.1-1.4-1.1.2-3.9-55.6-4.1-59-.2-3.4-4.2-37.6-3.2-54.9,1.3-22.8,10.4-31.7,20.1-31.3,20.6.9,17.9,8.2,22.4,20.2,6,15.9,8.1,50,9.2,58.7,1.1,8.7,9.7,64.6,10,65.6.3,1-4.4,1.5-9.4,2.1-2.7.3-5.7,1-5.7,0s-12.8-43.8-14.3-65.4c-3.3-9.6-7.8-29.9-8-30.3-.2-.4-.8.7-.8.7Z"/><path class="cls-9" d="m250.7,167.8l-7-63.2-2-6.1-4.2-1.1-6.9.5-5,.2-4.5,5s5.6,46.5,5.3,63.6c10.1,2.6,24.1,1.1,24.1,1.1Z"/><path class="cls-12" d="m243,159.8s-4.4,4.8-4.6,5.1c-.2.3-1.1.7-1.6,0-.4-.7-4.7-5.9-4.7-5.9v-23.6c.1,0,7.7,1.8,7.7,1.8l3.1,22.5Z"/><path class="cls-16" d="m242.9,100.7l2,2.1s9.6,4.5,13.2,6.2c6.4,3.1,3.6,5.3,3.2,7s-3.5,13.7-4.5,16.8c-1,3.1-3.5,18.7-3.8,24.7,1,3.7,2.8,16.6,5.6,27.8,0,.8-.4,1.8-2.7,1.7-1.9-.1-2.1-3.4-2.9-6.9-.8-3.5-8.1-38.1-9.1-47.4-1-9.3-1.3-31.4-1.3-31.4l.3-.7Z"/><path class="cls-15" d="m230.6,104.4l7.7.2,2.7-2.8s-.3-6.8,1.2-11.4c1.4-4.1-16.9-7.8-15.3-1,1.7,7.4-.8,11-.8,11l4.6,3.9Z"/><path class="cls-12" d="m235.3,128.3l3.5-1.2s-.6-10.6-2.8-18.3c1.4-.9,3.3-4.4,3.3-4.4,0,0-2.6-.5-4.7-.5s-5.1.5-5.1.5c0,0,2,3.2,3.8,4.5-.3,1.8-1,3.5-1.4,7.3-.3,2.7.3,11.5.3,11.5l3,.7Z"/><path class="cls-8" d="m243.3,101.1s-1.3-2-1.5-2.5c-.2-.5-1.9,4.1-5.2,5.4,1.5,2.8,3.8,4.2,4.5,4.8.4.4.8-.5.8-.5l1.4-7.3Z"/><path class="cls-8" d="m225.8,98.2c.6.2,1.2,3.8,6.4,5.8-1.2,1.6-4.3,4.9-4.9,5.7-.3.3-.9,0-.9,0l-2.4-9.5s1.4-2,1.7-1.9Z"/><path class="cls-7" d="m209.4,188.8s10.3,1.8,14.9,1c3.7-.6,2.8-16.2,2.2-19.3-9.8-3-17.1,18.2-17.1,18.2Z"/><path class="cls-16" d="m224,100.1s6.5,23,5.9,35.3c-.9,20.1-4.7,47.5-5.6,49.4-.9,2-21.1,10.1-19.7,1.2,1.4-8.9,2.9-20.5,6.1-28.9.1-4.7-2.5-28-4.2-31.7-1.8-3.9-7-15.8,0-18,5.7-1.8,14.6-4.8,14.6-4.8l2.9-2.4Z"/><path class="cls-7" d="m209.4,141.5l.9,8.7s13.1-3.1,19.2-8.1c.3-3.5.3-5.1.3-5.1l-20.5,4.5Z"/><path class="cls-16" d="m215.7,128.2s-1.8-7-3.1-11.2c-1.2-4.3-6.5-13.1-9.1-7.1-2.2,5.1-5.7,18.5-4.9,28.3.6,2.2,1.7,5.1,3.2,6.4,12.1,1.8,38.1-9.3,41.1-10,3-.8,1.2-7.8,1.2-7.8l-28.5,1.4Z"/><path class="cls-10" d="m217.9,128.8s-.2-1.1-.7-1.4c-.5-.3-2.7-2.5-3-2.7-.3-.3-3.7-1.2-3.8-1.3-.5.4-.2,1.1-.2,1.1,0,0-1.7-.5-2.2-.7-.5-.2-.5,1.2-.2,1.4-.5-.1-.6.2-.6.2,0,0-.3.7.2,1.2.6.7,1.8,1.5,1.8,1.5l8.7.8Z"/><path class="cls-7" d="m245.5,142.8l1.2,6.1s2.2,2.1,6.9,3.1c.6-3.7.9-6.6.9-6.6l-9-2.6Z"/><path class="cls-16" d="m227.1,138.1s15.5,6.5,31,10c2.3.5,5.8-.9,6.7-2.6.9-1.7,1.4-9-.3-19.2-1.7-10.3-1.7-12.1-2.5-14-1.1-2.8-9.3,9.7-9.3,13.4s-14.7,3.4-15.3,3.8-10.4,8.6-10.4,8.6Z"/><path class="cls-10" d="m246,133l-1-6.4s1.6.2,2.3.4c3.3,1.1,5.6,3.5,5.6,3.5l-6.9,2.5Z"/><path class="cls-7" d="m227.2,86.8c.3.4,15.8.5,16.6,0,.7-.4,1.2-1.3,1.2-1.3,0,0,1.5-4.3,1.4-7.5,0-3.2-3.2-5.1-3.2-5.1,0,0-.4-3.3-2.4-3.9-1.2.5-4.3-.8-8.1-.2-3.2.5-5.4,3.7-5.4,3.7,0,0-3,3.6-2.8,7.5.3,4.2.9,4.1.9,4.1,0,0,1.6,2.3,1.9,2.7Z"/><path class="cls-10" d="m244.9,85.6c-.2,0-.8.1-1.2.7-.5.7-.8,0-.7-.7.1-.7.3-1.5.8-5.6.4-4.1-1.8-5.4-1.8-5.4,0,0-1.2,1-4.4,1.1-3.9,0-6-.5-8,.9-1.1,2.8-1.3,5.2-1.7,7.7-.2,1.2-.9.7-1.2.3-.3-.4-1.2-.4-1.2-.4h-.1c-.2.1-.3.2-.5.5-.8,1.7.1,3.3.6,4.2.4.8,1.5,1,1.5,1,0,0,1.4,5.4,3.3,7.1,2,1.9,6.5,2.2,8.4.1,2-2.1,3.6-6,3.6-6,0,0,.9.4,2-.9s1.7-3.5,1.2-4.3c-.1-.2-.2-.3-.4-.4Z"/><path class="cls-7" d="m128.4,94c.7,5,10.6,7.1,6.5,16.8-3,7.1-15.5-2.9-16-6.2s9-14.1,9.5-10.6Z"/><path class="cls-16" d="m95.7,185c-3-.4-5.7-3.9-5.7-3.9l4.4-21s-.6-29.5.5-34.9c1.1-5.4,5.5-7.7,8.2-8.6,2.6-.9,26.1-8.2,26.1-8.2l.5.7s6.7,2.7,8.5,3.5c2.8,1.3,1.9,10.9-3.2,23.4-5.5,13.3-5.9,24.5-5.9,24.5,0,0,5.2,9.5,5.2,21.1,0,2.5-13.7,5.2-22.7,4.5-5.6-.5-11-.5-15.9-1.2Z"/><path class="cls-7" d="m125.1,292.6s2.1,1.9,1.8,4.2c-.4,2.3-1.8,10.2-1.8,10.2h-2.4c0,0,.4-4.9-.9-4.6-1.8.4-3.6,5.3-6.6,5.3-4.2,0-8.5.2-9.4,0,0-.2-.1-1.2.5-2.2.3-.5,2.1-.8,5-3.2.8-.6,3.3-6.2,7.2-7.7,3.9-1.5,6.6-1.9,6.6-1.9Z"/><path class="cls-7" d="m98.1,297.6c3.2-40.9,0-56.9,0-56.9,0,0,14.1-27.4,15.4-28.9,1.3-1.5,5.2-35.8,5.2-35.8l-22.8.5s.1,3.7.1,6.2c-8.3,21.2-14.8,49.1-15.3,51.6-.5,2.5-1,7.3-1,9.8s3,54.5,3,54.5c0,0,10.6.9,15.4-1Z"/><path class="cls-16" d="m111.1,298.3l.9-10.4s-.8-36.9-2-40.6c-1.2-3.7-3.2-41.2-5.8-50.5-2.6-9.4-3.5-20.5-3.5-20.5l28.8-.5s2.8,4.6,3.5,13.4-.5,14-2.7,38.3c-.9,10-1.6,20.1-1.6,20.1,0,0-.9,45.7-.7,47.7.2,2-17,2.9-17,2.9Z"/><path class="cls-7" d="m95.6,293.7s2.1,1.7,1.8,3.9c-.4,2.1-1.8,9.4-1.8,9.4h-2.4c0,0,.4-4.9-.8-4.6-1.8.4-3.7,5.2-6.6,5.2-4.2,0-8.5.2-9.4,0,0-.2-.1-1.1.5-2.1.3-.4,2.1-.7,5-3,.8-.6,3.3-5.7,7.2-7.1,3.9-1.4,6.6-1.7,6.6-1.7Z"/><path class="cls-7" d="m133.1,181.6s-11.3,7.2-17.6,4.3c-3.5-3.5-4.4-17.5-3.9-20.8,9.9-3.2,21.5,16.4,21.5,16.4Z"/><path class="cls-9" d="m105.3,138.7s5.8-9.5,8.2-12.7c4.8-6.4,9.2-10.7,11.6-14.7,2.5-4-10.7-3-13.3,2.6-2.6,5.6-9.9,24.1-10.1,24.7-.2.7,3.6.1,3.6.1Z"/><path class="cls-9" d="m95.8,176.5c-.1-1.6.2-11.9,1.1-17.9,1.5-10.5,3.7-17.1,3.7-17.1l12.9,7.3,1.7,10.4s11.1,16.5,1.5,16.7c-6.6.2-11.9,0-20.9.5Z"/><path class="cls-7" d="m111.2,95.2s-4.1-3-4.9-6.3c-.8-3.3,2.1-12.6,7-11.5,5.3-4.1,10.9-1.1,13.3,2.7,2.1,3.5,2.7,8.4,2.1,11.1-.9,4.1-17.5,3.9-17.5,3.9Z"/><path class="cls-8" d="m104.4,118.2s5.9-6.8,6.8-7.8c.9-1,9-3.2,9-3.2l-4.7,6.8-2.2,4.8s-1.7-3.5-2.6-4.1c-.8-.6-4.8,3.5-5.4,4.3-.6.8-1-.7-1-.7Z"/><path class="cls-15" d="m113.4,118.5c0,.4.1.7.4.3.8-1.4,2-4.4,3.4-6,2.2-1,5.2-1.7,10.3-4.6-.4-1-1.8-5.3-1.3-12.3.4-7.2-12.7-1.5-12,5.7.8,8.3.2,12.3.2,12.3,0,0-.9,4.1-1,4.5Z"/><path class="cls-10" d="m125.7,97.3s-1.1,3-4,5.9c-2.9,2.8-6.6,2.7-8.2,1-1.7-1.6-4.9-9.4-4.2-11.5.7-2.1-1.3-4-.3-6,.9-2,2.4-5,3.7-5.9,5.2,6.9,11.7,7.3,12.4,9.1.7,1.8.7,2.6,1.5,2.4.8-.3,1.6-1.6,2.3-.2.7,1.4-.2,2.9-.8,3.8-.9,1.3-2.2,1.4-2.2,1.4Z"/><path class="cls-8" d="m117.2,112.8s6.1,2.6,6.7,3.1c.5.4.7-.1,1.1-.8.4-.7,4.2-6.8,4.2-6.8l-1.2-2.2s-.2-.8-.8-.4c-1.8,1.2-9.9,7.1-9.9,7.1Z"/><path class="cls-16" d="m133.4,181.8s-10.9,2.3-17.7-.5c-4.4-2.4-11.2-26-10.5-32.9,9.8-1.9,22.1,6.8,25.3,16.8,3.2,10,3,16.6,3,16.6Z"/><path class="cls-7" d="m131.1,139.8s-6.3,15.2-8,16.5c-4.5,3.3-17.7-2.6-17.7-2.6,0,0-.6-3.6-.5-5.9,6.5-1.1,26.2-8,26.2-8Z"/><path class="cls-16" d="m93.7,149.2s10.6,2.6,28.1,1c1.3-.1,13.8-7.5,19.5-23.9,3.6-10.4-3.6-19.8-10.7-9.4-7.1,10.4-12.7,21.7-12.7,21.7l-23.2,4.1-1.1,6.4Z"/><path class="cls-10" d="m110.9,136.7s4.3-2.9,4.9-3.4c.6-.5,3.6-1.3,3.6-1.3,0,0,1-1.1,1.7-1.6.4-.3,3.9-1.3,4.8-1.5.8-.2.8,1.2-.4,1.6-1.2.4-2.1.8-2.1.8,0,0,3.1,2.5,3.8,3.5.7,1-1.1,1.4-1.1,1.4,0,0,0,2.1-1.7,1.1-1.4-.8-3.2-2-3.2-2h-.8c0,0,2,1.6,3,3.2.1.2,0,1.7-2,0-2.3-1.9-3.9-1.5-3.9-1.5,0,0-4,5.8-7.8,3.3-.9.3-.9.6-.9.6l2.1-4.5Z"/><path class="cls-16" d="m109.5,143.8s-16.4,8.5-21.6,9c-2.5.3-12.7-3.3-8-9.9,4.7-6.6,11.8-14.6,15-19.9,3.2-5.3,11.8-10.6,8.5.2-2.2,7.2-4.8,15.1-4.8,15.1l12.5-1.7-1.6,7.2Z"/><path class="cls-10" d="m88.6,137.8s-1.2-1.5-1.5-2,.7-1.5,1.2-.9c.5.5,2.8,2.2,2.8,2.2,0,0-.8-1.4-1.6-2.7-.8-1.4.4-2.4.8-1.8-.3-.7.2-2.2,1.1-1.4.9.9,3.5,2.8,3.7,3.2s1.4,3.6,1.4,3.6l-8-.2Z"/><path class="cls-7" d="m193.2,295.6s2.5,4.4,3.1,5c2.2,1.9,4.5,2.5,4.9,3.8.4,1.3,0,2.3,0,2.3,0,0-1.3.6-7.1.4-5.9-.1-6.7-.7-6.7-1.1,0-.4,0-.8,0-.8,0,0-4,.4-4.1-.5,0-.9,0-6.3,1-9.5,1-3.2,9,.4,9,.4Z"/><path class="cls-7" d="m158.4,295.6s1.2,6.9.8,9.9c-2.6.4-4.6.3-4.6.3,0,0-.2,1-2.2,1.4s-10.9.9-12.6.4c-1.7-.4-.9-2.1-.6-2.5.3-.4,5.9-3.5,5.9-3.5l2.6-2.5s-.5-.3,1.7-4,9.1.6,9.1.6Z"/><path class="cls-16" d="m147.2,179.3c.2,13.6-.7,60.5-1.2,67.8-.5,7.3.2,53.4.2,53.4,0,0,10.8,3,14.9.5.2-1,5.1-47.7,4.6-52.6-.5-4.9,5.1-44.5,6.1-45.8,1-1.3,1.7,1.8,1.7,2.5,0,.8,4.9,36.9,5,39.2s3.9,53.4,4,55c0,1.6,15.4,1.5,15.1-.3-.3-1.8,1.1-62.4,1-65.5-.1-3.1-1.2-48.9-4.1-61.7-2.9-12.9-17.8-30.4-25.6-30.3-7.8,0-21.9,19.6-21.7,37.9Z"/><path class="cls-9" d="m140.4,102.9c.3,3.7,3,14.2,3.6,17.3,3.5,18.3,5.5,44.3,5.3,45.4,3.5.2,16.1-.3,19.9-.3,8.3-.1,21.3-.4,23.2,0,.2-1.4,2.1-15.9,2.1-21.6.1-19.7,7-26.9,8.1-34.7.7-5.1-1.9-6.1-4.5-7.5-3.2-1.7-14.8-8-17.4-10.3-.5-.5-.7-2.6-1-2.9-1.3-1-12.4-.9-17.3-.2-.8,2-1.1,2.8-1.7,3.7-.4,1.1-21,8.5-20.4,11Z"/><path class="cls-15" d="m172.8,96.5l-10.6-2.9s3.2-6.5.8-15.8c-1.3-4.9,19.2-7.2,16.9.7-2.3,7.6-.7,16.7-.7,16.7l-6.4,1.3Z"/><path class="cls-10" d="m162.7,77.7s1.9,5.7,4.3,7.7c2.2,1.9,7,2.1,9.2-.2,2.4-2.6,3.9-7.1,3.9-7.1,0,0,1.2.2,2.1-.8,1.3-1.3,1.8-3.5,1.5-4.5-.4-1-2.3-.2-2.3-.2,0,0,3.8-8.7-1.3-12.8-5.1-4.1-14.2-3.2-16.6,1.6-2.4,4.8-.7,10.4-.7,10.4,0,0-1.7-1.7-2.2.2-.5,1.9.4,3.3.7,4,.5,1.2,1.4,1.5,1.4,1.5Z"/><path class="cls-7" d="m160.7,71.9c.6-1.1,1.9-.2,2.4.7.4.9,1.3-.6,1.2-1.9-1.2-9.4,2.9-10.3,3.9-10.7,8-1.7,11.8,2.2,12,3,.6,1.9.5,4.4,0,8.9-.3,2.5,1.1,1.4,1.1,1.4,0,0,1.2-.9,2.5-.3.4-1.6,1.6-8.3-1.3-11-.2-2.2-3.1-8.7-13.4-8.5-.3,0-1,.2-1.1.6-.3,1.8-.4,1.9-2.3,3.7-1.7,1.6-2.5,3.6-2.7,3.8-3.1,1.4-2.7,7.7-2.7,9.3,0,.5.2.8.5.9Z"/><path class="cls-8" d="m171.5,147.6c-7.2,8.2-22.8,8-22.8,8l-.8-8.2,14.7-6.3,9.6,1.2s.8,3.1-.6,5.3Z"/><path class="cls-8" d="m170.2,95.7s-2.6,1.8-4.4,5c-.4.6-.7.3-.8,0-2.6-3.9-4.4-9-4.4-9,0,0,1.6-4.3,2.3-3.4,1.3,1.9,7.4,7.4,7.4,7.4Z"/><path class="cls-8" d="m180.3,99.8c-1-1.4-2.3-3.1-4.3-4.4,2.2-1.7,3.1-4.6,3.8-7.1,1.1,0,2,3.6,2,3.6,0,0-.6,7.1-.6,7.6,0,.4-.5.9-.8.4Z"/><path class="cls-9" d="m202.7,179.9c-.8-3.1-3-27-3.1-27.9-.2-1-4.4-15.4-4.5-20.5,0-5.1,5.2-38.9,8.2-23.7,2.9,15.2,7.7,46.5,8.2,50.7s.3,19.4.2,22c0,2.6-8.1,2.6-9-.5Z"/><path class="cls-10" d="m203.2,176.7c-1,.3-2.9,2.4-3.1,3-.2,1.3-.6,3.2-.3,5,0,.6-.3,3.4,0,4,.3.5,2.5-.6,2.6-3.8,0-1.8.5-2.5.5-2.5,0,0,.9,1.9.4,3.4-.5,1.5-2.4,3.3-2.8,4.1-.3.8,0,2.4.8,2.2.2,0,1-.8,1-.8,0,0,.8.5,1.3.3.5-.2,1-.9,1-.9,0,0,.6.3,1.4.2.8,0,3.6-2.4,4-2.9.4-.5,1.9-8-.8-10.1-1.9-1.5-3.7-2.1-6.1-1.3Z"/><path class="cls-7" d="m144.1,153.7c0-.9,0-24.2,0-24.2,0,0-.2-1.2.7-1.8.7-.5,22.1-14.5,23.2-15.1.6-.4,2.3-.6,2.4.9,0,.9,1.1,24.5,1.1,25.4s-.4,1.6-1.9,2.3c-1.6.7-21.5,12.5-23.4,13.5s-2.2,0-2.2-.9Z"/><path class="cls-9" d="m157.3,137.3s-10.9,0-14.2-1.1c-3.2-1.1,3.5-6.1,4-12.6.2-2.3-2.5-31-8.4-19.1-5.9,12-13.1,34.8-13,36.5,0,1.7,0,5.4,3.4,6.9,3.4,1.5,25,.9,25,.9,0,0,5-1.8,6-6.3,1.2-5.9-2.8-5.1-2.8-5.1Z"/><path class="cls-10" d="m157.6,137.5c.4-.4,4.3-2.9,8.4-4,4.2-1.1,4.8-2.1,5.4-2.3.8-.3,1.2,1.7-1.9,4.1-1.6,1.3-4,2.1-4,2.1,0,0,3.8,1.7,6,1.6.4-.5,0-2.1,0-2.1,0,0,2.4,1.4,2.2,3.3-.2,2-1.8,2.1-1.8,2.1,0,0,.9,2-.5,2.8-.7.4-1.4.5-1.4.5,0,0,0,1.8-1.4,2.1-4.6,1.1-9.8-2.8-10.1-3-.3-.2-2.8-.5-2.8-.5,0,0-.6-3.3,1.7-6.7Z"/><path class="cls-7" d="m152.5,122.7c-1.1.6-6.9,4.6-7.7,5-.9.6-.7,1.8-.7,1.8,0,0,0,1.5,0,2.3l8.4-9.2Z"/><polygon class="cls-6" points="180.3 169.1 160.7 169.5 160.6 165.9 180.5 165.6 180.3 169.1"/><polygon class="cls-6" points="191 169 183 169 182.7 165.6 190.6 165.7 191 169"/><polygon class="cls-6" points="149.7 169.7 158.9 169.6 158.7 166.1 150.4 166.5 149.7 169.7"/><rect class="cls-14" x="167.8" y="165" width="8.1" height="4.9" rx="1.4" ry="1.4" transform="translate(-3.4 3.5) rotate(-1.2)"/><path class="cls-9" d="m66.8,44.5l-15.5-16.7,6.8-2.9,6.4,7.2c1.8,2,4.1,5.7,4.1,5.7,0,0,.3-4.6.9-7.6l2.2-11,6.7-2.8-5.4,25.4,2.9,12.5-6.3,2.7-2.9-12.5Z"/><path class="cls-9" d="m81.5,40.8c-2.1-6.6,1.6-12.4,7.9-14.4,6-1.9,12.1.9,14,7,2.1,6.6-1.6,12.4-7.9,14.4-6,1.9-12.1-1-14-6.9Zm15.4-5.4c-.9-3-3.2-4.3-6-3.5-2.9.9-3.9,3.7-2.9,7,.9,3,3.2,4.3,6,3.5,2.9-.9,3.9-3.7,2.9-7Z"/><path class="cls-9" d="m116,41.8l-6.5,1.3-.8-36.6,6.5-1.3.4,18.7c0,1.7,0,3.5-.2,5l6.3-9.8,7.4-1.5-6.8,10.4,4.3,5.5c.8,1,1.1,1.1,1.9.9l1.5-.3v5c.1,0-2.2.5-2.2.5-3.7.7-4.9-.4-6.9-3l-2.9-3.8-2.1,2.7v6.3Z"/><path class="cls-9" d="m134.3,27.8c-.6-6.9,4.2-11.8,10.8-12.4,6.3-.6,11.6,3.4,12.2,9.8.6,6.9-4.2,11.8-10.8,12.4-6.3.6-11.6-3.5-12.2-9.8Zm16.2-2c-.3-3.1-2.2-4.9-5.1-4.7-3,.3-4.6,2.8-4.3,6.2.3,3.1,2.2,4.9,5.1,4.7,3-.3,4.6-2.8,4.3-6.2Z"/><path class="cls-9" d="m168.3,0h6.6c0,.1-3.6,18.5-3.6,18.5,1.7-2.6,3.8-4,6.8-4,4.6,0,7.4,4.1,6.2,10.1l-1.1,5.6c-.2.9.1,1.3.9,1.3h1.5s-.9,5-.9,5h-2.1c-4.5-.1-6.8-1.7-5.8-6.6l1-5.2c.6-2.8-.6-4.3-2.9-4.4-2.6,0-4,1.2-4.6,4.3l-2.3,11.5h-6.6c0-.1,7-36.1,7-36.1Z"/><path class="cls-9" d="m190.1,27c1-7.6,6.2-11.3,11.5-10.6,2.9.4,5.2,1.8,6.3,4.7l.9-3.3,6.5.8-4.5,14.6c-.3.9,0,1.3.7,1.4l1.5.2-1.5,4.8-2.5-.3c-4.8-.6-5.2-1.9-5.4-3.7v-.3c-2,2.2-3.7,3.2-6.6,2.8-4.6-.6-7.8-5-7-11.2Zm15.7.7c.4-3-.8-5.1-3.4-5.4-2.9-.4-5,1.7-5.4,5.3-.4,3,.9,5,3.5,5.3,2.8.4,5-1.8,5.4-5.2Z"/><path class="cls-9" d="m226,20.6l6.4,1.8-1.6,3.1c2.3-2.1,4.5-2.8,7.4-2,2.6.7,4.1,2.7,4.3,5.4,2.9-2.5,5.6-2.6,8.2-1.9,4.5,1.3,5.9,5.7,3.3,11.2l-2.5,5.1c-.4.8-.2,1.2.5,1.4l1.4.4-2.1,4.5-2.4-.7c-4.6-1.3-6-2.8-3.8-7.4l2.4-5c1.2-2.6.9-4.2-1.2-4.8-2.4-.7-3.9.3-5.2,3.1l-5.1,10.6-6.4-1.8,5.1-10.6c1.2-2.6.9-4.2-1.3-4.8-2.5-.7-3.9.3-5.3,3.1l-5.1,10.6-6.4-1.8,9.3-19.5Z"/><path class="cls-9" d="m258.8,42.5c3.1-7.1,9.1-9.1,14.1-7,2.7,1.2,4.5,3.2,4.7,6.3l1.8-2.9,6.1,2.6-8.5,12.8c-.5.8-.4,1.2.3,1.5l1.4.6-2.8,4.2-2.3-1c-4.4-1.9-4.5-3.3-4.1-5v-.2c-2.4,1.6-4.4,2-7.1.9-4.2-1.8-6.1-7-3.6-12.7Zm14.9,5.1c1.2-2.8.6-5.1-1.8-6.2-2.7-1.2-5.2.3-6.7,3.6-1.2,2.8-.5,5,1.8,6,2.6,1.1,5.3-.3,6.6-3.4Z"/><path class="cls-16" d="m50.6,143.1c0,0-1.1,1.7-5.5,2-.3,0-.3.2-.3.3-.3,5.8,2.5,11,6.1,11.7h.2s.2,0,.2,0c3.6-.8,6.4-6.3,5.8-12.2-4.6,0-5.9-1.8-5.9-1.8-.1-.1-.4-.1-.5,0Z"/><path class="cls-11" d="m49.9,148.9v-.9c0-.6.5-1.1,1.1-1.2.6,0,1.1.5,1.2,1.1v.6s.6,0,.6,0v-.6c0-.9-.8-1.7-1.8-1.7-.9,0-1.7.8-1.7,1.7v.9s-.4,0-.4,0v3.1s4.3,0,4.3,0v-3.1s-3.3,0-3.3,0Zm1.6,2.5h-.7s.1-.9.1-.9c-.2,0-.3-.3-.3-.5,0-.3.2-.5.5-.6.3,0,.5.2.6.5,0,.2-.1.4-.3.5v.9Z"/><path class="cls-16" d="m182.5,115.9c0,0-1.1,1.7-5.5,2-.3,0-.3.2-.3.3-.3,5.8,2.5,11,6.1,11.7h.2s.2,0,.2,0c3.6-.8,6.4-6.3,5.8-12.2-4.6,0-5.9-1.8-5.9-1.8-.1-.1-.4-.1-.5,0Z"/><path class="cls-11" d="m181.7,121.8v-.9c0-.6.5-1.1,1.1-1.2.6,0,1.1.5,1.2,1.1v.6s.6,0,.6,0v-.6c0-.9-.8-1.7-1.8-1.7-.9,0-1.7.8-1.7,1.7v.9s-.4,0-.4,0v3.1s4.3,0,4.3,0v-3.1s-3.3,0-3.3,0Zm1.6,2.5h-.7s.1-.9.1-.9c-.2,0-.3-.3-.3-.5,0-.3.2-.5.5-.6.3,0,.5.2.6.5,0,.2-.1.4-.3.5v.9Z"/><path class="cls-16" d="m309.8,132.1c0,0-1.1,1.7-5.5,2-.3,0-.3.2-.3.3-.3,5.8,2.5,11,6.1,11.7h.2s.2,0,.2,0c3.6-.8,6.4-6.3,5.8-12.2-4.6,0-5.9-1.8-5.9-1.8-.1-.1-.4-.1-.5,0Z"/><path class="cls-11" d="m309,138v-.9c0-.6.5-1.1,1.1-1.2.6,0,1.1.5,1.2,1.1v.6s.6,0,.6,0v-.6c0-.9-.8-1.7-1.8-1.7-.9,0-1.7.8-1.7,1.7v.9s-.4,0-.4,0v3.1s4.3,0,4.3,0v-3.1s-3.3,0-3.3,0Zm1.6,2.5h-.7s.1-.9.1-.9c-.2,0-.3-.3-.3-.5,0-.3.2-.5.5-.6.3,0,.5.2.6.5,0,.2-.1.4-.3.5v.9Z"/><path class="cls-11" d="m249.7,116.9c0,0-.6,1-3.2,1.2-.1,0-.2.1-.2.2-.2,3.4,1.5,6.5,3.6,6.9h.1s0,0,0,0c2.2-.5,3.8-3.7,3.4-7.2-2.7,0-3.5-1-3.5-1.1,0,0-.3,0-.3,0Z"/><path class="cls-16" d="m249.2,120.3v-.5c0-.4.3-.7.7-.7.4,0,.7.3.7.7v.3s.3,0,.3,0v-.3c0-.6-.5-1-1-1-.6,0-1,.5-1,1v.5s-.2,0-.2,0v1.9s2.5,0,2.5,0v-1.9s-2,0-2,0Zm.9,1.5h-.4s0-.5,0-.5c-.1,0-.2-.2-.2-.3,0-.2.1-.3.3-.3s.3.1.3.3c0,.1,0,.2-.2.3v.5Z"/><path class="cls-11" d="m102.2,122.5c0,0-.6,1-2.3,1.1-.1,0-.1.1-.1.2-.6,3.4,0,6.5,1.5,6.9h0s0,0,0,0c1.5-.5,3.1-3.7,3.3-7.2-1.8,0-2.2-1.1-2.2-1.1,0,0-.2,0-.2,0Z"/><path class="cls-16" d="m101.4,126v-.5c.1-.4.4-.7.6-.7.3,0,.4.3.4.7v.3s.2,0,.2,0v-.3c.1-.6-.1-1-.5-1-.4,0-.7.5-.8,1v.5c0,0-.2,0-.2,0l-.2,1.9h1.7s.2-1.9.2-1.9h-1.3Zm.4,1.5h-.3s.1-.5.1-.5c0,0,0-.2,0-.3,0-.2.1-.3.3-.3.1,0,.2.1.2.3,0,.1,0,.2-.2.3v.6Z"/></g></svg>