<?xml version="1.0" encoding="UTF-8" standalone="no"?>
<!DOCTYPE svg PUBLIC "-//W3C//DTD SVG 1.1//EN" "http://www.w3.org/Graphics/SVG/1.1/DTD/svg11.dtd">
<svg xmlns="http://www.w3.org/2000/svg" version="1.1" viewBox="0 0 476 119">
<g stroke-width="2.00" fill="none" stroke-linecap="butt">
<path stroke="#888f7d" vector-effect="non-scaling-stroke" d="
  M 82.85 12.30
  A 4.65 4.65 0.0 0 0 78.20 7.65
  A 4.65 4.65 0.0 0 0 73.55 12.30
  A 4.65 4.65 0.0 0 0 78.20 16.95
  A 4.65 4.65 0.0 0 0 82.85 12.30"
/>
<path stroke="#888f7d" vector-effect="non-scaling-stroke" d="
  M 77.79 19.97
  L 75.12 17.62
  Q 74.70 17.26 74.25 17.17
  C 66.53 15.56 67.79 24.62 68.12 30.15
  A 0.63 0.63 88.6 0 0 68.75 30.75
  L 87.50 30.75
  A 0.64 0.63 1.4 0 0 88.14 30.15
  C 88.46 24.35 89.70 16.11 82.19 17.10
  A 1.72 1.31 -64.5 0 0 81.30 17.56
  L 78.77 20.03
  A 0.79 0.65 43.0 0 1 77.79 19.97"
/>
<path stroke="#fde6ad" vector-effect="non-scaling-stroke" d="
  M 442.04 32.00
  A 7.98 7.98 0.0 0 0 434.06 24.02
  A 7.98 7.98 0.0 0 0 426.08 32.00
  A 7.98 7.98 0.0 0 0 434.06 39.98
  A 7.98 7.98 0.0 0 0 442.04 32.00"
/>
</g>
<path fill="#fbcd5b" d="
  M 58.14 23.93
  C 55.78 -2.39 91.04 -9.10 97.94 15.62
  A 0.58 0.58 77.7 0 0 98.59 16.04
  C 178.59 3.34 262.07 2.91 342.50 11.27
  Q 383.84 15.56 424.07 25.96
  A 0.77 0.75 -63.3 0 0 424.85 25.69
  C 430.98 17.82 443.05 20.14 444.95 30.20
  C 445.07 30.83 444.80 32.14 445.16 32.91
  A 1.44 0.98 5.7 0 0 445.89 33.52
  C 455.47 37.23 475.70 47.10 475.42 60.35
  A 0.66 0.42 -89.4 0 1 475.00 61.00
  L 469.51 61.00
  A 0.64 0.59 -89.1 0 1 468.92 60.34
  C 469.29 49.34 452.42 41.41 444.02 38.16
  A 0.70 0.67 -59.7 0 0 443.24 38.38
  C 436.03 47.25 423.40 42.78 422.88 31.40
  A 0.71 0.68 -84.4 0 0 422.38 30.76
  C 394.63 23.12 366.62 18.77 337.49 15.88
  C 258.72 8.09 177.95 8.94 99.53 20.87
  A 1.09 1.09 -89.6 0 0 98.62 21.77
  C 95.24 42.55 70.39 48.16 60.03 29.66
  A 0.66 0.66 67.9 0 0 59.30 29.35
  C 45.41 32.81 7.83 43.35 7.36 60.32
  A 0.70 0.62 -89.1 0 1 6.74 61.00
  L 1.25 61.00
  A 0.69 0.45 -86.8 0 1 0.82 60.26
  C 2.29 39.78 41.98 28.70 57.70 24.57
  A 0.60 0.60 79.8 0 0 58.14 23.93
  Z
  M 82.85 12.30
  A 4.65 4.65 0.0 0 0 78.20 7.65
  A 4.65 4.65 0.0 0 0 73.55 12.30
  A 4.65 4.65 0.0 0 0 78.20 16.95
  A 4.65 4.65 0.0 0 0 82.85 12.30
  Z
  M 77.79 19.97
  L 75.12 17.62
  Q 74.70 17.26 74.25 17.17
  C 66.53 15.56 67.79 24.62 68.12 30.15
  A 0.63 0.63 88.6 0 0 68.75 30.75
  L 87.50 30.75
  A 0.64 0.63 1.4 0 0 88.14 30.15
  C 88.46 24.35 89.70 16.11 82.19 17.10
  A 1.72 1.31 -64.5 0 0 81.30 17.56
  L 78.77 20.03
  A 0.79 0.65 43.0 0 1 77.79 19.97
  Z
  M 442.04 32.00
  A 7.98 7.98 0.0 0 0 434.06 24.02
  A 7.98 7.98 0.0 0 0 426.08 32.00
  A 7.98 7.98 0.0 0 0 434.06 39.98
  A 7.98 7.98 0.0 0 0 442.04 32.00
  Z"
/>
<circle fill="#14509f" cx="78.20" cy="12.30" r="4.65"/>
<path fill="#14509f" d="
  M 78.77 20.03
  L 81.30 17.56
  A 1.72 1.31 -64.5 0 1 82.19 17.10
  C 89.70 16.11 88.46 24.35 88.14 30.15
  A 0.64 0.63 1.4 0 1 87.50 30.75
  L 68.75 30.75
  A 0.63 0.63 88.6 0 1 68.12 30.15
  C 67.79 24.62 66.53 15.56 74.25 17.17
  Q 74.70 17.26 75.12 17.62
  L 77.79 19.97
  A 0.79 0.65 43.0 0 0 78.77 20.03
  Z"
/>
<circle fill="#ffffff" cx="434.06" cy="32.00" r="7.98"/>
</svg>
