<?xml version="1.0" encoding="UTF-8" standalone="no"?>
<!DOCTYPE svg PUBLIC "-//W3C//DTD SVG 1.1//EN" "http://www.w3.org/Graphics/SVG/1.1/DTD/svg11.dtd">
<svg xmlns="http://www.w3.org/2000/svg" version="1.1" viewBox="0 0 476 119">
<g stroke-width="2.00" fill="none" stroke-linecap="butt">
<path stroke="#fde6ad" vector-effect="non-scaling-stroke" d="
  M 32.17 80.71
  A 7.95 7.95 0.0 0 0 24.22 72.76
  A 7.95 7.95 0.0 0 0 16.27 80.71
  A 7.95 7.95 0.0 0 0 24.22 88.66
  A 7.95 7.95 0.0 0 0 32.17 80.71"
/>
<path stroke="#888f7d" vector-effect="non-scaling-stroke" d="
  M 388.59 89.92
  A 4.64 4.64 0.0 0 0 383.95 85.28
  A 4.64 4.64 0.0 0 0 379.31 89.92
  A 4.64 4.64 0.0 0 0 383.95 94.56
  A 4.64 4.64 0.0 0 0 388.59 89.92"
/>
<path stroke="#888f7d" vector-effect="non-scaling-stroke" d="
  M 375.78 95.37
  C 372.97 97.32 373.55 105.01 373.80 107.98
  A 0.57 0.44 86.5 0 0 374.25 108.50
  L 393.50 108.50
  A 0.51 0.50 90.0 0 0 394.00 107.99
  C 394.00 103.62 396.00 93.00 387.68 94.85
  A 1.98 1.61 11.6 0 0 386.80 95.31
  L 384.28 97.78
  A 0.84 0.48 40.4 0 1 383.38 97.61
  C 381.00 95.73 379.03 93.12 375.78 95.37"
/>
</g>
<path fill="#fbcd5b" d="
  M 12.77 78.79
  C 6.62 74.80 1.36 68.79 0.81 61.31
  A 0.51 0.45 87.1 0 1 1.25 60.75
  L 6.99 60.75
  A 0.90 0.49 73.0 0 1 7.59 61.34
  Q 10.35 68.08 16.58 71.91
  A 0.72 0.72 -46.3 0 0 17.37 71.89
  C 25.14 66.54 35.22 71.40 35.28 81.04
  A 0.72 0.72 9.6 0 0 35.75 81.70
  C 74.28 95.45 116.85 101.33 158.43 104.46
  C 226.35 109.58 295.76 108.57 363.32 99.55
  A 0.45 0.44 -4.5 0 0 363.70 99.11
  C 363.77 75.15 395.88 69.66 403.36 91.96
  A 0.43 0.42 75.0 0 0 403.84 92.24
  C 420.77 88.62 461.08 79.44 468.81 61.23
  A 0.77 0.76 -78.2 0 1 469.51 60.76
  L 474.52 60.74
  A 1.25 1.12 -83.0 0 1 475.58 62.26
  C 472.11 77.98 452.76 85.88 439.17 90.64
  Q 422.25 96.57 404.72 100.36
  A 0.75 0.74 -1.2 0 0 404.15 100.95
  C 400.49 120.47 377.00 124.70 366.18 107.95
  A 0.79 0.77 69.6 0 0 365.43 107.59
  C 278.62 118.92 188.13 119.28 101.51 105.95
  C 77.75 102.29 54.73 97.30 32.44 88.92
  A 0.88 0.84 -53.3 0 0 31.60 89.06
  C 23.57 95.37 12.67 89.89 13.16 79.56
  A 0.89 0.87 -72.5 0 0 12.77 78.79
  Z
  M 32.17 80.71
  A 7.95 7.95 0.0 0 0 24.22 72.76
  A 7.95 7.95 0.0 0 0 16.27 80.71
  A 7.95 7.95 0.0 0 0 24.22 88.66
  A 7.95 7.95 0.0 0 0 32.17 80.71
  Z
  M 388.59 89.92
  A 4.64 4.64 0.0 0 0 383.95 85.28
  A 4.64 4.64 0.0 0 0 379.31 89.92
  A 4.64 4.64 0.0 0 0 383.95 94.56
  A 4.64 4.64 0.0 0 0 388.59 89.92
  Z
  M 375.78 95.37
  C 372.97 97.32 373.55 105.01 373.80 107.98
  A 0.57 0.44 86.5 0 0 374.25 108.50
  L 393.50 108.50
  A 0.51 0.50 90.0 0 0 394.00 107.99
  C 394.00 103.62 396.00 93.00 387.68 94.85
  A 1.98 1.61 11.6 0 0 386.80 95.31
  L 384.28 97.78
  A 0.84 0.48 40.4 0 1 383.38 97.61
  C 381.00 95.73 379.03 93.12 375.78 95.37
  Z"
/>
<circle fill="#ffffff" cx="24.22" cy="80.71" r="7.95"/>
<circle fill="#14509f" cx="383.95" cy="89.92" r="4.64"/>
<path fill="#14509f" d="
  M 375.78 95.37
  C 379.03 93.12 381.00 95.73 383.38 97.61
  A 0.84 0.48 40.4 0 0 384.28 97.78
  L 386.80 95.31
  A 1.98 1.61 11.6 0 1 387.68 94.85
  C 396.00 93.00 394.00 103.62 394.00 107.99
  A 0.51 0.50 -90.0 0 1 393.50 108.50
  L 374.25 108.50
  A 0.57 0.44 86.5 0 1 373.80 107.98
  C 373.55 105.01 372.97 97.32 375.78 95.37
  Z"
/>
</svg>
