<svg id="_レイヤー_2" xmlns="http://www.w3.org/2000/svg" viewBox="0 0 390 390"><defs><clipPath id="clippath"><path style="fill:none" d="M0 0h390v390H0z"/></clipPath><style>.cls-3{fill:#05427f}.cls-4{fill:#fff}.cls-5{fill:#f0bda5}.cls-6{fill:#e5b187}.cls-8{fill:#c0dce9}.cls-9{fill:#14509f}.cls-11{fill:#3b3b3b}</style></defs><g style="clip-path:url(#clippath);fill:none" id="_レイヤー_1-2"><path class="cls-5" d="m181.797 151.151 8.488-4.498s2.959-6.388 6.494-11.851c3.327-5.148 12.848-5.096 14.135-5.494 1.47 2.584-2.906 3.86-5.576 4.294 1.007.881 1.775 3.895 1.006 5.496-.622 1.296-2.389 1.863-4.012 2.177-.618.302-2.441.491-2.364.896.22 1.16.659 1.471 3.214.283 4.955-2.305 5.95-1.38 6.88-.389-.899 1.177-9.104 6.094-11.214 8.583-2.111 2.488-4.498 1.353-4.498 1.353l-7.211 4.345-5.343-5.196Z"/><path class="cls-9" d="M186.965 148.299c-28.171 15.295-43.09 22.747-50.811 25.491-7.721 2.744-9.7 22.017 6.356 18.344 16.053-3.681 48.239-35.841 48.239-35.841s-.597-2.876-3.783-7.994Z"/><path class="cls-3" d="M123.007 112.901c11.561 4.262 16.488 43.097 21.776 58.248 3.931 11.262-.261 28.54-13.985 17.916-13.856-10.72-26.351-62.979-25.601-71.048.906-8.536 13.336-6.765 17.81-5.115Z"/><path class="cls-4" d="m86.765 229.594 41.003-1.824s6.14-43.483 11.676-50.337c5.535-6.853 4.38-12.044 3.65-15.451-2.279-5.71-15.282-28.441-22.426-43.033-7.14-14.591-20.206-10.814-20.206-10.814L86.766 229.594Z"/><path class="cls-3" d="M118.059 238.113c5.562 4.781-6.96 41.458-6.96 41.458s-12.082 57.477-20.319 69.645c-12.484 18.441-53.53 82.972-53.53 82.972s-12.473-2.132-19.709-6.569c3.626-34.234 24.968-67.17 36.741-83.702 11.436-16.059 10.219-28.468 11.679-45.257 1.947-16.789-2.098-39.245 2.553-49.415.994-2.939 37.295-19.655 49.544-9.132Z"/><path class="cls-6" d="M136.914 102.609c-9.03 1.56-17.125 14.032-18.717 21.758-3.798 5.779-17.715-17.325-17.715-17.325s5.56-4.028 6.96-9.706c1.399-5.675 1.656-28.589 1.656-28.589s36.072 32.436 27.817 33.862Z"/><path class="cls-11" d="M104.363 71.144s-9.668-1.508-13.133 13.093c-3.466 14.596-1.207 20.494-4.214 27.785-1.708 4.142-4.925 10.047 5.247 3.482 7.326-4.728 18.052-12.44 20.571-20.008 1.708-5.134-.434-23.137-.434-23.137l-8.037-1.214Z"/><path class="cls-5" d="M120.747 73.98s-4.303-.897-7.53 5.682c-3.225 6.579 5.925 9.961 5.925 9.961s5.946 11.959 12.506 13.169c3.212.592 9.012.687 9.678.762.672.079 1.422-.461 1.498-1.131.076-.666 1.541-16.136 1.541-16.136s4.034-.968 2.048-2.761c-10.316-9.319-3.261-20.041-14.571-23.589l-11.094 14.042Z"/><path class="cls-11" d="M97.928 64.895c3.629-10.146 18.017-15.328 29.385-14.053 5.613.63 8.927 1.646 10.049 4.765l.013-.02s14.875 7.154.414 19.835c-3.289 2.885-13.272 6.986-15.714 5.3-2.235-1.542-4.449-3.424-6.653-.729-2.205 2.694-.174 10.387-2.668 15.805-1.652 3.587-4.515 6.132-4.515 6.132s-3.196-3.763-5.913-7.824c-2.014-3.011-7.657-20.098-4.398-29.211Z"/><path class="cls-9" d="M137.526 358.924c2.366 54.601 4.277 82.803 4.277 82.803s-16.381.239-23.528-.05c-3.055-36.557-13.77-64.718-8.966-87.588 2.152-15.696-23.614-65.294-23.614-65.294s-16.64-23.516-9.422-43.613c1.441-4.015 5.564-19.511 5.564-19.511s33.81 2.291 45.976 2.1c.348 1.069.379 9.2.313 11.022 2.049 14.361 5.512 46.741 5.704 49.834 1.516 24.484 2.107 33.678 3.695 70.297Z"/><path class="cls-3" d="M68.298 258.838s17.347 7.381 24.963 7.426c6.615-6.212 9.319-31.739 9.319-31.739l-34.282 24.313Z"/><path class="cls-9" d="M73.134 150.911s-3.954-23.693 8.638-33.73c6.615-2.486 11.999-5.315 11.999-5.315l6.691-3.731s20.499 32.323 20.696 71.529c-.35 14.065-7.116 32.846-31.468 79.752-9.45 1.111-19.544-2.499-33.057-5.98 3.116-31.527 27.649-39.918 26.89-71.771-.492-20.683-10.388-30.753-10.388-30.753Z"/><path class="cls-3" d="M100.751 107.418c-2.874 1.825-8.326 4.996-8.326 4.996s17.068 28.874 22.065 27.452c-2.598-7.365-10.043-28.387-13.739-32.448Z"/><path class="cls-5" d="M204.358 208.118s-8.225 3.147-9.51 3.544c-2.228-1.652-5.336-1.938-8.218-2.422-2.515-.424-4.067-.36-7.121-.177-2.542 4.955 2.241 4.604 3.114 5.595-9.685 2.804-3.549 9.906-3.549 9.906s14.381 3.836 17.784-3.094c1.806-.397 10.583-2.731 10.583-2.731l-3.083-10.62Z"/><path class="cls-6" d="M121.85 190.282c17.873 9.644 46.393 20.102 47.011 19.905 9.603.236 7.963 1.43 12.501 2.995.992.471 1.905 1.235 2.888 2.2 1.041 1.264 4.007 6.15 8.271 9.88 1.648 1.441.089 4.724-1.892 4.639-.434.779-.891 2.251-3.274 2.096-1.124-.074-2.178-.694-2.178-.694s-.53.521-1.346 1.181c-.626.506-1.566 1.357-7.882-.834-2.402-.832-9.484-9.965-11.73-13.469-4.19-.827-27.654-5.366-48.801-16.043 1.74-5.527 3.317-5.514 6.431-11.856Z"/><path class="cls-5" d="M171.657 216.86s2.853-2.835 4.96-5.852c.826-1.183 2.118-2.015 2.796-2.056 2.184-.132 4.952-.223 5.908.149.956.373-4.165 4.106-4.165 4.106s-2.922 2.914-4.926 4.227c-3.206 2.103-4.574-.574-4.574-.574ZM167.023 223.685c1.829-.723 3.758-1.259 5.863-1.919 2.073-.649 4.048.632 3.666 1.677.734-.092 1.666.567 2.481 1.551.863 1.041 1.309 1.645.101 3.109-1.828 2.215-4.096 3.66-4.831 3.763-2.105.295-2.906-.533-3.409-1.762-1.036-.471-1.978-.822-2.492-2.096-.671-1.665-3.127-1.479-1.38-4.323Z"/><path class="cls-3" d="M108.293 221.474s7.969-13.139 9.155-22.994c5.931-15.512-25.092-60.221-27.1-19.891-1.299 26.095 17.945 42.885 17.945 42.885Z"/><path class="cls-9" d="M83.479 116.446c4.977 9.659 24.37 50.993 32.119 63.602 1.59 2.476 1.719 4.463 3.918 5.097 9.328 3.722 19.77 12.905 35.196 19.113-1.647 3.496-4.273 12.342-4.273 12.342s-27.548-3.761-42.703-16.619c-19.491-16.537-26.505-30.269-31.092-39.51-17.188-34.627 1.85-42.063 6.835-44.026Z"/><path class="cls-8" d="M268.482 136.805s-8.623 40.132-10.163 49.143c-12.198 1.969-27.13 13.364-55.126 22.264 2.343 8.86 3.772 11.801 3.772 11.801s50.76-10.883 61.745-15.237c10.982-4.355 22.848-55.862 22.848-55.862l-23.076-12.109Z"/><path d="M275.066 464.743c2.469.927 17.637.053 26.316.187-.435-51.709 12.7-86.273 4.641-115.715-.395-.971-.76-3.811.03-6.812 11.065-41.915 13.736-114.015 13.736-114.015L270.76 233.7s.422 105.551.836 114.015c.414 8.457 3.251 34.906 3.47 117.028Z" style="fill:#646464"/><path d="m281.162 246.833 78.055 218.324s16.949.297 21.004-1.924c-13.062-51.986-9.672-96.958-26.297-117.329-.932-.825-3.135-5.366-3.211-6.903-7.348-31.624 1.394-81.02-12.611-111.082-13.544.114-62.033.867-62.033.867l5.093 18.047Z" style="fill:#969696"/><path class="cls-4" d="M267.982 116.301c1.602-2.525-2.134-9.978-2.134-9.978l6.28-6.889 15.558-14.341 7.056-.182 5.11 5.475s35.069 21.372 36.862 30.012c4.642 22.38-4.225 83.271-4.225 83.271l7.725 29.637s-29.823 11.724-69.438 3.132c-.637-4.455-2.828-19.745-3.713-23.226-2.656-10.43-4.165-22.761-7.479-53.237 0 0-1.295-15.678 1.46-28.286 1.148-5.255 4.001-10.757 6.94-15.388Z"/><path class="cls-6" d="M251.236 93.349c9.244-1.072 14.887 1.797 23.508 11.727 6.672 1.405 22.232-13.446 18.823-17.015-1.289-1.346-7.205-6.647-8.965-17.211-1.309-7.86-11.993-10.501-14.433-9.823L252.526 74.76l-2.658 17.224s1.302 1.384 1.368 1.366Z"/><path class="cls-8" d="M294.742 84.789c1.521 1.521 5.353 5.414 5.353 5.414l-19.533 22.106s-6.579-.728-9.727-7.641c11.715-7.06 21.12-17.607 23.907-19.879ZM275.168 192.726c2.12 9.72 36.646 47.66 47.226 24.829 12.092-26.092 20.649-61.345 20.069-73.596-.58-12.251-25.06 7.876-28.864 14.009-3.804 6.132 18.431 47.447-30.343 33.176-.808-.236-8.39.193-8.088 1.582Z"/><path class="cls-5" d="M265.726 61.492s3.55.604 7.521 5.33c3.972 4.728-3.698 10.447-3.698 10.447s-3.015 12.945-8.433 14.42c-3.245.888-8.494 1.748-10.809 1.908-.567.04-1.506.01-1.702-.52-.196-.532-2.436-17.069-2.436-17.069s-3.73.082-2.816-1.982c2.543-5.75 3.458-9.263 4.55-11.864 1.093-2.602 3.832-12.227 5.566-17.154 3.65-1.277 12.257 16.485 12.257 16.485Z"/><path class="cls-11" d="M285.402 50.632c-1.332-1.916-3.585-3.075-5.96-3.366-1.027-2.252-3.771-3.556-6.29-4.156-6.031-1.434-16.633.821-22.06-3.772-3.102 1.145-5.356 4.935-4.801 8.524.386 2.487 2.341 7.304 5.854 6.224 5.779-2.302 12.227.704 10.331 6.455-.286 1.812-1.644 6.346 3.24 7.95 3.155.519 2.041-4.668 7.366-2.295 4.146 2.141 2.284 15.197 13.873 12.45-.107-11.32 1.991-23.38-1.553-28.014Z"/><path class="cls-5" d="M253.728 179.393s-7.619-4.521-18.224-8.309c-.832 4.448 8.045 7.392 8.045 7.392s-23.47 2.7-24.556 2.96c-1.088.261-1.07 2.597-1.07 2.597s-2.946.88-1.021 1.986c1.922 1.107 13.509 1.329 13.509 1.329s-8.009 1.285-8.769 1.261c-.759-.021-.113 2.889 6.103 3.04 2.364.058 18.996 2.515 22.721-3.098.699.107 5.513-1.087 5.513-1.087l-2.251-8.072Z"/><path class="cls-4" d="M253.158 178.38s69.086 5.292 73.519 5.738c1.361-3.419-17.221-29.844-16.057-52.477.72-14.008 14.647-27.955 25.576-12.882 9.927 13.693 15.351 46.14 17.897 66.394 1.399 11.14.745 20.478-18.112 21.194-26.344 1.001-81.691-15.532-81.691-15.532l-1.132-12.436Z"/></g></svg>