<?xml version="1.0" encoding="UTF-8"?>
<svg id="_レイヤー_2"
  xmlns="http://www.w3.org/2000/svg"
  xmlns:xlink="http://www.w3.org/1999/xlink" viewBox="0 0 750 83.076" preserveAspectRatio="none">
  <defs>
    <style>.cls-1,.cls-2,.cls-3,.cls-4{fill:none;}.cls-2{clip-path:url(#clippath-1);}.cls-5{fill:#14509f;}.cls-3{stroke:#fff;stroke-width:.723px;}.cls-4{clip-path:url(#clippath);}</style>
    <clipPath id="clippath">
      <rect class="cls-1" x="0" width="750" height="83.076"/>
    </clipPath>
    <clipPath id="clippath-1">
      <rect class="cls-1" x="-131.218" y="-54.766" width="1012.436" height="665.163"/>
    </clipPath>
  </defs>
  <g id="_レイヤー_1-2">
    <g class="cls-4">
      <g class="cls-2">
        <path class="cls-5" d="m984.351.526c-6.031,3.755-15.653,6.185-26.493,6.185s-20.463-2.43-26.494-6.185c-6.031,3.755-15.653,6.185-26.493,6.185s-20.463-2.43-26.494-6.185c-6.031,3.755-15.653,6.185-26.493,6.185s-20.463-2.43-26.494-6.185c-6.031,3.755-15.653,6.185-26.493,6.185s-20.463-2.43-26.494-6.185c-6.031,3.755-15.653,6.185-26.493,6.185s-20.463-2.43-26.494-6.185c-6.031,3.755-15.653,6.185-26.493,6.185s-20.463-2.43-26.494-6.185c-6.031,3.755-15.653,6.185-26.493,6.185s-20.463-2.43-26.494-6.185c-6.031,3.755-15.653,6.185-26.493,6.185s-20.463-2.43-26.494-6.185c-6.031,3.755-15.653,6.185-26.493,6.185s-20.463-2.43-26.494-6.185c-6.031,3.755-15.653,6.185-26.493,6.185s-20.463-2.43-26.494-6.185c-6.031,3.755-15.653,6.185-26.493,6.185s-20.463-2.43-26.494-6.185c-6.031,3.755-15.653,6.185-26.493,6.185s-20.463-2.43-26.494-6.185c-6.031,3.755-15.653,6.185-26.493,6.185s-20.463-2.43-26.494-6.185c-6.031,3.755-15.653,6.185-26.493,6.185s-20.463-2.43-26.494-6.185c-6.031,3.755-15.653,6.185-26.493,6.185s-20.463-2.43-26.494-6.185c-6.031,3.755-15.653,6.185-26.493,6.185s-20.463-2.43-26.494-6.185c-6.031,3.755-15.653,6.185-26.493,6.185s-20.463-2.43-26.494-6.185c-6.031,3.755-15.653,6.185-26.493,6.185S36.615,4.28,30.584.526c-6.031,3.755-15.653,6.185-26.493,6.185S-16.372,4.28-22.403.526c-6.031,3.755-15.653,6.185-26.493,6.185s-20.463-2.43-26.494-6.185c-6.031,3.755-15.653,6.185-26.493,6.185s-20.463-2.43-26.494-6.185c-6.031,3.755-15.653,6.185-26.493,6.185s-20.463-2.43-26.494-6.185c-6.031,3.755-15.653,6.185-26.493,6.185s-20.463-2.43-26.494-6.185c-6.031,3.755-15.653,6.185-26.493,6.185v790.517H1010.845V6.711c-10.84,0-20.463-2.43-26.494-6.185Z"/>
        <path class="cls-3" d="m1010.845,6.711c-10.84,0-20.463-2.43-26.494-6.185-6.031,3.755-15.653,6.185-26.493,6.185s-20.463-2.43-26.494-6.185c-6.031,3.755-15.653,6.185-26.493,6.185s-20.463-2.43-26.494-6.185c-6.031,3.755-15.653,6.185-26.493,6.185s-20.463-2.43-26.494-6.185c-6.031,3.755-15.653,6.185-26.493,6.185s-20.463-2.43-26.494-6.185c-6.031,3.755-15.653,6.185-26.493,6.185s-20.463-2.43-26.494-6.185c-6.031,3.755-15.653,6.185-26.493,6.185s-20.463-2.43-26.494-6.185c-6.031,3.755-15.653,6.185-26.493,6.185s-20.463-2.43-26.494-6.185c-6.031,3.755-15.653,6.185-26.493,6.185s-20.463-2.43-26.494-6.185c-6.031,3.755-15.653,6.185-26.493,6.185s-20.463-2.43-26.494-6.185c-6.031,3.755-15.653,6.185-26.493,6.185s-20.463-2.43-26.494-6.185c-6.031,3.755-15.653,6.185-26.493,6.185s-20.463-2.43-26.494-6.185c-6.031,3.755-15.653,6.185-26.493,6.185s-20.463-2.43-26.494-6.185c-6.031,3.755-15.653,6.185-26.493,6.185s-20.463-2.43-26.494-6.185c-6.031,3.755-15.653,6.185-26.493,6.185s-20.463-2.43-26.494-6.185c-6.031,3.755-15.653,6.185-26.493,6.185s-20.463-2.43-26.494-6.185c-6.031,3.755-15.653,6.185-26.493,6.185s-20.463-2.43-26.494-6.185c-6.031,3.755-15.653,6.185-26.493,6.185s-20.463-2.43-26.494-6.185c-6.031,3.755-15.653,6.185-26.493,6.185S36.615,4.28,30.584.526c-6.031,3.755-15.653,6.185-26.493,6.185S-16.372,4.28-22.403.526c-6.031,3.755-15.653,6.185-26.493,6.185s-20.463-2.43-26.494-6.185c-6.031,3.755-15.653,6.185-26.493,6.185s-20.463-2.43-26.494-6.185c-6.031,3.755-15.653,6.185-26.493,6.185s-20.463-2.43-26.494-6.185c-6.031,3.755-15.653,6.185-26.493,6.185s-20.463-2.43-26.494-6.185c-6.031,3.755-15.653,6.185-26.493,6.185"/>
      </g>
    </g>
  </g>
</svg>