<?xml version="1.0" encoding="UTF-8"?><svg id="_レイヤー_2" xmlns="http://www.w3.org/2000/svg" xmlns:xlink="http://www.w3.org/1999/xlink" viewBox="0 0 750.059 689"><defs><style>.cls-1,.cls-2,.cls-3,.cls-4,.cls-5,.cls-6{fill:none;}.cls-2{opacity:.7;}.cls-7,.cls-8{fill:#fff;}.cls-9{fill:#64aee5;}.cls-3{stroke-linejoin:bevel;}.cls-3,.cls-4{stroke:#14509f;stroke-width:1.085px;}.cls-10{fill:url(#_名称未設定グラデーション_13);fill-rule:evenodd;}.cls-8,.cls-6{opacity:.2;}.cls-5{clip-path:url(#clippath);}</style><clipPath id="clippath"><rect class="cls-1" x="0" width="750.059" height="689"/></clipPath><linearGradient id="_名称未設定グラデーション_13" x1="477.975" y1="564.086" x2="477.975" y2="100.539" gradientTransform="translate(-103.885 59.55)" gradientUnits="userSpaceOnUse"><stop offset="0" stop-color="#64aee5"/><stop offset=".809" stop-color="#0074c2"/></linearGradient></defs><g id="_レイヤー_1-2"><g class="cls-5"><g class="cls-2"><path class="cls-10" d="m780.985,524.681v-.592h-.649v-40.992h-5.727v-2.212h-1.798v-1.125h-.4v1.125h-3.596v-.557h-3.244l-2.234-.529h-1.087v.529h-1.195v.557h-5.022v-.253h-1.599v-2.348h-.459v2.348h-3.708v.253h-1.672v2.212h-1.297v-.308h-1.311v.308h-1.451v40.992h-.806v17.408h-2.516v5.215h-2.296v-.575h-.88v-.932h.88v-.722h-.88v-.932h.88v-.725h-.88v-.932h.88v-.722h-.88v-.932h.88v-.726h-.88v-.932h.88v-.726h-.88v-.929h.88v-.725h-.88v-.932h.88v-.726h-.88v-.928h.88v-.726h-.88v-.932h.88v-.725h-.88v-.929h.88v-.726h-.88v-.932h.88v-.726h-.88v-.932h.88v-.722h-.88v-.932h.88v-.726h-.88v-.932h.88v-.722h-.88v-.932h.88v-.725h-.88v-.932h.88v-.725h-.88v-.929h.88v-.726h-.88v-.932h.88v-.726h-.88v-.515h-2.961c-.21-1.911-1.824-3.417-3.789-3.417h-21.856c-1.965,0-3.579,1.506-3.789,3.417h-2.817v45.226h-8.85v-150.534h-1.626v-.535h-1.135v-.649h-1.458v.649h-.487v-2.076h-.389v2.611h-1.104v-.697h-.778v-.324h-.302v.324h-1.321v-.584h-.225v.584h-.665c-.03-.443-.133-.778-.267-.778-.154,0-.281.455-.281,1.016,0,.484.096.87.221.972-.518.114-1.032.232-1.542.356v-1.307h-.452v1.103h-2.692v1.048c-42.258,12.379-56.587,61.061-55.797,112.567v16.988h-4.914v10.924h-4.654v-1.202h-1.823v-2.748h1.823v-1.451h-1.823v-2.748h1.823v-1.448h-1.823v-2.748h1.823v-1.451h-1.823v-2.748h1.823v-1.451h-1.823v-2.748h1.823v-1.451h-1.823v-2.748h1.823v-1.447h-1.823v-2.748h1.823v-1.451h-1.823v-2.748h1.823v-1.451h-1.823v-2.748h1.823v-1.451h-1.823v-2.748h1.823v-1.451h-1.823v-2.748h1.823v-1.447h-1.823v-2.748h1.823v-1.451h-1.823v-2.748h1.823v-1.451h-1.823v-2.748h1.823v-1.451h-1.823v-2.748h1.823v-1.447h-1.823v-2.748h1.823v-1.451h-1.823v-2.748h1.823v-1.451h-1.823v-1.507h1.823v-8.555h-38.984v8.555h1.822v1.507h-1.822v1.451h1.822v2.748h-1.822v1.451h1.822v2.748h-1.822v1.447h1.822v2.748h-1.822v1.451h1.822v2.748h-1.822v1.451h1.822v2.748h-1.822v1.451h1.822v2.748h-1.822v1.447h1.822v2.748h-1.822v1.451h1.822v2.748h-1.822v1.451h1.822v2.748h-1.822v1.451h1.822v2.748h-1.822v1.451h1.822v2.748h-1.822v1.447h1.822v2.748h-1.822v1.451h1.822v2.748h-1.822v1.451h1.822v2.748h-1.822v1.451h1.822v1.237h-8.517v19.448h-3.01v-5.383h-16.188l-.22.002v-5.522h-.6v-1.195h.6v-2.597h-.6v-1.195h.6v-2.597h-.6v-1.195h.6v-2.597h-.6v-1.195h.6v-2.597h-.6v-1.195h.6v-2.597h-.6v-1.195h.6v-2.593h-.6v-1.195h.6v-2.597h-.6v-1.195h.6v-2.597h-.6v-1.195h.6v-2.597h-.6v-1.195h.6v-2.597h-.6v-1.195h.6v-2.597h-.6v-1.391c.344-.238.571-.638.571-1.09v-7.129h-19.494l-11.51-7.132h-25.256c-.729,0-1.325.596-1.325,1.325v12.937c0,.452.228.852.571,1.09v1.391h-.599v2.597h.599v1.195h-.599v2.597h.599v1.195h-.599v2.597h.599v1.195h-.599v2.597h.599v1.195h-.599v2.597h.599v1.195h-.599v2.593h.599v1.195h-.599v2.597h.599v1.195h-.599v2.597h.599v1.195h-.599v2.597h.599v1.195h-.599v2.597h.599v1.195h-.599v2.597h.599v1.195h-.599v2.205h-6.74v-.918h.603v-2.597h-.603v-1.195h.603v-2.597h-.603v-1.195h.603v-2.597h-.603v-1.195h.603v-2.597h-.603v-1.192h.603v-2.597h-.603v-1.195h.603v-2.597h-.603v-1.195h.603v-2.597h-.603v-1.195h.603v-2.597h-.603v-1.195h.603v-2.597h-.603v-1.195h.603v-2.597h-.603v-1.195h.603v-2.597h-.603v-1.195h.603v-2.594h-.603v-1.195h.603v-2.597h-.603v-1.195h.603v-2.597h-.603v-1.195h.603v-2.597h-.603v-1.195h.603v-2.597h-.603v-1.195h.603v-2.597h-.603v-1.195h.603v-2.597h-.603v-1.391c.347-.238.575-.638.575-1.09v-6.109h-.039c-.137-.585-.662-1.02-1.286-1.02h-18.744l-11.51-7.129h-18.288c-.729,0-1.325.592-1.325,1.322v12.936c0,.452.228.852.575,1.09v1.391h-.603v2.597h.603v1.195h-.603v2.597h.603v1.195h-.603v2.597h.603v1.195h-.603v2.597h.603v1.195h-.603v2.597h.603v1.195h-.603v2.597h.603v1.195h-.603v2.594h.603v1.195h-.603v2.597h.603v1.195h-.603v2.597h.603v1.195h-.603v2.597h.603v1.195h-.603v2.597h.603v.168h-6.225v-2.212h-.603v-1.195h.603v-2.597h-.603v-1.195h.603v-2.597h-.603v-1.195h.603v-2.597h-.603v-1.195h.603v-2.597h-.603v-1.195h.603v-2.597h-.603v-1.195h.603v-2.594h-.603v-1.199h.603v-2.594h-.603v-1.195h.603v-2.597h-.603v-1.195h.603v-2.597h-.603v-1.195h.603v-2.597h-.603v-1.196h.603v-2.597h-.603v-1.195h.603v-2.597h-.603v-1.195h.603v-2.597h-.603v-1.195h.603v-2.597h-.603v-1.192h.603v-2.597h-.603v-1.195h.603v-2.597h-.603v-1.195h.603v-2.597h-.603v-1.195h.603v-2.597h-.603v-1.391c.347-.238.575-.639.575-1.09v-6.112h-.039c-.136-.583-.662-1.018-1.286-1.018h-18.744l-11.51-7.131h-14.468c-.726,0-1.321.596-1.321,1.324v12.936c0,.451.228.85.571,1.09v1.391h-.599v2.597h.599v1.195h-.599v2.597h.599v1.195h-.599v2.597h.599v1.195h-.599v2.597h.599v1.192h-.599v2.597h.599v1.195h-.599v2.597h.599v1.195h-.599v2.597h.599v1.195h-.599v2.597h.599v1.196h-.599v2.597h.599v1.195h-.599v2.597h.599v1.195h-.599v2.597h.599v1.195h-.599v2.594h.599v1.199h-.599v2.594h.599v1.195h-.599v2.597h.599v1.195h-.599v2.597h.599v1.195h-.599v2.597h.599v1.195h-.599v2.597h.599v1.195h-.599v2.597h.599v1.195h-.599v2.597h.599v1.195h-.599v2.597h.599v1.192h-.599v2.597h.599v.862h-6.176v-58.766h-.729v-18.751h-1.77v-3.856h-6.638v-.928h-6.698v-35.026h-4.819v-1.084h-13.203v1.084h-1.511v-.558h-5.191v-2.824l-29.886.007v3.375h-2.495v6.65c-.096-.083-.193-.166-.305-.231-1.22-.705-2.919-.042-3.8,1.48-.794,1.372-.638,2.968.294,3.786l-.196.338c-1.751-1-3.552-1.919-5.401-2.756l.155-.348c1.219.301,2.623-.51,3.276-1.974.715-1.605.249-3.371-1.037-3.944-1.286-.573-2.909.263-3.624,1.868-.645,1.448-.326,3.016.687,3.734l-.155.349c-1.844-.809-3.733-1.532-5.662-2.171l.116-.358c1.244.173,2.559-.781,3.055-2.306.539-1.67-.105-3.378-1.444-3.813-1.342-.435-2.867.566-3.41,2.237-.49,1.508-.007,3.035,1.076,3.642l-.115.354c-1.916-.61-3.873-1.127-5.861-1.56l.078-.367c1.255.042,2.461-1.045,2.793-2.612.364-1.719-.456-3.349-1.833-3.642-1.377-.293-2.793.862-3.159,2.581-.328,1.55.311,3.017,1.451,3.508l-.076.36c-1.966-.404-3.967-.709-5.993-.931l.039-.375c1.254-.09,2.339-1.295,2.506-2.89.183-1.747-.804-3.282-2.205-3.43-1.401-.146-2.686,1.15-2.87,2.898-.165,1.576.625,2.97,1.81,3.337l-.04.376c-1.994-.195-4.015-.298-6.057-.31v-.378c1.237-.22,2.19-1.533,2.19-3.135,0-1.757-1.142-3.18-2.552-3.18s-2.551,1.424-2.551,3.18c0,1.585.933,2.888,2.148,3.13v.384c-2.043.012-4.064.114-6.058.31l-.038-.366c1.206-.348,2.017-1.753,1.85-3.347-.184-1.748-1.469-3.045-2.87-2.898-1.402.148-2.389,1.683-2.205,3.431.166,1.576,1.229,2.775,2.464,2.889l.04.376c-2.027.223-4.028.528-5.995.932l-.073-.346c1.164-.473,1.824-1.955,1.49-3.522-.365-1.719-1.779-2.874-3.158-2.581-1.378.293-2.199,1.923-1.833,3.642.329,1.549,1.512,2.63,2.752,2.615l.078.364c-1.99.433-3.946.951-5.863,1.561l-.11-.338c1.107-.591,1.609-2.135,1.113-3.66-.543-1.67-2.07-2.671-3.408-2.236-1.342.435-1.987,2.142-1.444,3.813.49,1.507,1.779,2.459,3.01,2.313l.115.352c-1.929.639-3.819,1.363-5.664,2.172l-.146-.329c1.039-.704,1.376-2.291.725-3.756-.715-1.604-2.338-2.44-3.626-1.867-1.287.573-1.751,2.338-1.037,3.944.645,1.447,2.026,2.259,3.236,1.986l.15.338c-1.849.838-3.651,1.758-5.402,2.758l-.184-.317c.96-.809,1.129-2.423.328-3.811-.878-1.521-2.581-2.184-3.8-1.479-1.22.704-1.496,2.509-.618,4.031.793,1.372,2.251,2.035,3.426,1.636l.185.321c-1.748,1.025-3.443,2.13-5.083,3.309l-.218-.3c.87-.905.871-2.528-.071-3.823-1.032-1.422-2.794-1.903-3.933-1.075-1.14.829-1.228,2.652-.194,4.073.931,1.282,2.45,1.789,3.578,1.27l.216.298c-1.63,1.201-3.2,2.478-4.709,3.823l-.246-.273c.771-.992.601-2.605-.471-3.795-1.175-1.306-2.977-1.6-4.025-.657-1.045.944-.943,2.765.234,4.072,1.059,1.177,2.624,1.523,3.69.889l.243.27c-1.495,1.363-2.927,2.795-4.29,4.29l-.265-.238c.664-1.066.327-2.654-.865-3.726-1.305-1.175-3.128-1.278-4.072-.232-.943,1.047-.648,2.849.657,4.025,1.178,1.06,2.77,1.239,3.764.497l.276.249c-1.344,1.51-2.621,3.08-3.822,4.711l-.29-.21c.549-1.129.046-2.673-1.25-3.615-1.421-1.033-3.243-.945-4.073.195-.827,1.139-.346,2.901,1.075,3.934,1.281.931,2.883.943,3.795.102l.301.219c-1.179,1.64-2.284,3.335-3.309,5.084l-.309-.179c.427-1.181-.233-2.663-1.621-3.465-1.522-.879-3.327-.6-4.031.619-.067.116-.11.239-.153.362l-1.913-42.512h-.828v-42.861h-1.431v-80.059h.83v-1.333h-11.277l-12.048,1.896v-1.097l-2.626-1.195v-3.871l-7.028-3.199h-2.076l-7.029,3.199v3.871l-2.627,1.196v1.097l-12.047-1.896h-2.152v-2.029l-1.711-.667h-4.722v1.061h.35v1.635h-3.042v1.333h.831v80.059h-1.432v42.861h-.828l-5.467,117.449h-18.268c-.747-12.457-1.204-24.977-1.239-37.589h.028v-1.445h-.034c-.001-3.996.048-8.003.132-12.017l.444-1.182,1.751-.704,1.232-.87.422-.87.264-1.552-.161-.21,1.161-6.811h.171l.264-1.552-.849-1.113-1.763-1.301-2.402-.765-.024.022.663-7.117-1.234-1.393-2.794-.833h-3.052l-3.043.807-1.319,1.419.662,7.116-.024-.022-2.401.765-1.764,1.301-.849,1.113.263,1.552h.172l1.16,6.811-.161.21.263,1.552.422.87,1.231.87,1.752.705.442,1.18c.03,1.433.062,2.866.081,4.297v1.156h.015c.024,2.192.037,4.381.036,6.567h-.051v1.445h.045c-.035,12.612-.492,25.132-1.239,37.589h-22.587l-14.781,5.362c-.916-.215-1.828-.449-2.735-.699-3.193-3.074-5.151-6.966-5.338-12.033-3.14,1.342-6.961,1.605-10.905,1.672H9.443c-3.944-.066-7.765-.329-10.905-1.672-.187,5.067-2.145,8.959-5.338,12.033-5.843,1.604-11.821,2.627-18.34,1.348l.362,1.113c-2.219.053-4.488-.103-6.829-.563l.393,1.21c-.705-.087-1.415-.194-2.133-.334.886,1.228,1.952,2.368,3.14,3.446l-.781.185.214.351.398-.032.044.34s.443-.139.824-.219c3.199,2.729,7.206,5.051,11.28,7.314v87.532h799.752v-106.267h-.54Zm-548.668-98.041c-.682.392-1.551.161-1.943-.515-.392-.678-.156-1.547.525-1.94.681-.393,1.551-.163,1.942.515.392.679.157,1.547-.524,1.94Zm-5.942,3.859c-.636.462-1.525.323-1.986-.311-.46-.634-.317-1.521.32-1.984.635-.462,1.523-.324,1.985.311.46.633.318,1.521-.319,1.984Zm-5.505,4.458c-.585.527-1.484.481-2.007-.101-.525-.582-.475-1.481.109-2.007.585-.527,1.484-.481,2.007.101.524.582.475,1.48-.109,2.006Zm-5.011,5.009c-.527.584-1.424.635-2.006.11-.583-.525-.627-1.422-.101-2.007.527-.584,1.425-.633,2.006-.109.584.523.628,1.423.102,2.006Zm-4.459,5.506c-.462.636-1.351.778-1.984.318-.634-.46-.773-1.348-.31-1.985.462-.636,1.35-.779,1.984-.319.633.46.772,1.349.309,1.986Zm-112.828,44.151l.674,3.947h-.704c.018-1.314.021-2.631.03-3.947Zm-.012-10.632h.707l-.685,3.946c-.006-1.315-.007-2.629-.022-3.946Zm.481,8.012h.726c-.004,1.361-.017,2.719-.03,4.078l-.696-4.078Zm.599,10.528c-.027,1.351-.051,2.703-.088,4.052h-.724l.812-4.052Zm-.133,5.498c-.04,1.369-.08,2.739-.128,4.106l-.595-4.106h.723Zm-.656,16.024c-.072,1.378-.14,2.757-.22,4.133l-.502-4.133h.722Zm-.64-1.445l.908-4.052c-.061,1.351-.124,2.702-.192,4.052h-.716Zm5.891,0c-.068-1.351-.132-2.704-.192-4.057l.91,4.057h-.718Zm.799,1.445l-.503,4.137c-.08-1.378-.147-2.758-.22-4.137h.723Zm-1.424-17.47c-.036-1.35-.06-2.702-.087-4.054l.812,4.054h-.724Zm.769,1.446l-.595,4.11c-.048-1.369-.089-2.739-.129-4.11h.724Zm.201-20.094l-.685-3.944h.707c-.014,1.316-.016,2.63-.022,3.944Zm.04,10.635h-.704l.674-3.946c.009,1.315.012,2.632.03,3.946Zm-1.195-2.485c-.013-1.36-.026-2.72-.03-4.082h.726l-.697,4.082Zm2.369,33.508h-.524l.352-2.901c.054.968.113,1.935.172,2.901Zm-.521-9.669l-.871-3.883h.707c.053,1.295.104,2.59.164,3.883Zm-.226-5.329h-.708l.571-3.947c.043,1.316.086,2.633.137,3.947Zm-1.107-14.579h.708c.021,1.306.047,2.611.076,3.916l-.784-3.916Zm.681-17.471h-.687l.723-1.96c-.011.653-.028,1.307-.037,1.96Zm-1.113-3.339h.697l-.735,1.991c.011-.663.025-1.327.038-1.991Zm-.097,7.276l.708,4.075h-.73c0-1.357.013-2.716.023-4.075Zm-3.506,4.075h-.729l.707-4.072c.009,1.358.023,2.716.022,4.072Zm-.119-11.351c.013.663.027,1.327.038,1.99l-.734-1.99h.696Zm-.427,3.339h-.686c-.009-.653-.026-1.307-.037-1.961l.723,1.961Zm-.712,17.471h.708l-.784,3.917c.029-1.305.056-2.61.076-3.917Zm-.263,10.633l.572,3.947h-.709c.051-1.314.094-2.631.137-3.947Zm-.198,5.392h.706l-.871,3.883c.06-1.293.112-2.588.165-3.883Zm-.514,10.647l.353,2.904h-.524c.058-.968.117-1.935.171-2.904Zm40.75-238.798h-2.255v-1.635h2.255v1.635Zm119.232,133.792c-.081-.779.485-1.476,1.268-1.559.782-.082,1.483.483,1.564,1.261.083.78-.486,1.477-1.267,1.56-.783.081-1.483-.483-1.564-1.262Zm1.532,4.813l.797,7.577c-1.722.191-3.424.448-5.095.791l-1.584-7.453c1.93-.396,3.894-.696,5.883-.914Zm-6.628,126.441c-1.651-.36-3.279-.778-4.879-1.262l2.568-7.191c1.28.378,2.578.712,3.895,1l-1.584,7.453Zm.759,5.21c-.163.767-.918,1.255-1.687,1.09-.77-.161-1.261-.915-1.099-1.682.163-.768.919-1.255,1.689-1.09.768.165,1.261.915,1.097,1.682Zm-29.409-13.874v-4.418c1.2,1.026,2.432,2.015,3.706,2.954l-.216.297c-1.094-.503-2.553-.034-3.49,1.168Zm2.919,2.729c-.462.634-1.35.771-1.986.308-.635-.462-.778-1.349-.318-1.983.46-.634,1.35-.771,1.985-.308.636.463.78,1.349.32,1.984Zm-2.919-8.576v-.555l4.818-5.351c1.284,1.142,2.617,2.228,4.001,3.251l-4.478,6.164c-1.5-1.106-2.945-2.28-4.341-3.509Zm35.863-51.467l-7.619-3.392c.125-.263.242-.531.382-.786l7.237,4.178Zm-6.84-4.832c.152-.249.302-.499.467-.739l6.759,4.911-7.226-4.172Zm6.536,5.533l-7.939-2.58c.097-.276.189-.553.301-.821l7.639,3.401Zm-.232.729l-8.169-1.737c.067-.284.135-.569.218-.847l7.952,2.584Zm-.161.747l-8.302-.873c.037-.29.08-.579.132-.864l8.171,1.737Zm-.062.762h-8.364c.007-.293.021-.585.044-.874l8.319.874Zm-.029.764l-8.289.871c-.023-.288-.036-.579-.044-.871h8.333Zm.105.758l-8.179,1.739c-.053-.285-.094-.574-.132-.865l8.311-.874Zm-.226.828l-7.58,2.463c-.079-.265-.143-.537-.208-.808l7.788-1.655Zm.609.606l-7.644,3.403c-.111-.269-.204-.546-.301-.822l7.945-2.581Zm.306.699l-7.245,4.183c-.14-.255-.257-.523-.382-.787l7.627-3.396Zm.372.668l-6.753,4.907c-.165-.239-.314-.49-.466-.738l7.22-4.168Zm.45.618l-6.2,5.583c-.189-.221-.368-.45-.545-.682l6.745-4.901Zm-6.745-14.063c.177-.232.356-.461.546-.683l6.209,5.59-6.755-4.908Zm.464-1.785l-5.374-4.839c.196-.211.392-.422.596-.625.2-.2.408-.393.615-.586l4.839,5.374c-.115.108-.239.207-.351.319-.114.114-.214.241-.326.358Zm-.514.566c-.209.242-.405.494-.599.748l-5.855-4.254c.344-.458.708-.899,1.084-1.33l5.37,4.836Zm-1.057,1.359c-.182.262-.346.536-.512.809l-6.267-3.619c.294-.491.609-.968.937-1.436l5.843,4.245Zm-.91,1.463c-.153.279-.283.572-.42.861l-6.61-2.943c.242-.52.5-1.029.778-1.528l6.251,3.609Zm-.745,1.553c-.122.294-.224.598-.329.9l-6.878-2.235c.186-.543.386-1.079.609-1.603l6.599,2.938Zm-.574,1.625c-.091.305-.165.617-.239.928l-7.073-1.503c.128-.56.271-1.114.438-1.658l6.874,2.233Zm-.4,1.675c-.058.312-.105.629-.145.947l-7.189-.755c.068-.571.155-1.136.263-1.694l7.071,1.503Zm-.224,1.708c-.026.317-.041.636-.048.958h-7.227c.009-.577.037-1.148.087-1.714l7.189.756Zm-.047,1.722c.007.321.022.639.048.955l-7.188.755c-.05-.564-.079-1.135-.089-1.71h7.228Zm.131,1.715c.041.318.086.636.145.948l-7.07,1.502c-.109-.558-.196-1.123-.265-1.695l7.19-.756Zm.311,1.693c.071.298.142.597.229.889l-6.874,2.233c-.163-.531-.302-1.072-.428-1.619l7.073-1.503Zm.473,1.613c.106.302.207.607.329.901l-6.599,2.938c-.223-.525-.423-1.061-.609-1.604l6.879-2.235Zm.654,1.592c.137.289.268.582.42.861l-6.251,3.609c-.278-.499-.536-1.009-.779-1.528l6.609-2.943Zm.817,1.515c.166.273.331.547.512.809l-5.843,4.245c-.328-.467-.643-.944-.937-1.435l6.267-3.619Zm.97,1.421c.194.254.389.505.597.747l-5.369,4.834c-.375-.43-.739-.871-1.083-1.328l5.854-4.254Zm1.111,1.313c.111.118.213.245.327.36.111.112.235.21.35.318l-4.838,5.373c-.208-.194-.416-.387-.616-.588-.204-.203-.4-.414-.596-.625l5.373-4.838Zm1.243,1.192c.242.208.493.405.747.599l-4.253,5.854c-.457-.344-.898-.708-1.328-1.083l4.835-5.369Zm-.029-1.11c-.104-.099-.217-.188-.319-.29-.105-.105-.198-.221-.299-.329l6.208-5.589-5.59,6.208Zm-.616-22.078c.102-.107.193-.223.297-.327.102-.102.215-.191.319-.291l5.58,6.197-6.196-5.579Zm-4.19-7.099c.431-.376.872-.739,1.329-1.084l4.254,5.855c-.254.194-.505.391-.747.599l-4.836-5.37Zm-2.764-8.016c.693-.492,1.405-.959,2.138-1.395l3.609,6.251c-.515.309-1.015.639-1.504.984l-4.243-5.839Zm3.622,6.285c-.479.361-.942.743-1.393,1.137l-4.831-5.365c.639-.562,1.297-1.104,1.98-1.614l4.244,5.842Zm-1.963,1.648c-.218.203-.436.406-.647.617-.213.213-.418.433-.623.654l-5.366-4.831c.29-.314.583-.626.885-.929.3-.299.609-.589.92-.876l4.831,5.366Zm-1.781,1.84c-.394.451-.776.914-1.137,1.394l-5.841-4.244c.51-.683,1.052-1.341,1.614-1.98l5.364,4.83Zm-1.582,2.015c-.345.49-.674.99-.983,1.506l-6.25-3.609c.436-.733.902-1.445,1.394-2.139l5.839,4.242Zm-1.364,2.169c-.291.522-.563,1.057-.816,1.603l-6.594-2.936c.357-.776.743-1.535,1.159-2.275l6.25,3.609Zm-1.131,2.298c-.234.55-.444,1.112-.639,1.682l-6.865-2.231c.273-.81.574-1.607.91-2.386l6.594,2.936Zm-.88,2.408c-.175.571-.324,1.152-.458,1.74l-7.061-1.501c.187-.836.398-1.662.65-2.471l6.869,2.232Zm-.618,2.486c-.114.585-.205,1.178-.276,1.777l-7.179-.755c.098-.852.227-1.694.392-2.524l7.063,1.501Zm-.356,2.538c-.052.593-.082,1.193-.091,1.797h-7.218c.01-.859.053-1.71.13-2.552l7.179.755Zm-.09,2.562c.01.604.04,1.202.093,1.794l-7.179.755c-.078-.841-.121-1.691-.132-2.549h7.218Zm.174,2.555c.072.599.163,1.193.278,1.778l-7.063,1.501c-.166-.83-.294-1.673-.394-2.525l7.178-.755Zm.44,2.524c.132.574.278,1.142.449,1.7l-6.869,2.232c-.247-.796-.456-1.61-.64-2.432l7.061-1.501Zm.689,2.426c.195.57.405,1.133.64,1.683l-6.594,2.936c-.336-.78-.637-1.578-.911-2.388l6.865-2.23Zm.954,2.378c.253.545.525,1.08.816,1.603l-6.25,3.609c-.416-.74-.803-1.5-1.159-2.276l6.594-2.936Zm1.197,2.266c.309.515.638,1.015.983,1.505l-5.839,4.242c-.492-.693-.959-1.405-1.394-2.138l6.25-3.609Zm1.428,2.127c.36.48.742.942,1.135,1.393l-5.363,4.829c-.562-.639-1.104-1.295-1.613-1.979l5.841-4.244Zm1.646,1.962c.205.221.412.442.625.656.211.211.429.414.647.617l-4.83,5.365c-.312-.288-.621-.578-.921-.878-.302-.302-.595-.614-.885-.928l5.364-4.83Zm1.841,1.783c.451.394.913.776,1.393,1.136l-4.244,5.841c-.683-.51-1.34-1.052-1.979-1.614l4.829-5.363Zm2.014,1.582c.49.344.99.675,1.505.984l-3.609,6.25c-.733-.436-1.445-.904-2.138-1.396l4.242-5.838Zm2.167,1.365c.522.291,1.056.563,1.601.817l-2.936,6.594c-.775-.357-1.534-.744-2.274-1.16l3.609-6.251Zm-.262-1.075c-.491-.295-.967-.61-1.434-.939l4.245-5.842c.262.182.535.347.808.513l-3.619,6.268Zm2.67-7.887c-.231-.177-.461-.356-.682-.546l5.585-6.202-4.903,6.748Zm-.681-24.271c.22-.19.45-.369.681-.546l4.904,6.75-5.585-6.203Zm-3.423-7.495c.466-.328.943-.643,1.434-.938l3.619,6.268c-.272.166-.546.331-.808.513l-4.245-5.843Zm-1.913-8.264c.74-.416,1.498-.803,2.274-1.16l2.936,6.594c-.545.253-1.078.526-1.601.817l-3.609-6.251Zm-.401-.695l-3.609-6.25c.982-.556,1.99-1.069,3.021-1.542l2.936,6.593c-.801.369-1.585.768-2.349,1.198Zm-.663.381c-.758.45-1.492.933-2.208,1.442l-4.243-5.839c.92-.656,1.866-1.275,2.842-1.853l3.609,6.25Zm-2.831,1.884c-.705.527-1.384,1.086-2.043,1.668l-4.83-5.365c.847-.749,1.722-1.467,2.631-2.142l4.242,5.839Zm-2.614,2.177c-.322.297-.641.597-.95.907-.312.312-.615.634-.914.958l-5.366-4.832c.384-.418.773-.831,1.175-1.233.398-.398.808-.785,1.224-1.166l4.832,5.366Zm-2.373,2.435c-.581.66-1.141,1.339-1.667,2.045l-5.839-4.243c.675-.91,1.392-1.785,2.141-2.633l5.365,4.831Zm-2.11,2.668c-.509.716-.991,1.452-1.44,2.209l-6.252-3.609c.577-.976,1.197-1.923,1.852-2.843l5.84,4.243Zm-1.822,2.872c-.43.765-.829,1.549-1.198,2.35l-6.595-2.936c.472-1.032.985-2.041,1.541-3.023l6.251,3.609Zm-1.513,3.046c-.347.805-.658,1.628-.94,2.465l-6.866-2.231c.361-1.078.763-2.136,1.211-3.17l6.595,2.936Zm-1.186,3.19c-.26.836-.478,1.689-.671,2.552l-7.062-1.501c.246-1.111.53-2.208.867-3.281l6.866,2.231Zm-.834,3.298c-.17.857-.303,1.727-.404,2.607l-7.18-.755c.128-1.133.299-2.252.52-3.354l7.063,1.502Zm-.484,3.368c-.08.869-.125,1.748-.134,2.636h-7.219c.011-1.142.068-2.273.172-3.391l7.181.755Zm-.133,3.4c.011.886.055,1.765.136,2.633l-7.181.755c-.106-1.116-.163-2.246-.175-3.387h7.219Zm.218,3.393c.102.88.235,1.751.406,2.608l-7.064,1.501c-.222-1.102-.392-2.222-.522-3.355l7.18-.755Zm.571,3.353c.191.85.406,1.69.662,2.513l-6.866,2.231c-.333-1.061-.614-2.145-.858-3.243l7.062-1.501Zm.907,3.236c.283.837.594,1.661.941,2.466l-6.594,2.936c-.449-1.034-.851-2.094-1.212-3.172l6.865-2.231Zm1.256,3.162c.369.802.768,1.585,1.198,2.35l-6.251,3.609c-.555-.983-1.069-1.991-1.541-3.023l6.594-2.936Zm1.579,3.013c.45.757.932,1.493,1.44,2.208l-5.839,4.243c-.656-.92-1.275-1.866-1.852-2.842l6.251-3.609Zm1.883,2.832c.526.706,1.086,1.384,1.666,2.044l-5.365,4.831c-.749-.847-1.465-1.723-2.14-2.632l5.839-4.243Zm2.175,2.614c.3.325.603.647.916.96.31.31.628.609.95.906l-4.831,5.366c-.415-.381-.825-.767-1.223-1.166-.402-.402-.793-.816-1.177-1.235l5.366-4.832Zm-2.93,8.335c.867.767,1.765,1.503,2.696,2.194l-4.242,5.839c-1.136-.841-2.229-1.734-3.284-2.669l4.83-5.364Zm.536-.595l4.831-5.365c.659.581,1.338,1.141,2.043,1.667l-4.243,5.84c-.91-.675-1.785-1.393-2.631-2.142Zm7.496-3.255c.716.508,1.451.991,2.209,1.441l-3.609,6.251c-.976-.577-1.923-1.197-2.843-1.853l4.243-5.839Zm2.871,1.822c.764.43,1.547.83,2.348,1.199l-2.935,6.594c-1.032-.472-2.039-.986-3.022-1.542l3.609-6.251Zm3.046,1.514c.422.182.849.353,1.28.518l-2.428,6.8c-.603-.227-1.199-.469-1.788-.724l2.936-6.594Zm.326-.733l2.936-6.595c.237.101.478.194.718.288l-2.429,6.802c-.412-.158-.821-.321-1.224-.495Zm3.262-7.326l2.938-6.599c.05.021.104.036.155.057l-2.431,6.807c-.222-.087-.443-.172-.661-.265Zm-.697-.315c-.519-.242-1.029-.501-1.526-.779l3.609-6.252c.279.153.571.284.859.421l-2.943,6.61Zm1.831-8.123c-.249-.152-.498-.302-.738-.467l4.906-6.753-4.169,7.22Zm-.738-26.199c.239-.165.489-.315.737-.467l4.167,7.217-4.904-6.75Zm-2.619-7.81c.498-.277,1.007-.536,1.525-.778l2.943,6.61c-.288.137-.58.267-.859.42l-3.609-6.252Zm2.223-1.094c.524-.223,1.059-.424,1.602-.61l2.236,6.88c-.302.106-.606.206-.899.329l-2.938-6.599Zm-.326-.733l-2.936-6.594c.779-.336,1.576-.637,2.385-.911l2.23,6.864c-.569.195-1.131.405-1.68.64Zm-3.262-7.327l-2.935-6.593c1.034-.449,2.091-.851,3.168-1.212l2.231,6.865c-.836.282-1.659.594-2.464.941Zm-3.262-7.326l-2.936-6.594c1.289-.562,2.607-1.065,3.952-1.514l2.23,6.865c-1.104.37-2.188.782-3.247,1.242Zm-.697.315c-1.057.484-2.09,1.01-3.096,1.58l-3.609-6.25c1.224-.695,2.481-1.337,3.769-1.923l2.936,6.594Zm-3.759,1.961c-1,.591-1.97,1.226-2.912,1.898l-4.241-5.838c1.145-.82,2.327-1.592,3.545-2.31l3.609,6.25Zm-3.535,2.341c-.932.692-1.829,1.427-2.697,2.194l-4.828-5.363c1.055-.936,2.148-1.829,3.284-2.67l4.242,5.838Zm-3.269,2.703c-.425.391-.846.787-1.254,1.195-.411.411-.811.835-1.204,1.263l-5.364-4.83c.478-.522.964-1.036,1.464-1.536.498-.498,1.01-.982,1.529-1.457l4.829,5.364Zm-2.966,3.03c-.768.868-1.503,1.766-2.194,2.698l-5.838-4.241c.841-1.136,1.734-2.23,2.669-3.285l5.363,4.829Zm-2.637,3.321c-.672.943-1.306,1.913-1.897,2.913l-6.25-3.608c.718-1.219,1.49-2.4,2.309-3.547l5.838,4.241Zm-2.278,3.576c-.57,1.007-1.096,2.04-1.579,3.098l-6.594-2.936c.587-1.289,1.228-2.547,1.923-3.771l6.25,3.608Zm-1.894,3.794c-.46,1.059-.872,2.144-1.242,3.248l-6.865-2.23c.448-1.345.951-2.665,1.512-3.953l6.594,2.936Zm-1.487,3.974c-.345,1.1-.637,2.224-.889,3.363l-7.06-1.501c.305-1.387.662-2.754,1.084-4.092l6.865,2.231Zm-1.054,4.108c-.227,1.129-.402,2.276-.533,3.437l-7.178-.755c.158-1.413.37-2.81.649-4.183l7.063,1.501Zm-.614,4.198c-.107,1.145-.166,2.304-.176,3.474h-7.218c.011-1.425.083-2.836.216-4.229l7.178.755Zm-.176,4.239c.011,1.17.07,2.328.179,3.471l-7.179.754c-.134-1.392-.206-2.802-.217-4.226h7.217Zm.262,4.232c.132,1.161.307,2.309.535,3.437l-7.063,1.501c-.279-1.374-.491-2.771-.651-4.184l7.178-.755Zm.702,4.182c.25,1.125.538,2.236.879,3.324l-6.864,2.231c-.418-1.326-.772-2.68-1.075-4.054l7.06-1.501Zm1.125,4.047c.37,1.105.782,2.19,1.242,3.25l-6.594,2.936c-.562-1.289-1.065-2.61-1.513-3.956l6.865-2.23Zm-3.808,11.053l-6.251,3.609c-.834-1.466-1.603-2.973-2.305-4.519l6.595-2.936c.599,1.314,1.252,2.597,1.961,3.845Zm-1.229-4.171l6.594-2.936c.483,1.058,1.01,2.091,1.579,3.098l-6.25,3.609c-.695-1.224-1.337-2.482-1.923-3.771Zm8.555.825c.591,1,1.225,1.97,1.897,2.912l-5.839,4.242c-.82-1.146-1.591-2.328-2.309-3.546l6.251-3.609Zm2.341,3.536c.691.932,1.426,1.829,2.193,2.697l-5.365,4.83c-.935-1.055-1.828-2.149-2.668-3.284l5.839-4.243Zm2.7,3.268c.394.429.793.852,1.204,1.263.409.409.83.806,1.255,1.197l-4.831,5.365c-.519-.475-1.03-.958-1.527-1.455-.501-.501-.988-1.016-1.466-1.539l5.365-4.831Zm-2.334,8.927c1.076.954,2.191,1.865,3.349,2.723l-4.244,5.84c-1.362-1.006-2.673-2.075-3.937-3.198l4.831-5.365Zm3.972,3.165c1.168.837,2.373,1.624,3.616,2.356l-3.61,6.252c-1.461-.859-2.878-1.784-4.25-2.768l4.244-5.841Zm.47-.648l4.243-5.839c.942.672,1.912,1.307,2.912,1.899l-3.609,6.251c-1.219-.718-2.4-1.49-3.547-2.31Zm7.818-3.559c1.006.57,2.039,1.096,3.096,1.58l-2.936,6.594c-1.288-.587-2.546-1.228-3.769-1.924l3.609-6.25Zm3.793,1.895c.607.264,1.222.513,1.844.748l-2.429,6.8c-.794-.297-1.577-.617-2.351-.955l2.936-6.593Zm2.806,9.499c.942.269,1.894.511,2.859.723l-1.501,7.063c-1.281-.28-2.545-.605-3.791-.972l2.434-6.814Zm.27-.757l2.433-6.811c.602.163,1.21.312,1.823.447l-1.5,7.06c-.929-.204-1.847-.438-2.755-.695Zm2.703-7.568l2.437-6.821c.259.065.521.122.783.181l-1.501,7.06c-.577-.128-1.151-.267-1.719-.419Zm2.708-7.582l1.758-4.922-1.079,5.079c-.227-.051-.454-.101-.678-.156Zm1.725-16.275c-.032-.013-.066-.022-.097-.036l.555-1.248-.458,1.283Zm-.791-.361c-.263-.125-.529-.243-.784-.382l4.171-7.225-3.387,7.607Zm-.784-27.843c.254-.139.521-.257.784-.383l3.387,7.608-4.171-7.225Zm1.477-.708c.268-.112.546-.203.821-.3l2.577,7.932-3.398-7.631Zm-.938-8.182c.544-.167,1.098-.31,1.657-.438l1.504,7.074c-.311.074-.623.147-.927.238l-2.234-6.875Zm-.248-.763l-2.231-6.868c.809-.252,1.635-.463,2.469-.651l1.5,7.06c-.587.134-1.168.284-1.738.459Zm-2.479-7.632l-2.23-6.864c1.073-.337,2.169-.622,3.28-.868l1.5,7.06c-.862.193-1.715.412-2.55.672Zm-2.478-7.627l-2.23-6.865c1.338-.423,2.704-.781,4.091-1.086l1.501,7.061c-1.138.252-2.261.544-3.361.89Zm-2.478-7.628l-2.231-6.865c1.603-.509,3.24-.94,4.902-1.303l1.501,7.062c-1.414.311-2.807.676-4.172,1.107Zm-.723.245c-1.372.458-2.717.97-4.031,1.544l-2.936-6.594c1.543-.676,3.123-1.279,4.736-1.815l2.231,6.866Zm-4.728,1.859c-1.314.598-2.596,1.253-3.844,1.962l-3.609-6.251c1.466-.835,2.972-1.604,4.517-2.305l2.936,6.594Zm-4.507,2.343c-1.243.732-2.448,1.519-3.616,2.356l-4.242-5.839c1.372-.984,2.788-1.909,4.249-2.768l3.609,6.25Zm-4.239,2.799c-1.158.857-2.273,1.768-3.349,2.722l-4.829-5.363c1.263-1.123,2.574-2.192,3.937-3.198l4.242,5.839Zm-3.922,3.23c-.529.485-1.051.978-1.558,1.485-.51.51-1.006,1.035-1.493,1.567l-5.365-4.831c.572-.626,1.156-1.241,1.755-1.841.596-.596,1.208-1.177,1.831-1.746l4.83,5.365Zm-3.558,3.625c-.954,1.076-1.865,2.192-2.722,3.35l-5.84-4.243c1.006-1.362,2.075-2.674,3.197-3.938l5.364,4.83Zm-3.165,3.974c-.836,1.169-1.623,2.374-2.355,3.617l-6.251-3.609c.858-1.461,1.783-2.878,2.767-4.25l5.84,4.243Zm-2.736,4.28c-.709,1.249-1.363,2.531-1.961,3.846l-6.595-2.936c.702-1.545,1.47-3.052,2.305-4.519l6.251,3.609Zm-2.276,4.541c-.573,1.314-1.086,2.66-1.543,4.031l-6.866-2.231c.536-1.613,1.139-3.193,1.814-4.737l6.595,2.936Zm-9.171,1.553l-7.248-2.355c.627-1.894,1.337-3.748,2.131-5.559l6.961,3.099c-.687,1.569-1.3,3.176-1.844,4.815Zm.517.973l6.866,2.231c-.431,1.365-.796,2.759-1.107,4.173l-7.061-1.501c.363-1.663.794-3.3,1.302-4.903Zm5.591,7.149c-.284,1.401-.5,2.825-.661,4.267l-7.178-.755c.187-1.694.441-3.368.777-5.013l7.063,1.501Zm-.743,5.027c-.136,1.42-.209,2.859-.22,4.313h-7.218c.011-1.708.097-3.399.258-5.067l7.18.755Zm-.218,5.077c.012,1.453.084,2.89.221,4.31l-7.179.755c-.163-1.667-.248-3.357-.26-5.065h7.218Zm.305,5.07c.162,1.442.379,2.867.664,4.267l-7.063,1.501c-.337-1.645-.591-3.32-.779-5.014l7.178-.755Zm.834,5.012c.309,1.401.671,2.782,1.097,4.135l-6.865,2.231c-.504-1.591-.931-3.215-1.293-4.865l7.062-1.501Zm1.342,4.858c.457,1.373.97,2.719,1.544,4.034l-6.595,2.936c-.675-1.544-1.28-3.126-1.815-4.74l6.866-2.23Zm-3.125,12.584l-6.598,3.81c-.981-1.72-1.884-3.488-2.706-5.303l6.961-3.099c.713,1.571,1.494,3.103,2.343,4.593Zm.381.663c.873,1.485,1.812,2.925,2.812,4.32l-6.163,4.478c-1.156-1.609-2.24-3.272-3.247-4.989l6.598-3.809Zm.694-.401l6.251-3.609c.732,1.242,1.518,2.448,2.355,3.616l-5.84,4.243c-.984-1.372-1.908-2.788-2.766-4.25Zm9.05.63c.856,1.158,1.767,2.273,2.721,3.349l-5.365,4.831c-1.122-1.263-2.191-2.574-3.196-3.936l5.84-4.243Zm3.227,3.922c.487.533.984,1.057,1.494,1.567.508.508,1.03,1.001,1.559,1.486l-4.832,5.366c-.623-.569-1.235-1.149-1.831-1.745-.6-.6-1.184-1.216-1.757-1.842l5.366-4.832Zm2.883,13.213c1.395,1.001,2.835,1.941,4.32,2.814l-3.809,6.598c-1.716-1.007-3.38-2.092-4.989-3.249l4.479-6.164Zm4.982,3.195c1.49.849,3.021,1.631,4.592,2.344l-3.099,6.961c-1.814-.822-3.582-1.725-5.302-2.707l3.809-6.598Zm.401-.694l3.61-6.253c1.248.709,2.53,1.363,3.844,1.962l-2.937,6.596c-1.545-.702-3.051-1.471-4.517-2.305Zm8.151-3.976c.792.346,1.593.674,2.407.978l-2.43,6.803c-.986-.366-1.955-.766-2.914-1.185l2.937-6.596Zm8.003,10.916c1.672.342,3.373.6,5.095.79l-.797,7.578c-1.988-.219-3.953-.518-5.882-.914l1.584-7.454Zm.167-.785l1.502-7.065c1.4.285,2.824.501,4.265.662l-.755,7.181c-1.694-.188-3.367-.441-5.012-.777Zm1.669-7.85l1.501-7.062c1.128.228,2.275.402,3.435.534l-.755,7.177c-1.413-.158-2.809-.37-4.182-.649Zm1.668-7.847l1.501-7.062c.856.171,1.726.303,2.605.405l-.755,7.177c-1.132-.129-2.251-.299-3.352-.521Zm1.668-7.847l1.502-7.065c.584.114,1.177.205,1.775.276l-.754,7.181c-.851-.099-1.693-.227-2.522-.392Zm1.668-7.847l.596-2.804,1.492-4.178c.12.018.239.04.36.055l-.756,7.191c-.571-.069-1.135-.155-1.693-.264Zm2.363-7.751l.244-.682-.074.708c-.057-.007-.113-.018-.169-.026Zm-2.286-30.454c.277-.083.561-.15.845-.217l1.733,8.154-2.578-7.937Zm1.593-.381c.284-.053.573-.094.862-.132l.871,8.287-1.733-8.155Zm-.167-.782l-1.503-7.072c.557-.109,1.122-.195,1.693-.264l.756,7.191c-.317.041-.633.086-.945.144Zm-1.67-7.857l-1.501-7.062c.829-.165,1.672-.293,2.522-.392l.754,7.177c-.599.072-1.191.162-1.775.277Zm-1.668-7.848l-1.501-7.062c1.101-.222,2.22-.392,3.352-.52l.755,7.178c-.879.102-1.749.234-2.605.405Zm-1.668-7.847l-1.501-7.063c1.372-.279,2.769-.491,4.182-.649l.755,7.179c-1.16.132-2.307.306-3.435.533Zm-1.668-7.848l-1.501-7.064c1.645-.336,3.318-.59,5.012-.777l.754,7.179c-1.441.161-2.865.377-4.265.662Zm-4.335-18.66c-.769.163-1.526-.325-1.689-1.09-.162-.767.329-1.521,1.099-1.683.77-.164,1.525.324,1.687,1.09.164.767-.328,1.519-1.097,1.683Zm.338,3.53l1.584,7.453c-1.69.37-3.354.808-4.983,1.325l-2.354-7.246c1.881-.598,3.802-1.106,5.753-1.531Zm-7.182-1.696c-.747.242-1.549-.164-1.793-.909-.242-.745.168-1.547.916-1.788.749-.243,1.55.163,1.793.909.242.743-.167,1.545-.917,1.788Zm.705,3.472l2.354,7.246c-1.639.545-3.246,1.159-4.814,1.845l-3.099-6.96c1.81-.794,3.665-1.504,5.558-2.132Zm-7.32-.934c-.718.32-1.558,0-1.878-.715-.318-.717.007-1.555.725-1.875.718-.32,1.559,0,1.876.717.32.715-.005,1.554-.724,1.874Zm1.064,3.381l3.099,6.96c-1.57.713-3.102,1.495-4.592,2.343l-3.809-6.597c1.719-.981,3.488-1.884,5.302-2.706Zm-5.965,3.087l3.809,6.597c-1.485.873-2.925,1.812-4.319,2.813l-4.478-6.163c1.609-1.157,3.272-2.241,4.988-3.248Zm-5.611,3.691l4.477,6.163c-1.385,1.022-2.717,2.109-4.001,3.25l-5.098-5.662c1.481-1.319,3.022-2.573,4.622-3.751Zm-5.197,4.256l5.099,5.663c-.634.578-1.256,1.169-1.862,1.775-.61.609-1.202,1.234-1.784,1.871l-5.663-5.099c1.338-1.467,2.742-2.872,4.209-4.21Zm-4.714,4.785l5.662,5.098c-1.141,1.284-2.228,2.618-3.25,4.003l-6.163-4.478c1.178-1.6,2.432-3.141,3.751-4.623Zm-4.194,5.246l6.163,4.478c-1,1.395-1.94,2.835-2.812,4.321l-6.598-3.809c1.006-1.716,2.09-3.38,3.247-4.989Zm-3.628,5.652l6.598,3.81c-.849,1.49-1.63,3.022-2.343,4.593l-6.961-3.099c.822-1.815,1.725-3.584,2.706-5.304Zm-5.298-3.524c.394-.682,1.262-.917,1.94-.525.678.391.908,1.261.515,1.942-.393.681-1.262.915-1.94.523-.678-.392-.908-1.26-.515-1.941Zm-1.293,1.363c.273.673.808,1.303,1.555,1.735,1.373.792,2.967.635,3.786-.296l.316.182c-1,1.753-1.92,3.555-2.757,5.405l-.323-.144c.302-1.22-.511-2.624-1.974-3.279-.148-.065-.297-.111-.446-.156l-.155-3.447Zm.214,4.763c.421.403.57,1.04.317,1.605-.059.132-.139.246-.229.35l-.088-1.955Zm.172,3.82c.785-.076,1.466-.429,1.874-1.006l.323.144c-.74,1.687-1.406,3.413-2.004,5.171l-.194-4.309Zm.335,7.457c.154-.533.305-1.067.473-1.595l7.248,2.355c-.517,1.63-.954,3.294-1.323,4.984l-6.198-1.318-.199-4.427Zm.235,5.215l5.992,1.274c-.341,1.672-.599,3.374-.79,5.096l-4.939-.519-.264-5.851Zm.298,6.624l4.822.507c-.165,1.696-.251,3.415-.263,5.151h-4.305l-.255-5.658Zm.289,6.422h4.271c.012,1.736.099,3.453.264,5.148l-4.284.45-.251-5.599Zm.286,6.364l4.334-.456c.191,1.722.45,3.425.793,5.097l-4.871,1.035-.255-5.677Zm.29,6.45l5.008-1.064c.367,1.677.802,3.328,1.314,4.945l-6.059,1.969-.263-5.85Zm.299,6.641l6.268-2.037c.545,1.64,1.159,3.248,1.845,4.818l-6.961,3.099c-.349-.797-.679-1.604-.997-2.417l-.156-3.464Zm.319,7.087l.161-.072c.837,1.849,1.757,3.652,2.757,5.404l-.314.181c-.549-.625-1.443-.893-2.391-.766l-.214-4.748Zm.283,6.283c.296.113.559.319.729.615.393.68.163,1.549-.515,1.942-.031.018-.065.028-.096.043l-.117-2.6Zm2.108,6.892c.094-.255.26-.485.495-.656.633-.459,1.522-.315,1.984.319.076.106.13.22.174.337h-2.654Zm3.916-1.879c-.911-.843-2.512-.831-3.794.102-.66.48-1.107,1.118-1.324,1.777h-.596l-.143-3.165c.31-.085.62-.2.919-.372,1.388-.802,2.047-2.283,1.622-3.466l.308-.178c1.025,1.749,2.13,3.444,3.308,5.083l-.3.218Zm.658,1.879c.051-.444-.016-.876-.204-1.263l.29-.21c.367.498.747.986,1.128,1.473h-1.214Zm2.588,0c-.556-.692-1.102-1.393-1.629-2.108l6.164-4.478c1.022,1.385,2.108,2.718,3.249,4.001l-2.871,2.585h-4.913Zm8.289-2.011c.581.636,1.174,1.261,1.784,1.871.606.607,1.229,1.197,1.862,1.776l-4.244,4.714v-6.35h-1.636l2.234-2.011Zm15.579,33.123h-16.177v-13.142c.037.032.067.071.107.1,1.139.827,2.9.347,3.933-1.073.942-1.298.942-2.92.071-3.826l.217-.299c1.64,1.179,3.335,2.284,5.083,3.31l-.186.321c-1.175-.398-2.633.265-3.425,1.637-.878,1.521-.601,3.326.62,4.031,1.219.704,2.921.042,3.799-1.479.802-1.388.632-3.002-.329-3.811l.183-.318c1.752,1,3.553,1.92,5.403,2.758l-.15.338c-1.209-.273-2.591.539-3.235,1.983-.715,1.609-.25,3.372,1.037,3.947,1.288.575,2.91-.263,3.626-1.868.651-1.465.314-3.053-.727-3.756l.146-.328c1.178.517,2.368,1.01,3.581,1.458l-3.578,10.018Zm-7.111-10.676c-.392.68-1.261.911-1.942.519-.681-.396-.917-1.265-.525-1.942.392-.68,1.261-.908,1.943-.515.68.393.915,1.262.524,1.938Zm6.512,3.151c-.318.715-1.158,1.037-1.876.715-.718-.319-1.043-1.157-.725-1.872.32-.715,1.16-1.037,1.878-.715.719.319,1.043,1.156.724,1.872Zm1.036-4.938l3.099-6.961c.978.428,1.965.835,2.97,1.208l-2.564,7.179c-1.187-.439-2.352-.921-3.505-1.427Zm5.771,7.391c-.104.319-.313.571-.573.741l.573-1.605c.087.273.095.572,0,.864Zm-2.12,5.071l.993-2.779c.99-.207,1.912-1.064,2.309-2.286.372-1.14.177-2.288-.405-3.047l.245-.685c1.646.499,3.321.929,5.018,1.299l-.077.362c-1.24-.017-2.424,1.065-2.752,2.618-.366,1.717.455,3.347,1.834,3.642,1.378.291,2.792-.862,3.157-2.583.333-1.566-.326-3.047-1.49-3.521l.073-.345c1.966.404,3.968.709,5.995.932l-.039.374c-1.235.114-2.298,1.312-2.464,2.89-.143,1.357.427,2.579,1.343,3.13h-13.739Zm14.749-1.097c-.783-.084-1.349-.782-1.269-1.56.082-.782.783-1.343,1.565-1.262.781.084,1.349.781,1.267,1.56-.082.778-.782,1.342-1.563,1.262Zm4.171,1.097h-3.011c.817-.467,1.44-1.425,1.563-2.597.167-1.592-.645-2.999-1.85-3.348l.038-.364c1.08.106,2.166.186,3.26.239v6.07Zm2.798-13.094h-2.798v5.944c-1.056-.052-2.105-.131-3.147-.233l.796-7.579c1.695.165,3.413.252,5.149.263v1.604Zm0-2.407c-1.707-.011-3.397-.097-5.064-.259l.755-7.182c1.42.136,2.857.209,4.31.22v7.22Zm0-8.022c-1.424-.011-2.834-.083-4.226-.216l.754-7.178c1.144.108,2.302.167,3.472.178v7.216Zm0-8.019c-1.141-.011-2.271-.068-3.388-.173l.755-7.178c.869.08,1.747.125,2.633.135v7.216Zm0-8.019c-.859-.01-1.708-.053-2.55-.13l.755-7.182c.593.052,1.191.083,1.795.092v7.22Zm0-8.019c-.576-.009-1.146-.038-1.711-.088l.756-7.19c.316.026.634.041.955.048v7.229Zm0-8.032c-.292-.007-.583-.021-.872-.044l.403-3.837.468-1.311v5.191Zm0-22.908l-.871-8.289c.288-.023.578-.037.871-.044v8.333Zm0-9.132c-.32.007-.639.023-.955.048l-.756-7.19c.565-.05,1.135-.079,1.711-.088v7.23Zm0-8.032c-.604.009-1.202.04-1.795.092l-.754-7.178c.841-.077,1.691-.12,2.549-.13v7.216Zm0-8.019c-.887.01-1.765.055-2.633.135l-.755-7.179c1.117-.105,2.247-.162,3.387-.173v7.217Zm0-8.02c-1.17.011-2.328.07-3.471.178l-.755-7.18c1.392-.133,2.802-.205,4.226-.216v7.218Zm0-8.02c-1.453.011-2.89.084-4.31.22l-.755-7.18c1.668-.162,3.357-.247,5.064-.259v7.219Zm0-8.021c-1.736.012-3.453.099-5.148.263l-.796-7.578c1.957-.192,3.94-.292,5.944-.304v7.619Zm33.72-4.024c.393-.679,1.262-.91,1.942-.515.684.392.918,1.261.526,1.94-.393.677-1.262.908-1.942.515-.68-.394-.915-1.262-.526-1.94Zm-6.512-3.151c.319-.716,1.16-1.036,1.879-.717.718.32,1.044,1.158.725,1.875-.319.715-1.16,1.035-1.878.716-.718-.321-1.045-1.159-.725-1.874Zm-.383,5.252c1.814.822,3.581,1.724,5.3,2.705l-3.809,6.598c-1.489-.848-3.02-1.629-4.59-2.342l3.099-6.96Zm-19.933,55.126l7.217-4.167c.139.254.257.521.382.783l-7.599,3.384Zm7.924-2.693c.111.267.203.544.299.818l-7.907,2.569,7.608-3.388Zm-.325,12.735c-.125.263-.243.529-.382.783l-7.218-4.167,7.6,3.384Zm-7.277-4.076l7.902,2.567c-.097.274-.188.551-.3.817l-7.602-3.385Zm3.138-24.093c.519.241,1.027.5,1.525.777l-3.61,6.252c-.279-.153-.57-.283-.858-.42l2.943-6.61Zm-3.636,6.284c-.292-.122-.596-.222-.897-.328l2.236-6.88c.542.186,1.076.385,1.599.609l-2.938,6.599Zm-1.162,20.352l6.177,5.561c-.099.104-.188.217-.289.318-.104.104-.219.196-.327.297l-5.561-6.176Zm4.995,6.69c-.22.189-.449.367-.68.543l-4.884-6.722,5.563,6.179Zm-5.568-17.554l4.888-6.728c.231.177.459.355.68.544l-5.568,6.184Zm6.134-5.67c.107.101.223.193.327.298.101.101.19.213.288.316l-6.168,5.553,5.553-6.167Zm-1.386-2.164c-.262-.181-.534-.345-.807-.512l3.619-6.268c.491.294.967.609,1.434.937l-4.245,5.843Zm2.55-7.855c-.521-.291-1.055-.562-1.599-.815l2.936-6.594c.775.357,1.533.743,2.273,1.159l-3.609,6.25Zm-3.757,8.037c.248.152.498.301.737.466l-4.899,6.743,4.162-7.209Zm.737,26.206c-.239.165-.489.314-.737.466l-4.161-7.208,4.898,6.742Zm.471.649l4.245,5.842c-.466.328-.943.643-1.433.938l-3.618-6.267c.273-.166.545-.331.807-.512Zm.612-.457c.253-.193.504-.389.745-.596l4.833,5.368c-.429.375-.869.738-1.326,1.082l-4.253-5.854Zm1.311-1.111c.117-.111.244-.211.357-.325.111-.111.21-.235.318-.349l5.372,4.837c-.194.207-.386.415-.587.615-.203.203-.412.399-.623.594l-4.837-5.372Zm.593-1.776l-6.178-5.563,6.723,4.884c-.177.231-.355.459-.544.679Zm-5.731-6.182l7.199,4.156c-.152.248-.302.497-.467.735l-6.732-4.891Zm0-7.987l6.732-4.891c.165.238.314.487.466.735l-7.198,4.156Zm-.448-.62l6.177-5.562c.189.22.368.448.545.678l-6.722,4.884Zm6.26-6.664c-.108-.114-.205-.237-.316-.347-.114-.114-.24-.215-.358-.326l4.839-5.374c.209.195.419.39.621.593.201.2.394.408.587.616l-5.373,4.838Zm-1.24-1.187c-.242-.208-.492-.403-.745-.597l4.254-5.855c.457.344.897.707,1.326,1.082l-4.835,5.37Zm3.359-7.544c-.489-.344-.989-.675-1.504-.983l3.609-6.25c.733.436,1.444.903,2.137,1.394l-4.242,5.839Zm1.844-8.31c-.764-.43-1.547-.829-2.347-1.197l2.936-6.594c1.031.472,2.039.985,3.02,1.54l-3.609,6.251Zm-3.046-1.513c-.804-.347-1.625-.658-2.461-.94l2.23-6.865c1.077.361,2.134.763,3.167,1.211l-2.936,6.594Zm-.326.733l-2.936,6.593c-.549-.234-1.109-.444-1.677-.639l2.23-6.864c.809.274,1.605.574,2.383.91Zm-5.338,5.713c-.569-.175-1.15-.325-1.736-.458l1.5-7.06c.834.187,1.66.399,2.468.65l-2.232,6.868Zm-.248.764l-2.234,6.875c-.304-.091-.615-.165-.926-.238l1.504-7.074c.559.128,1.112.271,1.656.438Zm-1.758,7.881c.274.097.551.188.818.3l-3.387,7.606,2.568-7.905Zm1.511.625c.263.125.529.242.784.382l-4.167,7.217,3.383-7.599Zm.783,27.848c-.254.139-.521.256-.783.381l-3.382-7.596,4.165,7.214Zm-1.477.706c-.018.008-.038.013-.057.021l-.27-.756.327.735Zm1.669,16.3c-.237.059-.477.112-.716.166l-1.14-5.364,1.857,5.199Zm-1.456-15.523c.038-.015.077-.026.115-.042l2.938,6.599c-.206.087-.414.167-.622.249l-2.431-6.806Zm.807-.368c.289-.137.58-.267.859-.419l3.609,6.251c-.497.277-1.006.536-1.525.778l-2.943-6.61Zm4.869,6.526l3.609,6.25c-.74.416-1.498.803-2.273,1.16l-2.936-6.595c.544-.253,1.078-.524,1.6-.815Zm.663-.381c.515-.309,1.014-.638,1.503-.983l4.242,5.839c-.693.492-1.405.959-2.138,1.395l-3.608-6.25Zm2.124-1.427c.479-.36.94-.741,1.391-1.134l4.829,5.363c-.638.561-1.294,1.103-1.977,1.612l-4.243-5.841Zm1.96-1.645c.221-.205.441-.41.654-.623.21-.21.413-.428.616-.646l5.364,4.83c-.288.311-.577.62-.877.919-.302.302-.613.594-.927.884l-4.83-5.364Zm1.183-2.375l-5.368-4.834c.207-.241.404-.491.597-.744l5.854,4.253c-.343.456-.707.896-1.082,1.325Zm-4.315-6.189c.181-.261.346-.534.512-.806l6.268,3.619c-.294.49-.609.965-.938,1.432l-5.843-4.245Zm.909-1.459c.153-.279.284-.57.421-.858l6.61,2.943c-.242.519-.502,1.027-.779,1.525l-6.252-3.61Zm-7.35-5.987l8.126,1.727c-.067.283-.134.566-.216.843l-7.909-2.57Zm.155-.748l8.267.869c-.038.289-.078.577-.131.86l-8.135-1.729Zm.102-.758h8.291c-.007.291-.02.58-.044.867l-8.247-.867Zm-.029-.764l8.278-.87c.022.288.037.578.044.87h-8.323Zm-.061-.762l8.13-1.729c.052.284.094.571.131.86l-8.261.869Zm-.542-.665l8.286-2.692c.087.289.157.586.227.883l-8.512,1.809Zm8.147-5.251c-.137-.288-.268-.579-.421-.858l6.252-3.61c.277.498.537,1.006.778,1.525l-6.61,2.943Zm-.817-1.511c-.167-.272-.331-.544-.512-.805l5.843-4.245c.328.466.643.942.938,1.432l-6.268,3.619Zm-.97-1.418c-.194-.253-.39-.503-.597-.744l5.37-4.835c.375.429.738.869,1.082,1.325l-5.854,4.253Zm4.243-7.327c-.213-.213-.433-.419-.654-.623l4.832-5.366c.313.289.624.581.925.882.3.3.59.609.877.92l-5.365,4.831c-.202-.217-.405-.435-.615-.644Zm-1.223-1.134c-.451-.394-.913-.775-1.391-1.135l4.244-5.842c.683.509,1.339,1.051,1.977,1.612l-4.83,5.364Zm2.702-8.067c-.716-.508-1.451-.99-2.208-1.44l3.609-6.251c.976.577,1.922,1.196,2.842,1.852l-4.243,5.84Zm1.139-8.767c-1.006-.569-2.038-1.096-3.095-1.579l2.936-6.594c1.288.587,2.545,1.228,3.768,1.922l-3.609,6.25Zm-3.793-1.894c-1.058-.46-2.142-.871-3.245-1.241l2.231-6.865c1.344.448,2.662.951,3.95,1.512l-2.936,6.594Zm-3.968-1.486c-1.1-.345-2.222-.638-3.359-.889l1.501-7.061c1.386.305,2.752.663,4.09,1.085l-2.231,6.865Zm-.248.763l-2.23,6.865c-.835-.26-1.687-.479-2.549-.672l1.501-7.06c1.11.246,2.206.531,3.278.868Zm-5.527,6.029c-.856-.171-1.725-.303-2.604-.405l.755-7.178c1.131.128,2.25.299,3.35.52l-1.501,7.062Zm-.167.786l-1.501,7.062c-.584-.114-1.176-.205-1.774-.276l.754-7.177c.851.099,1.692.227,2.521.392Zm-1.667,7.847l-1.504,7.072c-.312-.058-.627-.104-.944-.144l.756-7.191c.57.069,1.135.155,1.692.264Zm-1.67,7.854l-1.731,8.145.87-8.277c.289.037.577.079.861.132Zm.748.163c.283.067.567.135.844.217l-2.575,7.925,1.731-8.142Zm-1.401,30.666c-.07.01-.138.023-.207.032l-.091-.868.299.836Zm.275.769l1.391,3.896.658,3.093c-.557.108-1.121.195-1.691.264l-.756-7.191c.134-.017.266-.04.398-.061Zm2.215,7.771l1.502,7.065c-.828.165-1.67.293-2.521.392l-.755-7.181c.598-.072,1.19-.162,1.774-.276Zm1.668,7.85l1.501,7.062c-1.1.222-2.219.392-3.35.52l-.755-7.177c.879-.102,1.748-.234,2.604-.405Zm.748-.164c.274-.062.549-.121.821-.19l2.435,6.819c-.58.157-1.166.299-1.757.43l-1.5-7.06Zm1.794-8.913c.227-.089.455-.176.678-.272l2.936,6.594c-.39.168-.786.326-1.184.479l-2.429-6.802Zm3.94,7.055l2.936,6.594c-.575.25-1.158.486-1.747.709l-2.428-6.8c.417-.16.831-.325,1.24-.502Zm.698-.315c.8-.368,1.583-.768,2.347-1.198l3.609,6.25c-.982.555-1.989,1.069-3.02,1.541l-2.936-6.594Zm3.01-1.579c.756-.45,1.492-.932,2.207-1.44l4.243,5.839c-.92.656-1.866,1.275-2.842,1.852l-3.608-6.25Zm6.92,5.047l4.243,5.84c-1.146.82-2.327,1.591-3.545,2.309l-3.609-6.251c1-.591,1.969-1.226,2.911-1.897Zm-4.091-6.929c.705-.526,1.383-1.085,2.042-1.665l4.83,5.365c-.847.748-1.721,1.465-2.63,2.139l-4.242-5.839Zm2.613-2.174c.324-.299.645-.601.957-.913.31-.309.609-.628.906-.949l5.366,4.831c-.381.415-.767.824-1.165,1.222-.401.401-.814.791-1.232,1.175l-4.832-5.365Zm1.776-2.969l-5.363-4.829c.393-.451.774-.912,1.134-1.391l5.841,4.244c-.509.682-1.051,1.338-1.613,1.975Zm-3.783-6.839c.344-.489.675-.988.983-1.502l6.251,3.609c-.436.732-.904,1.443-1.395,2.135l-5.839-4.242Zm1.364-2.165c.291-.522.563-1.055.816-1.6l6.595,2.936c-.357.775-.744,1.533-1.16,2.272l-6.251-3.609Zm.401-2.621l-6.599-2.938c.122-.292.222-.596.328-.896l6.88,2.235c-.186.541-.386,1.076-.61,1.599Zm-6.023-4.558c.09-.303.164-.614.237-.924l7.074,1.504c-.128.558-.271,1.111-.437,1.654l-6.875-2.234Zm.402-1.67c.059-.311.104-.627.145-.943l7.191.756c-.069.57-.156,1.134-.264,1.69l-7.071-1.503Zm.227-1.704c.025-.314.04-.632.048-.951h7.23c-.009.574-.039,1.143-.089,1.706l-7.189-.755Zm.05-1.715c-.007-.32-.023-.638-.048-.954l7.191-.756c.049.564.078,1.135.087,1.709h-7.229Zm-.127-1.715c-.04-.317-.086-.632-.144-.943l7.072-1.503c.108.557.194,1.121.262,1.69l-7.19.756Zm-.305-1.689c-.076-.324-.153-.648-.247-.964l6.874-2.233c.171.555.317,1.122.447,1.694l-7.074,1.504Zm-.495-1.688c-.106-.301-.206-.604-.328-.897l6.598-2.938c.224.523.424,1.058.61,1.599l-6.88,2.236Zm6.687-4.855c-.253-.545-.525-1.078-.817-1.599l6.25-3.609c.416.74.803,1.497,1.161,2.272l-6.594,2.936Zm-1.198-2.262c-.308-.514-.638-1.013-.983-1.502l5.839-4.242c.492.692.959,1.403,1.395,2.135l-6.251,3.609Zm-1.429-2.123c-.36-.479-.741-.94-1.135-1.39l5.364-4.83c.561.638,1.103,1.294,1.612,1.976l-5.841,4.244Zm3.411-8.274c-.312-.312-.633-.614-.958-.913l4.833-5.367c.418.384.83.773,1.231,1.174.398.398.784.808,1.166,1.223l-5.367,4.833c-.296-.321-.596-.64-.905-.949Zm-1.528-1.422c-.659-.58-1.337-1.14-2.042-1.665l4.243-5.84c.909.675,1.784,1.392,2.631,2.14l-4.832,5.366Zm2.05-8.596c-.943-.672-1.912-1.307-2.912-1.898l3.609-6.25c1.218.718,2.4,1.49,3.545,2.309l-4.242,5.839Zm.435-9.223c-1.247-.709-2.529-1.363-3.842-1.961l2.937-6.595c1.544.702,3.05,1.47,4.515,2.304l-3.609,6.251Zm-4.54-2.276c-1.313-.573-2.658-1.085-4.028-1.543l2.231-6.866c1.611.536,3.191,1.139,4.733,1.814l-2.936,6.595Zm-4.751-1.787c-1.365-.431-2.757-.796-4.171-1.107l1.501-7.062c1.662.363,3.298.794,4.9,1.302l-2.231,6.866Zm-4.918-1.276c-1.399-.284-2.823-.5-4.264-.662l.754-7.179c1.694.188,3.367.441,5.011.777l-1.501,7.064Zm-.167.785l-1.501,7.063c-1.128-.228-2.275-.402-3.434-.533l.755-7.179c1.412.158,2.808.37,4.181.649Zm-4.856-1.529c-1.419-.136-2.857-.209-4.31-.22v-7.219c1.707.011,3.396.097,5.064.259l-.755,7.18Zm-.084.798l-.755,7.18c-1.144-.108-2.301-.167-3.471-.177v-7.218c1.424.011,2.834.083,4.226.216Zm-.839,7.978l-.754,7.179c-.868-.08-1.746-.125-2.633-.135v-7.217c1.141.011,2.271.068,3.387.173Zm-.838,7.977l-.755,7.178c-.592-.052-1.19-.083-1.794-.092v-7.216c.858.01,1.708.053,2.549.13Zm-.838,7.976l-.756,7.19c-.316-.025-.634-.041-.954-.048v-7.23c.575.009,1.145.038,1.71.088Zm-.84,7.985l-.871,8.287v-8.331c.292.007.583.021.871.044Zm-.42,27.155l.42,3.999c-.288.023-.578.037-.871.044v-5.305l.451,1.261Zm.505,4.797l.755,7.19c-.565.05-1.135.078-1.71.088v-7.229c.32-.007.639-.023.955-.048Zm.839,7.985l.755,7.182c-.841.077-1.691.12-2.549.13v-7.22c.603-.009,1.202-.04,1.794-.092Zm.839,7.98l.754,7.178c-1.116.105-2.246.162-3.387.173v-7.216c.887-.01,1.765-.055,2.633-.135Zm.838,7.976l.755,7.178c-1.392.133-2.802.205-4.226.216v-7.216c1.17-.011,2.327-.07,3.471-.178Zm.838,7.976l.755,7.182c-1.667.162-3.357.247-5.064.259v-7.22c1.453-.011,2.89-.084,4.31-.22Zm.676-.881l-.755-7.177c1.16-.132,2.306-.306,3.433-.533l1.501,7.062c-1.372.279-2.768.49-4.18.649Zm3.427-7.877c.625-.139,1.245-.291,1.859-.458l2.433,6.811c-.92.262-1.85.499-2.792.706l-1.5-7.06Zm4.562,7.111l2.434,6.815c-1.258.371-2.534.699-3.828.982l-1.501-7.063c.977-.215,1.941-.461,2.895-.734Zm.962-8.755c.609-.23,1.21-.474,1.804-.732l2.936,6.594c-.761.332-1.53.646-2.31.938l-2.429-6.801Zm2.501-1.048c1.057-.483,2.089-1.01,3.095-1.579l3.609,6.251c-1.224.695-2.481,1.335-3.768,1.922l-2.936-6.594Zm7.104,5.365l3.61,6.253c-1.465.834-2.971,1.603-4.515,2.304l-2.937-6.597c1.313-.598,2.594-1.252,3.843-1.961Zm.662-.381c1.243-.732,2.447-1.519,3.615-2.355l4.244,5.841c-1.372.984-2.788,1.908-4.249,2.767l-3.611-6.253Zm-.476-9.284c.931-.691,1.827-1.426,2.695-2.192l4.832,5.366c-1.055.935-2.148,1.827-3.283,2.667l-4.244-5.84Zm3.266-2.7c.428-.393.85-.792,1.261-1.202.408-.408.805-.828,1.195-1.253l5.367,4.832c-.475.519-.959,1.03-1.456,1.528-.5.5-1.013.986-1.535,1.463l-4.833-5.367Zm2.37-3.562l-5.365-4.83c.58-.659,1.14-1.336,1.666-2.041l5.839,4.242c-.675.908-1.392,1.782-2.14,2.629Zm-3.256-7.493c.508-.715.991-1.449,1.441-2.206l6.25,3.608c-.577.975-1.196,1.921-1.852,2.839l-5.839-4.242Zm1.822-2.869c.43-.764.83-1.547,1.199-2.347l6.593,2.935c-.473,1.031-.986,2.039-1.542,3.02l-6.25-3.608Zm.78-3.37l-6.595-2.936c.235-.548.445-1.109.64-1.677l6.867,2.231c-.274.809-.575,1.604-.911,2.382Zm-5.714-5.338c.176-.569.324-1.149.458-1.735l7.063,1.501c-.188.834-.4,1.659-.651,2.466l-6.87-2.232Zm.62-2.482c.115-.584.205-1.176.277-1.773l7.181.755c-.099.85-.227,1.692-.392,2.52l-7.065-1.502Zm.358-2.534c.052-.591.083-1.188.093-1.79h7.22c-.011.857-.054,1.706-.131,2.545l-7.181-.755Zm.094-2.554c-.009-.603-.039-1.201-.091-1.793l7.182-.755c.077.84.12,1.69.13,2.548h-7.22Zm-.17-2.554c-.072-.598-.162-1.189-.276-1.773l7.065-1.502c.164.828.292,1.67.391,2.52l-7.18.755Zm-.434-2.519c-.136-.6-.289-1.193-.468-1.775l6.869-2.232c.255.82.471,1.658.661,2.506l-7.062,1.501Zm-.71-2.501c-.195-.568-.405-1.129-.64-1.678l6.595-2.936c.336.778.637,1.574.912,2.383l-6.866,2.231Zm5.173-7.981l6.251-3.609c.555.982,1.07,1.989,1.542,3.02l-6.594,2.936c-.369-.8-.768-1.583-1.198-2.346Zm-.381-.662c-.45-.757-.932-1.49-1.441-2.206l5.84-4.243c.656.919,1.275,1.865,1.852,2.84l-6.251,3.609Zm-1.884-2.828c-.525-.704-1.085-1.382-1.665-2.041l5.366-4.831c.748.846,1.465,1.72,2.139,2.628l-5.841,4.244Zm2.592-9.233c-.411-.41-.832-.809-1.26-1.201l4.83-5.365c.522.478,1.036.964,1.536,1.464.497.497.98,1.007,1.455,1.525l-5.365,4.831c-.391-.426-.788-.846-1.196-1.254Zm-1.832-1.709c-.868-.767-1.764-1.502-2.696-2.193l4.243-5.839c1.135.84,2.228,1.733,3.282,2.668l-4.83,5.364Zm1.396-9.122c-1.168-.836-2.373-1.624-3.616-2.355l3.609-6.251c1.461.859,2.877,1.783,4.249,2.767l-4.243,5.84Zm-8.183-26.689c.242-.747,1.044-1.152,1.794-.909.747.242,1.157,1.043.915,1.788-.242.745-1.044,1.151-1.791.909-.75-.243-1.16-1.044-.918-1.788Zm.169,5.259c1.892.627,3.746,1.337,5.556,2.13l-3.099,6.96c-1.568-.686-3.174-1.3-4.812-1.844l2.355-7.246Zm-7.193-6.988c.162-.766.919-1.255,1.686-1.09.771.162,1.262.916,1.097,1.683-.161.766-.915,1.254-1.686,1.09-.768-.164-1.261-.917-1.098-1.683Zm.718,5.213c1.952.425,3.872.933,5.752,1.531l-2.354,7.247c-1.629-.517-3.292-.955-4.981-1.324l1.584-7.453Zm-7.886-6.197c.082-.779.782-1.343,1.564-1.261.782.082,1.351.78,1.269,1.559-.083.779-.783,1.343-1.565,1.26-.783-.081-1.35-.78-1.268-1.558Zm1.258,5.111c1.988.218,3.952.518,5.881.914l-1.584,7.453c-1.671-.342-3.372-.599-5.093-.79l.796-7.577Zm-.759-.085l-.797,7.578c-1.695-.165-3.413-.251-5.148-.263v-7.619c2.004.012,3.988.112,5.945.304Zm-7.73-5.256c0-.782.638-1.418,1.424-1.418s1.424.635,1.424,1.418-.638,1.418-1.424,1.418-1.424-.635-1.424-1.418Zm1.785,127.242v-1.604c1.736-.011,3.453-.099,5.148-.263l.196,1.867h-5.344Zm5.07-9.93c1.44-.161,2.864-.377,4.263-.662l1.502,7.065c-1.644.336-3.317.59-5.01.777l-.755-7.181Zm1.044,9.93l-.205-1.951c1.721-.191,3.422-.448,5.093-.79l.583,2.741h-5.47Zm6.253,0l-.619-2.913c1.328-.291,2.639-.628,3.931-1.01l1.401,3.923h-4.713Zm4.269-12.693c.799-.299,1.587-.622,2.366-.962l2.937,6.597c-.945.414-1.901.807-2.873,1.169l-2.43-6.803Zm4.534,12.693l-1.834-5.135c.991-.369,1.966-.77,2.929-1.192l2.817,6.327h-3.912Zm4.75,0l-2.957-6.642c1.57-.713,3.101-1.494,4.59-2.343l3.809,6.599c-1.496.854-3.027,1.653-4.596,2.386h-.846Zm5.493,0h-2.199c.909-.464,1.806-.947,2.689-1.451l.195.338c-.33.29-.558.674-.685,1.114Zm4.495-.333c-.838-1.071-2.108-1.544-3.151-1.167l-.191-.332c1.134-.665,2.253-1.354,3.342-2.084v3.583Zm0-4.895c-1.261.867-2.558,1.684-3.882,2.461l-3.81-6.598c1.484-.873,2.925-1.812,4.319-2.813l3.373,4.642v2.309Zm0-3.607l-2.751-3.786c.939-.694,1.856-1.417,2.751-2.166v5.952Zm0-7.011c-1.043.896-2.114,1.759-3.222,2.577l-4.244-5.841c1.158-.856,2.272-1.767,3.347-2.72l4.118,4.574v1.411Zm0-2.554l-3.546-3.938c.532-.487,1.056-.982,1.565-1.492.508-.507,1.001-1.028,1.485-1.558l.495.446v6.541Zm0-8.766c-.193.225-.385.45-.582.672l-5.365-4.831c.767-.867,1.502-1.763,2.193-2.693l3.754,2.727v4.125Zm0-5.068l-3.312-2.406c.673-.941,1.307-1.911,1.898-2.909l1.414.816v4.5Zm0-5.382l-1.032-.596c.361-.636.706-1.282,1.032-1.939v2.535Zm0-4.771l-6.463-2.877c.347-.803.658-1.625.941-2.46l5.522,1.794v3.544Zm0-4.347l-5.277-1.715c.26-.834.48-1.686.673-2.547l4.604.979v3.283Zm0-4.064l-4.44-.944c.171-.856.303-1.725.406-2.603l4.034.424v3.123Zm0-3.892l-3.952-.416c.08-.867.124-1.743.135-2.629h3.817v3.044Zm0-3.808h-3.816c-.01-.886-.054-1.764-.134-2.632l3.95-.415v3.047Zm0-3.816l-4.029.423c-.102-.878-.233-1.747-.404-2.603l4.433-.942v3.122Zm0-3.902l-4.595.977c-.195-.875-.418-1.74-.682-2.587l5.278-1.715v3.325Zm0-4.13l-5.524,1.795c-.283-.836-.594-1.657-.942-2.461l6.466-2.879v3.545Zm0-5.778c-.327-.657-.672-1.303-1.033-1.94l1.033-.596v2.537Zm0-3.419l-1.414.816c-.591-.999-1.226-1.968-1.898-2.91l3.312-2.406v4.5Zm0-5.444l-3.755,2.728c-.691-.931-1.426-1.827-2.193-2.694l5.364-4.83c.197.222.39.447.583.673v4.122Zm0-6.349l-.495.446c-.484-.529-.978-1.05-1.485-1.558-.51-.51-1.033-1.005-1.564-1.491l3.545-3.937v6.54Zm0-7.683l-4.118,4.573c-1.075-.954-2.19-1.865-3.347-2.721l4.242-5.84c1.108.818,2.179,1.682,3.223,2.578v1.41Zm0-2.47c-.895-.75-1.811-1.472-2.751-2.166l2.751-3.786v5.952Zm0-7.25l-3.373,4.642c-1.395-1-2.834-1.94-4.32-2.812l3.81-6.598c1.324.777,2.621,1.594,3.883,2.461v2.307Zm0-3.619c-1.089-.731-2.208-1.419-3.343-2.084l.193-.333c1.043.376,2.313-.095,3.151-1.165v3.582Zm382.042-20.093c-.047.01-.091.022-.137.032.061-.095.108-.27.137-.483v.452Z"/></g><path class="cls-7" d="m129.177,539.324l-2.515.11-6.829,6.663-6.109-6.082-2.21.113-6.719,6.689-5.83-5.999h-2.571l-6.746,6.716-5.86-6.135h-2.598l-6.994,6.799-5.916-6.192h-2.598l-6.828,6.606-5.558-5.803h-2.598l-6.799,6.58h-.196l-5.83-6.082h-2.601l-6.855,6.663-5.664-5.946h-2.601l-6.716,6.497-5.777-6.026h-2.598l-6.885,6.689h-.193l-5.724-5.969h-2.598l-6.799,6.577h-.083l-5.833-6.109h-2.598l-6.663,6.47-5.724-5.972h-2.598l-6.799,6.606-5.641-5.886h-2.598l-6.799,7.353-3.345.139-5.531-6.994h-1.961l-6.109,7.297-5.445-6.994h-1.964l-6.301,7.522-5.531-7.077h-1.961l-6.195,7.409-5.362-6.885h-1.935l-6.357,7.575-5.641-7.217h-1.961l-6.109,7.326-5.335-6.855h-1.964l-6.192,7.409-5.362-6.885h-1.964l-6.162,7.382-5.365-6.855h-1.935l-6.135,7.323-5.392-6.882h-1.964l-6.218,7.436-5.472-7.021h-1.964l-6.109,7.27-5.445-7.021h-1.964l-6.248,7.463-5.418-6.995h-1.961l-6.248,7.465-5.418-6.994h-1.961l-6.331,7.575-5.531-7.104h-1.961l-6.357,7.602-5.528-7.104h-1.938l-6.218,7.406-5.445-7.27h-1.964l-6.301,7.824-5.584-7.436h-1.964l-6.384,7.907-5.475-7.326h-1.961l-6.192,7.658-5.365-7.16h-1.961l-6.387,7.934-5.389-7.187h-1.964l-6.301,7.824-5.611-7.522h-1.964l-6.44,7.99-.027.027-5.475-7.297h-1.961l-6.248,7.768h-.222l-5.445-7.436h-1.964l-6.218,7.933h-.139l-5.555-7.436h-1.964l-6.414,7.711-.359.222v1.161l80.165-2.82,31.847-1.022,108.942-3.594,115.104-4.118,1.549-.776,192.7-7.572v-.747l.11-.03-.11-.083v-.302h-.249l-5.999-6.47h0Zm-7.655,7.021c1.52-1.52,4.062-4.091,5.445-5.445v5.226l-5.445.219h0Zm7.297-.302v-5.033c1.271,1.301,3.457,3.54,4.755,4.867l-4.755.166h0Zm-22.364.883c1.549-1.52,3.982-4.008,5.335-5.306v5.087l-5.335.219h0Zm7.16-.276v-4.947c1.327,1.354,3.567,3.454,4.865,4.755l-4.865.193h0Zm-22.198.883c1.549-1.49,3.982-3.869,5.335-5.14v4.921l-5.335.219h0Zm7.16-.302v-4.755c1.271,1.271,3.428,3.288,4.725,4.562l-4.725.193h0Zm-22.473.883c1.546-1.49,4.062-4.035,5.445-5.362v5.143l-5.445.219h0Zm7.297-.276v-5.004c1.271,1.327,3.454,3.484,4.755,4.811l-4.755.193h0Zm-22.722.886c1.547-1.52,4.008-4.064,5.362-5.365v5.169l-5.362.196h0Zm7.214-.278v-5.004c1.3,1.357,3.567,3.514,4.867,4.811l-4.867.193h0Zm-22.115.859c1.549-1.493,3.955-3.872,5.309-5.143v4.947l-5.309.196h0Zm7.134-.278v-4.781c1.271,1.327,3.454,3.318,4.755,4.589l-4.755.193h0Zm-22.556.886c1.546-1.52,3.979-3.982,5.306-5.252v5.06l-5.306.193h0Zm7.131-.276v-4.894c1.271,1.301,3.428,3.401,4.728,4.698l-4.728.196h0Zm-22.251.883c1.546-1.52,3.952-3.869,5.279-5.17v4.95l-5.279.219h0Zm7.131-.276v-4.781c1.271,1.271,3.401,3.288,4.698,4.589l-4.698.193h0Zm-22.224.856c1.573-1.52,3.952-3.979,5.306-5.253v5.06l-5.306.193H.141Zm7.131-.276v-4.894c1.271,1.301,3.401,3.401,4.728,4.728l-4.728.166h0Zm-22.53.883c1.549-1.49,3.955-3.869,5.282-5.14v4.947l-5.282.193h0Zm7.134-.276v-4.781c1.271,1.271,3.398,3.288,4.698,4.589l-4.698.193h0Zm-22.586.886c1.549-1.493,4.064-3.955,5.418-5.279v5.057l-5.418.222h0Zm7.27-.278v-4.918c1.271,1.297,3.401,3.428,4.701,4.725l-4.701.193h0Zm-22.224.859c1.549-1.493,4.035-4.038,5.418-5.365v5.17l-5.418.196h0Zm7.243-.279v-5.004c1.298,1.327,3.537,3.513,4.808,4.811l-4.808.193h0Zm-22.307,1.576c2.017-2.074,5.445-5.943,5.445-5.943v5.03l-1.991.083-1.549.776-1.905.053h0Zm7.27-.966v-4.894c1.298,1.327,3.51,3.401,4.808,4.698l-4.808.196h0Zm-24.521,1.576c1.41-1.689,3.594-4.313,4.808-5.807v5.641l-4.808.166h0Zm6.497-.222v-5.475c1.161,1.523,3.205,4.147,4.201,5.335l-4.201.139h0Zm-20.154.72c1.41-1.689,3.676-4.453,4.95-5.972v5.807l-4.95.166h0Zm6.609-.222v-5.641c1.158,1.466,3.066,3.955,4.254,5.475l-4.254.166h0Zm-20.403.717c1.41-1.712,3.706-4.533,4.977-6.052v5.889l-4.977.163h0Zm6.636-.219v-5.724c1.158,1.493,3.149,4.038,4.31,5.558l-4.31.166h0Zm-20.154.717c1.41-1.712,3.703-4.506,4.947-6.026v5.833l-4.947.193h0Zm6.636-.249v-5.664c1.188,1.49,3.179,4.008,4.367,5.498l-4.367.166h0Zm-20.651.747c1.383-1.686,3.759-4.589,5.033-6.135v5.943l-5.033.193h0Zm6.692-.249v-5.803c1.215,1.52,3.232,4.147,4.42,5.638l-4.42.166h0Zm-20.098.72c1.41-1.686,3.73-4.616,5.03-6.165v5.972l-5.03.193h0Zm6.689-.249v-5.806c1.215,1.549,3.288,4.177,4.45,5.641l-4.45.166h0Zm-20.18.72c1.41-1.689,3.733-4.562,5.004-6.082v5.916l-5.004.166h0Zm6.663-.222v-5.777c1.218,1.547,3.262,4.118,4.45,5.611l-4.45.166h0Zm-20.124.72c1.41-1.715,3.703-4.536,5.004-6.055v5.86l-5.004.195h0Zm6.663-.249v-5.724c1.188,1.549,3.232,4.064,4.393,5.558l-4.393.166h0Zm-20.154.69c1.41-1.686,3.733-4.533,5.03-6.082v5.916l-5.03.166h0Zm6.689-.222v-5.75c1.191,1.523,3.235,4.091,4.396,5.614l-4.396.136h0Zm-20.456.664c1.41-1.659,3.816-4.533,5.116-6.109v5.943l-5.116.166h0Zm6.775-.219v-5.78c1.188,1.549,3.262,4.147,4.42,5.641l-4.42.139h0Zm-20.376.69c1.384-1.659,3.872-4.698,5.199-6.304v6.112l-5.199.193h0Zm6.858-.249v-5.972c1.215,1.576,3.345,4.34,4.506,5.833l-4.506.139h0Zm-20.456.69c1.381-1.659,3.842-4.698,5.167-6.275v6.109l-5.167.166h0Zm6.826-.222v-5.969c1.244,1.603,3.428,4.34,4.562,5.803l-4.562.166h0Zm-20.426.664c1.38-1.656,3.813-4.672,5.14-6.245v6.079l-5.14.166h0Zm6.799-.219v-5.916c1.244,1.576,3.427,4.284,4.562,5.75l-4.562.166h0Zm-20.622.69c1.383-1.686,3.816-4.672,5.143-6.248v6.055l-5.143.193h0Zm6.799-.249v-5.886c1.244,1.573,3.401,4.284,4.536,5.747l-4.536.139h0Zm-20.619.69c1.38-1.686,3.813-4.642,5.14-6.218v6.052l-5.14.166h0Zm6.799-.219v-5.889c1.218,1.576,3.371,4.257,4.533,5.75l-4.533.139h0Zm-20.429.664c1.383-1.715,3.816-4.784,5.143-6.44v6.275l-5.143.166h0Zm6.802-.222v-6.109c1.244,1.629,3.371,4.423,4.533,5.969l-4.533.139h0Zm-20.651.69c1.383-1.742,3.816-4.891,5.143-6.55v6.384l-5.143.166h0Zm6.828-.219v-6.221c1.218,1.659,3.401,4.533,4.536,6.055l-4.536.166h0Zm-20.566.664c1.38-1.772,3.759-4.811,5.057-6.414v6.248l-5.057.166h0Zm6.716-.222v-6.082c1.244,1.632,3.401,4.396,4.536,5.916l-4.536.166h0Zm-20.097.664c1.41-1.798,3.679-4.781,4.924-6.331v6.165l-4.924.166h0Zm6.58-.222v-5.999c1.218,1.606,3.291,4.287,4.453,5.833l-2.13.083-2.323.083h0Zm-20.26.72c1.41-1.769,3.647-4.562,4.864-6.109v5.916l-4.864.193h0Zm6.55-.249v-5.75c1.161,1.576,3.152,4.065,4.313,5.611l-4.313.139h0Zm-20.429.717c1.41-1.795,3.623-4.725,4.867-6.245v6.082l-4.867.163h0Zm6.526-.219v-5.916c1.161,1.547,3.122,4.174,4.31,5.777l-4.31.139h0Zm-20.293.717c1.41-1.795,3.54-4.533,4.758-6.026v5.86l-4.758.166h0Zm6.414-.219v-5.694c1.161,1.52,3.096,3.979,4.287,5.528l-4.287.166h0Zm-20.343.717c1.41-1.769,3.564-4.506,4.781-5.996v5.803l-4.781.193h0Zm6.467-.249v-5.638c1.105,1.464,2.986,3.925,4.174,5.501l-4.174.136h0Zm-20.512.747c1.41-1.769,3.676-4.616,4.95-6.192v5.999l-4.95.193h0Zm6.609-.249v-5.833c1.132,1.493,3.04,4.094,4.228,5.697l-4.228.136h0Z"/><path class="cls-7" d="m624.101,539.381h-2.595l-5.919,6.135c-.468-.027-.717-.027-.717-.027l.195,1.271s40.859,2.074,62.692,2.571c21.839.524,136.173,5.143,136.173,5.143l3.591.276s30.188,1.215,31.93,1.215c1.712,0,60.429,2.518,60.429,2.518l95.036,2.708,97.027,3.454-.189-1.271-1.327-.053-7.631-8.544h-1.712l-6.387,7.658-7.24-8.073h-1.718l-6.381,7.658-7.217-8.043h-1.712l-6.387,7.685h-.053l-7.3-8.156h-1.742l-6.274,7.519-7.412-8.292h-1.736l-6.417,7.738-7.24-8.07h-1.742l-6.304,7.572-7.157-7.987h-1.742l-6.304,7.572-.415-.027-6.44-7.933h-1.546l-5.445,7.27-6.275-7.738h-1.576l-5.558,7.406-6.357-7.877h-1.576l-5.67,7.519-6.464-8.016h-1.576l-5.587,7.436-6.411-7.96h-1.552l-5.611,7.436-6.411-7.933h-1.546l-5.641,7.489-6.387-7.904h-1.546l-5.309,7.074-6.079-7.519h-1.552l-5.884,7.824-6.221-7.685h-1.546l-5.362,7.16h-.059l-6.523-8.073h-1.546l-5.587,7.409-6.357-7.851h-1.546l-5.558,7.38-6.328-7.821h-1.576l-5.338,7.104-6.44-7.575h-1.629l-5.747,7.27-2.962-.222-7.187-6.938h-2.625l-5.724,5.972-6.713-6.47h-2.601l-5.747,5.972-6.885-6.636h-2.601l-5.777,5.999-6.855-6.633h-2.625l-5.747,5.999-6.885-6.636h-2.601l-5.966,6.192-6.885-6.606h-2.601l-5.777,5.999-6.689-6.44h-2.595l-5.836,6.026-6.968-6.689h-2.625l-5.723,5.943-6.63-6.384h-2.601l-5.913,6.135-6.855-6.58h-2.601l-5.913,5.667-6.719-6.58h-2.601l-5.83,6.029-6.855-6.58h-2.601l-5.694,5.886-6.719-6.467h0Zm5.226,6.799c-2.014-.083-3.899-.166-5.581-.249v-5.196c1.434,1.354,4.064,3.982,5.581,5.445h0Zm-7.436-.358c-1.932-.083-3.537-.166-4.698-.222,1.298-1.327,3.43-3.511,4.698-4.781v5.004h0Zm22.201,1.022c-1.825-.083-3.596-.166-5.338-.219v-5.335c1.357,1.298,3.762,3.979,5.338,5.555h0Zm-7.187-.302c-1.718-.083-3.401-.166-4.977-.222,1.268-1.301,3.62-3.567,4.977-4.947v5.17h0Zm22.912.939c-1.908-.056-3.839-.139-5.801-.222v-5.418c1.493,1.437,4.284,4.204,5.801,5.641h0Zm-7.625-.276c-1.606-.083-3.182-.139-4.758-.222,1.298-1.354,3.454-3.759,4.758-5.03v5.252h0Zm22.497.773c-1.742-.03-3.537-.083-5.416-.166v-5.06c1.381,1.327,3.869,3.733,5.416,5.226h0Zm-7.27-.222c-1.659-.056-3.401-.11-5.137-.166,1.238-1.244,3.727-3.318,5.137-4.728v4.894h0Zm22.669.69c-1.991-.083-3.786-.136-5.445-.193v-5.06c1.38,1.327,3.899,3.762,5.445,5.252h0Zm-7.3-.249c-1.849-.053-3.478-.083-4.781-.11,1.303-1.327,3.513-3.484,4.781-4.781v4.891h0Zm22.23.776c-1.884-.083-3.679-.139-5.421-.196v-5.14c1.38,1.298,3.869,3.813,5.421,5.335h0Zm-7.246-.279c-1.683-.053-3.288-.109-4.835-.166,1.298-1.297,3.508-3.481,4.835-4.808v4.974h0Zm22.669.859c-1.854-.083-3.65-.139-5.421-.222v-5.004c1.357,1.3,3.845,3.703,5.421,5.226h0Zm-7.3-.278c-1.6-.053-3.205-.136-4.781-.193,1.298-1.301,3.513-3.371,4.781-4.672v4.864h0Zm22.503.829c-1.854-.053-3.703-.136-5.558-.193v-5.17c1.41,1.354,4.035,3.899,5.558,5.362h0Zm-7.406-.276c-1.605-.056-3.211-.11-4.811-.166,1.298-1.327,3.508-3.51,4.811-4.811v4.977h0Zm22.941.886c-1.878-.056-3.762-.139-5.64-.222v-5.309c1.44,1.384,4.094,4.065,5.64,5.531h0Zm-7.489-.279c-1.659-.083-3.318-.136-4.947-.193,1.268-1.301,3.59-3.594,4.947-4.977v5.169h0Zm22.693.886c-1.854-.083-3.733-.166-5.611-.222v-5.279c1.44,1.383,4.065,4.008,5.611,5.501h0Zm-7.466-.305c-1.659-.053-3.312-.136-5-.193,1.274-1.271,3.65-3.511,5-4.921v5.113h0Zm22.669.886c-1.825-.056-3.673-.139-5.581-.222v-5.223c1.434,1.354,4.035,3.979,5.581,5.445h0Zm-7.406-.278c-1.629-.083-3.288-.136-4.977-.193,1.274-1.298,3.62-3.511,4.977-4.891v5.084h0Zm22.663.886c-1.766-.056-3.62-.139-5.581-.222v-5.196c1.44,1.354,4.035,3.955,5.581,5.418h0Zm-7.43-.276c-1.576-.083-3.235-.139-4.953-.195,1.303-1.298,3.596-3.481,4.953-4.835v5.03h0Zm22.693.912c-1.274-.056-3.265-.139-5.806-.249v-5.282c1.493,1.41,4.313,4.091,5.806,5.531h0Zm-7.655-.332c-1.493-.056-3.152-.113-4.953-.196,1.274-1.271,3.596-3.537,4.953-4.921v5.116h0Zm24.683,1.105c-1.712-.056-3.371-.11-4.865-.193v-5.418c1.215,1.38,3.371,3.925,4.865,5.611h0Zm-6.606-.249c-1.795-.083-3.265-.139-4.177-.166,1.274-1.549,3.069-3.759,4.177-5.113v5.279h0Zm19.766.773c-1.44-.053-3.016-.11-4.675-.193v-5.475c1.191,1.41,3.265,3.955,4.675,5.667h0Zm-6.334-.249c-1.327-.053-2.654-.11-3.952-.166,1.191-1.546,2.903-3.813,3.952-5.14v5.306h0Zm19.825.747c-1.967-.083-3.567-.166-4.704-.193v-5.528c1.191,1.437,3.294,4.008,4.704,5.721h0Zm-6.529-.249c-.355,0-1.825-.053-3.976-.136,1.185-1.523,3.04-3.842,4.118-5.252v5.389h-.142Zm19.932.803c-1.6-.083-3.152-.139-4.616-.193v-5.641c1.161,1.384,3.206,4.065,4.616,5.833h0Zm-6.275-.276c-1.493-.056-2.874-.113-4.201-.166,1.215-1.523,3.069-3.872,4.201-5.309v5.475h0Zm33.861,1.437c-1.6-.083-3.288-.139-5.054-.222v-5.999c1.298,1.576,3.674,4.536,5.054,6.221h0Zm-6.742-.279c-1.351-.083-2.791-.136-4.201-.193,1.191-1.576,3.069-4.201,4.201-5.638v5.83h0Zm-7.24-.332c-1.576-.053-3.152-.136-4.728-.193v-5.279c1.191,1.437,3.288,3.816,4.728,5.472h0Zm-6.417-.276c-1.351-.056-2.738-.083-4.059-.166,1.215-1.464,2.98-3.537,4.059-4.921v5.087h0Zm33.34,1.437s-1.938-.083-5.06-.219v-6.109c1.327,1.629,3.845,4.698,5.196,6.328h-.136Zm-6.743-.302c-1.327-.056-2.796-.113-4.373-.166,1.191-1.52,3.182-4.23,4.373-5.75v5.916h0Zm20.4.69l-5.172-.166v-6.138c1.357,1.576,3.816,4.645,5.172,6.304h0Zm-6.831-.193l-4.586-.139c1.108-1.437,3.318-4.257,4.586-5.889v6.029h0Zm20.293.581l-5.06-.166v-6.029c1.298,1.549,3.65,4.506,5.06,6.195h0Zm-6.719-.196l-4.562-.136c1.161-1.466,3.318-4.147,4.562-5.75v5.886h0Zm20.18.554l-4.947-.139v-5.886c1.274,1.52,3.567,4.34,4.947,6.026h0Zm-6.636-.166l-4.42-.139c1.161-1.493,3.235-4.062,4.42-5.611v5.75h0Zm20.293.554l-4.894-.139v-5.807c1.215,1.493,3.484,4.23,4.894,5.946h0Zm-6.583-.166l-4.367-.139c1.191-1.493,3.182-4.008,4.367-5.528v5.667h0Zm19.991.551l-4.811-.136v-5.697c1.215,1.44,3.371,4.121,4.811,5.833h0Zm-6.5-.166l-4.254-.136c1.161-1.523,3.123-3.955,4.254-5.448v5.584h0Zm19.712.554l-4.728-.139v-5.611c1.191,1.437,3.318,4.035,4.728,5.75h0Zm-6.417-.193l-4.201-.113c1.191-1.52,3.099-3.896,4.201-5.362v5.475h0Zm21.899.634l-1.327-.056-4.011-.11v-5.638c1.357,1.464,3.762,4.091,5.338,5.804h0Zm-7.193-.222l-4.615-.136c1.303-1.52,3.401-3.899,4.615-5.335v5.472h0Zm22.532.776l-5.475-.196v-5.747c1.381,1.49,3.899,4.227,5.475,5.943h0Zm-7.329-.278l-4.669-.166c1.298-1.52,3.431-3.952,4.669-5.415v5.581h0Zm22.752.829l-5.499-.193v-5.969c1.381,1.52,3.922,4.423,5.499,6.162h0Zm-7.353-.276l-4.835-.166c1.327-1.52,3.537-4.091,4.835-5.611v5.777h0Zm22.669.829l-5.392-.222v-5.721c1.357,1.464,3.845,4.228,5.392,5.943h0Zm-7.24-.276l-4.841-.166c1.298-1.493,3.514-3.899,4.841-5.418v5.584h0Zm22.829.829l-5.499-.195v-5.833c1.381,1.523,3.952,4.34,5.499,6.029h0Zm-7.353-.278l-4.781-.166c1.297-1.52,3.513-4.008,4.781-5.501v5.667h0Zm22.835.829l-5.664-.219v-5.972c1.434,1.603,4.142,4.506,5.664,6.192h0Zm-7.489-.276l-4.924-.166c1.303-1.52,3.567-4.118,4.924-5.641v5.806h0Zm22.995.83l-5.83-.222v-6.109c1.493,1.632,4.284,4.698,5.83,6.331h0Zm-7.708-.276l-4.977-.196c1.274-1.464,3.62-4.201,4.977-5.777v5.972h0Z"/><path class="cls-4" d="m413.297,532.164h2.266l-1.135-1.49-1.132,1.49Zm15.672.249h2.269l-1.135-1.52-1.135,1.52Z"/><path class="cls-4" d="m458.768,532.884h2.266l-1.132-1.52-1.135,1.52Zm15.87.358h2.266l-1.135-1.52-1.132,1.52Zm14.842.113h2.266l-1.132-1.523-1.135,1.523Zm14.679.219h2.266l-1.132-1.493-1.135,1.493Zm16.448.249h2.296l-1.135-1.52-1.161,1.52Zm14.706.222h2.266l-1.132-1.493-1.135,1.493Zm15.316.249h2.266l-1.135-1.52-1.132,1.52Zm15.011.193h2.266l-1.135-1.52-1.132,1.52Zm84.81,2.764h2.263l-1.102-1.52-1.161,1.52Zm15.452.388h2.293l-1.132-1.52-1.161,1.52Zm15.784.69h2.263l-1.132-1.52-1.132,1.52Zm120.632,4.894h2.269l-1.132-2.047-1.138,2.047Zm-14.978-.607h2.263l-1.132-1.937-1.132,1.937Zm-15.316-.61h2.293l-1.132-1.908-1.161,1.908Zm-14.789-.385h2.263l-1.132-1.937-1.132,1.937Zm-15.233-.859h2.269l-1.138-1.852-1.132,1.852Zm-15.92-.607h2.346l-1.132-1.825-1.215,1.825Zm-14.984-.773h2.263l-1.102-1.493-1.161,1.493Zm-14.54-.581h2.293l-1.132-1.52-1.161,1.52Zm-44.757-2.711l-42.209-64.298-42.737,61.066m100.15,3.232l-57.413-68.167-57.774,64.795m131.001,4.091l-73.333-72.453-72.901,68.03m161.106,4.811l-88.098-76.71-87.766,71.733m190.434,5.667l-102.668-80.885-104.161,74.912m221.813,6.277l-117.652-86.054-118.893,79.611m252.382,7.051l-132.992-90.089-134.262,83.068m282.487,7.794l-148.722-94.512-149.688,86.303m313.282,8.68l-163.594-98.852m178.851,99.403l-178.792-104.436-179.547,94.734m373.269,10.146l-193.675-108.362-195.269,97.996m30.354.524l164.809-90.006"/><polygon class="cls-4" points="443.647 532.718 445.914 532.718 444.782 531.198 443.647 532.718"/><rect class="cls-9" x="581.755" y="596.299" width="55.647" height="11.109"/><rect class="cls-4" x="581.755" y="596.299" width="55.647" height="11.109"/><rect class="cls-9" x="584.38" y="610.092" width="10.724" height="59.712"/><rect class="cls-4" x="584.38" y="610.092" width="10.724" height="59.712"/><polyline class="cls-9" points="595.077 610.092 597.758 607.408 581.726 607.408 584.38 610.092 595.077 610.092"/><polygon class="cls-3" points="595.077 610.092 597.758 607.408 581.726 607.408 584.38 610.092 595.077 610.092"/><rect class="cls-9" x="624.018" y="610.092" width="10.7" height="57.14"/><rect class="cls-4" x="624.018" y="610.092" width="10.7" height="57.14"/><polyline class="cls-9" points="634.718 610.092 637.402 607.408 621.369 607.408 624.048 610.092 634.718 610.092"/><polygon class="cls-3" points="634.718 610.092 637.402 607.408 621.369 607.408 624.048 610.092 634.718 610.092"/><rect class="cls-9" x="604.146" y="610.092" width="10.695" height="59.712"/><rect class="cls-4" x="604.146" y="610.092" width="10.695" height="59.712"/><polyline class="cls-9" points="614.84 610.092 617.524 607.408 601.491 607.408 604.172 610.092 614.84 610.092"/><polygon class="cls-3" points="614.84 610.092 617.524 607.408 601.491 607.408 604.172 610.092 614.84 610.092"/><path class="cls-4" d="m292.134,532.884h-2.266l1.135-1.52,1.132,1.52Zm-15.867.358h-2.266l1.105-1.52,1.161,1.52Zm-14.845.166h-2.266l1.135-1.576,1.132,1.576Zm-14.676.361h-2.269l1.135-1.689,1.135,1.689Zm-16.477.219h-2.266l1.135-1.686,1.132,1.686Zm-14.623.249l-2.349.03,1.135-1.715,1.215,1.686Zm-15.369.388h-2.266l1.135-1.852,1.132,1.852Zm-14.984.249l-2.403.027,1.244-1.934,1.158,1.908Zm-84.836,2.376h-2.293l1.132-1.52,1.161,1.52Zm-15.479.637h-2.266l1.132-1.769,1.135,1.769Zm-15.757.69h-2.266l1.135-1.769,1.132,1.769Zm-120.44,5.362h-2.296l1.188-1.852,1.108,1.852Zm14.649-.664h-2.266l1.188-1.656,1.078,1.656Zm15.286-.939h-2.266l1.161-1.493,1.105,1.493Zm14.845-.747h-2.266l1.132-1.493,1.135,1.493Zm14.898-.302h-2.266l1.161-1.881,1.105,1.881Zm16.282-.72h-2.349l1.218-2.24,1.132,2.24Zm14.984-.664h-2.266l1.188-2.017,1.078,2.017Zm14.484-.664h-2.266l1.244-1.961,1.022,1.961Zm44.893-3.152l42.212-64.298,42.707,61.066m-100.123,3.232l57.416-68.167,57.774,64.795m-131.001,4.091l73.336-72.453,72.951,68.087m-161.162,4.755l88.101-76.71,87.766,71.733m-190.434,5.667l102.668-80.885,104.158,74.912m-221.807,6.277l117.649-86.054,118.92,79.611m-252.824,7.548l133.38-90.587,134.289,83.068m-282.597,8.209l148.832-94.927,149.688,86.303m-313.392,9.48l163.704-99.652m-178.963,100.345l178.88-105.378,179.571,94.734m-373.074,11.059l193.474-109.274,195.272,97.996m-30.351.524l-164.809-90.006"/><path class="cls-4" d="m337.608,532.164h-2.266l1.132-1.49,1.135,1.49Zm-15.674.249h-2.266l1.135-1.52,1.132,1.52Zm-14.676.305h-2.269l1.135-1.52,1.135,1.52Z"/><rect class="cls-9" x="113.506" y="597.709" width="55.644" height="11.139"/><rect class="cls-4" x="113.506" y="597.709" width="55.644" height="11.139"/><rect class="cls-9" x="155.828" y="611.502" width="10.698" height="73.695"/><rect class="cls-4" x="155.828" y="611.502" width="10.698" height="73.695"/><polyline class="cls-9" points="155.828 611.502 153.144 608.848 169.177 608.848 166.525 611.502 155.828 611.502"/><polygon class="cls-3" points="155.828 611.502 153.144 608.848 169.177 608.848 166.525 611.502 155.828 611.502"/><rect class="cls-9" x="116.157" y="611.502" width="10.727" height="69.245"/><rect class="cls-4" x="116.157" y="611.502" width="10.727" height="69.245"/><polyline class="cls-9" points="116.187 611.502 113.506 608.848 129.539 608.848 126.855 611.502 116.187 611.502"/><polygon class="cls-3" points="116.187 611.502 113.506 608.848 129.539 608.848 126.855 611.502 116.187 611.502"/><rect class="cls-9" x="136.062" y="611.502" width="10.698" height="74.192"/><rect class="cls-4" x="136.062" y="611.502" width="10.698" height="74.192"/><polyline class="cls-9" points="136.062 611.502 133.381 608.848 149.414 608.848 146.733 611.502 136.062 611.502"/><polygon class="cls-3" points="136.062 611.502 133.381 608.848 149.414 608.848 146.733 611.502 136.062 611.502"/><polyline class="cls-7" points="134.015 597.626 138.743 424.191 144.162 424.191 148.89 597.626 134.015 597.626"/><polygon class="cls-4" points="134.015 597.626 138.743 424.191 144.162 424.191 148.89 597.626 134.015 597.626"/><polyline class="cls-7" points="616.89 596.299 612.162 424.191 606.744 424.191 602.016 596.299 616.89 596.299"/><polygon class="cls-4" points="616.89 596.299 612.162 424.191 606.744 424.191 602.016 596.299 616.89 596.299"/><path class="cls-7" d="m383.358,535.067h-2.598l-5.558,5.806-5.528-5.806h-2.598l-6.47,6.275h-.193l-5.777-6.052h-2.598l-6.275,6.082h-.859l-5.664-5.916h-2.601l-6.411,6.218h-.776l-5.581-5.833h-2.601l-6.328,6.112-.554.027-5.694-5.972h-2.598l-6.47,6.248-.498.03-5.638-5.916h-2.598l-6.387,6.192h-.969l-5.72-5.972h-2.598l-6.497,6.275h-.415l-5.694-5.943h-2.598l-6.443,6.221-.581.027-5.664-5.943h-2.601l-6.411,6.218h-.776l-5.694-5.943h-2.598l-6.44,6.248h-.166l-5.806-6.082h-2.598l-6.58,6.358h-.359l-5.721-5.969h-2.598l-6.47,6.275h-.581l-5.694-5.969h-2.598l-6.443,6.245h-.219l-5.724-5.969h-2.598l-6.467,6.275h-.305l-5.528-6.109h-2.489l-5.86,6.358-.498.027v.498l-.083.113h.083v.551l108.501-2.074,93.407-1.297,69.879.249,84.783,1.298,54.984,1.025,44.366.498v-1.161h-.637l-6.192-6.58h-2.349l-5.362,6.165-6.633-6.44h-2.601l-5.943,6.218-6.633-6.414h-2.598l-5.916,6.192-6.636-6.411h-2.598l-6.109,6.357-6.719-6.497h-2.598l-5.833,6.109-6.689-6.467h-2.569l-6.082,6.358-6.689-6.47h-2.601l-5.86,6.109-6.743-6.55h-2.601l-6.026,6.301-6.633-6.411h-2.598l-5.863,6.109h-.747l-6.301-6.109h-2.598l-5.557,5.803-.829-.027-6.358-6.165h-2.598l-5.611,5.86-.72-.027-6.44-6.221h-2.598l-5.584,5.916-1.188-.027-6.358-6.055h-2.601l-5.721,5.999h-.276l-6.387-6.192h-2.598l-5.86,6.138h-.222l-6.606-6.387h0Zm4.894,6.387l-5.282-.03v-5.03c1.327,1.271,3.733,3.567,5.282,5.06h0Zm-20.817-.083l-5.17-.03c1.549-1.493,3.872-3.677,5.17-4.921v4.95h0Zm13.713.053l-4.811-.027c1.298-1.327,3.51-3.594,4.811-4.894v4.921h0Zm-7.077-.027l-4.784-.027v-4.867c1.274,1.327,3.484,3.567,4.784,4.894h0Zm-26.621-.056c1.549-1.464,3.703-3.511,4.947-4.698v4.672l-2.983-.027-1.964.053h0Zm55.923.166l-5.087-.027v-4.811c1.271,1.244,3.537,3.345,5.087,4.838h0Zm-49.124-.193v-4.589c1.191,1.218,3.152,3.262,4.479,4.589h-4.479Zm42.186.166l-4.562-.027c1.301-1.357,3.345-3.457,4.562-4.701v4.728h0Zm-64.493.166c1.549-1.493,3.786-3.62,5.06-4.838v4.728l-5.06.11h0Zm86.303-.083l-4.977-.027v-4.701c1.244,1.218,3.401,3.235,4.977,4.728h0Zm-79.391-.056v-4.616c1.161,1.188,3.04,3.179,4.367,4.533l-4.367.083h0Zm72.563.03l-4.423-.03c1.327-1.354,3.262-3.371,4.423-4.559v4.589h0Zm22.639.332l-5.057-.113v-4.725c1.271,1.215,3.51,3.345,5.057,4.838h0Zm-6.909-.139l-4.37-.11c1.327-1.357,3.208-3.318,4.37-4.506v4.616h0Zm-110.518.193c1.546-1.463,3.759-3.537,5.03-4.725v4.642l-5.03.083h0Zm6.855-.136v-4.506c1.161,1.161,3.04,3.096,4.367,4.423l-4.367.083h0Zm-22.088.441c1.549-1.493,3.789-3.65,5.06-4.864v4.755l-5.06.11h0Zm147.919-.027l-4.977-.113v-4.672c1.244,1.191,3.431,3.291,4.977,4.784h0Zm-141.035-.113v-4.642c1.188,1.188,3.096,3.205,4.423,4.559l-4.423.083h0Zm134.236-.053l-4.37-.083c1.3-1.327,3.208-3.262,4.37-4.453v4.536h0Zm-156.297.498c1.549-1.493,3.762-3.594,5.033-4.811v4.699l-5.033.113h0Zm194.362.302l-5.365-.11v-4.947c1.357,1.324,3.816,3.593,5.365,5.057h0Zm-15.814-.302l-5.057-.113v-4.642c1.271,1.244,3.51,3.288,5.057,4.755h0Zm-171.664-.139v-4.589c1.188,1.218,3.122,3.152,4.45,4.506l-4.45.083h0Zm180.29.305l-4.506-.113c1.324-1.354,3.288-3.484,4.506-4.698v4.811h0Zm-15.535-.332l-4.343-.083c1.301-1.327,3.182-3.235,4.343-4.396v4.479h0Zm38.035.8l-5.445-.11v-5.143c1.38,1.327,3.896,3.759,5.445,5.252h0Zm-225.43-.358c1.546-1.493,3.842-3.65,5.113-4.894v4.811l-5.113.083h0Zm218.16.219l-4.755-.11c1.327-1.354,3.484-3.62,4.755-4.921v5.03h0Zm-211.195-.329v-4.672c1.188,1.188,3.125,3.205,4.453,4.559l-4.453.113h0Zm-22.115.412c1.549-1.49,3.789-3.62,5.087-4.864v4.755l-4.393.11h-.693Zm255.783.361l-5.445-.113v-5.001c1.41,1.298,3.925,3.647,5.445,5.113h0Zm-248.872-.498v-4.616c1.188,1.188,3.152,3.179,4.479,4.533l-4.479.083h0Zm241.602.358l-4.781-.083c1.298-1.327,3.481-3.511,4.781-4.808v4.891h0Zm22.722.415l-5.528-.083v-5.196c1.41,1.354,4.008,3.842,5.528,5.279h0Zm-7.353-.11l-4.808-.113c1.298-1.324,3.51-3.647,4.808-4.974v5.087h0Zm-279.169-.222c1.576-1.493,3.786-3.62,5.06-4.838v4.728l-5.06.11h0Zm6.911-.139v-4.615c1.161,1.218,3.096,3.179,4.423,4.533l-4.423.083h0Zm294.648.776l-5.445-.113v-5.113c1.384,1.327,3.899,3.733,5.445,5.226h0Zm-317.095-.361c1.549-1.464,3.842-3.594,5.143-4.835v4.752l-5.143.083h0Zm309.798.222l-4.781-.11c1.298-1.301,3.511-3.567,4.781-4.894v5.004h0Zm22.918.415l-5.667-.11v-5.279c1.464,1.38,4.145,3.952,5.667,5.389h0Zm-325.748-.747v-4.642c1.188,1.215,3.122,3.205,4.45,4.533l-4.45.11h0Zm318.256.607l-4.811-.083c1.271-1.463,3.511-3.73,4.811-5.084v5.167h0Zm-340.288-.193c1.573-1.493,3.869-3.733,5.17-4.974v4.865l-5.17.109h0Zm7.021-.139v-4.755c1.188,1.218,3.179,3.318,4.506,4.672l-4.506.083h0Zm355.88.664l-5.614-.083v-5.252c1.44,1.384,4.091,3.872,5.614,5.335h0Zm-7.466-.083l-4.974-.053c1.271-1.301,3.62-3.733,4.974-5.116v5.169h0Zm22.586.249l-5.584-.053v-5.252c1.437,1.354,4.035,3.842,5.584,5.306h0Zm-393.198-.415c1.576-1.49,3.816-3.647,5.113-4.864v4.781l-5.113.083h0Zm385.789.332l-4.947-.053c1.298-1.301,3.594-3.706,4.947-5.087v5.14h0Zm-378.851-.442v-4.672c1.215,1.218,3.205,3.235,4.533,4.562l-4.533.109h0Zm400.026.69l-4.95-.053v-5.17c1.274,1.327,3.567,3.73,4.95,5.223h0Zm-6.609-.083l-4.42-.053c1.161-1.301,3.232-3.65,4.42-4.977v5.03h0Zm-415.698-.193c1.549-1.493,3.816-3.62,5.087-4.838v4.728l-5.087.11h0Zm6.938-.139v-4.615c1.188,1.188,3.152,3.205,4.453,4.533l-4.453.083h0Zm-21.976.444c1.549-1.493,3.869-3.65,5.14-4.894v4.781l-5.14.113h0Zm6.995-.139v-4.672c1.188,1.218,3.122,3.235,4.45,4.562l-4.45.11h0Zm-21.203.388c1.38-1.466,3.315-3.733,4.559-4.977v4.894l-4.559.083h0Zm6.301-.113v-4.781c1.161,1.244,3.069,3.345,4.313,4.698l-4.313.083h0Z"/><polyline class="cls-9" points="-62.362 547.838 135.618 539.049 135.701 535.565 -62.362 544.355 -62.362 547.838"/><polygon class="cls-7" points="-62.362 547.838 135.618 539.049 135.701 535.565 -62.362 544.355 -62.362 547.838"/><line class="cls-4" x1="-62.362" y1="544.355" x2="135.701" y2="535.565"/><polyline class="cls-9" points="375.119 534.845 603.452 539.049 603.535 535.565 375.119 531.364 375.149 531.364 147.091 535.565 147.174 539.049 375.149 534.845 375.119 534.845"/><polygon class="cls-7" points="375.119 534.845 603.452 539.049 603.535 535.565 375.119 531.364 375.149 531.364 147.091 535.565 147.174 539.049 375.149 534.845 375.119 534.845"/><polyline class="cls-9" points="813.818 546.707 615.397 539.102 615.285 535.621 813.818 543.25 813.818 546.707"/><polygon class="cls-7" points="813.818 546.707 615.397 539.102 615.285 535.621 813.818 543.25 813.818 546.707"/><line class="cls-4" x1="813.818" y1="543.223" x2="615.285" y2="535.621"/><polyline class="cls-4" points="603.535 535.565 375.119 531.364 375.149 531.364 147.091 535.565"/><path class="cls-8" d="m9.26,344.5c0-15.519,11.968-16.225,11.968-16.225,0,0,.176-9.577,9.548-7.31,0,0,6.221-14.561,20.645-11.853,14.424,2.708,14.5,17.496,14.5,17.496,0,0,17.081-3.829,20.508,13.357,0,0,7.155-1.713,7.155,4.535H9.26Z"/><path class="cls-8" d="m588.046,287.141c0-15.519,11.968-16.225,11.968-16.225,0,0,.176-9.577,9.548-7.31,0,0,6.221-14.561,20.645-11.853,14.424,2.708,14.5,17.496,14.5,17.496,0,0,17.081-3.829,20.508,13.357,0,0,7.155-1.713,7.155,4.535h-84.324Z"/><path class="cls-8" d="m143.886,259.868c-1.276-9.604-17.783-8.407-17.783-8.407,0,0-5.373-16.503-24.088-9.7,0,0-1.414-17.285-19.319-19.333-17.905-2.048-24.169,13.836-24.169,13.836,0,0-16.262-2.923-17.137,11.64,0,0-18.592-.323-19.885,11.963h122.381Z"/><g class="cls-6"><path class="cls-7" d="m54.457,440.487c-.294-1.117-3.125-6.573-8.365-5.993-4.177.462-7.057,4.014-7.708,7.627-.651-3.613-3.53-7.165-7.708-7.627-5.24-.579-8.071,4.876-8.365,5.993-.217.823.248.899.623.393.375-.506,3.596-3.476,7.293-3.067,3.685.407,6.629,2.628,8.157,7.302,1.528-4.674,4.472-6.895,8.157-7.302,3.696-.409,6.918,2.561,7.292,3.067.375.506.839.43.623-.393Z"/><path class="cls-7" d="m22.312,440.487c-.217.823.248.899.623.393.18-.242,1.019-1.052,2.248-1.784l-1.26-1.42c-.947,1.189-1.491,2.357-1.61,2.811Z"/><path class="cls-7" d="m52.846,437.676l-1.26,1.42c1.228.732,2.068,1.541,2.247,1.784.375.506.839.43.623-.393-.119-.453-.664-1.622-1.61-2.811Z"/></g><g class="cls-6"><path class="cls-7" d="m656.964,383.753c-.294-1.117-3.125-6.573-8.365-5.993-4.177.462-7.057,4.014-7.708,7.627-.651-3.613-3.53-7.165-7.708-7.627-5.24-.579-8.071,4.876-8.365,5.993-.217.823.248.899.623.393.375-.506,3.596-3.476,7.293-3.067,3.685.407,6.629,2.628,8.157,7.302,1.528-4.674,4.472-6.895,8.157-7.302,3.696-.409,6.918,2.561,7.292,3.067.375.506.839.43.623-.393Z"/><path class="cls-7" d="m624.819,383.753c-.217.823.248.899.623.393.18-.242,1.019-1.052,2.248-1.784l-1.26-1.42c-.947,1.189-1.491,2.357-1.61,2.811Z"/><path class="cls-7" d="m655.353,380.943l-1.26,1.42c1.228.732,2.068,1.541,2.247,1.784.375.506.839.43.623-.393-.119-.453-.664-1.622-1.61-2.811Z"/></g><g class="cls-6"><path class="cls-7" d="m728.445,411.746c-.294-1.117-3.125-6.573-8.365-5.993-4.177.462-7.057,4.014-7.708,7.627-.651-3.613-3.53-7.165-7.708-7.627-5.24-.579-8.071,4.876-8.365,5.993-.217.823.248.899.623.393.375-.506,3.596-3.476,7.293-3.067,3.685.407,6.629,2.628,8.157,7.302,1.528-4.674,4.472-6.895,8.157-7.302,3.696-.409,6.918,2.561,7.292,3.067.375.506.839.43.623-.393Z"/><path class="cls-7" d="m696.3,411.746c-.217.823.248.899.623.393.18-.242,1.019-1.052,2.248-1.784l-1.26-1.42c-.947,1.189-1.491,2.357-1.61,2.811Z"/><path class="cls-7" d="m726.835,408.936l-1.26,1.42c1.228.732,2.068,1.541,2.247,1.784.375.506.839.43.623-.393-.119-.453-.664-1.622-1.61-2.811Z"/></g></g></g></svg>