<?xml version="1.0" encoding="UTF-8"?><svg id="_レイヤー_2" xmlns="http://www.w3.org/2000/svg" viewBox="0 0 116.21 116.21"><defs><style>.cls-1{fill:#fff;}.cls-2{fill:#fbcd5b;}.cls-3{fill:#64aee5;}.cls-4{fill:#14509f;}</style></defs><g id="_メニュー"><circle class="cls-4" cx="58.11" cy="58.11" r="58.11"/><path class="cls-1" d="m34.36,23.1l.13,68.53s36.78-.45,41.47-.26c7.25.3,9.21-1.75,9.21-1.75,0,0-.32-.79-.57-4.89-.91-14.99-.31-61.64-.31-61.64h-49.94Z"/><path class="cls-3" d="m42.92,33.41c-.39,0-.7.32-.7.74l.05,7.31c0,.41.32.75.71.75l34.59.51c.37,0,.67-.32.66-.73l-.08-7.12c0-.4-.31-.73-.67-.74l-34.56-.72Z"/><path class="cls-3" d="m43.02,50.41c-.39,0-.7.33-.7.75l.05,7.33c0,.42.32.75.71.75l34.63.07c.37,0,.67-.33.66-.74l-.08-7.15c0-.4-.31-.73-.68-.74l-34.6-.28Z"/><path class="cls-3" d="m43.06,67.8c-.39,0-.7.34-.7.76l.05,7.36c0,.42.32.75.71.75l34.73-.12c.37,0,.67-.34.66-.75l-.08-7.17c0-.41-.31-.73-.68-.73l-34.69-.09Z"/><path class="cls-2" d="m40.01,49.53c-.55,0-1.04-.23-1.43-.67-1.43-1.58-1.21-6.12-1.11-7.47.05-.62.58-1.1,1.19-1.08.61.03,1.07.56,1.02,1.18h0s-.1,1.36-.04,2.82c.08,2,.4,2.71.53,2.93.32-.13,1.34-.69,3.68-3.26,1.55-1.7,2.86-3.39,2.88-3.4.39-.5,1.09-.6,1.57-.22.48.38.56,1.09.17,1.59-.06.07-1.44,1.85-3.1,3.65-3.19,3.48-4.51,3.94-5.37,3.93h0Z"/><path class="cls-2" d="m39.71,65.08c-.55,0-1.04-.24-1.43-.67-1.43-1.59-1.21-6.13-1.1-7.48.05-.62.58-1.1,1.19-1.07.61.03,1.07.56,1.02,1.19h0s-.1,1.36-.04,2.82c.08,2,.4,2.71.53,2.93.32-.12,1.34-.69,3.68-3.24,1.55-1.69,2.86-3.37,2.88-3.39.39-.5,1.09-.59,1.57-.21.48.38.56,1.09.17,1.59-.06.07-1.44,1.84-3.1,3.64-3.19,3.46-4.51,3.92-5.37,3.9h0Z"/><path class="cls-2" d="m39.26,81.64c-.55-.01-1.04-.25-1.43-.68-1.43-1.6-1.21-6.13-1.1-7.48.05-.62.58-1.1,1.19-1.06.61.04,1.07.57,1.02,1.19h0s-.1,1.36-.04,2.82c.08,2,.4,2.71.53,2.93.32-.12,1.34-.68,3.68-3.22,1.55-1.68,2.86-3.35,2.87-3.37.39-.49,1.09-.58,1.57-.2.48.38.56,1.1.17,1.59-.06.07-1.44,1.83-3.1,3.62-3.19,3.44-4.5,3.89-5.37,3.87h0Z"/></g></svg>