<?xml version="1.0" encoding="UTF-8"?><svg id="_レイヤー_2" xmlns="http://www.w3.org/2000/svg" viewBox="0 0 116.21 116.21"><defs><style>.cls-1{fill:#fff;}.cls-2{fill:#64aee5;}.cls-3{fill:#14509f;}</style></defs><g id="_メニュー"><circle class="cls-3" cx="58.11" cy="58.11" r="58.11"/><path class="cls-2" d="m66.13,80.31c-.46,1.81.76,3.68,2.7,4.17l1.24.31c1.94.49,3.9-.58,4.35-2.39l4.91-19.41c.46-1.81-.75-3.68-2.7-4.17l-1.24-.31c-1.95-.49-3.9.58-4.35,2.39l-4.92,19.41Z"/><path class="cls-2" d="m79.8,47.68c5.77,0,10.45,4.68,10.45,10.45,0,5.77-4.68,10.45-10.45,10.45v-20.89Z"/><path class="cls-1" d="m36.21,31.84c18.35,9.96,25.91,15.49,32.17,15.63,2.23.05,11.61.18,11.61.18v20.89s-10.76-.12-12.59-.19c-5.97-.21-13.24,5.91-31.19,16.02V31.84Z"/><path class="cls-2" d="m32.75,84.78c0,.94.76,1.69,1.69,1.69h.2c.94,0,1.69-.76,1.69-1.7V31.54c0-.94-.76-1.69-1.7-1.69h-.2c-.93,0-1.69.76-1.69,1.69v53.23Z"/></g></svg>