<svg xmlns="http://www.w3.org/2000/svg" viewBox="0 0 160.3 79"><path d="M80.7 73.9c-11 0-29.1-2.3-43.4-7.3L36 70.4C48.1 75.5 66.8 79 80.8 79c13.9 0 32.6-3.5 44.8-8.6l-1.3-3.8c-14.3 5-32.4 7.3-43.4 7.3Z" style="fill:#64aae1"/><path d="M135.8.6h-13.6l-4 22.7c-16-1.3-32.1-1.4-36.6-1.4l2.1-12.1h22.4l1.6-9.2H74.8L71 22c-12.8.3-35.3 1.2-50.2 4.2v8c5.1-1.1 11.2-2 17.6-2.6l-1.8 10.5c-3 1.4-6.3 2-9.7 2-10.4 0-16.1-6.5-16.1-16.6S18.2 9.2 27.7 9.2s9.5 2.1 12 4.6l7.4-7.1C42.8 2.7 37.8 0 27.9 0 13.1 0 0 10.7 0 27.7s9.9 25.8 26.7 25.8 14.6-2.7 18.5-5.4l3-17.2c7.9-.5 15.5-.8 21.4-.9l-4 22.8h10.5l4.1-23h.5c2.6 0 19.3 0 36.1 1.4L113 52.8h17.8c17.2 0 29.5-10.4 29.5-28.1S151.2.6 135.8.6Zm-4.8 43h-5.9l2-11.4c4.8.6 9.4 1.3 13.3 2.1v-8c-3.6-.7-7.7-1.4-12-1.9L131 9.9h3.4c10.3 0 14.9 5.7 14.9 14.4s-6 19.3-18.4 19.3Z" style="fill:#fff"/></svg>