<?xml version="1.0" encoding="UTF-8"?>
<svg xmlns="http://www.w3.org/2000/svg" xmlns:xlink="http://www.w3.org/1999/xlink" width="250px" height="250px" viewBox="0 0 250 250" version="1.1">
<g id="surface1">
<path style=" stroke:none;fill-rule:nonzero;fill:rgb(39.215686%,66.666667%,88.235294%);fill-opacity:1;" d="M 125.546875 160.96875 C 114.023438 160.96875 95.140625 158.597656 80.160156 153.347656 L 78.757812 157.335938 C 91.445312 162.621094 110.96875 166.296875 125.546875 166.296875 C 140.121094 166.296875 159.644531 162.621094 172.335938 157.335938 L 170.933594 153.347656 C 155.953125 158.597656 137.066406 160.96875 125.546875 160.96875 Z M 125.546875 160.96875 "/>
<path style=" stroke:none;fill-rule:nonzero;fill:rgb(7.843137%,31.372549%,62.352941%);fill-opacity:1;" d="M 183.210938 84.34375 L 168.949219 84.34375 L 164.761719 108.113281 C 148.023438 106.761719 131.210938 106.621094 126.496094 106.605469 L 128.726562 93.96875 L 152.121094 93.96875 L 153.800781 84.34375 L 119.433594 84.34375 L 115.492188 106.71875 C 102.058594 106.996094 78.574219 107.9375 63.03125 111.132812 L 63.03125 119.535156 C 68.34375 118.367188 74.765625 117.496094 81.449219 116.835938 L 79.527344 127.816406 C 76.402344 129.261719 72.957031 129.902344 69.351562 129.902344 C 58.457031 129.902344 52.53125 123.085938 52.53125 112.578125 C 52.53125 100.707031 60.21875 93.488281 70.152344 93.488281 C 76.402344 93.488281 80.085938 95.734375 82.730469 98.300781 L 90.421875 90.839844 C 86.015625 86.507812 80.726562 83.703125 70.394531 83.703125 C 54.933594 83.703125 41.234375 94.933594 41.234375 112.65625 C 41.234375 128.539062 51.566406 139.609375 69.191406 139.609375 C 77.84375 139.609375 84.414062 136.800781 88.5 133.992188 L 91.617188 116 C 99.855469 115.445312 107.839844 115.15625 114.03125 115.011719 L 109.824219 138.886719 L 120.796875 138.886719 L 125.039062 114.859375 C 125.242188 114.859375 125.414062 114.859375 125.542969 114.859375 C 128.238281 114.859375 145.765625 114.910156 163.320312 116.28125 L 159.339844 138.886719 L 177.921875 138.886719 C 195.945312 138.886719 208.765625 127.976562 208.765625 109.53125 C 208.765625 94.289062 199.3125 84.34375 183.210938 84.34375 Z M 178.164062 129.261719 L 171.996094 129.261719 L 174.109375 117.316406 C 179.160156 117.90625 183.945312 118.632812 188.058594 119.535156 L 188.058594 111.132812 C 184.273438 110.355469 180.015625 109.714844 175.550781 109.179688 L 178.246094 93.96875 L 181.847656 93.96875 C 192.582031 93.96875 197.390625 99.90625 197.390625 109.046875 C 197.390625 120.597656 191.140625 129.261719 178.164062 129.261719 Z M 178.164062 129.261719 "/>
</g>
</svg>
