<?xml version="1.0" encoding="UTF-8"?><svg id="_レイヤー_2" xmlns="http://www.w3.org/2000/svg" viewBox="0 0 659.07737 115.19982"><defs><style>.cls-1{fill:none;stroke:#fff;stroke-linecap:round;stroke-linejoin:round;stroke-width:1.7px;}</style></defs><g id="_レイヤー_1-2"><line class="cls-1" x1=".85" y1="113.34976" x2="346.34378" y2="113.34976"/><path class="cls-1" d="m658.22737,77.65446l-69.43456-37.72662-.05428-3.5675c-.0135-.8872-.70854-1.59488-1.55208-1.58076-.82625.0142-1.4889.71826-1.503,1.58076l-.05403,3.56873-77.17456,41.93078c-4.02589-.01411-3.31382-.02382-7.38921-.02382s-3.36349.0097-7.38938.02382l-77.17506-41.93148-.05403-3.56802c-.01342-.8872-.70855-1.59488-1.55192-1.58076-.82667.0142-1.48932.71826-1.50316,1.58076l-.05428,3.56802-77.53408,42.12732"/><path class="cls-1" d="m658.22737,85.12944c-.90244-.03626-1.85806-.07419-2.87536-.11398l-66.4779-39.75217-.0813-5.33545"/><path class="cls-1" d="m596.94887,114.34982v-2.413h-7.10663c.00604-.07004.04062-.12941.04187-.20078.00025-.02629.00025-.06449,0-.08989l-.30456-20.01547c30.84959.72814,55.7716,1.61375,68.64782,2.109"/><path class="cls-1" d="m607.85922,83.44731c-5.22793-.14168-12.71496-.33575-18.41149-.46914l-.357-23.46987"/><path class="cls-1" d="m622.12191,83.86132c-3.7647-.11345-10.16045-.30126-14.26269-.414l-18.76848-23.93901-.07341-4.81815"/><path class="cls-1" d="m638.24669,84.38683c-4.09863-.13841-11.40016-.38066-16.12478-.52551l-33.10458-29.17116-.07332-4.83156"/><path class="cls-1" d="m655.35201,85.01546c-3.95684-.1512-11.87915-.44805-17.10532-.62863l-49.30268-34.52822-.0699-4.59531"/><path class="cls-1" d="m585.62942,39.92907l-.08164,5.3351-61.3488,36.68425c-4.11029-.03211-11.56285-.06996-15.74412-.08857"/><path class="cls-1" d="m585.54778,45.26417l-.06964,4.59575-46.03031,32.23687c-4.01993-.0472-11.13949-.11336-15.24885-.14838"/><path class="cls-1" d="m585.47815,49.85993l-.07366,4.83138-31.32581,27.60178c-3.9148-.05972-10.60772-.14644-14.63084-.19628"/><path class="cls-1" d="m585.40448,54.69131l-.07323,4.81929-18.03688,23.00541c-3.56921-.06546-9.53388-.1647-13.21569-.22292"/><path class="cls-1" d="m585.33125,59.5106l-.35567,23.36586c-5.09243-.11406-12.28758-.25901-17.68122-.36045"/><path class="cls-1" d="m424.65752,114.34982v-2.413h-7.10663c.00579-.07004.04078-.12941.04187-.20078.00042-.02629,0-.06449,0-.08989l-.30632-20.12415c26.71698-.60446,52.71208-1.07537,83.77922-1.07537s57.0614.47117,83.77829,1.07537l-.30607,20.12415c-.00168.10242.04237.19046.05126.29068h-7.11602v2.413"/><path class="cls-1" d="m434.83693,82.51601c-5.39372.10145-12.58946.24613-17.68222.36019l-.35557-23.36683"/><path class="cls-1" d="m448.05295,82.29308c-3.68197.05822-9.64681.15747-13.21603.22292l-18.03779-23.00664-.07299-4.81868"/><path class="cls-1" d="m462.68371,82.0968c-4.02345.04984-10.71646.13656-14.63076.19628l-31.32681-27.60239-.07366-4.83138"/><path class="cls-1" d="m477.93248,81.94842c-4.10962.03502-11.22892.10118-15.24877.14838l-46.03124-32.23749-.06989-4.59575"/><path class="cls-1" d="m493.67627,81.85985c-4.18177.01861-11.63349.05646-15.74378.08857l-61.3499-36.68486-.08138-5.33519"/><path class="cls-1" d="m413.25651,45.26356l-.06997,4.59575-49.30168,34.52752c-5.22625.18058-13.14849.47743-17.10566.62863"/><path class="cls-1" d="m413.18654,49.85931l-.07366,4.83138-33.10626,29.17063c-4.72403.14485-12.02406.3871-16.12176.52551"/><path class="cls-1" d="m413.11288,54.69069l-.07299,4.81868-18.76764,23.93795c-4.10308.11274-10.49992.30056-14.26562.414"/><path class="cls-1" d="m413.03988,59.50937l-.35716,23.46881c-5.69601.13338-13.18272.32746-18.41047.46914"/><path class="cls-1" d="m335.80374,94.06264c6.73328-.28053,36.75862-1.48796,76.74709-2.43197l-.30431,20.01547c-.00151.10242.04245.19046.05101.29068h-7.11578v2.413"/><path class="cls-1" d="m589.49665,87.33857c20.09604.47055,64.21821,1.97033,68.73072,2.15144"/><path class="cls-1" d="m417.20353,87.23438c26.24277-.58779,52.00219-1.03999,83.86211-1.03999s57.61867.4522,83.86102,1.03973"/><path class="cls-1" d="m335.80374,89.82867c3.34151-.14688,12.45412-.53424,25.86446-1.00488l.08365.13233.20346-.14221c13.23591-.46358,30.58262-1.00479,50.67824-1.47534"/><path class="cls-1" d="m413.33782,39.92837l-.08131,5.33519-66.47731,39.7519c-5.29983.20757-9.02519.36681-10.97546.4522"/><line class="cls-1" x1="584.97558" y1="82.87646" x2="584.84394" y2="91.52199"/><line class="cls-1" x1="589.44774" y1="82.97818" x2="589.57954" y2="91.63068"/><line class="cls-1" x1="417.1547" y1="82.8762" x2="417.28643" y2="91.52199"/><line class="cls-1" x1="412.55083" y1="91.63068" x2="412.68272" y2="82.97818"/><polyline class="cls-1" points="132.77863 113.34976 123.6656 54.82607 123.6656 .85 113.42634 .85 113.42634 6.91885 103.56941 6.91885 103.56941 .85 93.33039 .85 93.33039 54.82607 84.21711 113.34976"/><polyline class="cls-1" points="101.24852 113.34976 101.24852 102.59672 115.74723 102.59672 115.74723 113.34976"/><line class="cls-1" x1="112.06645" y1="15.3063" x2="104.92929" y2="15.3063"/><line class="cls-1" x1="112.06645" y1="23.05768" x2="104.92929" y2="23.05768"/><line class="cls-1" x1="112.06645" y1="30.80906" x2="104.92929" y2="30.80906"/><line class="cls-1" x1="112.06645" y1="38.56044" x2="104.92929" y2="38.56044"/><line class="cls-1" x1="112.06645" y1="46.31182" x2="104.92929" y2="46.31182"/><line class="cls-1" x1="112.06645" y1="54.0632" x2="104.92929" y2="54.0632"/><line class="cls-1" x1="112.06645" y1="61.81458" x2="104.92929" y2="61.81458"/><line class="cls-1" x1="112.06645" y1="69.56596" x2="104.92929" y2="69.56596"/><line class="cls-1" x1="112.06645" y1="77.31734" x2="104.92929" y2="77.31734"/><line class="cls-1" x1="112.06645" y1="85.06872" x2="104.92929" y2="85.06872"/><line class="cls-1" x1="112.06645" y1="92.8201" x2="104.92929" y2="92.8201"/><polyline class="cls-1" points="163.35163 113.34976 163.35163 52.53457 153.50642 52.53457 145.8288 44.85684 136.43513 44.85684 136.43513 113.34976"/><polyline class="cls-1" points="194.26832 113.34976 194.26832 62.21206 184.42298 62.21206 176.74549 54.53457 167.35194 54.53457 167.35194 113.34976"/><polyline class="cls-1" points="225.18501 113.34976 225.18501 71.88979 215.33979 71.88979 207.6623 64.2123 198.26851 64.2123 198.26851 113.34976"/><line class="cls-1" x1="136.43513" y1="104.47061" x2="163.35163" y2="104.47061"/><line class="cls-1" x1="136.43513" y1="93.81241" x2="163.35163" y2="93.81241"/><line class="cls-1" x1="136.43513" y1="83.15421" x2="163.35163" y2="83.15421"/><line class="cls-1" x1="136.43513" y1="72.49602" x2="163.35163" y2="72.49602"/><line class="cls-1" x1="136.43513" y1="61.83782" x2="163.35163" y2="61.83782"/><line class="cls-1" x1="167.35194" y1="104.47061" x2="194.26832" y2="104.47061"/><line class="cls-1" x1="198.26851" y1="104.47061" x2="225.18501" y2="104.47061"/><line class="cls-1" x1="167.35194" y1="93.81241" x2="194.26832" y2="93.81241"/><line class="cls-1" x1="198.26851" y1="93.81241" x2="225.18501" y2="93.81241"/><line class="cls-1" x1="167.35194" y1="83.15421" x2="194.26832" y2="83.15421"/><line class="cls-1" x1="198.26851" y1="83.15421" x2="225.18501" y2="83.15421"/><line class="cls-1" x1="167.35194" y1="72.49602" x2="194.26832" y2="72.49602"/><path class="cls-1" d="m288.27581,113.34976v-60.18301c26.19387,0,38.29725,22.60767,38.29725,35.61429v24.56873"/><line class="cls-1" x1="295.863" y1="77.91544" x2="295.863" y2="81.88968"/><line class="cls-1" x1="295.863" y1="88.84585" x2="295.863" y2="92.8201"/><line class="cls-1" x1="295.863" y1="99.77627" x2="295.863" y2="103.75051"/><line class="cls-1" x1="303.81149" y1="77.91544" x2="303.81149" y2="81.88968"/><line class="cls-1" x1="303.81149" y1="88.84585" x2="303.81149" y2="92.8201"/><line class="cls-1" x1="303.81149" y1="99.77627" x2="303.81149" y2="103.75051"/><line class="cls-1" x1="311.75997" y1="77.91544" x2="311.75997" y2="81.88968"/><line class="cls-1" x1="311.75997" y1="88.84585" x2="311.75997" y2="92.8201"/><line class="cls-1" x1="311.75997" y1="99.77627" x2="311.75997" y2="103.75051"/><line class="cls-1" x1="319.70846" y1="88.84585" x2="319.70846" y2="92.8201"/><line class="cls-1" x1="319.70846" y1="99.77627" x2="319.70846" y2="103.75051"/><line class="cls-1" x1="295.863" y1="71.05084" x2="311.75997" y2="71.05084"/><polyline class="cls-1" points="86.48236 98.80277 70.92007 98.80277 70.92007 105.79282 64.89362 105.79282 64.89362 81.33978 64.89362 80.49113 48.39044 80.49113"/><polyline class="cls-1" points="43.60758 81.33978 43.60758 98.80277 37.67684 98.80277 37.67684 52.08128 8.25701 57.26968 8.25701 113.34976"/><line class="cls-1" x1="37.67684" y1="98.80277" x2="37.67684" y2="103.51356"/><circle class="cls-1" cx="255.92008" cy="71.05084" r="24.88242"/><line class="cls-1" x1="236.95066" y1="71.05068" x2="274.88946" y2="71.05068"/><line class="cls-1" x1="239.49208" y1="80.53538" x2="272.34804" y2="61.56598"/><line class="cls-1" x1="246.43536" y1="87.47867" x2="265.40476" y2="54.6227"/><line class="cls-1" x1="255.92006" y1="90.02008" x2="255.92006" y2="52.08128"/><line class="cls-1" x1="265.40476" y1="87.47867" x2="246.43536" y2="54.6227"/><line class="cls-1" x1="272.34804" y1="80.53538" x2="239.49208" y2="61.56598"/><line class="cls-1" x1="266.47644" y1="113.34976" x2="260.90151" y2="95.93326"/><line class="cls-1" x1="245.36372" y1="113.34976" x2="250.93865" y2="95.93326"/></g></svg>