<svg viewBox="0 0 351.3 351.3" xmlns="http://www.w3.org/2000/svg" xmlns:xlink="http://www.w3.org/1999/xlink"><clipPath id="a"><path d="m0 0h351.3v351.3h-351.3z"/></clipPath><clipPath id="b"><path d="m0 0h351.3v351.27h-351.3z"/></clipPath><g clip-path="url(#a)"><g clip-path="url(#b)"><path d="m55.63 245.42c-3.69 10.17-5.18 24.9-3.76 43.09l89.12.25c0-15.07-1.24-30.4-2.57-40.84-4.61-36.09-68.05-43.18-82.79-2.51z" fill="#14509f"/><path d="m143.19 238.64s-20.64-7.85-44.46-5.29c-2.38.26-20.43-1.68-20.43-1.68s-5.5-92.98 36.15-88.49 30.67 37.25 30.67 37.25l-1.92 58.21z" fill="#476d89"/><path d="m174.93 158.12s32.38-11.2 47.08-16.02c1.16-3.71 11.6-4.85 24.18-8.83 1.43 4.97-8.16 6.42-9.23 8.08 3.73 1.94 20.34 5.45 21.67 5.94s1.45 2.74.75 3.33c.93.35 2.73 2.8.36 3.62-2.39.83-14.6-1.11-14.6-1.11s9.24 2.5 10.2 2.58 2.36 2.75-3.53 2.49c-.86-.04-7.09-1.11-9.48-1.4-5.24.49-14.92-1.22-17.33-4.55-.89.03-38.62 17.34-38.62 17.34l-11.44-11.49z" fill="#e5b187"/><path d="m140.9 46.84s9.2-1.23 12.43 7.95.93 14.75-.73 23.31c-2.12 10.98 1.13 15.41-1.48 25.39-5.68 21.69-38.17 19.23-45.5 6.99-9.84-16.42 7.18-51.93 11.53-55.92 10.2-9.36 23.75-7.72 23.75-7.72z" fill="#3b3b3b"/><path d="m60.39 122.18s16.84-15.45 34.34-19.67c17.51-4.22 43.76 7.61 43.76 7.61s2.07 7.32 8.61 57.01c-5.71 14.48-12.05 27.32-12.74 40.46-1.03 19.42 3.74 35.84 4.09 40.33 0 0-32.85 12.1-80.87-7.18 41.43-76.84 2.81-118.56 2.81-118.56z" fill="#fff"/><path d="m204.63 147.87c-14.92 4.65-29.31 10.32-32.93 10.96-6.57-1.81-20.64-38.89-26.09-43.74-5.45-4.86-12.29-9.21-25.04-11.08 1.28 2.58 24.37 30.43 21.37 69.16-3.25 42.11-.62 50.6-.43 64.02.07 4.57 1.34 7.62 1.34 7.62s4.21.17 4.16-4.21c-.1-8.6-.93-13.44-.43-20.57 1.88-26.99 1.26-21.1 2.53-40.98.32-5 .56-7.05.51-8.56 7.2 10.12 10.32 11.95 17.53 10.62 12.9-2.38 42.55-21.67 42.55-21.67s-1.58-7.29-5.07-11.56z" fill="#14509f"/><path d="m96.04 227.15c8.05-21.95 7.63-37.7 4.49-56.09-2.77-16.21-17.04-40.23-16.98-64.56-5.01 1.9-10.02 3.85-19.03 8.68-11.93 6.95 4.03 42.93 7.2 63.26.27 1.41 2.07 11.54-.87 24.5-2.34 10.29-11.32 34.13-11.32 34.13s30.77 5.75 36.51-9.91z" fill="#14509f"/><path d="m102.09 77.01s-5.43 19.24-11.72 26.76c-.36 6.27 4.8 31.87 24.06 30.55 12.99-.89 9.24-19.13 2.7-29.09.04-7.33 1.2-13.53 2.16-17.56 1.57-6.59-5.27-8.2-5.27-8.2l-11.94-2.46z" fill="#f0bda5"/><path d="m72.68 216.24c-3.8-9.59-.94-35.01-.94-35.01 4.66 7.15 17.58 13.94 30.82 14.52-.97 16.6-4.88 31.39-9.63 36.17-.26-.04-15.06-2.59-20.25-15.69z" fill="#05427f"/><path d="m120.22 114.26s2.09-11.99 10.7-11.12c5.15.52-10.66-38.03-10.66-38.03l-9.32-4.24s-12.87 32.17-17.37 38.91 4.65 18.46 12.49 20.32c14.77 3.5 14.16-5.84 14.16-5.84z" fill="#e5b187"/><path d="m217.05 214.63-16.51-1.61-28.35-2.76.11-1.11c.66-6.74-4.3-12.76-11.04-13.42s-12.76 4.29-13.42 11.04l-.71 7.3c-.66 6.74 4.29 12.76 11.04 13.42 6.74.66 12.76-4.29 13.42-11.04l.11-1.11 28.35 2.76-.73 7.46 5.08.49.42-4.29 5.72.56-.59 6.04 5.71.56.9-9.21 2.22.22.5-5.08-2.22-.22zm-50.55 1.33c-.38 3.94-3.9 6.83-7.84 6.45s-6.84-3.9-6.45-7.84l.71-7.3c.38-3.94 3.9-6.84 7.84-6.45 3.94.38 6.83 3.9 6.45 7.84z" fill="#ffd200"/><path d="m94.45 199.41s24.48 1.88 39.28 3.16c.76-1.62 5.52-5.78 10.83-7.11 3.53-.89 7.89-2.36 11-4.26 3.59 2.4-1.6 7.61-8.83 10.09-.07.73 3.29 2.24 7 3.03 1.11-1.49 2.15-2.37 4.15-2.94 1.47.74 2.31.81 4.25 2.48 1.23 1.06 2.84 4.33-.81 4.93 1.66 2.23 1.18 4.6-1.65 5.24 2.07 1.24 1.16 5.3-4.28 5.04-3.43-.16-11.88 1.25-18.54-5.27-20.95 2.13-43.52 2.51-43.52 2.51l1.11-16.89z" fill="#f0bda5"/><path d="m64.17 115.42c6.7-3.16 8.39 25.61 8.39 25.61s3.95 46.41 9.86 56.27c17.98 2.75 31.09 3.5 36.33 3.95-1.25 10.67-1.55 15.19-1.55 15.19s-30.63 2.97-43.52-1.24c-19.01-6.21-20.45-38.01-23.99-65.52-3.05-23.74 9.62-31.97 14.49-34.27z" fill="#14509f"/><path d="m105.07 48.49c14.27-15.97 42.99-7.21 43.23 6.39-.32 1.76-3.69 4.75-9.45 8.49-3.77 2.45-4 2.64-6.52 5.22-3.53 3.62-4.42 3.36-12.17 6.66-11.73 5-5.62 32.66-3.72 39.64-15.41 1.51-32.23-6.9-34.44-18.11-.93-4.71-1.14-7.53 1.66-15.14 3.91-10.65 12.11-22.74 21.4-33.14z" fill="#3b3b3b"/><path d="m118.95 79.07s-3.83-3.78-2-8.68c1.06-2.84 8-4.52 8.48 3.3 7.1 1.42 18.21-5.2 22.45-14.22 3.08 4.79 1.08 10.49.69 15.79-.43 5.8 1.06 11.11 1.24 11.72.31 1.07-.12 2.11-1.84 2.35-1.29.18-2.28.04-2.28.04s-6.68 11.79-8.01 14.17c-.83 1.48-2.23 1.43-3.65.95-3.7-1.23-8.16-2.81-10.66-6.28-.53-.74-2.07-2.39-3.17-5.58-1.54-4.49-1.25-13.57-1.25-13.57z" fill="#f0bda5"/><path d="m213.9 279.25s21.92-78.46 22.49-80.99c.58-2.54 3.02-4.68 6.87-4.41 4.43.3 78.55-.16 80.47.22 1.91.38 3.14 2.25 2.56 4.11s-23.61 82.35-23.61 82.35z" fill="#213b53"/><path d="m159.93 279.65 54-.42 88.75 1.29s-1.1 7.5-6.29 7.95c-8.94.1-128.5-.14-131.72 0-4.23.18-4.73-8.82-4.73-8.82z" fill="#213b53"/><path d="m242.79 200.57 75.24-1.11-23.32 80.76-73.79-.2z" fill="#d6e5ef"/><g fill="#fff"><path d="m248.02 222.39c-.62.02-1.24.41-1.38.89l-.29 1.02c-.14.47.26.85.88.83l53.46-.49c.69-.02 1.36-.43 1.5-.93l.3-1.07c.14-.5-.31-.89-1-.87l-53.47.63z"/><path d="m262.15 207.95c-.65.02-1.29.43-1.42.92l-1.07 4.02c-.14.48.28.86.93.84l43.23-.28c.69-.02 1.36-.44 1.5-.94l1.11-4.34c.14-.5-.31-.88-1-.86l-43.27.63z"/><path d="m299.02 229.55c.83-.02 1.36.46 1.19 1.07l-3.01 10.76c-.17.61-.98 1.11-1.81 1.12l-53.18-.59c-.77 0-1.26-.46-1.09-1.05l2.96-10.36c.17-.59.93-1.07 1.7-1.09l53.24.13z"/><path d="m294.8 245.13c.83 0 1.36.48 1.19 1.09l-3.02 10.8c-.17.61-.98 1.11-1.81 1.11l-53.51-.64c-.77 0-1.25-.48-1.08-1.07l2.97-10.39c.17-.59.93-1.07 1.7-1.08l53.57.17z"/><path d="m290.18 261.14c.83 0 1.36.5 1.19 1.11l-3.03 10.83c-.17.61-.98 1.11-1.81 1.1l-53.8-.93c-.77 0-1.25-.49-1.08-1.08l2.98-10.43c.17-.59.93-1.07 1.69-1.07z"/></g><path d="m258.7 139.2c-.46.74-8.14 12.9-40.61 14.61-1.87.1-2.11 1.73-2.15 2.54-1.99 43.18 18.93 81.77 45.47 87.36 0 0 .78.16 1.28.16s1.25-.19 1.25-.19c27.15-5.99 47.32-46.9 42.94-90.98-34.18-.26-43.68-13.08-44.16-13.61-.92-1.01-3.31-1.04-4.03.11z" fill="#14509f"/><path d="m252.99 182.68-.09-6.57c-.06-4.69 3.71-8.55 8.39-8.61 4.69-.06 8.56 3.7 8.62 8.39l.05 4.16 4.31-.06-.05-4.16c-.09-7.07-5.92-12.75-12.99-12.66s-12.74 5.92-12.65 12.99l.09 6.57-2.91.04.31 23.32 31.68-.42-.31-23.32-24.45.32zm11.65 18.86-5.57.07.86-6.97c-1.3-.67-2.23-1.97-2.25-3.53-.03-2.24 1.76-4.08 4-4.11s4.08 1.76 4.11 4c.02 1.58-.89 2.92-2.2 3.61z" fill="#ffd200"/><path d="m0 288.48h351.3v126.64h-351.3z" fill="#fff"/></g></g></svg>