<?xml version="1.0" encoding="UTF-8"?><svg id="_レイヤー_2" xmlns="http://www.w3.org/2000/svg" viewBox="0 0 288.7641 120.03296"><defs><style>.cls-1{fill:#fff;}</style></defs><g id="_レイヤー_1-2"><path class="cls-1" d="m.47998,91.47314l6.80396-4.53589c2.52002,4.19995,6.63599,8.3999,13.27197,8.3999,6.46796,0,10.24792-3.44409,10.24792-8.48389,0-3.948-2.35199-5.88013-7.64395-9.32397l-3.35999-2.18408c-6.88797-4.4519-10.41595-8.90405-10.41595-15.95996,0-8.65186,6.46799-14.9519,16.79993-14.9519,7.22397,0,12.34793,3.69604,15.70792,8.82007l-6.46796,5.03979c-2.26801-3.52783-5.12396-6.38379-9.57596-6.38379-4.78799,0-7.89597,2.93994-7.89597,7.13989,0,3.61206,1.84799,5.7959,6.55197,8.73584l3.35999,2.18408c7.47598,4.70386,11.75995,8.73608,11.75995,16.46387,0,10.5-7.81198,16.5481-19.0679,16.5481-10.33197,0-17.30396-6.0481-20.07593-11.50806Z"/><path class="cls-1" d="m66.33539,96.09302c4.70398,0,7.64395-1.76392,9.82794-3.6958l4.95599,5.29199c-3.78,3.27588-8.31598,5.29199-14.86795,5.29199-11.33994,0-18.81592-7.30811-18.81592-17.72412,0-11.25586,8.90396-19.06787,19.48792-19.06787,11.92795,0,18.22794,8.98804,16.71591,21.16797h-27.71985c.50397,4.95605,4.11597,8.73584,10.41595,8.73584Zm9.32394-14.44775c-.08401-4.95605-3.108-8.73608-8.98795-8.73608-5.54401,0-9.32397,3.36011-10.49997,8.73608h19.48792Z"/><path class="cls-1" d="m90.7793,85.1731c0-11.00391,8.23199-18.98389,19.23593-18.98389,6.71997,0,11.33994,2.85596,14.11194,6.71997l-6.04797,4.78809c-1.76401-2.604-4.53598-4.19995-8.14798-4.19995-6.38397,0-10.58392,4.95581-10.58392,11.67578,0,6.13208,3.44397,10.58398,9.32394,10.58398,4.28397,0,6.63596-1.8479,8.06396-3.10791l4.87198,5.45996c-2.77197,2.68799-6.88797,4.87207-12.93594,4.87207-10.41595,0-17.89194-7.30811-17.89194-17.80811Z"/><path class="cls-1" d="m130.09088,86.93726l3.52795-19.99194h8.31598l-3.44397,19.57178c-1.008,5.71216,1.17596,9.07202,6.21594,9.07202,5.37598,0,8.48398-3.02393,9.65997-9.15601l3.44397-19.48779h8.31598l-4.62,26.45972c-.336,1.68018.08401,2.43604,1.51202,2.43604h2.85596l-1.09198,6.38403h-4.03198c-6.46796,0-7.72797-2.604-7.64398-5.62793v-.58813c-3.02399,4.62012-6.71997,6.97217-12.09595,6.97217-7.72797,0-12.59991-6.21606-10.91992-16.04395Z"/><path class="cls-1" d="m177.1308,66.94531h8.31598l-1.59601,7.22388c3.10797-5.71191,6.71997-7.896,10.91995-7.896,2.26797,0,3.61197.50415,4.95596,1.26001l-3.19196,7.56006c-1.17603-.7561-2.436-1.00806-4.03198-1.00806-5.29199,0-8.90399,3.10791-10.33197,11.08789l-2.94,17.052h-8.31595l6.21597-35.27979Z"/><path class="cls-1" d="m202.66586,93.23706l4.53598-26.29175h8.39996l-4.70398,26.45972c-.25201,1.68018.168,2.43604,1.59601,2.43604h2.93997l-1.09201,6.38403h-4.11597c-6.55197,0-8.81995-2.18408-7.55997-8.98804Zm5.71198-39.98364c0-3.19214,2.51999-5.37598,5.37598-5.37598,2.93997,0,5.54398,2.18384,5.54398,5.37598,0,3.27588-2.51999,5.45996-5.45996,5.45996-2.85602,0-5.45999-2.18408-5.45999-5.45996Z"/><path class="cls-1" d="m226.01746,90.12915l2.85596-16.21191h-5.20795l1.17596-6.97192h5.29199l2.18399-12.51611h8.23196l-2.18399,12.51611h9.07196l-1.25998,6.97192h-8.98798l-2.94,16.54785c-.75598,4.03198.42001,5.37598,2.68799,5.37598,2.01599,0,3.35999-.83984,4.36798-1.59595l2.94,5.7959c-1.84799,1.51196-4.19998,2.94019-8.73596,2.94019-6.13196,0-11.17194-3.19214-9.49194-12.85205Z"/><path class="cls-1" d="m261.80023,98.52905l-9.32397-31.58374h8.82001l4.70398,17.55591c.672,2.604,1.00793,6.63599,1.09198,7.05591.08398-.41992,1.34399-4.28394,2.77197-6.88794l10.07996-17.72388h8.81995l-30.65985,53.08765h-8.81995l12.51593-21.50391Z"/><path class="cls-1" d="m0,13.44116l1.94415-1.29614c.72009,1.2002,1.89618,2.40015,3.79236,2.40015,1.84814,0,2.92822-.98389,2.92822-2.42407,0-1.12817-.67206-1.68018-2.18417-2.66431l-.96008-.62402c-1.96817-1.27222-2.97626-2.54419-2.97626-4.56055C2.54422,1.80005,4.3924,0,7.34464,0c2.06418,0,3.52829,1.05615,4.48837,2.52026l-1.84814,1.43994c-.64807-1.00806-1.46411-1.82397-2.73624-1.82397-1.36813,0-2.2562.84009-2.2562,2.04004,0,1.03223.52805,1.65625,1.87216,2.49634l.96008.62402c2.1362,1.34399,3.36029,2.49609,3.36029,4.70435,0,3.00024-2.23221,4.72852-5.44846,4.72852-2.95227,0-4.94446-1.72827-5.73651-3.28833Z"/><path class="cls-1" d="m17.5202.19189h10.15286l-.38403,2.16016h-7.68066l-.86407,4.89648h6.79257l-.38403,2.13623h-6.79257l-.88809,4.96851h8.04071l-.40802,2.16016h-10.4649L17.5202.19189Z"/><path class="cls-1" d="m36.24048,10.41675h-3.16827l-1.05609,6.09668h-2.47223L32.42413.19189h4.77643c3.19226,0,5.40045,1.63232,5.42447,4.75244,0,2.66431-1.60812,4.46436-3.96036,5.1604l2.97626,6.40869h-2.6402l-2.76025-6.09668Zm.07202-2.06396c2.42419,0,3.76831-1.17627,3.76831-3.3125,0-1.72803-1.1521-2.71216-3.12027-2.71216h-2.44821l-1.05609,6.02466h2.85626Z"/><path class="cls-1" d="m47.15997.19189h2.52023l2.11218,8.56885c.28802,1.19995.52805,3.12012.55203,3.21631.02402-.09619.76807-1.92017,1.46414-3.09644L58.729.19189h2.56821l-9.52884,16.4895h-.31201L47.15997.19189Z"/><path class="cls-1" d="m65.15985.19189h2.47223l-2.88025,16.32153h-2.47223L65.15985.19189Z"/><path class="cls-1" d="m70.48755,8.76074c0-5.06445,3.96036-8.76074,8.68878-8.76074,2.97626,0,4.99243,1.12793,6.38452,3.26416l-1.99216,1.34424c-.91208-1.41626-2.28018-2.40015-4.46439-2.40015-3.48029,0-6.02454,2.88013-6.02454,6.55249,0,3.36035,2.23221,5.7605,5.25647,5.7605,2.2562,0,3.64832-.98413,4.68042-2.20825l1.82416,1.48828c-1.60815,1.96802-3.57632,2.92822-6.5766,2.92822-4.48837,0-7.77667-3.43237-7.77667-7.96875Z"/><path class="cls-1" d="m90.98358.19189h10.15286l-.38403,2.16016h-7.68066l-.86407,4.89648h6.79257l-.38403,2.13623h-6.79257l-.88809,4.96851h8.04071l-.40802,2.16016h-10.4649L90.98358.19189Z"/></g></svg>