<svg xmlns="http://www.w3.org/2000/svg" id="_レイヤー_2" viewBox="0 0 80.148 55.745"><defs><style>.cls-3{fill:#14509f}</style></defs><g id="_レイヤー_1-2"><path d="M40.074 54.245c-25.917 0-38.01-25.485-38.13-25.743l-.292-.63.292-.63C2.063 26.984 14.156 1.5 40.074 1.5s38.011 25.485 38.13 25.742l.292.63-.292.63c-.119.258-12.213 25.743-38.13 25.743Z" style="fill:#fff"/><path d="M40.074 3c25.258 0 36.769 24.873 36.769 24.873s-11.51 24.872-36.769 24.872S3.306 27.873 3.306 27.873 14.816 3 40.075 3m0-3C13.207 0 1.086 25.526.583 26.613L0 27.873l.583 1.26c.503 1.087 12.624 26.613 39.491 26.613S79.062 30.22 79.565 29.133l.583-1.26-.583-1.26C79.062 25.526 66.94 0 40.074 0Z" class="cls-3"/><circle cx="40.074" cy="27.873" r="17.424" class="cls-3"/><circle cx="34.789" cy="22.034" r="4.324" style="fill:#ffd200"/></g></svg>