<?xml version="1.0" encoding="UTF-8"?><svg id="_レイヤー_2" xmlns="http://www.w3.org/2000/svg" xmlns:xlink="http://www.w3.org/1999/xlink" viewBox="0 0 2091.847 612.186"><defs><style>.cls-1{opacity:.7;}.cls-1,.cls-2,.cls-3,.cls-4{fill:none;}.cls-5,.cls-6,.cls-7,.cls-8{fill:#fff;}.cls-5,.cls-7,.cls-2,.cls-3{stroke:#14509f;stroke-width:1.5px;}.cls-9{fill:#64aee5;}.cls-7,.cls-2{stroke-linejoin:bevel;}.cls-10{fill:url(#_名称未設定グラデーション_13);fill-rule:evenodd;}.cls-8,.cls-4{opacity:.2;}</style><linearGradient id="_名称未設定グラデーション_13" x1="1073.566" y1="525.62" x2="1073.566" y2="-115.374" gradientUnits="userSpaceOnUse"><stop offset="0" stop-color="#64aee5"/><stop offset=".809" stop-color="#0074c2"/></linearGradient></defs><g id="_レイヤー_1-2"><g class="cls-1"><path class="cls-10" d="m1636.224,388.786v-.819h-.897v-56.684h-7.919v-3.058h-2.486v-1.556h-.553v1.556h-4.973v-.771h-4.485l-3.09-.732h-1.502v.732h-1.652v.771h-6.944v-.349h-2.21v-3.247h-.635v3.247h-5.127v.349h-2.312v3.058h-1.793v-.426h-1.812v.426h-2.006v56.684h-1.115v24.072h-3.479v7.212h-3.174v-.795h-1.216v-1.289h1.216v-.998h-1.216v-1.289h1.216v-1.003h-1.216v-1.289h1.216v-.998h-1.216v-1.289h1.216v-1.003h-1.216v-1.289h1.216v-1.003h-1.216v-1.284h1.216v-1.003h-1.216v-1.289h1.216v-1.003h-1.216v-1.284h1.216v-1.003h-1.216v-1.289h1.216v-1.003h-1.216v-1.284h1.216v-1.003h-1.216v-1.289h1.216v-1.004h-1.216v-1.289h1.216v-.998h-1.216v-1.289h1.216v-1.003h-1.216v-1.289h1.216v-.999h-1.216v-1.289h1.216v-1.003h-1.216v-1.289h1.216v-1.003h-1.216v-1.284h1.216v-1.003h-1.216v-1.289h1.216v-1.003h-1.216v-.712h-4.096c-.291-2.643-2.522-4.725-5.239-4.725h-30.223c-2.717,0-4.949,2.082-5.239,4.725h-3.896v62.538h-12.238v-208.159h-2.249v-.739h-1.57v-.898h-2.017v.898h-.674v-2.871h-.538v3.611h-1.526v-.963h-1.076v-.448h-.417v.448h-1.826v-.808h-.311v.808h-.919c-.042-.613-.185-1.076-.37-1.076-.213,0-.389.629-.389,1.405,0,.67.133,1.204.306,1.344-.716.157-1.428.321-2.133.492v-1.807h-.625v1.526h-3.722v1.449c-58.435,17.117-78.249,84.435-77.156,155.657v23.491h-6.795v15.106h-6.436v-1.662h-2.521v-3.799h2.521v-2.007h-2.521v-3.8h2.521v-2.002h-2.521v-3.8h2.521v-2.006h-2.521v-3.8h2.521v-2.007h-2.521v-3.8h2.521v-2.006h-2.521v-3.8h2.521v-2.001h-2.521v-3.8h2.521v-2.006h-2.521v-3.8h2.521v-2.006h-2.521v-3.8h2.521v-2.007h-2.521v-3.799h2.521v-2.007h-2.521v-3.8h2.521v-2.001h-2.521v-3.799h2.521v-2.007h-2.521v-3.8h2.521v-2.006h-2.521v-3.8h2.521v-2.006h-2.521v-3.8h2.521v-2.001h-2.521v-3.8h2.521v-2.007h-2.521v-3.8h2.521v-2.006h-2.521v-2.084h2.521v-11.83h-53.907v11.83h2.52v2.084h-2.52v2.006h2.52v3.8h-2.52v2.007h2.52v3.8h-2.52v2.001h2.52v3.8h-2.52v2.006h2.52v3.8h-2.52v2.006h2.52v3.8h-2.52v2.007h2.52v3.799h-2.52v2.001h2.52v3.8h-2.52v2.007h2.52v3.799h-2.52v2.007h2.52v3.8h-2.52v2.006h2.52v3.8h-2.52v2.006h2.52v3.8h-2.52v2.001h2.52v3.8h-2.52v2.006h2.52v3.8h-2.52v2.007h2.52v3.8h-2.52v2.006h2.52v1.711h-11.777v26.893h-4.163v-7.444h-22.386l-.305.003v-7.636h-.829v-1.653h.829v-3.591h-.829v-1.653h.829v-3.591h-.829v-1.653h.829v-3.591h-.829v-1.653h.829v-3.591h-.829v-1.653h.829v-3.591h-.829v-1.653h.829v-3.586h-.829v-1.653h.829v-3.591h-.829v-1.653h.829v-3.591h-.829v-1.653h.829v-3.591h-.829v-1.653h.829v-3.591h-.829v-1.653h.829v-3.591h-.829v-1.924c.475-.329.79-.882.79-1.507v-9.858h-26.956l-15.916-9.862h-34.924c-1.008,0-1.832.824-1.832,1.832v17.888c0,.625.314,1.178.79,1.507v1.924h-.829v3.591h.829v1.653h-.829v3.591h.829v1.653h-.829v3.591h.829v1.653h-.829v3.591h.829v1.653h-.829v3.591h.829v1.653h-.829v3.586h.829v1.653h-.829v3.591h.829v1.653h-.829v3.591h.829v1.653h-.829v3.591h.829v1.653h-.829v3.591h.829v1.653h-.829v3.591h.829v1.653h-.829v3.049h-9.319v-1.27h.833v-3.591h-.833v-1.653h.833v-3.591h-.833v-1.653h.833v-3.591h-.833v-1.653h.833v-3.591h-.833v-1.648h.833v-3.591h-.833v-1.653h.833v-3.591h-.833v-1.653h.833v-3.591h-.833v-1.653h.833v-3.592h-.833v-1.652h.833v-3.591h-.833v-1.653h.833v-3.591h-.833v-1.653h.833v-3.591h-.833v-1.652h.833v-3.587h-.833v-1.653h.833v-3.591h-.833v-1.652h.833v-3.592h-.833v-1.652h.833v-3.591h-.833v-1.653h.833v-3.591h-.833v-1.653h.833v-3.591h-.833v-1.653h.833v-3.591h-.833v-1.924c.479-.33.794-.882.794-1.507v-8.447h-.053c-.189-.809-.916-1.41-1.779-1.41h-25.918l-15.916-9.858h-25.289c-1.009,0-1.832.819-1.832,1.827v17.888c0,.625.315,1.178.795,1.507v1.924h-.833v3.591h.833v1.653h-.833v3.591h.833v1.653h-.833v3.591h.833v1.653h-.833v3.591h.833v1.652h-.833v3.592h.833v1.652h-.833v3.591h.833v1.653h-.833v3.587h.833v1.652h-.833v3.591h.833v1.653h-.833v3.591h.833v1.653h-.833v3.591h.833v1.652h-.833v3.592h.833v.232h-8.607v-3.058h-.834v-1.653h.834v-3.591h-.834v-1.653h.834v-3.591h-.834v-1.653h.834v-3.591h-.834v-1.652h.834v-3.591h-.834v-1.653h.834v-3.591h-.834v-1.653h.834v-3.586h-.834v-1.657h.834v-3.587h-.834v-1.653h.834v-3.591h-.834v-1.653h.834v-3.591h-.834v-1.653h.834v-3.591h-.834v-1.653h.834v-3.591h-.834v-1.653h.834v-3.591h-.834v-1.652h.834v-3.592h-.834v-1.652h.834v-3.591h-.834v-1.648h.834v-3.591h-.834v-1.653h.834v-3.591h-.834v-1.653h.834v-3.591h-.834v-1.653h.834v-3.591h-.834v-1.924c.48-.33.795-.883.795-1.507v-8.451h-.054c-.188-.806-.915-1.408-1.778-1.408h-25.919l-15.916-9.86h-20.006c-1.003,0-1.827.824-1.827,1.831v17.888c0,.624.315,1.176.79,1.507v1.924h-.829v3.591h.829v1.653h-.829v3.591h.829v1.653h-.829v3.591h.829v1.653h-.829v3.591h.829v1.648h-.829v3.591h.829v1.652h-.829v3.592h.829v1.652h-.829v3.591h.829v1.653h-.829v3.591h.829v1.653h-.829v3.591h.829v1.653h-.829v3.591h.829v1.653h-.829v3.591h.829v1.653h-.829v3.587h.829v1.657h-.829v3.586h.829v1.653h-.829v3.591h.829v1.653h-.829v3.591h.829v1.652h-.829v3.591h.829v1.653h-.829v3.591h.829v1.653h-.829v3.591h.829v1.653h-.829v3.591h.829v1.653h-.829v3.591h.829v1.648h-.829v3.591h.829v1.192h-8.54v-81.261h-1.008v-25.929h-2.448v-5.332h-9.179v-1.283h-9.262v-48.434h-6.664v-1.499h-18.257v1.499h-2.089v-.772h-7.177v-3.905l-41.326.01v4.667h-3.45v9.196c-.133-.115-.266-.23-.422-.32-1.687-.974-4.037-.058-5.254,2.047-1.098,1.898-.883,4.104.407,5.236l-.271.468c-2.421-1.382-4.912-2.654-7.468-3.811l.214-.481c1.685.417,3.627-.705,4.53-2.73.989-2.22.344-4.661-1.434-5.454-1.779-.792-4.023.364-5.012,2.583-.892,2.002-.45,4.171.951,5.163l-.215.483c-2.55-1.119-5.162-2.119-7.829-3.002l.161-.495c1.72.239,3.538-1.08,4.224-3.189.746-2.309-.146-4.671-1.998-5.273-1.855-.602-3.964.783-4.715,3.093-.678,2.085-.011,4.197,1.488,5.035l-.159.49c-2.65-.843-5.355-1.559-8.104-2.157l.107-.508c1.736.058,3.403-1.445,3.863-3.612.504-2.377-.63-4.631-2.535-5.037-1.904-.406-3.862,1.192-4.368,3.569-.454,2.143.43,4.172,2.006,4.851l-.106.497c-2.718-.558-5.485-.98-8.287-1.288l.055-.519c1.733-.124,3.234-1.791,3.465-3.997.254-2.416-1.112-4.539-3.049-4.743-1.938-.202-3.714,1.591-3.968,4.008-.228,2.179.865,4.106,2.502,4.615l-.055.519c-2.757-.27-5.552-.412-8.376-.428v-.523c1.711-.305,3.029-2.12,3.029-4.336,0-2.429-1.579-4.398-3.528-4.398s-3.527,1.969-3.527,4.398c0,2.192,1.29,3.994,2.971,4.328v.531c-2.825.016-5.619.158-8.377.428l-.053-.506c1.667-.481,2.79-2.424,2.559-4.628-.254-2.417-2.032-4.21-3.969-4.008-1.938.205-3.303,2.328-3.049,4.745.229,2.179,1.699,3.837,3.407,3.994l.055.52c-2.802.308-5.57.73-8.29,1.289l-.102-.479c1.609-.654,2.522-2.703,2.061-4.87-.504-2.377-2.46-3.974-4.366-3.569-1.905.405-3.041,2.659-2.535,5.037.455,2.142,2.091,3.637,3.805,3.615l.108.504c-2.751.599-5.457,1.315-8.107,2.158l-.152-.467c1.531-.817,2.226-2.952,1.54-5.06-.751-2.309-2.862-3.693-4.713-3.092-1.855.601-2.748,2.962-1.997,5.273.678,2.084,2.46,3.4,4.163,3.199l.158.486c-2.668.884-5.281,1.884-7.832,3.004l-.203-.455c1.437-.974,1.903-3.167,1.003-5.195-.989-2.218-3.233-3.374-5.014-2.582-1.78.792-2.421,3.234-1.434,5.454.892,2.001,2.801,3.123,4.475,2.746l.208.467c-2.556,1.158-5.048,2.43-7.47,3.813l-.254-.439c1.328-1.119,1.561-3.35.454-5.27-1.214-2.103-3.568-3.02-5.255-2.045-1.687.973-2.069,3.47-.855,5.575,1.096,1.897,3.112,2.814,4.737,2.263l.256.443c-2.417,1.418-4.761,2.946-7.028,4.576l-.302-.415c1.204-1.252,1.205-3.495-.098-5.287-1.428-1.966-3.864-2.632-5.439-1.487-1.576,1.146-1.699,3.668-.269,5.633,1.287,1.773,3.388,2.474,4.947,1.756l.298.412c-2.253,1.661-4.424,3.427-6.512,5.286l-.34-.377c1.066-1.371.832-3.602-.651-5.248-1.625-1.805-4.117-2.213-5.566-.909-1.446,1.305-1.304,3.824.323,5.63,1.465,1.628,3.628,2.106,5.103,1.23l.336.373c-2.068,1.885-4.047,3.864-5.932,5.932l-.366-.329c.918-1.474.452-3.669-1.196-5.152-1.805-1.625-4.325-1.768-5.63-.321-1.303,1.448-.896,3.94.909,5.566,1.629,1.465,3.831,1.714,5.205.688l.382.344c-1.859,2.088-3.625,4.259-5.285,6.514l-.401-.291c.759-1.562.064-3.697-1.729-4.999-1.965-1.428-4.485-1.307-5.632.269-1.144,1.575-.479,4.011,1.486,5.44,1.772,1.287,3.986,1.304,5.248.141l.416.302c-1.63,2.268-3.158,4.612-4.575,7.03l-.428-.247c.59-1.633-.322-3.683-2.241-4.792-2.105-1.215-4.601-.83-5.575.855-.092.16-.152.331-.211.501l-2.645-58.786h-1.145v-59.269h-1.979V56.28h1.148v-1.843h-15.594l-16.66,2.622v-1.517l-3.631-1.653v-5.353l-9.718-4.424h-2.87l-9.719,4.424v5.352l-3.632,1.653v1.517l-16.659-2.622h-2.976v-2.806l-2.366-.922h-6.53v1.467h.484v2.261h-4.207v1.843h1.15v110.706h-1.98v59.269h-1.145l-7.559,162.409h-27.25c-1.032-17.224-1.64-34.54-1.688-51.979h.039v-1.999h-.047c-.001-5.526.066-11.066.183-16.618l.613-1.635,2.422-.974,1.703-1.203.583-1.202.365-2.147-.222-.29,1.605-9.419h.236l.365-2.146-1.174-1.538-2.438-1.799-3.321-1.057-.034.031.917-9.841-1.707-1.926-3.864-1.152h-4.221l-4.208,1.116-1.824,1.962.916,9.841-.034-.031-3.32,1.057-2.438,1.799-1.174,1.538.364,2.146h.237l1.604,9.418-.222.291.364,2.147.583,1.202,1.703,1.203,2.423.974.612,1.631c.042,1.981.086,3.963.112,5.941v1.599h.021c.033,3.031.051,6.058.05,9.081h-.07v1.999h.062c-.048,17.439-.655,34.755-1.688,51.979h-29.294l-20.439,7.414c-1.267-.297-2.527-.621-3.782-.966-4.415-4.251-7.123-9.633-7.381-16.64-4.343,1.856-9.626,2.22-15.08,2.312h-41.57c-5.453-.092-10.737-.456-15.079-2.312-.258,7.007-2.965,12.389-7.381,16.64-8.079,2.218-16.347,3.632-25.361,1.864l.5,1.539c-3.069.074-6.207-.143-9.443-.779l.543,1.674c-.975-.12-1.957-.268-2.95-.462,1.226,1.698,2.7,3.274,4.342,4.766l-1.081.256.296.485.55-.044.061.47s.612-.192,1.14-.303c4.424,3.773,9.964,6.984,15.598,10.114v121.04h1105.9v-146.946h-.746Zm-758.701-135.571c-.943.543-2.144.223-2.686-.712-.542-.938-.216-2.14.726-2.683.942-.544,2.145-.225,2.685.712.542.939.217,2.138-.725,2.683Zm-8.216,5.337c-.879.639-2.109.446-2.746-.43-.636-.876-.438-2.104.442-2.743.877-.638,2.106-.448,2.745.43.636.876.439,2.103-.441,2.743Zm-7.613,6.165c-.809.728-2.052.665-2.775-.139-.726-.805-.657-2.048.15-2.775.809-.729,2.052-.665,2.775.139.725.804.657,2.046-.15,2.774Zm-6.929,6.927c-.728.808-1.969.877-2.774.153-.806-.725-.868-1.966-.139-2.776.728-.808,1.97-.876,2.773-.151.807.723.869,1.967.14,2.774Zm-6.166,7.614c-.638.88-1.868,1.076-2.743.44-.876-.636-1.068-1.865-.429-2.744.64-.879,1.867-1.077,2.744-.441.875.636,1.067,1.866.428,2.746Zm-157.983,61.051l.932,5.458h-.973c.025-1.817.029-3.638.042-5.458Zm-.017-14.702h.978l-.947,5.456c-.008-1.818-.01-3.635-.03-5.456Zm.665,11.079h1.004c-.005,1.882-.023,3.761-.042,5.64l-.963-5.64Zm.828,14.558c-.038,1.868-.071,3.737-.121,5.603h-1.001l1.122-5.603Zm-.184,7.602c-.055,1.894-.111,3.787-.177,5.678l-.823-5.678h1Zm-.907,22.158c-.1,1.905-.193,3.812-.304,5.715l-.694-5.715h.998Zm-.884-1.998l1.255-5.603c-.083,1.869-.171,3.736-.265,5.603h-.99Zm8.146,0c-.095-1.869-.182-3.739-.266-5.61l1.258,5.61h-.992Zm1.105,1.998l-.696,5.72c-.11-1.905-.204-3.813-.304-5.72h1Zm-1.97-24.157c-.049-1.867-.083-3.737-.121-5.606l1.123,5.606h-1.002Zm1.063,2l-.823,5.683c-.066-1.893-.124-3.788-.178-5.683h1Zm.278-27.786l-.947-5.454h.978c-.02,1.82-.022,3.636-.03,5.454Zm.055,14.707h-.973l.932-5.456c.013,1.819.017,3.64.042,5.456Zm-1.652-3.437c-.019-1.88-.037-3.761-.042-5.644h1.005l-.963,5.644Zm3.276,46.334h-.724l.487-4.012c.075,1.338.156,2.675.237,4.012Zm-.72-13.37l-1.204-5.369h.977c.073,1.79.144,3.581.227,5.369Zm-.312-7.368h-.979l.79-5.458c.06,1.82.119,3.64.189,5.458Zm-1.531-20.16h.979c.029,1.806.065,3.611.105,5.415l-1.084-5.415Zm.942-24.159h-.95l1-2.71c-.015.903-.039,1.808-.051,2.71Zm-1.539-4.616h.963l-1.016,2.754c.015-.917.034-1.836.052-2.754Zm-.134,10.062l.979,5.635h-1.01c0-1.876.019-3.756.031-5.635Zm-4.848,5.635h-1.008l.978-5.63c.013,1.877.032,3.756.031,5.63Zm-.165-15.697c.018.917.037,1.834.052,2.751l-1.014-2.751h.962Zm-.59,4.616h-.949c-.012-.903-.036-1.808-.051-2.712l1,2.712Zm-.985,24.159h.979l-1.084,5.416c.041-1.804.077-3.609.105-5.416Zm-.363,14.703l.791,5.458h-.98c.07-1.818.129-3.638.189-5.458Zm-.274,7.457h.976l-1.204,5.37c.083-1.788.155-3.579.228-5.37Zm-.71,14.723l.488,4.016h-.725c.081-1.338.162-2.676.237-4.016Zm58.313-330.211h-3.119v-2.261h3.119v2.261Zm164.875,185.008c-.113-1.077.67-2.041,1.753-2.155,1.081-.114,2.05.667,2.162,1.743.115,1.078-.672,2.043-1.752,2.157-1.082.113-2.05-.668-2.163-1.745Zm2.118,6.656l1.102,10.478c-2.381.264-4.734.62-7.046,1.093l-2.19-10.306c2.668-.548,5.385-.962,8.135-1.264Zm-9.165,174.844c-2.282-.497-4.533-1.076-6.747-1.745l3.551-9.944c1.771.522,3.565.984,5.386,1.382l-2.191,10.307Zm1.05,7.205c-.225,1.061-1.27,1.735-2.332,1.507-1.064-.223-1.743-1.265-1.52-2.326.226-1.061,1.271-1.735,2.335-1.507,1.062.228,1.743,1.265,1.516,2.326Zm-40.667-19.185v-6.11c1.66,1.419,3.364,2.787,5.125,4.084l-.298.41c-1.513-.696-3.53-.047-4.827,1.615Zm4.036,3.773c-.638.877-1.867,1.066-2.747.426-.878-.64-1.076-1.866-.44-2.743.636-.877,1.866-1.067,2.745-.427.879.64,1.078,1.866.442,2.743Zm-4.036-11.859v-.767l6.662-7.399c1.776,1.578,3.619,3.081,5.533,4.495l-6.192,8.523c-2.074-1.529-4.072-3.152-6.003-4.852Zm49.592-71.169l-10.536-4.691c.173-.364.335-.735.528-1.087l10.008,5.778Zm-9.458-6.682c.21-.344.417-.69.646-1.022l9.347,6.791-9.993-5.769Zm9.039,7.651l-10.979-3.568c.134-.381.262-.765.416-1.136l10.563,4.703Zm-.32,1.008l-11.297-2.401c.093-.393.187-.786.301-1.171l10.996,3.573Zm-.222,1.032l-11.481-1.207c.051-.401.11-.801.183-1.195l11.298,2.401Zm-.085,1.054h-11.565c.009-.406.029-.809.061-1.209l11.504,1.209Zm-.04,1.057l-11.462,1.205c-.032-.398-.05-.8-.061-1.205h11.523Zm.146,1.048l-11.31,2.404c-.074-.394-.13-.794-.183-1.196l11.493-1.208Zm-.313,1.146l-10.481,3.406c-.108-.367-.197-.742-.287-1.117l10.769-2.289Zm.842.838l-10.57,4.706c-.154-.371-.282-.755-.417-1.137l10.986-3.569Zm.423.967l-10.018,5.784c-.193-.353-.355-.724-.528-1.088l10.546-4.696Zm.514.923l-9.338,6.785c-.229-.331-.435-.677-.645-1.021l9.983-5.764Zm.623.855l-8.574,7.72c-.262-.306-.508-.623-.753-.943l9.327-6.777Zm-9.327-19.447c.246-.321.492-.638.755-.944l8.586,7.73-9.341-6.786Zm.641-2.468l-7.431-6.691c.271-.292.542-.583.824-.865.277-.277.564-.544.851-.811l6.691,7.432c-.159.15-.33.286-.485.441-.158.158-.296.333-.451.495Zm-.71.782c-.289.335-.56.683-.829,1.034l-8.096-5.882c.476-.633.979-1.243,1.498-1.839l7.426,6.686Zm-1.461,1.88c-.251.363-.479.741-.708,1.119l-8.667-5.004c.407-.679.842-1.339,1.296-1.985l8.079,5.87Zm-1.258,2.023c-.211.386-.392.791-.58,1.191l-9.14-4.069c.334-.719.691-1.423,1.076-2.113l8.644,4.991Zm-1.03,2.147c-.169.406-.309.827-.456,1.245l-9.511-3.091c.257-.75.533-1.492.842-2.217l9.125,4.063Zm-.794,2.247c-.125.422-.228.853-.33,1.284l-9.781-2.079c.177-.775.375-1.541.605-2.293l9.505,3.088Zm-.553,2.316c-.081.432-.145.869-.2,1.309l-9.941-1.045c.095-.79.214-1.571.364-2.343l9.778,2.078Zm-.31,2.361c-.035.438-.057.88-.067,1.325h-9.994c.012-.797.052-1.587.12-2.37l9.941,1.045Zm-.064,2.382c.01.443.031.884.067,1.321l-9.939,1.044c-.069-.781-.109-1.57-.123-2.365h9.996Zm.182,2.372c.057.44.119.879.2,1.311l-9.776,2.078c-.151-.771-.271-1.553-.367-2.344l9.942-1.045Zm.43,2.341c.098.413.196.825.316,1.229l-9.505,3.089c-.226-.735-.418-1.483-.592-2.239l9.781-2.079Zm.654,2.23c.146.418.287.839.456,1.246l-9.125,4.063c-.309-.725-.585-1.467-.842-2.219l9.512-3.091Zm.904,2.202c.189.4.37.805.581,1.191l-8.644,4.991c-.384-.689-.742-1.395-1.077-2.113l9.14-4.069Zm1.13,2.095c.229.377.457.756.708,1.118l-8.079,5.87c-.454-.646-.889-1.305-1.295-1.984l8.667-5.004Zm1.341,1.965c.268.351.539.699.826,1.033l-7.424,6.685c-.519-.595-1.022-1.204-1.497-1.836l8.095-5.882Zm1.537,1.816c.153.163.294.339.452.497.154.154.326.291.484.44l-6.689,7.429c-.288-.268-.576-.535-.853-.813-.282-.281-.553-.573-.824-.864l7.43-6.689Zm1.719,1.649c.334.288.681.56,1.033.828l-5.881,8.094c-.632-.476-1.241-.979-1.837-1.498l6.686-7.425Zm-.041-1.536c-.144-.137-.3-.26-.441-.401-.145-.145-.273-.306-.414-.454l8.584-7.729-7.729,8.584Zm-.852-30.53c.141-.148.267-.308.411-.452.141-.141.297-.265.441-.402l7.716,8.568-8.568-7.715Zm-5.793-9.816c.595-.52,1.206-1.022,1.837-1.498l5.883,8.097c-.351.268-.698.54-1.033.828l-6.688-7.426Zm-3.823-11.085c.959-.68,1.943-1.326,2.956-1.929l4.991,8.643c-.712.427-1.403.884-2.08,1.36l-5.867-8.075Zm5.009,8.691c-.663.499-1.303,1.027-1.927,1.572l-6.68-7.418c.884-.777,1.792-1.527,2.737-2.232l5.869,8.078Zm-2.714,2.279c-.302.281-.604.562-.895.853-.294.294-.579.599-.862.904l-7.419-6.681c.401-.435.806-.866,1.224-1.285.415-.414.842-.815,1.272-1.212l6.68,7.42Zm-2.462,2.544c-.545.624-1.073,1.264-1.572,1.928l-8.077-5.868c.705-.945,1.454-1.854,2.231-2.738l7.418,6.679Zm-2.188,2.787c-.477.677-.932,1.37-1.359,2.082l-8.643-4.99c.603-1.014,1.248-1.999,1.928-2.958l8.074,5.866Zm-1.886,2.999c-.403.722-.778,1.462-1.128,2.216l-9.118-4.06c.494-1.073,1.028-2.122,1.604-3.146l8.643,4.99Zm-1.563,3.178c-.324.76-.615,1.538-.884,2.325l-9.492-3.085c.377-1.12.793-2.223,1.258-3.3l9.118,4.059Zm-1.217,3.33c-.241.789-.448,1.593-.633,2.406l-9.764-2.075c.259-1.156.551-2.298.898-3.417l9.499,3.086Zm-.854,3.438c-.158.809-.283,1.629-.382,2.458l-9.927-1.043c.136-1.178.314-2.343.542-3.49l9.767,2.076Zm-.492,3.51c-.071.82-.113,1.649-.126,2.485h-9.98c.013-1.188.073-2.365.179-3.529l9.927,1.044Zm-.124,3.542c.014.835.055,1.662.128,2.481l-9.928,1.044c-.107-1.162-.167-2.338-.182-3.525h9.981Zm.24,3.533c.1.829.226,1.65.385,2.458l-9.767,2.076c-.229-1.148-.407-2.313-.544-3.491l9.926-1.043Zm.609,3.49c.182.794.385,1.58.621,2.351l-9.499,3.087c-.342-1.101-.63-2.226-.885-3.362l9.764-2.075Zm.954,3.354c.269.788.56,1.566.884,2.327l-9.118,4.06c-.465-1.078-.881-2.182-1.26-3.302l9.494-3.084Zm1.318,3.289c.351.754.726,1.494,1.129,2.217l-8.643,4.99c-.576-1.024-1.11-2.074-1.604-3.147l9.118-4.06Zm1.656,3.133c.427.712.883,1.404,1.359,2.081l-8.074,5.866c-.68-.959-1.326-1.943-1.928-2.957l8.643-4.99Zm1.975,2.941c.498.663,1.026,1.302,1.57,1.926l-7.416,6.678c-.777-.883-1.526-1.791-2.231-2.736l8.077-5.868Zm2.275,2.714c.284.306.569.611.864.906.292.291.593.572.895.853l-6.679,7.418c-.431-.398-.859-.799-1.273-1.214-.418-.418-.824-.849-1.224-1.284l7.417-6.679Zm2.546,2.466c.624.545,1.263,1.073,1.927,1.572l-5.868,8.077c-.945-.705-1.853-1.455-2.736-2.233l6.677-7.416Zm2.785,2.187c.677.477,1.369.933,2.081,1.36l-4.991,8.643c-1.013-.603-1.998-1.25-2.956-1.93l5.866-8.073Zm2.997,1.887c.722.403,1.46.779,2.213,1.129l-4.059,9.119c-1.072-.494-2.121-1.029-3.145-1.605l4.991-8.643Zm-.362-1.486c-.679-.408-1.338-.843-1.983-1.298l5.87-8.078c.362.251.74.479,1.118.709l-5.004,8.667Zm3.693-10.907c-.32-.245-.637-.493-.943-.755l7.723-8.576-6.78,9.331Zm-.942-33.562c.305-.263.622-.51.942-.755l6.782,9.334-7.724-8.578Zm-4.733-10.365c.645-.454,1.304-.889,1.982-1.297l5.004,8.668c-.376.23-.754.458-1.117.709l-5.87-8.08Zm-2.645-11.427c1.023-.576,2.072-1.11,3.144-1.604l4.06,9.118c-.753.35-1.491.727-2.214,1.13l-4.99-8.643Zm-.555-.961l-4.99-8.643c1.358-.768,2.751-1.479,4.178-2.132l4.06,9.117c-1.108.51-2.191,1.062-3.248,1.657Zm-.917.527c-1.048.623-2.064,1.29-3.053,1.993l-5.867-8.075c1.271-.907,2.581-1.764,3.929-2.562l4.991,8.643Zm-3.915,2.606c-.976.728-1.914,1.502-2.826,2.306l-6.68-7.418c1.172-1.036,2.382-2.028,3.639-2.962l5.867,8.075Zm-3.615,3.011c-.444.411-.886.825-1.314,1.254-.432.432-.85.876-1.263,1.325l-7.421-6.682c.531-.578,1.069-1.149,1.625-1.705.551-.551,1.118-1.086,1.692-1.613l6.681,7.42Zm-3.281,3.367c-.803.913-1.578,1.852-2.306,2.828l-8.074-5.867c.934-1.258,1.925-2.468,2.96-3.64l7.419,6.68Zm-2.917,3.689c-.703.99-1.37,2.008-1.992,3.055l-8.645-4.99c.798-1.35,1.654-2.659,2.561-3.931l8.075,5.867Zm-2.519,3.972c-.595,1.057-1.147,2.142-1.656,3.25l-9.119-4.06c.653-1.427,1.363-2.822,2.131-4.181l8.644,4.991Zm-2.091,4.212c-.481,1.113-.91,2.251-1.3,3.408l-9.494-3.085c.499-1.49,1.055-2.954,1.675-4.383l9.12,4.06Zm-1.64,4.411c-.359,1.155-.661,2.335-.928,3.529l-9.765-2.075c.339-1.537.733-3.053,1.199-4.538l9.494,3.085Zm-1.154,4.56c-.235,1.185-.418,2.388-.559,3.605l-9.928-1.044c.177-1.566.413-3.114.72-4.638l9.767,2.077Zm-.669,4.657c-.11,1.202-.172,2.417-.185,3.645h-9.983c.015-1.58.094-3.144.239-4.688l9.929,1.043Zm-.184,4.702c.015,1.226.077,2.44.188,3.641l-9.93,1.044c-.146-1.543-.225-3.106-.241-4.684h9.983Zm.301,4.692c.142,1.217.325,2.421.562,3.606l-9.769,2.076c-.308-1.523-.543-3.073-.723-4.639l9.929-1.044Zm.79,4.637c.264,1.175.562,2.337.916,3.475l-9.494,3.085c-.46-1.468-.849-2.966-1.186-4.484l9.765-2.076Zm1.254,4.475c.391,1.158.821,2.297,1.301,3.411l-9.119,4.06c-.621-1.431-1.176-2.895-1.676-4.386l9.494-3.085Zm1.736,4.373c.51,1.108,1.062,2.192,1.657,3.25l-8.645,4.991c-.768-1.359-1.479-2.753-2.131-4.181l9.119-4.06Zm2.184,4.167c.622,1.047,1.289,2.064,1.991,3.054l-8.074,5.867c-.907-1.272-1.764-2.581-2.561-3.93l8.644-4.991Zm2.604,3.917c.728.975,1.501,1.914,2.304,2.826l-7.419,6.68c-1.035-1.172-2.026-2.382-2.959-3.639l8.075-5.867Zm3.007,3.615c.415.449.833.895,1.266,1.327.428.428.869.843,1.314,1.253l-6.681,7.42c-.574-.527-1.141-1.061-1.692-1.612-.556-.556-1.096-1.128-1.627-1.707l7.42-6.681Zm-4.052,11.526c1.2,1.061,2.44,2.078,3.729,3.034l-5.866,8.074c-1.571-1.162-3.082-2.398-4.542-3.691l6.679-7.418Zm.741-.823l6.68-7.419c.912.803,1.85,1.578,2.826,2.305l-5.867,8.075c-1.258-.934-2.467-1.927-3.639-2.962Zm10.366-4.501c.99.703,2.006,1.37,3.054,1.993l-4.991,8.644c-1.349-.798-2.659-1.655-3.931-2.562l5.867-8.075Zm3.97,2.52c1.056.595,2.14,1.148,3.247,1.657l-4.059,9.118c-1.427-.653-2.82-1.363-4.179-2.132l4.991-8.643Zm4.211,2.093c.583.252,1.175.489,1.771.716l-3.358,9.403c-.834-.315-1.658-.649-2.472-1.002l4.059-9.118Zm.451-1.013l4.06-9.119c.327.14.661.268.993.398l-3.359,9.406c-.569-.218-1.135-.444-1.693-.684Zm4.511-10.13l4.063-9.125c.069.029.143.05.214.078l-3.362,9.413c-.307-.12-.613-.237-.915-.366Zm-.964-.436c-.718-.335-1.422-.693-2.11-1.077l4.991-8.645c.385.211.789.392,1.188.582l-4.069,9.14Zm2.533-11.232c-.344-.21-.689-.417-1.02-.646l6.784-9.338-5.764,9.984Zm-1.02-36.228c.331-.229.676-.436,1.019-.646l5.763,9.98-6.782-9.334Zm-3.622-10.8c.688-.384,1.392-.742,2.109-1.076l4.07,9.141c-.399.189-.802.37-1.188.581l-4.991-8.646Zm3.074-1.512c.725-.309,1.465-.586,2.215-.843l3.091,9.514c-.417.146-.838.285-1.244.455l-4.063-9.125Zm-.451-1.013l-4.059-9.118c1.077-.465,2.18-.881,3.298-1.26l3.084,9.492c-.787.27-1.564.561-2.324.885Zm-4.51-10.132l-4.059-9.117c1.429-.621,2.892-1.177,4.381-1.676l3.084,9.492c-1.157.391-2.294.821-3.407,1.302Zm-4.511-10.131l-4.06-9.118c1.782-.777,3.605-1.473,5.465-2.093l3.084,9.493c-1.526.512-3.025,1.082-4.49,1.718Zm-.964.436c-1.462.669-2.89,1.397-4.282,2.184l-4.99-8.642c1.692-.961,3.431-1.848,5.212-2.66l4.06,9.118Zm-5.198,2.712c-1.383.818-2.724,1.695-4.027,2.625l-5.864-8.073c1.583-1.134,3.217-2.201,4.902-3.194l4.99,8.642Zm-4.888,3.237c-1.288.956-2.529,1.973-3.729,3.034l-6.677-7.415c1.459-1.294,2.97-2.53,4.541-3.692l5.866,8.073Zm-4.52,3.737c-.588.541-1.169,1.088-1.734,1.653-.569.569-1.121,1.154-1.665,1.747l-7.417-6.678c.661-.722,1.333-1.432,2.024-2.124.688-.688,1.396-1.357,2.114-2.015l6.678,7.417Zm-4.101,4.19c-1.062,1.201-2.078,2.441-3.034,3.731l-8.073-5.865c1.163-1.571,2.397-3.083,3.691-4.542l7.416,6.677Zm-3.647,4.592c-.929,1.303-1.807,2.646-2.624,4.029l-8.643-4.99c.993-1.685,2.06-3.319,3.194-4.904l8.073,5.865Zm-3.151,4.946c-.787,1.392-1.515,2.821-2.183,4.284l-9.118-4.059c.812-1.782,1.698-3.521,2.66-5.215l8.642,4.99Zm-2.618,5.246c-.637,1.465-1.206,2.964-1.717,4.492l-9.492-3.084c.62-1.86,1.315-3.685,2.091-5.467l9.118,4.059Zm-2.057,5.495c-.477,1.522-.88,3.075-1.229,4.65l-9.763-2.076c.421-1.917.916-3.808,1.499-5.659l9.493,3.084Zm-1.457,5.681c-.314,1.561-.556,3.148-.737,4.753l-9.926-1.044c.218-1.954.512-3.886.897-5.785l9.766,2.076Zm-.85,5.804c-.148,1.583-.229,3.186-.244,4.804h-9.98c.015-1.971.114-3.921.298-5.848l9.926,1.044Zm-.243,5.861c.016,1.617.097,3.219.247,4.8l-9.927,1.043c-.186-1.924-.284-3.874-.3-5.844h9.979Zm.362,5.851c.183,1.605.424,3.193.739,4.753l-9.766,2.076c-.387-1.899-.68-3.831-.9-5.786l9.927-1.043Zm.971,5.783c.345,1.556.744,3.092,1.216,4.596l-9.492,3.084c-.578-1.834-1.068-3.706-1.487-5.605l9.763-2.075Zm1.555,5.596c.512,1.528,1.082,3.028,1.718,4.494l-9.118,4.06c-.778-1.783-1.473-3.609-2.092-5.47l9.492-3.084Zm-5.265,15.284l-8.644,4.991c-1.154-2.027-2.217-4.111-3.188-6.248l9.119-4.06c.828,1.817,1.732,3.591,2.712,5.317Zm-1.7-5.768l9.118-4.06c.668,1.463,1.396,2.892,2.184,4.284l-8.643,4.99c-.961-1.693-1.849-3.432-2.659-5.214Zm11.83,1.141c.817,1.383,1.694,2.724,2.623,4.027l-8.074,5.866c-1.134-1.585-2.201-3.219-3.193-4.903l8.644-4.99Zm3.237,4.89c.955,1.288,1.972,2.528,3.033,3.729l-7.418,6.679c-1.293-1.459-2.528-2.971-3.689-4.541l8.075-5.866Zm3.734,4.519c.544.593,1.096,1.178,1.665,1.746.565.566,1.147,1.114,1.736,1.655l-6.681,7.419c-.717-.657-1.424-1.325-2.112-2.012-.693-.693-1.366-1.404-2.028-2.128l7.419-6.68Zm-3.228,12.344c1.488,1.32,3.029,2.579,4.631,3.765l-5.868,8.076c-1.883-1.391-3.696-2.87-5.443-4.422l6.681-7.419Zm5.492,4.377c1.615,1.157,3.282,2.246,5,3.258l-4.992,8.646c-2.021-1.188-3.979-2.466-5.876-3.828l5.868-8.077Zm.65-.896l5.867-8.074c1.303.929,2.644,1.808,4.027,2.625l-4.99,8.643c-1.686-.993-3.319-2.06-4.904-3.195Zm10.81-4.922c1.392.788,2.82,1.516,4.282,2.185l-4.06,9.118c-1.781-.812-3.52-1.698-5.212-2.66l4.99-8.643Zm5.245,2.621c.839.365,1.69.71,2.55,1.034l-3.359,9.403c-1.098-.411-2.181-.854-3.25-1.32l4.06-9.117Zm3.88,13.135c1.302.371,2.619.707,3.953,1l-2.076,9.767c-1.771-.387-3.519-.837-5.243-1.344l3.366-9.423Zm.374-1.047l3.364-9.419c.833.226,1.673.431,2.52.619l-2.074,9.762c-1.285-.283-2.554-.605-3.81-.962Zm3.738-10.465l3.369-9.432c.358.09.721.169,1.083.25l-2.075,9.762c-.798-.177-1.592-.369-2.377-.58Zm3.745-10.484l2.431-6.807-1.492,7.023c-.313-.071-.628-.14-.938-.217Zm2.385-22.505c-.044-.018-.091-.031-.134-.049l.768-1.725-.634,1.775Zm-1.093-.499c-.363-.173-.732-.336-1.084-.529l5.768-9.991-4.684,10.52Zm-1.084-38.502c.352-.192.72-.356,1.084-.529l4.684,10.52-5.768-9.991Zm2.042-.979c.37-.154.754-.281,1.135-.415l3.563,10.968-4.698-10.552Zm-1.297-11.314c.752-.231,1.518-.428,2.291-.605l2.08,9.782c-.43.102-.861.204-1.282.329l-3.089-9.506Zm-.343-1.055l-3.086-9.497c1.118-.348,2.26-.641,3.415-.9l2.075,9.762c-.812.185-1.615.392-2.403.635Zm-3.429-10.553l-3.084-9.492c1.484-.466,3-.86,4.536-1.2l2.075,9.763c-1.192.267-2.372.57-3.526.93Zm-3.427-10.547l-3.084-9.493c1.85-.585,3.739-1.08,5.657-1.501l2.075,9.763c-1.574.349-3.127.753-4.648,1.231Zm-3.427-10.548l-3.084-9.494c2.217-.703,4.479-1.299,6.778-1.802l2.075,9.765c-1.956.43-3.882.935-5.769,1.531Zm-1,.339c-1.897.633-3.757,1.342-5.574,2.135l-4.06-9.118c2.134-.934,4.319-1.769,6.549-2.51l3.085,9.494Zm-6.538,2.571c-1.816.827-3.59,1.732-5.315,2.713l-4.991-8.643c2.027-1.154,4.11-2.217,6.246-3.188l4.06,9.118Zm-6.231,3.24c-1.719,1.012-3.385,2.101-5,3.258l-5.866-8.074c1.896-1.361,3.855-2.639,5.875-3.827l4.991,8.643Zm-5.861,3.87c-1.602,1.185-3.144,2.445-4.632,3.765l-6.678-7.417c1.747-1.553,3.56-3.031,5.444-4.422l5.866,8.074Zm-5.423,4.466c-.732.67-1.453,1.352-2.155,2.054-.705.706-1.391,1.43-2.065,2.167l-7.419-6.68c.791-.865,1.598-1.716,2.427-2.545.825-.825,1.671-1.628,2.532-2.414l6.68,7.418Zm-4.92,5.013c-1.32,1.489-2.579,3.031-3.764,4.633l-8.075-5.867c1.391-1.884,2.869-3.698,4.421-5.445l7.417,6.679Zm-4.376,5.495c-1.156,1.616-2.244,3.283-3.256,5.001l-8.644-4.991c1.187-2.021,2.465-3.98,3.825-5.878l8.075,5.867Zm-3.783,5.918c-.981,1.727-1.885,3.5-2.712,5.318l-9.12-4.06c.971-2.137,2.033-4.221,3.188-6.248l8.644,4.991Zm-3.147,6.28c-.792,1.817-1.501,3.678-2.134,5.575l-9.494-3.085c.741-2.23,1.575-4.415,2.509-6.55l9.119,4.06Zm-12.682,2.147l-10.022-3.256c.868-2.618,1.849-5.183,2.947-7.688l9.626,4.286c-.95,2.17-1.798,4.391-2.55,6.658Zm.714,1.346l9.494,3.085c-.596,1.888-1.101,3.815-1.53,5.771l-9.764-2.075c.502-2.299,1.098-4.563,1.8-6.78Zm7.731,9.886c-.393,1.937-.692,3.907-.915,5.9l-9.926-1.044c.259-2.343.61-4.658,1.074-6.932l9.767,2.076Zm-1.027,6.952c-.188,1.964-.289,3.954-.304,5.964h-9.981c.015-2.362.134-4.7.357-7.007l9.928,1.044Zm-.302,7.02c.017,2.009.117,3.997.307,5.96l-9.928,1.044c-.225-2.306-.343-4.642-.36-7.003h9.981Zm.422,7.011c.224,1.994.523,3.964.918,5.901l-9.767,2.076c-.466-2.275-.817-4.59-1.078-6.934l9.926-1.043Zm1.153,6.93c.427,1.937.927,3.847,1.517,5.717l-9.494,3.085c-.697-2.2-1.288-4.446-1.789-6.727l9.765-2.075Zm1.855,6.717c.633,1.898,1.342,3.76,2.135,5.578l-9.119,4.06c-.934-2.136-1.77-4.323-2.51-6.554l9.494-3.084Zm-4.322,17.402l-9.124,5.268c-1.356-2.378-2.605-4.824-3.742-7.333l9.625-4.286c.986,2.172,2.066,4.29,3.24,6.351Zm.527.917c1.208,2.054,2.506,4.045,3.889,5.973l-8.523,6.193c-1.599-2.225-3.098-4.525-4.489-6.898l9.124-5.268Zm.959-.554l8.645-4.991c1.012,1.718,2.1,3.384,3.256,5l-8.076,5.867c-1.361-1.897-2.638-3.856-3.825-5.876Zm12.514.872c1.185,1.601,2.443,3.143,3.763,4.631l-7.419,6.68c-1.552-1.747-3.029-3.56-4.419-5.443l8.075-5.867Zm4.463,5.423c.674.737,1.361,1.461,2.066,2.167.703.702,1.424,1.384,2.156,2.055l-6.681,7.42c-.861-.786-1.707-1.589-2.532-2.414-.83-.83-1.638-1.681-2.429-2.547l7.42-6.681Zm3.987,18.272c1.928,1.384,3.919,2.684,5.973,3.891l-5.268,9.124c-2.373-1.393-4.673-2.892-6.898-4.492l6.193-8.523Zm6.889,4.418c2.061,1.174,4.178,2.255,6.35,3.241l-4.286,9.625c-2.508-1.137-4.954-2.386-7.332-3.743l5.268-9.124Zm.554-.959l4.992-8.646c1.726.981,3.499,1.885,5.315,2.713l-4.061,9.121c-2.136-.97-4.219-2.034-6.246-3.188Zm11.271-5.498c1.095.478,2.203.932,3.328,1.352l-3.36,9.408c-1.364-.507-2.704-1.058-4.029-1.639l4.061-9.121Zm11.067,15.094c2.312.472,4.665.829,7.045,1.093l-1.102,10.479c-2.75-.302-5.466-.717-8.134-1.264l2.19-10.307Zm.231-1.086l2.077-9.77c1.936.394,3.905.693,5.897.915l-1.044,9.93c-2.342-.26-4.656-.61-6.93-1.075Zm2.308-10.855l2.076-9.765c1.56.315,3.145.556,4.75.738l-1.043,9.925c-1.954-.219-3.884-.512-5.782-.897Zm2.307-10.851l2.076-9.765c1.184.236,2.386.419,3.602.56l-1.043,9.925c-1.565-.178-3.113-.413-4.635-.72Zm2.306-10.851l2.077-9.769c.808.157,1.627.283,2.455.382l-1.043,9.929c-1.177-.137-2.341-.314-3.488-.542Zm2.307-10.851l.825-3.877,2.063-5.778c.166.025.331.055.498.076l-1.045,9.944c-.789-.095-1.57-.215-2.341-.365Zm3.268-10.719l.337-.943-.103.978c-.079-.01-.156-.024-.234-.036Zm-3.161-42.111c.384-.114.776-.207,1.169-.301l2.396,11.275-3.565-10.975Zm2.203-.527c.393-.073.792-.13,1.192-.182l1.205,11.459-2.396-11.277Zm-.23-1.082l-2.079-9.779c.771-.15,1.552-.27,2.341-.365l1.045,9.944c-.439.056-.876.119-1.307.199Zm-2.309-10.864l-2.076-9.765c1.147-.228,2.312-.406,3.488-.542l1.043,9.925c-.828.099-1.646.225-2.455.383Zm-2.307-10.851l-2.076-9.766c1.522-.307,3.07-.542,4.635-.719l1.043,9.926c-1.216.141-2.418.324-3.603.56Zm-2.307-10.851l-2.076-9.767c1.897-.386,3.829-.679,5.783-.897l1.043,9.927c-1.604.182-3.19.423-4.75.738Zm-2.307-10.852l-2.076-9.768c2.274-.465,4.588-.816,6.931-1.075l1.043,9.928c-1.993.223-3.962.522-5.898.915Zm-5.994-25.803c-1.064.225-2.109-.449-2.335-1.507-.224-1.06.455-2.103,1.52-2.327,1.064-.227,2.108.448,2.332,1.507.227,1.06-.454,2.101-1.516,2.327Zm.467,4.881l2.191,10.305c-2.337.511-4.638,1.117-6.891,1.832l-3.256-10.02c2.601-.828,5.257-1.53,7.956-2.118Zm-9.931-2.345c-1.034.334-2.143-.227-2.479-1.256-.334-1.03.233-2.139,1.267-2.473,1.035-.336,2.144.225,2.479,1.258.335,1.027-.231,2.136-1.268,2.472Zm.975,4.802l3.256,10.02c-2.267.753-4.488,1.602-6.657,2.552l-4.285-9.624c2.503-1.099,5.068-2.08,7.686-2.948Zm-10.122-1.292c-.993.442-2.155-.001-2.596-.989-.439-.991.01-2.151,1.002-2.593.993-.442,2.156.001,2.595.991.442.989-.007,2.148-1.001,2.591Zm1.472,4.675l4.285,9.624c-2.171.986-4.289,2.067-6.349,3.24l-5.268-9.123c2.378-1.357,4.823-2.605,7.332-3.742Zm-8.248,4.269l5.267,9.123c-2.054,1.207-4.045,2.506-5.973,3.89l-6.192-8.522c2.225-1.6,4.525-3.099,6.897-4.491Zm-7.759,5.104l6.191,8.522c-1.915,1.414-3.757,2.916-5.533,4.495l-7.049-7.829c2.048-1.824,4.179-3.557,6.391-5.188Zm-7.187,5.886l7.051,7.83c-.876.8-1.736,1.616-2.575,2.455-.843.843-1.663,1.707-2.467,2.587l-7.83-7.051c1.85-2.029,3.792-3.971,5.82-5.821Zm-6.518,6.616l7.829,7.05c-1.578,1.776-3.08,3.62-4.494,5.535l-8.522-6.192c1.629-2.213,3.363-4.343,5.187-6.393Zm-5.8,7.254l8.522,6.192c-1.383,1.929-2.682,3.92-3.889,5.975l-9.124-5.268c1.392-2.374,2.891-4.674,4.49-6.899Zm-5.017,7.816l9.124,5.268c-1.173,2.061-2.253,4.179-3.24,6.352l-9.625-4.285c1.137-2.509,2.385-4.956,3.742-7.334Zm-7.326-4.873c.544-.943,1.745-1.267,2.683-.726.938.541,1.255,1.745.712,2.686-.544.942-1.746,1.265-2.683.723-.938-.542-1.256-1.742-.712-2.684Zm-1.789,1.884c.377.931,1.118,1.802,2.15,2.399,1.898,1.095,4.102.879,5.235-.409l.437.252c-1.383,2.423-2.655,4.916-3.813,7.473l-.447-.199c.417-1.688-.707-3.628-2.73-4.534-.204-.091-.411-.153-.617-.216l-.214-4.766Zm.296,6.586c.582.557.788,1.438.438,2.22-.081.183-.193.34-.317.484l-.122-2.703Zm.238,5.282c1.085-.104,2.027-.593,2.591-1.391l.447.199c-1.023,2.333-1.944,4.719-2.771,7.151l-.268-5.959Zm.463,10.312c.213-.737.422-1.476.654-2.205l10.022,3.256c-.714,2.254-1.32,4.555-1.83,6.892l-8.571-1.822-.275-6.121Zm.324,7.211l8.286,1.761c-.472,2.312-.829,4.665-1.092,7.047l-6.83-.718-.365-8.091Zm.412,9.159l6.667.701c-.228,2.345-.348,4.722-.363,7.123h-5.953l-.352-7.824Zm.4,8.881h5.906c.017,2.4.137,4.775.365,7.119l-5.923.623-.348-7.742Zm.396,8.8l5.993-.63c.264,2.382.622,4.736,1.096,7.048l-6.736,1.432-.353-7.85Zm.401,8.919l6.925-1.472c.508,2.319,1.109,4.602,1.818,6.839l-8.379,2.723-.364-8.089Zm.414,9.183l8.667-2.816c.753,2.268,1.603,4.491,2.552,6.662l-9.625,4.286c-.483-1.102-.939-2.217-1.378-3.342l-.216-4.79Zm.441,9.801l.223-.1c1.158,2.557,2.43,5.05,3.812,7.473l-.434.251c-.759-.864-1.995-1.235-3.306-1.059l-.295-6.565Zm.392,8.688c.408.156.772.441,1.007.85.543.94.225,2.142-.712,2.685-.043.025-.089.039-.134.06l-.161-3.595Zm2.915,9.53c.129-.352.36-.671.685-.906.876-.635,2.105-.436,2.744.441.105.146.18.304.241.465h-3.67Zm5.416-2.598c-1.261-1.165-3.475-1.149-5.247.141-.913.664-1.531,1.546-1.831,2.457h-.824l-.197-4.376c.429-.117.858-.276,1.271-.514,1.919-1.109,2.831-3.156,2.242-4.792l.426-.246c1.417,2.418,2.945,4.762,4.574,7.029l-.415.302Zm.91,2.598c.07-.614-.022-1.211-.282-1.746l.4-.291c.507.689,1.034,1.363,1.561,2.037h-1.679Zm3.579,0c-.769-.957-1.523-1.926-2.252-2.915l8.523-6.193c1.413,1.915,2.915,3.758,4.493,5.533l-3.97,3.575h-6.793Zm11.462-2.781c.804.88,1.624,1.745,2.467,2.587.839.839,1.7,1.656,2.575,2.456l-5.869,6.518v-8.78h-2.262l3.089-2.781Zm21.543,45.803h-22.37v-18.173c.052.044.093.098.148.139,1.575,1.144,4.01.48,5.439-1.483,1.303-1.795,1.302-4.037.098-5.291l.301-.414c2.267,1.63,4.611,3.159,7.029,4.577l-.256.444c-1.625-.55-3.641.366-4.736,2.264-1.214,2.103-.831,4.599.856,5.573,1.685.974,4.04.058,5.253-2.046,1.109-1.919.874-4.151-.455-5.27l.254-.439c2.422,1.384,4.914,2.655,7.471,3.814l-.208.467c-1.672-.378-3.582.745-4.474,2.742-.989,2.225-.346,4.662,1.434,5.458,1.781.795,4.024-.364,5.014-2.583.9-2.026.434-4.222-1.005-5.193l.203-.454c1.629.715,3.274,1.396,4.952,2.016l-4.947,13.853Zm-9.834-14.762c-.542.94-1.743,1.26-2.685.717-.941-.548-1.268-1.75-.726-2.685.542-.94,1.744-1.255,2.686-.712.941.543,1.266,1.745.725,2.68Zm9.004,4.357c-.44.989-1.602,1.434-2.595.989-.993-.441-1.442-1.6-1.002-2.588.441-.989,1.604-1.435,2.596-.989.994.441,1.443,1.599,1.001,2.588Zm1.433-6.828l4.285-9.625c1.352.592,2.717,1.155,4.107,1.671l-3.546,9.928c-1.641-.607-3.253-1.274-4.847-1.973Zm7.98,10.22c-.144.441-.433.789-.793,1.025l.793-2.219c.12.377.132.791,0,1.195Zm-2.931,7.013l1.373-3.843c1.369-.287,2.645-1.471,3.193-3.161.514-1.577.245-3.164-.56-4.213l.339-.948c2.275.69,4.592,1.285,6.939,1.796l-.107.501c-1.714-.023-3.351,1.473-3.806,3.62-.507,2.374.63,4.628,2.536,5.035,1.906.402,3.861-1.192,4.365-3.572.461-2.166-.451-4.214-2.061-4.87l.102-.477c2.719.558,5.487.981,8.289,1.288l-.054.517c-1.708.157-3.179,1.815-3.408,3.996-.197,1.876.59,3.567,1.857,4.328h-18.999Zm20.394-1.517c-1.083-.116-1.866-1.081-1.754-2.157.113-1.081,1.083-1.856,2.164-1.745,1.081.117,1.866,1.081,1.752,2.157-.112,1.076-1.081,1.856-2.162,1.745Zm5.767,1.517h-4.164c1.129-.646,1.991-1.97,2.162-3.591.231-2.201-.892-4.147-2.559-4.63l.053-.503c1.493.146,2.995.258,4.508.33v8.394Zm3.869-18.107h-3.869v8.22c-1.46-.072-2.91-.181-4.352-.323l1.101-10.48c2.344.228,4.72.348,7.12.364v2.219Zm0-3.328c-2.361-.016-4.697-.134-7.003-.358l1.043-9.931c1.963.188,3.951.289,5.96.304v9.984Zm0-11.094c-1.97-.016-3.919-.115-5.844-.299l1.043-9.926c1.582.15,3.184.231,4.801.246v9.979Zm0-11.089c-1.578-.015-3.141-.094-4.685-.24l1.043-9.926c1.201.111,2.416.172,3.642.187v9.979Zm0-11.089c-1.188-.014-2.362-.074-3.525-.18l1.044-9.931c.819.072,1.646.114,2.481.127v9.984Zm0-11.089c-.796-.013-1.585-.053-2.366-.122l1.045-9.942c.437.035.877.057,1.321.067v9.997Zm0-11.107c-.404-.01-.806-.029-1.206-.061l.558-5.306.647-1.812v7.179Zm0-31.678l-1.204-11.462c.398-.032.8-.051,1.204-.061v11.523Zm0-12.628c-.443.01-.884.032-1.32.067l-1.045-9.942c.782-.069,1.57-.109,2.366-.122v9.997Zm0-11.107c-.835.013-1.662.055-2.481.127l-1.043-9.926c1.163-.106,2.338-.166,3.525-.18v9.979Zm0-11.089c-1.226.014-2.44.076-3.641.186l-1.043-9.927c1.544-.145,3.106-.224,4.684-.24v9.98Zm0-11.09c-1.617.015-3.219.096-4.8.246l-1.044-9.928c1.925-.184,3.874-.283,5.844-.299v9.981Zm0-11.09c-2.009.016-3.997.116-5.96.305l-1.043-9.929c2.306-.224,4.642-.342,7.003-.358v9.982Zm0-11.091c-2.4.016-4.774.136-7.119.364l-1.101-10.479c2.706-.265,5.449-.404,8.22-.42v10.535Zm46.627-5.565c.543-.939,1.745-1.258,2.685-.712.945.543,1.27,1.743.728,2.682-.543.937-1.746,1.255-2.686.713-.939-.544-1.265-1.745-.727-2.683Zm-9.004-4.357c.441-.99,1.604-1.433,2.598-.991s1.444,1.602,1.002,2.593c-.441.989-1.603,1.431-2.597.99-.993-.443-1.444-1.603-1.003-2.592Zm-.529,7.263c2.508,1.136,4.952,2.384,7.329,3.74l-5.267,9.123c-2.06-1.172-4.177-2.253-6.348-3.239l4.286-9.625Zm-27.564,76.229l9.979-5.762c.192.351.356.72.529,1.083l-10.508,4.679Zm10.958-3.724c.154.369.28.752.414,1.131l-10.934,3.553,10.52-4.684Zm-.449,17.61c-.172.363-.336.732-.528,1.083l-9.98-5.762,10.509,4.679Zm-10.062-5.636l10.926,3.55c-.134.379-.259.762-.414,1.13l-10.512-4.68Zm4.338-33.316c.717.334,1.42.692,2.109,1.075l-4.992,8.645c-.385-.211-.789-.391-1.187-.58l4.07-9.14Zm-5.028,8.689c-.405-.169-.824-.307-1.24-.454l3.091-9.513c.749.257,1.489.533,2.211.842l-4.062,9.125Zm-1.607,28.143l8.541,7.69c-.136.144-.26.3-.4.44-.144.144-.304.271-.452.41l-7.689-8.54Zm6.907,9.251c-.305.261-.621.507-.94.751l-6.753-9.295,7.693,8.544Zm-7.7-24.274l6.759-9.303c.32.244.635.491.94.752l-7.7,8.551Zm8.482-7.84c.148.14.309.267.452.411.14.139.262.294.398.437l-8.529,7.679,7.679-8.528Zm-1.917-2.992c-.362-.25-.739-.478-1.117-.708l5.004-8.667c.679.407,1.338.842,1.983,1.296l-5.871,8.079Zm3.525-10.862c-.721-.402-1.459-.778-2.212-1.128l4.06-9.118c1.071.493,2.12,1.027,3.143,1.603l-4.991,8.643Zm-5.195,11.113c.343.21.688.416,1.019.645l-6.774,9.324,5.756-9.969Zm1.019,36.238c-.33.228-.675.434-1.019.644l-5.754-9.967,6.773,9.322Zm.652.898l5.87,8.078c-.645.454-1.304.889-1.982,1.297l-5.003-8.666c.377-.23.754-.457,1.116-.708Zm.846-.632c.35-.267.696-.538,1.03-.825l6.684,7.423c-.594.519-1.202,1.021-1.833,1.496l-5.881-8.094Zm1.812-1.536c.163-.153.338-.292.494-.45.154-.154.291-.324.439-.483l7.428,6.688c-.268.286-.534.573-.812.851-.28.281-.57.551-.861.822l-6.689-7.428Zm.82-2.456l-8.543-7.692,9.296,6.753c-.245.319-.492.634-.753.939Zm-7.925-8.548l9.955,5.747c-.21.343-.417.687-.645,1.016l-9.31-6.764Zm0-11.044l9.31-6.764c.228.33.435.674.645,1.016l-9.954,5.747Zm-.62-.857l8.542-7.691c.262.304.509.62.753.938l-9.295,6.753Zm8.656-9.215c-.149-.157-.284-.327-.438-.48-.157-.158-.332-.297-.495-.45l6.691-7.431c.29.27.58.54.859.82.278.277.544.565.812.852l-7.43,6.69Zm-1.715-1.642c-.334-.287-.681-.557-1.031-.825l5.882-8.096c.631.475,1.24.977,1.834,1.495l-6.685,7.425Zm4.645-10.432c-.677-.476-1.368-.933-2.08-1.359l4.991-8.643c1.013.603,1.997,1.248,2.955,1.928l-5.866,8.074Zm2.549-11.49c-1.056-.594-2.139-1.146-3.246-1.656l4.06-9.118c1.426.652,2.819,1.362,4.176,2.13l-4.99,8.644Zm-4.211-2.092c-1.111-.479-2.248-.909-3.403-1.3l3.083-9.493c1.489.499,2.951,1.054,4.379,1.675l-4.06,9.118Zm-.451,1.014l-4.06,9.117c-.759-.324-1.534-.614-2.319-.883l3.084-9.492c1.118.378,2.219.794,3.295,1.258Zm-7.382,7.9c-.787-.242-1.59-.449-2.401-.634l2.075-9.762c1.154.259,2.295.552,3.413.899l-3.086,9.497Zm-.342,1.056l-3.089,9.507c-.421-.126-.85-.228-1.28-.329l2.08-9.782c.773.177,1.538.374,2.29.605Zm-2.431,10.898c.379.134.762.26,1.132.414l-4.684,10.517,3.552-10.931Zm2.09.864c.363.173.731.335,1.084.528l-5.762,9.98,4.678-10.507Zm1.083,38.509c-.351.192-.72.355-1.083.527l-4.676-10.503,5.759,9.976Zm-2.042.976c-.026.011-.053.019-.08.029l-.373-1.046.453,1.017Zm2.307,22.54c-.328.082-.66.155-.99.229l-1.577-7.418,2.567,7.189Zm-2.014-21.465c.052-.021.107-.036.159-.058l4.063,9.125c-.284.121-.572.231-.859.344l-3.362-9.411Zm1.116-.509c.399-.189.802-.369,1.188-.58l4.991,8.644c-.688.383-1.391.742-2.108,1.075l-4.07-9.14Zm6.732,9.024l4.991,8.643c-1.023.576-2.071,1.11-3.143,1.603l-4.06-9.119c.753-.35,1.491-.725,2.212-1.128Zm.917-.527c.712-.427,1.402-.883,2.079-1.359l5.866,8.073c-.958.68-1.942,1.326-2.956,1.929l-4.99-8.643Zm2.937-1.974c.663-.498,1.3-1.025,1.924-1.569l6.677,7.416c-.882.776-1.789,1.525-2.733,2.229l-5.868-8.077Zm2.711-2.275c.305-.283.61-.567.904-.862.291-.291.572-.592.852-.893l7.418,6.679c-.398.43-.798.857-1.213,1.271-.417.417-.847.822-1.281,1.222l-6.679-7.417Zm1.637-3.284l-7.423-6.684c.286-.334.558-.679.825-1.029l8.095,5.881c-.475.63-.978,1.239-1.496,1.832Zm-5.966-8.558c.25-.361.478-.738.708-1.114l8.667,5.004c-.407.678-.843,1.335-1.296,1.98l-8.079-5.87Zm1.257-2.018c.212-.385.393-.788.583-1.186l9.141,4.07c-.335.717-.694,1.42-1.078,2.108l-8.646-4.991Zm-10.164-8.278l11.236,2.388c-.093.391-.185.783-.299,1.165l-10.937-3.554Zm.214-1.034l11.431,1.202c-.052.399-.108.797-.182,1.19l-11.25-2.391Zm.141-1.049h11.465c-.01.402-.028.802-.061,1.199l-11.404-1.199Zm-.041-1.057l11.448-1.203c.031.398.051.799.061,1.203h-11.509Zm-.084-1.054l11.243-2.39c.072.392.13.79.181,1.189l-11.424,1.201Zm-.75-.919l11.457-3.723c.12.4.217.81.313,1.22l-11.771,2.502Zm11.266-7.262c-.189-.398-.371-.801-.582-1.187l8.646-4.991c.383.688.742,1.391,1.076,2.108l-9.14,4.07Zm-1.13-2.09c-.23-.376-.458-.752-.708-1.114l8.079-5.87c.454.644.889,1.302,1.296,1.98l-8.667,5.004Zm-1.342-1.96c-.268-.35-.539-.695-.826-1.028l7.426-6.686c.519.594,1.021,1.202,1.496,1.832l-8.095,5.882Zm5.867-10.132c-.294-.294-.599-.579-.904-.862l6.681-7.42c.433.4.863.804,1.279,1.22.415.414.816.842,1.213,1.272l-7.42,6.68c-.279-.3-.559-.601-.85-.891Zm-1.691-1.568c-.624-.544-1.262-1.072-1.924-1.569l5.869-8.078c.944.704,1.852,1.453,2.734,2.229l-6.679,7.418Zm3.737-11.156c-.99-.703-2.006-1.37-3.053-1.992l4.991-8.644c1.349.798,2.658,1.654,3.93,2.561l-5.868,8.075Zm1.575-12.123c-1.391-.787-2.818-1.515-4.279-2.183l4.059-9.118c1.781.811,3.519,1.697,5.211,2.658l-4.991,8.643Zm-5.245-2.619c-1.464-.636-2.962-1.205-4.487-1.717l3.084-9.493c1.859.62,3.681,1.315,5.462,2.092l-4.06,9.118Zm-5.487-2.055c-1.521-.478-3.073-.882-4.646-1.23l2.075-9.764c1.917.422,3.805.916,5.655,1.5l-3.085,9.494Zm-.343,1.055l-3.084,9.493c-1.155-.36-2.333-.662-3.525-.929l2.075-9.763c1.535.34,3.05.734,4.534,1.199Zm-7.644,8.337c-1.184-.236-2.386-.419-3.601-.559l1.043-9.926c1.564.178,3.111.413,4.633.719l-2.075,9.766Zm-.231,1.086l-2.075,9.765c-.808-.158-1.627-.283-2.454-.382l1.043-9.925c1.177.136,2.34.314,3.486.542Zm-2.306,10.851l-2.079,9.779c-.431-.081-.867-.143-1.306-.199l1.045-9.944c.789.095,1.569.214,2.339.364Zm-2.309,10.861l-2.394,11.264,1.203-11.446c.4.052.798.109,1.191.182Zm1.035.226c.392.093.784.187,1.167.301l-3.561,10.959,2.394-11.259Zm-1.938,42.405c-.096.014-.19.031-.287.044l-.126-1.2.413,1.156Zm.38,1.063l1.923,5.387.909,4.276c-.77.15-1.55.27-2.338.365l-1.045-9.944c.185-.023.367-.056.551-.084Zm3.062,10.745l2.077,9.769c-1.146.228-2.31.405-3.486.542l-1.044-9.929c.827-.099,1.646-.224,2.453-.382Zm2.307,10.855l2.077,9.765c-1.522.306-3.069.542-4.633.719l-1.043-9.925c1.215-.141,2.417-.324,3.6-.56Zm1.035-.227c.379-.085.76-.168,1.136-.262l3.368,9.43c-.802.217-1.613.414-2.429.595l-2.075-9.762Zm2.481-12.325c.313-.123.628-.243.937-.375l4.06,9.119c-.54.233-1.087.451-1.638.662l-3.359-9.406Zm5.448,9.756l4.06,9.118c-.795.346-1.602.672-2.417.98l-3.358-9.404c.577-.221,1.149-.45,1.715-.694Zm.965-.436c1.106-.509,2.189-1.061,3.246-1.656l4.99,8.643c-1.358.768-2.75,1.478-4.176,2.131l-4.06-9.118Zm4.163-2.183c1.046-.622,2.063-1.289,3.052-1.992l5.867,8.074c-1.271.907-2.581,1.763-3.929,2.561l-4.99-8.643Zm9.569,6.978l5.868,8.076c-1.584,1.133-3.217,2.2-4.902,3.193l-4.991-8.644c1.382-.817,2.723-1.695,4.025-2.624Zm-5.657-9.582c.975-.727,1.912-1.5,2.824-2.302l6.679,7.418c-1.17,1.034-2.38,2.026-3.637,2.958l-5.866-8.074Zm3.613-3.006c.448-.413.893-.831,1.324-1.262.428-.427.842-.868,1.252-1.313l7.42,6.68c-.526.573-1.061,1.139-1.611,1.689-.554.555-1.125,1.094-1.703,1.625l-6.681-7.419Zm2.456-4.106l-7.416-6.677c.544-.623,1.071-1.261,1.569-1.923l8.077,5.869c-.704.943-1.454,1.85-2.229,2.731Zm-5.232-9.457c.477-.676.933-1.366,1.359-2.077l8.645,4.99c-.604,1.013-1.25,1.995-1.93,2.953l-8.074-5.866Zm1.887-2.994c.402-.721.779-1.459,1.128-2.212l9.12,4.06c-.494,1.072-1.029,2.12-1.604,3.142l-8.644-4.99Zm.554-3.625l-9.125-4.062c.169-.405.307-.824.453-1.24l9.515,3.091c-.258.749-.535,1.488-.843,2.21Zm-8.329-6.302c.125-.419.227-.849.328-1.278l9.782,2.08c-.177.772-.374,1.537-.604,2.287l-9.506-3.089Zm.556-2.309c.082-.43.143-.866.2-1.305l9.943,1.045c-.095.788-.215,1.568-.365,2.338l-9.778-2.078Zm.314-2.356c.035-.435.055-.874.065-1.315h9.998c-.013.794-.054,1.581-.123,2.36l-9.941-1.045Zm.069-2.372c-.01-.443-.032-.882-.067-1.319l9.943-1.045c.068.78.107,1.569.12,2.364h-9.996Zm-.176-2.371c-.055-.438-.119-.874-.199-1.304l9.779-2.079c.149.77.269,1.55.362,2.337l-9.943,1.045Zm-.422-2.335c-.105-.448-.211-.896-.341-1.333l9.505-3.088c.237.768.438,1.551.618,2.342l-9.782,2.079Zm-.685-2.335c-.146-.416-.285-.836-.454-1.24l9.124-4.062c.31.723.586,1.463.844,2.211l-9.514,3.092Zm9.247-6.714c-.351-.753-.727-1.49-1.129-2.212l8.643-4.991c.576,1.023,1.111,2.071,1.605,3.142l-9.119,4.06Zm-1.656-3.128c-.426-.711-.882-1.401-1.359-2.077l8.074-5.866c.681.958,1.326,1.94,1.929,2.953l-8.644,4.99Zm-1.976-2.936c-.498-.662-1.024-1.3-1.569-1.922l7.418-6.679c.776.882,1.525,1.789,2.229,2.732l-8.078,5.869Zm4.717-11.441c-.431-.432-.876-.849-1.324-1.263l6.683-7.422c.578.531,1.148,1.069,1.702,1.623.551.551,1.085,1.117,1.612,1.691l-7.422,6.682c-.41-.444-.823-.885-1.25-1.312Zm-2.113-1.967c-.912-.802-1.85-1.576-2.824-2.303l5.868-8.076c1.257.933,2.466,1.924,3.638,2.959l-6.681,7.42Zm2.835-11.886c-1.304-.93-2.644-1.807-4.027-2.624l4.991-8.643c1.684.992,3.318,2.06,4.902,3.193l-5.866,8.074Zm.601-12.754c-1.725-.98-3.497-1.884-5.313-2.711l4.061-9.119c2.135.97,4.218,2.032,6.244,3.186l-4.991,8.644Zm-6.278-3.148c-1.816-.792-3.675-1.501-5.57-2.133l3.085-9.494c2.228.74,4.412,1.575,6.545,2.508l-4.06,9.119Zm-6.57-2.472c-1.887-.596-3.813-1.101-5.768-1.53l2.076-9.765c2.297.503,4.56,1.098,6.776,1.801l-3.084,9.494Zm-6.801-1.764c-1.935-.393-3.904-.692-5.896-.915l1.043-9.928c2.342.26,4.655.61,6.929,1.075l-2.076,9.768Zm-.23,1.085l-2.076,9.767c-1.559-.315-3.145-.555-4.749-.737l1.043-9.927c1.953.219,3.883.511,5.781.897Zm-6.715-2.114c-1.962-.188-3.951-.289-5.959-.305v-9.982c2.361.016,4.697.134,7.003.358l-1.043,9.929Zm-.116,1.103l-1.044,9.928c-1.582-.149-3.182-.23-4.8-.245v-9.981c1.969.016,3.919.114,5.844.299Zm-1.16,11.032l-1.043,9.927c-1.201-.11-2.415-.172-3.641-.186v-9.98c1.578.015,3.141.094,4.684.24Zm-1.159,11.031l-1.043,9.926c-.819-.072-1.646-.114-2.481-.127v-9.979c1.188.014,2.362.073,3.525.18Zm-1.16,11.029l-1.045,9.943c-.436-.035-.876-.057-1.32-.067v-9.997c.796.013,1.584.053,2.365.121Zm-1.161,11.042l-1.205,11.459v-11.52c.405.01.807.029,1.205.061Zm-.581,37.549l.581,5.53c-.398.032-.8.051-1.205.061v-7.335l.624,1.744Zm.698,6.634l1.044,9.943c-.781.068-1.569.109-2.365.121v-9.997c.443-.01.884-.031,1.321-.067Zm1.16,11.042l1.044,9.931c-1.163.107-2.338.166-3.525.18v-9.984c.834-.013,1.662-.055,2.481-.127Zm1.16,11.034l1.043,9.926c-1.543.145-3.106.225-4.684.24v-9.979c1.227-.014,2.44-.076,3.641-.187Zm1.159,11.03l1.043,9.926c-1.925.184-3.875.283-5.844.299v-9.979c1.618-.015,3.218-.096,4.8-.246Zm1.159,11.03l1.044,9.931c-2.306.224-4.642.342-7.003.358v-9.984c2.009-.016,3.997-.116,5.959-.304Zm.935-1.218l-1.043-9.925c1.603-.182,3.188-.423,4.747-.737l2.076,9.765c-1.897.385-3.828.678-5.78.897Zm4.738-10.892c.865-.192,1.721-.402,2.571-.633l3.364,9.419c-1.272.362-2.558.69-3.86.976l-2.075-9.762Zm6.309,9.832l3.366,9.423c-1.74.513-3.504.967-5.292,1.358l-2.077-9.767c1.351-.297,2.684-.638,4.003-1.015Zm1.33-12.106c.842-.318,1.673-.655,2.495-1.012l4.059,9.118c-1.052.458-2.115.893-3.194,1.298l-3.359-9.404Zm3.459-1.448c1.461-.668,2.889-1.396,4.28-2.183l4.991,8.644c-1.692.96-3.431,1.847-5.211,2.658l-4.06-9.118Zm9.824,7.419l4.992,8.647c-2.026,1.154-4.108,2.216-6.244,3.186l-4.061-9.122c1.816-.827,3.588-1.731,5.313-2.711Zm.916-.527c1.718-1.012,3.384-2.101,5-3.257l5.869,8.078c-1.897,1.361-3.855,2.638-5.876,3.826l-4.993-8.647Zm-.658-12.839c1.288-.955,2.527-1.971,3.726-3.031l6.681,7.42c-1.459,1.293-2.971,2.527-4.54,3.688l-5.868-8.076Zm4.517-3.734c.592-.543,1.176-1.094,1.744-1.663.564-.564,1.112-1.145,1.653-1.733l7.422,6.682c-.658.718-1.326,1.425-2.014,2.113-.691.691-1.401,1.363-2.123,2.023l-6.683-7.422Zm3.277-4.926l-7.418-6.679c.802-.911,1.576-1.848,2.303-2.822l8.074,5.866c-.933,1.256-1.925,2.465-2.959,3.635Zm-4.503-10.361c.702-.989,1.37-2.004,1.992-3.05l8.642,4.99c-.798,1.348-1.654,2.656-2.561,3.927l-8.074-5.866Zm2.52-3.967c.595-1.056,1.147-2.139,1.658-3.246l9.117,4.059c-.654,1.426-1.364,2.819-2.132,4.176l-8.642-4.99Zm1.079-4.659l-9.12-4.06c.324-.758.615-1.533.884-2.319l9.496,3.085c-.379,1.118-.795,2.218-1.26,3.294Zm-7.9-7.382c.243-.787.448-1.589.634-2.4l9.767,2.076c-.26,1.153-.553,2.293-.901,3.41l-9.5-3.087Zm.857-3.431c.159-.807.284-1.626.383-2.452l9.93,1.044c-.137,1.176-.315,2.34-.543,3.485l-9.77-2.077Zm.496-3.504c.072-.817.114-1.642.128-2.475h9.983c-.015,1.185-.075,2.358-.182,3.519l-9.93-1.044Zm.129-3.532c-.013-.834-.055-1.661-.126-2.479l9.931-1.044c.106,1.162.166,2.337.18,3.523h-9.984Zm-.235-3.531c-.099-.827-.224-1.645-.381-2.452l9.77-2.077c.227,1.146.404,2.309.54,3.484l-9.929,1.044Zm-.601-3.484c-.188-.829-.399-1.65-.647-2.455l9.499-3.086c.353,1.134.651,2.293.914,3.465l-9.766,2.076Zm-.982-3.459c-.27-.786-.561-1.561-.885-2.32l9.119-4.06c.465,1.076.882,2.177,1.261,3.295l-9.495,3.085Zm7.154-11.037l8.644-4.991c.768,1.357,1.479,2.75,2.133,4.176l-9.119,4.06c-.51-1.107-1.062-2.189-1.657-3.245Zm-.526-.916c-.622-1.046-1.29-2.061-1.993-3.05l8.076-5.868c.907,1.271,1.763,2.579,2.561,3.927l-8.644,4.991Zm-2.605-3.911c-.727-.974-1.5-1.911-2.302-2.822l7.42-6.681c1.034,1.17,2.025,2.379,2.958,3.635l-8.077,5.868Zm3.585-12.768c-.568-.567-1.151-1.118-1.742-1.661l6.68-7.419c.722.66,1.432,1.333,2.124,2.025.687.687,1.355,1.393,2.011,2.109l-7.419,6.68c-.541-.588-1.089-1.17-1.653-1.734Zm-2.533-2.363c-1.2-1.06-2.439-2.076-3.727-3.032l5.867-8.074c1.569,1.161,3.081,2.396,4.539,3.689l-6.679,7.417Zm1.931-12.614c-1.615-1.156-3.282-2.245-5-3.257l4.991-8.644c2.021,1.187,3.979,2.465,5.875,3.826l-5.867,8.075Zm-11.315-36.906c.334-1.032,1.444-1.594,2.481-1.258,1.033.334,1.6,1.443,1.265,2.473-.334,1.03-1.444,1.592-2.476,1.256-1.037-.335-1.604-1.444-1.27-2.472Zm.234,7.272c2.617.867,5.18,1.848,7.682,2.946l-4.285,9.625c-2.168-.949-4.389-1.797-6.654-2.55l3.256-10.02Zm-9.947-9.664c.224-1.059,1.271-1.735,2.332-1.507,1.067.224,1.746,1.267,1.518,2.327-.223,1.059-1.265,1.734-2.332,1.507-1.062-.227-1.744-1.269-1.518-2.327Zm.993,7.208c2.699.588,5.354,1.29,7.954,2.117l-3.255,10.021c-2.253-.715-4.553-1.321-6.889-1.832l2.19-10.306Zm-10.904-8.569c.113-1.077,1.081-1.857,2.163-1.743,1.082.114,1.868,1.078,1.754,2.155-.114,1.077-1.083,1.858-2.164,1.742-1.082-.113-1.867-1.078-1.753-2.154Zm1.739,7.068c2.75.302,5.465.716,8.132,1.263l-2.19,10.307c-2.311-.472-4.663-.829-7.042-1.093l1.101-10.477Zm-1.05-.117l-1.102,10.479c-2.343-.228-4.719-.348-7.119-.364v-10.535c2.772.016,5.515.155,8.22.42Zm-10.688-7.268c0-1.082.881-1.96,1.969-1.96s1.97.878,1.97,1.96-.883,1.96-1.97,1.96-1.969-.877-1.969-1.96Zm2.468,175.951v-2.219c2.401-.016,4.775-.136,7.119-.364l.271,2.582h-7.391Zm7.011-13.731c1.991-.223,3.959-.521,5.895-.915l2.077,9.77c-2.273.464-4.587.815-6.928,1.074l-1.043-9.93Zm1.443,13.731l-.284-2.698c2.379-.263,4.731-.62,7.042-1.093l.806,3.791h-7.564Zm8.646,0l-.855-4.028c1.837-.402,3.649-.868,5.436-1.397l1.938,5.425h-6.518Zm5.903-17.553c1.105-.414,2.195-.86,3.272-1.33l4.061,9.122c-1.307.572-2.628,1.116-3.973,1.616l-3.36-9.408Zm6.269,17.553l-2.536-7.101c1.371-.51,2.719-1.065,4.051-1.648l3.895,8.749h-5.41Zm6.569,0l-4.089-9.185c2.171-.986,4.288-2.066,6.348-3.24l5.268,9.124c-2.068,1.181-4.186,2.286-6.355,3.3h-1.171Zm7.596,0h-3.041c1.257-.641,2.497-1.31,3.718-2.007l.27.467c-.456.4-.771.932-.947,1.54Zm6.216-.461c-1.159-1.48-2.915-2.135-4.357-1.615l-.265-.458c1.569-.92,3.115-1.872,4.622-2.882v4.955Zm0-6.769c-1.745,1.199-3.537,2.329-5.368,3.403l-5.268-9.124c2.053-1.207,4.044-2.506,5.972-3.89l4.664,6.419v3.193Zm0-4.987l-3.804-5.236c1.299-.959,2.567-1.959,3.804-2.995v8.23Zm0-9.695c-1.443,1.239-2.923,2.433-4.455,3.564l-5.868-8.077c1.601-1.184,3.141-2.443,4.628-3.762l5.695,6.325v1.951Zm0-3.531l-4.903-5.445c.736-.673,1.46-1.358,2.165-2.063.702-.701,1.384-1.422,2.054-2.154l.685.616v9.046Zm0-12.121c-.267.312-.533.623-.805.929l-7.419-6.68c1.061-1.199,2.077-2.437,3.033-3.725l5.191,3.771v5.705Zm0-7.009l-4.58-3.327c.93-1.302,1.808-2.642,2.625-4.023l1.955,1.128v6.222Zm0-7.443l-1.428-.824c.499-.88.976-1.773,1.428-2.681v3.505Zm0-6.598l-8.937-3.979c.48-1.111.911-2.247,1.301-3.402l7.636,2.481v4.901Zm0-6.012l-7.297-2.371c.36-1.153.664-2.331.931-3.522l6.366,1.353v4.54Zm0-5.62l-6.139-1.305c.236-1.183.419-2.385.561-3.6l5.579.586v4.319Zm0-5.382l-5.465-.574c.11-1.199.172-2.411.187-3.635h5.278v4.209Zm0-5.266h-5.276c-.014-1.225-.075-2.439-.185-3.639l5.461-.574v4.213Zm0-5.277l-5.572.586c-.14-1.214-.322-2.416-.558-3.599l6.13-1.303v4.317Zm0-5.396l-6.354,1.351c-.27-1.21-.579-2.406-.944-3.577l7.298-2.371v4.598Zm0-5.712l-7.639,2.482c-.391-1.155-.822-2.292-1.302-3.403l8.941-3.981v4.902Zm0-7.99c-.452-.909-.93-1.803-1.428-2.683l1.428-.825v3.508Zm0-4.728l-1.955,1.128c-.817-1.381-1.695-2.722-2.625-4.024l4.58-3.327v6.222Zm0-7.529l-5.192,3.772c-.956-1.287-1.972-2.526-3.032-3.725l7.417-6.678c.272.307.539.619.807.931v5.7Zm0-8.779l-.685.616c-.67-.732-1.353-1.452-2.054-2.154-.705-.705-1.428-1.39-2.164-2.062l4.902-5.443v9.043Zm0-10.624l-5.694,6.323c-1.487-1.319-3.028-2.578-4.629-3.762l5.866-8.075c1.533,1.131,3.014,2.326,4.457,3.565v1.949Zm0-3.416c-1.237-1.036-2.505-2.035-3.805-2.995l3.805-5.235v8.23Zm0-10.025l-4.664,6.419c-1.929-1.383-3.919-2.682-5.973-3.889l5.268-9.123c1.832,1.074,3.625,2.205,5.37,3.403v3.19Zm0-5.005c-1.507-1.01-3.054-1.963-4.623-2.883l.266-.461c1.442.52,3.199-.132,4.357-1.61v4.954Zm528.288-27.784c-.064.014-.126.03-.189.044.084-.131.149-.374.189-.669v.625Z"/></g><path class="cls-6" d="m734.901,409.035l-3.478.152-9.442,9.213-8.447-8.41-3.056.156-9.291,9.25-8.062-8.295h-3.556l-9.328,9.287-8.103-8.484h-3.593l-9.672,9.402-8.181-8.562h-3.593l-9.442,9.135-7.685-8.025h-3.593l-9.401,9.098h-.271l-8.062-8.41h-3.597l-9.479,9.213-7.833-8.222h-3.597l-9.287,8.984-7.988-8.332h-3.593l-9.52,9.25h-.267l-7.915-8.255h-3.592l-9.402,9.094h-.115l-8.066-8.447h-3.593l-9.213,8.947-7.915-8.259h-3.593l-9.401,9.135-7.8-8.14h-3.593l-9.401,10.168-4.625.193-7.648-9.672h-2.711l-8.447,10.09-7.529-9.672h-2.716l-8.713,10.401-7.648-9.787h-2.712l-8.566,10.245-7.415-9.52h-2.675l-8.791,10.475-7.8-9.979h-2.712l-8.447,10.131-7.378-9.479h-2.716l-8.562,10.245-7.415-9.52h-2.716l-8.521,10.208-7.419-9.479h-2.675l-8.484,10.127-7.456-9.516h-2.716l-8.599,10.282-7.566-9.709h-2.716l-8.447,10.053-7.529-9.709h-2.716l-8.64,10.319-7.493-9.672h-2.712l-8.64,10.323-7.492-9.672h-2.712l-8.754,10.475-7.648-9.823h-2.712l-8.791,10.512-7.644-9.823h-2.679l-8.599,10.241-7.529-10.053h-2.716l-8.713,10.819-7.722-10.282h-2.716l-8.828,10.934-7.57-10.131h-2.712l-8.562,10.589-7.418-9.901h-2.712l-8.832,10.97-7.452-9.938h-2.716l-8.713,10.819-7.759-10.401h-2.716l-8.906,11.048-.037.037-7.57-10.09h-2.712l-8.64,10.741h-.307l-7.529-10.282h-2.716l-8.599,10.97h-.193l-7.681-10.282h-2.716l-8.869,10.663-.496.307v1.606l110.852-3.9,44.038-1.413,150.646-4.969,159.167-5.694,2.143-1.073,266.466-10.471v-1.032l.152-.041-.152-.115v-.418h-.344l-8.295-8.947h0Zm-10.585,9.709c2.102-2.101,5.616-5.657,7.529-7.529v7.226l-7.529.303h0Zm10.089-.418v-6.96c1.758,1.798,4.781,4.895,6.575,6.731l-6.575.229h0Zm-30.924,1.221c2.143-2.102,5.505-5.543,7.378-7.337v7.034l-7.378.303h0Zm9.901-.381v-6.841c1.835,1.872,4.932,4.776,6.726,6.575l-6.726.266h0Zm-30.695,1.221c2.142-2.061,5.505-5.35,7.377-7.107v6.804l-7.377.303h0Zm9.901-.418v-6.575c1.757,1.757,4.739,4.547,6.534,6.309l-6.534.266h0Zm-31.077,1.221c2.139-2.061,5.617-5.579,7.53-7.415v7.112l-7.53.303h0Zm10.09-.381v-6.919c1.757,1.835,4.777,4.818,6.575,6.653l-6.575.266h0Zm-31.42,1.225c2.139-2.102,5.543-5.62,7.415-7.419v7.148l-7.415.27h0Zm9.975-.385v-6.919c1.798,1.876,4.932,4.858,6.73,6.653l-6.73.266h0Zm-30.581,1.188c2.143-2.065,5.469-5.354,7.341-7.111v6.841l-7.341.27h0Zm9.865-.385v-6.612c1.757,1.835,4.776,4.588,6.575,6.346l-6.575.266h0Zm-31.191,1.225c2.139-2.102,5.502-5.506,7.337-7.263v6.997l-7.337.266h0Zm9.86-.381v-6.767c1.758,1.798,4.74,4.703,6.538,6.497l-6.538.27h0Zm-30.769,1.221c2.139-2.102,5.465-5.35,7.3-7.148v6.845l-7.3.303h0Zm9.86-.381v-6.612c1.758,1.757,4.703,4.547,6.498,6.345l-6.498.266h0Zm-30.732,1.184c2.175-2.102,5.465-5.502,7.337-7.263v6.997l-7.337.266h0Zm9.86-.381v-6.767c1.757,1.798,4.703,4.703,6.538,6.538l-6.538.229h0Zm-31.154,1.221c2.143-2.061,5.469-5.35,7.304-7.108v6.841l-7.304.266h0Zm9.865-.381v-6.612c1.757,1.757,4.699,4.547,6.497,6.345l-6.497.266h0Zm-31.232,1.225c2.143-2.065,5.62-5.469,7.493-7.3v6.993l-7.493.307h0Zm10.053-.385v-6.8c1.757,1.794,4.703,4.74,6.501,6.534l-6.501.266h0Zm-30.732,1.188c2.142-2.065,5.579-5.583,7.492-7.419v7.148l-7.492.27h0Zm10.016-.385v-6.919c1.794,1.835,4.892,4.859,6.649,6.653l-6.649.266h0Zm-30.847,2.179c2.79-2.868,7.529-8.218,7.529-8.218v6.956l-2.752.115-2.143,1.073-2.634.074h0Zm10.053-1.335v-6.767c1.794,1.835,4.854,4.703,6.649,6.497l-6.649.27h0Zm-33.907,2.179c1.95-2.335,4.969-5.964,6.648-8.029v7.8l-6.648.229h0Zm8.984-.307v-7.57c1.605,2.106,4.432,5.735,5.809,7.378l-5.809.193h0Zm-27.869.995c1.95-2.335,5.083-6.157,6.845-8.259v8.029l-6.845.229h0Zm9.139-.307v-7.8c1.602,2.028,4.24,5.469,5.883,7.57l-5.883.229h0Zm-28.213.991c1.95-2.368,5.125-6.268,6.882-8.369v8.144l-6.882.225h0Zm9.176-.303v-7.915c1.602,2.065,4.354,5.584,5.96,7.685l-5.96.229h0Zm-27.869.991c1.95-2.368,5.121-6.231,6.841-8.332v8.066l-6.841.266h0Zm9.176-.344v-7.833c1.643,2.061,4.396,5.543,6.038,7.603l-6.038.229h0Zm-28.557,1.032c1.913-2.331,5.199-6.345,6.96-8.484v8.218l-6.96.266h0Zm9.254-.344v-8.025c1.679,2.102,4.469,5.735,6.112,7.796l-6.112.229h0Zm-27.791.995c1.95-2.331,5.158-6.382,6.956-8.525v8.259l-6.956.266h0Zm9.25-.344v-8.029c1.68,2.142,4.547,5.776,6.153,7.8l-6.153.229h0Zm-27.906.995c1.95-2.335,5.162-6.309,6.919-8.41v8.181l-6.919.229h0Zm9.213-.307v-7.988c1.684,2.138,4.51,5.694,6.153,7.759l-6.153.229h0Zm-27.828.995c1.95-2.372,5.121-6.272,6.919-8.373v8.103l-6.919.27h0Zm9.213-.344v-7.915c1.643,2.142,4.469,5.62,6.075,7.685l-6.075.229h0Zm-27.869.954c1.95-2.331,5.162-6.268,6.956-8.41v8.181l-6.956.229h0Zm9.25-.307v-7.951c1.647,2.106,4.474,5.657,6.079,7.763l-6.079.188h0Zm-28.287.918c1.95-2.294,5.276-6.268,7.075-8.447v8.218l-7.075.229h0Zm9.369-.303v-7.992c1.643,2.142,4.51,5.735,6.112,7.8l-6.112.193h0Zm-28.176.954c1.913-2.294,5.354-6.497,7.189-8.717v8.451l-7.189.266h0Zm9.483-.344v-8.259c1.68,2.179,4.625,6.001,6.231,8.066l-6.231.193h0Zm-28.287.954c1.909-2.294,5.313-6.497,7.145-8.676v8.447l-7.145.229h0Zm9.438-.307v-8.255c1.721,2.216,4.74,6.001,6.309,8.025l-6.309.229h0Zm-28.246.918c1.909-2.29,5.272-6.46,7.108-8.635v8.406l-7.108.229h0Zm9.402-.303v-8.181c1.72,2.179,4.74,5.924,6.309,7.951l-6.309.229h0Zm-28.516.954c1.913-2.331,5.276-6.46,7.112-8.64v8.373l-7.112.266h0Zm9.401-.344v-8.14c1.721,2.175,4.703,5.924,6.272,7.947l-6.272.193h0Zm-28.512.955c1.909-2.331,5.272-6.419,7.107-8.599v8.369l-7.107.229h0Zm9.402-.303v-8.144c1.684,2.179,4.662,5.887,6.268,7.951l-6.268.193h0Zm-28.25.918c1.913-2.372,5.276-6.616,7.112-8.906v8.676l-7.112.229h0Zm9.406-.307v-8.447c1.721,2.253,4.662,6.116,6.268,8.255l-6.268.193h0Zm-28.557.955c1.913-2.409,5.276-6.763,7.111-9.057v8.828l-7.111.229h0Zm9.442-.303v-8.603c1.684,2.294,4.703,6.268,6.271,8.373l-6.271.229h0Zm-28.438.918c1.909-2.45,5.198-6.653,6.993-8.869v8.64l-6.993.229h0Zm9.287-.307v-8.41c1.721,2.257,4.703,6.079,6.272,8.181l-6.272.229h0Zm-27.791.918c1.95-2.487,5.088-6.612,6.809-8.754v8.525l-6.809.229h0Zm9.099-.307v-8.296c1.684,2.22,4.551,5.928,6.157,8.066l-2.946.115-3.211.115h0Zm-28.016.995c1.95-2.446,5.042-6.309,6.727-8.447v8.181l-6.727.266h0Zm9.057-.344v-7.951c1.606,2.179,4.359,5.62,5.965,7.759l-5.965.193h0Zm-28.25.991c1.95-2.483,5.01-6.534,6.73-8.635v8.41l-6.73.225h0Zm9.025-.303v-8.181c1.605,2.138,4.317,5.772,5.96,7.988l-5.96.193h0Zm-28.062.991c1.95-2.483,4.896-6.268,6.579-8.332v8.103l-6.579.229h0Zm8.869-.303v-7.874c1.606,2.102,4.281,5.502,5.928,7.644l-5.928.229h0Zm-28.131.991c1.95-2.446,4.928-6.231,6.612-8.291v8.025l-6.612.266h0Zm8.943-.344v-7.796c1.528,2.024,4.129,5.428,5.772,7.607l-5.772.188h0Zm-28.365,1.032c1.95-2.446,5.084-6.382,6.846-8.562v8.295l-6.846.266h0Zm9.14-.344v-8.066c1.565,2.065,4.203,5.661,5.846,7.878l-5.846.188h0Z"/><path class="cls-6" d="m1419.283,409.112h-3.588l-8.185,8.484c-.647-.037-.991-.037-.991-.037l.271,1.757s56.499,2.868,86.69,3.556c30.2.725,188.301,7.112,188.301,7.112l4.965.381s41.744,1.68,44.152,1.68c2.368,0,83.561,3.482,83.561,3.482l131.417,3.744,134.169,4.777-.262-1.757-1.835-.074-10.552-11.814h-2.368l-8.832,10.59-10.012-11.163h-2.376l-8.824,10.59-9.979-11.122h-2.368l-8.832,10.626h-.074l-10.094-11.278h-2.409l-8.676,10.397-10.25-11.466h-2.4l-8.873,10.7-10.012-11.159h-2.409l-8.717,10.471-9.897-11.044h-2.409l-8.717,10.471-.574-.037-8.906-10.97h-2.138l-7.529,10.053-8.677-10.7h-2.179l-7.685,10.241-8.791-10.893h-2.18l-7.841,10.397-8.938-11.085h-2.179l-7.726,10.282-8.865-11.007h-2.147l-7.759,10.282-8.865-10.971h-2.138l-7.8,10.356-8.833-10.93h-2.138l-7.341,9.782-8.406-10.397h-2.146l-8.136,10.819-8.603-10.626h-2.139l-7.415,9.901h-.082l-9.021-11.163h-2.138l-7.726,10.245-8.792-10.856h-2.138l-7.685,10.204-8.75-10.815h-2.18l-7.382,9.823-8.906-10.475h-2.253l-7.947,10.053-4.097-.307-9.938-9.594h-3.629l-7.915,8.259-9.283-8.947h-3.597l-7.947,8.259-9.52-9.176h-3.597l-7.988,8.295-9.479-9.172h-3.63l-7.947,8.296-9.52-9.176h-3.597l-8.25,8.562-9.521-9.135h-3.597l-7.988,8.295-9.25-8.906h-3.588l-8.07,8.332-9.635-9.25h-3.63l-7.914,8.218-9.168-8.828h-3.597l-8.177,8.484-9.479-9.098h-3.597l-8.177,7.837-9.291-9.098h-3.597l-8.062,8.336-9.479-9.098h-3.597l-7.874,8.14-9.291-8.943h0Zm7.227,9.401c-2.786-.115-5.391-.229-7.718-.344v-7.185c1.982,1.872,5.62,5.506,7.718,7.529h0Zm-10.282-.496c-2.671-.115-4.892-.229-6.497-.307,1.794-1.835,4.744-4.854,6.497-6.612v6.919h0Zm30.699,1.413c-2.523-.115-4.973-.229-7.382-.303v-7.378c1.876,1.794,5.203,5.502,7.382,7.681h0Zm-9.938-.418c-2.376-.115-4.703-.229-6.882-.307,1.753-1.798,5.006-4.932,6.882-6.841v7.148h0Zm31.683,1.299c-2.638-.078-5.309-.193-8.021-.307v-7.493c2.065,1.987,5.924,5.813,8.021,7.8h0Zm-10.544-.381c-2.22-.115-4.399-.193-6.579-.307,1.794-1.872,4.777-5.198,6.579-6.956v7.263h0Zm31.109,1.069c-2.409-.041-4.892-.115-7.489-.229v-6.997c1.909,1.835,5.35,5.162,7.489,7.226h0Zm-10.053-.307c-2.294-.078-4.703-.151-7.103-.229,1.712-1.721,5.153-4.588,7.103-6.538v6.767h0Zm31.347.954c-2.753-.115-5.235-.188-7.529-.266v-6.997c1.909,1.835,5.391,5.203,7.529,7.263h0Zm-10.094-.344c-2.556-.074-4.81-.115-6.612-.152,1.802-1.835,4.858-4.818,6.612-6.612v6.763h0Zm30.74,1.073c-2.605-.115-5.088-.193-7.497-.27v-7.107c1.909,1.794,5.35,5.272,7.497,7.378h0Zm-10.02-.385c-2.327-.074-4.547-.151-6.686-.229,1.794-1.794,4.85-4.813,6.686-6.649v6.878h0Zm31.347,1.188c-2.564-.115-5.047-.193-7.497-.307v-6.919c1.876,1.798,5.317,5.121,7.497,7.226h0Zm-10.094-.385c-2.212-.074-4.433-.188-6.612-.266,1.794-1.798,4.858-4.662,6.612-6.46v6.727h0Zm31.117,1.147c-2.564-.074-5.121-.188-7.685-.266v-7.148c1.95,1.872,5.579,5.391,7.685,7.415h0Zm-10.241-.381c-2.221-.078-4.441-.151-6.653-.229,1.794-1.835,4.85-4.854,6.653-6.653v6.882h0Zm31.723,1.225c-2.597-.078-5.203-.193-7.8-.307v-7.341c1.991,1.913,5.662,5.62,7.8,7.648h0Zm-10.356-.385c-2.294-.115-4.588-.188-6.841-.266,1.753-1.798,4.965-4.969,6.841-6.882v7.148h0Zm31.379,1.225c-2.564-.115-5.162-.229-7.759-.307v-7.3c1.991,1.913,5.621,5.543,7.759,7.607h0Zm-10.323-.422c-2.294-.074-4.58-.188-6.915-.266,1.762-1.757,5.047-4.854,6.915-6.804v7.071h0Zm31.347,1.225c-2.523-.078-5.08-.193-7.718-.307v-7.222c1.982,1.872,5.58,5.502,7.718,7.529h0Zm-10.241-.385c-2.253-.115-4.547-.188-6.882-.266,1.762-1.794,5.006-4.854,6.882-6.763v7.03h0Zm31.338,1.225c-2.441-.078-5.006-.193-7.718-.307v-7.185c1.991,1.872,5.579,5.469,7.718,7.493h0Zm-10.274-.381c-2.18-.115-4.474-.193-6.85-.27,1.802-1.794,4.973-4.813,6.85-6.686v6.956h0Zm31.379,1.262c-1.762-.078-4.515-.193-8.029-.344v-7.304c2.064,1.95,5.964,5.657,8.029,7.648h0Zm-10.585-.459c-2.065-.078-4.359-.156-6.85-.27,1.762-1.757,4.973-4.891,6.85-6.804v7.075h0Zm34.132,1.528c-2.368-.078-4.662-.152-6.726-.266v-7.493c1.679,1.909,4.662,5.428,6.726,7.759h0Zm-9.135-.344c-2.482-.115-4.514-.193-5.776-.229,1.762-2.142,4.244-5.198,5.776-7.071v7.3h0Zm27.332,1.069c-1.991-.074-4.17-.152-6.464-.266v-7.57c1.646,1.95,4.514,5.469,6.464,7.837h0Zm-8.758-.344c-1.835-.074-3.67-.152-5.465-.229,1.647-2.138,4.015-5.272,5.465-7.108v7.337h0Zm27.414,1.032c-2.72-.115-4.932-.229-6.505-.266v-7.644c1.647,1.987,4.556,5.543,6.505,7.91h0Zm-9.029-.344c-.492,0-2.523-.074-5.498-.188,1.639-2.106,4.203-5.313,5.694-7.263v7.452h-.197Zm27.562,1.11c-2.212-.115-4.359-.193-6.382-.266v-7.8c1.606,1.913,4.433,5.62,6.382,8.066h0Zm-8.676-.381c-2.065-.078-3.974-.156-5.809-.229,1.68-2.106,4.244-5.354,5.809-7.341v7.57h0Zm46.823,1.987c-2.212-.115-4.547-.193-6.989-.307v-8.295c1.794,2.179,5.08,6.272,6.989,8.603h0Zm-9.324-.385c-1.868-.115-3.859-.188-5.809-.266,1.647-2.179,4.244-5.809,5.809-7.796v8.062h0Zm-10.012-.459c-2.18-.074-4.359-.188-6.538-.266v-7.3c1.646,1.987,4.547,5.276,6.538,7.566h0Zm-8.874-.381c-1.868-.078-3.785-.115-5.612-.229,1.679-2.024,4.121-4.891,5.612-6.804v7.034h0Zm46.103,1.987s-2.679-.115-6.997-.303v-8.447c1.835,2.253,5.317,6.497,7.186,8.75h-.188Zm-9.324-.418c-1.835-.078-3.867-.156-6.046-.229,1.647-2.102,4.399-5.85,6.046-7.951v8.181h0Zm28.208.954l-7.152-.229v-8.488c1.876,2.179,5.276,6.423,7.152,8.717h0Zm-9.446-.266l-6.341-.193c1.532-1.987,4.588-5.887,6.341-8.144v8.336h0Zm28.061.803l-6.997-.229v-8.336c1.794,2.143,5.047,6.231,6.997,8.566h0Zm-9.291-.27l-6.309-.188c1.606-2.028,4.588-5.735,6.309-7.951v8.14h0Zm27.906.766l-6.841-.193v-8.14c1.762,2.101,4.932,6.001,6.841,8.332h0Zm-9.176-.229l-6.112-.193c1.605-2.065,4.473-5.616,6.112-7.759v7.951h0Zm28.061.766l-6.767-.193v-8.029c1.679,2.065,4.817,5.85,6.767,8.222h0Zm-9.103-.229l-6.038-.193c1.647-2.065,4.4-5.543,6.038-7.644v7.837h0Zm27.644.762l-6.653-.188v-7.878c1.68,1.991,4.662,5.698,6.653,8.066h0Zm-8.988-.229l-5.882-.188c1.605-2.106,4.317-5.469,5.882-7.533v7.722h0Zm27.258.766l-6.538-.193v-7.759c1.647,1.987,4.588,5.579,6.538,7.951h0Zm-8.873-.266l-5.809-.156c1.647-2.102,4.285-5.387,5.809-7.415v7.57h0Zm30.282.877l-1.835-.078-5.547-.152v-7.796c1.876,2.024,5.203,5.657,7.382,8.025h0Zm-9.947-.307l-6.382-.188c1.803-2.102,4.703-5.391,6.382-7.378v7.566h0Zm31.158,1.073l-7.57-.27v-7.947c1.909,2.061,5.391,5.846,7.57,8.218h0Zm-10.135-.385l-6.456-.229c1.794-2.101,4.744-5.465,6.456-7.488v7.718h0Zm31.461,1.147l-7.603-.266v-8.255c1.909,2.101,5.424,6.116,7.603,8.521h0Zm-10.167-.381l-6.686-.229c1.835-2.102,4.891-5.657,6.686-7.759v7.988h0Zm31.347,1.147l-7.456-.307v-7.91c1.876,2.024,5.317,5.846,7.456,8.218h0Zm-10.012-.381l-6.693-.229c1.794-2.065,4.858-5.391,6.693-7.493v7.722h0Zm31.568,1.147l-7.603-.27v-8.066c1.909,2.106,5.465,6.001,7.603,8.336h0Zm-10.167-.385l-6.612-.229c1.794-2.102,4.858-5.543,6.612-7.607v7.837h0Zm31.576,1.147l-7.833-.303v-8.259c1.982,2.216,5.727,6.231,7.833,8.562h0Zm-10.356-.381l-6.809-.229c1.802-2.102,4.932-5.694,6.809-7.8v8.029h0Zm31.797,1.147l-8.062-.307v-8.447c2.064,2.257,5.923,6.497,8.062,8.754h0Zm-10.659-.381l-6.882-.27c1.761-2.024,5.006-5.809,6.882-7.988v8.259h0Z"/><path class="cls-3" d="m1127.782,399.133h3.134l-1.569-2.061-1.565,2.061Zm21.671.344h3.138l-1.569-2.102-1.569,2.102Z"/><polyline class="cls-9" points="2080.241 426.158 1684.877 414.462 1684.222 418.248 2080.241 430.787"/><polyline class="cls-6" points="2080.241 426.158 1684.877 414.462 1684.222 418.248 2080.241 430.787"/><line class="cls-3" x1="2080.241" y1="426.158" x2="1684.877" y2="414.462"/><rect class="cls-9" x="1932.004" y="499.969" width="1.95" height="71.525"/><rect class="cls-3" x="1932.004" y="499.969" width="1.95" height="71.525"/><rect class="cls-9" x="1936.855" y="499.969" width="1.95" height="71.525"/><rect class="cls-3" x="1936.855" y="499.969" width="1.95" height="71.525"/><rect class="cls-9" x="1941.746" y="499.969" width="1.917" height="71.525"/><rect class="cls-3" x="1941.746" y="499.969" width="1.917" height="71.525"/><rect class="cls-9" x="1949.39" y="499.969" width="1.917" height="71.525"/><rect class="cls-3" x="1949.39" y="499.969" width="1.917" height="71.525"/><rect class="cls-9" x="1954.289" y="499.969" width="1.909" height="71.525"/><rect class="cls-3" x="1954.289" y="499.969" width="1.909" height="71.525"/><rect class="cls-9" x="1959.14" y="499.969" width="1.95" height="71.525"/><rect class="cls-3" x="1959.14" y="499.969" width="1.95" height="71.525"/><polyline class="cls-9" points="1961.204 499.936 1961.204 494.963 1956.239 492.555 1936.969 492.555 1932.004 494.963 1932.004 499.936 1961.204 499.936"/><polygon class="cls-3" points="1961.204 499.936 1961.204 494.963 1956.239 492.555 1936.969 492.555 1932.004 494.963 1932.004 499.936 1961.204 499.936"/><rect class="cls-9" x="1942.434" y="489.957" width="8.185" height="2.597"/><rect class="cls-3" x="1942.434" y="489.957" width="8.185" height="2.597"/><polyline class="cls-6" points="1950.349 489.957 1948.898 442.368 1944.351 442.368 1942.86 489.957 1950.349 489.957"/><polygon class="cls-3" points="1950.349 489.957 1948.898 442.368 1944.351 442.368 1942.86 489.957 1950.349 489.957"/><polyline class="cls-9" points="1944.351 442.216 1948.898 442.216 1946.531 439.119 1944.351 442.216"/><polygon class="cls-2" points="1944.351 442.216 1948.898 442.216 1946.531 439.119 1944.351 442.216"/><polyline class="cls-9" points="1812.238 439.042 1816.794 439.042 1814.418 435.986 1812.238 439.042"/><polygon class="cls-2" points="1812.238 439.042 1816.794 439.042 1814.418 435.986 1812.238 439.042"/><rect class="cls-9" x="1817.4" y="502.075" width="2.179" height="69.649"/><rect class="cls-3" x="1817.4" y="502.075" width="2.179" height="69.649"/><rect class="cls-9" x="1822.906" y="502.075" width="2.22" height="69.649"/><rect class="cls-3" x="1822.906" y="502.075" width="2.22" height="69.649"/><rect class="cls-9" x="1828.452" y="502.075" width="2.179" height="69.649"/><rect class="cls-3" x="1828.452" y="502.075" width="2.179" height="69.649"/><rect class="cls-9" x="1798.859" y="502.075" width="2.179" height="69.649"/><rect class="cls-3" x="1798.859" y="502.075" width="2.179" height="69.649"/><rect class="cls-9" x="1804.406" y="502.075" width="2.179" height="69.649"/><rect class="cls-3" x="1804.406" y="502.075" width="2.179" height="69.649"/><rect class="cls-9" x="1809.944" y="502.075" width="2.147" height="69.649"/><rect class="cls-3" x="1809.944" y="502.075" width="2.147" height="69.649"/><polyline class="cls-9" points="1830.82 502.034 1830.82 495.807 1818.776 492.366 1810.903 492.366 1798.859 495.807 1798.859 502.034 1830.82 502.034"/><polygon class="cls-3" points="1830.82 502.034 1830.82 495.807 1818.776 492.366 1810.903 492.366 1798.859 495.807 1798.859 502.034 1830.82 502.034"/><rect class="cls-9" x="1810.747" y="489.613" width="7.914" height="2.753"/><rect class="cls-3" x="1810.747" y="489.613" width="7.914" height="2.753"/><polyline class="cls-6" points="1818.358 489.458 1816.638 439.042 1812.435 439.042 1811.206 489.458 1818.358 489.458"/><polygon class="cls-3" points="1818.358 489.458 1816.638 439.042 1812.435 439.042 1811.206 489.458 1818.358 489.458"/><rect class="cls-9" x="2068.73" y="496.536" width="1.417" height="63.832"/><rect class="cls-3" x="2068.73" y="496.536" width="1.417" height="63.832"/><rect class="cls-9" x="2072.482" y="496.536" width="1.45" height="63.832"/><rect class="cls-3" x="2072.482" y="496.536" width="1.45" height="63.832"/><rect class="cls-9" x="2076.3" y="496.536" width="1.417" height="63.832"/><rect class="cls-3" x="2076.3" y="496.536" width="1.417" height="63.832"/><rect class="cls-9" x="2089.639" y="496.536" width="1.458" height="63.832"/><rect class="cls-3" x="2089.639" y="496.536" width="1.458" height="63.832"/><rect class="cls-9" x="2085.894" y="496.536" width="1.417" height="63.832"/><rect class="cls-3" x="2085.894" y="496.536" width="1.417" height="63.832"/><rect class="cls-9" x="2082.076" y="496.536" width="1.45" height="63.832"/><rect class="cls-3" x="2082.076" y="496.536" width="1.45" height="63.832"/><polyline class="cls-9" points="2091.097 496.536 2091.097 492.784 2083.142 490.228 2076.489 490.228 2068.73 492.784 2068.73 496.536 2091.097 496.536"/><polygon class="cls-3" points="2091.097 496.536 2091.097 492.784 2083.142 490.228 2076.489 490.228 2068.73 492.784 2068.73 496.536 2091.097 496.536"/><rect class="cls-9" x="2076.489" y="487.737" width="6.653" height="2.491"/><rect class="cls-3" x="2076.489" y="487.737" width="6.653" height="2.491"/><polyline class="cls-6" points="2082.797 487.737 2081.388 445.043 2078.406 445.043 2076.604 487.737 2082.797 487.737"/><polygon class="cls-3" points="2082.797 487.737 2081.388 445.043 2078.406 445.043 2076.604 487.737 2082.797 487.737"/><polyline class="cls-9" points="2078.406 444.891 2081.388 444.928 2079.815 442.253 2078.406 444.891"/><polygon class="cls-2" points="2078.406 444.891 2081.388 444.928 2079.815 442.253 2078.406 444.891"/><polyline class="cls-6" points="2081.388 442.216 2078.291 442.175 2078.365 426.121 2081.462 426.121 2081.388 442.216"/><polygon class="cls-3" points="2081.388 442.216 2078.291 442.175 2078.365 426.121 2081.462 426.121 2081.388 442.216"/><rect class="cls-9" x="1657.39" y="487.819" width="49.273" height="15.362"/><rect class="cls-3" x="1657.39" y="487.819" width="49.273" height="15.362"/><rect class="cls-6" x="1679.295" y="430.923" width="7.685" height="55.43"/><rect class="cls-5" x="1679.295" y="430.923" width="7.685" height="55.43"/><rect class="cls-9" x="1688.204" y="506.892" width="14.788" height="74.917"/><rect class="cls-3" x="1688.204" y="506.892" width="14.788" height="74.917"/><polyline class="cls-9" points="1702.992 506.892 1706.663 503.181 1684.533 503.181 1688.204 506.892 1702.992 506.892"/><polygon class="cls-2" points="1702.992 506.892 1706.663 503.181 1684.533 503.181 1688.204 506.892 1702.992 506.892"/><rect class="cls-9" x="1660.986" y="506.892" width="14.829" height="68.346"/><rect class="cls-3" x="1660.986" y="506.892" width="14.829" height="68.346"/><polyline class="cls-9" points="1675.775 506.892 1679.486 503.181 1657.316 503.181 1661.019 506.892 1675.775 506.892"/><polygon class="cls-2" points="1675.775 506.892 1679.486 503.181 1657.316 503.181 1661.019 506.892 1675.775 506.892"/><polyline class="cls-6" points="1679.254 430.808 1683.269 430.808 1681.245 428.592 1679.254 430.808"/><polygon class="cls-7" points="1679.254 430.808 1683.269 430.808 1681.245 428.592 1679.254 430.808"/><polyline class="cls-6" points="1683.195 430.808 1687.054 430.808 1685.178 428.592 1683.195 430.808"/><polygon class="cls-7" points="1683.195 430.808 1687.054 430.808 1685.178 428.592 1683.195 430.808"/><rect class="cls-9" x="444.465" y="490.719" width="49.273" height="15.411"/><rect class="cls-3" x="444.465" y="490.719" width="49.273" height="15.411"/><rect class="cls-9" x="448.328" y="509.834" width="14.793" height="61.505"/><rect class="cls-3" x="448.328" y="509.834" width="14.793" height="61.505"/><polygon class="cls-2" points="463.121 509.834 466.791 506.13 444.621 506.13 448.328 509.834 463.121 509.834"/><rect class="cls-9" x="475.316" y="509.834" width="14.793" height="61.276"/><rect class="cls-3" x="475.316" y="509.834" width="14.793" height="61.276"/><polygon class="cls-2" points="490.068 509.834 493.779 506.13 471.609 506.13 475.316 509.834 490.068 509.834"/><path class="cls-3" d="m1190.66,400.129h3.134l-1.565-2.102-1.569,2.102Zm21.945.496h3.134l-1.569-2.102-1.565,2.102Zm20.524.156h3.134l-1.565-2.106-1.569,2.106Zm20.298.303h3.134l-1.565-2.065-1.569,2.065Zm22.744.344h3.175l-1.569-2.102-1.606,2.102Zm20.335.307h3.134l-1.565-2.065-1.569,2.065Zm21.179.344h3.134l-1.569-2.102-1.565,2.102Zm20.757.266h3.134l-1.569-2.102-1.565,2.102Zm117.275,3.822h3.13l-1.524-2.102-1.606,2.102Zm21.367.537h3.171l-1.565-2.102-1.606,2.102Zm21.826.954h3.13l-1.565-2.102-1.565,2.102Zm166.811,6.767h3.138l-1.565-2.831-1.573,2.831Zm-20.712-.84h3.13l-1.565-2.679-1.565,2.679Zm-21.179-.844h3.171l-1.565-2.638-1.606,2.638Zm-20.45-.533h3.13l-1.565-2.679-1.565,2.679Zm-21.064-1.188h3.138l-1.573-2.56-1.565,2.56Zm-22.015-.84h3.244l-1.565-2.523-1.68,2.523Zm-20.72-1.069h3.13l-1.524-2.065-1.606,2.065Zm-20.106-.803h3.171l-1.565-2.102-1.606,2.102Zm-61.89-3.748l-58.367-88.911-59.096,84.442m138.487,4.469l-79.391-94.261-79.89,89.599m181.148,5.657l-101.405-100.189-100.807,94.073m222.777,6.653l-121.823-106.075-121.364,99.193m263.333,7.837l-141.969-111.847-144.034,103.589m306.723,8.681l-162.689-118.996-164.406,110.086m348.995,9.75l-183.901-124.575-185.659,114.867m390.624,10.778l-205.654-130.691-206.989,119.34m433.208,12.003l-226.218-136.693m247.316,137.455l-247.234-144.415-248.278,130.999m516.158,14.031l-267.815-149.843-270.018,135.509m41.973.725l227.898-124.461"/><polygon class="cls-3" points="1169.751 399.899 1172.885 399.899 1171.32 397.798 1169.751 399.899"/><rect class="cls-9" x="1360.727" y="487.819" width="76.949" height="15.362"/><rect class="cls-3" x="1360.727" y="487.819" width="76.949" height="15.362"/><rect class="cls-9" x="1364.357" y="506.892" width="14.829" height="82.57"/><rect class="cls-3" x="1364.357" y="506.892" width="14.829" height="82.57"/><polyline class="cls-9" points="1379.149 506.892 1382.857 503.181 1360.686 503.181 1364.357 506.892 1379.149 506.892"/><polygon class="cls-2" points="1379.149 506.892 1382.857 503.181 1360.686 503.181 1364.357 506.892 1379.149 506.892"/><rect class="cls-9" x="1419.168" y="506.892" width="14.797" height="79.014"/><rect class="cls-3" x="1419.168" y="506.892" width="14.797" height="79.014"/><polyline class="cls-9" points="1433.965 506.892 1437.676 503.181 1415.506 503.181 1419.209 506.892 1433.965 506.892"/><polygon class="cls-2" points="1433.965 506.892 1437.676 503.181 1415.506 503.181 1419.209 506.892 1433.965 506.892"/><rect class="cls-9" x="1391.689" y="506.892" width="14.788" height="82.57"/><rect class="cls-3" x="1391.689" y="506.892" width="14.788" height="82.57"/><polyline class="cls-9" points="1406.477 506.892 1410.189 503.181 1388.018 503.181 1391.726 506.892 1406.477 506.892"/><polygon class="cls-2" points="1406.477 506.892 1410.189 503.181 1388.018 503.181 1391.726 506.892 1406.477 506.892"/><path class="cls-3" d="m960.239,400.129h-3.134l1.569-2.102,1.565,2.102Zm-21.941.496h-3.134l1.528-2.102,1.606,2.102Zm-20.528.229h-3.134l1.569-2.179,1.565,2.179Zm-20.294.5h-3.138l1.569-2.335,1.569,2.335Zm-22.785.303h-3.134l1.569-2.331,1.565,2.331Zm-20.22.344l-3.249.041,1.569-2.372,1.68,2.331Zm-21.253.537h-3.134l1.569-2.56,1.565,2.56Zm-20.72.344l-3.322.037,1.721-2.675,1.602,2.638Zm-117.312,3.285h-3.171l1.565-2.102,1.606,2.102Zm-21.404.881h-3.134l1.565-2.446,1.569,2.446Zm-21.789.954h-3.134l1.569-2.446,1.565,2.446Zm-166.544,7.415h-3.175l1.643-2.56,1.532,2.56Zm20.257-.918h-3.134l1.643-2.29,1.491,2.29Zm21.138-1.299h-3.134l1.606-2.065,1.528,2.065Zm20.528-1.032h-3.134l1.565-2.065,1.569,2.065Zm20.601-.418h-3.134l1.606-2.601,1.528,2.601Zm22.515-.995h-3.249l1.684-3.097,1.565,3.097Zm20.72-.918h-3.134l1.643-2.79,1.491,2.79Zm20.028-.918h-3.134l1.721-2.712,1.413,2.712Zm62.079-4.359l58.371-88.911,59.056,84.442m-138.45,4.469l79.395-94.261,79.89,89.599m-181.148,5.657l101.41-100.189,100.877,94.15m-222.855,6.575l121.827-106.075,121.364,99.193m-263.333,7.837l141.969-111.847,144.03,103.589m-306.715,8.681l162.685-118.996,164.443,110.086m-349.606,10.438l184.438-125.264,185.696,114.867m-390.776,11.351l205.805-131.265,206.989,119.34m-433.359,13.109l226.37-137.799m-247.471,138.758l247.356-145.718,248.311,130.999m-515.888,15.292l267.536-151.104,270.023,135.509m-41.969.725l-227.898-124.461"/><path class="cls-3" d="m1023.12,399.133h-3.134l1.565-2.061,1.569,2.061Zm-21.675.344h-3.134l1.569-2.102,1.565,2.102Zm-20.294.422h-3.138l1.569-2.102,1.569,2.102Z"/><rect class="cls-9" x="713.23" y="489.769" width="76.945" height="15.403"/><rect class="cls-3" x="713.23" y="489.769" width="76.945" height="15.403"/><rect class="cls-9" x="771.753" y="508.842" width="14.793" height="101.905"/><rect class="cls-3" x="771.753" y="508.842" width="14.793" height="101.905"/><polyline class="cls-9" points="771.753 508.842 768.042 505.172 790.212 505.172 786.546 508.842 771.753 508.842"/><polygon class="cls-2" points="771.753 508.842 768.042 505.172 790.212 505.172 786.546 508.842 771.753 508.842"/><rect class="cls-9" x="716.897" y="508.842" width="14.834" height="95.752"/><rect class="cls-3" x="716.897" y="508.842" width="14.834" height="95.752"/><polyline class="cls-9" points="716.938 508.842 713.23 505.172 735.401 505.172 731.689 508.842 716.938 508.842"/><polygon class="cls-2" points="716.938 508.842 713.23 505.172 735.401 505.172 731.689 508.842 716.938 508.842"/><rect class="cls-9" x="744.421" y="508.842" width="14.793" height="102.593"/><rect class="cls-3" x="744.421" y="508.842" width="14.793" height="102.593"/><polyline class="cls-9" points="744.421 508.842 740.714 505.172 762.884 505.172 759.177 508.842 744.421 508.842"/><polygon class="cls-2" points="744.421 508.842 740.714 505.172 762.884 505.172 759.177 508.842 744.421 508.842"/><polyline class="cls-6" points="741.59 489.654 748.129 249.827 755.621 249.827 762.159 489.654 741.59 489.654"/><polygon class="cls-3" points="741.59 489.654 748.129 249.827 755.621 249.827 762.159 489.654 741.59 489.654"/><rect class="cls-9" x="19.135" y="493.931" width="1.454" height="62.767"/><rect class="cls-3" x="19.135" y="493.931" width="1.454" height="62.767"/><rect class="cls-9" x=".75" y="493.931" width="1.413" height="62.767"/><path class="cls-3" d="m1.741,507.998h17.701m-17.701-6.726h17.701m-17.701-2.409h17.701m-18.729-4.965h19.876M.75,556.698h1.413v-62.767H.75v62.767Z"/><rect class="cls-9" x="5.678" y="492.71" width="10.057" height="1.188"/><rect class="cls-3" x="5.678" y="492.71" width="10.057" height="1.188"/><rect class="cls-9" x="6.559" y="491.604" width="8.295" height="1.106"/><rect class="cls-3" x="6.559" y="491.604" width="8.295" height="1.106"/><polyline class="cls-6" points="14.281 491.604 12.712 447.337 8.587 447.337 6.981 491.604 14.281 491.604"/><polygon class="cls-3" points="14.281 491.604 12.712 447.337 8.587 447.337 6.981 491.604 14.281 491.604"/><rect class="cls-9" x="173.718" y="494.472" width="1.299" height="54.697"/><rect class="cls-3" x="173.718" y="494.472" width="1.299" height="54.697"/><rect class="cls-9" x="153.038" y="494.472" width="1.262" height="54.697"/><path class="cls-3" d="m154.149,508.539h19.569m-19.569-6.767h19.569m-19.569-2.376h19.569m-20.716-4.965h22.015m-21.978,54.738h1.262v-54.697h-1.262v54.697Z"/><rect class="cls-9" x="158.466" y="493.21" width="11.163" height="1.221"/><rect class="cls-3" x="158.466" y="493.21" width="11.163" height="1.221"/><rect class="cls-9" x="159.462" y="492.137" width="9.209" height="1.073"/><rect class="cls-3" x="159.462" y="492.137" width="9.209" height="1.073"/><polyline class="cls-6" points="168.06 492.137 165.996 443.437 161.985 443.437 159.957 492.137 168.06 492.137"/><polygon class="cls-3" points="168.06 492.137 165.996 443.437 161.985 443.437 159.957 492.137 168.06 492.137"/><rect class="cls-9" x="325.74" y="494.472" width="1.262" height="54.697"/><rect class="cls-3" x="325.74" y="494.472" width="1.262" height="54.697"/><rect class="cls-9" x="305.02" y="494.472" width="1.303" height="54.697"/><path class="cls-3" d="m306.13,508.539h19.61m-19.61-6.767h19.61m-19.61-2.376h19.61m-20.72-4.965h21.982m-21.982,54.738h1.303v-54.697h-1.303v54.697Z"/><rect class="cls-9" x="310.488" y="493.21" width="11.163" height="1.221"/><rect class="cls-3" x="310.488" y="493.21" width="11.163" height="1.221"/><rect class="cls-9" x="311.484" y="492.137" width="9.172" height="1.073"/><rect class="cls-3" x="311.484" y="492.137" width="9.172" height="1.073"/><polyline class="cls-6" points="320.046 492.137 317.752 438.697 314.274 438.697 311.943 492.137 320.046 492.137"/><polygon class="cls-3" points="320.046 492.137 317.752 438.697 314.274 438.697 311.943 492.137 320.046 492.137"/><polyline class="cls-6" points="1409.312 487.819 1402.774 249.827 1395.281 249.827 1388.743 487.819 1409.312 487.819"/><polygon class="cls-3" points="1409.312 487.819 1402.774 249.827 1395.281 249.827 1388.743 487.819 1409.312 487.819"/><path class="cls-6" d="m1086.383,403.148h-3.593l-7.685,8.029-7.644-8.029h-3.593l-8.947,8.677h-.266l-7.988-8.369h-3.593l-8.676,8.41h-1.188l-7.833-8.181h-3.597l-8.865,8.599h-1.073l-7.718-8.066h-3.597l-8.75,8.451-.766.037-7.874-8.259h-3.592l-8.947,8.64-.688.041-7.795-8.181h-3.593l-8.832,8.562h-1.34l-7.91-8.259h-3.593l-8.984,8.676h-.573l-7.874-8.218h-3.593l-8.91,8.603-.803.037-7.833-8.218h-3.597l-8.865,8.599h-1.073l-7.874-8.218h-3.593l-8.906,8.64h-.229l-8.029-8.41h-3.593l-9.098,8.791h-.496l-7.911-8.255h-3.593l-8.947,8.677h-.803l-7.874-8.255h-3.593l-8.91,8.635h-.303l-7.915-8.255h-3.593l-8.942,8.676h-.422l-7.644-8.447h-3.441l-8.103,8.791-.688.037v.688l-.115.156h.115v.762l150.035-2.868,129.164-1.794,96.629.344,117.238,1.794,76.032,1.417,61.35.688v-1.606h-.881l-8.562-9.098h-3.249l-7.415,8.525-9.172-8.906h-3.597l-8.217,8.599-9.172-8.869h-3.593l-8.181,8.562-9.176-8.865h-3.592l-8.447,8.791-9.291-8.984h-3.593l-8.066,8.447-9.25-8.943h-3.552l-8.41,8.791-9.25-8.947h-3.597l-8.103,8.447-9.324-9.057h-3.597l-8.332,8.713-9.172-8.865h-3.592l-8.107,8.447h-1.032l-8.713-8.447h-3.592l-7.686,8.025-1.147-.037-8.791-8.525h-3.593l-7.759,8.103-.995-.037-8.906-8.603h-3.592l-7.722,8.181-1.643-.037-8.791-8.373h-3.597l-7.91,8.296h-.381l-8.832-8.562h-3.593l-8.103,8.488h-.307l-9.135-8.832h0Zm6.768,8.832l-7.304-.041v-6.956c1.835,1.757,5.162,4.932,7.304,6.997h0Zm-28.787-.115l-7.148-.041c2.143-2.065,5.354-5.084,7.148-6.804v6.845h0Zm18.963.074l-6.653-.037c1.794-1.835,4.854-4.969,6.653-6.767v6.804h0Zm-9.787-.037l-6.616-.037v-6.731c1.761,1.835,4.817,4.932,6.616,6.767h0Zm-36.812-.078c2.143-2.024,5.121-4.854,6.841-6.497v6.46l-4.125-.037-2.716.074h0Zm77.33.229l-7.034-.037v-6.653c1.758,1.721,4.892,4.625,7.034,6.69h0Zm-67.928-.266v-6.346c1.646,1.684,4.358,4.51,6.194,6.346h-6.194Zm58.334.229l-6.309-.037c1.798-1.876,4.625-4.781,6.309-6.501v6.538h0Zm-89.182.229c2.143-2.065,5.235-5.006,6.997-6.69v6.538l-6.997.152h0Zm119.34-.115l-6.882-.037v-6.501c1.721,1.684,4.703,4.473,6.882,6.538h0Zm-109.783-.078v-6.382c1.606,1.643,4.203,4.396,6.039,6.268l-6.039.115h0Zm100.34.041l-6.116-.041c1.835-1.872,4.51-4.662,6.116-6.305v6.345h0Zm31.306.459l-6.993-.156v-6.534c1.757,1.68,4.854,4.625,6.993,6.69h0Zm-9.553-.193l-6.042-.152c1.835-1.876,4.437-4.588,6.042-6.231v6.382h0Zm-152.825.266c2.138-2.024,5.199-4.891,6.956-6.534v6.419l-6.956.115h0Zm9.479-.188v-6.231c1.606,1.606,4.203,4.281,6.038,6.116l-6.038.115h0Zm-30.544.61c2.143-2.065,5.24-5.047,6.997-6.727v6.575l-6.997.152h0Zm204.544-.037l-6.882-.156v-6.46c1.721,1.647,4.744,4.551,6.882,6.616h0Zm-195.023-.156v-6.419c1.643,1.643,4.281,4.432,6.116,6.305l-6.116.115h0Zm185.622-.074l-6.042-.115c1.798-1.835,4.437-4.51,6.042-6.157v6.272h0Zm-216.128.688c2.143-2.065,5.203-4.969,6.96-6.653v6.497l-6.96.156h0Zm268.765.418l-7.418-.151v-6.841c1.876,1.831,5.276,4.969,7.418,6.993h0Zm-21.867-.418l-6.993-.156v-6.419c1.757,1.721,4.854,4.547,6.993,6.575h0Zm-237.377-.193v-6.346c1.643,1.684,4.317,4.359,6.153,6.231l-6.153.115h0Zm249.306.422l-6.231-.156c1.832-1.872,4.547-4.818,6.231-6.497v6.653h0Zm-21.482-.459l-6.006-.115c1.798-1.835,4.4-4.473,6.006-6.079v6.194h0Zm52.595,1.106l-7.529-.152v-7.112c1.909,1.835,5.387,5.198,7.529,7.263h0Zm-311.725-.496c2.138-2.065,5.313-5.047,7.07-6.767v6.653l-7.07.115h0Zm301.672.303l-6.575-.152c1.835-1.872,4.817-5.006,6.575-6.804v6.956h0Zm-292.041-.455v-6.46c1.643,1.643,4.322,4.432,6.157,6.305l-6.157.156h0Zm-30.581.569c2.143-2.061,5.239-5.006,7.034-6.726v6.575l-6.075.152h-.958Zm353.698.5l-7.53-.156v-6.915c1.95,1.794,5.428,5.043,7.53,7.071h0Zm-344.141-.688v-6.382c1.643,1.643,4.358,4.396,6.194,6.268l-6.194.115h0Zm334.088.496l-6.612-.115c1.794-1.835,4.813-4.854,6.612-6.649v6.763h0Zm31.42.573l-7.644-.115v-7.185c1.95,1.872,5.542,5.313,7.644,7.3h0Zm-10.167-.151l-6.648-.156c1.794-1.831,4.854-5.043,6.648-6.878v7.034h0Zm-386.036-.307c2.179-2.065,5.235-5.006,6.997-6.69v6.538l-6.997.152h0Zm9.557-.193v-6.382c1.606,1.684,4.281,4.396,6.116,6.268l-6.116.115h0Zm407.44,1.073l-7.529-.156v-7.071c1.913,1.835,5.391,5.162,7.529,7.226h0Zm-438.48-.5c2.143-2.024,5.313-4.969,7.112-6.686v6.571l-7.112.115h0Zm428.391.307l-6.612-.152c1.794-1.798,4.854-4.932,6.612-6.767v6.919h0Zm31.69.573l-7.836-.152v-7.3c2.023,1.909,5.731,5.465,7.836,7.452h0Zm-450.446-1.032v-6.419c1.643,1.68,4.318,4.432,6.153,6.268l-6.153.152h0Zm440.086.84l-6.653-.115c1.757-2.024,4.854-5.158,6.653-7.03v7.144h0Zm-470.552-.266c2.175-2.065,5.35-5.162,7.148-6.878v6.727l-7.148.151h0Zm9.708-.193v-6.575c1.643,1.684,4.396,4.588,6.231,6.46l-6.231.115h0Zm492.112.918l-7.763-.115v-7.263c1.991,1.913,5.657,5.354,7.763,7.378h0Zm-10.323-.115l-6.878-.074c1.757-1.798,5.006-5.162,6.878-7.075v7.148h0Zm31.232.344l-7.722-.074v-7.263c1.986,1.872,5.579,5.313,7.722,7.337h0Zm-543.716-.573c2.18-2.061,5.276-5.043,7.071-6.726v6.612l-7.071.115h0Zm533.47.459l-6.841-.074c1.794-1.798,4.969-5.125,6.841-7.034v7.108h0Zm-523.876-.61v-6.46c1.68,1.684,4.433,4.474,6.268,6.309l-6.268.152h0Zm553.158.954l-6.845-.074v-7.148c1.761,1.835,4.932,5.157,6.845,7.222h0Zm-9.139-.115l-6.112-.074c1.606-1.798,4.469-5.047,6.112-6.882v6.956h0Zm-574.829-.266c2.143-2.065,5.276-5.006,7.034-6.69v6.538l-7.034.152h0Zm9.594-.193v-6.382c1.643,1.643,4.359,4.432,6.157,6.268l-6.157.115h0Zm-30.388.615c2.143-2.065,5.35-5.047,7.107-6.767v6.612l-7.107.156h0Zm9.672-.193v-6.46c1.643,1.684,4.318,4.473,6.153,6.309l-6.153.152h0Zm-29.319.537c1.909-2.028,4.584-5.162,6.305-6.882v6.767l-6.305.115h0Zm8.713-.156v-6.612c1.606,1.721,4.244,4.625,5.965,6.497l-5.965.115h0Z"/><polyline class="cls-9" points="12.065 444.699 12.065 434.683 20.893 434.531 323.372 424.556 465.3 420.234 465.3 416.376 323.372 420.693 20.893 430.672 9.463 431.053 9.463 445.617 12.941 445.424"/><polyline class="cls-6" points="12.065 444.699 12.065 434.683 20.893 434.531 323.372 424.556 465.3 420.234 465.3 416.376 323.372 420.693 20.893 430.672 9.463 431.053 9.463 445.617 12.941 445.424"/><polyline class="cls-3" points="465.3 416.376 323.372 420.693 20.893 430.672 9.463 431.053 9.463 445.617 12.941 445.424"/><polyline class="cls-9" points="470.04 420.808 743.807 408.654 743.921 403.836 470.04 415.99 470.04 420.808"/><polygon class="cls-6" points="470.04 420.808 743.807 408.654 743.921 403.836 470.04 415.99 470.04 420.808"/><rect class="cls-9" x="8.738" y="436.825" width="1.454" height="10.626"/><rect class="cls-3" x="8.738" y="436.825" width="1.454" height="10.626"/><line class="cls-3" x1="470.04" y1="415.99" x2="743.921" y2="403.836"/><polyline class="cls-9" points="1074.99 402.841 1390.73 408.654 1390.845 403.836 1074.99 398.027 1075.031 398.027 759.673 403.836 759.787 408.654 1075.031 402.841 1074.99 402.841"/><polygon class="cls-6" points="1074.99 402.841 1390.73 408.654 1390.845 403.836 1074.99 398.027 1075.031 398.027 759.673 403.836 759.787 408.654 1075.031 402.841 1074.99 402.841"/><polyline class="cls-9" points="1681.625 419.243 1407.247 408.727 1407.092 403.914 1681.625 414.462 1681.625 419.243"/><polygon class="cls-6" points="1681.625 419.243 1407.247 408.727 1407.092 403.914 1681.625 414.462 1681.625 419.243"/><line class="cls-3" x1="1681.625" y1="414.426" x2="1407.092" y2="403.914"/><polyline class="cls-6" points="1684.877 428.493 1681.625 428.223 1681.625 414.462 1684.877 414.462 1684.877 428.493"/><polygon class="cls-3" points="1684.877 428.493 1681.625 428.223 1681.625 414.462 1684.877 414.462 1684.877 428.493"/><polyline class="cls-9" points="11.454 444.85 12.712 443.515 12.638 444.736 11.454 444.85"/><polyline class="cls-9" points="161.907 443.359 163.931 441.831 166.147 443.359 161.907 443.359"/><polygon class="cls-2" points="161.907 443.359 163.931 441.831 166.147 443.359 161.907 443.359"/><polyline class="cls-9" points="314.159 438.583 316.031 436.903 317.825 438.583 314.159 438.583"/><polygon class="cls-2" points="314.159 438.583 316.031 436.903 317.825 438.583 314.159 438.583"/><polyline class="cls-3" points="1390.845 403.836 1074.99 398.027 1075.031 398.027 759.673 403.836"/><rect class="cls-6" x="464.19" y="434.339" width="7.685" height="56.38"/><rect class="cls-3" x="464.19" y="434.339" width="7.685" height="56.38"/><polyline class="cls-9" points="464.153 434.224 468.168 434.224 466.14 431.168 464.153 434.224"/><polygon class="cls-2" points="464.153 434.224 468.168 434.224 466.14 431.168 464.153 434.224"/><polyline class="cls-9" points="468.053 434.224 471.953 434.224 470.04 431.168 468.053 434.224"/><polygon class="cls-2" points="468.053 434.224 471.953 434.224 470.04 431.168 468.053 434.224"/><rect class="cls-6" x="465.3" y="415.99" width="4.74" height="15.178"/><rect class="cls-3" x="465.3" y="415.99" width="4.74" height="15.178"/><path class="cls-8" d="m466.073,49.399c0-21.46,16.55-22.435,16.55-22.435,0,0,.244-13.244,13.203-10.108,0,0,8.603-20.136,28.549-16.391,19.945,3.745,20.05,24.194,20.05,24.194,0,0,23.62-5.295,28.358,18.47,0,0,9.894-2.369,9.894,6.271h-116.603Z"/><path class="cls-8" d="m1485.329,113.19c0-21.46,16.55-22.435,16.55-22.435,0,0,.244-13.244,13.203-10.108,0,0,8.603-20.136,28.549-16.391,19.945,3.745,20.05,24.194,20.05,24.194,0,0,23.62-5.295,28.358,18.47,0,0,9.894-2.369,9.894,6.271h-116.603Z"/><path class="cls-8" d="m718.904,133.11c-1.765-13.281-24.591-11.625-24.591-11.625,0,0-7.43-22.82-33.309-13.413,0,0-1.956-23.901-26.714-26.733-24.759-2.832-33.421,19.132-33.421,19.132,0,0-22.488-4.042-23.697,16.096,0,0-25.708-.447-27.497,16.543h169.229Z"/><g class="cls-4"><path class="cls-6" d="m631.577,272.362c-.406-1.544-4.321-9.089-11.567-8.288-5.776.639-9.758,5.551-10.658,10.547-.9-4.996-4.882-9.908-10.658-10.547-7.246-.801-11.161,6.743-11.567,8.288-.299,1.138.343,1.243.861.543.518-.7,4.973-4.807,10.084-4.242,5.096.563,9.166,3.634,11.28,10.097,2.114-6.464,6.184-9.534,11.28-10.097,5.111-.565,9.566,3.542,10.084,4.242.518.7,1.161.595.861-.543Z"/><path class="cls-6" d="m587.127,272.362c-.299,1.138.343,1.243.861.543.249-.335,1.41-1.454,3.108-2.466l-1.743-1.964c-1.309,1.644-2.062,3.26-2.227,3.887Z"/><path class="cls-6" d="m629.35,268.475l-1.743,1.964c1.698,1.012,2.859,2.131,3.108,2.466.519.7,1.161.595.861-.543-.165-.627-.918-2.242-2.227-3.887Z"/></g><g class="cls-4"><path class="cls-6" d="m1580.629,246.787c-.406-1.544-4.321-9.089-11.567-8.288-5.776.639-9.758,5.551-10.658,10.547-.9-4.996-4.882-9.908-10.658-10.547-7.246-.801-11.161,6.743-11.567,8.288-.299,1.138.343,1.243.861.543.518-.7,4.973-4.807,10.084-4.242,5.096.563,9.166,3.634,11.28,10.097,2.114-6.464,6.184-9.534,11.28-10.097,5.111-.565,9.566,3.542,10.084,4.242.518.7,1.161.595.861-.543Z"/><path class="cls-6" d="m1536.178,246.787c-.299,1.138.343,1.243.861.543.249-.335,1.41-1.454,3.108-2.466l-1.743-1.964c-1.309,1.644-2.062,3.26-2.227,3.887Z"/><path class="cls-6" d="m1578.402,242.9l-1.743,1.964c1.698,1.012,2.859,2.131,3.108,2.466.519.7,1.161.595.861-.543-.165-.627-.918-2.242-2.227-3.887Z"/></g><g class="cls-4"><path class="cls-6" d="m1679.474,285.495c-.406-1.544-4.321-9.089-11.567-8.288-5.776.639-9.758,5.551-10.658,10.547-.9-4.996-4.882-9.908-10.658-10.547-7.246-.801-11.161,6.743-11.567,8.288-.299,1.138.343,1.243.861.543.518-.7,4.973-4.807,10.084-4.242,5.096.563,9.166,3.634,11.28,10.097,2.114-6.464,6.184-9.534,11.28-10.097,5.111-.565,9.566,3.542,10.084,4.242.518.7,1.161.595.861-.543Z"/><path class="cls-6" d="m1635.023,285.495c-.299,1.138.343,1.243.861.543.249-.335,1.41-1.454,3.108-2.466l-1.743-1.964c-1.309,1.644-2.062,3.26-2.227,3.887Z"/><path class="cls-6" d="m1677.247,281.609l-1.743,1.964c1.698,1.012,2.859,2.131,3.108,2.466.519.7,1.161.595.861-.543-.165-.627-.918-2.242-2.227-3.887Z"/></g></g></svg>