<svg viewBox="0 0 359.29 351.3" xmlns="http://www.w3.org/2000/svg" xmlns:xlink="http://www.w3.org/1999/xlink"><clipPath id="a"><path d="m0 0h359.29v351.3h-359.29z"/></clipPath><g clip-path="url(#a)"><path d="m145.15 314.73c-1.49 2.24-4.51 2.86-6.76 1.37l-37.49-24.82c-2.25-1.49-2.86-4.51-1.37-6.76l35-52.84c1.49-2.24 4.51-2.86 6.76-1.37l37.48 24.82c2.25 1.49 2.86 4.51 1.37 6.76l-35 52.84z" fill="#14509f"/><path d="m120.3 253.2c-.78.03-1.49.02-1.49.02s4.44 4.42 21.24 9.4c2.95.88.15 4.16.15 4.16s3.3 2.44.38 2.96-9.5-.87-9.5-.87 6.26 1.71 6.41 2.71c.08.52-.34 1.8-3.22 1.77-2.34-.03-10.77-.72-13.39-1.56-3.01-.96-12.98-3.63-15.33-9.05-.92-.18-48.34 5.95-48.34 5.95l-1.16-22.14c1.03.15 48.97 2.81 51.73 2.8 4.43-.57 10.19-1.21 16.07-1.55l-3.56 5.4z" fill="#f0bda5"/><path d="m79.52 247.75-49.58-3.26s17.02-24.88 26.32-41.14c9.3-16.27-21.26-39.88-21.26-39.88s-4.02 2.84-7.04 8.99c-10.22 20.85-26.11 72.28-27.81 83.73-2.2 14.83 20.14 19.61 50.68 15.53 10.15-1.36 28.19-4.59 28.19-4.59z" fill="#fff"/></g></svg>