<svg viewBox="0 0 359.29 351.3" xmlns="http://www.w3.org/2000/svg" xmlns:xlink="http://www.w3.org/1999/xlink"><clipPath id="a"><path d="m0 0h359.29v351.3h-359.29z"/></clipPath><clipPath id="b"><path d="m0 0h359.29v351.3h-359.29z"/></clipPath><clipPath id="c"><path d="m0 0h359.29v351.3h-359.29z"/></clipPath><g clip-path="url(#a)"><g clip-path="url(#b)"><path d="m184.78 81.02h187.24v365.81h-187.24z" fill="#305d81"/><path d="m250.67 39.82h55.47v162.56h-55.47z" fill="#537791" transform="matrix(0 1 -1 0 399.5 -157.31)"/><circle cx="207.5" cy="107.26" fill="#ffd200" r="4.07"/><circle cx="221.94" cy="107.26" fill="#ffd200" r="4.07"/><circle cx="236.38" cy="107.26" fill="#ffd200" r="4.07"/><circle cx="250.82" cy="107.26" fill="#ffd200" r="4.07"/><circle cx="265.26" cy="107.26" fill="#ffd200" r="4.07"/><circle cx="207.5" cy="121.09" fill="#ffd200" r="4.07"/><circle cx="221.94" cy="121.09" fill="#ffd200" r="4.07"/><circle cx="236.38" cy="134.93" fill="none" r="4.07"/><circle cx="265.26" cy="134.93" fill="#ffd200" r="4.07"/><path d="m276.81 101.22h10.11v10.11h-10.11z" fill="#ffd200"/><path d="m292.76 101.22h10.11v10.11h-10.11z" fill="#ffd200"/><path d="m308.7 101.22h10.11v10.11h-10.11z" fill="#ffd200"/><path d="m336.66 99.65h6.56v43.05h-6.56z" fill="#ffd200"/><path d="m348.47 99.65h6.56v43.05h-6.56z" fill="#ffd200"/><path d="m250.67 112.26h55.47v162.56h-55.47z" fill="#537791" transform="matrix(0 1 -1 0 471.94 -84.87)"/><g fill="#ffd200"><circle cx="207.5" cy="179.7" r="4.07"/><circle cx="221.94" cy="179.7" r="4.07"/><circle cx="236.38" cy="179.7" r="4.07"/><circle cx="250.82" cy="179.7" r="4.07"/><circle cx="265.26" cy="179.7" r="4.07"/><circle cx="207.5" cy="193.53" r="4.07"/><circle cx="221.94" cy="193.53" r="4.07"/><circle cx="236.38" cy="207.37" r="4.07"/><circle cx="265.26" cy="207.37" r="4.07"/><path d="m276.81 173.66h10.11v10.11h-10.11z"/><path d="m292.76 173.66h10.11v10.11h-10.11z"/><path d="m308.7 173.66h10.11v10.11h-10.11z"/><path d="m336.66 172.09h6.56v43.05h-6.56z"/><path d="m348.47 172.09h6.56v43.05h-6.56z"/></g><path d="m250.67 184.7h55.47v162.56h-55.47z" fill="#537791" transform="matrix(0 1 -1 0 544.38 -12.43)"/><circle cx="207.5" cy="252.14" fill="#ffd200" r="4.07"/><circle cx="221.94" cy="252.14" fill="#ffd200" r="4.07"/><circle cx="236.38" cy="252.14" fill="#ffd200" r="4.07"/><circle cx="250.82" cy="252.14" fill="#ffd200" r="4.07"/><circle cx="265.26" cy="252.14" fill="#ffd200" r="4.07"/><circle cx="207.5" cy="265.98" fill="#ffd200" r="4.07"/><circle cx="221.94" cy="265.98" fill="#ffd200" r="4.07"/><circle cx="236.38" cy="279.81" fill="#ffd200" r="4.07"/><circle cx="265.26" cy="279.81" fill="#ffd200" r="4.07"/><path d="m276.81 246.11h10.11v10.11h-10.11z" fill="#ffd200"/><path d="m292.76 246.11h10.11v10.11h-10.11z" fill="#ffd200"/><path d="m308.7 246.11h10.11v10.11h-10.11z" fill="#ffd200"/><path d="m336.66 244.53h6.56v43.05h-6.56z" fill="#ffd200"/><path d="m348.47 244.53h6.56v43.05h-6.56z" fill="#ffd200"/><path d="m250.67 257.14h55.47v162.56h-55.47z" fill="#537791" transform="matrix(0 1 -1 0 616.82 60.01)"/><circle cx="207.5" cy="324.58" fill="#ffd200" r="4.07"/><circle cx="221.94" cy="324.58" fill="#ffd200" r="4.07"/><circle cx="236.38" cy="324.58" fill="#ffd200" r="4.07"/><circle cx="250.82" cy="324.58" fill="#ffd200" r="4.07"/><circle cx="265.26" cy="324.58" fill="#ffd200" r="4.07"/><circle cx="207.5" cy="338.42" fill="#ffd200" r="4.07"/><circle cx="221.94" cy="338.42" fill="#ffd200" r="4.07"/><circle cx="236.38" cy="352.25" fill="#ffd200" r="4.07"/><circle cx="265.26" cy="352.25" fill="#ffd200" r="4.07"/><path d="m276.81 318.55h10.11v10.11h-10.11z" fill="#ffd200"/><path d="m292.76 318.55h10.11v10.11h-10.11z" fill="#ffd200"/><path d="m308.7 318.55h10.11v10.11h-10.11z" fill="#ffd200"/><path d="m336.66 316.97h6.56v43.05h-6.56z" fill="#ffd200"/><path d="m348.47 316.97h6.56v43.05h-6.56z" fill="#ffd200"/></g></g><g clip-path="url(#c)"><path d="m173.49 187.14s36.09-21.52 37.92-23.98c1.72-1.85 13.93-23.98 13.93-23.98s4.13 2.34 1.16 7.73c-2.88 5.2-1.53 6.73-1.53 6.73s15.52-5.94 18.85-7.33c5.25-2.18 7.6-.38 6 1.27-.31.33-.65 1.04-7.07 3.94-.52 1.54 1.27.2 2.43 2.52.93 3.04-5.83 3.57-4.46 4.61 2.96-.9 5.44 2.21 1.99 4.52-1.01 1.21-3.08 2.64-3.71 3.01-1.45.86-4.61 2.46-9.8 4.87-5.18 2.4-11.66 2.53-11.66 2.53l-31.12 25.9-12.94-12.35z" fill="#f0bda5"/><path d="m206.55 164.95s-66.47 40.86-70.37 44.86c-7.09-3.16-17.94-30.21-37.26-50.99-11.96-12.87-34.67 20-34.67 20s11.43 19.79 54.42 52.98c11.13 8.59 26.44 10.4 48.09-8.75 24.73-21.88 46.08-43.65 46.08-43.65l-6.28-14.45z" fill="#d2e8f2"/><path d="m134.55 305.55s1.41-92.66-8.95-121.69c-5.2-14.57-10.82-24.97-17.91-33.33-.46-.54.85-5.65.36-6.12-14.77-14.05-41.09-17.71-41.09-17.71l-2.35 11.83s-27.38 39.02-22.29 64.71c9.73 49.09 18.25 79.34 18.25 79.34l-.23 24.22 74.22-1.25z" fill="#fff"/><path d="m119.03 121.48c-10.03 1.49-18.61 16.91-21.59 25.88-13.2-7.51-27.52-16.27-30.09-17.01 4.42-7.75 4.68-18.64 4.68-18.64s31-59.54 47 9.77z" fill="#e5b187"/><path d="m56.69 265.41c3.49 13.31 3.45 32.14 3.45 32.14l16.09 1.38s26.27-14.99 22.94-41.44c-.88-7-10.41-3.95-25.5-3.35-13.11.52-16.01 1.99-16.97 11.27z" fill="#d2e8f2"/><path d="m65.29 132.18s22.66 9.09 18.37 41.56c-4.28 32.47-8.28 63.43-8.28 63.43s-13.48 49.94-22.9 19.23c-9.43-30.71-22.81-70.29-20.11-87.85 1.27-8.23 32.92-36.38 32.92-36.38z" fill="#fff"/><path d="m97.41 146.98s3.68.73 5.41 6.07c1.08 3.25.24 5.86.24 5.86s14.92 16.96 20.68 44.71c8.84 42.56 15.32 78.98 15.32 78.98l-11.95 16.6-13.59-15.03s1.6-37.81-2.11-80.24c-2.56-29.3-12.23-43.1-12.23-43.1s-3.2-2.76-7.17-5.62c4.34-5.07 5.4-8.21 5.4-8.21z" fill="#969696"/><path d="m99.14 145.7s-3.87 8.99-11.12 13.12c-12.24-21-23.48-26.32-23.48-26.32s1.3-2.73 2.41-5.83c12.66 4.12 32.18 19.03 32.18 19.03z" fill="#d2e8f2"/><path d="m102 390.16s-10.96 64.76-19.23 84.26c-8.27 19.49-41.59 133.02-41.59 133.02s-23.97.86-34.79-1.51c22.06-67.55 14.41-102.54 18.42-122.44 1.97-9.06 11.05-28.34 11.29-30.34 22.97-74.15 6.2-77.26 17.67-126 17.64.07 40.65 11.05 40.65 11.05l7.56 51.95z" fill="#003853"/><path d="m140.27 465.25c-.25-8.32-1.09-71.65-5.06-115.68-1.92-23.43-4.06-43.09-4.06-43.09l-73.74-3.65s-18.8 31.67-10.76 45.6c7.41 12.83 15.04 30.04 20.62 43.47 6.62 21.92 15.48 47.49 26.23 70.02 1.78 3.72 1.2 7.53.76 8.79-12.66 36.37 12.2 71.72 17.05 138.41 11.84-.22 27.58-6.36 30.86-7.56-8.35-105.91-1.56-125.39-1.89-136.3z" fill="#969696"/><path d="m93.29 89.13s-5.32-8.34-10.73-.67 6.93 15.35 6.93 15.35 6.21 19.22 14.61 20.77c5.03.93 11.98-.46 16.38-.87 2.52-.23 3.41-2.05 3.43-2.91.04-1.91.12-21.81.12-21.81s4.77-.3 3.46-3.47c-6.09-14.72-8.41-21.24-9.7-25.02 0 0-14.72-9.7-20.23-3.45s-4.27 22.08-4.27 22.08z" fill="#f0bda5"/><g fill="#3b3b3b"><path d="m103.09 95.15s-6.69 5.59-8.98.69-7.22-7.02-10.28-3.75c-3.06 3.26.2 12.52-2.54 17.65-1.8 3.36-8.1 3.33-9.56 3.59.65-16.49-12.42-32.39-1.1-44.52 4.58-4.91 25.33-4.25 29.51-13.6 14.33-4.71 22.14 1.72 17.84 15.25-29.6-2.97-14.89 24.68-14.89 24.68z"/><path d="m210.87 123.79s0 0 0 0c-10.42-7.62-16.4-19.86-16-32.74.32-10.42 4.68-20.1 12.28-27.24s17.53-10.9 27.95-10.58c7.91.24 15.46 2.83 21.82 7.49 10.42 7.62 16.4 19.86 16 32.74-.32 10.42-4.68 20.1-12.28 27.24s-17.52 10.9-27.95 10.58c-7.91-.24-15.45-2.83-21.81-7.48zm41.2-56.45c-5.02-3.67-10.98-5.72-17.23-5.91-8.23-.25-16.07 2.71-22.07 8.35s-9.45 13.28-9.7 21.52c-.31 10.18 4.41 19.84 12.64 25.86 5.02 3.67 10.98 5.72 17.23 5.91 8.23.25 16.07-2.71 22.07-8.36 6-5.64 9.45-13.28 9.7-21.52.32-10.17-4.41-19.84-12.64-25.86z"/><path d="m223.29 180.08s2.28 4.06 8.04 4.12 7.74-3.63 7.74-3.63l1.22-42.59-15.78-.49z"/><path d="m224.82 130.24 15.79.48s-2.99 1.06-3.07 3.62c-.08 2.55 2.85 3.81 2.85 3.81l-15.79-.48s2.99-1.07 3.07-3.62c.08-2.56-2.85-3.8-2.85-3.8z"/></g><path d="m215.48 157.47s-.43-7.54 3.68-11.81c2.05-2.13 4.35-4.66 5.77-6.33 2.77-1.05 10.02-3.98 10.99-4.51 2.13 1.98 0 4.33-1.03 5.77-1.06 1.49-9.88 5.78-11.46 12.93l-7.96 3.94z" fill="#f0bda5"/><path d="m236.18 166.8s2.07-.59 3.78-1.41c3.48-1.69 4.42-3.26 4.56-5.35.05-.68-.04-2.73-.04-2.73s1.19-.4 1.48-1.12c.86-2.18-.38-3.4-.92-3.94-2.69-2.69-8.67-6.41-9.79-6.91-1.69.06-2.15 4.53.06 6.12-.47-.18-3.86-.96-4.25-.03-.48 1.13-.36.96-.72 2.16-.55 1.9 1.42 4.35 2.85 5.3 1.21.81 3.64 2.73 3.64 2.73l-.65 5.19z" fill="#f0bda5"/></g></svg>