<?xml version="1.0" encoding="UTF-8"?><svg id="_レイヤー_2" xmlns="http://www.w3.org/2000/svg" viewBox="0 0 446.646 220.175"><defs><style>.cls-1{fill:#64aae1;}.cls-2{fill:#14509f;}</style></defs><g id="_メニュー"><path class="cls-1" d="m224.777,205.974c-30.718,0-81.065-6.323-121.003-20.315l-3.738,10.624c33.831,14.093,85.883,23.892,124.741,23.892,38.858,0,90.909-9.799,124.741-23.892l-3.738-10.624c-39.938,13.992-90.285,20.315-121.003,20.315Z"/><path class="cls-2" d="m378.515,1.711h-38.016l-11.168,63.357c-44.627-3.601-89.452-3.979-102.016-4.016l5.948-33.683h62.364l4.485-25.657h-91.624l-10.513,59.642c-35.813.737-98.418,3.245-139.864,11.773v22.393c14.164-3.109,31.288-5.44,49.106-7.192l-5.128,29.271c-8.328,3.848-17.514,5.559-27.125,5.559-29.045,0-44.849-18.174-44.849-46.183,0-31.645,20.502-50.888,46.987-50.888,16.659,0,26.483,5.986,33.531,12.828l20.502-19.884C119.389,7.483,105.292,0,77.742,0,36.523,0,0,29.934,0,77.188c0,42.335,27.552,71.842,74.539,71.842,23.065,0,40.579-7.484,51.47-14.968l8.319-47.961c21.964-1.488,43.244-2.252,59.751-2.641l-11.218,63.645h29.258l11.311-64.05c.538-.001.994-.001,1.346-.001,7.178,0,53.915.143,100.716,3.795l-10.621,60.256h49.547c48.054,0,82.228-29.078,82.228-78.256,0-40.625-25.202-67.137-68.131-67.137Zm-13.454,119.735h-16.446l5.638-31.84c13.465,1.568,26.219,3.505,37.187,5.913v-22.393c-10.088-2.075-21.442-3.788-33.346-5.212l7.18-40.546h9.611c28.62,0,41.434,15.823,41.434,40.197,0,30.789-16.659,53.88-51.257,53.88Z"/></g></svg>