<?xml version="1.0" encoding="UTF-8"?><svg id="_レイヤー_2" xmlns="http://www.w3.org/2000/svg" xmlns:xlink="http://www.w3.org/1999/xlink" viewBox="0 0 460.813 450.565"><defs><style>.cls-1{clip-path:url(#clippath);}.cls-2{fill:none;}.cls-2,.cls-3,.cls-4,.cls-5,.cls-6,.cls-7,.cls-8,.cls-9,.cls-10,.cls-11,.cls-12{stroke-width:0px;}.cls-13{clip-path:url(#clippath-1);}.cls-14{clip-path:url(#clippath-2);}.cls-3{fill:#537791;}.cls-4{fill:#3b3b3b;}.cls-5{fill:#d2e8f2;}.cls-6{fill:#305d81;}.cls-7{fill:#969696;}.cls-8{fill:#fff;}.cls-9{fill:#f0bda5;}.cls-10{fill:#e5b187;}.cls-11{fill:#ffd200;}.cls-12{fill:#003853;}</style><clipPath id="clippath"><rect class="cls-2" x="0" width="460.813" height="450.565"/></clipPath><clipPath id="clippath-1"><rect class="cls-2" x="0" width="460.813" height="450.565"/></clipPath><clipPath id="clippath-2"><rect class="cls-2" x="0" width="460.813" height="450.565"/></clipPath></defs><g id="_レイヤー_1-2"><g class="cls-1"><g class="cls-13"><path class="cls-6" d="m236.993,103.913h240.148v469.175h-240.148V103.913Z"/><path class="cls-3" d="m461.313,119.74v71.144h-208.494v-71.144h208.494Z"/><circle class="cls-11" cx="266.132" cy="137.568" r="5.22"/><circle class="cls-11" cx="284.653" cy="137.568" r="5.22"/><circle class="cls-11" cx="303.173" cy="137.568" r="5.22"/><circle class="cls-11" cx="321.693" cy="137.568" r="5.22"/><circle class="cls-11" cx="340.213" cy="137.568" r="5.22"/><circle class="cls-11" cx="266.132" cy="155.306" r="5.22"/><circle class="cls-11" cx="284.653" cy="155.306" r="5.22"/><circle class="cls-2" cx="303.173" cy="173.057" r="5.22"/><circle class="cls-11" cx="340.213" cy="173.057" r="5.22"/><path class="cls-11" d="m355.027,129.821h12.967v12.967h-12.967v-12.967Z"/><path class="cls-11" d="m375.484,129.821h12.967v12.967h-12.967v-12.967Z"/><path class="cls-11" d="m395.928,129.821h12.967v12.967h-12.967v-12.967Z"/><path class="cls-11" d="m431.789,127.808h8.414v55.214h-8.414v-55.214Z"/><path class="cls-11" d="m446.936,127.808h8.414v55.214h-8.414v-55.214Z"/><path class="cls-3" d="m461.313,212.649v71.144h-208.494v-71.144h208.494Z"/><circle class="cls-11" cx="266.132" cy="230.477" r="5.22"/><circle class="cls-11" cx="284.653" cy="230.477" r="5.22"/><circle class="cls-11" cx="303.173" cy="230.477" r="5.22"/><circle class="cls-11" cx="321.693" cy="230.477" r="5.22"/><circle class="cls-11" cx="340.213" cy="230.477" r="5.22"/><circle class="cls-11" cx="266.132" cy="248.215" r="5.22"/><circle class="cls-11" cx="284.653" cy="248.215" r="5.22"/><circle class="cls-11" cx="303.173" cy="265.966" r="5.22"/><circle class="cls-11" cx="340.213" cy="265.966" r="5.22"/><path class="cls-11" d="m355.027,222.73h12.967v12.967h-12.967v-12.967Z"/><path class="cls-11" d="m375.484,222.73h12.967v12.967h-12.967v-12.967Z"/><path class="cls-11" d="m395.928,222.73h12.967v12.967h-12.967v-12.967Z"/><path class="cls-11" d="m431.789,220.717h8.414v55.214h-8.414v-55.214Z"/><path class="cls-11" d="m446.936,220.717h8.414v55.214h-8.414v-55.214Z"/><path class="cls-3" d="m461.313,305.559v71.144h-208.494v-71.144h208.494Z"/><circle class="cls-11" cx="266.132" cy="323.386" r="5.22"/><circle class="cls-11" cx="284.653" cy="323.386" r="5.22"/><circle class="cls-11" cx="303.173" cy="323.386" r="5.22"/><circle class="cls-11" cx="321.693" cy="323.386" r="5.22"/><circle class="cls-11" cx="340.213" cy="323.386" r="5.22"/><circle class="cls-11" cx="266.132" cy="341.137" r="5.22"/><circle class="cls-11" cx="284.653" cy="341.137" r="5.22"/><circle class="cls-11" cx="303.173" cy="358.875" r="5.22"/><circle class="cls-11" cx="340.213" cy="358.875" r="5.22"/><path class="cls-11" d="m355.027,315.652h12.967v12.967h-12.967v-12.967Z"/><path class="cls-11" d="m375.484,315.652h12.967v12.967h-12.967v-12.967Z"/><path class="cls-11" d="m395.928,315.652h12.967v12.967h-12.967v-12.967Z"/><path class="cls-11" d="m431.789,313.626h8.414v55.214h-8.414v-55.214Z"/><path class="cls-11" d="m446.936,313.626h8.414v55.214h-8.414v-55.214Z"/><path class="cls-3" d="m461.313,398.468v71.144h-208.494v-71.144h208.494Z"/><circle class="cls-11" cx="266.132" cy="416.295" r="5.22"/><circle class="cls-11" cx="284.653" cy="416.295" r="5.22"/><circle class="cls-11" cx="303.173" cy="416.295" r="5.22"/><circle class="cls-11" cx="321.693" cy="416.295" r="5.22"/><circle class="cls-11" cx="340.213" cy="416.295" r="5.22"/><circle class="cls-11" cx="266.132" cy="434.046" r="5.22"/><circle class="cls-11" cx="284.653" cy="434.046" r="5.22"/><circle class="cls-11" cx="303.173" cy="451.784" r="5.22"/><circle class="cls-11" cx="340.213" cy="451.784" r="5.22"/><path class="cls-11" d="m355.027,408.561h12.967v12.967h-12.967v-12.967Z"/><path class="cls-11" d="m375.484,408.561h12.967v12.967h-12.967v-12.967Z"/><path class="cls-11" d="m395.928,408.561h12.967v12.967h-12.967v-12.967Z"/><path class="cls-11" d="m431.789,406.535h8.414v55.214h-8.414v-55.214Z"/><path class="cls-11" d="m446.936,406.535h8.414v55.214h-8.414v-55.214Z"/></g></g><g class="cls-14"><path class="cls-9" d="m222.512,240.019s46.288-27.601,48.635-30.756c2.206-2.373,17.866-30.756,17.866-30.756,0,0,5.297,3.001,1.488,9.914-3.694,6.669-1.962,8.632-1.962,8.632,0,0,19.905-7.618,24.176-9.401,6.733-2.796,9.748-.487,7.695,1.629-.398.423-.834,1.334-9.068,5.053-.667,1.975,1.629.257,3.117,3.232,1.193,3.899-7.477,4.579-5.72,5.913,3.796-1.154,6.977,2.834,2.552,5.797-1.295,1.552-3.95,3.386-4.758,3.861-1.86,1.103-5.913,3.155-12.569,6.246-6.644,3.078-14.955,3.245-14.955,3.245l-39.913,33.218-16.596-15.84.013.013Z"/><path class="cls-5" d="m264.914,211.559s-85.252,52.406-90.254,57.536c-9.093-4.053-23.009-38.746-47.788-65.398-15.339-16.507-44.467,25.651-44.467,25.651,0,0,14.66,25.382,69.797,67.95,14.275,11.017,33.911,13.339,61.679-11.222,31.718-28.063,59.101-55.984,59.101-55.984l-8.055-18.533h-.013Z"/><path class="cls-8" d="m172.569,391.888s1.808-118.843-11.479-156.075c-6.669-18.687-13.877-32.026-22.971-42.748-.59-.693,1.09-7.246.462-7.849-18.944-18.02-52.701-22.714-52.701-22.714l-3.014,15.173s-35.117,50.046-28.588,82.995c12.479,62.961,23.407,101.759,23.407,101.759l-.295,31.064,95.192-1.603h-.013Z"/><path class="cls-10" d="m152.664,155.806c-12.864,1.911-23.869,21.688-27.691,33.193-16.93-9.632-35.296-20.867-38.592-21.816,5.669-9.94,6.002-23.907,6.002-23.907,0,0,39.76-76.364,60.281,12.531Z"/><path class="cls-5" d="m72.709,340.406c4.476,17.071,4.425,41.222,4.425,41.222l20.636,1.77s33.693-19.226,29.422-53.15c-1.129-8.978-13.352-5.066-32.705-4.297-16.814.667-20.534,2.552-21.765,14.455h-.013Z"/><path class="cls-8" d="m83.739,169.53s29.063,11.659,23.561,53.303c-5.489,41.645-10.62,81.353-10.62,81.353,0,0-17.289,64.051-29.371,24.664-12.095-39.388-29.255-90.152-25.792-112.673,1.629-10.556,42.222-46.66,42.222-46.66v.013Z"/><path class="cls-7" d="m124.935,188.512s4.72.936,6.939,7.785c1.385,4.168.308,7.516.308,7.516,0,0,19.136,21.752,26.523,57.344,11.338,54.586,19.649,101.297,19.649,101.297l-15.327,21.291-17.43-19.277s2.052-48.494-2.706-102.913c-3.283-37.579-15.686-55.279-15.686-55.279,0,0-4.104-3.54-9.196-7.208,5.566-6.503,6.926-10.53,6.926-10.53v-.026Z"/><path class="cls-5" d="m127.154,186.87s-4.964,11.53-14.262,16.827c-15.699-26.934-30.115-33.757-30.115-33.757,0,0,1.667-3.501,3.091-7.477,16.237,5.284,41.273,24.407,41.273,24.407h.013Z"/><path class="cls-12" d="m130.822,500.406s-14.057,83.059-24.664,108.069c-10.607,24.997-53.342,170.607-53.342,170.607,0,0-30.743,1.103-44.62-1.937,28.293-86.637,18.482-131.514,23.625-157.037,2.527-11.62,14.172-36.348,14.48-38.913,29.461-95.102,7.952-99.091,22.663-161.603,22.624.09,52.136,14.172,52.136,14.172l9.696,66.629.026.013Z"/><path class="cls-7" d="m179.906,596.714c-.321-10.671-1.398-91.896-6.49-148.367-2.463-30.051-5.207-55.266-5.207-55.266l-94.576-4.681s-24.112,40.619-13.8,58.485c9.504,16.455,19.29,38.528,26.447,55.753,8.491,28.114,19.854,60.909,33.642,89.805,2.283,4.771,1.539,9.658.975,11.274-16.237,46.647,15.647,91.986,21.868,177.52,15.186-.282,35.373-8.157,39.58-9.696-10.709-135.837-2.001-160.821-2.424-174.814l-.013-.013Z"/><path class="cls-9" d="m119.651,114.315s-6.823-10.697-13.762-.859,8.888,19.687,8.888,19.687c0,0,7.965,24.651,18.738,26.639,6.451,1.193,15.365-.59,21.008-1.116,3.232-.295,4.374-2.629,4.399-3.732.051-2.45.154-27.973.154-27.973,0,0,6.118-.385,4.438-4.451-7.811-18.879-10.786-27.242-12.441-32.09,0,0-18.879-12.441-25.946-4.425-7.067,8.016-5.477,28.319-5.477,28.319Z"/><path class="cls-4" d="m132.22,122.036s-8.58,7.17-11.517.885c-2.937-6.285-9.26-9.004-13.185-4.81-3.925,4.181.257,16.058-3.258,22.637-2.309,4.309-10.389,4.271-12.261,4.604.834-21.15-15.929-41.542-1.411-57.1,5.874-6.297,32.487-5.451,37.849-17.443,18.379-6.041,28.396,2.206,22.881,19.559-37.964-3.809-19.097,31.654-19.097,31.654v.013Z"/><path class="cls-4" d="m270.455,158.769h0c-13.364-9.773-21.034-25.472-20.521-41.991.41-13.364,6.002-25.78,15.75-34.937s22.483-13.98,35.848-13.57c10.145.308,19.828,3.63,27.986,9.606,13.364,9.773,21.034,25.472,20.521,41.991-.41,13.364-6.002,25.78-15.75,34.937-9.748,9.158-22.471,13.98-35.848,13.57-10.145-.308-19.816-3.63-27.973-9.594l-.013-.013Zm52.842-72.401c-6.438-4.707-14.083-7.336-22.099-7.58-10.556-.321-20.611,3.476-28.306,10.709s-12.12,17.032-12.441,27.601c-.398,13.057,5.656,25.446,16.212,33.167,6.438,4.707,14.083,7.336,22.099,7.58,10.556.321,20.611-3.476,28.306-10.722,7.695-7.234,12.12-17.032,12.441-27.601.41-13.044-5.656-25.446-16.212-33.167v.013Z"/><path class="cls-4" d="m286.384,230.964s2.924,5.207,10.312,5.284,9.927-4.656,9.927-4.656l1.565-54.624-20.239-.628-1.565,54.624Z"/><path class="cls-4" d="m288.346,167.041l20.252.616s-3.835,1.36-3.937,4.643c-.103,3.271,3.655,4.887,3.655,4.887l-20.252-.616s3.835-1.372,3.937-4.643c.103-3.283-3.655-4.874-3.655-4.874v-.013Z"/><path class="cls-9" d="m276.367,201.966s-.551-9.671,4.72-15.147c2.629-2.732,5.579-5.977,7.4-8.119,3.553-1.347,12.851-5.105,14.095-5.784,2.732,2.539,0,5.554-1.321,7.4-1.36,1.911-12.672,7.413-14.698,16.584l-10.209,5.053.013.013Z"/><path class="cls-9" d="m302.916,213.932s2.655-.757,4.848-1.808c4.463-2.168,5.669-4.181,5.848-6.862.064-.872-.051-3.501-.051-3.501,0,0,1.526-.513,1.898-1.436,1.103-2.796-.487-4.361-1.18-5.053-3.45-3.45-11.12-8.221-12.556-8.863-2.168.077-2.758,5.81.077,7.849-.603-.231-4.951-1.231-5.451-.038-.616,1.449-.462,1.231-.923,2.77-.705,2.437,1.821,5.579,3.655,6.798,1.552,1.039,4.669,3.501,4.669,3.501l-.834,6.657v-.013Z"/></g><path class="cls-5" d="m52.734,279.369s12.048-19.683,17.485-17.545c5.439,2.138-2.728,41.662-9.296,46.254-2.888-6.628-8.189-28.709-8.189-28.709Z"/></g></svg>