<?xml version="1.0" encoding="UTF-8"?><svg id="_レイヤー_2" xmlns="http://www.w3.org/2000/svg" viewBox="0 0 374.275 102.981"><defs><style>.cls-1{fill:#fff;stroke-width:0px;}</style></defs><g id="_レイヤー_1-2"><path class="cls-1" d="m13.92,45.105h8.652l-10.08,57.12H3.841l10.079-57.12Z"/><path class="cls-1" d="m47.52,52.666h-16.716l1.345-7.56h41.915l-1.344,7.56h-16.632l-8.736,49.56h-8.651l8.819-49.56Z"/><path class="cls-1" d="m88.512,91.474l6.804-4.536c2.52,4.2,6.636,8.4,13.271,8.4,6.469,0,10.248-3.444,10.248-8.484,0-3.948-2.352-5.88-7.644-9.324l-3.36-2.184c-6.888-4.452-10.416-8.904-10.416-15.96,0-8.652,6.469-14.952,16.8-14.952,7.225,0,12.349,3.696,15.708,8.82l-6.468,5.04c-2.268-3.528-5.124-6.384-9.576-6.384-4.788,0-7.896,2.94-7.896,7.14,0,3.612,1.848,5.796,6.552,8.735l3.36,2.185c7.476,4.704,11.76,8.736,11.76,16.464,0,10.5-7.812,16.548-19.068,16.548-10.332,0-17.304-6.048-20.075-11.508Z"/><path class="cls-1" d="m135.383,85.257c0-11.172,8.568-19.068,19.32-19.068,10.164,0,18.06,7.56,18.06,17.808,0,11.172-8.484,18.984-19.32,18.984-10.163,0-18.06-7.644-18.06-17.724Zm28.812-1.344c0-6.216-3.779-10.5-9.743-10.5-6.301,0-10.5,5.04-10.5,12.012,0,6.132,3.863,10.416,9.743,10.416,6.385,0,10.5-5.04,10.5-11.928Z"/><path class="cls-1" d="m180.49,93.237l9.072-51.66h8.315l-9.155,51.828c-.252,1.68.084,2.436,1.596,2.436h3.444l-1.093,6.384h-4.619c-6.553,0-8.82-2.185-7.561-8.988Z"/><path class="cls-1" d="m201.321,86.938l3.528-19.992h8.315l-3.443,19.572c-1.009,5.712,1.176,9.072,6.216,9.072,5.376,0,8.483-3.024,9.659-9.156l3.444-19.488h8.316l-4.62,26.46c-.336,1.68.084,2.436,1.512,2.436h2.856l-1.093,6.384h-4.031c-6.469,0-7.729-2.604-7.645-5.628v-.588c-3.023,4.62-6.72,6.972-12.096,6.972-7.728,0-12.6-6.216-10.92-16.044Z"/><path class="cls-1" d="m246.934,90.129l2.855-16.212h-5.208l1.176-6.972h5.292l2.185-12.516h8.231l-2.184,12.516h9.072l-1.261,6.972h-8.987l-2.94,16.548c-.756,4.032.42,5.376,2.688,5.376,2.016,0,3.359-.84,4.367-1.596l2.94,5.796c-1.848,1.512-4.2,2.94-8.736,2.94-6.132,0-11.172-3.192-9.491-12.852Z"/><path class="cls-1" d="m273.14,93.237l4.536-26.292h8.4l-4.704,26.46c-.252,1.68.168,2.436,1.596,2.436h2.94l-1.092,6.384h-4.116c-6.552,0-8.82-2.185-7.561-8.988Zm5.713-39.983c0-3.192,2.52-5.376,5.375-5.376,2.94,0,5.545,2.184,5.545,5.376,0,3.275-2.521,5.46-5.461,5.46-2.855,0-5.459-2.185-5.459-5.46Z"/><path class="cls-1" d="m292.964,85.257c0-11.172,8.567-19.068,19.319-19.068,10.164,0,18.061,7.56,18.061,17.808,0,11.172-8.484,18.984-19.32,18.984-10.164,0-18.06-7.644-18.06-17.724Zm28.812-1.344c0-6.216-3.78-10.5-9.744-10.5-6.3,0-10.5,5.04-10.5,12.012,0,6.132,3.864,10.416,9.744,10.416,6.384,0,10.5-5.04,10.5-11.928Z"/><path class="cls-1" d="m342.02,66.945h8.315l-1.428,6.72c2.688-4.62,6.636-7.476,12.012-7.476,7.729,0,12.6,6.3,10.836,16.128l-1.932,11.088c-.252,1.68.168,2.436,1.596,2.436h2.856l-1.093,6.384h-4.031c-6.553,0-8.82-2.185-7.561-8.988l1.764-10.5c1.009-5.796-1.176-9.072-6.132-9.072-5.376,0-8.567,2.94-9.659,9.072l-3.444,19.488h-8.316l6.217-35.28Z"/><path class="cls-1" d="m0,13.441l1.944-1.296c.721,1.2,1.896,2.4,3.793,2.4,1.848,0,2.928-.984,2.928-2.424,0-1.128-.672-1.68-2.185-2.664l-.96-.624c-1.968-1.272-2.976-2.544-2.976-4.561C2.545,1.8,4.393,0,7.345,0c2.064,0,3.528,1.057,4.488,2.521l-1.848,1.44c-.648-1.008-1.464-1.824-2.736-1.824-1.368,0-2.256.84-2.256,2.04,0,1.032.527,1.656,1.872,2.496l.96.624c2.136,1.344,3.36,2.496,3.36,4.704,0,3-2.232,4.729-5.448,4.729-2.953,0-4.945-1.728-5.737-3.288Z"/><path class="cls-1" d="m17.521.192h10.153l-.385,2.16h-7.681l-.863,4.896h6.792l-.384,2.136h-6.793l-.888,4.969h8.041l-.408,2.16h-10.465L17.521.192Z"/><path class="cls-1" d="m36.241,10.417h-3.169l-1.056,6.097h-2.473L32.425.192h4.776c3.192,0,5.4,1.632,5.424,4.752,0,2.664-1.607,4.464-3.96,5.16l2.977,6.409h-2.641l-2.76-6.097Zm.071-2.064c2.425,0,3.769-1.176,3.769-3.312,0-1.728-1.152-2.712-3.12-2.712h-2.448l-1.056,6.024h2.855Z"/><path class="cls-1" d="m47.16.192h2.521l2.112,8.568c.288,1.2.528,3.121.552,3.217.024-.096.769-1.92,1.464-3.097L58.729.192h2.568l-9.529,16.489h-.312L47.16.192Z"/><path class="cls-1" d="m65.16.192h2.473l-2.881,16.321h-2.472L65.16.192Z"/><path class="cls-1" d="m70.488,8.761c0-5.064,3.96-8.761,8.688-8.761,2.977,0,4.992,1.128,6.385,3.265l-1.992,1.344c-.912-1.416-2.28-2.4-4.465-2.4-3.48,0-6.024,2.88-6.024,6.552,0,3.36,2.232,5.761,5.257,5.761,2.256,0,3.648-.984,4.68-2.208l1.824,1.488c-1.607,1.968-3.576,2.928-6.576,2.928-4.488,0-7.776-3.432-7.776-7.969Z"/><path class="cls-1" d="m90.984.192h10.152l-.384,2.16h-7.681l-.864,4.896h6.793l-.385,2.136h-6.792l-.889,4.969h8.041l-.408,2.16h-10.465L90.984.192Z"/></g></svg>