<?xml version="1.0" encoding="UTF-8"?><svg id="_レイヤー_2" xmlns="http://www.w3.org/2000/svg" viewBox="0 0 79.846 9.763"><defs><style>.cls-1{fill:#64aee5;stroke-width:0px;}</style></defs><g id="_メニュー"><path class="cls-1" d="m0,7.844l1.134-.756c.42.7,1.107,1.401,2.213,1.401,1.079,0,1.709-.575,1.709-1.415,0-.658-.393-.98-1.275-1.555l-.56-.364c-1.149-.742-1.737-1.485-1.737-2.662C1.484,1.051,2.563,0,4.286,0c1.205,0,2.059.616,2.619,1.471l-1.078.84c-.378-.588-.854-1.064-1.597-1.064-.798,0-1.317.49-1.317,1.191,0,.602.309.966,1.093,1.457l.561.364c1.247.784,1.961,1.457,1.961,2.746,0,1.751-1.303,2.759-3.18,2.759-1.723,0-2.886-1.008-3.348-1.919Z"/><path class="cls-1" d="m10.221.112h5.925l-.224,1.261h-4.482l-.504,2.858h3.964l-.224,1.247h-3.964l-.518,2.899h4.692l-.238,1.261h-6.107L10.221.112Z"/><path class="cls-1" d="m21.142,6.079h-1.849l-.617,3.558h-1.442L18.915.112h2.788c1.863,0,3.152.953,3.166,2.774,0,1.555-.938,2.605-2.311,3.011l1.737,3.74h-1.541l-1.611-3.558Zm.042-1.205c1.415,0,2.199-.686,2.199-1.933,0-1.008-.672-1.583-1.821-1.583h-1.429l-.616,3.516h1.667Z"/><path class="cls-1" d="m27.511.112h1.471l1.233,5.001c.168.7.308,1.821.322,1.877.014-.056.448-1.121.854-1.807L34.263.112h1.499l-5.562,9.624h-.182L27.511.112Z"/><path class="cls-1" d="m38.011.112h1.443l-1.681,9.525h-1.443L38.011.112Z"/><path class="cls-1" d="m41.118,5.113c0-2.956,2.312-5.113,5.071-5.113,1.737,0,2.913.658,3.726,1.905l-1.162.785c-.532-.827-1.331-1.401-2.605-1.401-2.031,0-3.516,1.681-3.516,3.824,0,1.961,1.303,3.362,3.067,3.362,1.316,0,2.129-.574,2.731-1.289l1.064.868c-.938,1.149-2.087,1.709-3.838,1.709-2.619,0-4.539-2.003-4.539-4.65Z"/><path class="cls-1" d="m53.075.112h5.926l-.225,1.261h-4.482l-.504,2.858h3.964l-.224,1.247h-3.965l-.518,2.899h4.692l-.238,1.261h-6.107L53.075.112Z"/><path class="cls-1" d="m63.826,6.009c0-3.376,1.653-6.009,4.118-6.009,1.821,0,2.998,1.331,2.998,3.754,0,3.376-1.653,6.009-4.132,6.009-1.821,0-2.984-1.331-2.984-3.754Zm5.604-2.423c0-1.485-.49-2.297-1.541-2.297-1.625,0-2.55,2.494-2.55,4.875,0,1.484.477,2.311,1.527,2.311,1.639,0,2.563-2.493,2.563-4.889Z"/><path class="cls-1" d="m72.254,7.676l1.274-.603c.364.785.967,1.387,2.087,1.387,1.317,0,2.102-.84,2.102-2.045,0-1.093-.841-1.821-2.129-1.821-.435,0-.757.084-.995.154l-.084-.126,2.367-2.689c.267-.308.7-.63.7-.63,0,0-.532.07-.868.07h-2.815l.224-1.261h5.729v.126l-2.535,2.941c-.252.28-.631.532-.631.532,1.289.126,2.508,1.022,2.508,2.731,0,1.989-1.541,3.32-3.53,3.32-1.778,0-2.941-.953-3.403-2.087Z"/></g></svg>