<svg xmlns="http://www.w3.org/2000/svg" id="_レイヤー_2" viewBox="0 0 398.2 88.8"><defs><style>.cls-1{fill:#fff}</style></defs><g id="_レイヤー_1-2"><path d="m362.6 44.4-8.8 7.5v5.6l15.3-13.1-15.3-13.1v5.6l8.8 7.5z" class="cls-1"/><path d="M383.5 82.9c-.5 2.7-3.1 4.9-5.9 4.9H5.2c-2.8 0-4.6-2.2-4.1-4.9l13.5-77c.5-2.7 3.1-4.9 5.9-4.9H393c2.8 0 4.6 2.2 4.1 4.9l-13.6 76.9Z" style="fill:none;stroke:#fff;stroke-miterlimit:10;stroke-width:2px"/><path d="M40.4 45.6c0-10.3 8.2-17.8 17.6-17.8s10.2 2.3 13.3 6.9l-5.5 3.6c-1.6-2.6-4.1-4.5-8-4.5-6.2 0-10.4 5.3-10.4 11.8s4 10.4 9.2 10.4 6.4-1.6 8.2-3.8l5.1 3.9c-3 3.5-7 5.9-13.5 5.9s-16-7.2-16-16.4Zm34.7-.1c0-10.9 8.2-17.7 17.7-17.7s16.3 6.9 16.3 16.5S100.9 62 91.3 62s-16.2-6.9-16.2-16.5Zm27.1-1.3c0-6.3-3.9-10.4-9.5-10.4s-10.6 4.7-10.6 11.8S86 56 91.6 56s10.6-4.7 10.6-11.8Zm22 1.5c-1.5-1.8-2.9-4.5-3.1-4.8 0 0-.2 3.8-.6 6.1l-2.6 14.6h-6.3l5.9-33.7h.6l13.6 16.3c1.4 1.7 2.9 4.5 3.1 4.8 0 0 .1-3.6.6-6.1l2.6-14.7h6.3l-5.9 33.7h-.6l-13.6-16.3Zm33.3-11.6h-9.4l1-5.9h25.4l-1 5.9h-9.3l-4.9 27.5h-6.8l4.9-27.5Zm33.9-6.2h.5l9 33.7h-6.8l-1.2-4.7h-12.3l-2.8 4.7h-6.7l20.3-33.7Zm.2 23.6-1.3-5.2c-.6-2.3-.8-5.4-.8-5.5 0 .1-1.2 3.1-2.6 5.4l-3.1 5.3h7.8Zm15.5-5.9c0-10.3 8.2-17.8 17.6-17.8s10.2 2.3 13.3 6.9l-5.5 3.6c-1.6-2.6-4.1-4.5-8-4.5-6.2 0-10.4 5.3-10.4 11.8s4 10.4 9.2 10.4 6.4-1.6 8.2-3.8l5.1 3.9c-3 3.5-7 5.9-13.5 5.9s-16-7.2-16-16.4Zm45.3-11.5H243l1-5.9h25.4l-1 5.9h-9.3l-4.9 27.5h-6.8l4.9-27.5Zm28.2 14.3 3.5-20.1h6.8l-3.6 20.6c-.8 4.7 1.2 7.2 5.7 7.2s6.2-2.2 7-6.5l3.8-21.3h6.8l-4 22.4c-1.4 7.7-6.4 11.4-13.9 11.4s-13.6-5.4-12.1-13.7Zm29.2 6.9 5.3-3.6c1.3 2.2 3.6 4.5 7 4.5s4.7-1.4 4.7-3.5-1.2-2.7-4.2-4.7l-1.6-1c-4.2-2.8-6.3-5.5-6.3-9.8s3.5-9.3 10.6-9.3 7.6 2.1 9.7 5.2l-5 4c-1.3-1.8-2.9-3.4-5.1-3.4s-3.7 1.5-3.7 3.2.9 2.7 3.4 4.3l1.6 1c4.5 2.8 7.2 5.2 7.2 10s-5 9.9-11.6 9.9-10.7-3.6-12.3-6.8Z" class="cls-1"/></g></svg>