<?xml version="1.0" encoding="UTF-8"?><svg id="_レイヤー_2" xmlns="http://www.w3.org/2000/svg" viewBox="0 0 47.61088 47.61088"><defs><style>.cls-1{fill:#fbcd5b;}.cls-2{fill:#14509f;}</style></defs><g id="_レイヤー_6"><circle class="cls-1" cx="23.80544" cy="23.80544" r="23.80544"/><path class="cls-2" d="m29.16362,14.16275c-.02572,2.96898-2.4607,5.36456-5.42767,5.34086-2.96961-.02071-5.36496-2.45144-5.33884-5.42629.0217-2.97415,2.44811-5.36548,5.42226-5.34563,2.96829.02842,5.36456,2.4511,5.34425,5.43106Z"/><path class="cls-2" d="m30.65444,19.94984l-2.53874-.02387-3.18376,3.13697c-.68133.67274-1.77371.6621-2.44096-.01837l-3.1374-3.18839-2.53119-.0285c-2.63876-.02026-4.80156,2.10236-4.81873,4.74928l-.08791,11.24111h23.42899l.05048-11.04099c.01923-2.65027-2.10888-4.80285-4.74078-4.82723Z"/></g></svg>