<?xml version="1.0" encoding="UTF-8"?><svg id="_レイヤー_2" xmlns="http://www.w3.org/2000/svg" viewBox="0 0 297.14146 50.70614"><defs><style>.cls-1{fill:#e6e6e6;}.cls-2{fill:#fff;}.cls-3{fill:#ffd200;}.cls-4{fill:#969696;}</style></defs><g id="_レイヤー_1-2"><rect class="cls-4" x=".11559" y="19.53821" width="262.04459" height="31.16793" transform="translate(262.27578 70.24436) rotate(-180)"/><polygon class="cls-1" points="0 19.58211 262.16018 19.58211 278.97689 0 19.3283 0 0 19.58211"/><polygon class="cls-2" points="278.84028 .25309 297.05859 19.22438 297.14146 19.22438 297.14146 50.70567 260.52989 50.70567 260.52989 19.32949 260.52989 19.22438 278.84028 .25309"/><polygon class="cls-4" points="130.92323 2.20864 155.72332 14.70196 155.83612 14.70196 155.83612 44.41197 105.9978 44.41197 105.9978 14.80708 105.9978 14.70196 130.92323 2.20864"/><polygon class="cls-1" points="87.97774 .00719 81.45723 .00719 62.19652 19.59026 68.71704 19.59026 87.97774 .00719"/><polygon class="cls-1" points="59.18648 .00719 52.66597 .00719 33.40526 19.59026 39.92578 19.59026 59.18648 .00719"/><polygon class="cls-1" points="237.00292 .00719 230.48241 .00719 211.22171 19.59026 217.74222 19.59026 237.00292 .00719"/><polygon class="cls-1" points="208.21166 .00719 201.69115 .00719 182.43045 19.59026 188.95096 19.59026 208.21166 .00719"/><rect class="cls-3" x="144.29064" y="17.26462" width="3.95373" height="7.34279" transform="translate(292.53502 41.87204) rotate(-180)"/><rect class="cls-3" x="135.78973" y="17.26462" width="3.95373" height="7.34279" transform="translate(275.53318 41.87204) rotate(-180)"/><rect class="cls-3" x="144.29064" y="30.63859" width="3.95373" height="7.34279" transform="translate(292.53502 68.61997) rotate(-180)"/><rect class="cls-3" x="135.78973" y="30.63859" width="3.95373" height="7.34279" transform="translate(275.53318 68.61997) rotate(-180)"/><rect class="cls-3" x="122.81465" y="17.26462" width="3.95373" height="7.34279" transform="translate(249.58302 41.87204) rotate(-180)"/><rect class="cls-3" x="114.31373" y="17.26462" width="3.95373" height="7.34279" transform="translate(232.58119 41.87204) rotate(-180)"/><rect class="cls-3" x="122.81465" y="30.63859" width="3.95373" height="7.34279" transform="translate(249.58302 68.61997) rotate(-180)"/><rect class="cls-3" x="114.31373" y="30.63859" width="3.95373" height="7.34279" transform="translate(232.58119 68.61997) rotate(-180)"/><rect class="cls-2" x="236.16019" y="30.63859" width="3.95373" height="7.34279" transform="translate(476.27411 68.61997) rotate(-180)"/><rect class="cls-2" x="227.65927" y="30.63859" width="3.95373" height="7.34279" transform="translate(459.27228 68.61997) rotate(-180)"/><rect class="cls-2" x="204.99017" y="30.63859" width="3.95373" height="7.34279" transform="translate(413.93406 68.61997) rotate(-180)"/><rect class="cls-2" x="196.48925" y="30.63859" width="3.95373" height="7.34279" transform="translate(396.93223 68.61997) rotate(-180)"/><rect class="cls-2" x="182.17192" y="30.63859" width="3.95373" height="7.34279" transform="translate(368.29756 68.61997) rotate(-180)"/><rect class="cls-2" x="173.671" y="30.63859" width="3.95373" height="7.34279" transform="translate(351.29573 68.61997) rotate(-180)"/><rect class="cls-2" x="219.00922" y="30.63859" width="3.95373" height="7.34279" transform="translate(441.97217 68.61997) rotate(-180)"/><rect class="cls-2" x="165.02095" y="30.63859" width="3.95373" height="7.34279" transform="translate(333.99562 68.61997) rotate(-180)"/><rect class="cls-2" x="91.64462" y="30.63859" width="3.95373" height="7.34279" transform="translate(187.24297 68.61997) rotate(-180)"/><rect class="cls-2" x="83.1437" y="30.63859" width="3.95373" height="7.34279" transform="translate(170.24114 68.61997) rotate(-180)"/><rect class="cls-2" x="60.4746" y="30.63859" width="3.95373" height="7.34279" transform="translate(124.90292 68.61997) rotate(-180)"/><rect class="cls-2" x="51.97368" y="30.63859" width="3.95373" height="7.34279" transform="translate(107.90109 68.61997) rotate(-180)"/><rect class="cls-2" x="37.65635" y="30.63859" width="3.95373" height="7.34279" transform="translate(79.26642 68.61997) rotate(-180)"/><rect class="cls-2" x="29.15543" y="30.63859" width="3.95373" height="7.34279" transform="translate(62.26459 68.61997) rotate(-180)"/><rect class="cls-2" x="74.49365" y="30.63859" width="3.95373" height="7.34279" transform="translate(152.94103 68.61997) rotate(-180)"/><rect class="cls-2" x="20.50538" y="30.63859" width="3.95373" height="7.34279" transform="translate(44.96448 68.61997) rotate(-180)"/></g></svg>