<?xml version="1.0" encoding="UTF-8"?><svg id="_レイヤー_2" xmlns="http://www.w3.org/2000/svg" xmlns:xlink="http://www.w3.org/1999/xlink" viewBox="0 0 338.50066 380.74657"><defs><style>.cls-1{fill:none;}.cls-2{clip-path:url(#clippath);}.cls-3{fill:#fff;}.cls-4{fill:#ecf3f7;}.cls-5{fill:#f0bda5;}.cls-6{fill:#e5b187;}.cls-7{fill:#969696;}.cls-8{fill:#3b3b3b;}</style><clipPath id="clippath"><rect class="cls-1" width="338.50066" height="380.74657"/></clipPath></defs><g id="_レイヤー_6"><g class="cls-2"><path class="cls-5" d="m318.4439,261.50755l1.87014,7.33551s12.32716,4.86327,15.44909,10.45271c1.85104,3.29282,2.62173,10.93461.27846,16.88198-3.80964-1.2752-3.00095-4.043-2.66575-6.34176-3.10142-.12239-3.41772-2.91859-3.80181-7.2115-.22902-2.55557-3.15654-3.8992-5.75524-4.04979-.17017-.01017.28973,1.13409,2.54719,4.15525,3.29403,4.40833,2.19586,4.90798,1.19342,6.50928-1.90278-.79369-6.84614-7.84892-10.93602-9.81355-4.09095-1.9656-5.91186-6.44171-5.36829-8.3165-.98847-4.02869-4.43708-17.1836-4.43708-17.1836l11.6259,7.58197Z"/><path class="cls-5" d="m107.90441,93.22363s1.35246-14.61955-1.63129-28.38078c-5.27035,2.05293-2.53371,13.42375-2.53371,13.42375,0,0-15.62753-18.93574-16.6211-19.91776-.99516-.98337-3.46709-.35547-3.46365.57887-.85543-.55929-2.74205-1.46661-2.64786,1.30781.09419,2.77474,6.27999,12.08532,6.27999,12.08532,0,0-6.65328-7.65398-7.12869-8.47339-.47876-.82051-3.14241,1.78636.80079,8.48415,1.50025,2.54771,8.23303,19.68377,16.65503,19.93116.34885.81209,4.98631,6.18649,4.98631,6.18649l5.3042-5.22563Z"/><path class="cls-5" d="m212.79614,148.32705c18.08957-4.37651,27.31725-38.40234-11.17297-29.40465-3.61665.84547-11.02838,5.61586-18.07333,7.76703-15.35832,4.68979-34.07451,8.67249-43.91346,15.23534-14.35123,9.57284-2.75084,19.4511,16.13149,17.62512,18.88222-1.82646,38.50687-6.74192,57.02828-11.22285Z"/><path class="cls-5" d="m97.95493,92.97565c12.01509,17.91816,19.9937,42.86931,32.21902,57.7216,10.89644,13.23783,35.76299,11.97118,21.43038-8.15829-17.01778-23.90066-43.81445-55.0211-43.81445-55.0211,0,0-7.42159,1.79415-9.83496,5.45779Z"/><path class="cls-3" d="m181.87945,127.12979c.89549,5.79105,2.72119,16.39088,8.50742,26.65674,6.4395-1.21325,18.60622-2.86416,18.60622-2.86416,0,0,3.78288-30.39611,1.54304-32.44927-2.23981-2.0532-8.54121-1.14564-13.85075,1.67162-6.85944,3.63972-8.23876,4.77612-14.80592,6.98508Z"/><path class="cls-3" d="m275.56338,230.72741s-3.40693-21.41276,1.3648-40.69065c2.06009-8.32281,9.3693-23.02613,12.87993-33.2732,4.43974-12.95912,15.67721-27.39127,6.85179-33.443-3.15185-2.16127-18.97872-9.41056-45.24513-8.91577-25.9218.48831-39.05433,2.01752-44.49416,6.21669,1.33612,4.67631,4.51879,17.05815,1.46488,28.51036-.96679,5.35795-1.82387,10.10872-2.13622,15.46126-.35547,6.09082,7.65961,20.01593,8.54648,28.52815,1.34598,12.91889-3.13299,28.49912-1.3848,35.32537,4.45401,17.39335,62.15241,2.2808,62.15241,2.2808Z"/><path class="cls-7" d="m212.67303,224.35456c-26.20522,62.85698-7.91355,111.87155-2.90401,156.39201h79.16302c2.51979-75.72785,22.8562-103.86598-12.49285-156.55222-22.87289-.98464-41.42932-1.38952-63.76616.16021Z"/><path class="cls-8" d="m213.02267,131.36527c-6.08837-3.04419-14.0052-9.22395-10.6114-20.25251,3.39376-11.03003,17.96239-19.84022,17.67942-31.71924-.28304-11.87719-5.40321-24.56218,9.92525-41.8007,12.81464-14.41146,22.81056-4.68572,22.81056-4.68572,0,0,15.20011-3.92927,23.95599,14.53812,5.13141,10.82163,1.03598,21.60528,6.12554,29.80601,5.09094,8.20132,1.19767,11.18741,8.13275,20.36241,9.82658,13.00108,1.83028,22.10613.47238,23.22867-13.05114-5.43346-38.29943-8.24031-53.00575-5.97716-14.70536,2.26222-14.22212,13.97531-14.08032,19.91386,0,0-5.31599-.36957-11.4044-3.41376Z"/><path class="cls-4" d="m206.25452,164.48402c2.26577,2.1972,11.79828,7.67047,22.09861,4.94704,8.30409-2.19562,14.88059.20537,28.39067,4.76959,14.12445,4.77174,22.3258-6.87412,27.86109-17.56285,2.50813-4.84334,1.90868,9.5435,1.90868,9.5435,0,0-3.43565,12.88376-7.73025,22.04552-4.29456,9.16179-1.58682,37.14031-1.58682,37.14031,0,0-53.57614,14.17458-64.74201-.42708-.47276-4.62649,3.20629-33.29058-3.12372-46.19171-2.36389-4.81783-3.28693-10.44616-3.07625-14.26432Z"/><path class="cls-6" d="m305.02798,137.41812c-3.42345-14.97636-24.28334-27.84798-23.59101,4.84162.49572,23.40715,8.17829,35.90913,10.65957,53.08749.89794,6.21641-2.14401,31.79028,10.80802,30.13366,24.62233-3.1493,6.12878-26.86156,6.51349-35.76434.66802-15.46047-.9661-37.32245-4.39006-52.29843Z"/><path class="cls-6" d="m236.69035,85.48438c2.14428,2.22368,4.41557,4.92877,7.82744,3.85666,3.80664-1.20773,3.96884-1.10258,6.57544.21161,2.59708,1.31523,7.9994-.81279,11.14301-4.26126-3.29203,14.08798-.04858,27.50424,6.52641,31.32184,2.75784,5.51474-1.33725,20.23913-19.79085,20.23913-14.42952,0-18.38323-11.64997-16.19892-19.55369,11.24168-6.99976,3.59689-28.19929,3.91748-31.81428Z"/><path class="cls-5" d="m265.43394,61.04876c.27018,1.08063.27018,2.16129.22343,3.33506.12987,1.31853,1.17267,1.37438,2.28211,1.73224,3.61465.78734.9663,8.26709-2.63552,11.77163-.83161,3.37873-2.81289,10.94126-9.50772,18.13697-4.55254,4.81455-13.97328,4.90008-17.88882-.44721-3.91513-5.34495-8.7755-14.24639-8.83259-20.68396-.23974-1.82222-.26349-8.98542,2.30318-11.51593,1.78884-9.30219,4.5635-16.55723,9.56146-16.6923,1.78605,3.56642,3.73748,7.56012,8.19484,10.26607,5.51105,3.34584,12.29227,4.00735,16.29962,4.09744Z"/><path class="cls-5" d="m320.87022,269.85829c-4.01166-20.28246.19203-44.35784-5.72611-61.81818-5.91817-17.46123-22.93019-19.2631-21.75921,4.39003.95434,19.27789,20.39147,56.14068,20.39147,56.14068,0,0,3.60748,3.6373,7.09384,1.28747Z"/><path class="cls-3" d="m284.88869,167.72044c.65406-.5031,5.52881-4.62877,26.3245-2.75042-1.60995-25.08905-9.88991-44.19167-21.56235-44.05754-11.67248.13418-10.93378,27.35387-4.76215,46.80796Z"/></g></g></svg>