<?xml version="1.0" encoding="UTF-8"?><svg id="_レイヤー_2" xmlns="http://www.w3.org/2000/svg" xmlns:xlink="http://www.w3.org/1999/xlink" viewBox="0 0 431.20268 550.07822"><defs><style>.cls-1{fill:none;}.cls-2{clip-path:url(#clippath);}.cls-3{fill:#003853;}.cls-4{fill:#697dc8;}.cls-5{fill:#fff;}.cls-6{fill:#f0bda5;}.cls-7{fill:#e5b187;}.cls-8{fill:#969696;}.cls-9{fill:#c0dce9;}.cls-10{fill:#646464;}.cls-11{fill:#586ec2;}.cls-12{fill:#3b3b3b;}</style><clipPath id="clippath"><rect class="cls-1" x="37.0593" y="0" width="374.27095" height="412.06264"/></clipPath></defs><g id="_レイヤー_6"><g class="cls-2"><path class="cls-6" d="m196.50675,167.19504l10.02568-5.31274s3.49536-7.5451,7.66955-13.99723c3.92991-6.08017,15.17533-6.01833,16.6952-6.48896,1.73593,3.05143-3.43255,4.55914-6.58571,5.07174,1.18936,1.04107,2.09626,4.60034,1.18858,6.49144-.73437,1.53117-2.82223,2.20027-4.73831,2.57108-.73019.35728-2.88293.58038-2.7921,1.05843.25996,1.37029.7783,1.73707,3.79631.33477,5.85212-2.72225,7.02734-1.62966,8.12626-.45917-1.06226,1.3903-10.75306,7.19736-13.2451,10.13755-2.49286,2.93902-5.31298,1.59792-5.31298,1.59792l-8.51652,5.13166-6.31086-6.13647Z"/><path class="cls-4" d="m202.61019,163.82624c-33.27346,18.06455-50.89446,26.86636-60.01364,30.10789-9.11902,3.24091-11.45652,26.00468,7.50691,21.66579,18.96073-4.34785,56.975-42.33232,56.975-42.33232,0,0-.70479-3.39725-4.46827-9.44136Z"/><path class="cls-4" d="m127.0693,122.01739c13.65467,5.03434,19.47357,50.90173,25.72034,68.79696,4.64329,13.30142-.30862,33.70839-16.51754,21.16045-16.36544-12.66187-31.12376-74.38474-30.23801-83.91561,1.07043-10.08201,15.75148-7.99032,21.03522-6.0418Z"/><path class="cls-5" d="m84.26406,259.84507l48.42852-2.15426s7.25158-51.35855,13.79054-59.45389c6.53704-8.09472,5.17289-14.22563,4.31063-18.24887-2.69129-6.74393-18.04946-33.59215-26.4875-50.82688-8.43312-17.23399-23.8657-12.77221-23.8657-12.77221l-16.17649,143.45611Z"/><path class="cls-11" d="m121.22523,269.90628c6.56984,5.64638-8.22014,48.96614-8.22014,48.96614,0,0-14.2707,67.88623-23.99925,82.25769-14.74515,21.78089-63.22445,97.99869-63.22445,97.99869,0,0-14.73159-2.51838-23.27844-7.75901,4.28257-40.43344,29.4903-79.33509,43.39516-98.86056,13.50713-18.96781,12.07023-33.624,13.79452-53.45329,2.29931-19.83007-2.47792-46.3531,3.01574-58.36435,1.17373-3.47132,44.04957-23.21509,58.51686-10.78531Z"/><path class="cls-7" d="m143.49544,109.86148c-10.66564,1.84299-20.22624,16.57364-22.10722,25.69911-4.48527,6.82562-20.92379-20.46251-20.92379-20.46251,0,0,6.5668-4.75797,8.22011-11.46394,1.65236-6.7027,1.95617-33.76674,1.95617-33.76674,0,0,42.60505,38.3108,32.85473,39.99408Z"/><path class="cls-12" d="m105.04928,72.69878s-11.41907-1.78061-15.51118,15.46444c-4.09328,17.23954-1.42583,24.20617-4.97688,32.81673-2.01782,4.89234-5.81717,11.86664,6.19752,4.11255,8.65278-5.58415,21.32192-14.69325,24.29681-23.63209,2.01743-6.06353-.51319-27.3276-.51319-27.3276l-9.49307-1.43404Z"/><path class="cls-6" d="m124.40013,76.04756s-5.08241-1.0596-8.89342,6.7111c-3.8087,7.77031,6.99794,11.76471,6.99794,11.76471,0,0,7.02257,14.1251,14.77071,15.55453,3.79401.69943,10.64366.81129,11.43017.90041.79429.09275,1.67981-.54411,1.76951-1.33574.09009-.78686,1.81954-19.05845,1.81954-19.05845,0,0,4.76504-1.14356,2.41914-3.261-12.18475-11.00645-3.85127-23.67004-17.2103-27.86064l-13.1033,16.58509Z"/><path class="cls-12" d="m97.44849,65.31706c4.28601-11.98401,21.2799-18.10422,34.70725-16.59826,6.63.7443,10.54423,1.94434,11.86931,5.62746.00704-.01106.01485-.02345.01485-.02345,0,0,17.56948,8.44934.48953,23.42728-3.88468,3.40796-15.67533,8.25164-18.55941,6.26033-2.63939-1.82141-5.25435-4.04458-7.8577-.86089-2.60484,3.18158-.20535,12.26855-3.15164,18.66685-1.95175,4.23696-5.33279,7.24297-5.33279,7.24297,0,0-3.77532-4.44482-6.98437-9.24132-2.37854-3.55625-9.04364-23.73742-5.19503-34.50096Z"/><path class="cls-3" d="m167.9451,535.44149c-1.97623-.81684-8.5232-4.59522-8.5232-4.59522,0,0-4.59499-6.43492-4.71236-6.41776l-7.70425-15.95207s-3.81731-8.9037-4.33816-11.13547c-6.01565-3.2646-8.77812.59468-8.77812.59468l-.26836,12.85995c-.59886,1.07332-3.0062,5.70172-2.76153,10.00606.27482,4.9181,3.13847,16.87116,3.13847,16.87116l6.22882.19773s-.72233-8.39036,1.33613-8.79419c3.37892,2.92186,8.09167,9.69917,16.20683,9.57245,8.12105-.14047,11.06847-.21411,11.06847-.21411,0,0,1.08442-2.17068-.89275-2.99323Z"/><path class="cls-3" d="m32.31328,529.14661c-1.29661-1.5611-6.34542-5.62765-6.34542-5.62765,0,0-1.66495-19.01819-1.76896-19.05559l-.22959-5.7777s.75954-9.57284,1.3153-11.78741c-3.60659-5.44407-7.65024-3.14629-7.65024-3.14629l-5.96472,11.39277c-.98342.70994-5.07401,3.84705-6.78837,7.80291-1.96305,4.512-4.88128,16.41202-4.88128,16.41202l5.15398,2.78862s3.12967-7.81057,5.04618-7.30902c1.53859,4.03337,2.59397,11.70881,9.51461,14.93866,2.51174,1.17029,12.11127,2.78561,12.11127,2.78561,0,0,1.78538-1.85237.48724-3.41691Z"/><path class="cls-4" d="m144.21835,412.5973c2.79398,64.48956,5.05169,97.79905,5.05169,97.79905,0,0-19.34779.28208-27.78947-.05878-3.60835-43.17812-16.26334-76.43879-10.58929-103.45074,2.54186-18.53842-27.89102-77.11899-27.89102-77.11899,0,0-19.65407-27.77517-11.12785-51.51204,1.70197-4.74194,6.57199-23.04483,6.57199-23.04483,0,0,39.93319,2.7058,54.30219,2.47984.4109,1.26245.44732,10.8666.37005,13.01801,2.42067,16.9618,6.51032,55.20623,6.73705,58.85976,1.79089,28.91814,2.48825,39.77767,4.36465,83.02872Z"/><path class="cls-11" d="m62.45228,294.38515s20.48826,8.71805,29.48436,8.77113c7.81287-7.33728,11.00665-37.48696,11.00665-37.48696l-40.49102,28.71583Z"/><path class="cls-4" d="m68.16408,166.91202s-4.67018-27.98412,10.20188-39.83891c7.81322-2.93655,14.17166-6.27768,14.17166-6.27768l7.90292-4.40647s24.21133,38.17705,24.44432,84.48356c-.41376,16.61237-8.40486,38.79463-37.16689,94.1957-11.16201,1.31186-23.08396-2.95184-39.04443-7.06361,3.68012-37.23693,32.65645-47.14696,31.75987-84.76978-.58135-24.42869-12.26934-36.3228-12.26934-36.3228Z"/><path class="cls-11" d="m100.78219,115.54182c-3.39479,2.1552-9.83393,5.90055-9.83393,5.90055,0,0,20.15889,34.10307,26.06081,32.42362-3.06808-8.69858-11.86226-33.5284-16.22688-38.32416Z"/><path class="cls-6" d="m223.15341,234.47975s-9.71425,3.71654-11.2324,4.18545c-2.63196-1.95121-6.30195-2.28883-9.70663-2.86096-2.97013-.50119-4.80378-.42486-8.41061-.20938-3.00296,5.85232,2.64726,5.43836,3.67821,6.60787-11.43953,3.31134-4.19175,11.70037-4.19175,11.70037,0,0,16.98569,4.53069,21.00432-3.65451,2.13273-.46871,12.50021-3.22547,12.50021-3.22547l-3.64134-12.54336Z"/><path class="cls-7" d="m125.70284,213.41302c21.10949,11.39062,54.79458,23.74258,55.52552,23.5101,11.34255.27903,9.40548,1.68864,14.76556,3.53792,1.17123.55595,2.24951,1.45921,3.4114,2.59819,1.22904,1.49239,4.7326,7.26435,9.76846,11.66906,1.94606,1.70197.10553,5.57903-2.23462,5.47882-.51245.92046-1.05233,2.6587-3.86694,2.47547-1.32753-.0872-2.5722-.82005-2.5722-.82005,0,0-.62619.61528-1.58975,1.39488-.73879.59773-1.84967,1.60293-9.30989-.98475-2.83728-.98288-11.20113-11.76986-13.85463-15.90817-4.94941-.97713-32.66235-6.33725-57.63897-18.94854,2.05467-6.52806,3.9181-6.51282,7.59607-14.00292Z"/><path class="cls-6" d="m184.53055,244.80412s3.36997-3.34894,5.8588-6.91188c.97502-1.39679,2.50103-2.38041,3.302-2.42813,2.57948-.15532,5.84908-.26316,6.97814.17577,1.12902.44049-4.91909,4.84904-4.91909,4.84904,0,0-3.45127,3.44154-5.81757,4.99271-3.78693,2.48446-5.40229-.6775-5.40229-.6775Z"/><path class="cls-6" d="m179.05673,252.86546c2.16016-.85421,4.43829-1.48688,6.92427-2.26648,2.44799-.76701,4.78165.74602,4.33049,1.98061.86644-.10862,1.96798.66969,2.93081,1.83212,1.01911,1.22997,1.54567,1.94301.11969,3.67147-2.15928,2.61594-4.83758,4.32307-5.70536,4.44462-2.48578.34888-3.43199-.62998-4.02648-2.08098-1.22314-.55669-2.33574-.97103-2.9436-2.47507-.79277-1.96704-3.69383-1.74684-1.62982-5.1063Z"/><path class="cls-11" d="m109.69105,250.25374s9.41197-15.51904,10.81278-27.15797c7.00517-18.32103-29.63668-71.12794-32.00755-23.49392-1.53386,30.82089,21.19477,50.65189,21.19477,50.65189Z"/><path class="cls-4" d="m80.38265,126.20514c5.87784,11.4084,28.78376,60.22853,37.93655,75.12119,1.87754,2.92456,2.02985,5.27155,4.62727,6.01987,11.0179,4.39576,23.3504,15.24173,41.57008,22.57499-1.94512,4.12897-5.04712,14.5774-5.04712,14.5774,0,0-32.53754-4.44271-50.43661-19.6287-23.02138-19.53138-31.30503-35.75102-36.72315-46.6659-20.3005-40.89808,2.18557-49.68101,8.07298-51.99885Z"/><path class="cls-9" d="m298.89105,150.25136s-10.18429,47.40005-12.00383,58.04352c-14.40695,2.3251-32.04343,15.78451-65.10981,26.2961,2.76767,10.4643,4.45513,13.93828,4.45513,13.93828,0,0,59.95313-12.85444,72.92721-17.99603,12.97068-5.14386,26.98603-65.97949,26.98603-65.97949l-27.25475-14.30237Z"/><path class="cls-3" d="m429.79427,535.08499c1.88059,5.38337,1.3348,14.70888,1.3348,14.70888l-13.3058.28435-.02709-3.80585-11.51718,3.33178-16.17728.06641s-1.77983-3.36958.60039-3.75926c.67524-.11374,11.75615-3.38256,11.75615-3.38256l5.59865-6.51395s19.85755-6.31473,21.73735-.9298Z"/><path class="cls-3" d="m335.40373,534.67503l-.02177,14.65623-14.30388.38436-.03248-3.67953-11.11296,3.82762-18.70824.05609s-1.30537-3.50278.96951-3.88371c.65308-.11069,13.90693-4.07073,13.90693-4.07073l5.81128-7.2033,23.49162-.08704Z"/><path class="cls-10" d="m306.66726,537.58047c2.91654,1.09431,20.83124.06301,31.08158.22138-.51413-61.07378,15.0005-101.89765,5.48108-136.67173-.4664-1.14657-.89771-4.50129.03588-8.04566,13.06914-49.50662,16.22344-134.66345,16.22344-134.66345l-57.90803,6.2735s.49888,124.66732.98745,134.66345c.48896,9.98887,3.84021,41.22808,4.0986,138.22252Z"/><path class="cls-8" d="m313.86751,280.20568l92.19164,257.86414s20.01858.35075,24.80805-2.27222c-15.42758-61.40128-11.42326-114.51754-31.05942-138.57827-1.10119-.97447-3.70278-6.33725-3.79287-8.15334-8.67892-37.35121,1.64662-95.69286-14.89516-131.1994-15.99709.13477-73.26729,1.02407-73.26729,1.02407l6.01507,21.31504Z"/><path class="cls-5" d="m298.3002,126.03336c1.89204-2.98271-2.51994-11.78472-2.51994-11.78472l7.41706-8.13654,18.37582-16.9378,8.33345-.21524,6.03535,6.46603s41.42007,25.24283,43.53771,35.44717c5.48222,26.43313-4.99064,98.35136-4.99064,98.35136l9.12399,35.00461s-35.22372,13.8474-82.01384,3.69954c-.75192-5.26162-3.3398-23.3212-4.38599-27.4318-3.13753-12.31952-4.91888-26.88297-8.8339-62.87902,0,0-1.52984-18.51704,1.72448-33.40857,1.35579-6.20631,4.72572-12.70537,8.19645-18.17504Z"/><path class="cls-7" d="m278.52168,98.92484c10.91831-1.2657,17.58341,2.12202,27.76582,13.85029,7.88002,1.65976,26.25889-15.88109,22.23162-20.09667-1.52257-1.59015-8.5098-7.85086-10.58851-20.32758-1.5466-9.28392-14.16536-12.40309-17.04673-11.60172l-20.83851,16.2198-3.13902,20.34306s1.5382,1.63459,1.61532,1.61281Z"/><path class="cls-9" d="m329.90658,88.81496c1.79663,1.79605,6.32236,6.39431,6.32236,6.39431l-23.07024,26.10962s-7.77007-.86015-11.48892-9.02471c13.83634-8.33865,24.94473-20.79555,28.2368-23.47922Z"/><path class="cls-9" d="m306.78752,216.29955c2.50388,11.48056,43.28272,56.29119,55.77933,29.32521,14.28215-30.8176,24.38819-72.45526,23.70346-86.92482-.68477-14.46956-29.59869,9.30183-34.09123,16.54636-4.49328,7.24223,21.76905,56.03964-35.83857,39.1847-.95423-.27903-9.90952.22841-9.55299,1.86855Z"/><path class="cls-6" d="m295.6356,61.29784s4.19252.71374,8.88314,6.29484c4.69137,5.5838-4.36735,12.33918-4.36735,12.33918,0,0-3.56118,15.28941-9.96061,17.03184-3.83298,1.04928-10.03202,2.06495-12.76607,2.25334-.66914.04733-1.77908.01184-2.01078-.61473-.23166-.62845-2.87718-20.16057-2.87718-20.16057,0,0-4.40511.09674-3.32608-2.34132,3.00316-6.79142,4.08375-10.94099,5.37422-14.01226,1.29052-3.07378,4.52611-14.44115,6.57391-20.26063,4.31083-1.50881,14.47679,19.47033,14.47679,19.47033Z"/><path class="cls-12" d="m318.8757,48.47126c-1.57334-2.26249-4.23372-3.63219-7.03918-3.97591-1.21301-2.66018-4.45396-4.20014-7.42925-4.90895-7.12274-1.69356-19.64492.96951-26.05506-4.45568-3.66385,1.35255-6.32579,5.82902-5.67041,10.06829.45534,2.9373,2.76497,8.62702,6.91434,7.35178,6.82503-2.71916,14.44095.83111,12.20156,7.62409-.33742,2.14016-1.94207,7.49492,3.82684,9.38985,3.72686.61298,2.41078-5.51298,8.7003-2.71099,4.89711,2.52835,2.69817,17.94889,16.38529,14.70489-.12597-13.36955,2.35121-27.61429-1.83443-33.08736Z"/><path class="cls-6" d="m281.46527,200.55248s-8.99837-5.33991-21.52473-9.81369c-.9821,5.25322,9.50182,8.73024,9.50182,8.73024,0,0-27.72002,3.18865-29.00362,3.49629-1.28516.30784-1.26343,3.0669-1.26343,3.0669,0,0-3.47949,1.03896-1.20574,2.34586,2.27031,1.30768,15.95586,1.57009,15.95586,1.57009,0,0-9.45985,1.5178-10.35682,1.48958-.89701-.02462-.13359,3.41175,7.20787,3.59112,2.79206.06832,22.43584,2.96997,26.83599-3.65928.82525.12617,6.5109-1.28344,6.5109-1.28344l-2.65811-9.53368Z"/><path class="cls-5" d="m280.79199,199.35549s81.59812,6.25095,86.83418,6.77692c1.6073-4.03809-20.34037-35.2487-18.96515-61.98087.85042-16.54519,17.29945-33.01771,30.20826-15.21461,11.72445,16.17266,18.13115,54.49569,21.13774,78.41881,1.65233,13.1579.87942,24.18651-21.3927,25.0329-31.11516,1.18288-96.48566-18.34545-96.48566-18.34545l-1.33668-14.6877Z"/></g></g></svg>