<?xml version="1.0" encoding="UTF-8"?><svg id="_レイヤー_2" xmlns="http://www.w3.org/2000/svg" viewBox="0 0 390.00354 240.70494"><defs><style>.cls-1{fill:#e6e6e6;}.cls-2{fill:#fff;}.cls-3{fill:#ffd200;}.cls-4{fill:#969696;}.cls-5{fill:#2d4864;}</style></defs><g id="_レイヤー_6"><polygon class="cls-4" points="94.95543 240.70494 74.49547 86.84365 74.49547 0 63.84444 0 63.84444 6.55356 31.11099 6.55356 31.11099 0 20.46046 0 20.46046 86.84365 0 240.70494 94.95543 240.70494"/><rect class="cls-1" x="36.68619" y="21.0714" width="19.70116" height="54.75029"/><polygon class="cls-1" points="61.36562 101.26152 31.7098 101.26152 30.45636 110.68792 62.61906 110.68792 61.36562 101.26152"/><polygon class="cls-1" points="64.01346 121.17079 29.06196 121.17079 27.80896 130.5972 65.2669 130.5972 64.01346 121.17079"/><polygon class="cls-1" points="66.66085 141.08007 26.41456 141.08007 25.16112 150.50647 67.9143 150.50647 66.66085 141.08007"/><polygon class="cls-1" points="69.30825 160.98934 23.76717 160.98934 22.51372 170.41574 70.56169 170.41574 69.30825 160.98934"/><polygon class="cls-1" points="71.95565 180.89861 21.11977 180.89861 19.86633 190.32323 73.20954 190.32323 71.95565 180.89861"/><polygon class="cls-1" points="17.21849 210.23251 75.85693 210.23251 74.60349 200.80788 18.47193 200.80788 17.21849 210.23251"/><path class="cls-5" d="m139.3381,59.1757c-.57755-5.39-6.87624-5.06522-6.87624-5.06522h-14.86717v173.35397l50.02258-.4434V65.71516h-20.74912c-4.00173,0-7.04393-2.00378-7.53005-6.53946Z"/><path class="cls-5" d="m203.53204,83.2535c-.57755-5.38859-6.87642-5.06381-6.87642-5.06381h-18.14008v148.71839l55.63323-.44199V89.79437h-23.08668c-4.00191,0-7.04411-2.00378-7.53005-6.54087Z"/><path class="cls-5" d="m278.62989,114.82111c-4.00191,0-7.04411-2.00378-7.53023-6.54087-.57737-5.38859-6.87642-5.06522-6.87642-5.06522h-20.01006v124.76344l59.37354-.44199v-112.71537h-24.95684Z"/><path class="cls-2" d="m99.0679,228.56897V54.11026h14.86706s6.29893-.32415,6.87633,5.06496c.48608,4.53678,3.52834,6.54025,7.53014,6.54025h20.74893v162.41054l-50.02246.44296Z"/><rect class="cls-5" x="103.4817" y="88.38202" width="41.19486" height="4.43022"/><rect class="cls-5" x="103.4817" y="103.18939" width="41.19486" height="4.43022"/><rect class="cls-5" x="103.4817" y="117.99676" width="41.19486" height="4.43022"/><rect class="cls-5" x="103.4817" y="132.80413" width="41.19486" height="4.43022"/><rect class="cls-5" x="103.4817" y="147.6115" width="41.19486" height="4.43022"/><rect class="cls-5" x="103.4817" y="162.41887" width="41.19486" height="4.43022"/><rect class="cls-5" x="103.4817" y="177.22624" width="41.19486" height="4.43022"/><path class="cls-2" d="m159.98888,226.90859V78.18916h18.13992s6.29893-.32415,6.87633,5.06496c.48608,4.53678,3.52834,6.54025,7.53014,6.54025h23.08668v136.67126l-55.63307.44296Z"/><rect class="cls-5" x="165.65764" y="103.18939" width="44.29555" height="4.43022"/><rect class="cls-5" x="165.65764" y="117.99676" width="44.29555" height="4.43022"/><rect class="cls-5" x="165.65764" y="132.80413" width="44.29555" height="4.43022"/><rect class="cls-5" x="165.65764" y="147.6115" width="44.29555" height="4.43022"/><rect class="cls-5" x="165.65764" y="162.41887" width="44.29555" height="4.43022"/><rect class="cls-5" x="165.65764" y="177.22624" width="44.29555" height="4.43022"/><rect class="cls-5" x="165.65764" y="192.03361" width="44.29555" height="4.43022"/><path class="cls-2" d="m225.68643,227.97892v-124.76358h20.01013s6.29893-.32415,6.87633,5.06496c.48608,4.53678,3.52834,6.54025,7.53014,6.54025h24.95689v112.71542l-59.37349.44296Z"/><rect class="cls-5" x="231.13885" y="127.78254" width="48.46864" height="4.43022"/><rect class="cls-5" x="231.13885" y="142.58991" width="48.46864" height="4.43022"/><rect class="cls-5" x="231.13885" y="157.39728" width="48.46864" height="4.43022"/><rect class="cls-5" x="231.13885" y="172.20465" width="48.46864" height="4.43022"/><rect class="cls-5" x="231.13885" y="187.01202" width="48.46864" height="4.63461"/><path class="cls-2" d="m314.75824,229.5178s-36.82427-149.17394,63.70963-155.95811v156.07861l-63.70963-.1205Z"/><path class="cls-5" d="m389.08213,213.48611s5.57454-128.37666-10.69953-139.92726v156.07861s9.44076,0,9.44076,0l1.25877-16.15134Z"/><rect class="cls-3" x="362.98668" y="108.41466" width="5.61655" height="5.61655"/><rect class="cls-3" x="362.98668" y="121.43484" width="5.61655" height="5.61655"/><rect class="cls-3" x="362.98668" y="134.45503" width="5.61655" height="5.61655"/><rect class="cls-3" x="362.98668" y="147.47521" width="5.61655" height="5.61655"/><rect class="cls-3" x="362.98668" y="160.4954" width="5.61655" height="5.61655"/><rect class="cls-3" x="362.98668" y="173.51559" width="5.61655" height="5.61655"/><rect class="cls-3" x="362.98668" y="186.53577" width="5.61655" height="5.61655"/><rect class="cls-3" x="348.92127" y="108.41466" width="5.61655" height="5.61655"/><rect class="cls-3" x="348.92127" y="121.43484" width="5.61655" height="5.61655"/><rect class="cls-3" x="348.92127" y="134.45503" width="5.61655" height="5.61655"/><rect class="cls-3" x="348.92127" y="147.47521" width="5.61655" height="5.61655"/><rect class="cls-3" x="348.92127" y="160.4954" width="5.61655" height="5.61655"/><rect class="cls-3" x="348.92127" y="173.51559" width="5.61655" height="5.61655"/><rect class="cls-3" x="348.92127" y="186.53577" width="5.61655" height="5.61655"/><rect class="cls-3" x="334.85585" y="121.43484" width="5.61655" height="5.61655"/><rect class="cls-3" x="334.85585" y="134.45503" width="5.61655" height="5.61655"/><rect class="cls-3" x="334.85585" y="147.47521" width="5.61655" height="5.61655"/><rect class="cls-3" x="334.85585" y="160.4954" width="5.61655" height="5.61655"/><rect class="cls-3" x="334.85585" y="173.51559" width="5.61655" height="5.61655"/><rect class="cls-3" x="334.85585" y="186.53577" width="5.61655" height="5.61655"/><rect class="cls-3" x="320.79043" y="134.45503" width="5.61655" height="5.61655"/><rect class="cls-3" x="320.79043" y="147.47521" width="5.61655" height="5.61655"/><rect class="cls-3" x="320.79043" y="160.4954" width="5.61655" height="5.61655"/><rect class="cls-3" x="320.79043" y="173.51559" width="5.61655" height="5.61655"/><rect class="cls-3" x="320.79043" y="186.53577" width="5.61655" height="5.61655"/></g></svg>