<?xml version="1.0" encoding="UTF-8"?><svg id="_レイヤー_2" xmlns="http://www.w3.org/2000/svg" xmlns:xlink="http://www.w3.org/1999/xlink" viewBox="0 0 449.66282 343.89713"><defs><style>.cls-1{fill:#697dc8;}.cls-2{fill:#fff;}.cls-3{fill:#ffd200;}.cls-4{fill:#f0bda5;}.cls-5{fill:#e5b187;}.cls-6{fill:#737373;}.cls-7{fill:#c0dbe7;}.cls-8{fill:#14509f;}.cls-9{fill:#3b3b3b;}.cls-10{fill:url(#Novpol昼ko_p_echodu_2);}</style><linearGradient id="Novpol昼ko_p_echodu_2" x1="158.89344" y1="209.10762" x2="84.99914" y2="181.77695" gradientUnits="userSpaceOnUse"><stop offset="0" stop-color="#accfdf"/><stop offset="1" stop-color="#fff"/></linearGradient></defs><g id="_レイヤー_6"><path class="cls-4" d="m392.74539,180.00828l25.66886-12.75082s4.90867-7.96675,10.1694-15.00019c4.95252-6.62543,19.05608-6.12106,20.8249-6.54062,1.74113,3.61516-5.89945,5.00713-9.53361,5.34657,1.2763,1.27847,2.03424,5.40549.8524,7.4922-1.27554,2.25405-6.37072,3.48368-6.77698.58659-1.12975.1408-1.98466,1.55252-2.08847,2.96824-.12321,1.58947.75218,2.04,4.30267.67568,6.8812-2.64817,8.13554-1.31295,9.2987.10449-1.31654,1.50442-12.81757,7.37402-15.88385,10.53332-3.06911,3.15575-6.18208,1.40817-6.18208,1.40817l-29.57095,21.24635-1.08097-16.06999Z"/><path class="cls-1" d="m312.47431,131.94499c10.17878,6.51042,15.86486,40.40361,40.95436,64.67665,10.44385-3.86011,19.88035-7.49396,40.75799-17.55021,3.68449,6.40696,6.91805,12.46689,6.91805,12.46689,0,0-33.33822,27.5714-48.40564,30.85101-1.60064.34844-3.06842.4379-4.39137.41598-3.17336.20978-6.92433-1.22604-10.9594-5.1472-16.17589-15.71427-35.21653-37.28204-48.62035-47.3829,2.38988-10.78871,18.57691-41.63679,23.74635-38.33022Z"/><path class="cls-2" d="m256.16311,274.46356s13.97145,5.92241,28.47228,4.73088c14.50195-1.19046,35.18378-4.95928,35.18378-4.95928,0,0-5.80916-59.58012,2.38747-66.38296,6.57185-5.45582,10.29947-8.42975,9.56377-16.98199-.53271-6.27299-15.02208-37.2145-21.44234-55.77993-6.41923-18.56792-22.66194-15.96466-22.66194-15.96466l-31.50302,155.33794Z"/><path class="cls-9" d="m331.11017,57.1862s29.19859,9.36337-.24857,30.254c-29.45436,20.88809.24857-30.254.24857-30.254Z"/><path class="cls-9" d="m290.53335,64.71432s-7.00386,4.92511-7.95282,22.06024c-1.87376,33.83311-22.35574,36.87678-18.93369,50.56488,1.3317,5.32692,20.30749-10.54956,25.50968-12.52953,6.3186-2.40467,9.23616-3.08394,11.23737-5.58014,4.14642-5.17092,2.39023-11.33759,2.39023-11.33759l-12.25076-43.17787Z"/><path class="cls-5" d="m334.217,115.92034c-14.71349,5.64009-23.82971,25.74687-25.22237,29.78087-5.74748,6.07362-19.17212-27.18517-19.17212-27.18517,0,0,6.02156-2.48652,8.89454-8.94919,2.87233-6.4587,9.50165-34.81027,9.50165-34.81027,0,0,38.39817,36.41061,25.9983,41.16376Z"/><path class="cls-4" d="m311.52455,83.13389s-4.56812-1.88731-8.2088,6.63542c-3.63671,8.52135,6.25575,10.11486,6.25575,10.11486,0,0,2.21603,6.09447,5.14076,9.24622,2.19768,2.36761,4.95252,4.89898,7.85929,6.49539,1.45557.79817,2.94597,1.36463,4.42305,1.55755,4.09864.53664,11.42743.27515,12.27662.3251.85133.05278,1.76299-.6782,1.81508-1.52776.05175-.84954.88012-20.48111.88012-20.48111,0,0,5.0315-1.49074,2.40567-3.62164-13.64811-11.08826-5.44607-25.09774-19.96205-28.83215l-12.88549,20.08813Z"/><path class="cls-9" d="m323.49083,91.10705s-6.21269,2.62983-9.63676-1.17246c-3.45672-3.83715-7.34127-2.66972-8.92795,1.43543-1.59099,4.11951.34089,14.91756-2.51379,24.11276-2.0059,6.46091-15.98373,10.09331-15.98373,10.09331,0,0,6.12967-10.29944,1.92471-12.10994-4.20893-1.81187-3.44599-42.77051,1.06397-47.59691,4.50314-4.82648,14.08849-12.95337,28.76751-15.05731,14.67581-2.10071,17.01788,10.57462,10.07459,23.71873-5.6896,10.774-4.76856,16.5764-4.76856,16.5764Z"/><path class="cls-1" d="m251.99479,175.00326c-5.66271-14.32523-21.86339-19.33843-6.81218-30.24249,3.60758-2.61294,43.91281-20.01232,43.91281-20.01232,0,0,18.40702,36.199,12.85856,83.28834-1.33091,10.56424-4.30063,35.22859-26.97643,75.58381-11.51-.06143-33.08608-7.29983-37.63661-12.22953,8.023-27.57605,18.48203-31.44699,21.23576-56.31271,1.22745-11.09299-2.02131-28.53674-6.58192-40.07511Z"/><path class="cls-5" d="m279.16949,246.63216s7.17506,2.62104,9.66551,2.95293c5.24849-3.34791,14.30741-3.67356,17.91058-2.08816,2.45011.57646,22.42013,4.36234,23.77328,4.68458,1.35318.32255,1.33129,3.22611,1.33129,3.22611,0,0,1.99652,1.87117-.39515,3.25162-2.39271,1.37831-15.13023.88008-15.13023.88008,0,0,9.95786,1.59347,10.90151,1.56296.94476-.02803.14262,3.58965-7.58304,3.78471-2.94055.07143-25.99147,2.83137-30.62789-4.14646-2.7146-.54312-13.40565-2.41684-13.40565-2.41684l3.5598-11.69154Z"/><path class="cls-1" d="m261.8373,239.78764c-6.58061.39246-13.43198,4.31042-13.43198,4.31042l-2.81979,6.3994s13.26169,18.44456,26.51177,18.00311c5.06747-8.32522,9.17976-15.89751,9.17976-15.89751,0,0-5.21436-13.6639-19.43976-12.81543Z"/><path class="cls-1" d="m282.80144,244.8168l-56.95406-22.91205s22.43743-26.70773,32.24543-41.12849c9.80596-14.42152-4.70499-52.84658-20.87333-27.44925-14.03785,22.05273-34.85089,58.97839-37.96564,72.58627-3.118,13.60785,15.71244,15.31043,43.68072,21.69688,24.40531,5.57287,35.35096,9.40932,35.35096,9.40932l4.51593-12.20267Z"/><path class="cls-9" d="m361.68375,245.5454s9.98614-48.2889,10.2282-49.84014c.24554-1.55504,1.62835-2.94826,3.96412-2.94896,2.68994-.00063,47.42875-3.35068,48.60494-3.19903,1.17092.14838,1.98872,1.22756,1.71536,2.37442-.27516,1.14627-10.84897,50.70864-10.84897,50.70864l-53.66366,2.90506Z"/><path class="cls-9" d="m313.42967,249.56135l48.2738-4.02664,53.64393-2.89438s-.35503,4.5766-3.46867,5.06333c-5.39538.43386-93.32103,6.31848-95.25894,6.52811-2.54666.28401-3.19013-4.67043-3.19013-4.67043Z"/><polygon class="cls-3" points="375.98261 196.30651 421.26067 193.05134 410.52645 242.78388 365.95962 245.72028 375.98261 196.30651"/><path class="cls-8" d="m407.89945,216.33766l-6.54481.53214-11.23746.913.1028-.58896c.62389-3.5735-1.04449-6.30251-3.71548-6.08522-2.67307.21728-5.35463,3.29973-5.97848,6.87282l-.67581,3.87042c-.62397,3.57343,1.04266,6.30291,3.71582,6.08564,2.67095-.21687,5.3543-3.30019,5.97814-6.87327l.10253-.58702,11.23757-.9134-.69033,3.95354,2.01259-.16337.39648-2.27129,2.26736-.18422-.5584,3.19794,2.26478-.18415.85233-4.88044.88133-.07143.4705-2.69442-.88145.07169Zm-20.37055,4.89041c-.36489,2.08888-1.93178,3.89023-3.49278,4.01739-1.56292.1266-2.53676-1.46793-2.17188-3.55722l.67561-3.87003c.36475-2.08902,1.93162-3.89066,3.49466-4.01792,1.5611-.12686,2.5348,1.46848,2.17018,3.55739l-.6758,3.87039Z"/><path class="cls-1" d="m216.27379,343.89713c-.24122-6.9004-.87656-21.01334-1.32184-29.81897-.54467-10.77078-8.02136-19.63761-14.85881-21.79289-24.19828-7.62772-87.2616-21.25256-87.2616-21.25256,0,0-74.10907-1.93764-89.67879-3.74458-1.39076,6.11664.23512,33.22076,7.00993,47.87069,8.31515,17.98091,83.20864,23.16903,132.37828,23.32379.40521,2.63407.6754,5.41452.6754,5.41452h53.05743Z"/><path class="cls-4" d="m235.48522,249.26031l6.00037,1.75613s29.4263-16.40998,38.4997,13.2464c-2.06106,1.41165-4.48587.65092-5.74855-2.38388-1.57406.84171-4.86726-.63393-8.43144-4.4407-3.31799-3.53915-8.5612-3.69859-11.26802,1.27679-1.02112,1.87445,1.26506,2.12956,7.71515,3.35739,7.02065,1.33794,6.67207,1.74175,7.3152,4.10967-2.43529,1.11175-12.88886-.80327-18.73805-.08429-5.71321.70254-10.96315-3.6425-10.96315-3.6425l-11.81366-4.04131,7.43245-9.15369Z"/><path class="cls-7" d="m156.14652,115.15938s12.46068,90.37594,15.51055,108.37833c21.38161,4.72199,33.48823,13.86947,65.58303,25.6571-3.82994,10.3637-7.83485,15.08251-7.83485,15.08251,0,0-60.20285-10.67766-82.12832-19.40507-21.92379-8.72789-37.25473-105.59229-37.25473-105.59229l46.12432-24.12058Z"/><path class="cls-10" d="m75.88957,282.55247c12.54405-2.1308,30.25211-2.87388,38.11268-11.24957,8.75785-13.96307,31.06176-74.12345,39.19103-95.51787,5.63554-14.83609,8.55379-49.08462,3.59396-61.54145-.3141-.80092,4.90126-10.0439,4.49152-10.78122-9.83551-17.73582-37.28428-27.40164-37.28428-27.40164l-8.46223-.58983.26429,6.03718s-36.40692,11.67406-63.33218,58.69825c-19.48316,34.027-26.7512,97.41876-30.59263,134.71586-1.09214,10.60244,41.85764,9.69543,54.01784,7.63031Z"/><path class="cls-5" d="m178.78935,77.98649c-6.25299.00572-24.40696,12.47196-29.7122,26.09031-17.05477-7.34447-30.74042-21.83581-33.96608-22.38862,10.74755-7.49834,10.20146-17.84087,10.20146-17.84087,0,0,24.6928-67.93214,53.47682,14.13917Z"/><path class="cls-7" d="m65.02964,249.91175c11.07409,9.69006,61.17484-4.81135,61.17484-4.81135,0,0,10.32529-23.84543,11.56764-29.52541-1.95236-3.46165-44.04936,12.3242-40.5601-6.01901,6.23816-32.79579-.41984-55.62576-15.03205-36.46011-36.43788,47.7955-25.67047,69.36064-17.15033,76.81588Z"/><path class="cls-2" d="m153.13705,105.03497s-3.6909,8.63122-12.71841,13.39175c-14.12066-26.15126-31.47267-34.28018-31.47267-34.28018,0,0,3.1334-4.5484,6.58629-8.50701,14.1449,5.25914,37.60479,29.39544,37.60479,29.39544Z"/><path class="cls-4" d="m181.54219,198.22467s10.26841-1.03364,12.50929-1.37839c.77569-1.72376,6.71051-4.87567,22.49501-10.51491,2.24088,5.63082-7.297,7.52695-8.15888,9.53823,3.27479,1.03425,7.23977,1.43623,14.13479,2.06851,8.50363.91911,15.91779-.15251,18.32904-.40201,1.66618-.17238,3.46365,2.74929,1.03425,3.61989-9.13591,3.27482-13.61768,1.63725-13.79005,3.18863s14.49603-.0936,15.51381.08619c1.46519.25856,2.8442,2.41326,1.63757,3.61989-.84102.84099-2.27794.98644-3.24652,1.12044-.93359.12928-1.379.97668.60331.8043.76421,0,2.49945,2.49945-1.23524,3.4189-2.20823.54371-12.13297,2.45736-15.51381,2.75801-7.7569.6895-27.92484,1.379-30.18696-4.93797-1.04032.15993-16.467,3.21987-16.467,3.21987l2.34138-16.20957Z"/><path class="cls-2" d="m186.12472,197.62825s-74.91982,5.91707-81.51722,6.58064c-2.02607-5.08911,6.96066-31.56862,5.22918-65.25759-1.07197-20.85137-20.12753-38.4192-36.39313-15.9828-14.77613,20.38141-17.36852,53.63709-16.47803,83.87318.49189,16.7046-1.10931,30.48051,26.95895,31.54672,39.21106,1.49077,102.93084-22.01801,102.93084-22.01801l-.7306-18.74215Z"/><path class="cls-4" d="m180.2953,78.66285c-6.13551-.05691-8.59893-.55115-12.13262-1.18339-8.46726-1.51504-8.84907-11.60673-8.84907-11.60673l-.80396-11.60673s-7.87205-.8043-6.03314-9.42308c1.36084-6.37858-11.81479-3.59396-5.13255-5.70928,9.89039-3.12903,2.43918-24.8719,2.43918-24.8719l13.55303-2.87316,11.49428,6.91085,15.79525,30.62762s.00845,2.07965-2.43646,2.22844c-2.44928.15317-2.0372.62452-2.0372.62452,0,0-.57167,23.00979-.74911,24.16119-.15521,1.1494-2.59977,2.74456-5.10762,2.72166Z"/><path class="cls-9" d="m129.94616,19.72118c8.1737-17.59575,36.12378-9.62542,42.93799-19.72118,7.86294,2.99606,9.98061,14.65261,2.85261,20.20362-10.8125-1.62912-11.11349,2.88395-8.49353,10.15975.25418,1.36349,2.79269,8.2895,3.30344,13.22779-.51578,2.77552-3.06507,3.66095-5.44903,2.83813-2.50855-7.10239-7.67982-8.13664-11.41451-3.59731-3.85421,4.69182-.4599,29.76339-23.53867,23.59151-.75483-.24542-3.69666-1.64259-4.84606-2.5617.00438-5.41638-9.69206-39.06968,4.64776-44.14063Z"/><path class="cls-6" d="m179.02068,329.56735c0,3.93164-5.34588,11.22665-12.06715,14.32978H47.23821c-12.65174-4.35517-17.07587-10.87138-17.07587-14.53598,0-11.15118,31.25575-20.19086,69.8122-20.19086s79.04615,9.24588,79.04615,20.39706Z"/><path class="cls-6" d="m0,231.23255c0,3.69832,2.99875,6.69772,6.69607,6.69772h8.67735c3.69835,0,20.61605-3.20274,20.61605-19.19798,0-15.99624-17.06583-19.30237-20.61605-19.30237H6.69607c-3.69732,0-6.69607,2.99633-6.69607,6.69538v25.10726Z"/><path class="cls-6" d="m30.2297,332.17387h12.1895l-11.24481-5.76751h-.94469c-2.36816,0-7.91345,0-12.65143-1.48943-6.86975-2.15873-7.66364-5.94358-7.66364-8.60295v-80.60807h-5.76751v80.60807c0,4.75715,2.03048,11.06503,11.70168,14.10518,5.58235,1.75471,11.74815,1.75471,14.38091,1.75471h0Z"/></g></svg>