<?xml version="1.0" encoding="UTF-8"?><svg id="_レイヤー_2" xmlns="http://www.w3.org/2000/svg" xmlns:xlink="http://www.w3.org/1999/xlink" viewBox="0 0 380.84085 131.24846"><defs><style>.cls-1,.cls-2,.cls-3{fill:none;}.cls-4{clip-path:url(#clippath);}.cls-5{fill:#fff;}.cls-6{fill:#c0dbe7;}.cls-7{fill:#14509f;}.cls-2{stroke-width:2.70011px;}.cls-2,.cls-3{stroke:#fff;stroke-miterlimit:10;}.cls-3{stroke-width:2px;}</style><clipPath id="clippath"><rect class="cls-1" x="0" width="380.84085" height="131.24846"/></clipPath></defs><g id="_レイヤー_6"><g class="cls-4"><line class="cls-2" x1="275.02713" y1="8.52092" x2="188.96881" y2="78.55566"/><line class="cls-2" x1="275.02713" y1="24.52886" x2="211.3833" y2="81.53441"/><line class="cls-2" x1="275.02713" y1="40.5368" x2="237.99043" y2="79.47846"/><line class="cls-2" x1="275.02713" y1="56.54474" x2="258.68486" y2="78.30364"/><line class="cls-2" x1="277.928" y1="8.52092" x2="363.98632" y2="78.55566"/><line class="cls-2" x1="277.928" y1="24.52886" x2="341.57183" y2="81.53441"/><line class="cls-2" x1="277.928" y1="40.5368" x2="314.9647" y2="79.47846"/><line class="cls-2" x1="277.928" y1="56.54474" x2="294.27027" y2="78.30364"/><line class="cls-2" x1="100.2209" y1="8.52092" x2="14.16257" y2="78.55566"/><line class="cls-2" x1="100.2209" y1="24.52886" x2="36.57706" y2="81.53441"/><line class="cls-2" x1="100.2209" y1="40.5368" x2="63.18419" y2="79.47846"/><line class="cls-2" x1="100.2209" y1="56.54474" x2="83.87863" y2="78.30364"/><line class="cls-2" x1="103.12176" y1="8.52092" x2="189.18009" y2="78.55566"/><line class="cls-2" x1="103.12176" y1="24.52886" x2="166.7656" y2="81.53441"/><line class="cls-2" x1="103.12176" y1="40.5368" x2="140.15847" y2="79.47846"/><line class="cls-2" x1="103.12176" y1="56.54474" x2="119.46404" y2="78.30364"/><rect class="cls-1" x="22.11187" y="79.13378" width="6.71377" height="52.11468"/><polygon class="cls-5" points="282.61016 131.24846 270.49582 131.24846 273.19611 3.18494 279.90988 3.18494 282.61016 131.24846"/><polygon class="cls-5" points="107.80392 131.24846 95.68959 131.24846 98.38987 3.18494 105.10364 3.18494 107.80392 131.24846"/><rect class="cls-6" x="0" y="78.16315" width="380.84085" height="11.20649"/><path class="cls-7" d="m340.38304,121.33795c-4.131,2.42508-10.20634,3.96551-16.99902,3.96551-8.88268,0-16.542-2.62931-20.21141-6.43846-3.66964,3.80914-11.32896,6.43846-20.21164,6.43846s-16.542-2.62931-20.21141-6.43846c-3.66919,3.80914-11.32896,6.43846-20.21141,6.43846-8.88291,0-16.54223-2.62931-20.21164-6.43846-3.66941,3.80914-11.32873,6.43846-20.21119,6.43846-8.88291,0-16.54245-2.62931-20.21187-6.43846-3.66919,3.80914-11.32896,6.43846-20.21141,6.43846s-16.54223-2.62931-20.21141-6.43846c-3.66941,3.80914-11.32896,6.43846-20.21141,6.43846s-16.54223-2.62931-20.21164-6.43846c-3.66941,3.80914-11.32873,6.43846-20.21141,6.43846s-16.54223-2.62931-20.21141-6.43846c-3.66941,3.80914-11.32896,6.43846-20.21164,6.43846s-16.542-2.62931-20.21141-6.43846C16.54226,122.67415,8.88272,125.30347.00003,125.30347v43.75856h340.38301v-47.72407Z"/><path class="cls-3" d="m340.38304,121.33795c-4.131,2.42508-10.20634,3.96551-16.99902,3.96551-8.88268,0-16.542-2.62931-20.21141-6.43846-3.66964,3.80914-11.32896,6.43846-20.21164,6.43846s-16.542-2.62931-20.21141-6.43846c-3.66919,3.80914-11.32896,6.43846-20.21141,6.43846-8.88291,0-16.54223-2.62931-20.21164-6.43846-3.66941,3.80914-11.32873,6.43846-20.21119,6.43846-8.88291,0-16.54245-2.62931-20.21187-6.43846-3.66919,3.80914-11.32896,6.43846-20.21141,6.43846s-16.54223-2.62931-20.21141-6.43846c-3.66941,3.80914-11.32896,6.43846-20.21141,6.43846s-16.54223-2.62931-20.21164-6.43846c-3.66941,3.80914-11.32873,6.43846-20.21141,6.43846s-16.54223-2.62931-20.21141-6.43846c-3.66941,3.80914-11.32896,6.43846-20.21164,6.43846s-16.542-2.62931-20.21141-6.43846C16.54226,122.67415,8.88272,125.30347.00003,125.30347"/></g></g></svg>