<?xml version="1.0" encoding="UTF-8"?><svg id="_レイヤー_2" xmlns="http://www.w3.org/2000/svg" xmlns:xlink="http://www.w3.org/1999/xlink" viewBox="0 0 222.67173 158.73608"><defs><style>.cls-1{fill:none;}.cls-2{clip-path:url(#clippath);}.cls-3{fill:#fff;}.cls-4{opacity:.51;}.cls-5{fill:url(#_新規グラデーションスウォッチ_5);}</style><linearGradient id="_新規グラデーションスウォッチ_5" x1="54.82962" y1="23.29376" x2="166.978" y2="135.44214" gradientUnits="userSpaceOnUse"><stop offset="0" stop-color="#5aedff"/><stop offset=".3908" stop-color="#64aee5"/><stop offset="1" stop-color="#64aee5"/></linearGradient><clipPath id="clippath"><ellipse class="cls-1" cx="110.9039" cy="79.36814" rx="79.23396" ry="79.36795"/></clipPath></defs><g id="_レイヤー_6"><ellipse class="cls-5" cx="110.9039" cy="79.36814" rx="79.23396" ry="79.36795"/><g class="cls-2"><g class="cls-4"><path class="cls-3" d="m80.29273,109.46658c1.227-5.99184,12.10124-9.67165,13.0197-9.68683,1.81433-.03069,1.77397,4.5761,2.50232,4.27306.72912-.30283,1.93693-3.1128,2.53476-3.02999.59633.08323,3.56941,5.24569,3.86327,6.63133.29382,1.38632,2.51363,2.16218,2.69428,2.94944.17995.78687-2.04515,13.15495-3.37968,13.2392-1.33449.08553-7.3674-8.39309-8.84562-8.36652-1.47825.02865-8.20668,3.09949-9.60421,2.68997-1.39749-.40889-3.2533-6.41025-2.78482-8.69966Z"/><path class="cls-3" d="m75.69358,95.30392c-.06601-1.83793,6.04531-8.18863,6.90645-8.24614.86153-.0573,1.42128,3.6518,1.58536,4.7361.16408,1.08473-1.47598,4.4941-2.61398,5.23715-1.1365.74411-5.81109.11209-5.87783-1.72711Z"/><path class="cls-3" d="m91.65013,68.8089c-1.18065-.34495,1.98328-5.65764,3.90587-6.71142,1.92217-1.05361,2.86292-8.16044,3.42758-8.97805.56354-.81692,3.70031,4.17759,3.1662,6.16145-.53299,1.98407-5.10348,5.57088-5.10348,5.57088,0,0,.4613,1.3589-.11958,2.119-.58316.75822-4.09598,2.18293-5.27659,1.83814Z"/><path class="cls-3" d="m178.73057,84.84476s11.52638-1.6148,13.59625-.88026c2.06949.73416,6.01197,5.80421,6.81047,6.72183.79912.91805,10.2477,4.86669,10.6628,6.93314.4151,2.06586-2.64867,7.35925-3.58621,9.48776-.9375,2.12852-10.38876,9.12372-10.33611,11.28174.05373,2.15942-5.48142,7.79096-5.51819,9.89729-.03546,2.10756.66555,8.42565-.48718,8.05706-1.15102-.36782-6.08984-6.83206-6.62356-10.35974-.53411-3.52479,4.18197-17.91431,3.69351-20.1221-.49034-2.20848-3.56018-3.97231-4.76137-4.56012-1.20154-.5878-2.17451-4.37368-1.88841-6.52111.28552-2.14743-1.56199-9.9355-1.56199-9.9355Z"/><path class="cls-3" d="m179.91326,86.01459s-11.02545-11.34563-15.59633-12.45297c-3.50942-.84953-7.27628-8.04546-9.2579-10.28105-1.98123-2.2367-1.1808-14.72517-2.51611-16.3412-1.33526-1.61608-8.01352-5.35069-10.01398-4.58503-2.00046.76549-9.95368,4.52212-11.78552,3.15786-1.83017-1.36409-2.94743-10.152-1.58818-12.29565,1.35995-2.14514,6.43268-6.99312,7.90112-7.14007,1.46898-.14738,7.51054,6.21994,9.42862,6.12175,1.91935-.09815,6.56396-3.11399,8.84751-3.3695,2.28374-.2553,11.50054,3.12857,12.83299,3.56734,1.3319.43856,1.8277-4.18855,3.51642-4.15102,1.68741.03571,12.10031,7.97447,10.63187,9.07352-1.46826,1.09922-11.30329,4.41457-11.25895,5.7691.0443,1.35457,5.56759,7.55211,8.14573,6.2897,2.5793-1.26258,3.03136-8.04087,4.67405-8.9122,1.64402-.87218,7.23425,3.43739,8.2227,3.76305,5.17872,1.70722,6.96304,9.72211,6.08718,10.92556-2.99208,4.1097-11.61008,4.32347-13.07211,5.98767-1.46389,1.66505-.55431,9.61044-4.26307,10.48781-.65651.15465-3.13129-4.11863-4.00865-4.12109-1.83244-.00438-2.7,1.39601-3.08548,2.35101-.38586.9552-.84569,6.98067-.38586,7.6401,1.29189,1.85141,6.76087-1.8747,7.47621.88213.31271,1.20715-.93225,7.63321-.93225,7.63321Z"/><path class="cls-3" d="m203.70913,41.45044c-2.00614.4006-3.95906-3.68398-5.89428-5.13878-1.35241-1.01727,2.38973-3.5914,2.45632-5.28093.06713-1.68996-4.7674-7.47508-6.58965-9.04359-1.82221-1.5669-5.29583-1.93532-4.56029-3.80832.73496-1.87262,15.35435-3.26867,18.15771-4.44326,2.80313-1.17603,12.47443,1.46331,14.68463,3.81933,3.69992,3.94549-8.26288,4.9503-9.07818,6.17161-1.48088,2.21715,1.26531,6.99121.16539,8.38021-1.10027,1.38964-5.4222,1.86161-6.5202,3.5931-.78042,1.23061.54732,5.07753-2.82144,5.75065Z"/><path class="cls-3" d="m97.63209,26.91354c-1.22136-.24927-2.08667.43898-4.6584,2.44529-2.57095,2.0075-17.80294-7.91989-21.37497-7.43959-7.00946.94254-11.827,9.54175-16.05917,9.25469-1.38204-.09339-1.11421-4.9719-2.86141-5.37811-1.74828-.40515-3.92812,8.94855-6.33198,9.09613-2.40274.14674-7.28065-1.76239-8.91317-.93051-1.63364.83189-1.99274,5.26996-3.65956,4.69189-1.66721-.57845-1.35527-4.0555-2.37937-5.81875-1.02333-1.7632-3.31742-2.73894-4.69853-3.02208-1.37849-.28413-7.09413,2.14059-7.85002,3.02208-.75666.88111-7.20939,7.10207-7.20939,9.11003,0,2.00835,3.0387,5.81437,5.16307,5.63898,2.12418-.17603,7.03229-11.03553,9.42124-10.66193.98675.15379-2.16396,3.00066-1.88598,5.20705.27764,2.20571,6.72769,2.23105,6.25844,3.34149-.46771,1.10964-6.20753.69306-7.57486,2.09991-2.31221,2.37779-5.56535,1.0023-7.42758.82275-1.86334-.17934-6.5849,3.02455-6.6696,4.70851-.08467,1.68371,4.81815,3.6541,3.30653,5.23132-.81248.84787-5.1863-1.46411-6.42631-.62559-1.24079.83899-1.77469,4.95302-2.44237,6.86339-.66783,1.90998,5.54389.53926,6.57741-1.64056,1.03237-2.17957,5.20321-5.32471,7.0747-5.05696,1.872.26772,4.95315,6.52545,7.97092,5.09704,1.79262-.84893,7.3791-1.72422,7.96373.30572.58428,2.02935-.05014,4.7361-1.86825,5.29509-4.29436,1.32111-9.1557-1.73625-13.14886-1.30619-1.09011.11707,1.28698-2.82115-.96717-3.56568-2.25431-.74428-10.23728,2.51126-11.45262,3.38158-1.21495.86887-6.17849,13.04804-5.4326,14.96674.74725,1.91721,4.08374,7.64711,5.95257,8.38229,1.86995.73352,6.18997-4.07357,7.63427-3.94694,1.44484.12616,4.86752,12.17463,5.49274,13.42433.62445,1.24745-.86435,4.91298-.5209,6.23843.34438,1.32736,4.38019,11.32178,5.36504,11.31928.98675-.00145,5.91163-3.29456,6.65319-4.80645.74117-1.51329,3.69312-9.31382,4.88733-11.80412,1.19421-2.49052-.34137-6.67907-.40811-8.36861-.06678-1.68915,2.30691-4.05865,4.48413-3.74978,2.70939.38313,7.72572-8.29868,6.28671-12.20349-.53032-1.44005-4.98691-3.91191-4.68328-4.66992,1.05917-2.63934,8.91506-2.20924,12.33662-.2389,2.01723,1.16256,1.00672,12.02666,4.34871,12.74296,4.65272.99771,3.34307-9.60135,6.59791-10.39298,1.22024-.29722,5.79938,10.07973,7.52885,10.69827,2.75844.98487,5.79788-.98194,6.36219-2.19181.56199-1.21051-3.29633-3.67505-2.36277-5.30712.93167-1.63223,5.44635-2.92346,8.17308-4.23693,2.72715-1.3124-2.41518-8.68036-1.62418-9.94294.79096-1.26237,4.76624-.69365,6.74048-.6837,1.97238.0085,6.2102-6.22785,6.85029-9.10833.64048-2.88198-2.11004-3.08355-2.7377-4.89283-.62727-1.8089,4.32418-3.1074,7.78911-5.54351,3.46531-2.43636,15.8917-.87797,18.15523-2.7593,2.26508-1.88112,3.97188-9.66234.71553-8.56312-3.25821,1.09948-21.23577-4.27697-22.46091-4.52853ZM28.4772,58.8807c-.69668-1.02662-.11881-2.57107,1.53256-3.3627,1.65172-.79163,4.1567-1.42904,5.17401-.89042,1.01653.53964.8253,3.17358,1.14855,4.99409.32287,1.81969-7.15805.28583-7.85512-.74096Z"/></g></g></g></svg>