<?xml version="1.0" encoding="UTF-8"?><svg id="_レイヤー_2" xmlns="http://www.w3.org/2000/svg" viewBox="0 0 528.66284 54.4198"><defs><style>.cls-1{fill:#fff;}</style></defs><g id="_レイヤー_1-2"><path class="cls-1" d="m11.96715,16.54723c8.75864-3.14647,16.40761-4.87301,21.46495-4.87301,10.54723,0,17.20883,6.29111,17.20883,15.66662,0,7.83331-3.51514,12.76837-10.42312,16.53172-4.99711,2.77597-10.24061,4.06996-16.16123,5.18145-1.04943.18433-1.41992,0-1.85065-.8651-.61688-1.29399-1.78859-2.71392-3.39285-3.69947,8.0797-1.11148,12.89248-2.52958,17.1486-4.68867,5.48806-2.83802,8.69658-6.78571,8.69658-12.76837,0-6.41521-4.38023-10.42495-11.59666-10.42495-5.67422,0-13.13887,2.34525-22.82283,6.47727-2.21932.98738-3.57719,1.72654-4.25612,2.22114-.67894.55483-1.04761.67894-1.35605.67894-.4946,0-.86327-.30844-1.41992-.98738-.92532-1.11148-2.21932-3.14647-3.20669-5.18145,2.34342-.24639,5.05734-.86327,11.96715-3.26875Z"/><path class="cls-1" d="m91.71473,11.61217c.55483-.18616.74099-.12411.86327.43072.18616,1.04943.30844,2.46753.37049,3.63924.06205.55665-.12411.67894-.61688.74099-3.3308.67894-6.53749,1.17171-10.23879,1.72654-3.76335,9.9924-7.83331,18.9372-12.2756,26.21568-.30844.61688-.61688.55483-1.17171.24639-1.10966-.73916-2.52958-1.66449-3.3308-2.40548-.43255-.37049-.49278-.67894-.06205-1.23376,4.87301-7.64898,8.32791-14.61902,11.16411-22.32823-2.4657.18433-4.62479.30844-6.97004.30844-1.10966,0-1.84882,0-3.26875-.12411-.61688,0-.67894-.12228-.80122-.80122-.24639-.98738-.43255-2.46753-.4946-4.00974,2.22114.18433,3.76335.24639,5.2435.24639,2.65186,0,4.75073-.12228,7.71103-.43072.73916-2.46753,1.23376-4.62662,1.72654-7.09415.37049-1.9127.49278-3.02236.49278-4.87301,2.09886.30844,4.38023.74099,5.92244,1.23376.49278.12411.74099.43072.74099.80122s-.12411.67894-.4946,1.04943c-.37049.37049-.55483.86327-.92532,2.03498-.61688,1.9127-1.23376,4.25612-1.85065,6.23088,2.65369-.30844,5.42784-.92532,8.26586-1.60426Zm2.77597,15.60457c-.06205-1.4181-.12411-2.4657-.43255-4.13202,2.22114.24639,3.8254.43255,5.42966.92532.49278.12411.80122.43255.80122.86327,0,.18616-.12411.55483-.37049,1.17171-.24639.74099-.30844,1.60426-.24639,2.77597,0,3.63924.24639,6.90799.67894,10.97978,4.50251,1.78859,7.70921,3.39285,11.34845,5.98266.55483.37049.55483.55665.30844,1.11148-.55483,1.29399-1.29399,2.58981-2.03498,3.70129-.37049.49278-.67894.43072-1.04943.06023-2.77415-2.46753-5.61217-4.13202-8.57248-5.61217.06023,6.22905-3.63924,9.37552-11.28822,9.37552-5.55194,0-10.3629-2.90008-10.3629-8.01947,0-4.99529,4.50251-8.38814,10.91772-8.38814,1.60426,0,3.57719.18433,5.55194.61688-.37049-3.88563-.61688-8.26586-.67894-11.41233Zm-4.7489,15.11362c-4.1959,0-6.47727,1.66449-6.47727,3.88563,0,2.52958,2.03498,3.70129,5.86038,3.70129,4.37841,0,6.29111-2.2832,6.29111-5.2435,0-.67894,0-.98738-.06205-1.35787-1.72654-.55483-3.63924-.98555-5.61217-.98555Zm10.91772-28.62116c.36867-.55483.61688-.61688,1.17171-.37049,3.94768,1.17171,8.5743,3.3308,12.08944,5.79833.55483.37049.55483.61688.18433,1.23376-.43072,1.04943-1.29399,2.46753-1.97293,3.39285-.30844.49278-.4946.49278-.92532.18433-3.63924-2.65186-8.14175-5.05734-12.70632-6.47544.80122-1.41992,1.54221-2.83802,2.15909-3.76335Z"/><path class="cls-1" d="m143.4562,9.57719c.43255-2.03681.61688-3.94768.61688-6.35316,2.46753.55483,3.94768.98555,5.92244,1.84882.80122.30844,1.04761,1.17354.36867,1.85065-.49278.61688-.80122,1.17171-1.10966,2.15909-.86327,2.77597-1.60426,5.42784-2.46753,8.26586,1.85065-.18433,4.07179-.37049,5.48989-.37049,5.614,0,8.45019,3.20852,8.45019,10.54723,0,7.77308-1.29582,15.48229-3.3308,19.92457-1.66449,3.57719-4.31818,5.2435-7.64898,5.2435-2.71392,0-4.7489-.37049-6.22905-.92532-.55483-.18616-.86327-.61688-.86327-1.35787-.12411-1.4181-.24639-2.89825-.92532-4.50251,2.71392,1.17171,4.93506,1.60426,6.97004,1.60426,1.85065,0,2.89825-.67894,4.00974-3.27057,1.4181-3.45308,2.58981-9.62191,2.58981-16.5299,0-4.68867-.80122-6.23088-3.82358-6.23088-1.72837,0-4.07179.24821-6.04472.55665-3.8254,11.16411-7.58692,20.41552-12.52198,29.17416-.30844.55665-.74099.67894-1.29582.43255-.80122-.43255-2.58981-1.54221-3.26875-2.15909-.43255-.37049-.4946-.73916-.18616-1.23376,5.05917-8.63453,8.51225-16.34556,11.59666-25.41264-2.46753.37049-4.68685.73916-7.15438,1.17171-1.35787.24639-2.40548.61688-3.02236.92532-.74099.37049-1.41992.30844-1.78859-.55483-.4946-1.17171-1.04943-2.90008-1.60426-4.99711,2.40548,0,4.93506-.12228,7.15438-.36867,3.02236-.30844,5.30555-.67894,8.01947-1.11148.86327-3.14464,1.48015-5.48989,2.09704-8.32609Zm23.19332,4.62479c.36867-.18433.67711-.06023,1.04761.30844,4.25612,3.76335,7.89537,9.06708,10.05445,14.92746.18616.4946.18616.80304-.24639,1.11148-.80122.73916-2.59164,1.78859-3.51514,2.28137-.55665.30844-.98738.18433-1.17354-.43255-2.28137-6.35316-5.42784-11.59484-9.9924-15.72868,1.11148-.86327,2.59164-1.78859,3.8254-2.46753Zm1.72654-9.68396c.24639-.18433.43255-.12228.80122.12411,2.2832,1.66449,4.93506,4.56457,6.84776,7.46282.18433.24639.12228.55483-.18616.80304l-2.21932,1.78859c-.43255.24639-.74099.18433-.98738-.24639-1.85065-3.02418-4.31818-5.86038-7.09415-7.95742l2.83802-1.97475Zm5.67422-4.37841c.24639-.18616.4946-.18616.80304,0,2.52776,1.97293,5.18145,4.68685,6.84594,7.21643.24639.37049.24639.61688-.18433.98738l-2.09704,1.72654c-.37049.30844-.61688.24639-.8651-.12411-1.72654-2.71392-4.25612-5.61217-7.09232-7.83331l2.58981-1.97293Z"/><path class="cls-1" d="m207.72148,27.2788c4.00791-2.58981,7.77126-3.76152,11.781-3.76152,8.94297,0,14.80335,5.67422,14.80335,14.12442,0,9.62191-7.71103,16.28533-20.84807,16.28533-7.77308,0-11.59666-3.3308-11.59666-8.01947,0-3.70129,3.26875-6.90799,7.95742-6.90799,5.67422,0,9.55985,3.45308,10.97795,9.06708,4.87301-1.85065,7.83514-4.99711,7.83514-10.54723,0-5.92244-4.44228-9.68578-10.24061-9.68578-5.67422,0-11.65689,2.77597-16.46784,6.72365-1.9127,1.54221-3.57901,3.27057-5.42784,5.11939-.61688.61688-.92532.74099-1.54221.12411-.98738-.86327-2.09886-2.09704-2.83802-3.14647-.30844-.36867-.18433-.67711.24639-1.10966,4.87301-4.07179,8.51225-7.64898,14.37263-13.6937,3.76152-3.88563,7.09232-7.64898,11.10206-12.33582-4.50251.73916-9.37552,1.72654-14.18647,2.65186-.80122.12411-1.54221.30844-2.34342.61688-.37049.18433-.92532.30844-1.17171.30844-.55665,0-.8651-.24639-1.17354-.86327-.61688-1.23376-1.10966-2.59164-1.72654-5.18145,1.9127.24639,3.76335.24639,5.55194.06205,4.37841-.43255,9.62191-1.17171,14.7413-2.15909,1.11148-.18616,2.03681-.43255,2.52958-.74099.30844-.18433.73916-.43072,1.04761-.43072.37049,0,.74099.12228,1.23376.49278,1.41992,1.10966,2.46753,2.15909,3.27057,3.14647.36867.43072.55483.86327.55483,1.23376,0,.55483-.37049,1.04761-.98738,1.29399-.92532.37049-1.54221.80304-2.83802,2.09704-5.05734,5.18145-9.25141,9.49962-14.80335,15.05157l.18616.18433Zm2.28137,15.85278c-2.03498,0-3.57719,1.04943-3.57719,2.77597,0,2.03498,1.97293,3.51514,6.04472,3.57719,1.23376,0,2.34342-.06205,3.57719-.30844-.80122-3.57719-2.96031-6.04472-6.04472-6.04472Z"/><path class="cls-1" d="m278.21764,11.67423c.55483-.12411.73916.06023.80122.55483.18433.98738.30844,2.34342.37049,3.3308.06205.67894-.06205.86327-.74099.98738-3.94768,1.10966-7.21643,1.91088-10.97978,2.52776-3.88563,13.01476-7.40076,23.19332-11.59484,33.30983-.30844.67711-.61688.67711-1.11148.49278-.55483-.24639-2.89825-1.29582-3.88563-1.85065-.37049-.24639-.49278-.61688-.37049-.98738,4.93506-10.79362,8.20381-19.79864,11.16411-30.10131-3.82358.37049-7.95559.67894-11.59484.67894-.8651,0-.98738-.06205-1.11148-.73916-.18433-1.04943-.43072-2.71392-.67711-4.31818,1.23194.12228,2.15726.12228,4.19407.12228,2.96031,0,6.72365-.18433,10.48518-.67711.74099-2.96213,1.23376-5.36761,1.66631-7.77308.30844-1.72654.55483-3.70129.49278-5.73628,2.34342.37049,4.62662.98738,6.23088,1.60426.36867.18433.55483.49278.55483.80122s-.12411.61688-.43255.98738c-.43072.74099-.80122,1.29582-1.10966,2.46753-.67894,2.40548-1.17171,4.7489-1.72837,6.72365,2.65369-.43255,6.10677-1.35787,9.37734-2.40548Zm-2.71392,28.80549c.55483,0,.73916.18433.80122.67894.43072,5.18145,3.70129,6.78388,10.60928,6.78388,3.26875,0,7.15438-.43072,9.62191-.80122.4946-.06205.67894,0,.74099.49278.18433,1.11148.37049,2.71392.37049,3.88563,0,.67894-.12411.8651-.80304.92532-2.03498.30844-5.24168.61688-8.20381.61688-7.40076,0-11.59666-.98555-14.37081-3.63924-2.03681-1.91088-2.77597-4.7489-2.90008-8.38814,1.4181-.30844,3.39285-.55483,4.13384-.55483Zm.49278-16.09917c0-.67894.12411-.86327.92532-1.04943,3.70129-.80122,7.70921-1.35605,11.34845-1.35605,2.46753,0,5.12122.30844,7.46464.61688.73916.12228.92532.30844.92532.80122.06205.98738.06205,2.34342.06205,3.51696,0,.86327-.24821,1.04761-.92532.9235-2.46753-.43072-5.18145-.67711-7.77308-.67711-3.82358,0-7.95559.55483-11.84305,1.35605-.12228-1.48015-.18433-3.14464-.18433-4.13202Z"/><path class="cls-1" d="m331.93022,39.92489c-2.65186,4.56457-5.61217,6.6616-9.68396,6.6616-4.93323,0-9.80624-5.36761-9.80624-14.80518,0-5.79651,2.58981-11.71894,7.09232-16.03712,4.81095-4.62479,11.10388-7.21643,19.12153-7.21643,14.31058,0,22.63849,8.45019,22.63849,20.4794,0,10.66951-6.29111,18.38054-19.30769,21.95773-.98555.24639-1.48015.06205-2.09704-.86327-.49278-.80122-1.48015-1.97293-3.20669-2.96031,11.47255-2.46753,18.99742-8.08153,18.99742-18.9372,0-8.32609-6.41521-14.98769-15.79073-14.98769-1.23376,10.42312-4.13202,20.3553-7.95742,26.70846Zm-8.94297-20.78784c-3.63924,3.76335-5.42784,8.45019-5.42784,12.45993,0,6.29111,2.46753,9.25324,4.56457,9.25324,1.91088,0,3.57719-1.11148,5.30373-4.1959,2.96213-5.30373,6.04472-14.49491,6.97004-23.1915-4.62479.73916-8.57248,2.71392-11.4105,5.67422Z"/><path class="cls-1" d="m387.86941,4.39574c.80304.18433,1.17354.49278,1.17354,1.04761s-.30844,1.11148-.55665,1.72837c-.24639.80122-.49278,2.71392-.80122,6.84594-.55483,9.43757-.92532,17.45522-.92532,25.47469,0,6.41521,1.4181,8.26586,6.41521,8.26586,6.84594,0,15.1118-4.19407,21.95956-11.59666.24639,1.78859.73916,3.39285,1.23376,4.50251.18433.4946.30844.86327.30844,1.17171,0,.43255-.18616.80304-.92532,1.48015-6.53932,6.16882-14.98951,9.87012-23.43971,9.87012-7.52487,0-11.28822-3.26875-11.28822-12.45993,0-9.43757.55483-18.99742.86327-27.141.12411-3.76152.24639-6.97004-.55483-10.17674,2.28137.18433,4.99711.49278,6.53749.98738Z"/><path class="cls-1" d="m444.67188,7.78677c-.98555-2.21932-1.48015-3.26875-2.8362-4.87118,2.40548-.43255,4.7489-.74099,6.04472-.74099,1.10966,0,1.60426.37049,1.60426,1.10966,0,.43255-.06205,1.04943.06023,1.60426.12411.86327.43255,2.03498,1.04943,3.70129.67894,1.85065,1.23376,3.3308,2.03498,5.11939,5.2435-1.23376,9.87012-2.58981,13.20092-3.88563.49278-.18616.73916-.18616.98738.37049.43072.86327.86327,2.40548,1.10966,3.57719.12228.49278,0,.73916-.37049.86327-3.45491,1.23376-7.52487,2.40548-12.83043,3.63924,2.2832,4.7489,5.42784,9.43757,9.80807,14.24852.61688.55483,1.10966.92532,1.66631,1.35787.30844.18433.49278.36867.49278.61688,0,.30844-.12411.61506-.24639.86327-.43255.86327-1.35787,2.34342-1.9127,3.08441-.43255.49278-.67894.73916-.98738.73916s-.43072-.12411-.86327-.37049c-.80122-.55483-1.4181-1.04761-2.34342-1.48015-3.8254-1.85065-8.32791-3.20669-13.6937-3.20669-6.72365,0-10.67134,2.34342-10.67134,6.47544,0,5.2435,6.78571,7.40259,15.85278,7.40259,3.08441,0,6.47727-.30844,9.31347-.80122-.18433,1.78859-.67894,4.00791-1.04761,5.05734-.18616.55483-.37049.61688-.92532.74099-1.11148.18433-4.31818.36867-7.0321.36867-12.76837,0-21.58906-4.06996-21.58906-12.27377,0-7.1562,6.47727-11.28822,15.85278-11.28822,5.42784,0,9.19118,1.10966,12.15149,2.34342-3.70129-3.57719-6.29293-7.70921-8.82069-12.83043-4.38023.74099-8.32791,1.17354-12.70632,1.54221-1.72837.12411-4.00974.24821-5.55194.24821-.49278,0-.67894-.30844-.86327-.92532-.37049-1.23376-.67894-2.40548-.98738-4.1959,2.52958.12411,4.68867.12411,6.78571,0,3.14464-.18433,6.6616-.55483,11.10206-1.35605-1.04761-2.40548-1.78859-4.19407-2.83802-6.84776Z"/><path class="cls-1" d="m496.04833,23.20883c2.2832-1.66631,4.93506-2.40548,6.97004-2.40548,4.44228,0,7.21825,2.21932,7.71103,7.15438,2.77597-1.35605,6.22905-2.89825,9.37552-4.44046,1.48015-.74099,3.26875-1.78859,4.68867-3.20852,1.66449,1.60426,3.02236,3.39285,3.51514,4.25612.67894,1.11148.30844,1.60426-.49278,1.78859-.98738.12411-2.22114.43255-3.57901.92532-4.37841,1.78859-8.26403,3.20852-13.07499,5.2435v10.11651c0,.55483-.24821.80122-.8651.92532-.73916.12228-2.34342.24639-3.51514.24639-.49278,0-.67894-.30844-.67894-.86327,0-2.46753,0-5.614.06205-8.32791-6.10677,3.14647-8.82069,6.04472-8.82069,9.43757,0,3.20669,2.83802,4.81095,9.62191,4.81095,5.30555,0,10.3629-.61688,14.92746-1.23376.43255-.06205.67894.06205.80304.4946.18433,1.17171.43072,2.71392.43072,3.82358,0,.67894-.24639.98738-.55483.98738-4.81095.61688-9.43757.86327-15.29796.86327-9.37552,0-14.86541-2.52958-14.86541-9.37552,0-5.48989,3.45491-9.80807,13.44731-14.74313-.18433-3.69947-1.29582-5.05734-4.50251-4.99529-2.71392.06205-5.92244,1.66449-9.37552,4.68685-2.40548,2.2832-3.94768,3.94768-5.98449,6.29293-.49278.55483-.73916.55483-1.17171.12228-.73916-.67894-2.28137-2.15909-2.89825-3.14464-.24639-.43255-.30844-.55665.12228-.98738,5.2435-4.62662,10.17856-10.11651,13.75575-16.34556-3.45491.18433-6.90799.18433-10.67134.12228-.55483,0-.67894-.24639-.80122-.73916-.12411-.86327-.37049-2.65369-.43255-3.94768,4.56457.24639,9.25324.18433,14.12624-.06205.67894-1.78859,1.4181-3.57719,2.03498-5.86038.30844-1.04761.49278-1.97293.49278-3.45308,2.15909.30844,4.50434.92532,5.79833,1.48015.74099.30844.80304,1.10966.24821,1.60243-.30844.30844-.67894.80304-1.11148,1.66631-.61688,1.23376-1.04761,2.34342-1.78859,4.07179,4.07179-.43255,8.14175-1.04943,12.15149-1.97475.61688-.12411.74099-.06205.86327.43255.18616.98555.43255,2.09704.4946,3.45308,0,.4946-.18616.67894-.92532.80304-4.75073.80122-9.9924,1.48015-14.74313,1.97293-1.78859,3.14647-3.51514,5.79833-5.55012,8.20381l.06023.12411Z"/></g></svg>