<?xml version="1.0" encoding="UTF-8"?><svg id="_レイヤー_2" xmlns="http://www.w3.org/2000/svg" viewBox="0 0 560.40589 43.67051"><defs><style>.cls-1{fill:#fff;}</style></defs><g id="_レイヤー_1-2"><path class="cls-1" d="m.19162,24.16346c1.0333-5.85849,5.76848-10.05357,10.6293-10.05357,3.36057,0,5.08211,1.56964,5.96351,3.78251L19.83369.59823h4.63203l-5.86974,33.29438h-4.63203l.752-3.50497c-1.59214,2.35352-4.18571,3.91941-7.36625,3.91941C2.39887,34.30705-.8398,30.0182.19162,24.16346Zm15.67015,0c.61885-3.50497-1.14207-5.90162-4.50264-5.90162-3.31556,0-5.82661,2.39666-6.44546,5.90162-.64136,3.64187,1.02392,6.0404,4.33948,6.0404,3.36057,0,5.96726-2.39853,6.60862-6.0404Z"/><path class="cls-1" d="m36.14332,30.38764c2.49792,0,4.49138-1.01267,5.77035-2.07598l2.17537,2.85986c-2.0891,1.79843-4.77643,3.13553-8.59083,3.13553-6.54111,0-10.00857-4.28885-8.98464-10.09858,1.01642-5.76285,6.2298-10.09858,11.95327-10.09858,6.4961,0,9.31282,4.89083,7.79757,11.66822h-15.35135c.04876,2.8111,1.73092,4.60953,5.23026,4.60953Zm6.05915-7.83695c.05626-2.63107-1.1927-4.5664-4.37324-4.5664-2.95175,0-5.28839,1.65778-6.34607,4.5664h10.71931Z"/><path class="cls-1" d="m66.3378,18.44562h-3.13178l.69012-3.91754h3.13178l1.35023-7.65692c.82139-4.65829,3.43933-6.87116,7.34374-6.87116,2.49792,0,4.02443.87577,4.98272,2.39666l-3.24617,2.95175c-.43132-.64698-.93016-1.15332-2.02159-1.15332-1.18145,0-2.12098.69199-2.46417,2.63107l-1.35773,7.70193h5.13462l-.69012,3.91754h-5.13462l-2.72296,15.44699h-4.58703l2.72296-15.44699Z"/><path class="cls-1" d="m89.57673,17.98429c-2.49792,0-4.15008,1.10831-5.40279,2.30476l-2.15849-2.71921c2.03847-2.03097,4.56452-3.45996,8.60395-3.45996,4.59078,0,7.57628,2.62919,6.56924,8.34704l-2.01597,11.43568h-4.58703l.62261-2.76609c-1.72904,2.07598-3.74126,3.18054-6.55423,3.18054-3.76939,0-6.54298-1.79843-5.77973-6.13229.70699-4.0113,4.19696-5.76472,8.51957-5.80973h5.22463c.54384-3.0924-.58885-4.38074-3.04176-4.38074Zm-2.43416,7.61004c-1.99909,0-3.44683.737-3.74688,2.43979-.29255,1.66341.82514,2.53918,3.18804,2.53918,2.67795,0,4.82332-1.3371,5.1965-3.45808l.26817-1.52088h-4.90583Z"/><path class="cls-1" d="m102.90649,24.20847c1.01642-5.76285,6.13979-10.09858,11.95327-10.09858,3.58936,0,5.65971,1.38586,7.07182,3.69062l-3.74313,2.6742c-.67136-1.3371-2.09848-2.26163-4.05256-2.26163-3.40558,0-5.89787,2.5373-6.50735,5.99539-.60948,3.45996.98642,5.99539,4.39199,5.99539,2.27288,0,3.80689-.96766,5.05961-2.16974l2.64795,2.77172c-2.24288,2.16412-4.75018,3.50122-8.42955,3.50122-5.81348,0-9.41597-4.28885-8.39204-10.09858Z"/><path class="cls-1" d="m127.50877,27.344l1.56964-8.89838h-2.86173l.69012-3.91754h2.86173l1.31835-7.47314h4.58703l-1.31835,7.47314h5.08586l-.69012,3.91754h-5.08586l-1.58464,8.99027c-.39944,2.26163.21004,2.90674,1.39149,2.90674,1.22646,0,2.01597-.60198,2.58794-1.01455l1.34835,3.18054c-1.11206.87765-2.6892,1.84531-5.27714,1.84531-3.36057,0-5.53219-1.84531-4.62266-7.00993Z"/><path class="cls-1" d="m143.26706,24.20847c1.01642-5.76285,6.32357-10.09858,12.09204-10.09858,5.81348,0,9.49661,4.33573,8.48018,10.09858-1.01642,5.76472-6.22793,10.09858-12.04141,10.09858-5.76848,0-9.54724-4.33386-8.53082-10.09858Zm15.85018,0c.62636-3.54998-1.06893-6.03852-4.47451-6.03852-3.40933,0-6.02727,2.48855-6.65362,6.03852-.62636,3.55373,1.10644,6.08728,4.51576,6.08728,3.40558,0,5.98601-2.53355,6.61237-6.08728Z"/><path class="cls-1" d="m177.19154,30.29575l3.52185-2.21287c.8814,1.70654,2.51668,2.49042,4.69579,2.49042,2.31414,0,3.49934-.78388,3.72625-2.07598.27567-1.56589-1.09331-1.8003-4.15383-2.71921-2.67795-.78388-5.25839-2.12473-4.58327-5.95038.68262-3.87065,4.05068-5.71784,7.82382-5.71784,3.04176,0,4.94709,1.29209,6.11353,2.90674l-3.14866,2.6742c-.72012-1.05955-1.89032-1.89032-3.61561-1.89032-1.72904,0-2.7961.64511-2.99863,1.79843-.26067,1.474.86265,1.79843,3.7225,2.58231,2.85798.78201,5.91663,1.98221,5.19275,6.08728-.5851,3.31931-3.06239,6.03852-8.46706,6.03852-4.35824,0-6.92367-1.93533-7.82945-4.0113Z"/><path class="cls-1" d="m200.71071,27.344l1.56964-8.89838h-2.85798l.69012-3.91754h2.85798l1.31835-7.47314h4.59078l-1.31835,7.47314h5.08586l-.69012,3.91754h-5.08586l-1.58464,8.99027c-.39944,2.26163.21004,2.90674,1.39149,2.90674,1.22646,0,2.01597-.60198,2.58794-1.01455l1.34835,3.18054c-1.11206.87765-2.6892,1.84531-5.27714,1.84531-3.36057,0-5.53594-1.84531-4.62641-7.00993Z"/><path class="cls-1" d="m226.2469,17.98429c-2.49792,0-4.15014,1.10831-5.40279,2.30476l-2.15849-2.71921c2.03847-2.03097,4.56452-3.45996,8.60395-3.45996,4.59078,0,7.57628,2.62919,6.56924,8.34704l-2.01597,11.43568h-4.58703l.62261-2.76609c-1.72904,2.07598-3.74126,3.18054-6.55423,3.18054-3.76939,0-6.54298-1.79843-5.77973-6.13229.70699-4.0113,4.19696-5.76472,8.51957-5.80973h5.22463c.54384-3.0924-.58885-4.38074-3.04176-4.38074Zm-2.43416,7.61004c-1.99909,0-3.44683.737-3.74688,2.43979-.29255,1.66341.82514,2.53918,3.18804,2.53918,2.67795,0,4.82332-1.3371,5.1965-3.45808l.26817-1.52088h-4.90583Z"/><path class="cls-1" d="m242.23586,14.52808h4.58703l-.72387,3.59311c1.62965-2.53355,4.29448-4.0113,7.15621-4.0113,4.22696,0,6.59737,3.04364,5.66908,8.30015l-2.02347,11.48257h-4.59078l1.95971-11.11313c.48758-2.76797-.50071-4.38074-3.17866-4.38074-2.99676,0-5.27527,1.84531-5.82849,4.98272l-1.85281,10.51115h-4.58703l3.41308-19.36452Z"/><path class="cls-1" d="m264.68715,24.16346c1.0333-5.85849,5.76848-10.05357,10.6293-10.05357,3.36057,0,5.08211,1.56964,5.96351,3.78251l3.04927-17.29417h4.63203l-5.86974,33.29438h-4.63203l.752-3.50497c-1.59214,2.35352-4.18571,3.91941-7.36625,3.91941-4.95084,0-8.18951-4.28885-7.15809-10.14359Zm15.67015,0c.61885-3.50497-1.14207-5.90162-4.50264-5.90162-3.31556,0-5.82661,2.39666-6.44546,5.90162-.64136,3.64187,1.02392,6.0404,4.33948,6.0404,3.36057,0,5.96726-2.39853,6.60862-6.0404Z"/><path class="cls-1" d="m301.01204,17.98429c-2.49792,0-4.15008,1.10831-5.40279,2.30476l-2.15849-2.71921c2.03847-2.03097,4.56452-3.45996,8.60395-3.45996,4.59078,0,7.57628,2.62919,6.56924,8.34704l-2.01597,11.43568h-4.58703l.62261-2.76609c-1.72904,2.07598-3.74126,3.18054-6.55423,3.18054-3.76939,0-6.54298-1.79843-5.77973-6.13229.70699-4.0113,4.19696-5.76472,8.51957-5.80973h5.22463c.54384-3.0924-.58885-4.38074-3.04176-4.38074Zm-2.43416,7.61004c-1.99909,0-3.44683.737-3.74688,2.43979-.29255,1.66341.82514,2.53918,3.18804,2.53918,2.67795,0,4.82332-1.3371,5.1965-3.45808l.26817-1.52088h-4.90583Z"/><path class="cls-1" d="m317.001,14.52808h4.58703l-.68637,3.64187c1.80781-3.04364,4.15758-4.0113,6.24668-4.0113,1.36523,0,2.26163.32068,2.99113.82701l-2.28601,4.19508c-.66386-.36569-1.33898-.64136-2.3854-.64136-2.72296,0-4.8702,1.61277-5.63533,5.94663l-1.65778,9.40659h-4.58703l3.41308-19.36452Z"/><path class="cls-1" d="m332.23232,24.16346c1.0333-5.85849,5.76848-10.05357,10.6293-10.05357,3.36057,0,5.08211,1.56964,5.96351,3.78251l3.04927-17.29417h4.63203l-5.86974,33.29438h-4.63203l.752-3.50497c-1.59214,2.35352-4.18571,3.91941-7.36625,3.91941-4.95084,0-8.18951-4.28885-7.15809-10.14359Zm15.67015,0c.61885-3.50497-1.14207-5.90162-4.50264-5.90162-3.31556,0-5.82661,2.39666-6.44546,5.90162-.64136,3.64187,1.02392,6.0404,4.33948,6.0404,3.36057,0,5.96726-2.39853,6.60862-6.0404Z"/><path class="cls-1" d="m371.5971,18.97071c1.65028-9.35971,9.91293-16.04521,18.67816-16.04521,5.53969,0,9.26219,2.07598,11.25753,6.22418l-4.15008,2.6742c-1.25084-2.71921-3.83877-4.51764-7.87821-4.51764-6.40608,0-11.82762,4.97897-13.00532,11.66447-1.17957,6.68926,2.47729,11.71323,8.88338,11.71323,4.26822,0,7.47126-1.93533,9.99731-4.93208l3.21617,2.62732c-3.41308,4.15008-8.21764,6.68551-13.98611,6.68551-8.76523,0-14.66498-6.73051-13.01282-16.09397Z"/><path class="cls-1" d="m403.89944,24.20847c1.01642-5.76285,6.32357-10.09858,12.09204-10.09858,5.81348,0,9.49661,4.33573,8.48018,10.09858-1.01642,5.76472-6.22793,10.09858-12.04141,10.09858-5.76848,0-9.54724-4.33386-8.53082-10.09858Zm15.85018,0c.62636-3.54998-1.06893-6.03852-4.47451-6.03852-3.40933,0-6.02727,2.48855-6.65362,6.03852-.62636,3.55373,1.10644,6.08728,4.51576,6.08728,3.40558,0,5.98601-2.53355,6.61237-6.08728Z"/><path class="cls-1" d="m432.3855,14.52808h4.58703l-.67511,3.31556c1.70279-2.44166,3.88566-3.73376,6.33857-3.73376,2.76797,0,4.35074,1.3371,4.93396,3.69062,1.9072-2.30476,4.42012-3.69062,7.19184-3.69062,4.49701,0,6.63862,3.04364,5.76848,7.9776l-2.0816,11.80512h-4.58703l1.99909-11.34192c.47258-2.6742-.22129-4.15195-2.85798-4.15195-2.67795,0-4.56077,1.66153-5.12899,4.88895l-1.86969,10.60492h-4.58703l1.99909-11.34192c.47258-2.6742-.17628-4.15195-2.81298-4.15195-2.72296,0-4.60578,1.66153-5.174,4.88895l-1.86969,10.60492h-4.58703l3.41308-19.36452Z"/><path class="cls-1" d="m468.83791,14.52808h4.63203l-.76888,3.59311c1.65028-2.39666,4.20446-4.0113,7.47501-4.0113,4.90583,0,8.1145,4.19508,7.0812,10.05357-1.03142,5.85474-5.7816,10.14359-10.73244,10.14359-3.18054,0-5.174-1.56589-5.88287-3.73376l-2.31039,13.09721h-4.63203l5.13837-29.14243Zm13.69732,9.63538c.61885-3.50497-1.0483-5.90162-4.36386-5.90162-3.36057,0-5.96163,2.39666-6.58049,5.90162-.64136,3.64187,1.11394,6.0404,4.47451,6.0404,3.31556,0,5.82849-2.39853,6.46984-6.0404Z"/><path class="cls-1" d="m501.41967,17.98429c-2.49792,0-4.15008,1.10831-5.40279,2.30476l-2.15849-2.71921c2.03847-2.03097,4.56452-3.45996,8.60395-3.45996,4.59078,0,7.57628,2.62919,6.56924,8.34704l-2.01597,11.43568h-4.58703l.62261-2.76609c-1.72904,2.07598-3.74126,3.18054-6.55423,3.18054-3.76939,0-6.54298-1.79843-5.77973-6.13229.70699-4.0113,4.19696-5.76472,8.51957-5.80973h5.22463c.54384-3.0924-.5926-4.38074-3.04176-4.38074Zm-2.43416,7.61004c-1.99909,0-3.44683.737-3.74688,2.43979-.29255,1.66341.82514,2.53918,3.18804,2.53918,2.67795,0,4.82332-1.3371,5.1965-3.45808l.26817-1.52088h-4.90583Z"/><path class="cls-1" d="m517.40862,14.52808h4.58703l-.72387,3.59311c1.62965-2.53355,4.29448-4.0113,7.15621-4.0113,4.22696,0,6.59737,3.04364,5.66908,8.30015l-2.02347,11.48257h-4.59078l1.95971-11.11313c.48758-2.76797-.50071-4.38074-3.17866-4.38074-2.99676,0-5.27527,1.84531-5.82849,4.98272l-1.85281,10.51115h-4.58703l3.41308-19.36452Z"/><path class="cls-1" d="m545.03954,32.14293l-4.70705-17.61485h5.08586l2.29164,9.68039c.37319,1.47775.38069,4.0113.38069,4.0113,0,0,.85514-2.53355,1.75342-4.0113l5.79473-9.68039h4.76706l-17.62798,29.14243h-4.72205l6.98368-11.52757Z"/></g></svg>