<svg viewBox="0 0 1758.49805 97.0801" xmlns="http://www.w3.org/2000/svg" xmlns:xlink="http://www.w3.org/1999/xlink"><clipPath id="a"><path d="m0 0h1758.49805v97.0801h-1758.49805z"/></clipPath><g clip-path="url(#a)"><path d="m1721.86255 6.78428c-8.33984 5.1922-21.64502 8.5528-36.63525 8.5528s-28.29565-3.3606-36.6355-8.5528c-8.33984 5.1922-21.64502 8.5528-36.63525 8.5528s-28.29565-3.3606-36.6355-8.5528c-8.33984 5.1922-21.64502 8.5528-36.63525 8.5528s-28.29565-3.3606-36.6355-8.5528c-8.33984 5.1922-21.64502 8.5528-36.63525 8.5528s-28.29565-3.3606-36.6355-8.5528c-8.33984 5.1922-21.64502 8.5528-36.63525 8.5528s-28.29565-3.3606-36.6355-8.5528c-8.33984 5.1922-21.64502 8.5528-36.63525 8.5528s-28.29565-3.3606-36.6355-8.5528c-8.33984 5.1922-21.64502 8.5528-36.63525 8.5528s-28.29565-3.3606-36.6355-8.5528c-8.33984 5.1922-21.64502 8.5528-36.63525 8.5528s-28.29565-3.3606-36.6355-8.5528c-8.33984 5.1922-21.64502 8.5528-36.63525 8.5528s-28.29565-3.3606-36.6355-8.5528c-8.33984 5.1922-21.64502 8.5528-36.63525 8.5528s-28.29565-3.3606-36.6355-8.5528c-8.33984 5.1922-21.64502 8.5528-36.63525 8.5528s-28.29565-3.3606-36.6355-8.5528c-8.33984 5.1922-21.64502 8.5528-36.63525 8.5528s-28.29565-3.3606-36.6355-8.5528c-8.33984 5.1922-21.64502 8.5528-36.63525 8.5528s-28.29565-3.3606-36.6355-8.5528c-8.33984 5.1922-21.64502 8.5528-36.63525 8.5528s-28.29565-3.3606-36.6355-8.5528c-8.33984 5.1922-21.64502 8.5528-36.63525 8.5528s-28.29565-3.3606-36.6355-8.5528c-8.33984 5.1922-21.64502 8.5528-36.63525 8.5528s-28.29565-3.3606-36.6355-8.5528c-8.33984 5.1922-21.64502 8.5528-36.63525 8.5528s-28.29565-3.3606-36.6355-8.5528c-8.33984 5.1922-21.64502 8.5528-36.63525 8.5528s-28.29565-3.3606-36.6355-8.5528c-8.33984 5.1922-21.64502 8.5528-36.63525 8.5528s-28.29565-3.3606-36.6355-8.5528c-8.33984 5.1922-21.64502 8.5528-36.63525 8.5528s-28.29565-3.3606-36.6355-8.5528c-8.33984 5.1922-21.64502 8.5528-36.63525 8.5528s-28.29565-3.3606-36.6355-8.5528c-8.33984 5.1922-21.64502 8.5528-36.63525 8.5528s-28.29565-3.3606-36.6355-8.5528c-8.33984 5.1922-21.64502 8.5528-36.63525 8.5528s-28.29565-3.3606-36.6355-8.5528c-8.33989 5.1922-21.64507 8.55279-36.6353 8.55279v81.21849h1758.49805v-81.21849c-14.99023 0-28.29565-3.3606-36.6355-8.5528z" fill="#14509f"/><path d="m1758.49805 15.33707c-14.99023 0-28.29565-3.3606-36.6355-8.5528-8.33984 5.1922-21.64502 8.5528-36.63525 8.5528s-28.29565-3.3606-36.6355-8.5528c-8.33984 5.1922-21.64502 8.5528-36.63525 8.5528s-28.29565-3.3606-36.6355-8.5528c-8.33984 5.1922-21.64502 8.5528-36.63525 8.5528s-28.29565-3.3606-36.6355-8.5528c-8.33984 5.1922-21.64502 8.5528-36.63525 8.5528s-28.29565-3.3606-36.6355-8.5528c-8.33984 5.1922-21.64502 8.5528-36.63525 8.5528s-28.29565-3.3606-36.6355-8.5528c-8.33984 5.1922-21.64502 8.5528-36.63525 8.5528s-28.29565-3.3606-36.6355-8.5528c-8.33984 5.1922-21.64502 8.5528-36.63525 8.5528s-28.29565-3.3606-36.6355-8.5528c-8.33984 5.1922-21.64502 8.5528-36.63525 8.5528s-28.29565-3.3606-36.6355-8.5528c-8.33984 5.1922-21.64502 8.5528-36.63525 8.5528s-28.29565-3.3606-36.6355-8.5528c-8.33984 5.1922-21.64502 8.5528-36.63525 8.5528s-28.29565-3.3606-36.6355-8.5528c-8.33984 5.1922-21.64502 8.5528-36.63525 8.5528s-28.29565-3.3606-36.6355-8.5528c-8.33984 5.1922-21.64502 8.5528-36.63525 8.5528s-28.29565-3.3606-36.6355-8.5528c-8.33984 5.1922-21.64502 8.5528-36.63525 8.5528s-28.29565-3.3606-36.6355-8.5528c-8.33984 5.1922-21.64502 8.5528-36.63525 8.5528s-28.29565-3.3606-36.6355-8.5528c-8.33984 5.1922-21.64502 8.5528-36.63525 8.5528s-28.29565-3.3606-36.6355-8.5528c-8.33984 5.1922-21.64502 8.5528-36.63525 8.5528s-28.29565-3.3606-36.6355-8.5528c-8.33984 5.1922-21.64502 8.5528-36.63525 8.5528s-28.29565-3.3606-36.6355-8.5528c-8.33984 5.1922-21.64502 8.5528-36.63525 8.5528s-28.29565-3.3606-36.6355-8.5528c-8.33984 5.1922-21.64502 8.5528-36.63525 8.5528s-28.29565-3.3606-36.6355-8.5528c-8.33984 5.1922-21.64502 8.5528-36.63525 8.5528s-28.29565-3.3606-36.6355-8.5528c-8.33984 5.1922-21.64502 8.5528-36.63525 8.5528s-28.29565-3.3606-36.6355-8.5528c-8.33984 5.1922-21.64502 8.5528-36.63525 8.5528s-28.29565-3.3606-36.6355-8.5528c-8.33984 5.1922-21.64502 8.5528-36.63525 8.5528s-28.29565-3.3606-36.6355-8.5528c-8.33989 5.19221-21.64507 8.5528-36.6353 8.5528" fill="none" opacity=".3" stroke="#fff"/></g></svg>