<?xml version="1.0" encoding="UTF-8" standalone="no"?>
<!DOCTYPE svg PUBLIC "-//W3C//DTD SVG 1.1//EN" "http://www.w3.org/Graphics/SVG/1.1/DTD/svg11.dtd">
<svg xmlns="http://www.w3.org/2000/svg" version="1.1" viewBox="0 0 222 150">
<g stroke-width="2.00" fill="none" stroke-linecap="butt">
<path stroke="#8aa8cf" vector-effect="non-scaling-stroke" d="
  M 163.26 75.34
  A 52.38 52.38 0.0 0 0 110.88 22.96
  A 52.38 52.38 0.0 0 0 58.50 75.34
  A 52.38 52.38 0.0 0 0 110.88 127.72
  A 52.38 52.38 0.0 0 0 163.26 75.34"
/>
<path stroke="#8a9150" vector-effect="non-scaling-stroke" d="
  M 108.13 57.83
  A 13.09 13.09 0.0 0 0 95.04 44.74
  A 13.09 13.09 0.0 0 0 81.95 57.83
  A 13.09 13.09 0.0 0 0 95.04 70.92
  A 13.09 13.09 0.0 0 0 108.13 57.83"
/>
</g>
<path fill="#ffffff" d="
  M 117.44 150.00
  L 104.19 150.00
  C 57.78 146.46 21.18 115.72 0.64 75.68
  A 0.99 0.96 -45.6 0 1 0.64 74.77
  C 20.44 37.10 54.49 6.69 98.07 1.29
  C 151.39 -5.31 197.68 29.19 221.07 74.85
  A 1.00 0.97 -45.3 0 1 221.06 75.74
  C 200.62 115.87 163.56 146.60 117.44 150.00
  Z
  M 163.26 75.34
  A 52.38 52.38 0.0 0 0 110.88 22.96
  A 52.38 52.38 0.0 0 0 58.50 75.34
  A 52.38 52.38 0.0 0 0 110.88 127.72
  A 52.38 52.38 0.0 0 0 163.26 75.34
  Z"
/>
<path fill="#14509f" d="
  M 163.26 75.34
  A 52.38 52.38 0.0 0 1 110.88 127.72
  A 52.38 52.38 0.0 0 1 58.50 75.34
  A 52.38 52.38 0.0 0 1 110.88 22.96
  A 52.38 52.38 0.0 0 1 163.26 75.34
  Z
  M 108.13 57.83
  A 13.09 13.09 0.0 0 0 95.04 44.74
  A 13.09 13.09 0.0 0 0 81.95 57.83
  A 13.09 13.09 0.0 0 0 95.04 70.92
  A 13.09 13.09 0.0 0 0 108.13 57.83
  Z"
/>
<circle fill="#ffd200" cx="95.04" cy="57.83" r="13.09"/>
</svg>
