<?xml version="1.0" encoding="UTF-8"?><svg id="_レイヤー_2" xmlns="http://www.w3.org/2000/svg" xmlns:xlink="http://www.w3.org/1999/xlink" viewBox="0 0 73.79 73.79"><defs><style>.cls-1,.cls-2{fill:none;}.cls-3{fill:#ffd200;}.cls-4{fill:#64aee5;}.cls-5{fill:#14509f;}.cls-2{clip-path:url(#clippath);}</style><clipPath id="clippath"><rect class="cls-1" x="0" y="0" width="73.79" height="73.79"/></clipPath></defs><g id="_レイヤー_1-2"><g class="cls-2"><path class="cls-5" d="m31.892,72.87C12.093,70.048-1.724,51.642,1.09,31.843,3.914,12.04,22.318-1.774,42.112,1.043c19.798,2.82,33.619,21.227,30.796,41.025-2.819,19.799-21.227,33.616-41.017,30.802Z"/><path class="cls-4" d="m40.792,10.344c-14.677-2.088-28.31,8.15-30.405,22.823-2.085,14.673,8.151,28.312,22.823,30.401,14.677,2.092,28.315-8.153,30.406-22.825,2.088-14.673-8.152-28.31-22.825-30.399Z"/><path class="cls-3" d="m51.012,22.661c.668-1.402-.2-2.269-1.602-1.268-1.402,1.001-12.428,9.169-12.428,9.169,0,0-2.698,1.798-3.661,2.924-.93,1.086-2.168,3.712-2.168,3.712,0,0-7.508,14.366-7.975,15.234-.467.868.134,1.602,1.068,1.068.934-.534,13.841-10.27,13.841-10.27,0,0,1.91-1.108,3.38-2.75,1-1.119,2.649-4.79,2.649-4.79,0,0,6.228-11.626,6.896-13.028Zm-11.73,16.062c-1.035,1.21-2.847,1.342-4.055.311-1.208-1.029-1.341-2.845-.303-4.055,1.029-1.203,2.841-1.342,4.052-.302,1.203,1.033,1.343,2.847.307,4.046Z"/></g></g></svg>