<?xml version="1.0" encoding="UTF-8"?><svg id="_レイヤー_2" xmlns="http://www.w3.org/2000/svg" xmlns:xlink="http://www.w3.org/1999/xlink" viewBox="0 0 68.55 68.55"><defs><style>.cls-1,.cls-2{fill:none;}.cls-3{fill:#ffd200;}.cls-4{fill:#14509f;}.cls-2{clip-path:url(#clippath);}</style><clipPath id="clippath"><rect class="cls-1" x="0" width="68.55" height="68.55"/></clipPath></defs><g id="_レイヤー_1-2"><g class="cls-2"><path class="cls-4" d="m34.52.783c18.578.054,33.602,15.159,33.549,33.738-.019,7.086-2.235,13.645-5.982,19.054.85,3.339,3.057,12.056,3.17,12.792s-.113,1.528-1.585,1.019c-1.472-.509-11.633-4.331-11.633-4.331-5.156,3.181-11.209,5.033-17.706,5.016-18.583-.053-33.597-15.16-33.544-33.739C.842,15.751,15.942.732,34.52.783Z"/><path class="cls-3" d="m47.231,33.868c.992-1.758,1.488-3.53,1.488-5.313,0-1.796-.565-3.335-1.696-4.616-1.168-1.344-2.632-2.016-4.39-2.016-2.324,0-4.535,1.231-6.632,3.693-.854,1.005-1.375,1.507-1.564,1.507-.251,0-.785-.502-1.601-1.507-1.997-2.449-4.208-3.674-6.632-3.674-1.759,0-3.222.666-4.39,1.997-1.118,1.294-1.677,2.839-1.677,4.635,0,1.784.49,3.549,1.47,5.294,1.696,3.015,5.847,7.813,12.454,14.395.075.088.188.132.339.132.163,0,.283-.044.358-.132,1.909-1.884,3.63-3.649,5.163-5.294,3.68-3.944,6.117-6.977,7.311-9.1Z"/></g></g></svg>