<?xml version="1.0" encoding="UTF-8"?><svg id="_レイヤー_2" xmlns="http://www.w3.org/2000/svg" viewBox="0 0 217.9 217.9"><defs><style>.cls-1{fill:#ffd200;}.cls-2{fill:#14509f;}.cls-3{fill:none;stroke:#8a9150;stroke-width:2px;}</style></defs><g id="_レイヤー_1-2"><path class="cls-3" d="m39.61,57.66l13.88,8.86c.341.218.779.147.99-.16,8.8-12.873,19.467-23.95,32-33.23.248-.18.361-.485.251-.681-.022-.04-.053-.074-.091-.099l-8.12-5.14c-.12-.073-.449-.021-.83.13-15.507,6.053-28.3,15.67-38.38,28.85-.334.433-.235,1.067.221,1.415.025.019.052.038.079.055" vector-effect="non-scaling-stroke"/><path class="cls-3" d="m178.24,90.52l-38.83-24.67c-.279-.176-.642-.105-.81.16l-24.47,38.54c-.121.185-.097.416.055.517.002.001.003.002.005.003l47.53,30.23c.336.213.765.141.958-.161.004-.006.008-.013.012-.019,7.86-13.573,13.203-28.083,16.03-43.53.072-.419-.117-.841-.48-1.07" vector-effect="non-scaling-stroke"/><path class="cls-3" d="m97,108.26l-40.66-25.82c-.233-.148-.524-.111-.65.084-.003.005-.007.011-.01.016-7.76,13.353-13.09,27.62-15.99,42.8-.084.455.134.926.55,1.19l31.94,20.3c.37.242.892.097,1.166-.324.001-.002.003-.004.004-.006l23.8-37.44c.175-.281.108-.64-.15-.8h0" vector-effect="non-scaling-stroke"/><path class="cls-3" d="m141.31,190.12c14.85-5.93,28.25-16,37.66-28.94.197-.273.168-.632-.063-.802-.009-.006-.017-.012-.027-.018l-14.16-9.05c-.3-.197-.7-.121-.9.17-8.733,12.613-19.213,23.543-31.44,32.79-.238.176-.342.473-.233.662.023.04.055.073.093.098l8.12,5.11c.211.136.571.129.95-.02" vector-effect="non-scaling-stroke"/><path class="cls-2" d="m217.9,108.95c0,60.171-48.779,108.95-108.95,108.95h0C48.779,217.9,0,169.121,0,108.95c0,0,0,0,0,0C0,48.779,48.779,0,108.95,0h0c60.171,0,108.95,48.779,108.95,108.95h0ZM94.95,23.56l2.93,1.85c.159.094.56.002,1-.23l6.13-3.19c.313-.16.297-.243-.05-.25-3.487-.087-6.783.217-9.89.91-.773.173-.813.477-.12.91Zm13.16,8.34l26.6,16.89c.278.18.635.124.798-.127,0-.001.001-.002.002-.003l11.36-17.89c.177-.286.125-.645-.116-.8-.017-.011-.035-.021-.054-.03-4.36-1.98-8.783-3.643-13.27-4.99-6.47-1.94-19.42,3.27-25.28,6.14-.487.247-.5.517-.04.81Zm-68.5,25.76l13.88,8.86c.341.218.779.147.99-.16,8.8-12.873,19.467-23.95,32-33.23.248-.18.361-.485.251-.681-.022-.04-.053-.074-.091-.099l-8.12-5.14c-.12-.073-.449-.021-.83.13-15.507,6.053-28.3,15.67-38.38,28.85-.334.433-.235,1.067.221,1.415.025.019.052.038.079.055Zm134.76-6.88c-4.73-5.27-10.47-10.28-16.27-14.21-.306-.209-.73-.119-.947.201-.004.006-.009.013-.013.019l-11.48,18c-.238.378-.144.866.21,1.1l33.44,21.28c.165.108.386.075.493-.074.033-.046.053-.1.056-.156.34-7.43-.34-20.43-5.49-26.16Zm-45.97,8.1c-10.55-7.05-21.49-13.75-32.24-20.51-.207-.128-.471-.12-.67.02-13.013,9.173-24.02,20.33-33.02,33.47-.094.13-.016.342.175.473.008.006.017.011.025.017l40.5,25.75c.378.236.851.16,1.06-.17l24.3-38.26c.173-.274.116-.623-.13-.79Zm49.84,31.64l-38.83-24.67c-.279-.176-.642-.105-.81.16l-24.47,38.54c-.121.185-.097.416.055.517.002.001.003.002.005.003l47.53,30.23c.336.213.765.141.958-.161.004-.006.008-.013.012-.019,7.86-13.573,13.203-28.083,16.03-43.53.072-.419-.117-.841-.48-1.07Zm-130.95-13.89c-4.84-3.07-9.71-6.42-14.68-9.28-.24-.137-.549-.045-.691.204-.003.005-.006.01-.009.016-7.52,14.2-10.973,29.37-10.36,45.51.038,1.015.553,1.937,1.38,2.47l7.48,4.81c.184.121.429.083.546-.086.026-.038.044-.08.054-.124,3.207-15.147,8.687-29.417,16.44-42.81.143-.252.073-.565-.16-.71Zm142.25,6.98c.73.65,2.24,1.43,3.13,1.99.58.367.753.193.52-.52l-3.08-9.44c-.047-.147-.145-.249-.24-.25l-.12.01c-.186.009-.34.308-.35.68l-.24,6.75c-.006.278.133.565.38.78Zm-92.54,24.65l-40.66-25.82c-.233-.148-.524-.111-.65.084-.003.005-.007.011-.01.016-7.76,13.353-13.09,27.62-15.99,42.8-.084.455.134.926.55,1.19l31.94,20.3c.37.242.892.097,1.166-.324.001-.002.003-.004.004-.006l23.8-37.44c.175-.281.108-.64-.15-.8h0Zm98.84-6.57l-7.65-4.87c-.259-.16-.607-.045-.776.258-.034.06-.059.125-.074.192-3.173,15.213-8.643,29.557-16.41,43.03-.209.353-.169.764.09.93l14.39,9.14c.217.133.531.005.701-.286.007-.011.013-.023.019-.034,7.84-14.907,11.2-30.81,10.08-47.71-.018-.277-.156-.519-.37-.65Zm-40.6,43.58l-47.36-30.11c-.204-.13-.495-.041-.65.2l-23.91,37.63c-.24.378-.11.89.291,1.145.003.002.006.004.009.005l39.09,24.89c.207.129.466.125.66-.01,12.573-9.033,23.287-19.897,32.14-32.59.253-.363.141-.876-.25-1.146-.007-.005-.014-.009-.02-.014Zm-126.11-11.63c.005-.087-.149-.245-.38-.39l-3.65-2.34c-.72-.46-.957-.317-.71.43l3.95,11.89c.026.063.099.126.2.17l.13.05c.111.048.238.02.284-.063.01-.018.015-.037.016-.057l.16-9.69Zm36.72,23.28l-27.04-17.19c-.144-.086-.33-.017-.417.155-.024.048-.039.101-.043.155-.347,7.74.6,15.303,2.84,22.69,1.58,5.21,8.13,10.49,12.25,13.86.247.204.607.178.806-.059.016-.019.031-.04.044-.061l11.77-18.53c.22-.348.126-.803-.21-1.02Zm75.46,33.2c14.85-5.93,28.25-16,37.66-28.94.197-.273.168-.632-.063-.802-.009-.006-.017-.012-.027-.018l-14.16-9.05c-.3-.197-.7-.121-.9.17-8.733,12.613-19.213,23.543-31.44,32.79-.238.176-.342.473-.233.662.023.04.055.073.093.098l8.12,5.11c.211.136.571.129.95-.02Zm-30.4-4.51l-33.92-21.59c-.287-.18-.634-.144-.78.08l-12.22,19.29c-.146.228-.076.533.157.682.004.003.009.005.013.008,6.407,3.827,13.233,6.797,20.48,8.91,6.65,1.95,20.25-3.62,26.28-6.61.447-.227.443-.483-.01-.77Zm13.82,8.67l-3.99-2.33c-.109-.061-.483.084-.9.35-2.007,1.247-4.1,2.313-6.28,3.2-.73.29-1.31,1.18.21,1.01,3.693-.413,7.283-.903,10.77-1.47.78-.127.843-.38.19-.76Z"/><path class="cls-1" d="m39.61,57.66c-.485-.307-.643-.932-.352-1.395.016-.026.034-.051.052-.075,10.08-13.18,22.873-22.797,38.38-28.85.381-.151.71-.203.83-.13l8.12,5.14c.186.125.176.416-.022.652-.04.048-.087.092-.138.128-12.533,9.28-23.2,20.357-32,33.23-.211.307-.649.378-.99.16l-13.88-8.86Z"/><path class="cls-1" d="m178.24,90.52c.363.229.552.651.48,1.07-2.827,15.447-8.17,29.957-16.03,43.53-.182.309-.607.396-.949.193-.007-.004-.014-.008-.021-.013l-47.53-30.23c-.154-.098-.183-.328-.064-.514.001-.002.003-.004.004-.006l24.47-38.54c.168-.265.531-.336.81-.16l38.83,24.67Z"/><path class="cls-1" d="m97,108.26c.258.16.325.519.15.8,0,0,0,0,0,0l-23.8,37.44c-.272.423-.793.572-1.165.333-.002-.001-.003-.002-.005-.003l-31.94-20.3c-.416-.264-.634-.735-.55-1.19,2.9-15.18,8.23-29.447,15.99-42.8.115-.201.402-.251.641-.112.007.004.013.008.019.012l40.66,25.82Z"/><path class="cls-1" d="m178.97,161.18c-9.41,12.94-22.81,23.01-37.66,28.94-.379.149-.739.156-.95.02l-8.12-5.11c-.184-.118-.181-.4.005-.63.039-.049.085-.092.135-.13,12.227-9.247,22.707-20.177,31.44-32.79.2-.291.6-.367.9-.17l14.16,9.05c.244.152.293.506.111.789-.007.011-.014.021-.021.031Z"/></g></svg>