<?xml version="1.0" encoding="UTF-8" standalone="no"?>
<!DOCTYPE svg PUBLIC "-//W3C//DTD SVG 1.1//EN" "http://www.w3.org/Graphics/SVG/1.1/DTD/svg11.dtd">
<svg xmlns="http://www.w3.org/2000/svg" version="1.1" viewBox="0 0 250 171">
<path fill="#ffd200" d="
  M 228.19 48.31
  A 0.62 0.58 -45.0 0 0 227.34 48.34
  L 105.81 170.06
  A 1.34 0.66 -54.7 0 1 105.00 170.50
  L 1.25 170.50
  A 0.50 0.50 0.0 0 1 0.75 170.00
  L 0.75 135.50
  A 0.50 0.50 0.0 0 1 1.25 135.00
  L 89.75 135.00
  A 1.55 1.43 -65.8 0 0 90.80 134.55
  L 202.15 22.90
  A 0.56 0.45 44.2 0 0 202.06 22.19
  L 180.94 1.06
  Q 180.37 0.50 181.25 0.50
  L 249.00 0.50
  A 0.50 0.50 0.0 0 1 249.50 1.00
  L 249.50 68.75
  Q 249.50 69.63 248.94 69.06
  L 228.19 48.31
  Z"
/>
</svg>
