<?xml version="1.0" encoding="UTF-8"?><svg id="_レイヤー_2" xmlns="http://www.w3.org/2000/svg" viewBox="0 0 353.528 102.981"><defs><style>.cls-1{fill:#fff;stroke-width:0px;}</style></defs><g id="_レイヤー_1-2"><path class="cls-1" d="m13.5,45.105h35.532l-1.344,7.56h-26.88l-3.024,17.137h23.771l-1.344,7.476h-23.771l-3.108,17.388h28.14l-1.428,7.561H3.42l10.08-57.12Z"/><path class="cls-1" d="m51.048,86.014c0-12.181,7.98-19.824,17.473-19.824,5.796,0,10.416,3.024,12.516,7.896l5.796-32.508h8.316l-9.156,51.828c-.252,1.68.168,2.436,1.596,2.436h2.856l-1.092,6.385h-4.032c-6.552,0-7.729-2.269-7.729-5.628l.084-.841c-2.604,4.537-6.804,7.225-12.012,7.225-8.483,0-14.616-6.805-14.616-16.968Zm28.309-2.269c.084-6.048-3.444-10.248-9.072-10.248-6.468,0-10.584,5.04-10.584,12.349,0,5.964,3.36,9.911,8.82,9.911,6.3,0,10.836-5.039,10.836-12.012Z"/><path class="cls-1" d="m97.92,86.938l3.527-19.992h8.316l-3.444,19.572c-1.008,5.712,1.176,9.071,6.216,9.071,5.376,0,8.484-3.023,9.66-9.155l3.444-19.488h8.315l-4.62,26.46c-.336,1.68.085,2.436,1.513,2.436h2.855l-1.092,6.385h-4.032c-6.468,0-7.728-2.604-7.644-5.628v-.589c-3.024,4.621-6.72,6.973-12.096,6.973-7.729,0-12.601-6.216-10.92-16.044Z"/><path class="cls-1" d="m140.004,85.173c0-11.004,8.231-18.983,19.235-18.983,6.72,0,11.34,2.856,14.112,6.72l-6.048,4.788c-1.765-2.604-4.536-4.2-8.148-4.2-6.384,0-10.584,4.956-10.584,11.676,0,6.133,3.444,10.584,9.324,10.584,4.284,0,6.636-1.848,8.063-3.107l4.872,5.46c-2.771,2.688-6.888,4.872-12.936,4.872-10.416,0-17.892-7.309-17.892-17.809Z"/><path class="cls-1" d="m177.971,86.014c0-12.181,7.812-19.824,17.053-19.824,5.544,0,10.247,2.94,12.264,8.399l1.092-7.644h8.316l-4.62,26.46c-.252,1.68.168,2.436,1.596,2.436h2.856l-1.093,6.385h-4.031c-6.553,0-7.645-2.269-7.645-5.544v-.757c-2.855,4.537-6.384,7.057-11.592,7.057-8.063,0-14.196-6.636-14.196-16.968Zm27.469-2.269c0-6.048-3.192-10.248-8.652-10.248-6.216,0-10.164,5.04-10.164,12.349,0,5.964,3.192,9.911,8.484,9.911,5.964,0,10.332-5.039,10.332-12.012Z"/><path class="cls-1" d="m226.187,90.13l2.856-16.213h-5.208l1.176-6.972h5.292l2.185-12.516h8.231l-2.184,12.516h9.071l-1.26,6.972h-8.987l-2.94,16.549c-.756,4.031.42,5.375,2.688,5.375,2.017,0,3.36-.84,4.368-1.596l2.94,5.796c-1.848,1.513-4.2,2.94-8.736,2.94-6.132,0-11.172-3.192-9.492-12.852Z"/><path class="cls-1" d="m252.394,93.237l4.536-26.292h8.4l-4.704,26.46c-.252,1.68.168,2.436,1.596,2.436h2.94l-1.093,6.385h-4.115c-6.553,0-8.82-2.185-7.561-8.988Zm5.712-39.983c0-3.192,2.521-5.376,5.376-5.376,2.94,0,5.544,2.184,5.544,5.376,0,3.275-2.52,5.46-5.46,5.46-2.855,0-5.46-2.185-5.46-5.46Z"/><path class="cls-1" d="m272.218,85.257c0-11.172,8.567-19.067,19.319-19.067,10.164,0,18.061,7.56,18.061,17.808,0,11.172-8.484,18.984-19.32,18.984-10.164,0-18.06-7.645-18.06-17.725Zm28.812-1.344c0-6.216-3.78-10.5-9.744-10.5-6.3,0-10.5,5.04-10.5,12.012,0,6.133,3.864,10.416,9.744,10.416,6.384,0,10.5-5.039,10.5-11.928Z"/><path class="cls-1" d="m321.272,66.945h8.316l-1.428,6.72c2.688-4.619,6.636-7.476,12.012-7.476,7.728,0,12.6,6.3,10.836,16.128l-1.932,11.088c-.252,1.68.168,2.436,1.596,2.436h2.855l-1.092,6.385h-4.031c-6.553,0-8.82-2.185-7.561-8.988l1.764-10.5c1.009-5.796-1.176-9.072-6.132-9.072-5.376,0-8.567,2.94-9.659,9.072l-3.444,19.488h-8.316l6.216-35.28Z"/><path class="cls-1" d="m0,13.441l1.944-1.296c.721,1.2,1.896,2.4,3.793,2.4,1.848,0,2.928-.984,2.928-2.425,0-1.128-.672-1.68-2.185-2.664l-.96-.624c-1.968-1.272-2.976-2.544-2.976-4.561C2.545,1.801,4.393,0,7.345,0c2.064,0,3.528,1.057,4.488,2.521l-1.848,1.44c-.648-1.009-1.464-1.824-2.736-1.824-1.368,0-2.256.84-2.256,2.04,0,1.032.527,1.656,1.872,2.496l.96.624c2.136,1.344,3.36,2.496,3.36,4.704,0,3-2.232,4.729-5.448,4.729-2.953,0-4.945-1.729-5.737-3.288Z"/><path class="cls-1" d="m17.521.192h10.153l-.385,2.16h-7.681l-.863,4.896h6.792l-.384,2.136h-6.793l-.888,4.969h8.041l-.408,2.16h-10.465L17.521.192Z"/><path class="cls-1" d="m36.241,10.417h-3.169l-1.056,6.097h-2.473L32.425.192h4.776c3.192,0,5.4,1.632,5.424,4.752,0,2.664-1.607,4.465-3.96,5.161l2.977,6.408h-2.641l-2.76-6.097Zm.071-2.064c2.425,0,3.769-1.176,3.769-3.312,0-1.729-1.152-2.713-3.12-2.713h-2.448l-1.056,6.024h2.855Z"/><path class="cls-1" d="m47.16.192h2.521l2.112,8.568c.288,1.2.528,3.12.552,3.217.024-.097.769-1.92,1.464-3.097L58.729.192h2.568l-9.529,16.489h-.312L47.16.192Z"/><path class="cls-1" d="m65.16.192h2.473l-2.881,16.321h-2.472L65.16.192Z"/><path class="cls-1" d="m70.488,8.761c0-5.064,3.96-8.761,8.688-8.761,2.977,0,4.992,1.128,6.385,3.265l-1.992,1.344c-.912-1.416-2.28-2.4-4.465-2.4-3.48,0-6.024,2.881-6.024,6.553,0,3.36,2.232,5.761,5.257,5.761,2.256,0,3.648-.984,4.68-2.208l1.824,1.488c-1.607,1.968-3.576,2.928-6.576,2.928-4.488,0-7.776-3.432-7.776-7.969Z"/><path class="cls-1" d="m90.984.192h10.152l-.384,2.16h-7.681l-.864,4.896h6.793l-.385,2.136h-6.792l-.889,4.969h8.041l-.408,2.16h-10.465L90.984.192Z"/></g></svg>