<?xml version="1.0" encoding="UTF-8"?>
<svg id="_レイヤー_2" data-name="レイヤー 2" xmlns="http://www.w3.org/2000/svg" viewBox="0 0 303 32.14">
  <defs>
    <style>
      .cls-1 {
        fill: #f9b083;
      }

      .cls-1, .cls-2, .cls-3, .cls-4, .cls-5 {
        stroke-width: 0px;
      }

      .cls-2 {
        fill: #a3c0ef;
      }

      .cls-3 {
        fill: #96d3c1;
      }

      .cls-4 {
        fill: #f5e19a;
      }

      .cls-5 {
        fill: #f692a8;
      }
    </style>
  </defs>
  <g id="_レイヤー_1-2" data-name="レイヤー 1">
    <g>
      <path class="cls-5" d="m6.59,12.52v-3.4s-3.37.13-5.65.38l-.11-5.33,5.76.04-.15-4.2,4.34.21s-.19,2.69-.3,4.33l9.68-.17-.3,4.71c-6.88-.29-6.73-.17-9.79-.17,0,0-.08,1.68-.04,2.94,1.94-.17,3.18-.04,5.53.8l2.02-2.44,2.84,3.44-1.68,1.22c4.52,3.49,4.9,15.04-5.79,17.26,5.23-4.87,5.23-11.72,2.77-13.99-5.87,5.38-8.79,7.65-13.2,10.54C-1.64,23.94-.89,15,6.59,12.52Zm-2.02,9.96l4.3-3.19-2.28-.17c-.04-.97,0-1.85,0-2.73-1.61.46-3.25,3.7-2.02,6.09Zm5.31-7.35v3.32l3.25-3.02c-.93-.42-2.28-.42-3.25-.29Z"/>
      <path class="cls-2" d="m42.08,6.6s-.64,9.07-.64,10.25c1.12-.71,2.54-1.05,3.93-.92,2.77.29,5.61,2.23,5.61,6.64,0,8.91-10.13,8.7-12.49,5.8,5.87-.17,7.63-3.4,7.37-5.84-.08-.97-1.01-2.81-3.25-2.86-1.76,0-2.99.46-5.5,1.85,0,0,.07-13.4.07-15.08l4.9.17Zm7.25,2.27s-3.18-2.31-5.42-3.61l2.13-3.86s3.21,1.81,5.57,3.32l-2.28,4.16Z"/>
      <path class="cls-3" d="m66.37,15.79l-.67-5.29s3.48-.71,6.02-1.18l.34-6.55,4.97.42s-.75,4.16-1.12,6.09c4.11-.63,6.5.42,7.4,3.23,1.35,4.16-.08,13.82-2.77,18.82,0,0-3.63-5.04-5.23-6.72.86,0,1.68,0,2.84.13,1.23-3.78,2.32-8.99,1.16-10.58-1.08-1.51-3.03-1.01-4.79-.63,0,0-1.5,6.39-4.64,13.78l-3.85-1.93s2.88-5.84,4.67-10.84c0,0-1.98.55-4.34,1.26Zm22.88-.76s-2.39-4.71-3.1-5.84l3.66-2.35,2.99,5.59c-1.5,1.18-1.23,1.09-3.55,2.6Z"/>
      <path class="cls-4" d="m128.39,16.76c.82,5.17-2.69,10.5-8.86,10,2.99-2.48,4.86-5.5,4.11-9.24-.41-2.23-1.91-3.66-4.52-3.66-2.5-.04-5.31,1.55-6.58,3.49l.49,12.14-4.56.13s.22-8.15.26-10.21l-3.85,3.65-2.17-3.61s5.08-3.66,6.54-4.66l-.04-1.97-5.12.42-.07-4.54s4.04.04,4.56-.04l-.07-6.34,4.67.08-.49,8.99c2.69-1.34,5.08-2.27,7.85-2.02,4.19.08,7.14,2.9,7.85,7.39Z"/>
      <path class="cls-1" d="m144.73,7.35s-.49,15-.41,16.05l2.99-.84s-2.88,3.23-6.95,5.04c0,0-.34-17.77-.15-20.33l4.52.08Zm16.15,14.58s2.58,1.26,5.53,3.91l-2.65,4.41s-2.02-2.73-3.85-4.12c-2.13,3.99-7.44,3.4-8.52-1.01-.86-3.57,1.91-6.64,5.46-5.76l-.3-3.65c-1.98.13-3.55.04-6.17.29l.15-5.04s3.89-.17,5.83-.29l-.41-3.53s-1.72,0-4.56.34V2.9s6.47-.08,12.45.13v4.2s-3.21.29-4.79.38l.52,3.11s3.14.17,4.67.34l.11,5.21h-4.15c.45,1.97.71,4.83.67,5.67Zm-3.63,2.06c-.19-.67-.56-1.09-1.27-1.18-.71-.08-1.31.71-.86,1.51.49.88,2.36.46,2.13-.34Z"/>
      <path class="cls-5" d="m177.39,9.91l5.16-.88s-.08,7.69,1.08,9.54l4.11-1.05c-3.29,3.99-3.74,4.33-5.98,7.94,0,0-4.26-4.03-4.37-15.54Zm20.41,9.7c.34-3.91-1.05-7.98-2.8-10.63l4.9-1.34c1.2,3.53,2.47,9.03,1.23,17.1,0,0-5.23-4.24-6.5-4.75,0,0,2.24-.34,3.18-.38Z"/>
      <path class="cls-2" d="m228.36,29.15s-9.42-10.12-13.72-13.4c0,0,10.95-10.88,13.76-13.36l2.84,4.37s-7.89,7.1-9.35,8.15c9.35,6.3,7.18,5.17,10.88,7.6l-4.41,6.64Z"/>
      <path class="cls-3" d="m247.3,25.96s5.61-7.73,7.59-10.92c-2.54.08-4.37.5-7.03.59l-.08-4.2s13.83-1.34,16.38-1.26l-.08,4.87s-4.34.42-5.35.42c0,0-3.96,5.75-4.19,6.01,0,0,3.85-2.69,5.57-1.81.97.5-.56,5.71.52,6.13,1.83.71,4.71-.5,5.94-1.34v5.04s-4.11,2.18-10.06.08c0,0,.08-3.91-.07-5.42-2.65,1.93-3.66,2.9-6.09,5.25l-3.07-3.44Zm5.35-22.35l3.7-3.53q2.77,2.81,4.22,4.92l-4,3.49s-1.87-2.9-3.93-4.87Z"/>
      <path class="cls-4" d="m302.97,19.28c.3,4.79-1.72,8.91-6.13,8.74-4.49-.13-5.53-6.26-7.78-6.47-2.02-.17-3.66,2.44-5.16,6.18l-3.74-1.72s6.62-18.27,9.01-23.15l5.01,2.23s-5.87,12.14-6.39,13.19c0,0,1.98-1.76,3.92-1.01,2.47,1.01,2.06,3.86,5.27,5.42,2.24,1.13,4.71-1.47,5.98-3.4Z"/>
    </g>
  </g>
</svg>