<?xml version="1.0" encoding="UTF-8"?><svg id="_レイヤー_2" xmlns="http://www.w3.org/2000/svg" viewBox="0 0 307.10608 88.77654"><defs><style>.cls-1{fill:#14509f;}.cls-2{fill:none;stroke:#14509f;stroke-miterlimit:10;stroke-width:2px;}</style></defs><g id="_レイヤー_1-2"><path class="cls-2" d="m292.46856,82.85248c-.47747,2.70823-3.11813,4.92406-5.86813,4.92406H5.20666c-2.75,0-4.60934-2.21583-4.13187-4.92406L14.63752,5.92406c.47747-2.70823,3.11813-4.92406,5.86813-4.92406h281.39377c2.75,0,4.60934,2.21583,4.13187,4.92406l-13.56273,76.92842Z"/><polygon class="cls-1" points="262.98295 48.70163 254.97652 55.55104 254.97652 60.62113 268.90938 48.70163 254.97652 36.78229 254.97652 41.85231 262.98295 48.70163"/><path class="cls-1" d="m51.69055,47.81567h-4.60547l-1.83301,10.64062h-6.125l5.32031-30.40137h10.14844c5.72266,0,10.23828,3.12891,10.2832,9.25391,0,4.91797-2.99512,8.31641-7.24316,9.74707l5.18652,11.40039h-6.4375l-4.69434-10.64062Zm1.38574-5.09668c3.4873,0,5.54395-1.92188,5.54395-5.1416,0-2.72754-1.96777-4.20215-4.69434-4.20215h-4.29199l-1.6543,9.34375h5.09668Z"/><path class="cls-1" d="m77.97961,54.07446c2.2793,0,3.62109-.89355,4.64941-1.6543l3.44238,3.8457c-2.14551,1.6543-4.51562,2.59277-8.13672,2.59277-6.61719,0-10.64063-3.97949-10.64063-9.65723,0-6.25879,4.96289-10.19336,10.77441-10.19336,6.7959,0,10.19336,5.05273,9.34375,11.66895h-14.12695c.40234,2.10156,1.92188,3.39746,4.69434,3.39746Zm3.70996-6.75c.04492-2.19141-1.38574-3.62207-3.7998-3.62207-2.36914,0-3.97852,1.20703-4.51563,3.62207h8.31543Z"/><path class="cls-1" d="m90.67688,49.73852c0-6.88574,4.20215-10.73047,9.03125-10.73047,2.59277,0,4.82812.9834,6.125,3.44238l.40234-3.04004h5.90137l-2.37012,13.50195c-.13379.80469.13477,1.11816.80469,1.11816h1.3418l-.75977,4.42578h-2.23535c-4.29199,0-4.87402-1.11816-5.18652-2.6377l-.04492-.22363c-1.47559,2.19043-2.90625,3.26367-5.54395,3.26367-4.11328,0-7.46582-3.53223-7.46582-9.12012Zm14.03809-1.16309c0-2.68262-1.29688-4.42578-3.66602-4.42578-2.59277,0-4.20215,2.10156-4.20215,5.32031,0,2.68262,1.34082,4.29199,3.66602,4.29199,2.50293,0,4.20215-2.14648,4.20215-5.18652Z"/><path class="cls-1" d="m114.46203,49.73852c0-6.88574,4.29199-10.73047,9.25488-10.73047,2.72656,0,4.91699.9834,6.25879,3.21875l2.81641-16.0498h5.90137l-4.69434,26.73535c-.13379.80469.13477,1.11816.80469,1.11816h1.3418l-.76074,4.42578h-2.23535c-4.29199,0-4.96191-1.16211-5.18555-2.72754l-.04492-.3125c-1.25195,2.23535-3.08496,3.44238-5.76758,3.44238-4.24707,0-7.68945-3.53223-7.68945-9.12012Zm14.48535-1.16309c0-2.68262-1.43066-4.42578-3.88965-4.42578-2.72754,0-4.42578,2.10156-4.42578,5.32031,0,2.68262,1.47461,4.29199,3.88965,4.29199,2.6377,0,4.42578-2.14648,4.42578-5.18652Z"/><path class="cls-1" d="m153.26867,27.74145h.44629l11.40137,16.54199,17.7041-16.54199h.53613l-5.40918,30.71484h-5.85742l2.0127-11.40039c.35742-2.05664,1.20703-5.54395,1.20703-5.54395,0,0-2.05664,2.81641-3.84473,4.51562l-7.10938,6.75098h-.49121l-4.73926-6.75098c-1.16211-1.60938-2.59277-4.20312-2.72754-4.4707-.04492.13379-.3125,3.48633-.6709,5.49902l-2.01172,11.40039h-5.85645l5.41016-30.71484Z"/><path class="cls-1" d="m184.20617,49.20141c0-6.16992,4.69434-10.19336,10.59668-10.19336,5.63281,0,10.05859,3.97949,10.05859,9.70215,0,6.16895-4.69434,10.14844-10.5957,10.14844-5.63281,0-10.05957-4.06836-10.05957-9.65723Zm14.5752-.53613c0-2.77246-1.60938-4.56055-4.1582-4.56055-2.68164,0-4.33594,2.10156-4.33594,5.18652,0,2.77148,1.60938,4.56055,4.15723,4.56055,2.68262,0,4.33691-2.10156,4.33691-5.18652Z"/><path class="cls-1" d="m210.40539,39.4104h5.90137l-.75977,3.66602c1.87793-3.26367,3.7998-4.06836,5.85645-4.06836,1.3418,0,2.14648.35742,2.86133.75977l-2.23535,5.41016c-.71484-.44727-1.51953-.62598-2.45898-.62598-2.59277,0-4.38086,1.07324-5.1416,5.4541l-1.47461,8.4502h-5.90137l3.35254-19.0459Z"/><path class="cls-1" d="m235.62121,54.07446c2.2793,0,3.62109-.89355,4.64941-1.6543l3.44238,3.8457c-2.14551,1.6543-4.51562,2.59277-8.13672,2.59277-6.61719,0-10.64062-3.97949-10.64062-9.65723,0-6.25879,4.96289-10.19336,10.77441-10.19336,6.7959,0,10.19336,5.05273,9.34375,11.66895h-14.12695c.40234,2.10156,1.92188,3.39746,4.69434,3.39746Zm3.70996-6.75c.04492-2.19141-1.38574-3.62207-3.7998-3.62207-2.36914,0-3.97852,1.20703-4.51562,3.62207h8.31543Z"/></g></svg>