<?xml version="1.0" encoding="UTF-8"?><svg id="_レイヤー_2" xmlns="http://www.w3.org/2000/svg" xmlns:xlink="http://www.w3.org/1999/xlink" viewBox="0 0 423.5887 333.01103"><defs><style>.cls-1{fill:none;}.cls-2{clip-path:url(#clippath);}.cls-3{fill:#e6e6e6;}.cls-4{fill:#fff;}.cls-5{fill:#f0bda5;}.cls-6{fill:#e5b187;}.cls-7{fill:#64aee5;}.cls-8{fill:#b8d3e1;}.cls-9{fill:#cea691;}.cls-10{fill:#ddebf2;}.cls-11{fill:#14509f;}.cls-12{fill:#3b3b3b;}.cls-13{fill:url(#Novpol昼ko_p_echodu_2);}</style><clipPath id="clippath"><path class="cls-1" d="m334.87258,259.42381c-22.43616,42.65425-67.18474,71.74082-118.72686,71.74082-56.71995,0-105.21287-35.22408-124.7973-84.99077L0,182.5893V0h423.5887v238.37975l-88.71611,21.04406Z"/></clipPath><linearGradient id="Novpol昼ko_p_echodu_2" x1="17049.91464" y1="279.96116" x2="16963.16017" y2="214.70346" gradientTransform="translate(-16679.59235)" gradientUnits="userSpaceOnUse"><stop offset="0" stop-color="#accfdf"/><stop offset="1" stop-color="#fff"/></linearGradient></defs><g id="_レイヤー_1-2"><circle class="cls-7" cx="216.14572" cy="197.10199" r="134.06264"/><g class="cls-2"><path class="cls-12" d="m120.74692,68.02412c-9.35239,0-15.68647,3.74516-17.56349,11.64856-.72223,3.041-.87729,6.93093-1.43765,10.02-.56963,3.14039-3.33338,5.72829-3.40322,9.14578-.05996,2.93147,1.39892,5.92083.34064,9.13086-.98788,2.99672-3.85127,6.84068-2.41529,13.49266,4.47859,20.74649,19.25943,28.79799,48.05752,19.53703,9.31043-2.99405,24.29141-14.38755-5.79582-63.88594-4.08344-6.71789-8.43031-9.08895-17.7827-9.08895Z"/><path class="cls-6" d="m92.20565,148.37685c10.35187-9.91466,35.21407-10.66033,17.90242,14.45961-12.3959,17.98693-30.68747,26.58835-43.60551,29.63454-13.34728,3.14735-6.08951-9.74265-1.82155-16.87798,7.41177-12.39116,17.17252-17.30207,27.52464-27.21617Z"/><path class="cls-3" d="m96.57572,177.51861c-.30055-.70877-3.12844-8.38911-14.54433-13.86729,10.71595-17.07449,28.92971-25.94388,37.49119-21.07402,9.46716,5.38503-18.61642,31.64-22.94686,34.94131Z"/><path class="cls-4" d="m113.6252,242.46465s3.40705-22.81994-1.04512-40.80691c-1.92216-7.76548-7.24314-10.97067-7.08016-21.07579.19758-12.25027-5.92189-30.00871.34583-37.78074,2.46985-3.06258,16.59719-10.57077,31.65937-11.65749,24.12757-1.74072,37.2979,5.59078,45.15192,9.39429,17.76621,8.06804-8.96424,15.35742-6.11482,26.04282.90205,4.99911,1.78348,7.16659,1.71187,13.95397-1.43966,9.66146-7.97425,18.72015-8.80172,26.66232-1.25585,12.05381,3.79444,26.7703,2.16335,33.13943-4.15575,16.22867-57.99053,2.1281-57.99053,2.1281Z"/><path class="cls-11" d="m110.96488,237.17714c-6.3477,14.66198-9.39495,29.78123-10.95206,69.54128l84.41111.00827c-1.08672-34.01304-1.69382-55.37339-11.67499-69.69902-22.16195-.91869-40.14157-1.2965-61.78407.14947Z"/><path class="cls-3" d="m181.54971,179.19886s-.42803-9.78889-2.76823-5.26985c-5.16461,9.97299-12.65359,21.0832-25.83224,16.63103-12.60543-4.25863-20.59158-5.66663-28.34939-3.65536-12.10781,3.13903-19.08328-4.88847-19.08328-4.88847,0,0-.72414,4.70935,4.35308,13.2849,5.67418,9.58385,2.57873,27.30674,1.0968,41.91375,10.41818,13.62387,62.87744,1.11143,62.87744,1.11143,0,0-2.90751-21.71254.25108-30.60927,3.95172-11.13066,7.45474-28.51816,7.45474-28.51816Z"/><path class="cls-6" d="m123.11793,120.8453c2.00072,2.07475,25.32165-3.82964,28.25474-7.04723,2.10758,6.58622,3.22723,14.22618,9.15481,20.08786,2.57313,5.1455-.97517,20.66793-18.19308,20.66793-13.46326,0-17.22497-11.5406-15.18698-18.91506,4.63139-4.45318,1.17361-9.45869-4.02948-14.79349Z"/><path class="cls-6" d="m195.4887,161.62125c-3.5193-13.89522-18.24558-30.30538-18.77058.19758-.49399,28.69926,7.07512,35.17019,8.65578,54.23719.48416,5.84029,6.00978,12.28305,11.06481,10.88368,11.65754-3.22728,5.38589-13.77435,4.74203-22.06372-1.05379-13.56754-1.31652-25.97923-5.69204-43.25473Z"/><path class="cls-4" d="m178.27412,182.96047c.6013-.48078,8.12568-4.56094,20.95224-3.63887-3.68824-23.4468-8.12018-38.88839-19.00673-38.55884-10.88655.32955-7.22791,23.98406-1.9455,42.19771Z"/><path class="cls-6" d="m94.08943,147.04929c1.13165.91108,2.33516,1.90279,5.68059.88913,5.03078-1.52422,7.94666-5.60307,11.11418-7.65639,3.00676-1.94918,5.08781-2.81564,5.08781-2.81564,0,0-.08013-2.54907-5.23566-1.25086-7.17628,1.80713-2.49865-17.79602-2.49865-17.79602,0,0-.5423-.20821-2.87922-1.1627-2.40586-.98264-4.3204.61174-4.2845,1.89553-3.63201-1.28969-4.00432,2.30238-4.00432,2.30238,0,0-3.02627-.92485-4.71268,4.56563-1.6863,5.49043-2.58024,15.4423-1.42892,17.83464,1.01022,2.09916,2.14268,2.37414,3.16137,3.1943Z"/><path class="cls-11" d="m125.21335,124.09678s-20.73928,17.90478-21.70129,18.66398c-.78743.62151-1.58605,1.18979-2.57943.10252-.99333-1.08727-6.56539-11.50374-7.25116-12.75864-.48108-.88026-.49354-2.05947.19511-2.63575.8254-.69081,2.68936-2.18831,2.68936-2.18831,4.64803,4.11561,8.06582,3.23096,7.64571.34538,1.55963,1.12842,3.39666-1.46493.08386-4.73991,2.08252.94648,4.13467-1.29448,2.72088-2.97025,2.13915-1.89452,10.06503-8.03405,10.06503-8.03405,0,0,1.51409-.83443,2.37187.61808.85778,1.45253,5.76006,13.59695,5.76006,13.59695Z"/><path class="cls-5" d="m97.94025,149.09333c-6.64578,10.82074-13.08939,24.67789-21.83109,34.64101-8.74161,9.96312-19.69512,15.4311-21.20745,3.95172-1.47511-11.19663,10.17022-21.61864,12.97477-24.30301,13.34884-12.77704,20.17464-18.74966,22.36008-21.24043,2.18539-2.49073,9.48652,4.04789,7.7037,6.95071Z"/><path class="cls-6" d="m130.4699,136.06793s.3539-11.00748-7.68126-11.00748c-4.80743,0,12.254-34.36961,12.254-34.36961l9.00464-3.04216s5.90413,28.67924,9.4251,35.32834c3.52102,6.6491,2.841,20.26697-3.24372,24.59877-6.08467,4.33185-19.75876-11.50787-19.75876-11.50787Z"/><path class="cls-5" d="m136.66908,103.38292s5.82764-1.18026,3.80352-11.5587c-.58189-2.98376-9.26772-6.55808-11.35376.84088-7.36669.82122-6.52894-20.46218-6.52894-20.46218l-3.40156,1.41252s-3.40095.94674-7.60002,5.76865c-5.41322,6.21618-3.83256,13.13165-3.47029,19.75075.24861,4.54313-2.06234,8.49002-2.38342,9.42853-.32107.93856-.11104,2.20465,1.54364,2.43894,1.39544.19763,2.37101.19763,2.37101.19763,0,0,5.35104,11.66415,6.22395,13.62105.39273.88037.83181,2.54111,3.96821,1.64652,4.79145-1.36664,8.16577-2.67944,11.2459-5.84524.64896-.66691,2.99536-3.83297,4.09988-7.11309,1.63008-4.84081,1.48187-10.12625,1.48187-10.12625Z"/><path class="cls-12" d="m147.35508,68.94619c-13.05686-10.6684-32.17348-2.56859-37.11313,8.00223-4.1493,10.17561,7.95075,19.37642,21.43801,18.54007.32934-3.81994,1.68459-5.50287,4.28107-5.46651,3.30453.04624,4.03574,2.32436,4.31395,4.1493,2.65654,17.42713,12.34906,26.73987,16.1032,34.19876,3.65531-2.7168,1.00997-5.38876,2.27223-8.64438,1.14471-2.9525,2.29381-4.02656,2.16209-7.7807-.08462-2.4112-1.56513-4.51893-1.86573-6.93942-.35516-2.85996,1.28989-7.07446.98793-9.87926-1.14158-10.6031-4.95196-19.94772-12.57961-26.18009Z"/><path class="cls-5" d="m210.09264,271.15527c-.4352-3.3398-1.55165-12.37752-1.89541-15.23052-.55659-4.61926-1.04367-12.7684-3.37096-20.05891-4.61339-14.45211-18.96206-12.62572-17.36174,2.60674,1.16069,11.04811,11.34036,20.81686,15.92632,33.15846,2.71644,7.31029,6.58773,1.01484,6.70179-.47578Z"/><path class="cls-6" d="m203.60604,275.82803c-2.80611,4.44007-3.59128,5.8958-4.165,9.78195-.31816,2.15499-.28787,5.32807-.72304,10.07747-.26226,2.8624,2.50854,1.07644,3.23952-2.06403.5099-2.19077.66152-4.29017.91602-5.86628.54337-.27455,2.6529-2.20987,3.3589-3.22226,5.35313-7.67614-2.6264-8.70685-2.6264-8.70685Z"/><path class="cls-5" d="m203.1852,269.70185s-2.73602,7.67232-3.57858,14.13599c-.21282,2.79143,1.89243,6.19027,3.62129,8.89956,3.35773,5.26167,7.81222,8.53097,8.55934,9.4653,2.52544-1.67126.70728-3.96614-.4163-5.41602,1.16039.62415,2.61341,1.25853,3.96662,2.02317,2.19739-2.44064-1.83164-4.62037-3.5115-6.27177.84664.12287,2.30052-.17649,4.29603-.10483.88068-1.85549-1.12196-3.42183-4.8108-3.73923-1.11356-1.96409-.76776-4.113-.66977-4.68388,0,0,1.87974-5.68567,1.78553-9.45382-.09529-3.81103-3.05182-5.52413-3.05182-5.52413l-6.19006.66965Z"/><path class="cls-10" d="m345.87685,247.26838c-4.87603.04522-9.53151-2.04043-13.58749-6.3609-5.38255-5.73361-36.30498-58.225-36.30498-58.225l1.23137-56.87262s38.77974,9.73663,44.01833,43.56765c3.23165,20.86464,10.46361,43.44492,10.46361,43.44492"/><path class="cls-13" d="m293.61015,113.19023l-15.71635-2.70631,1.17138,4.18402s-10.62229,8.37781-37.8724,24.20809c-6.67115,3.8754-10.04157,9.92344-11.6955,15.94842-2.01557,13.92583,18.07487,12.7587,10.12037,48.23899,6.46887,39.2559,5.01647,91.42084,5.01647,91.42084,0,0,7.649,4.70734,9.42698,5.11229l75.98533-5.24848s.60614-44.65139,6.07973-97.32768c4.50632-43.33363-42.51601-83.83016-42.51601-83.83016Z"/><path class="cls-11" d="m306.19763,132.65033s3.402,1.27146,4.22681,6.62559c.52441,3.26535-.67763,5.62905-.67763,5.62905,0,0,11.60629,18.48886,12.80827,45.8467,1.85275,41.96658.92718,77.92119.92718,77.92119l-16.4083,15.59177-8.20412-18.05555s8.84505-36.02558,11.87132-77.07102c2.08954-28.35225-4.99479-43.01236-4.99479-43.01236,0,0-2.54372-2.45935-5.84496-5.10395,4.9283-4.16705,6.29621-8.37143,6.29621-8.37143Z"/><path class="cls-12" d="m271.25268,311.20348c-4.26224-11.87333-8.82395-19.60169-8.82395-19.60169l67.76321-.83964-.45068,20.4158-58.48858.02554Z"/><path class="cls-11" d="m303.99111,291.24388l-1.15235,19.96909-63.76329-.03802c.45649-6.57193,2.11588-11.83439,5.5942-19.83647,31.3979.47294,59.32144-.09461,59.32144-.09461Z"/><path class="cls-6" d="m279.24756,115.37472s7.44471-4.63027,8.85196-22.56113c4.4487-9.5783,13.33228-11.39596,13.33228-11.39596,0,0,8.93897,7.65498,9.92258,14.02021.89428,5.85042,2.1903,13.26148,4.91784,13.32607,5.63521.13148,12.9776,3.16085,12.9776,3.16085,0,0-14.099,1.55569-24.19521,18.66313-13.95493.10364-25.80704-15.21316-25.80704-15.21316Z"/><path class="cls-5" d="m330.37052,113.85153c-5.22145-.68315-9.23626-1.51445-14.17722-2.17207-6.51758-.87272-8.385-8.21039-8.385-8.21039l1.29119-7.64859s-4.43483-.9055-7.14483-6.17722c-.57313-1.1095-1.86989-7.61828,3.34052-8.80272,7.72664-1.77896,3.59628-20.27547,3.59628-20.27547l10.49087-1.35025,8.31489,5.96838s5.2574,10.24937,4.99674,14.24336c1.19721,2.14567,6.56532,12.10465,6.56532,12.10465,0,0-.54471,1.90653-2.3832,2.07677-2.32011.21481-3.26552.30114-3.26552.30114,0,0-1.06326,2.57449.06137,5.25895-.07885.93897-.21913,1.39488-.65278,2.47649-.58187.49019-.62086.9461-.70535,1.95518-2.0468,3.81633,2.01575,5.32992,1.54074,7.91799-.16271.87755-1.58617,2.59359-3.48402,2.3338Z"/><path class="cls-12" d="m333.01915,101.64456s3.51743-3.4529.59141-7.73544c-3.51818.13786-4.0323,4.28501-5.92444,6.01859-10.85994-2.35536-14.14944-8.67918-13.14594-13.45594,1.74077-8.31173-1.12779-17.15189-1.26254-18.52837-1.56064-5.70779,6.29834-4.65879,14.41958-2.7602,1.74796-1.38056,2.15602-4.31687,1.87466-5.65119-1.68101-7.12407-12.61371-10.80714-33.0807,2.46447-13.88051-1.01006-7.69035,19.77188-8.38776,30.79912,13.72211-.82808,11.00251-8.18175,15.42861-11.02086,3.98766-2.45814,7.4596,1.09834,7.53621,5.49654.05901,3.17062-2.01897,8.25272-2.01897,8.25272,0,0-1.81255,3.59277-.66802,8.3831,1.86753,7.74343,13.95015,12.53319,21.47199,12.46866,7.51073-.06459,3.16591-14.73119,3.16591-14.73119Z"/><path class="cls-3" d="m277.9726,110.44458l-5.04051,8.50578s12.52605,15.52879,24.44516,23.94232c2.66427-1.12181,6.83121-3.14917,10.86902-11.75577-20.58196-5.14548-30.27368-20.69233-30.27368-20.69233Z"/><path class="cls-4" d="m230.81263,150.89878c-8.6789,24.6907-5.81746,68.99222-10.45691,88.8592,5.27429,11.67429,13.36156,19.90846,29.74322,2.45604,16.38171-17.45248,11.66882-59.31265,4.02214-75.6447-7.64669-16.33217-19.4345-26.69135-23.30845-15.67054Z"/><path class="cls-3" d="m243.35714,238.54113l1.20187,26.79788s7.38932-5.53622,11.83088-9.16426c4.44145-3.62803,10.19864-26.78908,10.69642-31.4366.49778-4.64758-13.7576-6.53001-13.7576-6.53001,0,0,2.90416-5.293-.05619-13.75121-2.62907-7.51165-5.97178-9.12664-5.97178-9.12664l-3.94361,43.21084Z"/><path class="cls-8" d="m263.06535,230.85448c-6.06165.82093-10.08098,2.71117-12.42903,2.65745-3.99355,1.17289-16.15179,7.47715-26.21757,2.43181-3.50894,1.69241-5.38515,3.29103-3.13626,7.54537,6.79185,12.84852,15.24231,14.994,26.80543,11.55181,11.56307-3.44219,22.6587-13.55405,24.0369-16.18053,1.37819-2.62654-4.66527-8.60101-9.05947-8.0059Z"/><path class="cls-11" d="m311.29191,229.73122c-.85572-.84673-23.38369-24.17647-24.11709-24.93254-.56413-.58127-2.07662-1.53955-4.56923-1.87336-2.49265-.3337-44.46453-2.67871-45.28861-2.73643-.82397-.05772-2.70521,1.93633-1.33331,3.72028,1.37202,1.78406,25.70083,25.01259,26.08399,25.45346.38321.44087,2.29486,1.33907,3.60097,1.33494,1.30605-.00412,43.90558,2.94595,45.05098,2.96246.56619.00811,1.20457-.7655,1.39257-1.49357.1923-.74479-.38753-2.00712-.82026-2.43525Z"/><path class="cls-12" d="m310.61661,231.91768c-.4662-.36646-24.37198-24.83991-24.9756-25.38-.80647-.72162-2.13415-1.35965-4.62686-1.6934-2.49266-.33381-44.03438-3.01133-44.85841-3.06899-.82402-.05766-1.12166,1.12372.25025,2.90774,1.37196,1.78401,23.68712,26.15769,24.07027,26.59851.38316.44087,2.29486,1.33907,3.60091,1.33495,1.30606-.00407,45.13858,1.11402,46.28398,1.13047,1.1454.01657.72172-1.46283.25546-1.82929Z"/><path class="cls-9" d="m249.64752,237.23867s4.23735,5.25818,11.64657,4.75678c7.40923-.50135,17.58415-5.97739,17.58415-5.97739,0,0,12.82805-3.42364,15.96899-4.57366,3.14094-1.14997-1.11787-2.86987-2.27545-2.57202-1.15757.2979-11.90492,2.36903-11.90492,2.36903,0,0,3.03451-1.90404,4.13871-2.65203,1.66865-1.13038,3.41271-3.10211,4.70074-4.93399.40951-.58241-.34894-2.03368-2.52811-1.76135.66098-2.91995-2.81661-2.85612-3.65761-2.13064-1.98833,1.71521-3.87044,3.30258-5.6484,4.43671-2.83273,1.80692-7.07106,3.9119-7.07106,3.9119,0,0,3.73611-8.56079,4.88992-10.05392,1.15387-1.49314-1.56095-5.18087-4.14013-.81448-2.57913,4.36633-5.34681,7.26209-6.51947,8.60821-3.4124,2.53003-10.39939,2.82781-10.39939,2.82781,0,0-1.84754-2.75253-.97273-5.25623.87481-2.5037-2.13407-6.15367-4.08726-7.39798-1.95313-1.24432-3.40774.17043-2.40478,3.33022,1.00296,3.15979-.52047,7.18599-.30931,9.99885.21111,2.81292,2.98954,7.8842,2.98954,7.8842Z"/><polygon class="cls-6" points="358.4729 165.15518 359.84722 154.11456 373.08316 155.6777 371.33955 167.7508 358.4729 165.15518"/><path class="cls-6" d="m358.22687,137.14448c1.85525.40965,3.732-7.98761,3.732-7.98761,0,0,3.18718-12.41088,4.39237-15.56384,1.2058-3.15304,4.67735-2.18957,4.03393,1.12175-.64521,3.30952-1.78832,11.11309-1.7598,11.66528.31571-.50636,1.19469-1.26565,1.81123-1.18819,2.07289.26049,2.18834,4.02118,2.09578,5.4725-.08118,1.27303,1.97626,2.85523,1.83895,3.78139,4.84314,1.85559,3.33364,5.96949,3.33364,5.96949,0,0,.46567,1.0369.16372,5.58527-.25264,3.80593-1.21806,11.55408-6.75334,11.90252-5.65891.3562-9.26526.98725-12.71462-3.22161-3.45133-4.20722-4.63254-7.37264-4.62698-15.12072"/><path class="cls-5" d="m375.63205,143.79108c-1.43464,2.65272-4.20944,1.44791-3.67418-.76526.22428-.92738.55406-1.91631.55406-1.91631,0,0-3.11987,1.48739-2.8299-2.81243-3.42739.1448-3.05436-3.04242-2.42351-6.16539.6572-3.25303,1.50867-5.42643,2.32394-6.59756.81522-1.17116,3.92153.57259,3.91125,2.2388,2.04223.16014,3.43161,1.14564,3.14786,2.63203-.13625.71338-.50216,1.75903-.50216,1.75903,0,0,4.34373-.2761,2.9147,4.5509-.62356,2.10608-2.85662,6.03074-3.42204,7.0762Z"/><path class="cls-6" d="m359.21332,129.1118c-.377-4.7622-3.15126-5.59227-4.51729-1.41605-3.08551,9.4325-2.3075,10.16275-.22222,19.61305l4.63695-5.58252c-1.48606-3.00636.47727-7.84862.10256-12.61448Z"/><path class="cls-10" d="m343.42213,211.97638l14.53501-54.45515,15.26052,3.2951s-2.39575,35.06261-5.6529,59.42534c-2.75247,20.58768-13.87208,30.67324-28.35939,25.61202"/></g><path class="cls-4" d="m179.62856,326.84552s-2.70474-4.94204-2.82842-15.08484c-.12517-10.26508-.26074-23.93314-4.76735-36.45155-7.42261-20.61838-5.75116-38.51426-5.50813-40.87268.31637-3.07023,1.87777-6.69736,7.17723-9.11757,5.86107-2.67673,15.07175-8.10723,26.70424-14.05825.54419-3.67622.77894-4.36474,1.21187-6.4094,9.54529-4.41277,26.01577-5.0162,32.42272-1.48137,1.21014.66768,2.25333,5.25774,3.83898,9.22194,5.66107,2.61421,29.7226,16.48953,31.37953,17.9848,6.84339,6.17578-1.11013,27.9655-7.46934,44.73253-4.6646,12.29901-5.45173,35.75688-5.22867,40.22277.22306,4.4658-3.35817,9.69351-5.65683,11.12507-45.06592-.37715-71.27583.18855-71.27583.18855Z"/><path class="cls-3" d="m202.70292,227.11316c1.7526-2.50369,4.9457-8.09281,5.13257-8.8255.18692-.7326.65237-1.07462.65237-1.07462,0,0-6.3274-5.8731-6.86986-12.36182-2.10727,4.51705-3.04618,7.28156-3.04618,7.28156,0,0,.45901,7.21895,4.1311,14.98038Z"/><path class="cls-5" d="m204.92102,184.37193s1.58363,17.17397-.68457,23.0247c-.06261,4.31888,5.56025,9.15933,5.56025,9.15933,0,0,.54246,3.58864,1.04319,7.67796l8.8881,14.14584,10.30685-14.39618s1.21288-4.82091,1.6691-7.26072c.4799-2.56623.83457-4.59006,1.00147-6.4261.16694-1.83604-.45521-3.48031-.75108-6.42615-.29587-2.94589.66763-21.28129.66763-21.28129l-27.70094,1.78262Z"/><path class="cls-3" d="m234.80225,215.49187c.68274,1.33834,3.74509,10.57809,3.74509,10.57809l-7.42757-1.83605s1.84071-7.5334,1.94538-8.92438c.10467-1.39094,1.0545-1.1559,1.7371.18234Z"/><path class="cls-6" d="m231.30755,196.75598s-.54246,5.00735-5.38296,8.76288c-9.42926,7.31583-18.256,6.98949-19.71653,7.03122-.74718-1.00282-2.00294-3.19224-2.00294-5.15345.96181-6.08331-.64198-22.44802-.64198-22.44802l27.72352,7.3216.02089,4.48577Z"/><path class="cls-3" d="m133.34495,306.63543c1.13256-3.28502,18.15989-47.61695,29.86236-71.38531,2.17763-4.42232,4.11108-6.32854,5.81367-6.4719,3.7629,7.53598,2.43553,35.05718,5.2651,46.90642-.75108,7.1355-5.04512,19.07469-10.60768,24.68436-1.69716,7.26525-3.72445,23.30343-18.87175,23.4286-15.14731.12517-12.59426-13.87716-11.4617-17.16218Z"/><path class="cls-4" d="m136.82425,308.27281c-1.5022,4.38144-3.2688,12.06956,2.59448,14.72314,6.70094,3.03424,54.39609,1.88614,54.39609,1.88614,0,0,8.3544-1.2842,9.62479-10.23679.98463-6.93867-5.04931-8.91856-5.04931-8.91856,0,0-20.64687-3.9335-31.96097-5.65678-11.3141-1.72334-29.60508,8.20286-29.60508,8.20286Z"/><path class="cls-4" d="m232.11118,308.30376c8.76293-3.2548,38.12171-5.41486,37.77387-7.32194-.34731-1.90606-8.72905-20.40908-8.84623-30.55492-.11612-10.14463.07613-59.86245,13.51988-32.17233,8.38736,17.27542,21.3477,53.67634,24.55322,69.89254,1.76126,8.90985-2.49405,13.23869-8.75913,14.52684-13.45015,2.76547-41.89211-.66142-55.72745,1.21745-1.29358-2.58712-.90204-9.34076-2.51416-15.58764Z"/><path class="cls-3" d="m260.58274,266.09811s-7.042,15.84872-10.74792,30.67253c-.50073,2.00294-1.89105,17.24418-1.89105,17.24418l10.47207-3.59648s2.58847-27.17061,3.83253-31.96953c-.84853-5.18541-1.66563-12.3507-1.66563-12.3507Z"/><path class="cls-12" d="m259.39214,330.07669c.00577,1.37978-1.1137,2.43678-2.50011,2.37422l-80.32774.56012c-1.38685-.06256-2.78015-1.23266-3.11591-2.62755l-5.65549-47.24095c-.47908-1.99076.49178-3.56198,2.17503-3.48608l91.94666-.03619c1.68291.07589,3.05383,1.75298,3.06216,3.72228l-5.5846,46.73415Z"/><path class="cls-11" d="m167.92793,283.83942c.11449-1.33473.98833-2.2528,2.28466-2.19433l91.94671-.03624c.94608.04264,1.94596.21555,2.69218,1.17799,0,0,.02382.04172.05626.0321.03253-.00962.03171-.04639.03171-.04639-.06944-1.53652-1.64581-3.25374-3.32872-3.32968l-91.9469.036c-1.68301-.07589-2.20304,1.48199-2.12051,1.90505,0,0,.35054,2.85383.38461,2.4555Z"/><path class="cls-3" d="m220.98505,247.80775c0,.90257-.73164,1.63421-1.63416,1.63421-.90257,0-1.63421-.73164-1.63421-1.63421,0-.90253.73164-1.63416,1.63421-1.63416.90253,0,1.63416.73164,1.63416,1.63416Z"/><path class="cls-3" d="m220.98505,268.46617c0,.90253-.73164,1.63421-1.63416,1.63421-.90257,0-1.63421-.73168-1.63421-1.63421s.73164-1.63416,1.63421-1.63416c.90253,0,1.63416.73164,1.63416,1.63416Z"/><path class="cls-5" d="m237.91474,186.44132s-4.38059,11.89679-9.64501,16.32023c-4.85745,4.08123-15.55539,4.28607-20.11463-.86919-5.08854-5.75515-8.50848-14.7724-8.50848-14.7724,0,0-1.43613.48281-3.1526-1.91472-2.35597-3.29009-3.37924-9.26772-2.58902-10.9843.98453-2.14165,4.11118-1.02784,4.11118-1.02784,0,0-8.65602-18.24472,2.6917-26.96833,11.34917-8.72494,30.07797-4.41517,35.18883,6.29098,5.10947,10.7069,2.26445,20.34815,2.26445,20.34815,0,0,3.6042-2.76715,4.61845,1.3686,1.01327,4.13575-.92365,7.35258-1.67178,9.01465-1.13948,2.53045-3.19307,3.19417-3.19307,3.19417Z"/><path class="cls-12" d="m241.01796,172.06114c-1.22111-.31532-2.46264.31439-3.47093,2.2057-1.0076,1.89044-.85746-2.18287-.74165-4.91729.59769-14.11146-2.85815-16.19668-4.06955-16.7739-3.0568-1.52458-9.33269,1.27887-12.22351,1.37872-9.57841.33007-13.48174-4.30324-18.5231,1.72422-1.88287,2.87376-1.59529,5.66473-.62833,15.44351.53375,5.41781-.99344,6.39587-3.11913,3.04988-.57954-.91284-2.34307-1.23655-3.68473-.68829-1.1822-2.96123-3.0627-5.25268-2.55294-16.20552.40604-3.32344,2.94695-5.6634,3.88824-7.16115.94135-1.49805,1.32697-4.54034,3.076-6.46379,1.49406-1.64363,3.42503-3.72127,7.61784-4.1879,1.94403-.35105,3.41907-3.63247,8.68695-3.74908,3.47509-.42286,18.30178,4.13777,19.71276,6.735,3.01188,5.54586,1.14277,6.0074,2.61295,8.92625,1.0176.56433,3.84141,2.63741,4.71349,4.83265,1.9194,4.82611-.4132,7.46977-.43483,9.9146-.00688,1.04761-.42656,4.47113-.85954,5.9364Z"/></g></svg>