<?xml version="1.0" encoding="UTF-8"?><svg id="_レイヤー_2" xmlns="http://www.w3.org/2000/svg" xmlns:xlink="http://www.w3.org/1999/xlink" viewBox="0 0 450 450"><defs><style>.cls-1{clip-path:url(#clippath);}.cls-2{fill:none;}.cls-2,.cls-3,.cls-4,.cls-5,.cls-6,.cls-7,.cls-8,.cls-9,.cls-10,.cls-11,.cls-12{stroke-width:0px;}.cls-13{clip-path:url(#clippath-1);}.cls-14{opacity:.51;}.cls-3{fill:#14509f;}.cls-4{fill:#e0b29d;}.cls-5{fill:#b8deea;}.cls-6{fill:#95deed;}.cls-7{fill:#969696;}.cls-8{fill:#fff;}.cls-9{fill:#f0c0a7;}.cls-10{fill:#ffd200;}.cls-11{fill:#003853;}.cls-12{fill:#05427f;}</style><clipPath id="clippath"><rect class="cls-2" width="450" height="450"/></clipPath><clipPath id="clippath-1"><ellipse class="cls-2" cx="225" cy="225.293" rx="180.647" ry="180.371"/></clipPath></defs><g id="_レイヤー_1-2"><g class="cls-1"><circle class="cls-6" cx="225.094" cy="225" r="180.664" transform="translate(-93.17 225.067) rotate(-45)"/><g class="cls-13"><g class="cls-14"><path class="cls-8" d="m365.327,285.691c2.766-12.259,27.294-19.789,29.365-19.821,4.093-.064,4.003,9.365,5.644,8.743,1.643-.618,4.368-6.369,5.715-6.2,1.349.17,8.053,10.734,8.715,13.568.664,2.838,5.668,4.428,6.077,6.037.406,1.609-4.613,26.919-7.622,27.093-3.011.172-16.617-17.177-19.951-17.123-3.334.059-18.51,6.342-21.663,5.505-3.151-.837-7.337-13.117-6.281-17.803Z"/><path class="cls-8" d="m354.956,256.711c-.148-3.761,13.634-16.756,15.575-16.874,1.941-.117,3.206,7.473,3.575,9.692.372,2.219-3.327,9.195-5.895,10.717-2.564,1.522-13.106.228-13.255-3.535Z"/><path class="cls-8" d="m390.943,202.495c-2.662-.706,4.473-11.577,8.81-13.733,4.336-2.156,6.459-16.699,7.731-18.372,1.271-1.672,8.347,8.548,7.144,12.608-1.204,4.059-11.514,11.399-11.514,11.399,0,0,1.043,2.782-.269,4.336-1.316,1.552-9.238,4.467-11.901,3.761Z"/><path class="cls-8" d="m91.886,235.308s25.998-3.303,30.666-1.801c4.668,1.503,13.559,11.877,15.361,13.755,1.803,1.878,23.114,9.958,24.049,14.187.937,4.228-5.973,15.06-8.089,19.414-2.113,4.357-23.431,18.671-23.311,23.087.12,4.418-12.365,15.941-12.447,20.251-.079,4.312,1.5,17.241-1.098,16.487-2.596-.753-13.736-13.981-14.94-21.195-1.205-7.216,9.433-36.659,8.33-41.179-1.105-4.519-8.029-8.127-10.738-9.329-2.711-1.204-4.904-8.95-4.259-13.345.644-4.394-3.524-20.331-3.524-20.331Z"/><path class="cls-8" d="m94.554,237.703s-24.868-23.216-35.177-25.482c-7.916-1.739-16.412-16.464-20.88-21.039-4.469-4.576-2.663-30.131-5.675-33.438-3.012-3.307-18.074-10.95-22.586-9.383-4.513,1.566-22.45,9.254-26.583,6.463-4.127-2.792-6.648-20.773-3.582-25.161,3.068-4.389,14.51-14.309,17.821-14.61,3.314-.302,16.94,12.727,21.267,12.527,4.328-.2,14.803-6.372,19.954-6.895,5.151-.523,25.939,6.401,28.944,7.299,3.005.898,4.123-8.57,7.931-8.494,3.807.073,27.292,16.318,23.98,18.568-3.312,2.25-25.495,9.033-25.394,11.804.1,2.773,12.557,15.454,18.373,12.872,5.817-2.584,6.837-16.455,10.542-18.237,3.707-1.784,16.317,7.033,18.546,7.699,11.681,3.493,15.706,19.895,13.73,22.357-6.749,8.409-26.186,8.847-29.484,12.253-3.301,3.408-1.25,19.666-9.615,21.46-1.481.317-7.063-8.428-9.041-8.432-4.133-.009-6.09,2.857-6.959,4.811-.871,1.954-1.908,14.285-.871,15.635,2.914,3.788,15.249-3.837,16.861,1.804.706,2.47-2.102,15.621-2.102,15.621Z"/><path class="cls-8" d="m148.225,146.511c-4.525.821-8.93-7.537-13.294-10.514-3.051-2.081,5.389-7.349,5.539-10.806.152-3.458-10.752-15.297-14.862-18.506-4.11-3.206-11.944-3.96-10.285-7.793,1.658-3.832,34.631-6.688,40.954-9.093,6.323-2.405,28.136,2.995,33.12,7.817,8.346,8.073-18.637,10.129-20.475,12.627-3.34,4.537,2.854,14.308.372,17.15-2.48,2.843-12.229,3.81-14.705,7.352-1.76,2.518,1.235,10.391-6.364,11.767Z"/><path class="cls-8" d="m404.437,116.765c-2.755-.51-4.706.898-10.509,5.004-5.798,4.107-40.153-16.206-48.208-15.224-15.809,1.929-26.676,19.524-36.221,18.938-3.119-.191-2.514-10.174-6.455-11.005-3.943-.829-8.859,18.311-14.28,18.614-5.42.3-16.423-3.607-20.103-1.905-3.685,1.703-4.494,10.784-8.255,9.601-3.759-1.184-3.055-8.299-5.366-11.907-2.308-3.608-7.483-5.605-10.597-6.184-3.112-.581-16.002,4.38-17.706,6.184-1.707,1.803-16.261,14.534-16.261,18.641s6.854,11.9,11.646,11.54c4.791-.36,15.86-22.581,21.25-21.817,2.225.315-4.882,6.14-4.255,10.655.627,4.514,15.174,4.566,14.118,6.837-1.057,2.272-14.001,1.419-17.086,4.298-5.215,4.866-12.552,2.051-16.753,1.684-4.203-.368-14.852,6.189-15.042,9.633-.192,3.446,10.867,7.479,7.457,10.706-1.832,1.735-11.698-2.995-14.494-1.28-2.798,1.717-4.002,10.135-5.509,14.044-1.505,3.91,12.505,1.104,14.835-3.356,2.329-4.461,11.735-10.896,15.957-10.348,4.221.547,11.173,13.352,17.978,10.429,4.044-1.737,16.644-3.527,17.962.626,1.318,4.152-.114,9.691-4.214,10.836-9.686,2.703-20.651-3.554-29.658-2.674-2.457.239,2.904-5.773-2.18-7.297-5.085-1.522-23.091,5.139-25.831,6.92-2.741,1.778-13.936,26.7-12.253,30.626,1.685,3.923,9.211,15.648,13.426,17.152,4.218,1.502,13.962-8.336,17.219-8.077,3.259.259,10.979,24.915,12.388,27.47,1.409,2.553-1.949,10.055-1.174,12.767.775,2.714,9.88,23.168,12.101,23.162,2.224-.004,13.333-6.742,15.005-9.836,1.672-3.097,8.33-19.058,11.024-24.155,2.693-5.096-.769-13.665-.922-17.124-.15-3.457,5.204-8.304,10.115-7.673,6.11.785,17.424-16.981,14.18-24.971-1.196-2.948-11.249-8.005-10.562-9.556,2.388-5.4,20.108-4.52,27.822-.489,4.552,2.379,2.272,24.611,9.809,26.077,10.496,2.041,7.539-19.649,14.882-21.268,2.752-.608,13.079,20.626,16.982,21.891,6.221,2.016,13.075-2.008,14.347-4.484,1.269-2.476-7.432-7.519-5.329-10.859,2.102-3.341,12.285-5.983,18.436-8.67,6.148-2.686-5.451-17.764-3.667-20.347,1.787-2.583,10.752-1.419,15.203-1.398,4.449.016,14.006-12.745,15.45-18.64,1.446-5.896-4.758-6.308-6.173-10.011-1.415-3.702,9.753-6.358,17.567-11.344,7.817-4.985,35.844-1.796,40.95-5.646,5.107-3.849,8.957-19.772,1.612-17.523-7.346,2.25-47.897-8.752-50.658-9.266Zm-155.976,65.413c-1.571-2.101-.269-5.262,3.457-6.881,3.724-1.62,9.374-2.924,11.669-1.821,2.293,1.103,1.862,6.493,2.591,10.218.729,3.725-16.146.584-17.717-1.516Z"/></g></g><path class="cls-10" d="m129.6,258.564l-.065-4.942c-.046-3.526,2.787-6.431,6.309-6.477,3.528-.046,6.438,2.783,6.485,6.309l.041,3.129,3.244-.043-.041-3.129c-.07-5.317-4.449-9.588-9.771-9.518-5.315.07-9.581,4.455-9.511,9.772l.065,4.943-2.19.029.231,17.534,23.823-.314-.231-17.534-18.388.242Zm8.761,14.182l-4.192.055.65-5.245c-.981-.501-1.679-1.481-1.694-2.655-.022-1.685,1.325-3.067,3.011-3.089,1.684-.022,3.068,1.323,3.09,3.009.016,1.186-.671,2.197-1.653,2.716l.788,5.209Z"/><path class="cls-3" d="m85.237,165.559l-.065-4.942c-.046-3.526,2.787-6.431,6.309-6.477,3.528-.046,6.438,2.783,6.485,6.309l.041,3.129,3.244-.043-.041-3.129c-.07-5.317-4.449-9.588-9.771-9.518-5.315.07-9.581,4.455-9.511,9.772l.065,4.943-2.19.029.231,17.534,23.823-.314-.231-17.534-18.388.242Zm8.761,14.182l-4.192.055.65-5.245c-.981-.501-1.679-1.481-1.694-2.655-.022-1.685,1.325-3.067,3.011-3.089,1.684-.022,3.068,1.323,3.09,3.009.016,1.186-.671,2.197-1.653,2.716l.788,5.209Z"/><path class="cls-3" d="m273.867,223.767l-.065-4.942c-.046-3.526,2.787-6.431,6.309-6.477,3.528-.046,6.438,2.783,6.485,6.309l.041,3.129,3.244-.043-.041-3.129c-.07-5.317-4.449-9.588-9.771-9.518-5.315.07-9.581,4.455-9.511,9.772l.065,4.943-2.19.029.231,17.534,23.823-.314-.231-17.534-18.388.242Zm8.761,14.182l-4.192.055.65-5.245c-.981-.501-1.679-1.481-1.694-2.655-.022-1.685,1.325-3.067,3.011-3.089,1.684-.022,3.068,1.323,3.09,3.009.016,1.186-.671,2.197-1.653,2.716l.788,5.209Z"/><path class="cls-10" d="m253.59,170.58l-.065-4.942c-.046-3.526,2.787-6.431,6.309-6.477,3.528-.046,6.438,2.783,6.485,6.309l.041,3.129,3.244-.043-.041-3.129c-.07-5.317-4.449-9.588-9.771-9.518-5.315.07-9.581,4.455-9.511,9.772l.065,4.943-2.19.029.231,17.534,23.823-.314-.231-17.534-18.388.242Zm8.761,14.182l-4.192.055.65-5.245c-.981-.501-1.679-1.481-1.694-2.655-.022-1.685,1.325-3.067,3.011-3.089,1.684-.022,3.068,1.323,3.09,3.009.016,1.186-.671,2.197-1.653,2.716l.788,5.209Z"/><path class="cls-3" d="m207.87,146.299l-.065-4.942c-.046-3.526,2.787-6.431,6.309-6.477,3.528-.046,6.438,2.783,6.485,6.309l.041,3.129,3.244-.043-.041-3.129c-.07-5.317-4.449-9.588-9.771-9.518-5.315.07-9.581,4.455-9.511,9.772l.065,4.943-2.19.029.231,17.534,23.823-.314-.231-17.534-18.388.242Zm8.761,14.182l-4.192.055.65-5.245c-.981-.501-1.679-1.481-1.694-2.655-.022-1.685,1.325-3.067,3.011-3.089,1.684-.022,3.068,1.323,3.09,3.009.016,1.186-.671,2.197-1.653,2.716l.788,5.209Z"/><path class="cls-10" d="m326.814,115.548l-.065-4.942c-.046-3.526,2.787-6.431,6.309-6.477,3.528-.046,6.438,2.783,6.485,6.309l.041,3.129,3.244-.043-.041-3.129c-.07-5.317-4.449-9.588-9.771-9.518-5.315.07-9.581,4.455-9.511,9.772l.065,4.943-2.19.029.231,17.534,23.823-.314-.231-17.534-18.388.242Zm8.761,14.182l-4.192.055.65-5.245c-.981-.501-1.679-1.481-1.694-2.655-.022-1.685,1.325-3.067,3.011-3.089,1.684-.022,3.068,1.323,3.09,3.009.016,1.186-.671,2.197-1.653,2.716l.788,5.209Z"/><path class="cls-3" d="m385.238,174.941l-.065-4.942c-.046-3.526,2.787-6.431,6.309-6.477,3.528-.046,6.438,2.783,6.485,6.309l.041,3.129,3.244-.043-.041-3.129c-.07-5.317-4.449-9.588-9.771-9.518-5.315.07-9.581,4.455-9.511,9.772l.065,4.943-2.19.029.231,17.534,23.823-.314-.231-17.534-18.388.242Zm8.761,14.182l-4.192.055.65-5.245c-.981-.501-1.679-1.481-1.694-2.655-.022-1.685,1.325-3.067,3.011-3.089,1.684-.022,3.068,1.323,3.09,3.009.016,1.186-.671,2.197-1.653,2.716l.788,5.209Z"/><path class="cls-3" d="m388.553,514.377c-.28-3.355.822-64.566-8.581-99.789-14.828-55.546-75.793-54.729-87.527-9.295-8.798,34.07-3.604,96.415-3.604,107.946,12.056,0,31.996,1.137,40.486,1.137.105-1.835,2.424-22.086,2.939-26.2.512-4.114,5.098,24.663,5.238,26.2h51.05Z"/><path class="cls-11" d="m290.115,418.652l-.892,4.797,2.899,2.167s5.95-26.497,1.848-26.582c-4.101-.085-3.855,19.619-3.855,19.619Z"/><path class="cls-9" d="m211.381,200.961l-3.427-6.877s-1.296-27.256-1.581-36.138c-1.421-2.083-3.992,1.055-4.434,5.622-3.283,1.076-2.659,3.213-2.447,6.978.212,3.767.951,9.455-.828,13.145-.672,1.391-1.874,1-3.25-1.481-2.507-4.523-5.994-7.138-7.777-5.586.375,1.899,6.093,14.068,7.133,18.203,1.041,4.134,4.495,4.18,4.495,4.18l5.667,10.262,6.448-8.309Z"/><path class="cls-3" d="m211.454,200.69c24.457,38.389,38.03,50.038,45.787,58.472,7.757,8.434-1.031,32.905-18.487,17.878-17.456-15.025-38.16-68.567-38.16-68.567,0,0,3.574-3.536,10.86-7.783Z"/><path class="cls-8" d="m401.472,291.466s-17.532-13.718-25.462-24.786c-3.045-4.25-6.274-11.994-7.601-16.338-14.744-5.829-35.274,1.18-35.274,1.18,0,0-12.205,35.458-18.315,58.835-6.744,25.802-24.207,89.448-22.652,92.556,4.891,9.782,55.343,13,81.598,7.594,7.2-60.341,27.707-119.042,27.707-119.042Z"/><path class="cls-3" d="m391.898,434.825s-5.583-53.225-2.791-64.898c9.155-38.277,25.159-69.129,26.264-78.664.256-12.599-45.249-36.07-45.249-36.07,0,0,.991,7.799-.389,17.28-3.14,21.585-8.285,57.675-8.285,62.436,0,28.23,4.208,54.133,6.77,82.727,2.034,22.703,15,20.919,17.402,20.234,2.4-.686,6.28-3.045,6.28-3.045Z"/><path class="cls-3" d="m306.008,256.336l26.955-1.804s-8.422,35.396-19.221,77.078c-3.395,13.1-16.796,63.411-19.73,75.457-1.932,7.929-3.347,15.653-3.347,15.653,0,0-12.438-7.223-9.352-14.767,3.086-7.544,11.597-21.864,16.261-48.413-.454-19.392-2.754-48.409-4.127-65.894-1.372-17.485,12.562-37.31,12.562-37.31Z"/><path class="cls-3" d="m323.194,258.212c-8.089-3.902-47.405-1.237-70.882-2.538-17.488-.97-26.212,21.315-1.421,27.209,19.5,4.637,35.24,4.81,51.958,18.225,8.325-9.468,26.649-39.855,20.344-42.896Z"/><path class="cls-12" d="m361.447,334.706c9.717-14.033,21.937-44.518,21.937-44.518l-8.519-6.665,5.805-6.566s-6.852-8.85-10.182-10.753c-.571,4.663-9.248,54.202-9.041,68.502Z"/><path class="cls-12" d="m313.671,331.757c-2.75-16.845-.628-46.902-.628-46.902l7.359-4.504-3.045-6.535,13.259-9.261s-11.134,45.327-16.946,67.202Z"/><path class="cls-4" d="m363.051,225.752s-.676,16.892,3.889,26.923c2.19,4.812-9.074,9.885-16.785,12.197-3.352,1.006-5.418,1.232-7.105,1.142-1.914-.102-4.954-.854-6.089-1.903-2.167-2.002-2.743-5.499-2.683-10.924.126-11.673-3.282-23.459-3.282-23.459l32.054-3.976Z"/><path class="cls-5" d="m368.963,255.651s.143-6.809-1.092-5.053c-7.185,10.213-23.707,22.902-23.707,22.902,0,0,6.24.318,12.419,2.663,6.723-7.074,12.38-20.512,12.38-20.512Z"/><path class="cls-7" d="m354.215,266.331s-7.213-2.661-12.243-2.791c-5.033-.13-8.386.975-8.386.975l5.889,9.757s-8.577,27.148-10.001,37.989c-1.421,10.842-6.832,73.756-6.832,73.756,0,0,6.086,15.692,7.436,16.603,1.352.914,1.764.19,2.972-.906,1.87-1.697,13.553-12.257,13.553-12.257,0,0-1.467-74.301-1.332-76.816.135-2.512-1.047-38.158-1.047-38.158l9.991-8.152Z"/><path class="cls-5" d="m337.912,263.667s-4.975,4.361-7.137,7.962c-.861.64-1.089-.14-1.078-.666.133-6.326,1.187-16.301,1.187-16.301,0,0,1.349-3.479,2.364-3.162.412,1.443,1.635,8.794,4.665,12.166Z"/><path class="cls-9" d="m336.925,364.015s-16.073-3.327-29.823-3.763c.695,5.479,9.905,5.756,9.905,5.756,0,0-22.5,11.063-23.667,11.773-1.167.709-.273,3.419-.273,3.419,0,0-2.388,2.121.265,2.689,2.653.568,13.932-2.82,13.932-2.82,0,0-7.016,3.37-7.824,3.827-1.93,1.094-.952,4.32,6.334,2.174,2.771-.819,23.031-4.184,25.263-12.106.853-.136,6.563-.32,6.563-.32l-.675-10.629Z"/><path class="cls-3" d="m335.283,363.144l70.299,1.137s-9.973-25.183-16.747-40.924c-6.773-15.741,18.797-59.5,27.17-31.84,8.375,27.659,20.003,74.376,20.473,88.085.471,13.71-25.433,13.785-53.084,8.304-26.231-5.199-47.339-9.833-47.339-9.833l-.772-14.93Z"/><path class="cls-9" d="m367.16,214.604c-1.492-.304-2.149.125-3.246,1.892-.43.924-.778-7.171-1.344-11.209-.835-5.94-5.406-9.653-5.406-9.653,0,0-23.395.68-25.87-1.737-2.473-2.417-8.246,13.281-7.915,16.346.069.644.289,3.732,0,4.826-3.866,1.746.948,8.637,2.613,11.77,1.06,3.705,2.416,8.85,4.724,13.585,2.417,4.957,3.735,9.969,9.845,10.039,6.11.07,13.704-2.118,17.762-8.88,3.475-5.792,2.838-7.545,3.346-11.776.193-1.609,1.015-2.085,1.062-2.252,3.983-.019,9.961-11.146,4.43-12.949Z"/><path class="cls-8" d="m370.146,255.169s-1.04-6.327-2.275-4.57c-7.185,10.213-20.507,13.798-20.507,13.798,0,0,6.127,8.822,10.523,10.923,6.723-7.074,12.259-20.15,12.259-20.15Z"/><path class="cls-3" d="m367.135,198.645c-1.147-8.643-7.778-5.757-7.205-8.866,1.354-5.685-10.061-7.068-10.061-7.068l-1.898-.389s-8.732-2.164-17.382,2.884c-4.562,2.663-5.535,7.529-5.535,7.529,0,0-4.829,5.861-4.829,12.553,0,5.48,1.667,8.62,2.285,10.522,1.363,4.205,2.348,3.124,2.703,2.483.035-.582.038-1.174-.029-1.794-.331-3.065.125-9.602.576-12.176.451-2.574,2.095-7.146,4.568-4.73,2.476,2.417,8.272,4.728,14.287,3.057,5.838-1.623,9.384-3.511,9.384-3.511,0,0,4.583,1.046,5.417,6.986.834,5.941,1.287,11.004,1.287,11.004,0,0,.225,1.721.644,2.896.354.998,2.14.716,2.526.201,1.781-2.375,4.076-15.454,3.263-21.58Z"/><path class="cls-2" d="m450,225.293c0,35.614-8.274,69.295-23.005,99.226-6.036,12.265-13.157,23.9-21.236,34.78-7.871,10.6-16.653,20.484-26.23,29.536-40.306,38.098-94.689,61.458-154.529,61.458C100.736,450.293,0,349.557,0,225.293S100.736.293,225,.293s225,100.736,225,225Z"/><path class="cls-3" d="m335.283,363.144l70.299,1.137s-9.973-25.183-16.747-40.924c-6.773-15.741,18.797-59.5,27.17-31.84,8.375,27.659,20.003,74.376,20.473,88.085.471,13.71-25.433,13.785-53.084,8.304-26.231-5.199-47.339-9.833-47.339-9.833l-.772-14.93Z"/><path class="cls-12" d="m416.004,291.517c-.302-.996-.628-1.89-.972-2.706,8.025,28.273,18.814,73.015,16.592,85.573-2.159,12.206-24.566,13.647-52.217,8.166-19.636-3.892-36.398-7.467-43.587-9.018l.235,4.542s21.108,4.633,47.339,9.833c27.65,5.481,53.555,5.407,53.084-8.304-.47-13.709-12.099-60.426-20.474-88.085Z"/></g></g></svg>