<?xml version="1.0" encoding="UTF-8"?><svg id="_レイヤー_2" xmlns="http://www.w3.org/2000/svg" xmlns:xlink="http://www.w3.org/1999/xlink" viewBox="0 0 450 450"><defs><style>.cls-1{clip-path:url(#clippath);}.cls-2{fill:none;}.cls-2,.cls-3,.cls-4{stroke-width:0px;}.cls-3{fill:#14509f;}.cls-4{fill:#05427f;}</style><clipPath id="clippath"><rect class="cls-2" width="450" height="450"/></clipPath></defs><g id="_レイヤー_1-2"><g class="cls-1"><path class="cls-3" d="m335.283,363.144l70.299,1.137s-9.973-25.183-16.747-40.924c-6.773-15.741,18.797-59.5,27.17-31.84,8.375,27.659,20.003,74.376,20.473,88.085.471,13.71-25.433,13.785-53.084,8.304-26.231-5.199-47.339-9.833-47.339-9.833l-.772-14.93Z"/><path class="cls-4" d="m416.004,291.517c-.302-.996-.628-1.89-.972-2.706,8.025,28.273,18.814,73.015,16.592,85.573-2.159,12.206-24.566,13.647-52.217,8.166-19.636-3.892-36.398-7.467-43.587-9.018l.235,4.542s21.108,4.633,47.339,9.833c27.65,5.481,53.555,5.407,53.084-8.304-.47-13.709-12.099-60.426-20.474-88.085Z"/></g></g></svg>