<?xml version="1.0" encoding="UTF-8"?><svg id="_レイヤー_2" xmlns="http://www.w3.org/2000/svg" viewBox="0 0 234.304 102.981"><defs><style>.cls-1{fill:#fff;stroke-width:0px;}</style></defs><g id="_レイヤー_1-2"><path class="cls-1" d="m26.856,80.889h-11.088l-3.696,21.336H3.42l10.08-57.12h16.716c11.172,0,18.9,5.712,18.984,16.632,0,9.324-5.628,15.624-13.86,18.06l10.416,22.428h-9.239l-9.66-21.336Zm.252-7.224c8.483,0,13.188-4.116,13.188-11.592,0-6.048-4.031-9.492-10.92-9.492h-8.567l-3.696,21.084h9.996Z"/><path class="cls-1" d="m73.98,96.093c4.703,0,7.644-1.764,9.827-3.695l4.956,5.292c-3.779,3.275-8.315,5.292-14.867,5.292-11.341,0-18.816-7.309-18.816-17.725,0-11.256,8.904-19.067,19.488-19.067,11.928,0,18.228,8.988,16.716,21.168h-27.72c.504,4.956,4.115,8.735,10.416,8.735Zm9.323-14.447c-.084-4.956-3.107-8.736-8.987-8.736-5.544,0-9.324,3.36-10.5,8.736h19.487Z"/><path class="cls-1" d="m95.82,95.421l5.964-4.032c2.016,3.024,4.62,4.956,8.987,4.956,4.116,0,5.712-1.512,5.712-3.78s-1.848-2.94-7.14-5.46c-4.872-2.437-8.399-5.208-8.399-10.584,0-6.72,5.46-10.332,12.264-10.332,5.628,0,9.408,2.352,11.928,5.544l-5.544,4.536c-1.428-1.933-3.192-3.612-6.468-3.612-2.604,0-4.452,1.176-4.452,3.276,0,2.016,1.764,3.108,5.796,4.956,5.544,2.52,9.996,5.04,9.996,10.92,0,6.72-4.62,11.172-13.776,11.172-7.224,0-12.264-3.276-14.867-7.561Z"/><path class="cls-1" d="m132.443,86.013c0-12.18,7.812-19.824,17.053-19.824,5.544,0,10.247,2.939,12.264,8.399l1.092-7.644h8.316l-4.62,26.46c-.252,1.68.168,2.436,1.596,2.436h2.856l-1.093,6.384h-4.031c-6.553,0-7.645-2.268-7.645-5.544v-.756c-2.855,4.536-6.384,7.057-11.592,7.057-8.063,0-14.196-6.636-14.196-16.968Zm27.469-2.268c0-6.048-3.192-10.248-8.652-10.248-6.216,0-10.164,5.04-10.164,12.348,0,5.964,3.192,9.912,8.484,9.912,5.964,0,10.332-5.04,10.332-12.012Z"/><path class="cls-1" d="m178.14,93.237l9.072-51.66h8.315l-9.155,51.828c-.252,1.68.084,2.436,1.596,2.436h3.443l-1.092,6.384h-4.62c-6.552,0-8.819-2.184-7.56-8.988Z"/><path class="cls-1" d="m216.778,96.093c4.704,0,7.645-1.764,9.828-3.695l4.956,5.292c-3.78,3.275-8.316,5.292-14.868,5.292-11.34,0-18.815-7.309-18.815-17.725,0-11.256,8.903-19.067,19.487-19.067,11.928,0,18.229,8.988,16.716,21.168h-27.72c.504,4.956,4.116,8.735,10.416,8.735Zm9.324-14.447c-.084-4.956-3.108-8.736-8.988-8.736-5.544,0-9.324,3.36-10.5,8.736h19.488Z"/><path class="cls-1" d="m0,13.441l1.944-1.296c.721,1.2,1.896,2.4,3.793,2.4,1.848,0,2.928-.983,2.928-2.424,0-1.128-.672-1.68-2.185-2.664l-.96-.624c-1.968-1.272-2.976-2.544-2.976-4.561C2.545,1.8,4.393,0,7.345,0c2.064,0,3.528,1.056,4.488,2.521l-1.848,1.44c-.648-1.008-1.464-1.824-2.736-1.824-1.368,0-2.256.84-2.256,2.04,0,1.032.527,1.656,1.872,2.497l.96.624c2.136,1.344,3.36,2.496,3.36,4.704,0,3-2.232,4.729-5.448,4.729-2.953,0-4.945-1.729-5.737-3.288Z"/><path class="cls-1" d="m17.521.192h10.153l-.385,2.16h-7.681l-.863,4.896h6.792l-.384,2.136h-6.793l-.888,4.969h8.041l-.408,2.16h-10.465L17.521.192Z"/><path class="cls-1" d="m36.241,10.417h-3.169l-1.056,6.097h-2.473L32.425.192h4.776c3.192,0,5.4,1.632,5.424,4.752,0,2.664-1.607,4.464-3.96,5.161l2.977,6.409h-2.641l-2.76-6.097Zm.071-2.064c2.425,0,3.769-1.176,3.769-3.312,0-1.728-1.152-2.712-3.12-2.712h-2.448l-1.056,6.024h2.855Z"/><path class="cls-1" d="m47.16.192h2.521l2.112,8.569c.288,1.2.528,3.12.552,3.216.024-.096.769-1.92,1.464-3.096L58.729.192h2.568l-9.529,16.49h-.312L47.16.192Z"/><path class="cls-1" d="m65.16.192h2.473l-2.881,16.322h-2.472L65.16.192Z"/><path class="cls-1" d="m70.488,8.761c0-5.064,3.96-8.761,8.688-8.761,2.977,0,4.992,1.128,6.385,3.264l-1.992,1.344c-.912-1.416-2.28-2.4-4.465-2.4-3.48,0-6.024,2.88-6.024,6.553,0,3.36,2.232,5.761,5.257,5.761,2.256,0,3.648-.984,4.68-2.208l1.824,1.488c-1.607,1.968-3.576,2.928-6.576,2.928-4.488,0-7.776-3.433-7.776-7.969Z"/><path class="cls-1" d="m90.984.192h10.152l-.384,2.16h-7.681l-.864,4.896h6.793l-.385,2.136h-6.792l-.889,4.969h8.041l-.408,2.16h-10.465L90.984.192Z"/></g></svg>